<?xml version="1.0" encoding="UTF-8"?>
<svg width="226.77px" height="226.77px" enable-background="new 0 0 226.772 226.77" version="1.1" viewBox="0 0 226.77 226.77" xmlns="http://www.w3.org/2000/svg"><rect width="226.77px" height="226.77px" fill="#fff"/><linearGradient id="a" x1="75.312" x2="83.627" y1="49.894" y2="62.241" gradientTransform="matrix(1 0 0 -1 0 226.11)" gradientUnits="userSpaceOnUse"><stop stop-color="#fff" offset="0"/><stop stop-color="#EDEDED" offset="1"/></linearGradient><polygon points="101.18 196.3 114.22 172.28 121.61 159.46 109.2 157.61 92.86 149.46 82.815 140.52 75.424 131.4 45.53 161.94" fill="url(#a)"/><path d="m60.604 146.98s19.451-19.466 22.118-24.799 3.453-16.227 4.453-20.227 10.258-28.952 14.591-31.619 7.334-3.595 11.303-10.033c3.756-6.092 8.011-6.004 13.682-5.765 7.043 0.297 10.015 4.131 12.015 5.131" fill="none" stroke="#000" stroke-linecap="round" stroke-width="2"/><path d="m148.01 62.996-14.241-2.329 14.426 0.338c0.553 0.013 0.992 0.472 0.979 1.026-0.013 0.553-0.472 0.992-1.026 0.979-0.045-2e-3 -0.095-8e-3 -0.138-0.014z"/><path d="m116.43 72.333s0.352 0.148 0.967 0.406c0.608 0.262 1.487 0.605 2.519 1.024 0.529 0.184 1.083 0.418 1.682 0.625 0.596 0.218 1.228 0.427 1.88 0.638 0.645 0.237 1.336 0.387 2.02 0.594 0.687 0.196 1.397 0.328 2.098 0.504 0.709 0.104 1.416 0.267 2.116 0.339 0.7 0.037 1.392 0.205 2.061 0.171 0.668-0.01 1.327 0.07 1.938-0.012 0.31-0.022 0.611-0.043 0.902-0.063 0.298 1e-3 0.577-0.038 0.842-0.096 0.533-0.102 1.035-0.175 1.486-0.24 0.437-0.118 0.818-0.222 1.131-0.307 0.639-0.166 1.024-0.25 1.024-0.25s-0.299 0.229-0.857 0.611c-0.282 0.184-0.619 0.432-1.034 0.664-0.428 0.195-0.918 0.416-1.466 0.634-0.538 0.265-1.17 0.357-1.828 0.526-0.659 0.19-1.371 0.233-2.111 0.293-0.741 0.091-1.501 0.024-2.279-1e-3 -0.777-0.034-1.545-0.204-2.324-0.31-0.756-0.199-1.527-0.353-2.25-0.607-0.727-0.244-1.434-0.506-2.094-0.809-0.674-0.27-1.291-0.608-1.872-0.926-0.592-0.297-1.107-0.662-1.595-0.965-1.924-1.281-2.956-2.443-2.956-2.443z"/><path d="m148.77 63.667s0.667 3.667-1.333 5.333" fill="none" stroke="#000" stroke-linecap="round" stroke-width="2"/><path d="m106.43 103.33c2.667 2 5.667 5.333 8 5.333s7.333-2.667 10-1c0 0 10.167-3.517 13.834-0.517 0 0 16.894-3.898 15.493 10.168" fill="none" stroke="#000" stroke-linecap="round" stroke-width="2"/><path d="m119.43 124s15.363 5.032 28.015-5.317" fill="none" stroke="#000" stroke-linecap="round" stroke-width="2"/><path d="m128.35 77.277s-3.248 18.056 1.752 26.39" fill="none" stroke="#000" stroke-linecap="round" stroke-width="2"/><path d="m121.43 84.667s-0.187 1.565-0.828 3.806c-0.317 1.121-0.733 2.415-1.263 3.77-0.515 1.361-1.142 2.783-1.838 4.174-0.697 1.39-1.486 2.738-2.284 3.964-0.806 1.223-1.644 2.312-2.414 3.199-0.391 0.441-0.773 0.825-1.107 1.164-0.32 0.351-0.66 0.608-0.917 0.833-0.527 0.441-0.837 0.675-0.837 0.675s0.188-0.351 0.534-0.932c0.366-0.565 0.808-1.426 1.389-2.402 0.265-0.509 0.553-1.056 0.878-1.618 0.303-0.578 0.606-1.197 0.956-1.812 0.644-1.268 1.33-2.62 2.017-3.972 0.687-1.357 1.374-2.715 2.018-3.987 0.65-1.274 1.255-2.468 1.807-3.482 1.071-2.039 1.889-3.38 1.889-3.38z"/><path d="m135.43 103.67c0.496-2.472 1.226-4.877 1.971-7.268l1.192-3.56 1.28-3.528 0.092 0.887-0.742-1.182c-0.238-0.402-0.442-0.831-0.664-1.247-0.111-0.208-0.189-0.439-0.284-0.658-0.089-0.223-0.187-0.442-0.267-0.67-0.133-0.473-0.296-0.929-0.357-1.432-0.032-0.249-0.095-0.488-0.099-0.746l-0.028-0.765 0.065-0.777c0.047-0.259 0.104-0.518 0.162-0.775 0.161-0.508 0.355-1.014 0.668-1.46 0.142-0.23 0.319-0.439 0.502-0.643 0.2-0.21 0.362-0.373 0.674-0.592l-0.308 1.149c-0.249-0.552-0.477-1.114-0.677-1.69-0.189-0.582-0.339-1.179-0.439-1.79-0.207-1.216-0.211-2.502 0.136-3.714 0.332-1.214 1.01-2.307 1.884-3.141 0.871-0.837 1.924-1.446 3.036-1.777-0.996 0.588-1.849 1.366-2.505 2.247-0.655 0.884-1.076 1.894-1.236 2.93-0.142 1.043-0.057 2.103 0.217 3.135 0.127 0.517 0.324 1.02 0.512 1.524 0.206 0.501 0.438 0.992 0.689 1.478l0.296 0.572-0.603 0.576c-0.046 0.044-0.203 0.191-0.296 0.314-0.103 0.133-0.209 0.269-0.288 0.423-0.18 0.295-0.292 0.63-0.399 0.965l-0.099 0.528-0.034 0.549 0.034 0.563c2e-3 0.187 0.063 0.38 0.089 0.569 0.042 0.382 0.209 0.759 0.295 1.143 0.063 0.19 0.145 0.379 0.216 0.569 0.078 0.188 0.135 0.382 0.23 0.567l0.277 0.557c0.097 0.184 0.172 0.376 0.287 0.554l0.651 1.083 0.276 0.459-0.184 0.428-1.476 3.438-1.525 3.421c-1.04 2.274-2.11 4.53-3.221 6.787z"/><path d="m149.92 71.167s7.397 3.414 8.852 9.166c1.19 4.705 2 28-0.333 33.667" fill="none" stroke="#000" stroke-linecap="round" stroke-width="2"/><path d="m146.77 122s-0.967 0.738-2.496 1.625c-0.76 0.454-1.661 0.945-2.636 1.443-0.974 0.501-2.022 1.009-3.078 1.493-2.113 0.966-4.266 1.821-5.87 2.48-0.408 0.161-0.755 0.329-1.089 0.46-0.33 0.137-0.582 0.284-0.821 0.392-0.243 0.105-0.368 0.235-0.496 0.31-0.118 0.084-0.181 0.129-0.181 0.129s0.032-0.067 0.092-0.192c0.071-0.111 0.138-0.36 0.322-0.546 0.173-0.196 0.373-0.483 0.65-0.724 0.271-0.245 0.574-0.556 0.937-0.818 0.357-0.273 0.743-0.589 1.176-0.857 0.428-0.281 0.876-0.593 1.365-0.856 0.485-0.271 0.976-0.576 1.5-0.829 0.516-0.27 1.05-0.523 1.586-0.77 1.072-0.493 2.171-0.922 3.214-1.288 1.041-0.371 2.031-0.669 2.894-0.886 1.718-0.45 2.931-0.566 2.931-0.566z"/><path d="m162.1 81s5.667-1 7 9.667 1 15.333 1 22-0.667 6.667-1.333 8.667-24.667 15-24.667 15" fill="none" stroke="#000" stroke-linecap="round" stroke-width="2"/><path d="m171.77 93.667s4.333-2 6 5 3.333 13 2.667 18.333c-0.667 5.333 0 7-10.333 17s-10.925 12.765-23.258 14.765" fill="none" stroke="#000" stroke-linecap="round" stroke-width="2"/><path d="m145.8 149.33-20.367 5c-5 5-14.333 24.667-19.667 32.667" fill="none" stroke="#000" stroke-linecap="round" stroke-width="2"/><path d="m143.48 68.992c0.247 0.123 4.88 2.476 4.88 2.476" fill="none" stroke="#000" stroke-linecap="round" stroke-width="2"/><path d="m121.42 138.5s0.97 0.629 2.476 1.345c0.751 0.362 1.642 0.735 2.611 1.073 0.484 0.172 0.99 0.324 1.508 0.462 0.511 0.166 1.047 0.262 1.58 0.371 0.527 0.138 1.073 0.175 1.601 0.268 0.535 0.05 1.062 0.1 1.571 0.147 0.512 0.027 1.01 0.02 1.485 0.042 0.476 0.03 0.922-0.03 1.342-0.031 0.416-0.028 0.809-3e-3 1.146-0.053 0.343-0.03 0.643-0.057 0.889-0.079 0.498-0.036 0.791-0.044 0.791-0.044s-0.258 0.122-0.724 0.315c-0.236 0.092-0.522 0.205-0.85 0.333-0.328 0.141-0.716 0.218-1.139 0.324-0.424 0.091-0.881 0.245-1.381 0.278-0.497 0.051-1.024 0.142-1.573 0.149-0.547-0.014-1.12 0.028-1.695-0.035-0.572-0.082-1.164-0.106-1.738-0.24-0.574-0.133-1.149-0.256-1.696-0.45-0.558-0.156-1.077-0.396-1.58-0.616-0.508-0.209-0.962-0.494-1.4-0.735-0.425-0.269-0.826-0.52-1.167-0.795-1.405-1.048-2.057-2.029-2.057-2.029z"/><path d="m100.92 124s0.152 0.251 0.438 0.67c0.283 0.421 0.715 1 1.269 1.658 0.548 0.662 1.223 1.399 1.999 2.128 0.382 0.371 0.797 0.73 1.23 1.083 0.414 0.374 0.885 0.692 1.34 1.027 0.447 0.348 0.944 0.624 1.406 0.935 0.486 0.275 0.964 0.546 1.427 0.808 0.474 0.243 0.947 0.449 1.387 0.668 0.437 0.228 0.884 0.361 1.279 0.534 0.403 0.149 0.761 0.333 1.099 0.43 0.335 0.111 0.627 0.208 0.868 0.288 0.482 0.164 0.758 0.271 0.758 0.271s-0.29-0.02-0.799-0.081c-0.255-0.033-0.565-0.072-0.92-0.117-0.361-0.029-0.749-0.141-1.179-0.243-0.425-0.116-0.907-0.191-1.377-0.386-0.475-0.178-0.991-0.339-1.497-0.57-0.495-0.251-1.031-0.472-1.535-0.769-0.492-0.316-1.021-0.596-1.497-0.954-0.473-0.362-0.959-0.707-1.387-1.108-0.452-0.374-0.849-0.793-1.229-1.2-0.396-0.391-0.708-0.836-1.033-1.225-0.295-0.416-0.583-0.8-0.804-1.186-0.479-0.746-0.764-1.434-0.975-1.899-0.196-0.476-0.268-0.762-0.268-0.762z"/><path d="m113.83 136.17s0.886 0.155 2.215 0.388c1.324 0.24 3.1 0.656 4.783 1.41 0.831 0.392 1.652 0.832 2.337 1.376 0.358 0.249 0.665 0.542 0.947 0.827 0.302 0.262 0.515 0.586 0.735 0.854 0.229 0.261 0.357 0.567 0.504 0.803 0.152 0.235 0.231 0.471 0.301 0.659 0.131 0.375 0.206 0.59 0.206 0.59s-0.138-0.179-0.38-0.493c-0.115-0.157-0.25-0.348-0.442-0.539-0.194-0.188-0.365-0.433-0.621-0.641-0.253-0.209-0.49-0.464-0.799-0.675-0.293-0.227-0.61-0.452-0.956-0.663-0.328-0.234-0.715-0.407-1.078-0.626-0.379-0.196-0.767-0.39-1.167-0.562-0.788-0.372-1.615-0.671-2.386-0.974-0.783-0.291-1.515-0.563-2.142-0.796-0.629-0.237-1.153-0.466-1.512-0.639-0.35-0.181-0.545-0.299-0.545-0.299z"/><path d="m77.449 134.32s18.069 24.405 40.128 24.874" fill="none" stroke="#000" stroke-linecap="round"/><path d="m137.96 60.762s-0.416 0.03-1.144 0.083c-0.726 0.051-1.766 0.132-2.994 0.31-0.614 0.078-1.278 0.178-1.954 0.342-0.336 0.083-0.678 0.183-0.991 0.321-0.306 0.121-0.61 0.362-0.596 0.471-0.035 0.074 0.158 0.365 0.44 0.582 0.239 0.198 0.647 0.457 0.963 0.657 0.649 0.397 1.386 0.733 2.127 0.936 0.748 0.204 1.52 0.237 2.28 0.168 0.764-0.076 1.503-0.3 2.277-0.499 0.718-0.181 1.403-0.46 2.091-0.69 0.683-0.227 1.339-0.434 1.956-0.591 0.618-0.151 1.188-0.287 1.708-0.325 0.516-0.055 0.97-0.054 1.339-0.044 0.371 0.026 0.658 0.06 0.851 0.108 0.192 0.039 0.295 0.059 0.295 0.059s-0.423-0.015-1.139 0.054c-0.358 0.048-0.789 0.115-1.271 0.246-0.482 0.13-1.022 0.286-1.599 0.496-1.173 0.406-2.412 1.086-3.987 1.597-0.729 0.216-1.543 0.465-2.412 0.569-0.869 0.105-1.789 0.039-2.647-0.208-0.864-0.248-1.652-0.628-2.377-1.126-0.364-0.256-0.641-0.441-1.016-0.762-0.167-0.15-0.332-0.312-0.47-0.533-0.131-0.212-0.267-0.528-0.177-0.874 0.089-0.338 0.321-0.538 0.512-0.667 0.199-0.132 0.396-0.217 0.59-0.288 0.387-0.139 0.761-0.219 1.124-0.284 0.727-0.125 1.41-0.18 2.039-0.217 2.52-0.077 4.182 0.109 4.182 0.109z"/><path d="m153.01 116.49s-0.115 0.015-0.324 0.065c-0.209 0.045-0.518 0.126-0.917 0.193-0.795 0.143-1.96 0.285-3.371 0.185-1.406-0.09-3.058-0.451-4.684-1.209-0.388-0.194-0.783-0.39-1.182-0.59-0.346-0.155-0.739-0.288-1.12-0.39-0.766-0.198-1.574-0.193-2.245 0.093-0.67 0.235-1.249 0.864-1.28 1.367-0.013 0.233 0.034 0.335 0.225 0.451 0.432 0.206 0.716 0.295 1.139 0.423 1.589 0.476 3.166 0.776 4.501 1.035 1.341 0.252 2.468 0.431 3.26 0.523 0.396 0.044 0.708 0.072 0.923 0.08 0.215-5e-3 0.329-8e-3 0.329-8e-3s-0.446 0.144-1.258 0.191c-0.809 0.057-1.966 0.065-3.349-0.024-1.386-0.09-2.988-0.247-4.721-0.638-0.404-0.092-0.958-0.259-1.33-0.42-0.311-0.133-0.603-0.35-0.804-0.67-0.199-0.316-0.277-0.689-0.257-1.021 0.131-1.335 1.1-2.157 2.094-2.584 1.032-0.417 2.154-0.367 3.117-0.099 0.488 0.135 0.929 0.334 1.376 0.565 0.38 0.216 0.754 0.43 1.123 0.64 0.725 0.382 1.447 0.727 2.169 0.96 0.716 0.248 1.415 0.434 2.072 0.56 1.315 0.256 2.452 0.309 3.249 0.316 0.401 0 0.717 0 0.932-1e-3 0.219-3e-3 0.333 7e-3 0.333 7e-3z"/><path d="m152.91 117.82s-4.911 0.927-10.914 0.198" fill="none" stroke="#000" stroke-linecap="round" stroke-width=".75"/></svg>
