<?xml version="1.0" encoding="UTF-8"?>
<svg width="226.77px" height="226.77px" enable-background="new 0 0 226.772 226.77" version="1.1" viewBox="0 0 226.77 226.77" xmlns="http://www.w3.org/2000/svg"><rect width="226.77px" height="226.77px" fill="#fff"/><linearGradient id="a" x1="86.629" x2="96.386" y1="200.53" y2="176.98" gradientUnits="userSpaceOnUse"><stop stop-color="#fff" offset="0"/><stop stop-color="#EDEDED" offset="1"/></linearGradient><polygon points="114.24 205.78 124.82 170.08 106.39 165.18 83.862 154.78 85.681 152.68 74.741 169.62 59.867 193.23" fill="url(#a)"/><path d="m86.591 156.04s16.191 12.192 37.747 12.91" fill="none" stroke="#000" stroke-linecap="round"/><path d="m62.671 187.77s22.591-33.573 24.471-37.91-8.526-47.608-9.388-52.371c-0.863-4.763 2.319-6.042 3.647-8.758" fill="none" stroke="#000" stroke-linecap="round" stroke-width="2"/><path d="m81.4 88.731s-2.674-10.305 6.182-14.814" fill="none" stroke="#000" stroke-linecap="round" stroke-width="2"/><path d="m87.639 75.089s-1.323-10.82 8.716-12.589" fill="none" stroke="#000" stroke-linecap="round" stroke-width="2"/><path d="m99.012 62.236s34.118-11.556 40.684-12.724 9.778 4.315 12.716 10.734" fill="none" stroke="#000" stroke-linecap="round" stroke-width="2"/><path d="m102.73 65.356s14.196-5.529 27.14-5.337 12.702 1.09 14.065 6.453 0.938 4.683 0.938 4.683" fill="none" stroke="#000" stroke-linecap="round" stroke-width="2"/><path d="m97.733 71.938s12.887-4.642 25.832-4.45 12.702 1.09 14.065 6.453 3.642 18.685 3.642 18.685c0.139 0.781-1.318 4.038-3.962 5.114" fill="none" stroke="#000" stroke-linecap="round" stroke-width="2"/><path d="m96.821 80.165s19.228-1.884 24.667-1.8 6.869 3.034 10.617 9.492 4.055 13.584-0.188 15.046c-4.243 1.463-9.831 3.279-9.831 3.279" fill="none" stroke="#000" stroke-linecap="round" stroke-width="2"/><path d="m115.95 110.64c1.199-0.816 7.239-4.261 7.239-4.261" fill="none" stroke="#000" stroke-linecap="round" stroke-width="2"/><path d="m101.79 97.071s10.749 2.676 14.255-1.441" fill="none" stroke="#000" stroke-linecap="round" stroke-width="2"/><path d="m113.53 95.204s3.097 2.644 7.653 3.462" fill="none" stroke="#000" stroke-linecap="round" stroke-width="2"/><path d="m116.92 97.288s-4.967 4.391-5.363 7.109c-0.442 3.034 1.322 5.422 2.911 6.541" fill="none" stroke="#000" stroke-linecap="round" stroke-width="2"/><path d="m109.61 102.9s0.392 0.801 1.077 2.203c0.667 1.41 1.658 3.408 2.774 5.836 1.122 2.426 2.473 5.238 3.836 8.288 1.386 3.039 2.865 6.28 4.343 9.521 0.732 1.623 1.467 3.245 2.215 4.826 0.367 0.796 0.754 1.567 1.132 2.332 0.204 0.373 0.407 0.743 0.609 1.111 0.212 0.408 0.373 0.871 0.462 1.291 0.368 1.729 0.232 3.397-0.017 4.931-0.26 1.537-0.694 2.948-1.206 4.201-1.05 2.505-2.464 4.316-3.601 5.39-0.566 0.546-1.071 0.902-1.411 1.144-0.352 0.226-0.539 0.347-0.539 0.347s0.178-0.133 0.513-0.383c0.323-0.263 0.794-0.655 1.319-1.226 1.066-1.117 2.356-2.966 3.253-5.456 0.46-1.236 0.838-2.623 1.042-4.115 0.196-1.482 0.262-3.105-0.121-4.644-0.1-0.394-0.231-0.73-0.416-1.069-0.213-0.372-0.428-0.747-0.644-1.124-0.395-0.771-0.799-1.55-1.178-2.342-0.775-1.58-1.534-3.194-2.29-4.809-1.523-3.226-2.921-6.507-4.274-9.563-1.358-3.054-2.535-5.944-3.567-8.411-1.041-2.463-1.839-4.545-2.423-5.992-0.566-1.455-0.888-2.287-0.888-2.287z"/><path d="m124.11 132.18s0.325 13.174-5.366 19.025" fill="none" stroke="#000" stroke-linecap="round"/><path d="m113.59 108.43" fill="none" stroke="#000" stroke-linecap="round"/><line x1="158.83" x2="152.23" y1="68.648" y2="62.733" fill="none" stroke="#000" stroke-linecap="round" stroke-width="2"/><path d="m152.71 63.014s-9.537 0.053-7.632 13.228c1.654 11.435 5.534 10.915 5.534 10.915" fill="none" stroke="#000" stroke-linecap="round" stroke-width="2"/><path d="m149.27 84.806s-0.586 5.91-6.273 12.848" fill="none" stroke="#000" stroke-linecap="round" stroke-width="2"/><path d="m159.45 67.821s5.346 4.098 6.87 5.632c1.201 1.209-0.168 11.492-2.077 14.721s-7.879 11.791-7.398 23.524-21.272 30.146-25.411 35.359l-14.996 53.943" fill="none" stroke="#000" stroke-linecap="round" stroke-width="2"/><path d="m154.26 64.55s1.182 5.45 0.436 10.303c-0.487 3.168 0.622 4.299 2.104 4.457s3.017-4.809 1.332-11.288" fill="none" stroke="#000" stroke-linecap="round"/><path d="m108.09 98.293s0.403 0.647 0.771 1.716c0.194 0.531 0.368 1.17 0.498 1.87 0.138 0.699 0.196 1.465 0.186 2.24-0.039 0.389-0.039 0.776-0.135 1.16-0.036 0.192-0.077 0.381-0.122 0.565-0.07 0.182-0.139 0.361-0.207 0.538-0.106 0.361-0.356 0.66-0.543 0.95-0.199 0.286-0.492 0.481-0.708 0.683-0.253 0.165-0.519 0.262-0.733 0.363-0.21 0.115-0.438 0.092-0.598 0.13-0.335 0.043-0.516 0.055-0.516 0.055s0.165-0.089 0.455-0.244c0.135-0.087 0.327-0.127 0.486-0.282 0.161-0.147 0.354-0.284 0.534-0.459 0.139-0.22 0.335-0.406 0.462-0.663 0.111-0.27 0.27-0.518 0.335-0.836 0.043-0.152 0.086-0.306 0.131-0.462 0.019-0.166 0.043-0.332 0.073-0.498 0.075-0.328 0.06-0.687 0.088-1.033 0.018-0.35 7e-3 -0.707 3e-3 -1.056-0.035-0.35-0.02-0.699-0.061-1.035-0.056-0.674-0.119-1.309-0.184-1.855-0.129-1.109-0.215-1.847-0.215-1.847z"/></svg>
