<?xml version="1.0" encoding="UTF-8"?>
<svg width="226.77px" height="226.77px" enable-background="new 0 0 226.77 226.77" version="1.1" viewBox="0 0 226.77 226.77" xmlns="http://www.w3.org/2000/svg"><rect width="226.77px" height="226.77px" fill="#fff"/><linearGradient id="a" x1="83.048" x2="90.541" y1="18.04" y2="29.167" gradientTransform="matrix(1 0 0 -1 0 226.11)" gradientUnits="userSpaceOnUse"><stop stop-color="#fff" offset="0"/><stop stop-color="#EDEDED" offset="1"/></linearGradient><polygon points="106.51 221.71 117.97 202 123.85 192.36 115.09 190.7 98.76 184.69 89.506 177.21 84.661 170.56 58.176 196.53" fill="url(#a)"/><path d="m109.25 216.43c0.839-1.319 28.407-47.131 28.407-47.131-6.015 8.466 18.676-8.844 18.818-43.319" fill="none" stroke="#000" stroke-linecap="round" stroke-width="2"/><path d="m86.642 172.54s9.512 16.607 33.842 18.958" fill="none" stroke="#000" stroke-linecap="round"/><path d="m58.998 194.13s31.013-29.375 31.876-31.483c0.864-2.108 6.985-61.941 7.437-65.107" fill="none" stroke="#000" stroke-linecap="round" stroke-width="2"/><line x1="105.81" x2="103.66" y1="52.043" y2="63.494" fill="none" stroke="#000" stroke-linecap="round" stroke-width="2"/><polyline points="103.22 61.393 99.054 77.586 98.433 102.61" fill="none" stroke="#000" stroke-linecap="round" stroke-width="2"/><path d="m103.52 51.262c1.259 0.015 2.524 0.159 3.769 0.429 1.246 0.267 2.477 0.656 3.65 1.221 1.173 0.555 2.296 1.292 3.243 2.256 0.459 0.492 0.906 1.013 1.254 1.606 0.368 0.58 0.649 1.214 0.879 1.865 0.429 1.315 0.542 2.707 0.455 4.053-0.045 0.691-0.132 1.326-0.206 1.938-0.07 0.62-0.186 1.273-0.294 1.904-0.232 1.264-0.512 2.527-0.895 3.79-0.191 0.632-0.411 1.266-0.702 1.895-0.144 0.316-0.302 0.631-0.495 0.952-0.091 0.159-0.204 0.324-0.319 0.487l-0.206 0.258c-0.099 0.104-0.116 0.149-0.357 0.345l0.415-1.412c0.16 0.434 0.279 0.801 0.397 1.197 0.121 0.39 0.222 0.779 0.327 1.17 0.195 0.782 0.384 1.564 0.509 2.356 0.267 1.581 0.456 3.171 0.537 4.767 0.045 0.797 0.054 1.597 0.037 2.394-0.015 0.798-0.041 1.594-0.108 2.389-0.039 0.796-0.143 1.586-0.247 2.375-0.106 0.788-0.267 1.569-0.398 2.35l-0.023-0.389c0.181 0.758 0.318 1.472 0.439 2.21 0.114 0.734 0.208 1.47 0.284 2.208 0.148 1.474 0.232 2.957 0.187 4.439-0.045 1.481-0.173 2.962-0.477 4.411-0.295 1.449-0.764 2.863-1.438 4.159 0.462-1.386 0.698-2.817 0.817-4.247 0.098-1.434 0.095-2.868-0.02-4.295-0.124-1.426-0.295-2.847-0.564-4.252-0.132-0.702-0.281-1.401-0.449-2.094-0.164-0.688-0.34-1.396-0.539-2.042l-0.043-0.139 0.019-0.25c0.059-0.759 0.147-1.513 0.182-2.272 0.022-0.759 0.088-1.513 0.085-2.271 0.024-0.757 8e-3 -1.513-0.017-2.268-3e-3 -0.378-0.034-0.755-0.058-1.131-0.032-0.376-0.032-0.754-0.071-1.129-0.103-1.505-0.309-3.001-0.584-4.478-0.141-0.738-0.288-1.473-0.46-2.2-0.09-0.361-0.178-0.725-0.281-1.079-0.096-0.35-0.213-0.723-0.316-1.02l0.415-1.412c-0.12 0.097-0.032 0.025-0.026 0.012l0.089-0.108c0.065-0.093 0.133-0.184 0.2-0.298 0.134-0.214 0.263-0.458 0.382-0.711 0.237-0.508 0.465-1.049 0.661-1.61 0.398-1.121 0.719-2.298 0.995-3.491l0.388-1.797c0.126-0.627 0.257-1.228 0.321-1.788 0.148-1.149 0.109-2.303-0.16-3.402-0.144-0.545-0.327-1.085-0.592-1.589-0.244-0.516-0.585-0.983-0.942-1.44-0.75-0.886-1.671-1.666-2.705-2.297-1.034-0.632-2.16-1.142-3.326-1.564-1.172-0.402-2.377-0.755-3.618-0.961z"/><path d="m136.7 85.522s5.393 10.861 3.291 20.131l3.389 9.976" fill="none" stroke="#000" stroke-linecap="round" stroke-width="2"/><line x1="108.84" x2="113.55" y1="49.078" y2="32.205" fill="none" stroke="#000" stroke-linecap="round" stroke-width="2"/><path d="m133.45 28.439s7.662 7.026 3.606 20.72c0 0 3.716 8.746-0.745 18.985 0 0 2.203 10.477 0.39 17.378" fill="none" stroke="#000" stroke-linecap="round" stroke-width="2"/><path d="m118.09 14.251c1.312 0.022 2.634 0.23 3.91 0.614 0.639 0.19 1.269 0.419 1.882 0.696 0.615 0.272 1.208 0.601 1.777 0.971 0.573 0.365 1.112 0.787 1.627 1.24 0.509 0.46 0.981 0.964 1.411 1.507 0.419 0.549 0.805 1.126 1.137 1.734 0.324 0.61 0.629 1.238 0.854 1.892 0.26 0.645 0.422 1.318 0.586 1.988 0.128 0.676 0.259 1.355 0.31 2.039 0.093 0.684 0.088 1.365 0.115 2.05 3e-3 0.682-0.033 1.362-0.064 2.042-0.071 0.673-0.119 1.353-0.229 2.02-0.12 0.663-0.206 1.337-0.355 1.993-0.152 0.654-0.282 1.317-0.453 1.966l-0.535 1.94-0.03-0.792c0.204 0.516 0.355 0.957 0.5 1.433 0.146 0.47 0.259 0.941 0.381 1.413 0.22 0.946 0.415 1.895 0.553 2.852 0.068 0.478 0.147 0.956 0.188 1.437 0.043 0.481 0.114 0.96 0.133 1.443l0.081 1.446-2e-3 1.448c0.01 0.483-0.038 0.964-0.057 1.446-0.028 0.482-0.042 0.964-0.104 1.443-0.093 0.96-0.203 1.918-0.378 2.866-0.131 0.956-0.372 1.89-0.594 2.827-0.099 0.471-0.261 0.926-0.394 1.388l-0.419 1.379 6e-3 -0.658c0.309 1.15 0.556 2.256 0.791 3.389 0.227 1.129 0.413 2.264 0.581 3.401 0.337 2.274 0.565 4.565 0.637 6.864 0.084 2.298 0.01 4.603-0.262 6.885-0.136 1.141-0.343 2.272-0.593 3.389-0.26 1.116-0.608 2.209-1.006 3.273 0.486-2.225 0.686-4.476 0.725-6.722 0.03-2.247-0.113-4.489-0.353-6.717-0.266-2.226-0.609-4.442-1.059-6.637-0.223-1.098-0.479-2.188-0.743-3.274-0.262-1.08-0.55-2.18-0.866-3.212l-0.09-0.293 0.096-0.365 0.344-1.316c0.109-0.44 0.247-0.872 0.321-1.32 0.165-0.891 0.383-1.769 0.495-2.667 0.154-0.891 0.245-1.79 0.321-2.691 0.053-0.449 0.06-0.901 0.08-1.352 0.012-0.451 0.053-0.902 0.036-1.353 0-0.903-0.018-1.804-0.071-2.705-0.012-0.451-0.074-0.898-0.108-1.348-0.032-0.45-0.101-0.895-0.159-1.342-0.117-0.893-0.287-1.777-0.479-2.653-0.107-0.433-0.205-0.872-0.332-1.296-0.109-0.423-0.249-0.869-0.373-1.228l-0.146-0.421 0.116-0.371 0.57-1.829c0.183-0.611 0.325-1.231 0.49-1.846 0.162-0.616 0.261-1.241 0.395-1.862 0.121-0.622 0.186-1.248 0.293-1.872 0.062-0.625 0.13-1.252 0.162-1.878 8e-3 -0.624 0.049-1.254-3e-3 -1.874-0.011-0.626-0.098-1.239-0.178-1.856-0.121-0.604-0.209-1.223-0.4-1.809-0.155-0.6-0.385-1.173-0.63-1.738-0.254-0.563-0.558-1.101-0.895-1.621-0.351-0.51-0.728-1.004-1.149-1.466-0.427-0.455-0.882-0.891-1.38-1.279-0.492-0.396-1.022-0.749-1.571-1.074-0.547-0.329-1.122-0.618-1.715-0.872-1.184-0.496-2.431-0.906-3.729-1.105z"/><line x1="118.46" x2="120.24" y1="21.872" y2="14.869" fill="none" stroke="#000" stroke-linecap="round" stroke-width="2"/><path d="m108.51 22.728c1.6-0.247 3.241-0.278 4.873-0.112 1.633 0.157 3.26 0.544 4.811 1.19 1.555 0.635 2.998 1.614 4.192 2.858 1.201 1.242 2.101 2.776 2.669 4.4 1.156 3.27 1.14 6.755 0.678 10.038-0.233 1.65-0.562 3.279-0.998 4.872-0.434 1.594-0.941 3.16-1.496 4.705l-0.06-0.984c0.218 0.447 0.36 0.801 0.507 1.198 0.148 0.388 0.27 0.776 0.391 1.166 0.229 0.781 0.431 1.569 0.558 2.367 0.148 0.795 0.243 1.596 0.306 2.398 0.074 0.802 0.083 1.605 0.091 2.408-3e-3 0.401-0.03 0.801-0.044 1.202-9e-3 0.401-0.04 0.8-0.088 1.198l-0.13 1.193-0.21 1.18c-0.118 0.791-0.352 1.555-0.528 2.33-0.088 0.388-0.229 0.761-0.341 1.142l-0.357 1.136 0.019-0.614c0.232 0.985 0.418 1.932 0.575 2.903 0.163 0.965 0.305 1.933 0.43 2.902 0.258 1.938 0.403 3.889 0.476 5.841l0.029 1.465c0.02 0.487-0.016 0.978-0.022 1.466-9e-3 0.976-0.099 1.952-0.162 2.924-0.118 0.971-0.217 1.94-0.409 2.897-0.146 0.962-0.432 1.899-0.665 2.835l0.138-1.444c0.06-0.477 0.054-0.962 0.082-1.441 0.068-0.957 0.029-1.92 0.032-2.876-0.043-0.958-0.058-1.913-0.153-2.866-0.07-0.953-0.175-1.904-0.275-2.853-0.126-0.948-0.243-1.894-0.407-2.836-0.15-0.942-0.31-1.883-0.49-2.82s-0.375-1.87-0.591-2.797c-0.215-0.923-0.445-1.862-0.683-2.749l-0.074-0.275 0.093-0.339 0.293-1.072c0.091-0.359 0.212-0.71 0.278-1.074 0.135-0.726 0.33-1.442 0.408-2.175l0.154-1.093 0.097-1.097c0.04-0.365 0.064-0.731 0.067-1.098 8e-3 -0.366 0.029-0.733 0.027-1.098-0.017-0.732-0.033-1.463-0.11-2.189-0.066-0.726-0.16-1.451-0.303-2.162-0.128-0.715-0.303-1.419-0.493-2.112-0.102-0.343-0.205-0.689-0.327-1.02-0.112-0.325-0.26-0.683-0.373-0.927l-0.236-0.51 0.176-0.474c0.551-1.485 1.055-2.985 1.485-4.499 0.427-1.515 0.815-3.037 1.076-4.575 0.263-1.536 0.426-3.085 0.407-4.618 3e-3 -1.532-0.163-3.06-0.593-4.502-0.429-1.439-1.107-2.797-2.059-3.962-0.951-1.167-2.176-2.116-3.54-2.851-1.365-0.74-2.876-1.234-4.426-1.584-1.556-0.333-3.159-0.531-4.775-0.516z"/><line x1="112.45" x2="113.5" y1="33.519" y2="22.957" fill="none" stroke="#000" stroke-linecap="round" stroke-width="2"/><polyline points="112.04 27.862 112.96 18.861 104.89 17.849" fill="#fff"/><polyline points="104.57 54.497 105.5 45.496 97.429 44.484" fill="#fff"/><polyline points="117.5 20.342 120.22 11.709 112.51 9.101" fill="#fff"/><path d="m124.56 16.849" fill="#fff"/><path d="m143.46 108.87s6.602-7.405 7.723-15.102 6.736-16.288 11.272-18.689c4.535-2.401 9.56 2.185 9.846 3.691 0.286 1.505-3.201 9.793-3.201 9.793" fill="none" stroke="#000" stroke-linecap="round" stroke-width="2"/><path d="m156.66 125.66c0.058-2.562 8.757-13.701 12.863-36.842" fill="none" stroke="#000" stroke-linecap="round" stroke-width="2"/><path d="m122.66 103.21s-0.234 1.105-0.52 3.057c-0.3 1.949-0.603 4.752-0.731 8.121-0.081 1.684-0.051 3.509 0.025 5.434 0.134 1.921 0.299 3.946 0.67 6.007 0.14 1.039 0.423 2.066 0.644 3.119 0.156 0.514 0.313 1.031 0.471 1.551 0.148 0.535 0.334 1.048 0.545 1.545 0.75 2.029 1.797 4.042 2.791 6.058 1.009 2.016 1.964 4.085 2.795 6.171 0.339 1.074 0.788 2.101 1.017 3.188 0.135 0.536 0.27 1.069 0.403 1.598 0.097 0.537 0.167 1.076 0.25 1.607 0.204 1.059 0.217 2.119 0.248 3.153 0.085 1.035-0.095 2.04-0.146 3.019-0.033 0.985-0.279 1.913-0.436 2.82-0.087 0.452-0.172 0.897-0.255 1.333-0.11 0.43-0.247 0.844-0.365 1.253-0.245 0.816-0.48 1.598-0.703 2.341-0.294 0.717-0.572 1.398-0.834 2.037-0.263 0.638-0.509 1.234-0.737 1.786-0.269 0.533-0.515 1.022-0.738 1.464-0.909 1.755-1.428 2.757-1.428 2.757s0.455-1.032 1.251-2.839c0.2-0.45 0.421-0.948 0.661-1.491 0.199-0.559 0.413-1.164 0.643-1.81 0.227-0.645 0.469-1.332 0.724-2.056 0.196-0.741 0.401-1.52 0.616-2.333 0.104-0.407 0.226-0.818 0.322-1.243 0.069-0.431 0.139-0.869 0.21-1.315 0.127-0.893 0.342-1.807 0.343-2.768 0.019-0.956 0.168-1.936 0.052-2.936-0.071-0.999-0.07-2.025-0.286-3.047-0.086-0.513-0.158-1.032-0.256-1.55-0.135-0.511-0.27-1.026-0.407-1.544-0.229-1.047-0.68-2.048-1.019-3.088-0.833-2.033-1.793-4.053-2.82-6.065-0.978-2.04-2.005-4.048-2.776-6.197-0.215-0.529-0.4-1.058-0.54-1.587-0.156-0.535-0.312-1.067-0.466-1.596-0.216-1.079-0.494-2.134-0.626-3.195-0.376-2.106-0.463-4.173-0.541-6.121-0.018-1.952 8e-3 -3.795 0.141-5.49 0.22-3.394 0.721-6.185 1.1-8.124 0.389-1.94 0.708-3.024 0.708-3.024z"/><path d="m113.65 175.08s0.291-0.01 0.792-0.059c0.501-0.034 1.211-0.14 2.047-0.298 0.419-0.074 0.866-0.178 1.336-0.298 0.475-0.096 0.95-0.291 1.457-0.423 0.487-0.196 1.005-0.357 1.498-0.597 0.501-0.222 1.006-0.456 1.475-0.754 0.498-0.25 0.947-0.576 1.392-0.893 0.463-0.295 0.844-0.679 1.25-1.007 0.415-0.321 0.722-0.73 1.072-1.063 0.352-0.334 0.614-0.709 0.88-1.039 0.247-0.343 0.536-0.622 0.71-0.922 0.189-0.293 0.354-0.548 0.49-0.759 0.276-0.421 0.449-0.66 0.449-0.66s-0.091 0.273-0.275 0.747c-0.095 0.237-0.209 0.526-0.341 0.856-0.116 0.342-0.345 0.674-0.558 1.06-0.223 0.38-0.444 0.811-0.781 1.193-0.328 0.385-0.611 0.857-1.035 1.22-0.413 0.37-0.786 0.825-1.281 1.145-0.471 0.35-0.947 0.71-1.475 0.989-0.511 0.309-1.056 0.549-1.595 0.775-0.53 0.251-1.098 0.37-1.622 0.55-0.542 0.118-1.059 0.259-1.564 0.311-0.5 0.082-0.976 0.122-1.416 0.136-0.879 0.049-1.61-0.024-2.115-0.076-0.508-0.056-0.79-0.134-0.79-0.134z"/><path d="m135.34 86.248c-0.34 0.237-0.701 0.476-1.106 0.619-0.397 0.158-0.815 0.273-1.242 0.335-0.427 0.068-0.863 0.093-1.297 0.066-0.439-0.027-0.857-0.081-1.31-0.202l0.434-0.203c-0.135 0.374-0.293 0.688-0.47 1.015-0.182 0.317-0.376 0.63-0.602 0.919-0.448 0.578-0.946 1.129-1.533 1.576-0.289 0.227-0.591 0.441-0.905 0.632-0.316 0.19-0.633 0.377-0.974 0.518-0.33 0.165-0.682 0.27-1.026 0.397-0.347 0.116-0.705 0.192-1.058 0.288l0.369-0.408c-0.042 0.24-0.097 0.375-0.157 0.551-0.062 0.164-0.13 0.322-0.204 0.475-0.148 0.307-0.315 0.597-0.495 0.877-0.369 0.553-0.787 1.06-1.24 1.527-0.452 0.468-0.937 0.896-1.445 1.29-0.514 0.388-1.034 0.761-1.584 1.087 0.445-0.461 0.898-0.902 1.323-1.37 0.411-0.48 0.834-0.94 1.202-1.442 0.382-0.489 0.731-0.999 1.019-1.532 0.149-0.263 0.283-0.532 0.396-0.804 0.056-0.136 0.106-0.273 0.149-0.409 0.037-0.125 0.081-0.293 0.087-0.367l0.025-0.304 0.345-0.105c0.319-0.097 0.646-0.17 0.958-0.282 0.309-0.122 0.627-0.221 0.92-0.376 0.302-0.135 0.595-0.288 0.88-0.456 0.285-0.166 0.559-0.353 0.822-0.551 0.529-0.395 1.019-0.848 1.45-1.354 0.215-0.253 0.419-0.516 0.611-0.788 0.183-0.272 0.364-0.57 0.493-0.844l0.148-0.313 0.287 0.109c0.344 0.131 0.75 0.232 1.141 0.295 0.397 0.06 0.8 0.093 1.205 0.09 0.817 0 1.617-0.204 2.384-0.556z"/></svg>
