<?xml version="1.0" encoding="UTF-8"?>
<!DOCTYPE svg  PUBLIC '-//W3C//DTD SVG 1.1//EN'  'http://www.w3.org/Graphics/SVG/1.1/DTD/svg11.dtd'>
<svg width="141.73px" height="226.77px" enable-background="new 0 0 141.732 226.772" version="1.1" viewBox="0 0 141.73 226.77" xmlns="http://www.w3.org/2000/svg"><rect width="141.73px" height="226.77px" fill="#fff"/><linearGradient id="a" x1="18.531" x2="40.544" y1="220" y2="185.95" gradientUnits="userSpaceOnUse"><stop stop-color="#fff" offset="0"/><stop stop-color="#EDEDED" offset="1"/></linearGradient><path d="m25.267 169.57s7.291 12.02 16.355 15.764 20.888 7.095 20.888 7.686-11.429 24.435-11.429 24.435l-3.153 6.108s-32.316-2.168-37.834-9.262-5.32-22.069-5.32-22.069l13.991-16.553 6.502-6.109z" clip-rule="evenodd" fill="url(#a)" fill-rule="evenodd"/><g clip-rule="evenodd" fill-rule="evenodd"><path d="m128.38 54.151c0.193 0.507 0.605 0.079 0.983 0.313-0.059 0.311 0.196 0.52 0.547 0.503-0.102-0.087 0.021-0.093-0.022-0.249 0.652 0.414 1.572 0.507 1.924 1.281 0.066-0.021 0.031-0.127 0.032-0.203 0.294-0.04 0.39 0.158 0.574 0.249-0.1-0.617-0.879-0.896-1.185-1.449-0.773-0.36-1.835-0.844-2.853-0.445z" fill="#fff"/><path d="m130.37 66.776c0.235 0 0.412-0.053 0.592-0.104 1.09-1.147 2.051-2.404 3.091-3.594-8e-3 -0.212-0.078-0.348-0.146-0.488-0.057 0.012-0.09-3e-3 -0.104-0.042-0.161 4e-3 -0.202 0.107-0.395 0.086-0.295 0.521-0.874 0.806-1.023 1.449-0.74 0.703-1.24 1.606-2.057 2.245-0.622 0.155-0.908-0.091-1.414-0.074-0.521-0.533-1.197-0.883-1.598-1.563-0.772-0.399-1.235-1.169-2.091-1.468-0.109-0.191-0.375-0.218-0.589-0.4-0.071-0.061-0.095-0.224-0.176-0.285-0.324-0.24-0.902-0.433-1.269-0.688-0.438-0.308-1.05-1.318-0.312-1.781-0.046-0.196-0.041-0.147-0.031-0.349 3e-3 -0.166 0.13-0.229 0.222-0.321-0.082-0.393 0.146-0.878 0.454-1.095-0.028-0.362 0.143-0.558 0.391-0.688-9e-3 -0.328 0.106-0.556 0.014-0.955-0.412-0.309-0.672 0.203-0.97 0.389 0.03 0.417-0.291 0.538-0.362 0.987-0.04 0.246-0.273 0.34-0.403 0.539-0.166 0.251-0.339 0.771-0.499 1.15-0.195 0.464-0.357 0.39-0.425 0.842-0.063 0.408-0.264 0.561 0.085 0.946 0.17 0.19 0.172 0.452 0.411 0.666 0.043 0.038 0.151 0.04 0.209 0.082 0.104 0.08 0.402 0.373 0.642 0.443 0.063 0.02 0.108-0.085 0.146-0.063 0.129 0.082 0.148 0.268 0.285 0.376 0.151 0.121 0.431 0.02 0.426 0.263 0.928 0.285 1.703 0.754 2.289 1.451 0.137-8e-3 0.094-0.093 0.2-0.018 0.242 0.445 0.82 0.488 0.995 1.014 0.085-8e-3 0.166-0.015 0.25-0.022-0.062 0.127 0.235 0.23 0.111 0.141 0.646 0.479 2.005 2.004 3.051 0.929z"/><path d="m19.368 73.34c-0.062 0.133-0.155 0.238-0.162 0.417-0.257 0.356-0.73 0.528-0.865 0.983-0.279 0.101-0.614 0.502-0.331 0.783 0.606-0.433 1.181-0.962 1.888-1.326 0.145-0.018 0.307 0.185 0.35-0.031 0.205 0.078 0.35 0.231 0.521 0.204 0.363 0.301 0.739 0.587 1.176 0.797 0.34 0.553 0.974 0.749 1.277 1.341 0.242-0.068 0.188 0.216 0.417 0.165 0.221 0.543 0.799 0.66 0.922 1.322 0.662 0.585 1.198 1.346 1.122 2.411-0.021 0.292-0.123 0.556 0.217 0.733 0.382 0.034 0.496-0.222 0.653-9e-3 0.198-0.837-0.29-1.68-0.606-2.255-0.994-0.715-1.266-2.005-2.348-2.65-0.122-0.536-0.537-0.719-0.667-1.246-0.52-0.259-0.701-0.925-1.394-0.979-0.33-0.722-1.414-0.77-2.17-0.66z"/><path d="m79.056 69.153c0.686-0.431 0.976-0.174 1.594-0.144-0.062-0.053-0.072-0.171-0.077-0.294-0.467 0.032-1.427-0.195-1.517 0.438z"/><path d="m78.077 69.442c0.078 0.165 0.146 0.342 0.2 0.535 0.537 0.092 0.705 0.919 1.186 0.898 0.161 0.083 0.329 0.388 0.524 0.253 0.145 0.378 0.601 0.384 0.68 0.842 0.269-0.175 0.466 0.354 0.72 0.187 0.693 0.825 1.89 1.047 2.625 1.822 0.335-0.044 0.811 0.201 1.046 0.458 0.561-0.048 0.673 0.107 1.078 0.254 0.059-0.09 0.116-0.179 0.069-0.357-0.395-0.05-0.651-0.536-0.951-0.516-0.029 0.163 0.09 0.148 0.167 0.185-0.069 0.111-0.26 0.121-0.222 0.321-0.271-0.02 6e-3 -0.35-0.236-0.381-0.204 4e-3 -0.017 0.107-0.03 0.205-0.231-0.106-0.24-0.159-0.472-0.208 0.142-0.312-0.467-0.935-0.558-0.604-0.128-0.029-0.093-0.256-0.181-0.336-0.137 9e-3 -0.093 0.093-0.199 0.018-0.405-0.544-1.171-0.656-1.521-1.267-0.47-0.044-0.559-0.546-1.055-0.559-0.894-0.622-1.633-1.721-2.87-1.75z"/><path d="m87.698 73.093c0.058 0.189 0.223 0.249 0.336 0.372-0.012-0.242-0.132-0.357-0.336-0.372z"/><path d="m86.375 74.569c-0.047 0.037-0.041 0.12-0.14 0.113 0.311 0.301 0.8 0.318 1.009 0.613 0.243-0.459-0.712-0.383-0.869-0.726z"/><path d="m103.88 82.078c1.393 0.127 2.643 0.626 3.641 1.378 0.063-0.023 0.07-0.095 0.14-0.112 0.128-7e-3 0.114 0.157 0.126 0.29 0.862 0.477 1.52 1.198 2.182 1.913 0.202-0.025 0.548 0.217 0.559 0.602 0.276 0.08 0.533 0.642 0.787 0.933 0.379 0.024 0.472 0.39 0.569 0.753 0.138-0.054 0.136 0.058 0.255 0.026 0.25 0.443 0.664 0.856 0.885 1.478 0.312-6e-3 0.291 0.377 0.25 0.529-0.322-0.053-0.539-0.212-0.819-0.177-0.052-0.085-0.142-0.125-0.172-0.235-0.882-0.078-1.291-0.377-1.924-0.73-0.16-0.011-0.186 0.127-0.3 0.027 0.01-0.1-0.176-0.062-0.176-0.286-0.125-0.054-0.347 0.01-0.457-0.058-0.138-0.435-0.662-0.083-0.757-0.585-0.913-0.287-1.421-1.057-2.332-1.345-0.422-0.939-1.715-1.253-1.973-2.383-0.262-0.071-0.312-0.399-0.639-0.394 0.086-0.48-0.291-1.108 0.06-1.563-0.244-0.208-0.536-0.35-0.869-0.171-0.176 0.507-0.287 0.811-0.122 1.417 0.405 1.494 2.057 2.458 2.972 3.448 0.084-8e-3 0.168-0.015 0.25-0.022 8e-3 0.083 0.016 0.166 0.022 0.249 0.641 0.264 1.099 0.746 1.701 1.053 0.446 0.514 1.288 0.555 1.754 1.045 0.15-0.015 0.324-0.058 0.312 0.123 0.37-0.074 0.819 0.18 1.047 0.458 0.543 0.176 1.208 0.207 1.651 0.503 0.078-0.011 0.193 8e-3 0.195-0.066 0.329 0.47 1.313 0.155 1.706 0.548 0.114-0.09 0.27-0.144 0.436-0.189-0.079-0.146-0.429-0.257-0.34-0.421-0.244-0.058-0.578-7e-3 -0.81-0.077-0.07-0.376-0.307-1.052-0.438-1.519-0.07-0.063-0.238-9e-3 -0.309-0.072-0.157-1.075-1.092-1.564-1.574-2.419-0.138 0.054-0.137-0.058-0.254-0.028 0.118-0.433-0.451-0.652-0.792-0.982-0.293-0.285-0.43-0.638-0.629-0.847-0.639-0.668-1.536-1.141-2.15-1.564-0.07-0.026-0.103-0.098-0.117-0.189-0.731-0.21-1.255-0.668-2.078-0.767-0.051-0.033-0.085-0.083-0.114-0.14-0.396 0.092-1.435-0.296-1.355 0.568z"/><path d="m103.94 136.06c0.562 0.941-0.325 1.515-0.382 2.446 0.017 0.155 0.12 0.053 0.204 0.032 0.145 0.339-0.097 0.503 0.027 0.852 0.266 8e-3 0.292-0.186 0.426-0.289 0.072 1.034 0.031 2.006 0.07 3.007 0.246 0.349 0.525 0.656 0.973 0.764 0.632-0.667 0.346-2.088 0.693-2.875 0.016-0.163-0.055-0.228-0.08-0.345 0.159-0.467 0.014-1.417 0.169-2.023-0.235-0.326 0.044-0.941-0.059-1.198 0.22-0.431 0.537-0.78 0.689-1.269 0.381-0.388 0.481-1.011 0.933-1.34 0.332-0.892 0.791-1.672 1.288-2.425-0.031-0.12 0.081-0.118 0.027-0.256 1.217-2.085 2.419-4.183 3.49-6.392 0.035-0.078 0.116-0.118 0.241-0.122-0.094-0.1 0.033-0.312 0.059-0.457 0.073-0.045 0.059-0.164 0.185-0.169 0.424-0.982 0.792-2.01 1.294-2.927 0.192-0.853 0.37-1.716 0.789-2.385 8e-3 -0.433 0.115-1.151 0.309-1.584-0.099-0.285-1e-3 -0.47 0.086-0.71-0.043-0.542-0.205-1.228-0.221-1.888-0.411-0.524-0.324-1.144-0.521-1.862-0.071-0.044-0.109-0.126-0.212-0.131-0.044-0.791-0.6-1.451-0.646-2.152-1.273-2.008-2.771-3.747-5.169-4.405-0.516 0.315-1.221 0.375-1.251 1.168-5e-3 0.146 0.199 0.292 0.09 0.444 0.222 0.01 0.33 0.389 0.525 0.253-0.013 0.33 0.379 0.402 0.651 0.544 0.271-0.183 0.835 0.535 1.403 0.526 0.312 0.441 1.117 0.705 1.337 1.437 0.105 0.074 0.062-0.011 0.198-0.018 0.084 0.267 0.136 0.326 0.153 0.588 0.355 0.219 0.341 0.966 0.766 1.237 0.163 0.946 0.606 1.744 0.836 2.585 0.589 2.15-0.206 4.138-0.846 6.205-1.125 2.607-2.377 5.109-3.849 7.428 0.097 0.379-0.23 0.531-0.381 0.789-0.232 0.399-0.276 0.938-0.437 1.293-0.199 0.449-0.618 0.811-0.838 1.283 6e-3 0.067 0.012 0.132 0.019 0.199-0.649 1.1-1.151 2.325-1.908 3.337-0.026 0.115-0.021 0.257-0.068 0.357-0.059-3e-3 -0.088 0.018-0.095 0.059-0.482-0.036-0.804 0.061-0.967 0.389z"/><path d="m94.047 39.976c-0.375 0.608-1.047 0.97-1.252 1.721-0.479 0.643-1.067 1.196-1.323 2.026-0.777 0.826-1.25 1.905-1.793 2.925-0.663 0.552-0.821 1.525-1.415 2.136-0.111 0.116 0.064 0.218-0.022 0.303-0.103 0.083-0.259 0.121-0.332 0.232-0.029 0.564-0.721 0.995-0.574 1.408-0.158-0.126-0.115 0.174-0.341 0.13-1.02 2.189-2.279 4.178-3.453 6.238-0.247 0.917-0.983 1.422-1.14 2.413-0.448 0.348-0.549 0.985-0.929 1.39-0.977 1.957-2.136 3.902-3.141 5.808-0.14 0.266-0.298 0.58-0.322 0.883-0.683 0.912-1.277 2.013-1.686 3.015-0.201 3e-3 -0.162 0.204-0.276 0.277 0.03 0.119-0.082 0.116-0.027 0.253-0.507 0.529-0.741 1.286-1.133 1.911-0.6 1.282-1.484 2.324-1.923 3.739-0.325 0.417-0.653 0.863-0.884 1.336-0.092 0.188-0.096 0.438-0.195 0.621-0.088 0.164-0.274 0.273-0.362 0.435-0.167 0.302-0.208 0.675-0.362 0.987-0.455 0.913-1.064 1.805-1.519 2.647-0.027 0.049 0.038 0.147 0.018 0.2-0.096 0.237-0.399 0.305-0.503 0.546-0.531 1.586-1.617 3.103-2.23 4.773-1.488 2.473-2.633 5.234-4.126 7.706-0.745 1.511-1.448 3.058-2.307 4.477l0.018 0.198c-0.854 1.468-1.487 3.12-2.348 4.583 0.05 0.148-0.035 0.187-0.023 0.303 0.324 0.213 0.769 0.433 0.778 0.833 7e-3 0.243-0.21 0.405-0.305 0.531-0.465 0.613-1.198 1.462-1.585 1.901 0.589 0.484 1.2 0.316 1.824 0.738 0.493 0.865-0.246 1.688-1.154 1.66-0.745-0.021-1.42-1.129-1.915-1.183-0.492 0.313-0.755 0.816-1.255 1.119-0.015-0.038-0.047-0.054-0.104-0.042-0.11-0.338 0.249-0.506 0.332-0.782 0.063-0.217-0.039-0.543 0.031-0.757 0.051-0.148 0.289-0.189 0.219-0.371-0.287-0.156-0.23-0.721-0.622-0.748-0.062-0.404-0.323-0.568-0.568-0.751-0.58-1.385-1.468-2.4-2.007-3.837-0.149-0.15-0.318-0.279-0.307-0.625-0.355-0.291-0.471-0.868-0.765-1.236-0.058-0.642-0.714-0.823-0.588-1.504-0.387-0.328-0.504-0.977-0.873-1.327 0.037-0.471-0.252-0.57-0.374-0.82-0.396-0.79-0.296-1.839-0.91-2.278-1.591-4.148-3.381-7.466-4.911-11.56-0.36-0.414-0.423-0.74-0.62-1.3-0.065-0.085-0.146-0.158-0.222-0.231-0.111-0.772-0.543-1.202-0.61-1.753-0.318-0.206-0.41-0.687-0.507-1.159-0.358-0.562-0.647-1.385-0.877-1.93-0.134-0.124-0.334-0.044-0.366-0.169-0.371-0.29-0.619-0.73-0.996-1.014-0.313-0.582-0.88-0.858-1.275-1.341-1.053-0.54-1.824-1.658-3.075-1.781-0.162-0.168-0.452-0.436-0.684-0.341-0.178-0.484-0.815-0.419-1.032-0.859-0.686-0.153-1.291-0.404-1.87-0.687-0.188 0.23-0.378-0.101-0.619-0.194-0.602-0.229-1.653-0.292-2.073-0.717-0.202 0.14-0.461-0.028-0.639 0.158-0.222-0.317-0.813-0.21-1.142-0.399-0.155 9e-3 -0.273 0.047-0.34 0.132-0.193-0.205-0.562-0.116-0.866-0.124-0.667-0.016-1.431-0.41-1.814-0.086-0.635-0.127-1.423 0.201-2.047 0.134-0.62 0.473-1.344 0.517-2.278 0.909 0.03 0.119-0.082 0.117-0.027 0.253-0.526 7e-3 -0.705 0.304-0.793 0.676-0.697 0.108-0.637 0.85-1.265 1.017-0.015 0.264-0.198 0.388-0.244 0.625 0.056 0.249 0.146 0.238 0.041 0.449 0.209 0.515 0.763 0.76 1.099 1.055 0.182 0.16 0.271 0.392 0.453 0.563 0.503 0.467 1.144 0.825 1.72 1.251 1.738 1.28 3.414 2.614 5.164 3.801 0.379 1.296 0.818 2.516 1.289 3.701 1.157 2.422 2.176 5.012 3.062 7.758 0.338 0.421 0.272 1.232 0.701 1.645-0.083 0.476 0.414 1.19 0.47 1.867 0.295 0.68 0.527 1.397 0.692 2.097 0.491 1.406 1.104 3.146 1.477 4.688 0.859 2.245 1.501 5.123 2.156 7.741 0.071 0.285 0.062 0.605 0.132 0.891 0.08 0.334 0.16 0.904 0.257 1.183 0.11 0.313 0.41 0.545 0.479 0.86 0.09 0.406-0.115 0.843-0.136 1.269-0.018 0.364 0.121 0.746 0.153 1.141 0.101 1.226-0.103 2.344-0.056 3.271-0.537 0.722-0.415 1.53-0.464 2.652-0.011 0.24-0.121 0.472-0.136 0.716-0.09 1.51-0.276 3.028-0.306 4.396-0.304 1.055-0.29 2.394-0.505 3.312-0.081 0.35-0.016 0.68-0.054 1.059-0.042 0.395-0.209 0.782-0.245 1.177-0.015 0.143 0.048 0.312 0.041 0.449-0.033 0.503-0.326 1.052-0.36 1.589-0.132 2.024-0.593 3.957-0.836 5.751-0.092 0.682-0.183 1.371-0.168 2.023-0.24 0.846-0.388 2.19-0.541 3.464-0.367 2.502-0.771 5.086-0.979 7.521-0.118 1.384-0.279 2.757-0.377 4.152 0.513 0.049 0.904 0.534 0.895 1.025-0.13 1.21-1.409 1.861-1.459 3.295-0.146 0.217-0.333 0.397-0.335 0.733-0.203 0.076-0.246 0.02-0.453-8e-3 -0.132 0.473-0.565 0.692-0.645 1.212-1.815 2.445-3.459 5.035-5.355 7.414 5e-3 0.05 0.01 0.101 0.014 0.149-0.106 0.122-0.13 0.058-0.241 0.122-0.728 1.22-1.753 2.19-2.451 3.438-0.297 0.228-0.552 0.492-0.675 0.863-0.706 0.767-1.45 1.563-2.102 2.3-0.419 0.473-0.812 0.873-1.135 1.358-0.386 0.122-0.548 0.432-0.9 0.582-0.106-0.095-0.354-5e-3 -0.561-0.1 0.011-0.281 0.186-0.426 0.185-0.719 0.159 0.01 0.189-0.089 0.291-0.127 0.662-1.352 1.646-2.435 2.646-3.504 0.668-1.085 1.562-1.981 2.179-3.11 0.198-0.063 0.284-0.224 0.477-0.293 0.158-0.561 0.571-0.905 0.885-1.336 0.411-0.685 0.878-1.324 1.382-1.934 1.285-1.983 2.748-3.817 3.992-5.834 0.312-0.753 0.797-1.362 1.224-2.021 0.183-0.74 0.918-1.204 0.712-2.122 0.238-0.57 0.092-1.276 0.128-1.92 0.086-1.558 0.533-3.144 0.375-4.754 0.449-1.955 0.442-4.273 0.931-6.364-0.164-0.495 0.172-0.959 0.061-1.561 0.153-0.24 0.093-0.659 0.271-0.879 0.141-2.655 0.574-4.341 0.918-6.513 5e-3 -1.748 0.712-3.19 0.61-4.926 0.119-0.102 0.157-0.298 0.06-0.457 0.077-0.087 0.129-0.199 0.172-0.317 0.02-1.38 0.511-3.241 0.446-4.51 0.401-1.912 0.514-3.811 0.598-6.182 0.015-0.139 0.104-0.218 0.117-0.362-0.189-0.372 0.077-0.666 0.104-1.062 0.021-0.301-0.145-0.653-0.09-0.998 0.015-0.091 0.112-0.186 0.122-0.312 0.024-0.365-0.075-0.737-0.049-1.101 0.087-1.192 0.162-2.188-0.107-3.405-0.071-0.317-0.227-0.734-0.248-1.083-1e-3 -0.017 0.097-0.117 0.087-0.159-0.052-0.199-0.206-0.336-0.25-0.53-0.254-1.114-0.343-2.252-0.654-3.356-0.184-0.648-0.439-1.289-0.629-1.952-0.029-0.098 0.046-0.203 0.023-0.303-0.041-0.175-0.241-0.341-0.299-0.526-0.044-0.138-0.01-0.316-0.041-0.448-0.229-1.009-0.775-2.021-1.025-3.021-0.112-0.445-0.209-0.646-0.34-0.973-0.195-0.494-0.215-1.084-0.393-1.573-0.374-1.023-0.835-1.98-1.031-3.07-0.097-0.085-0.133-0.246-0.23-0.331-0.711-2.757-1.922-5.318-2.904-8.226-0.042-0.132-0.219-0.105-0.226-0.28-0.495-1.489-1.376-2.803-1.786-4.208-0.418-0.198-0.255-0.786-0.693-0.993-0.027-0.765-0.801-1.093-1.198-1.599-0.701-0.391-1.395-0.795-1.979-1.328-0.236 0.026-0.288-0.168-0.516-0.155 5e-3 -0.116-0.025-0.19-0.072-0.244-0.304-0.115-0.47-0.393-0.842-0.427-0.317-0.575-1.134-0.554-1.458-1.124-0.335-0.04-0.432-0.365-0.833-0.326-0.404-0.545-1.016-0.843-1.475-1.323-0.175-0.386-0.319-0.857-0.356-1.726 0.354-0.223 0.277-0.661 0.461-0.997 0.158-0.287 0.474-0.493 0.635-0.759 0.093-0.154 0.087-0.384 0.204-0.521 0.175-0.205 0.509-0.22 0.504-0.547 0.14-0.021 0.198-0.11 0.34-0.131 0.447-0.777 1.462-1.083 2.051-1.743 0.571 0.151 1.124-0.101 1.473-0.384 0.459-0.014 0.838-0.079 1.432-0.279 0.408 0.246 0.952-0.142 1.507 0.014 0.036-0.108 0.28-0.043 0.285-0.176 1.118 0.132 2.176 0.056 3.446 0.342 0.093-0.078 0.28-0.074 0.39-0.136 0.178 0.397 0.36 0.212 0.825 0.227 0.103 4e-3 0.063 0.18 0.166 0.185 0.683 0.048 1.038 0.487 1.752 0.496 0.017 0.092 0.048 0.163 0.118 0.19 1.01-0.093 1.816 0.723 2.73 0.758 3e-3 0.124 0.014 0.242 0.122 0.24 0.895 0.271 1.488 0.901 2.504 1.03 0.157 0.259 0.448 0.507 0.696 0.489 0.091 0.151 0.189 0.291 0.29 0.426 0.48 0.252 0.831 0.66 1.381 0.829 0.456 0.723 1.037 1.298 1.717 1.753 0.075 0.386 0.312 0.583 0.568 0.752 0.341 0.64 0.565 1.42 1.028 1.915 0.131 0.874 0.652 1.279 0.841 2.085 0.05-4e-3 0.1-9e-3 0.148-0.014 0.88 2.22 2.091 4.045 2.841 6.422 1.447 2.68 2.498 5.833 3.944 8.633 0.011 0.117 0.021 0.233 0.031 0.349 0.329 0.304 0.494 0.807 0.624 1.351 0.332 0.153 0.274 0.772 0.588 0.951 0.271 1.188 1.114 2.159 1.512 3.377 0.067-7e-3 0.111 0.014 0.154 0.037 0.603 1.407 1.422 2.702 2.221 4.018 0.011 0.117 0.021 0.233 0.031 0.349 0.121 0.057 0.236 0.121 0.32 0.222 0.246 0.737 0.764 1.147 1.159 1.704 0.574-0.811 0.716-1.983 1.415-2.69 0.551-1.903 1.517-3.463 2.348-5.133-9e-3 -0.099-0.019-0.199-0.027-0.298 0.995-1.143 1.185-2.75 2.153-3.961-8e-3 -0.083-0.015-0.167-0.022-0.25 0.629-0.671 0.87-1.589 1.189-2.417 0.267-0.099 0.32-0.377 0.502-0.547-0.066-0.605 0.307-0.904 0.634-1.313-9e-3 -0.098-0.018-0.198-0.026-0.299 0.324-0.39 0.383-1.001 0.73-1.371 0.322-0.959 0.885-1.718 1.16-2.716 0.123-0.067 0.229-0.148 0.277-0.277 6e-3 -0.486 0.453-0.603 0.398-1.14 0.61-0.536 0.795-1.424 1.269-2.075 0.393-1.022 1.066-1.812 1.506-2.797 0.114-0.835 0.718-1.261 0.825-1.983 0.19 4e-3 0.217-0.125 0.281-0.226 0.257-0.833 0.63-1.286 1.077-1.956 0.12-0.377 0.271-0.727 0.566-0.957 0.049-0.144 0.135-0.257 0.109-0.461 0.489-0.591 0.701-1.412 1.175-2.015-7e-3 -0.082-0.015-0.166-0.022-0.249 0.371-0.181 0.278-0.75 0.617-0.958-0.15-0.03 0.052-0.132-0.022-0.25 1.194-1.612 1.938-3.604 3.036-5.297 1.144-2.178 2.327-4.321 3.48-6.492l-0.018-0.198c0.802-1.122 1.28-2.242 2.001-3.446 0.279-0.932 0.97-1.521 1.232-2.472 0.096-0.024 0.105 0.058 0.158 0.087 1.051-2.596 2.73-4.733 3.961-7.29 0.458-0.293 0.405-1.014 0.834-1.331 0.415-0.714 0.793-1.458 1.265-2.124 0.081-0.577 0.581-0.804 0.681-1.366 0.507-0.375 0.68-1.03 1.123-1.458 0.355-1.024 1.372-1.498 1.895-2.381 0.421 0.028 0.371-0.335 0.83-0.276 0.273-0.327 0.826-0.603 1.354-0.574 0.857-0.812 2.046-0.287 3.098-0.732 0.136-0.034 0.062 0.182 0.167 0.186 0.48-0.131 0.456 0.143 0.956 0.015 0.532 0.246 0.821 0.782 1.529 0.816 0.249 0.714 1.005 0.82 1.245 1.544 0.154-0.038 0.126 0.143 0.308 0.073 0.156 0.419 0.574 0.526 0.646 1.046 0.324-0.076 0.265 0.309 0.53 0.303 0.138 0.918 0.661 0.953 0.66 1.749 0.739 1.01 0.683 2.384 0.547 3.819-1.306 2.984-2.542 6.257-3.959 8.994 0.01 0.101 0.019 0.201 0.027 0.301-0.938 1.72-1.749 3.546-2.526 5.399-0.184 0.016-0.341 0.055-0.331 0.232-0.062 0.183 0.173 0.015 0.164 0.135-0.26 0.261-0.229 0.762-0.513 1.001-0.075 0.659-0.599 0.942-0.603 1.662-1.264 2.016-1.687 4.735-2.739 6.927-0.086 0.587-0.279 1.087-0.567 1.508-0.582 2.323-1.761 4.55-2.38 6.994-0.362 0.442-0.386 1.021-0.563 1.559-0.186 0.558-0.53 1.062-0.708 1.62-0.344 1.086-0.692 2.165-1.169 3.169-0.435 1.709-1.139 2.965-1.583 4.714-0.394 0.975-0.809 2.008-1.129 3.064-0.404 1.332-0.844 2.576-1.217 3.776-0.276 0.891-0.542 1.884-0.722 2.576-0.07 0.273-0.054 0.586-0.123 0.866-0.363 1.505-0.932 2.99-1.115 4.318-0.095 0.685-0.274 1.12-0.146 1.721 0.784-1.265 1.279-2.772 2.316-3.826 0.184-0.493 0.562-0.821 0.897-1.186 0-0.259 0.147-0.399 0.305-0.529-0.051-0.149 0.035-0.188 0.022-0.305 0.126-0.017 0.166-0.107 0.235-0.171 0.736-1.352 1.652-2.552 2.521-3.794-0.033-0.118 0.081-0.115 0.027-0.253 0.167-0.136 0.408-0.21 0.516-0.398 0.048-0.574 0.343-0.942 0.689-1.267-6e-3 -0.067-0.012-0.133-0.018-0.2 0.497-0.478 0.841-1.319 1.305-1.675 0.048-0.298 0.384-0.752 0.66-1.014 0.333-0.935 1.142-1.474 1.438-2.441 0.274-0.369 0.751-0.569 0.803-1.126 1.043-1.232 1.72-2.772 2.805-3.971 0.237-0.646 0.806-1.016 1.002-1.696 0.325-0.313 0.677-0.603 0.753-1.124 1.298-1.434 2.251-3.157 3.443-4.68 0.054-0.139 0.11-0.277 0.164-0.417 0.133-0.119 0.242-0.257 0.42-0.339 0.357-0.915 1.149-1.469 1.654-2.259-0.066-0.194 0.136-0.163 0.069-0.357 1.112-1.116 1.909-2.492 3.04-3.59 0.614-0.991 1.319-1.909 1.949-2.888 0.889-0.686 1.136-1.908 2.135-2.502 0.334-0.689 0.826-1.246 1.345-1.78-0.012-0.086-3e-3 -0.156 0.032-0.204 0.14-0.13 0.29-0.249 0.417-0.389 0.051-0.45 0.386-0.661 0.779-0.825 0.996-1.702 2.847-2.692 4.037-4.231 0.501-0.089 0.763-0.693 1.327-0.874 0.039-0.151 0.239-0.168 0.163-0.416 1.045-0.3 1.565-1.217 2.587-1.39 0.035-0.109 0.138-0.161 0.122-0.313 1.085-0.072 1.795-1.07 2.857-1.161 0.462-0.45 0.986-0.244 1.399-0.629 0.271 0.209 0.674-0.045 0.969 0.164 0.141-0.021 0.201-0.11 0.342-0.131 1.149 0.203 2.198 0.531 2.969 1.189 0.115 0.028 0.204 0.085 0.358 0.067 0.482 0.692 1.343 0.932 1.624 1.862 0.124-0.019 0.162 0.063 0.26 0.077 0.05 0.149-0.074 0.155-0.023 0.304 0.562 0.264 0.729 1.001 1.182 1.399 7e-3 0.811 1.006 1.309 0.953 2.225 1.006 0.823 0.178 3.385-0.424 4.207-0.047 0.406-0.33 0.614-0.303 1.082-0.729 0.929-1.21 2.062-1.887 3.033 0.013 0.118-0.072 0.155-0.022 0.305-0.409 0.486-0.91 0.897-1.006 1.647-0.125 3e-3 -0.204 0.045-0.24 0.123-1.476 2.545-3.231 4.858-4.813 7.315-0.106 0.063-0.242 0.104-0.334 0.18-0.221 0.768-0.719 1.306-1.243 1.819-0.359 1.006-1.368 1.468-1.735 2.467-0.665 0.613-1.262 1.282-1.559 2.2-0.447 0.38-0.73 0.896-0.92 1.489-0.474 0.42-0.619 1.111-1.119 1.508-0.15 0.812-0.986 1.05-1.03 1.951-0.257 0.03-0.274 0.262-0.472 0.344-0.015 0.494-0.481 0.611-0.557 1.055-0.646 0.536-0.854 1.436-1.532 1.946 7e-3 0.067 0.013 0.133 0.019 0.199-0.825 0.785-1.298 1.865-2.121 2.653-0.604 1.169-1.521 2.077-2.224 3.164-0.958 0.738-1.308 1.98-2.267 2.716 0.053 0.137-0.059 0.135-0.027 0.253-0.406 0.178-0.503 0.642-0.767 0.973-0.321 0.403-0.833 0.691-0.893 1.237-1.146 1.025-1.842 2.424-2.896 3.526-0.607 1.075-1.591 1.836-2.09 3.001-0.903 0.75-1.285 1.937-2.165 2.708 0.055 0.136-0.059 0.134-0.027 0.253-0.837 0.838-1.448 1.861-2.211 2.761-0.304 0.562-0.688 1.055-1.066 1.552-0.015 0.141-0.104 0.221-0.117 0.362-1.235 0.982-1.286 2.951-1.801 4.532-0.159 0.917-0.102 1.71-0.183 2.428-0.701 0.461-1.616 0.173-1.91-0.58 0.12-0.217 0.135-0.421-0.055-0.599-0.305 0.354-0.654 1.163-1.228 0.864 0.15-0.296 0.388-0.97 0.092-1.213 0.281-0.165 0.317-0.534 0.372-0.888 0.291-0.202 0.392-0.563 0.629-0.812-0.181-0.297 0.369-0.518 0.178-0.818 0.69-0.637 1.32-1.521 1.487-2.444 0.476-0.939 1.005-1.833 1.78-2.521 0.1-0.01 0.198-0.019 0.299-0.027 0.459-1.087 1.614-1.962 2.181-3.109 0.082-7e-3 0.166-0.015 0.248-0.022 0.127-0.523 0.6-0.759 0.686-1.317 0.444-0.276 0.452-0.64 0.911-1.038 0.042-0.318 0.307-0.45 0.492-0.647 0.262-0.703 0.963-1.04 1.143-1.81 0.339-0.175 0.411-0.345 0.644-0.661 0.204-0.275 0.348-0.524 0.535-0.751 0.25-0.305 0.695-0.64 0.661-1.014 0.78-0.747 1.461-1.576 1.98-2.539 0.236 0.043 0.061-0.257 0.335-0.181 0.656-1.357 1.818-2.29 2.539-3.595 0.324-0.266 0.695-0.493 0.766-0.972 1.047-1.277 1.971-2.656 3.009-3.939-0.077-0.31 0.229-0.3 0.145-0.615 0.155 0.022 0.139-0.1 0.295-0.078 0.28-0.533 0.638-1.004 1.079-1.402 0.344-0.869 1.055-1.531 1.56-2.2 0.561-0.746 1.029-1.578 1.594-2.354 1.887-2.587 3.493-5.503 5.354-8.017 0.877-0.837 1.495-1.879 2.152-2.857 0.245-0.363 0.61-0.747 0.701-1.117 0.16 9e-3 0.188-0.089 0.291-0.127 0.317-0.917 1.158-1.399 1.392-2.386 0.155 0.022 0.138-0.099 0.294-0.077 0.271-0.817 0.928-1.315 1.16-2.164 0.265-0.134 0.389-0.383 0.441-0.693 1.022-1.265 1.662-2.851 2.474-4.292 5e-3 -0.318 0.378-0.33 0.286-0.73 0.727-1.005 1.133-2.278 1.537-3.553-0.189-0.084-0.07-0.255-0.036-0.397-0.052-0.142-0.248-0.109-0.231-0.331 0.163-0.714-0.26-0.999-0.561-1.758-0.519-0.02-0.488-0.702-1.018-0.712-0.417-0.734-1.329-0.872-1.842-1.491-0.07 4e-3 -0.108 0.033-0.146 0.063-0.818-0.603-1.815-0.99-2.971-1.188-6e-3 -0.175-0.189-0.141-0.271-0.227-0.837-0.062-2.041-0.111-2.627 0.389-0.062-0.109-0.314 8e-3 -0.453-9e-3 0.023 0.104-0.154 0.277-0.221 0.321-0.768 0.492-1.653 0.83-2.293 1.312-0.321 0.027-0.481 0.536-0.952 0.588-0.611 0.794-1.632 1.248-2.17 2.104-0.654 0.482-1.375 0.91-1.707 1.662-0.083 7e-3 -0.166 0.015-0.25 0.022-0.709 0.866-1.611 1.572-2.125 2.602-1.109 1.056-1.9 2.376-2.895 3.527-0.854 1.314-1.915 2.457-2.774 3.765-0.208 0.119-0.413 0.24-0.403 0.54-0.116 0.058-0.233 0.113-0.336 0.18-0.062 0.103-0.113 0.213-0.117 0.363-0.479 0.168-0.529 0.694-0.919 0.937-0.91 1.543-2.125 2.834-3.183 4.255-0.839 1.495-2.035 2.691-2.832 4.224-0.349 0.154-0.455 0.512-0.738 0.72-0.292 0.8-0.904 1.334-1.215 2.118-0.8 0.685-1.129 1.761-1.886 2.481-0.036 0.092-0.128 0.139-0.072 0.308-0.378 0.254-0.48 0.691-0.712 1.018-0.126 0.182-0.381 0.313-0.508 0.499-0.193 0.286-0.273 0.665-0.467 0.949-0.338 0.498-0.908 0.856-1.02 1.498-0.542 0.362-0.657 1.08-1.174 1.462-0.664 1.288-1.643 2.314-2.229 3.667-0.23 0.069-0.298 0.274-0.467 0.394-0.195 0.529-0.464 0.995-0.884 1.335-0.676 1.263-1.477 2.423-2.344 3.527-0.036 0.061-0.054 0.14-0.026 0.253-1.214 1.491-2.138 3.222-3.287 4.767-0.031 0.096-0.065 0.189-0.072 0.308-0.899 0.954-1.384 2.252-2.324 3.172 6e-3 0.068 0.012 0.134 0.019 0.2-0.147 0.047-0.192 0.177-0.33 0.231-0.215 0.757-0.833 1.179-1.139 1.86-0.046-0.107-0.14 0.124-0.239 0.123 5e-3 0.235-0.23 0.27-0.204 0.521-0.074 0.016-0.187-1e-3 -0.195 0.068-0.097 0.273-0.27 0.481-0.603 0.557-0.125-0.342 0.04-0.529 0.29-0.679 0.094-0.183 0.092-0.445 0.086-0.711 0.41-0.381 0.473-1.049 0.875-1.435 0.58-1.22 1.314-2.312 2-3.446-0.344-0.139-0.638-0.34-0.725-0.788 5e-3 -0.119 0.232-0.051 0.181-0.217 0.02-0.752 0.092-1.459 0.317-2.038 0.186-2.394 1.018-4.567 1.436-6.91 0.38-0.65 0.431-1.574 0.803-2.231 0.257-1.413 0.963-2.452 1.152-3.921 0.274-0.415 0.412-0.946 0.518-1.503 0.897-1.604 1.188-3.485 2.108-5.012-0.043-0.436 0.247-0.592 0.317-0.932 0.028-0.146-0.083-0.124-0.072-0.246 0.404-0.778 0.251-1.782 0.553-2.762 0.324-0.294 0.302-0.756 0.291-1.231 0.171-0.237 0.283-0.524 0.382-0.788 0.159-0.424 0.353-0.832 0.38-1.34 0.514-0.677 0.602-1.708 1.143-2.363 0.479-1.257 0.896-2.802 1.65-3.965-7e-3 -0.605 0.458-0.816 0.423-1.444 0.473-0.466 0.519-1.288 0.942-1.793 0.408-1.46 1.007-2.746 1.746-4.025 0.111-0.638 0.388-1.197 0.689-1.82 0.838-2.049 1.605-4.158 2.615-6.063-7e-3 -0.082-0.015-0.165-0.022-0.248 0.53-1.062 1.099-2.092 1.406-3.342 0.327-0.433 0.717-1.059 0.707-1.62-0.214 0.036-0.164 0.293-0.263 0.426-0.833 0.22-1.664 0.381-2.301 0.108-0.604 0.173-0.746-0.302-1-0.513-0.317-0.265-0.804-0.296-1.153-0.549-0.127-0.091-0.181-0.288-0.285-0.376-0.266-0.221-0.565-0.282-0.797-0.481-0.083 8e-3 -0.167 0.015-0.25 0.022-0.358-0.417-0.896-0.62-1.295-0.987-0.545 0.065-0.726-0.307-1.051-0.508-0.383 0.239-0.727-0.427-1.284-0.335-0.2-0.287-0.406-0.499-0.794-0.431-0.047-0.33-0.022-0.745-0.14-0.992 0.172-0.165 0.156-0.484 0.29-0.679-0.26-0.549 0.384-0.91 0.418-1.495 0.25-0.098 0.293-0.369 0.507-0.497 0.297 0.265-0.132 0.671 0.131 0.892-0.316 0.605-0.198 1.166-0.236 1.83 0.108 0.019 0.154 0.111 0.309 0.071-0.032 0.223 0.125 0.221 0.18 0.336 0.883 0.343 1.595 0.887 2.52 1.178 0.321 0.368 0.688 0.683 1.227 0.794-8e-3 0.116 0.024 0.191 0.072 0.244 0.726 0.326 1.312 0.819 1.833 1.391 0.104 0.096 0.324 0.053 0.371 0.219 0.656-0.223 1.204 0.18 1.756-9e-3 0.434-0.148 0.621-0.723 0.906-1.087 0.163-0.204 0.346-0.332 0.507-0.498 0.506 0.166 0.26 0.725 0.2 1.087 0.646-1.365 1.163-2.837 1.505-4.454-0.157-0.511 0.14-0.842 0.082-1.312-0.243-0.324-0.396-0.553-0.488-0.961-0.323-0.06-0.73-0.474-0.782-0.883-0.14-0.025-0.091 0.108-0.191 0.117-1.417-1.633-3.536-2.52-5.73-2.847-0.347 0.222-0.482 0.055-0.859-0.073-0.056 0.326-0.249-0.023-0.381 0.236-0.081-0.142-5e-3 -0.205-0.176-0.285-0.073-0.23 0.184-0.185 0.112-0.413-0.321 0.269-0.855 0.362-0.874 0.883-0.101 0.073-0.153-0.014-0.298 0.074zm1.899-1.226c1.058 0.048 1.698 0.292 2.558 0.522 0.486 0.392 1.524 0.419 1.789 0.892 1.324 0.345 2.026 1.437 2.964 2.244 0.058-0.27-0.305-0.518-0.284-0.928-0.215-0.09-0.283-0.531-0.539-0.404-0.117-0.432-0.563-0.792-0.813-1.231-0.631-0.078-0.851-0.861-1.358-1.132-0.406-0.218-0.887-0.152-1.195-0.446-0.12 0.098-0.18-0.04-0.244 0.073-0.62-0.601-1.463 0.103-1.915-0.078-0.31 0.238-0.74 0.141-0.963 0.488zm32.429 15.401c0.193 0.507 0.605 0.079 0.983 0.313-0.059 0.311 0.196 0.52 0.547 0.503-0.102-0.087 0.021-0.093-0.022-0.249 0.652 0.414 1.572 0.507 1.924 1.281 0.066-0.021 0.031-0.127 0.032-0.203 0.294-0.04 0.39 0.158 0.574 0.249-0.1-0.617-0.879-0.896-1.185-1.449-0.773-0.36-1.835-0.844-2.853-0.445z"/><path d="m80.749 69c0.732 0.44 1.417 0.645 2.251 1.001 0.059 4e-3 0.05 0.088 0.063 0.146 0.465 0.045 0.744 0.395 1.109 0.603 0.193 0.109 0.577 0.067 0.639 0.394 0.58-0.091 0.84 0.921 1.521 0.716 0.14 0.398 0.553 0.605 1.091 0.957-0.149-0.375-0.502-0.503-0.861-0.625 0.027-0.252-0.127-0.288-0.189-0.436-0.31 0.257-0.459-0.281-0.557-0.048-0.084-0.066-0.122-0.187-0.131-0.34-0.305 0.128-0.536-0.265-0.549-0.503-0.521-0.204-0.858-0.625-1.562-0.611-8e-3 -0.085-0.015-0.167-0.022-0.25-0.102-8e-3 -0.154 0.024-0.14 0.113-0.108 0.018-0.039-0.175-0.073-0.244-0.467-0.432-1.187-0.177-1.575-0.763-0.269 0.037-0.311 0.055-0.494 0.095-0.145-0.287-0.32-0.066-0.521-0.205z"/><path d="m110.5 132.61c-4e-3 0.256-0.157 0.389-0.249 0.574 0.021 0.635 0.424 0.967 0.389 1.522 0.367 0.313 0.578 0.814 0.864 1.228 0.261 1.801 1.015 2.595 0.898 4.389 5e-3 0.141 0.16 0.103 0.171 0.235-0.025 0.889-7e-3 2.104-0.182 2.979-0.095 0.48-0.111 1.05-0.258 1.581-0.103 0.366-0.288 0.71-0.404 1.091-0.162 0.528-0.219 1.131-0.509 1.603-0.148 0.245-0.238 0.642-0.412 0.991-0.051 0.103-0.159 0.117-0.232 0.223-0.098 0.147-0.109 0.412-0.198 0.57-0.138 0.243-0.172 0.308-0.291 0.678-0.071 0.229-0.467 0.757-0.615 0.96-0.281 0.383-0.544 1.023-0.861 1.584-0.283 0.499-0.73 0.929-0.935 1.341-0.054 0.111-0.017 0.253-0.067 0.356-0.312 0.639-0.879 1.085-1.143 1.812 0.04-0.013 0.045-0.053 0.096-0.058 0.031 0.164-0.24 0.076-0.123 0.312-0.769 0.472-1.33 1.492-1.739 2.417-0.685 0.472-0.874 1.358-1.597 1.801-0.058-0.167-0.211-0.222-0.284-0.377-0.599-0.074-0.997 0.484-1.295 0.671-0.119 0.331-0.229 0.667-0.525 0.852 0.062 0.496-0.339 0.607-0.522 0.899-0.243 0.935-0.797 1.607-1.078 2.508-0.029 0.131-0.194 0.148-0.281 0.227 0.064 0.239-0.089 0.294-0.219 0.371-0.084 0.45-0.329 0.77-0.661 1.016-0.847 1.795-2.305 3.081-3.394 4.676-0.836 0.545-1.185 1.499-2.135 1.951 0.041 0.187-0.221 0.122-0.118 0.362-0.707 0.498-1.205 1.173-2.07 1.542 0.052 0.149-0.165 0.076-0.077 0.259-0.163 0.017-0.24 0.105-0.443 0.09-0.012 0.097-0.134 0.104-0.077 0.258-1.627 0.848-2.903 2.188-4.661 2.882-0.197 0.01 0.022 0.075-0.086 0.158-1.986 1.152-4.051 2.241-6.129 3.317-0.256 0.23-0.587 0.4-1.009 0.493-0.221 0.476-0.85 0.652-1.387 0.777-0.339 0.403-0.845 0.605-1.392 0.728-0.486 0.577-1.363 0.828-2.101 1.194-0.271 0.296-1.032 0.418-1.387 0.778-1.455 0.447-2.753 1.38-4.268 1.692-0.226 0.263-0.472 0.221-0.774 0.321-0.055-0.432-0.436-0.472-0.484-0.911-0.428-0.069-0.625-0.339-1.167-0.146-0.278 0.528-0.556 0.809-0.567 1.508-0.062 0.193-0.355 0.195-0.308 0.479-0.418 0.276-1.144 0.265-1.604 0.597-7e-3 0.082 0.055 0.082 0.063 0.145-0.425 0.325-1.069 0.235-1.503 0.588 0.633 0.255 1.301 0.026 2.068 0.115-0.551 1.105-1.496 1.884-1.983 3.041-0.31 0.13-0.404 0.622-0.752 0.571 0.054 0.169-0.058 0.196-0.02 0.354-1.56 2.537-3.291 4.93-4.578 7.695-0.177 0.037-0.089 0.295-0.272 0.326-0.032 0.341-0.124 0.633-0.434 0.742-0.168 1.062-0.963 1.698-1.048 2.856-0.175 0.162-0.138 0.5-0.345 0.636 1e-3 0.108 0.056 0.154 0.162 0.135-0.273 0.341 0.111 0.481 0.027 0.852 0.784-0.455 0.953-1.771 1.689-2.413-0.049-0.18 0.01-0.27 0.068-0.357 0.954-1.277 1.626-2.79 2.598-4.053-0.03-0.193 0.163-0.2 0.112-0.412 0.1-0.07 0.128-0.199 0.282-0.225 1.891-3.428 4.287-6.435 6.462-9.625 0.114-0.242 0.429-0.317 0.444-0.644 0.257-0.4 1.111-0.301 1.342-0.723 0.773-0.052 1.588-0.453 2.186-0.802 1.09-0.351 2.102-0.765 3-1.275 0.116-0.01 0.231-0.021 0.35-0.031 2.506-1.361 5.447-2.559 7.672-4.008 1.062-0.297 1.683-0.96 2.75-1.252 0.708-0.668 1.918-0.92 2.619-1.593 0.78-0.132 1.203-0.755 1.775-0.915 0.399-0.511 1.218-0.673 1.6-1.199 0.217 0.057 0.301-0.235 0.442-0.09 1.13-0.958 2.249-1.707 3.479-2.625-0.029-0.101 0.024-0.133 0.032-0.203 0.886-0.429 1.316-1.236 2.104-1.747 0.527-0.742 1.182-1.377 1.826-2.021 0.878-1.417 2.17-2.491 2.846-4.074 0.057-0.075 0.232-0.052 0.289-0.128-6e-3 -0.065-0.012-0.132-0.018-0.198 0.042-0.149 0.187-0.213 0.326-0.281 0.252-0.804 0.847-1.319 1.008-2.2 0.309-0.387 0.795-0.626 0.951-1.14 1.285-0.986 1.96-2.479 3.252-3.459 0.408-0.918 1.122-1.583 1.697-2.363 0.556-1.178 1.455-2.069 2.016-3.247 8e-3 -0.068 0.121-0.051 0.195-0.064 0.321-1.1 1.173-1.756 1.555-2.805 0.104-0.095 0.137-0.254 0.271-0.325 0.072-0.51 0.397-0.805 0.648-1.163 0.989-2.49 2.312-4.901 2.337-8.047 6e-3 -0.103 0.089-0.142 0.132-0.213-0.182-0.811 0.09-1.486-0.238-2.088 0.163-0.447 0.064-0.989-0.095-1.599-0.252-0.968-0.379-2.144-0.869-2.935 0.048-1.103-0.764-1.61-1.03-2.519-0.235-0.177-0.546-0.265-0.747-0.484-0.247 0.112-0.553-3e-3 -0.843 0.128z"/></g><line x1="76.667" x2="76.667" y1="120.73" y2="209.23" fill="none" stroke="#000" stroke-width="3"/><polygon points="68.891 203.33 76.667 206.63 84.446 203.33 76.667 221.76"/><path d="m61.247 193.86s-6.439 14.159-11.718 26.621" clip-rule="evenodd" fill="none" fill-rule="evenodd" stroke="#000" stroke-width="1.3"/><path d="m18.545 176.59s-7.79 8.996-13.735 15.568" clip-rule="evenodd" fill="none" fill-rule="evenodd" stroke="#000"/><path d="m25.763 170.55s4.894 12.795 34.361 21.775" clip-rule="evenodd" fill="none" fill-rule="evenodd" stroke="#000"/></svg>
