<?xml version="1.0" encoding="UTF-8"?>
<svg width="268.07px" height="226.77px" enable-background="new 0 0 268.066 226.77" version="1.1" viewBox="0 0 268.07 226.77" xmlns="http://www.w3.org/2000/svg"><rect width="268.07px" height="226.77px" fill="#fff"/><style type="text/css">.st0{fill:#FFFFFF;} .st1{fill:url(#b);} .st2{fill:none;stroke:#000000;stroke-width:2;stroke-linecap:round;} .st3{fill:none;stroke:#000000;stroke-linecap:round;} .st4{fill:url(#a);} .st5{fill:none;stroke:#000000;} .st6{fill:none;stroke:#000000;stroke-width:1.6;stroke-linecap:round;} .st7{fill:none;stroke:#000000;stroke-width:0.75;stroke-linecap:round;}</style><rect class="st0" x=".85" y="1.263" width="265.62" height="223.94"/><linearGradient id="b" x1="174.04" x2="181.54" y1="577.24" y2="566.11" gradientTransform="translate(0 -369.17)" gradientUnits="userSpaceOnUse"><stop stop-color="#fff" offset="0"/><stop stop-color="#EDEDED" offset="1"/></linearGradient><polygon class="st1" points="197.5 221.71 208.96 202 214.85 192.36 206.09 190.7 189.76 184.69 180.5 177.21 175.66 170.56 149.17 196.53"/><path class="st2" d="m200.24 216.43c0.839-1.319 28.407-47.131 28.407-47.131-6.015 8.466 18.676-8.844 18.818-43.319"/><path class="st3" d="m177.64 172.54s9.512 16.607 33.842 18.958"/><path class="st2" d="m149.99 194.13s31.013-29.375 31.876-31.483c0.864-2.108 6.985-61.941 7.437-65.107"/><line class="st2" x1="196.81" x2="194.65" y1="52.043" y2="63.494"/><polyline class="st2" points="194.21 61.393 190.05 77.586 189.43 102.61"/><path d="m194.52 51.262c1.259 0.015 2.524 0.159 3.769 0.429 1.246 0.267 2.477 0.656 3.65 1.221 1.173 0.555 2.296 1.292 3.243 2.256 0.459 0.492 0.906 1.013 1.254 1.606 0.368 0.58 0.649 1.214 0.879 1.865 0.429 1.315 0.542 2.707 0.455 4.053-0.045 0.691-0.132 1.326-0.206 1.938-0.07 0.62-0.186 1.273-0.294 1.904-0.232 1.264-0.512 2.527-0.895 3.79-0.191 0.632-0.411 1.266-0.702 1.895-0.144 0.316-0.302 0.631-0.495 0.952-0.091 0.159-0.204 0.324-0.319 0.487l-0.206 0.258c-0.099 0.104-0.116 0.149-0.357 0.345l0.415-1.412c0.16 0.434 0.279 0.801 0.397 1.197 0.121 0.39 0.222 0.779 0.327 1.17 0.195 0.782 0.384 1.564 0.509 2.356 0.267 1.581 0.456 3.171 0.537 4.767 0.045 0.797 0.054 1.597 0.037 2.394-0.015 0.798-0.041 1.594-0.108 2.389-0.039 0.796-0.143 1.586-0.247 2.375-0.106 0.788-0.267 1.569-0.398 2.35l-0.023-0.389c0.181 0.758 0.318 1.472 0.439 2.21 0.114 0.734 0.208 1.47 0.284 2.208 0.148 1.474 0.232 2.957 0.187 4.439-0.045 1.481-0.173 2.962-0.477 4.411-0.295 1.449-0.764 2.863-1.438 4.159 0.462-1.386 0.698-2.817 0.817-4.247 0.098-1.434 0.095-2.868-0.02-4.295-0.124-1.426-0.295-2.847-0.564-4.252-0.132-0.702-0.281-1.401-0.449-2.094-0.164-0.688-0.34-1.396-0.539-2.042l-0.043-0.139 0.019-0.25c0.059-0.759 0.147-1.513 0.182-2.272 0.022-0.759 0.088-1.513 0.085-2.271 0.024-0.757 8e-3 -1.513-0.017-2.268-3e-3 -0.378-0.034-0.755-0.058-1.131-0.032-0.376-0.032-0.754-0.071-1.129-0.103-1.505-0.309-3.001-0.584-4.478-0.141-0.738-0.288-1.473-0.46-2.2-0.09-0.361-0.178-0.725-0.281-1.079-0.096-0.35-0.213-0.723-0.316-1.02l0.415-1.412c-0.12 0.097-0.032 0.025-0.026 0.012l0.089-0.108c0.065-0.093 0.133-0.184 0.2-0.298 0.134-0.214 0.263-0.458 0.382-0.711 0.237-0.508 0.465-1.049 0.661-1.61 0.398-1.121 0.719-2.298 0.995-3.491l0.388-1.797c0.126-0.627 0.257-1.228 0.321-1.788 0.148-1.149 0.109-2.303-0.16-3.402-0.144-0.545-0.327-1.085-0.592-1.589-0.244-0.516-0.585-0.983-0.942-1.44-0.75-0.886-1.671-1.666-2.705-2.297-1.034-0.632-2.16-1.142-3.326-1.564-1.172-0.402-2.377-0.755-3.618-0.961z"/><path class="st2" d="m227.69 85.522s5.393 10.861 3.291 20.131l3.389 9.976"/><line class="st2" x1="199.84" x2="204.55" y1="49.078" y2="32.205"/><path class="st2" d="m224.44 28.439s7.662 7.026 3.606 20.72c0 0 3.716 8.746-0.745 18.985 0 0 2.203 10.477 0.39 17.378"/><path d="m209.08 14.251c1.312 0.022 2.634 0.23 3.91 0.614 0.639 0.19 1.269 0.419 1.882 0.696 0.615 0.272 1.208 0.601 1.777 0.971 0.573 0.365 1.112 0.787 1.627 1.24 0.509 0.46 0.981 0.964 1.411 1.507 0.419 0.549 0.805 1.126 1.137 1.734 0.324 0.61 0.629 1.238 0.854 1.892 0.26 0.645 0.422 1.318 0.586 1.988 0.128 0.676 0.259 1.355 0.31 2.039 0.093 0.684 0.088 1.365 0.115 2.05 3e-3 0.682-0.033 1.362-0.064 2.042-0.071 0.673-0.119 1.353-0.229 2.02-0.12 0.663-0.206 1.337-0.355 1.993-0.152 0.654-0.282 1.317-0.453 1.966l-0.535 1.94-0.03-0.792c0.204 0.516 0.355 0.957 0.5 1.433 0.146 0.47 0.259 0.941 0.381 1.413 0.22 0.946 0.415 1.895 0.553 2.852 0.068 0.478 0.147 0.956 0.188 1.437 0.043 0.481 0.114 0.96 0.133 1.443l0.081 1.446-2e-3 1.448c0.01 0.483-0.038 0.964-0.057 1.446-0.028 0.482-0.042 0.964-0.104 1.443-0.093 0.96-0.203 1.918-0.378 2.866-0.131 0.956-0.372 1.89-0.594 2.827-0.099 0.471-0.261 0.926-0.394 1.388l-0.419 1.379 6e-3 -0.658c0.309 1.15 0.556 2.256 0.791 3.389 0.227 1.129 0.413 2.264 0.581 3.401 0.337 2.274 0.565 4.565 0.637 6.864 0.084 2.298 0.01 4.603-0.262 6.885-0.136 1.141-0.343 2.272-0.593 3.389-0.26 1.116-0.608 2.209-1.006 3.273 0.486-2.225 0.686-4.476 0.725-6.722 0.03-2.247-0.113-4.489-0.353-6.717-0.266-2.226-0.609-4.442-1.059-6.637-0.223-1.098-0.479-2.188-0.743-3.274-0.262-1.08-0.55-2.18-0.866-3.212l-0.09-0.293 0.096-0.365 0.344-1.316c0.109-0.44 0.247-0.872 0.321-1.32 0.165-0.891 0.383-1.769 0.495-2.667 0.154-0.891 0.245-1.79 0.321-2.691 0.053-0.449 0.06-0.901 0.08-1.352 0.012-0.451 0.053-0.902 0.036-1.353 0-0.903-0.018-1.804-0.071-2.705-0.012-0.451-0.074-0.898-0.108-1.348-0.032-0.45-0.101-0.895-0.159-1.342-0.117-0.893-0.287-1.777-0.479-2.653-0.107-0.433-0.205-0.872-0.332-1.296-0.109-0.423-0.249-0.869-0.373-1.228l-0.146-0.421 0.116-0.371 0.57-1.829c0.183-0.611 0.325-1.231 0.49-1.846 0.162-0.616 0.261-1.241 0.395-1.862 0.121-0.622 0.186-1.248 0.293-1.872 0.062-0.625 0.13-1.252 0.162-1.878 8e-3 -0.624 0.049-1.254-3e-3 -1.874-0.011-0.626-0.098-1.239-0.178-1.856-0.121-0.604-0.209-1.223-0.4-1.809-0.155-0.6-0.385-1.173-0.63-1.738-0.254-0.563-0.558-1.101-0.895-1.621-0.351-0.51-0.728-1.004-1.149-1.466-0.427-0.455-0.882-0.891-1.38-1.279-0.492-0.396-1.022-0.749-1.571-1.074-0.547-0.329-1.122-0.618-1.715-0.872-1.184-0.496-2.431-0.906-3.729-1.105z"/><line class="st2" x1="209.46" x2="211.24" y1="21.872" y2="14.869"/><path d="m199.5 22.728c1.6-0.247 3.241-0.278 4.873-0.112 1.633 0.157 3.26 0.544 4.811 1.19 1.555 0.635 2.998 1.614 4.192 2.858 1.201 1.242 2.101 2.776 2.669 4.4 1.156 3.27 1.14 6.755 0.678 10.038-0.233 1.65-0.562 3.279-0.998 4.872-0.434 1.594-0.941 3.16-1.496 4.705l-0.06-0.984c0.218 0.447 0.36 0.801 0.507 1.198 0.148 0.388 0.27 0.776 0.391 1.166 0.229 0.781 0.431 1.569 0.558 2.367 0.148 0.795 0.243 1.596 0.306 2.398 0.074 0.802 0.083 1.605 0.091 2.408-3e-3 0.401-0.03 0.801-0.044 1.202-9e-3 0.401-0.04 0.8-0.088 1.198l-0.13 1.193-0.21 1.18c-0.118 0.791-0.352 1.555-0.528 2.33-0.088 0.388-0.229 0.761-0.341 1.142l-0.357 1.136 0.019-0.614c0.232 0.985 0.418 1.932 0.575 2.903 0.163 0.965 0.305 1.933 0.43 2.902 0.258 1.938 0.403 3.889 0.476 5.841l0.029 1.465c0.02 0.487-0.016 0.978-0.022 1.466-9e-3 0.976-0.099 1.952-0.162 2.924-0.118 0.971-0.217 1.94-0.409 2.897-0.146 0.962-0.432 1.899-0.665 2.835l0.138-1.444c0.06-0.477 0.054-0.962 0.082-1.441 0.068-0.957 0.029-1.92 0.032-2.876-0.043-0.958-0.058-1.913-0.153-2.866-0.07-0.953-0.175-1.904-0.275-2.853-0.126-0.948-0.243-1.894-0.407-2.836-0.15-0.942-0.31-1.883-0.49-2.82s-0.375-1.87-0.591-2.797c-0.215-0.923-0.445-1.862-0.683-2.749l-0.074-0.275 0.093-0.339 0.293-1.072c0.091-0.359 0.212-0.71 0.278-1.074 0.135-0.726 0.33-1.442 0.408-2.175l0.154-1.093 0.097-1.097c0.04-0.365 0.064-0.731 0.067-1.098 8e-3 -0.366 0.029-0.733 0.027-1.098-0.017-0.732-0.033-1.463-0.11-2.189-0.066-0.726-0.16-1.451-0.303-2.162-0.128-0.715-0.303-1.419-0.493-2.112-0.102-0.343-0.205-0.689-0.327-1.02-0.112-0.325-0.26-0.683-0.373-0.927l-0.236-0.51 0.176-0.474c0.551-1.485 1.055-2.985 1.485-4.499 0.427-1.515 0.815-3.037 1.076-4.575 0.263-1.536 0.426-3.085 0.407-4.618 3e-3 -1.532-0.163-3.06-0.593-4.502-0.429-1.439-1.107-2.797-2.059-3.962-0.951-1.167-2.176-2.116-3.54-2.851-1.365-0.74-2.876-1.234-4.426-1.584-1.556-0.333-3.159-0.531-4.775-0.516z"/><line class="st2" x1="203.44" x2="204.49" y1="33.519" y2="22.957"/><polyline class="st0" points="203.03 27.862 203.96 18.861 195.89 17.849"/><polyline class="st0" points="195.57 54.497 196.5 45.496 188.42 44.484"/><polyline class="st0" points="208.5 20.342 211.21 11.709 203.51 9.101"/><path class="st0" d="m215.55 16.849"/><path class="st2" d="m234.45 108.87s6.602-7.405 7.723-15.102 6.736-16.288 11.272-18.689c4.535-2.401 9.56 2.185 9.846 3.691 0.286 1.505-3.201 9.793-3.201 9.793"/><path class="st2" d="m247.65 125.66c0.058-2.562 8.757-13.701 12.863-36.842"/><path d="m213.66 103.21s-0.234 1.105-0.52 3.057c-0.3 1.949-0.603 4.752-0.731 8.121-0.081 1.684-0.051 3.509 0.025 5.434 0.134 1.921 0.299 3.946 0.67 6.007 0.14 1.039 0.423 2.066 0.644 3.119 0.156 0.514 0.313 1.031 0.471 1.551 0.148 0.535 0.334 1.048 0.545 1.545 0.75 2.029 1.797 4.042 2.791 6.058 1.009 2.016 1.964 4.085 2.795 6.171 0.339 1.074 0.788 2.101 1.017 3.188 0.135 0.536 0.27 1.069 0.403 1.598 0.097 0.537 0.167 1.076 0.25 1.607 0.204 1.059 0.217 2.119 0.248 3.153 0.085 1.035-0.095 2.04-0.146 3.019-0.033 0.985-0.279 1.913-0.436 2.82-0.087 0.452-0.172 0.897-0.255 1.333-0.11 0.43-0.247 0.844-0.365 1.253-0.245 0.816-0.48 1.598-0.703 2.341-0.294 0.717-0.572 1.398-0.834 2.037-0.263 0.638-0.509 1.234-0.737 1.786-0.269 0.533-0.515 1.022-0.738 1.464-0.909 1.755-1.428 2.757-1.428 2.757s0.455-1.032 1.251-2.839c0.2-0.45 0.421-0.948 0.661-1.491 0.199-0.559 0.413-1.164 0.643-1.81 0.227-0.645 0.469-1.332 0.724-2.056 0.196-0.741 0.401-1.52 0.616-2.333 0.104-0.407 0.226-0.818 0.322-1.243 0.069-0.431 0.139-0.869 0.21-1.315 0.127-0.893 0.342-1.807 0.343-2.768 0.019-0.956 0.168-1.936 0.052-2.936-0.071-0.999-0.07-2.025-0.286-3.047-0.086-0.513-0.158-1.032-0.256-1.55-0.135-0.511-0.27-1.026-0.407-1.544-0.229-1.047-0.68-2.048-1.019-3.088-0.833-2.033-1.793-4.053-2.82-6.065-0.978-2.04-2.005-4.048-2.776-6.197-0.215-0.529-0.4-1.058-0.54-1.587-0.156-0.535-0.312-1.067-0.466-1.596-0.216-1.079-0.494-2.134-0.626-3.195-0.376-2.106-0.463-4.173-0.541-6.121-0.018-1.952 8e-3 -3.795 0.141-5.49 0.22-3.394 0.721-6.185 1.1-8.124 0.389-1.94 0.708-3.024 0.708-3.024z"/><path d="m204.65 175.08s0.291-0.01 0.792-0.059c0.501-0.034 1.211-0.14 2.047-0.298 0.419-0.074 0.866-0.178 1.336-0.298 0.475-0.096 0.95-0.291 1.457-0.423 0.487-0.196 1.005-0.357 1.498-0.597 0.501-0.222 1.006-0.456 1.475-0.754 0.498-0.25 0.947-0.576 1.392-0.893 0.463-0.295 0.844-0.679 1.25-1.007 0.415-0.321 0.722-0.73 1.072-1.063 0.352-0.334 0.614-0.709 0.88-1.039 0.247-0.343 0.536-0.622 0.71-0.922 0.189-0.293 0.354-0.548 0.49-0.759 0.276-0.421 0.449-0.66 0.449-0.66s-0.091 0.273-0.275 0.747c-0.095 0.237-0.209 0.526-0.341 0.856-0.116 0.342-0.345 0.674-0.558 1.06-0.223 0.38-0.444 0.811-0.781 1.193-0.328 0.385-0.611 0.857-1.035 1.22-0.413 0.37-0.786 0.825-1.281 1.145-0.471 0.35-0.947 0.71-1.475 0.989-0.511 0.309-1.056 0.549-1.595 0.775-0.53 0.251-1.098 0.37-1.622 0.55-0.542 0.118-1.059 0.259-1.564 0.311-0.5 0.082-0.976 0.122-1.416 0.136-0.879 0.049-1.61-0.024-2.115-0.076-0.508-0.056-0.79-0.134-0.79-0.134z"/><path d="m226.33 86.248c-0.34 0.237-0.701 0.476-1.106 0.619-0.397 0.158-0.815 0.273-1.242 0.335-0.427 0.068-0.863 0.093-1.297 0.066-0.439-0.027-0.857-0.081-1.31-0.202l0.434-0.203c-0.135 0.374-0.293 0.688-0.47 1.015-0.182 0.317-0.376 0.63-0.602 0.919-0.448 0.578-0.946 1.129-1.533 1.576-0.289 0.227-0.591 0.441-0.905 0.632-0.316 0.19-0.633 0.377-0.974 0.518-0.33 0.165-0.682 0.27-1.026 0.397-0.347 0.116-0.705 0.192-1.058 0.288l0.369-0.408c-0.042 0.24-0.097 0.375-0.157 0.551-0.062 0.164-0.13 0.322-0.204 0.475-0.148 0.307-0.315 0.597-0.495 0.877-0.369 0.553-0.787 1.06-1.24 1.527-0.452 0.468-0.937 0.896-1.445 1.29-0.514 0.388-1.034 0.761-1.584 1.087 0.445-0.461 0.898-0.902 1.323-1.37 0.411-0.48 0.834-0.94 1.202-1.442 0.382-0.489 0.731-0.999 1.019-1.532 0.149-0.263 0.283-0.532 0.396-0.804 0.056-0.136 0.106-0.273 0.149-0.409 0.037-0.125 0.081-0.293 0.087-0.367l0.025-0.304 0.345-0.105c0.319-0.097 0.646-0.17 0.958-0.282 0.309-0.122 0.627-0.221 0.92-0.376 0.302-0.135 0.595-0.288 0.88-0.456 0.285-0.166 0.559-0.353 0.822-0.551 0.529-0.395 1.019-0.848 1.45-1.354 0.215-0.253 0.419-0.516 0.611-0.788 0.183-0.272 0.364-0.57 0.493-0.844l0.148-0.313 0.287 0.109c0.344 0.131 0.75 0.232 1.141 0.295 0.397 0.06 0.8 0.093 1.205 0.09 0.817 0 1.617-0.204 2.384-0.556z"/><linearGradient id="a" x1="33.493" x2="44.421" y1="31.539" y2="57.917" gradientTransform="matrix(1 0 0 -1 0 227.28)" gradientUnits="userSpaceOnUse"><stop stop-color="#fff" offset="0"/><stop stop-color="#EDEDED" offset="1"/></linearGradient><polygon class="st4" points="65.237 200.44 76.069 160.22 53.494 158.29 28.741 149.27 29.217 151 20.481 163.83 3.237 187.44"/><path class="st5" d="m34.077 150.66s14.939 10.114 39.145 9.163"/><path class="st2" d="m6.903 184.44c0-1 25.462-37.012 26.333-41.917 0.872-4.905 13.835-70.131 13.835-70.131"/><path class="st2" d="m45.636 72.323s-2.174-9.604 4.972-12.347"/><path class="st2" d="m55.197 69.729 25.788-12.968c1.393-0.7 3.732-0.84 5.198-0.309l17.545 6.347c1.466 0.53 3.229 2.109 3.918 3.507l2.435 4.942"/><path class="st2" d="m55.632 57.905 31.839-15.568c1.401-0.685 3.606-0.534 4.9 0.334l20.999 14.088c1.295 0.869 2.958 2.703 3.697 4.075l2.253 4.187"/><path class="st6" d="m99.446 34.335 4.714-0.352c1.555-0.116 3.706 0.713 4.781 1.842l10.795 11.343c1.075 1.129 2.433 3.236 3.018 4.681l1.557 3.846"/><path class="st2" d="m51.562 59.353 37.107-26.506c1.277-0.894 3.345-0.863 4.595 0.068l23.113 17.223c1.25 0.932 2.87 2.821 3.6 4.198l3.221 6.078"/><path class="st2" d="m72.335 81.769s5.121-0.918 8.678-6.291"/><path class="st2" d="m79.495 74.61s7.835 3.112 16.833 1.663"/><path class="st2" d="m93.25 74.814s11.896 15.439 22.091 4.013l-5.366-6.929"/><path class="st2" d="m116.16 80.468s5.51 1.321 8.657-5.776l-5.619-7.674"/><path class="st2" d="m123.48 61.486 4.32 7.974s-1.589 3.089-2.902 3.322"/><path class="st2" d="m94.403 79.939 4 9.667s3 2.167 7.5 2.167"/><line class="st2" x1="103.07" x2="113.57" y1="93.772" y2="85.772"/><path class="st2" d="m113.36 82.208s0.916 4.239 1.299 5.868"/><path d="m76.992 81.369s0.224 0.149 0.417 0.565c0.098 0.206 0.18 0.467 0.263 0.775 0.06 0.307 0.135 0.661 0.143 1.046 0.041 0.389 0.011 0.802 0 1.245-0.05 0.433-0.07 0.903-0.165 1.369-0.093 0.466-0.155 0.96-0.296 1.438-0.13 0.481-0.244 0.977-0.404 1.455-0.306 0.963-0.662 1.905-1.033 2.773-0.172 0.439-0.385 0.843-0.568 1.234-0.184 0.39-0.367 0.755-0.541 1.089-0.358 0.663-0.696 1.196-0.913 1.577-0.227 0.377-0.369 0.585-0.369 0.585s0.062-0.246 0.191-0.666c0.139-0.416 0.31-1.02 0.563-1.723 0.221-0.715 0.512-1.534 0.814-2.412 0.285-0.883 0.622-1.812 0.901-2.755 0.168-0.464 0.288-0.939 0.425-1.403 0.141-0.463 0.252-0.921 0.368-1.366 0.115-0.445 0.191-0.877 0.288-1.287 0.05-0.411 0.146-0.802 0.166-1.162 0.079-0.722 0.083-1.336-0.018-1.75-0.079-0.418-0.232-0.627-0.232-0.627z"/><path d="m73.746 92.723s0.065 0.889 0.178 2.444c0.09 1.556 0.255 3.778 0.369 6.447 0.113 2.669 0.272 5.783 0.346 9.123 0.076 3.339 0.13 6.903 0.13 10.47-0.02 1.784-0.062 3.568-0.14 5.327-0.044 0.88-0.078 1.752-0.167 2.62-0.073 0.856-0.161 1.747-0.427 2.596-0.525 1.654-1.502 3.067-2.433 4.28-0.955 1.222-1.935 2.306-2.89 3.252-1.897 1.906-3.671 3.279-4.927 4.207-0.635 0.457-1.159 0.78-1.517 0.995-0.367 0.2-0.563 0.306-0.563 0.306s0.186-0.122 0.534-0.352c0.34-0.242 0.823-0.616 1.427-1.104 1.2-0.986 2.831-2.5 4.64-4.442 0.907-0.969 1.829-2.073 2.711-3.297 0.874-1.242 1.704-2.568 2.191-4.105 0.222-0.745 0.297-1.562 0.358-2.413 0.076-0.842 0.099-1.709 0.131-2.58 0.056-1.743 0.072-3.52 0.074-5.297 0.044-3.554 0.036-7.113 3e-3 -10.449-0.015-3.337-0.029-6.452-0.041-9.122-1e-3 -2.671-2e-3 -4.897-3e-3 -6.455 0.01-1.56 0.016-2.451 0.016-2.451z"/><path d="m57.474 142.08s0.205-0.133 0.568-0.348c0.364-0.212 0.884-0.514 1.508-0.877 0.627-0.354 1.36-0.759 2.151-1.178 0.788-0.421 1.628-0.871 2.469-1.321 0.844-0.438 1.681-0.891 2.461-1.317 0.782-0.425 1.505-0.832 2.114-1.199 0.612-0.363 1.121-0.676 1.453-0.928 0.333-0.25 0.539-0.388 0.539-0.388s-0.138 0.196-0.406 0.531c-0.13 0.173-0.314 0.353-0.521 0.566-0.204 0.218-0.443 0.457-0.728 0.684-0.55 0.483-1.235 0.994-1.997 1.488-0.754 0.51-1.599 0.982-2.447 1.445-1.708 0.905-3.486 1.656-4.851 2.136-0.68 0.248-1.265 0.407-1.668 0.534-0.407 0.12-0.645 0.172-0.645 0.172z"/><path d="m96.228 84.349s0.141 0.346 0.365 0.959c0.214 0.615 0.547 1.487 0.895 2.547 0.711 2.116 1.572 4.961 2.347 7.831 0.768 2.871 1.449 5.766 1.874 7.96 0.22 1.095 0.352 2.02 0.456 2.664 0.093 0.647 0.118 1.02 0.118 1.02s-0.452-1.417-1.131-3.543c-0.67-2.126-1.509-4.975-2.282-7.842-0.767-2.869-1.467-5.757-1.933-7.939-0.24-1.089-0.399-2.008-0.53-2.646-0.122-0.642-0.179-1.011-0.179-1.011z"/><path class="st2" d="m123.66 54.1 4.726 8.88s-0.987 1.436-2.154 1.436"/><path class="st2" d="m129.11 64.596s4.191 0.719 0.826 12.649"/><path d="m130.48 77.756s0.252 0.459 0.613 1.303c0.18 0.422 0.385 0.94 0.595 1.545 0.203 0.606 0.429 1.295 0.616 2.063 0.192 0.767 0.387 1.607 0.503 2.515 0.129 0.904 0.242 1.873 0.218 2.888 0.016 0.506-0.02 1.025-0.07 1.552-0.021 0.527-0.123 1.06-0.242 1.595-0.218 1.072-0.627 2.144-1.186 3.156-0.286 0.5-0.689 0.939-1.033 1.402-0.363 0.377-0.724 0.753-1.082 1.126-0.743 0.752-1.518 1.418-2.266 2.058-1.507 1.271-3.001 2.34-4.323 3.184-2.637 1.706-4.583 2.505-4.583 2.505s1.555-1.368 3.888-3.419c1.145-1.034 2.469-2.243 3.836-3.575 0.693-0.659 1.358-1.385 2.046-2.081 0.339-0.369 0.68-0.74 1.023-1.113 0.25-0.376 0.556-0.707 0.775-1.107 0.454-0.79 0.82-1.655 1.026-2.575 0.104-0.459 0.225-0.911 0.277-1.381 0.076-0.463 0.142-0.925 0.158-1.39 0.038-0.461 0.057-0.917 0.059-1.369 0.011-0.45 0.023-0.893-3e-3 -1.325-0.026-0.864-0.083-1.688-0.148-2.449-0.141-1.523-0.324-2.8-0.465-3.695-0.137-0.897-0.232-1.413-0.232-1.413z"/><path d="m119.11 101.4s-0.25 0.953-0.851 2.575c-0.328 0.796-0.686 1.789-1.21 2.872-0.484 1.105-1.101 2.315-1.8 3.626-0.715 1.299-1.506 2.704-2.431 4.132-0.93 1.425-1.899 2.941-3.042 4.407-1.084 1.511-2.306 2.994-3.572 4.48-1.246 1.504-2.664 2.894-4.001 4.359-1.42 1.383-2.885 2.72-4.307 4.054-1.489 1.26-2.993 2.454-4.426 3.632-1.492 1.104-2.966 2.127-4.353 3.108-1.374 0.999-2.797 1.761-4.051 2.546-1.269 0.762-2.413 1.489-3.505 2.003-1.074 0.539-2.01 1.009-2.781 1.396-1.549 0.75-2.434 1.178-2.434 1.178s0.814-0.554 2.238-1.524c0.716-0.473 1.585-1.047 2.581-1.705 1.017-0.622 2.075-1.463 3.271-2.309 0.593-0.429 1.211-0.876 1.851-1.339 0.641-0.459 1.315-0.917 1.958-1.458 1.311-1.04 2.695-2.137 4.125-3.272 1.377-1.198 2.777-2.46 4.238-3.695 1.38-1.325 2.798-2.655 4.176-4.023 1.324-1.419 2.733-2.764 3.969-4.223 1.245-1.45 2.528-2.831 3.632-4.282 1.159-1.408 2.207-2.822 3.201-4.169 0.516-0.661 0.942-1.353 1.398-1.996 0.441-0.652 0.903-1.262 1.282-1.885 0.78-1.235 1.516-2.36 2.107-3.393 0.62-1.018 1.102-1.937 1.526-2.685 0.385-0.764 0.718-1.354 0.909-1.772 0.197-0.416 0.302-0.638 0.302-0.638z"/><line class="st2" x1="81.122" x2="67" y1="139.58" y2="197.26"/><path d="m108.44 73.182s-0.378 0.483-0.755 1.22c-0.18 0.37-0.345 0.811-0.374 1.26-0.025 0.224 8e-3 0.448 0.064 0.665 0.05 0.219 0.147 0.434 0.286 0.634 0.086 0.178 0.318 0.469 0.465 0.666 0.167 0.216 0.332 0.429 0.491 0.635 0.33 0.409 0.653 0.783 0.938 1.103 0.574 0.632 1.008 1.049 1.008 1.049s-0.605-0.122-1.374-0.606c-0.386-0.235-0.81-0.556-1.219-0.947-0.2-0.199-0.414-0.399-0.604-0.637-0.202-0.255-0.354-0.407-0.554-0.735-0.179-0.284-0.315-0.616-0.379-0.955-0.079-0.337-0.056-0.69 0.01-1.001 0.054-0.318 0.187-0.595 0.32-0.838 0.134-0.244 0.296-0.446 0.453-0.619 0.639-0.689 1.224-0.894 1.224-0.894z"/><path d="m117.46 67.993s-0.219 0.073-0.544 0.276c-0.315 0.202-0.754 0.559-0.923 1.116-0.091 0.273-0.112 0.587-0.067 0.923 0.029 0.334 0.155 0.688 0.292 1.048 0.136 0.373 0.333 0.774 0.478 1.196 0.153 0.408 0.309 0.822 0.465 1.236 0.303 0.805 0.671 1.559 1.217 1.942 0.272 0.193 0.595 0.301 0.931 0.347 0.335 0.037 0.678 0.047 0.996 4e-3 0.637-0.061 1.186-0.186 1.564-0.279 0.386-0.087 0.606-0.136 0.606-0.136s-0.195 0.116-0.535 0.32c-0.172 0.101-0.382 0.223-0.641 0.327-0.254 0.117-0.544 0.247-0.888 0.331-0.333 0.11-0.725 0.176-1.152 0.177-0.425-1e-3 -0.918-0.08-1.351-0.347-0.424-0.259-0.809-0.631-1.049-1.051-0.267-0.413-0.452-0.846-0.63-1.274-0.316-0.877-0.581-1.676-0.841-2.505-0.135-0.429-0.221-0.869-0.206-1.304-8e-3 -0.429 0.1-0.852 0.288-1.187 0.372-0.697 0.992-0.952 1.365-1.064 0.396-0.108 0.625-0.096 0.625-0.096z"/><path class="st7" d="m122.23 62.352s-1.033 0.85-1.843 2.169"/><path d="m123.64 70.922s0.15-0.209 0.386-0.471c0.239-0.258 0.57-0.561 0.899-0.845 0.335-0.279 0.664-0.544 0.907-0.763 0.112-0.113 0.24-0.204 0.294-0.288 0.067-0.079 0.118-0.128 0.118-0.128s0.071 0.258-0.044 0.64c-0.113 0.376-0.419 0.796-0.79 1.11-0.374 0.314-0.808 0.533-1.158 0.637-0.353 0.103-0.612 0.108-0.612 0.108z"/><path d="m80.146 80.575s0.057 0.035 0.133 0.138c0.074 0.101 0.181 0.265 0.241 0.496 0.076 0.228 0.123 0.515 0.152 0.845 0.033 0.332 0.029 0.705-6e-3 1.11-0.077 0.805-0.252 1.736-0.55 2.69-0.275 0.964-0.665 1.955-1.089 2.926-0.848 1.945-1.921 3.769-2.779 5.097-0.437 0.66-0.839 1.187-1.102 1.566-0.272 0.374-0.439 0.58-0.439 0.58s0.091-0.251 0.27-0.676c0.188-0.421 0.431-1.035 0.767-1.745 0.314-0.722 0.695-1.554 1.115-2.437 0.389-0.897 0.856-1.828 1.254-2.786 0.224-0.469 0.426-0.946 0.614-1.418 0.198-0.47 0.394-0.93 0.557-1.385 0.356-0.901 0.621-1.758 0.818-2.501 0.082-0.373 0.163-0.716 0.2-1.025 0.039-0.307 0.053-0.581 0.028-0.8-0.016-0.222-0.054-0.395-0.098-0.508-0.041-0.114-0.086-0.167-0.086-0.167z"/></svg>
