<?xml version="1.0" encoding="UTF-8"?>
<svg width="226.77px" height="226.77px" enable-background="new 0 0 226.772 226.772" version="1.1" viewBox="0 0 226.77 226.77" xmlns="http://www.w3.org/2000/svg"><rect width="226.77px" height="226.77px" fill="#fff"/><style type="text/css">.st0{fill:url(#b);} .st1{fill:url(#a);} .st2{fill:#FFFFFF;} .st3{fill:none;stroke:#000000;stroke-width:3;} .st4{fill:none;stroke:#000000;stroke-width:2;} .st5{fill:none;stroke:#000000;stroke-width:1.3;} .st6{fill:none;stroke:#000000;stroke-width:1.9;}</style><linearGradient id="b" x1="153.51" x2="164.5" y1="-211.64" y2="-185.1" gradientTransform="matrix(1 0 0 -1 0 -19.259)" gradientUnits="userSpaceOnUse"><stop stop-color="#fff" offset="0"/><stop stop-color="#F3F3F3" offset=".522"/><stop stop-color="#EDEDED" offset="1"/></linearGradient><polygon class="st0" points="184.69 209.56 190.7 154.31 161.48 150.58 145.94 139.15 142.61 146.34 136.62 158.68 119.38 182.29"/><linearGradient id="a" x1="56.913" x2="18.601" y1="148.1" y2="166.6" gradientUnits="userSpaceOnUse"><stop stop-color="#EDEDED" offset=".5792"/><stop stop-color="#fff" offset="1"/></linearGradient><polygon class="st1" points="33.743 211.76 44.6 171.56 61.981 129.48 33.438 120.5 20.128 113.39 16.167 119.67 9.497 130.7 3.883 139.15"/><rect x="315.44" y="-109.17" width=".09" height=".09"/><path d="m107 42.264c-0.18-0.27-0.18-0.9 0.271-0.9-0.36-0.36-0.721-0.9-1.261-1.17-1.8-0.72-3.69-1.26-5.489-1.8-9-2.97-18.721-0.18-28.171-0.81-0.72-0.09-1.619 0.18-2.34 0-0.45 0.359-0.63 0.899-0.81 1.35-3.78-0.18-7.83-0.271-11.61 0-3.6 0.45-6.48 2.79-9.27 4.86-1.35 0-2.521 0.45-3.87 0.72-2.61 0.72-3.42 3.87-5.67 5.22-3.06 1.17-6.84 2.16-8.37 5.58h-0.27s-0.09 0-0.09-0.09c-1.8 3.15-2.25 6.75-3.15 10.26-1.89 13.05-2.79 25.65-3.24 38.79-0.664 2.324-1.524 4.501-2.399 6.711 2.366 18.095 24.87 17.925 42.061 18.44 1.125-3.529 2.583-6.939 4.258-10.212 0.18 0 0.36-0.45 0.54-0.089 2.61-1.711 5.22-3.061 7.56-4.95 0.9-0.45 1.98-1.261 2.879-1.98h0.271c0.45-0.63 1.17-1.26 1.979-1.53 2.79-2.519 5.851-5.129 8.911-7.739l0.089-0.45c1.8-2.97 3.421-5.94 4.95-9.18 0.09-0.36 0.63-0.36 0.36-0.9 1.53-2.43 1.979-5.13 3.15-7.65 0.359-0.18 0.359-0.45 0.27-0.72 0.18-0.45 0.63-0.54 0.99-0.81 2.7-4.14 5.04-8.73 7.65-13.14 0.72-1.44 1.62-2.52 1.89-4.23h-0.09c0.631-8.101 0.452-16.112-1.979-23.581z"/><path d="m168.39 40.104c0.9-0.72 1.26 0.54 1.89 0.9 0.18 0.72 1.53 1.44 0.45 2.16 0.9 0.09 0.36 0.99 0.36 1.44-1.081 3.24-1.89 6.48-3.06 9.72-0.18 2.07-1.44 3.96-1.35 6.21-0.99 0.27-0.45 1.89-1.8 1.71v0.09c-0.9 0.09-1.26 0.81-2.25 0.81-0.54 0.09-0.9-0.27-1.17-0.54v-0.9c1.35-0.45 2.521-1.17 3.691-1.89 1.26-5.13 2.7-10.17 4.41-15.21l0.63-1.17c-0.63-0.99-1.17-2.43-2.79-2.43-2.7-0.54-5.4-2.34-8.37-1.8-0.81 0.27-1.53 0.63-2.07 1.17-2.97 0.899-3.779 4.319-5.13 6.66-0.72 1.08-1.44 2.25-1.71 3.51-0.63-0.09-0.27 0.63-0.63 0.809-0.45 1.53-1.44 2.97-1.62 4.5-1.26 2.79-2.43 5.67-3.33 8.731-0.27 0.81-1.35 1.979-0.45 2.879l-0.9 0.9c-1.35 2.61-1.8 5.85-3.24 8.55-0.27 0.09-0.54-0.18-0.63-0.359-0.18-2.25 0.9-4.59 1.35-6.75-0.36 0.27-0.9 0.45-0.99 0.99-1.44 4.41-1.53 8.91-1.53 13.59 0.899 2.16 0.63 4.68 1.62 6.84 0.36 3.15 1.17 6.3 2.07 9.36 1.71 7.829 5.22 15.029 7.29 22.769 0.54 3.691-0.54 7.92-0.36 11.25 0 0.45-0.45 0.63-0.811 0.81-1.439-1.529-0.54-3.96-0.72-5.94 0.18-1.44 0.18-2.97 0.63-4.32 0.09-0.27-0.36-0.54 0-0.72-3.06-8.91-6.66-18-8.64-27.45-1.17-3.87-1.44-8.01-2.7-11.88 0.09-2.43-0.09-4.59 0.18-7.02-0.27-0.271 0.09-0.63 0-0.9 0.09-2.7 0.99-4.95 1.261-7.47 0.81-1.35 2.52-1.8 3.779-2.7 3.42-8.82 5.58-18.18 11.16-26.101l0.09-0.629c2.07-0.63 3.78-2.16 5.94-2.52 3.24 0.091 6.39 1.441 9.45 2.341z"/><path class="st2" d="m98.812 39.564c-0.539 0.271-1.079 0.36-1.62 0.54 0.81 0.27 1.71-0.18 2.25-0.36 1.98 0.99 5.22 0.54 5.76 3.15 2.16 7.56 2.97 16.02 1.71 23.76-1.89 3.87-4.32 7.56-6.3 11.25 0-0.9 0.9-1.529 0.09-2.34-1.8-1.53-4.59-1.26-6.75-0.81-1.08 0.81-1.351 2.25-2.16 3.331l-0.09 0.09c1.35-3.511 3.24-6.84 5.22-9.99-0.18-6.84-0.899-14.22-3.06-20.52 0.09-0.359-0.18-0.45-0.27-0.81 0-0.809-0.81-1.71-0.18-2.34-0.54-2.52-3.42-1.89-5.13-2.79-0.181-0.09 0.27-0.09 0.45-0.09 0.09 0 0.09-0.18 0.09-0.18-3.96 0.09-7.65-1.53-11.79-1.35-0.271 0.09-0.09 0.36-0.181 0.54 1.081 0.81 2.521 0.54 3.69 0.99 1.17 0.27 2.7 0.27 3.78 0.72-0.54 0.45-1.261 0.81-1.8 1.08h-0.09l-0.27 0.27c0.54 0.18 1.08-0.54 1.71-0.63 1.62-1.17 3.15 0.089 4.86 0.18 0.629 0.72 3.149 0.27 2.25 1.621 2.7 7.109 3.689 15.479 4.14 23.31-1.8 3.06-3.42 6.21-5.04 9.36 0.09-0.541-0.54-0.72-0.36-1.17-0.09-0.45-0.54-0.811-1.08-1.08-2.07-0.36-4.5-0.99-6.48 0.27 0.18 0.18 0.36 0.09 0.45 0.09-1.35 0.99-2.79 2.521-3.24 4.23l-0.63-0.45c-0.81 0.45-0.181 1.44-0.09 2.07 0.9 1.71 2.97 1.89 4.41 2.25-1.529 0.45-3.239-0.36-4.229-1.709-0.271-0.541-0.36-1.17-0.99-1.351 0.181-0.27-0.27-0.54-0.45-0.54 0.63-2.79 1.89-5.49 3.15-8.1 0-1.62 1.26-2.88 0.9-4.68 0.54-0.9 1.35-2.25 0.45-3.33 0.63-7.021-1.8-13.59-4.32-19.8-0.45-0.54-0.721-0.72-1.35-0.9-4.95-1.71-10.89-2.16-16.2-1.53l-1.171 0.54c0.45 0.72 1.8 0.18 2.61 0.63 2.07-0.18 4.5-0.359 6.39 0.18 0.45-0.45 1.081-0.089 1.71-0.089 1.261 0.089 2.7 0.18 3.871 0.63-1.26 0.27-2.79 0.27-4.14 0.9-1.71 0.54-3.51 1.89-4.14 3.69l-0.629 0.72c1.26 0.27 1.8-0.99 2.789-1.351-0.18-0.45-0.539 0-0.899 0 1.26-2.7 4.5-2.7 7.02-3.419 0.72 0.18 1.62-0.27 2.25 0.18 1.89 4.95 3.96 9.9 4.5 15.39l0.629 4.5-3.419 9.45-0.45 0.18c0.45 0.181 0.09 0.54 0.09 0.81l-0.181 0.45c-0.27-1.44-1.35-0.09-2.25-0.45v0.45c-0.18-0.72-0.72 0.18-0.99-0.45-0.99-0.09-2.25-0.27-3.15 0.09 0.09-0.36-0.36-0.36-0.54-0.181-0.63 0.99-2.43 0.631-2.34 2.07-0.63 0.9-1.62 1.8-1.89 2.79-0.99 0.36-0.27 1.89-1.53 1.71-0.63 1.351 0.72 2.16 1.26 3.061 0.63 0.359 1.17 0.81 1.89 0.899l0.181 0.27c2.88 0.45 5.85-0.27 8.01-1.89l1.35-0.9c0.36 0.9 1.171 1.17 1.71 1.89 1.711 1.8 5.221 1.26 7.29 0.811 0.631-0.63 1.621-0.721 2.25-1.08-0.09 0-0.09 0-0.09 0.09l0.09 0.18c0.631-0.36 1.081-1.35 1.71-1.53l1.081 1.35c1.35 0.99 3.15 0.99 4.77 0.54 0.45 0.27 0.27 0.81 0.09 1.17-2.43 5.58-4.86 11.069-8.28 16.29-4.95 3.87-9.72 8.46-14.85 11.88l-3.69 2.7c-0.18-0.629-0.99-0.629-1.621-0.54-1.8 1.08-1.979 3.06-2.97 4.59-1.71 4.32-3.51 8.46-4.14 13.23 0.27 0.99 2.408-5.306 1.778-4.765-12.78-1.53-29.813 0.633-38.453-9.807-1.35-2.25-2.475-0.547-2.835-3.158 1.98-3.87 3.69-7.74 5.13-11.79 0.27-0.36 0.09-1.17-0.09-1.62l-0.45-0.27c0.9-14.581 1.89-29.07 4.5-43.471 1.35-0.18 1.35-1.8 1.979-2.7 1.53-4.77 7.38-3.149 9.81-6.75 1.35-1.079 1.8-2.97 3.51-3.6 1.71-0.45 3.69-0.63 5.49-0.9 0.54-0.27 0.27-0.989 0.27-1.35 1.98-1.44 4.05-2.88 6.57-3.24 0.18-0.36 0.63-0.18 0.81-0.18 1.98-0.54 4.14-0.27 6.03-0.45 2.34 0.09 4.86 0.09 6.93-0.27 0.09-0.18 0.54-0.45 0.18-0.63l4.05-0.181 0.09 0.181c0.99-0.36 1.71-0.09 2.79-0.271 3.6-0.27 7.65-0.09 11.34 0.45l2.16-0.27 0.27-0.45c2.34-0.181 4.411 0.358 6.75 0.809z"/><path d="m97.102 40.284c-0.359 0.45-1.26 0.18-1.8 0.45 0.45-0.45 1.531-0.541 1.8-0.45z"/><path d="m95.123 40.733c0 0.36-0.63 0.27-0.811 0.45 0-0.27 0.54-0.359 0.811-0.45z"/><path d="m94.043 41.363c-0.72 0-0.9 0.721-1.44 0.721-0.18-0.54 0.631-0.9 1.171-0.99l0.18-0.09c0.089-1e-3 -1e-3 0.269 0.089 0.359z"/><path d="m177.84 42.084c2.79 0.629 5.58 1.35 8.1 2.43 0.9-0.72 1.26 0.63 1.98 0.45 0.45 0.54 0 1.26 0.36 1.71 0.36 0.72-0.54 1.26-0.271 1.89-0.18 2.79-1.169 5.58-1.439 8.46-0.54 2.7-0.99 5.58-1.44 8.19-0.36 0.27-0.45 0.81-0.9 0.72-0.9-0.81-0.36-2.16-0.36-3.24 0.54-4.95 1.89-9.54 2.79-14.49 0.36-0.63-0.09-1.44-0.36-2.07-2.52-1.08-5.399-1.89-8.1-2.7-0.81 0.09-1.8-0.63-2.61 0.09l-3.331 2.16c-0.539-0.09-1.079-0.36-0.989-0.99 0.18-0.81 1.17-1.08 1.8-1.53 1.439-0.629 2.88-1.26 4.5-1.71l0.27 0.63z"/><path d="m85.672 43.794c-0.27 0.359-0.63 0.18-1.08 0.18 0.361 0.27 0.72-0.54 1.08-0.18z"/><path d="m87.023 43.704v0.18h-0.271v-0.18c0.09 0 0.271-0.091 0.271 0z"/><path d="m86.123 43.704h0.18-0.18z"/><path d="m84.233 43.974h-0.631c0.09-0.18 0.45-0.09 0.631-0.18v0.18z"/><polygon points="83.243 43.974 83.062 43.974 83.152 43.974"/><path d="m81.533 44.064c-0.271 0.63-1.26 0.9-1.53 1.62 0.27-0.451 0.72-1.531 1.53-1.62z"/><path d="m201.78 50.184 1.71 2.52c-0.09 2.25 0.09 4.68 0.27 6.75 0.54-0.72 1.351-1.71 2.34-1.62 2.43 0.629 5.22 1.62 6.03 4.319 0.81 3.24 1.08 6.84 1.35 10.26 0.36 0.27-0.09 0.721 0.09 1.081 0.36 9.27 0 17.64-0.09 27.27-1.44 4.14-3.42 8.19-4.95 12.24-0.63 0.72-0.81 1.98-1.44 2.791-2.16 5.04-4.86 9.899-7.29 14.85-0.72 0.54-0.45 1.53-1.169 1.98-1.44 2.52-2.97 4.859-4.41 7.379-0.36 0.9 0 1.89-0.63 2.7 0 1.71-0.72 3.24-0.36 4.95-0.181 0.54-0.36 1.71-1.35 1.26-1.26-1.26-0.45-3.6-0.36-5.129 0.54-1.8 0.18-4.23 1.8-5.4 6.84-11.79 12.87-23.94 17.82-36.63l0.45-1.709c0.09-12.24 1.35-25.2-1.26-36.9-0.809-1.62-1.98-3.06-4.05-2.97-0.09-0.18-0.271-0.36-0.36-0.54-0.54 0.27-1.17 0.81-1.8 0.27l-0.27-0.18c-0.36 3.6 0.27 7.65-0.629 11.43 0.539 0.36-0.09 0.81 0 1.26 0.359 1.261-0.721 2.881 0.629 3.78 0 0.54 0.72 0.99 0.18 1.53-0.18 0.54-0.72 0.27-1.08 0.09-1.53-0.99-0.63-2.7-0.9-4.229 0.271-7.29 0.36-14.76-0.54-21.78-2.97-1.53-5.669-3.42-8.91-4.141-1.08 0.36-1.89 1.261-3.06 1.44-0.27-0.09-0.72-0.18-0.81-0.54-0.45-0.81 0.63-1.17 0.99-1.53 1.169-0.09 1.62-2.16 2.789-1.08l0.181-0.09c2.969 1.347 6.209 2.608 9.089 4.318z"/><path d="m69.562 46.584c-0.27 0.09-0.539 0.269-0.81 0.359 0-0.179 0.451-0.449 0.81-0.359z"/><path d="m68.393 47.034c-0.09 0.27-0.541 0.45-0.81 0.54-0.18-0.27 0.18-0.36 0.27-0.45 0.18-0.09 0.359 0 0.54-0.09z"/><rect x="64.342" y="49.104" width=".09" height=".09"/><path d="m61.192 55.854c2.52 4.41 4.59 9.271 6.39 14.04-0.45 1.26 0.81 0.81 1.17 1.44-1.17 4.68-3.42 9.54-7.47 12.419-0.45 0.09-1.17 0.18-1.26 0.81-1.621-0.36-3.33 0-4.86-0.54-1.26-0.899-2.7-1.8-3.69-3.06-1.35-1.98-2.7-4.32-1.44-6.75 0.45-0.18 1.17 0 1.17 0.54 0 0.99 0.09 1.89 0.54 2.7 0.18 1.17 0.9 2.16 1.8 3.15 0.45-0.9 1.35-1.53 1.62-2.52 0.45-0.271 0.99-1.081 1.71-0.63 0.72-0.45 1.89-0.36 2.61 0.09 0.81-0.36 1.169 0.63 2.069 0.45 0.63 0.27 1.441 0.27 1.98 0.72 1.529-2.07 2.97-4.5 2.97-7.11-0.45-0.27 0.09-0.9-0.36-1.08-1.89-4.95-3.78-9.99-6.75-14.49-1.081-0.18-2.07 0.81-3.06 1.26-1.44 1.08-2.97 2.069-4.41 2.88 0.63-1.17 2.07-1.261 2.88-2.34l3.78-2.79c-0.271-0.45-0.63-1.17-1.17-1.17-0.63-0.181-0.9-0.54-1.71-0.271l-0.99 0.54 0.36 0.09c-1.98 0.811-3.69 2.43-4.771 4.23-0.72 1.081-1.26 2.161-1.8 3.24l-0.09 0.09c0.09-0.36 0.18-0.9 0.36-1.351 0.089 0.09 0.27 0.09 0.359-0.09-0.27-0.36 0.18-0.54 0.09-0.9 0.27-0.18 0.45-0.36 0.54-0.54 0 0.09 0.09 0 0.18 0 0.09-0.27 0.45-0.72 0-0.899 1.71-1.62 2.97-3.51 4.86-4.86l-0.18-0.18c-2.16-0.63-4.59-0.36-6.48-1.35-0.09-0.271 0.27-0.36 0.45-0.45 4.684 0.271 10.173-0.269 12.603 4.682z"/><polygon points="55.252 54.054 55.342 53.963 55.523 54.054"/><rect x="57.413" y="54.144" width=".09" height=".09"/><rect x="50.302" y="61.253" width=".09" height=".09"/><polygon points="47.873 62.604 47.783 62.244 47.873 62.514"/><path d="m180.9 65.124c0.45 0.18 0.899 0.45 0.899 0.989-0.18 0.271 0.181 0.36 0.181 0.63 0.18 1.26-0.09 2.7-0.721 3.87 0 0.9-0.359 1.71-0.809 2.431-0.36 1.53-1.441 2.79-2.52 3.959-0.271-0.27 0.359-0.45 0.18-0.72 1.98-2.61 3.24-5.58 3.42-8.91 0-0.63 0-1.621-0.81-1.891l-0.9 0.18c0.63 1.53 0.54 3.421 0.36 5.131-0.36 0.63-0.181 1.439-0.631 2.16v0.54c-0.45 0-0.629 0.72-0.899 1.169-0.27 1.261-1.17 2.161-2.25 2.881v0.09l-0.09-0.09c3.15-3.331 4.59-8.28 2.7-12.69l0.181-0.18c0.449 1.171 1.079 1e-3 1.709 0.451z"/><path d="m49.493 67.824c0.9 1.53 1.62 3.33 2.7 4.589 0.541 0.99 1.35 1.8 2.43 2.431 0.18 0.18 0.18 0.72 0 0.9-0.63 0.81-1.35-0.27-1.98-0.45-1.081-0.72-1.8-1.71-2.52-2.791-0.36 0.36-0.811 0.18-1.17 0.27-0.99 0.45-2.16 0.45-3.15 0.72 0.09-0.45 0.81-0.63 1.26-0.63 0.9-0.36 1.891-0.45 2.79-0.72 0.09-0.18-0.09-0.27-0.18-0.36-1.8 0.72-3.51-0.27-5.4 0.09-1.711-0.36-3.24-1.53-4.05-3.061v-0.63c1.8-0.18 2.61 2.43 4.5 2.34 1.62 0.9 2.339-0.36 3.96-0.27 0-0.45-0.18-1.08-0.54-1.44 0.09-0.9-0.36-2.16 0.36-2.7 0.72 0.182 0.809 1.081 0.99 1.712z"/><path d="m34.283 73.584c1.62 0.99 3.87 0.629 5.4 0.81 1.169-0.54 2.7-0.36 3.96-0.9 0.63-0.18 1.169 0 1.709-0.45l0.271 0.27c-0.54 0.63-1.44 0.54-2.25 0.72-2.07 0.45-4.14 0.9-6.39 0.72-0.9 0.18-1.71 0-2.521-0.36-0.54-0.18-0.54-0.72-0.72-1.08l0.09-0.27c0.451-0.09 0.27 0.27 0.451 0.54z"/><path class="st2" d="m99.802 75.924c-0.63 2.25 0.181 6.03-2.88 6.66-1.89-0.181-4.86 0.54-5.67-1.71 0.9-1.711 2.25-3.33 3.06-5.13 1.891-0.36 3.78-0.9 5.49 0.18z"/><path class="st2" d="m74.062 75.294c-0.089 0.18 0 0.18 0.09 0.27 0.27 0 0.72 0.18 1.081 0.271v-0.36c0.27 1.26 0.09 2.7-0.271 4.05l0.36 0.09-0.63 2.34c-1.89 0.81-3.96 1.89-6.12 0.9-0.721-0.45-1.71-0.9-2.07-1.62-0.09-0.63-0.09-0.99-0.27-1.439 1.529-1.62 2.52-4.32 5.22-4.23 0.18-0.45 0.54 0.09 0.72-0.27 0.63 0.088 1.351 0.628 1.89-2e-3z"/><path class="st2" d="m88.283 76.193c0.63 0.45 0.72 1.53 0.72 2.34 0.45 0.629-0.27 1.26-0.09 2.07 0.27 0.54-0.27 0.9-0.36 1.35-1.529 0.72-3.24 1.53-4.95 0.9-1.26-0.18-2.7-0.45-3.689-1.35-0.36-2.7 2.25-4.5 4.14-5.94 1.529 0.181 2.879 0.361 4.229 0.63z"/><rect x="177.57" y="77.094" width=".09" height=".09"/><path class="st2" d="m58.942 77.454 0.18 0.09c-0.36-0.181-0.72 0.359-1.17 0.09 0.18-0.18 0.81-0.18 0.99-0.18z"/><path class="st2" d="m61.373 78.624c0.54 0.27 1.08 0.629 1.35 1.17 0.089 1.08-1.08 1.35-1.26 2.25-0.45 0.99-1.26-0.181-1.89 0.359-1.62-0.359-3.511-0.45-4.5-1.979 0-0.45 0.45-0.99 0.9-1.08-0.36-0.36 0.27-0.63 0.45-0.99 1.62-0.09 3.419 0 4.95 0.27z"/><path class="st2" d="m91.703 78.624-0.18 0.18v-0.45c0.089 0 0.18 0.18 0.18 0.27z"/><path d="m61.462 87.624c-0.45 3.149-0.45 6.75-0.99 9.899-0.09 2.16-0.9 4.05-1.08 6.21-0.18 0.811-0.541 1.62-0.27 2.43l0.27-0.27c-1.53 2.97-4.86 4.95-7.38 7.02-0.54-0.18 0-0.45 0.09-0.72 1.171 0.45 0.631-1.17 1.8-1.17 0.45-0.81 1.35-1.62 2.25-2.07 0.72-0.54 1.17-1.35 2.07-1.89 0.27-1.35 0.45-2.79 0.9-3.87 0.18-2.16 0.54-4.319 1.08-6.3l-0.18-0.36c0.81-2.7 0.18-5.4 1.079-8.01-0.27-0.36-0.09-0.63 0-1.08-0.18-1.08-0.09-1.89-0.18-3.06 0.812 0.81 0.452 1.98 0.541 3.241z"/><path d="m28.973 109.31c0.18-0.27 0.18-0.63 0.629-0.54l0.541 1.08c4.23 1.53 8.64 2.79 13.05 3.51 2.25 0.181 4.5 0.54 6.93 0.271l-0.54 0.54c-0.54-0.54-1.44 0.27-2.16-0.271l-0.27 0.181c-5.49-0.181-11.07-1.621-16.11-3.331 0.63 1.35 2.34 1.89 3.51 2.52 2.34 0.9 4.86 1.71 7.29 1.98 0.36 0.36 0.99-0.09 1.53 0.18 1.17 0.18 2.88 0.18 4.14 0.09l-0.54 0.54c-5.4 0.18-10.35-0.81-14.94-3.15-2.07-0.539-2.07-3.149-4.23-3.6-0.269-0.18-0.45-0.54-0.809-0.63l0.09-0.45c0.539 0.539 1.168 0.81 1.889 1.08z"/><rect x="49.223" y="115.52" width=".18" height=".09"/><path class="st3" d="m17.072 130.61s7.301 36.91 42.846 33.455"/><polygon points="74.388 160.81 55.689 173.45 58.791 164.07 52.188 156.74"/><path class="st4" d="m147.3 135.61c-4.853 13.8-13.421 24.729-20.73 37.4"/><path class="st4" d="m191.12 150.07c-1.766 22.436-2.72 30.732-6.096 52.983"/><path class="st5" d="m150.99 141.83c2.843 6.242 10.022 9.284 16.794 10.376 5.592 0.902 11.335 0.863 16.914-0.115"/><path class="st5" d="m22.488 119.67c2.843 6.242 11.061 9.284 17.833 10.376 5.592 0.902 11.335 0.863 16.914-0.115"/><path class="st6" d="m61.981 129.48c-13.512 31.216-22.309 51.27-28.238 80.082"/><path class="st4" d="m21.273 111.28c-4.201 7.936-5.327 7.878-9.669 15.873"/><path class="st2" d="m32.16 123.58c1.951 1.801 3.965 3.641 6.441 4.601 1.603 0.621 3.331 0.843 5.044 0.999 3.374 0.307 6.769 0.379 10.153 0.214 0.857-0.042 1.761-0.114 2.468-0.6 0.498-0.341 0.847-0.854 1.184-1.354 1.2-1.78 2.423-3.612 2.907-5.704"/></svg>
