<?xml version="1.0" encoding="UTF-8"?>
<svg width="226.8px" height="226.8px" enable-background="new 0 0 226.8 226.8" version="1.1" viewBox="0 0 226.8 226.8" xmlns="http://www.w3.org/2000/svg"><rect width="226.8px" height="226.8px" fill="#fff"/><style type="text/css">.st0{fill:#FFFFFF;} .st1{fill:url(#a);} .st2{fill:none;stroke:#000000;stroke-width:2;stroke-linecap:round;} .st3{fill:none;stroke:#000000;}</style><rect class="st0" width="226.8" height="226.8"/><linearGradient id="a" x1="52.574" x2="59.454" y1="-572.33" y2="-562.11" gradientTransform="matrix(1 0 0 -1 0 -389.01)" gradientUnits="userSpaceOnUse"><stop stop-color="#fff" offset="0"/><stop stop-color="#EDEDED" offset="1"/></linearGradient><polygon class="st1" points="72.1 199.1 87.9 177.1 92.9 171.5 83.8 168.4 68.7 159.8 59.9 150.6 55.1 145.4 28.1 171.6"/><path class="st2" d="m36.9 165.9 32.8-36.8s21.3-37.4 25.8-43.5 21.6-29.5 23.1-30.7 26.4-0.6 28-0.6 12.2 6.1 13.7 6.1"/><path class="st2" d="M101.3,85l17-12.2c1.2-0.8,3.3-1.5,4.7-1.5l15.8,0.2c1.4,0,3.5,0.7,4.7,1.6L146,75"/><line class="st2" x1="145.3" x2="154.7" y1="74.4" y2="77.4"/><path d="m110.1 93c1.3-0.5 2.4-1.2 3.6-2 0.3-0.2 0.6-0.4 0.8-0.6 0.3-0.2 0.5-0.4 0.8-0.6 0.5-0.4 1-0.9 1.5-1.3 0.3-0.2 0.5-0.5 0.7-0.7s0.5-0.5 0.7-0.7c0.5-0.5 0.9-1 1.3-1.5s0.8-1.1 1.2-1.6c0.2-0.3 0.4-0.6 0.5-0.8l0.5-0.8 0.4-0.7 0.8 0.4c0.2 0.1 0.5 0.2 0.7 0.3 0.3 0.1 0.5 0.2 0.8 0.3 0.5 0.2 1.1 0.3 1.6 0.4 1.1 0.2 2.2 0.2 3.3 0 2.2-0.3 4.3-1.3 6.2-2.6l0.6-0.4 0.6 0.4c0.3 0.2 0.7 0.5 1.1 0.7l1.2 0.6c0.8 0.4 1.7 0.7 2.5 1 0.9 0.3 1.7 0.5 2.6 0.6 0.4 0.1 0.9 0.1 1.3 0.1s0.9 0 1.3-0.1 0.9-0.1 1.3-0.2 0.9-0.3 1.3-0.4l1.2-0.6s0.8-0.5 1.2-0.7c0.7-0.5 1.4-1.2 2.1-1.9 0.3-0.3 0.6-0.7 0.9-1.1l0.9-1.1-0.6 1.3c-0.2 0.4-0.5 0.8-0.8 1.2-0.5 0.8-1.2 1.5-1.9 2.2-0.4 0.3-0.7 0.7-1.1 0.9-0.4 0.3-0.8 0.5-1.3 0.8-0.4 0.2-0.9 0.4-1.4 0.6s-1 0.3-1.5 0.4c-2 0.4-4.1 0.3-6-0.3-1-0.3-1.9-0.6-2.8-1-0.5-0.2-0.9-0.4-1.3-0.7-0.4-0.2-0.9-0.5-1.3-0.8h1.1c-1 0.8-2.1 1.4-3.3 1.9s-2.5 0.9-3.8 1c-1.3 0.2-2.6 0.1-3.9-0.1-0.6-0.1-1.3-0.3-1.9-0.5-0.3-0.1-0.6-0.2-0.9-0.4-0.3-0.1-0.6-0.3-0.9-0.5l1.2-0.3c-0.4 0.6-0.8 1.2-1.2 1.7-0.5 0.5-0.9 1.1-1.4 1.6s-1 1-1.5 1.5c-0.3 0.2-0.5 0.5-0.8 0.7s-0.5 0.5-0.8 0.7c-0.6 0.4-1.1 0.8-1.7 1.2-0.3 0.2-0.6 0.4-0.9 0.5-0.3 0.2-0.6 0.3-0.9 0.5-0.6 0.3-1.3 0.6-1.9 0.8-0.6 0.3-1.3 0.5-2 0.7z"/><path class="st2" d="m129.3 51.2 4.4-3.2c1.3-0.9 3.5-1.4 5.1-1.1l23.3 4.4c1.5 0.3 3.4 1.6 4.2 3l4.9 8.2"/><line class="st2" x1="159.5" x2="170" y1="61.4" y2="64.9"/><line class="st2" x1="169.7" x2="179.5" y1="59.9" y2="68"/><path d="m133.3 67.5c0.6 0.5 1.4 0.7 2.1 0.9s1.4 0.4 2.2 0.5c0.4 0.1 0.7 0.1 1.1 0.1s0.7 0.1 1.1 0.1h1.1 1.1c0.4 0 0.7 0 1.1-0.1l1.1-0.1c0.7-0.1 1.5-0.1 2.2-0.2s1.5-0.2 2.2-0.3l2.2-0.4 0.3-0.1 0.3 0.2c0.4 0.2 0.8 0.4 1.2 0.5 0.4 0.2 0.8 0.3 1.2 0.5 0.8 0.3 1.7 0.5 2.6 0.7s1.7 0.3 2.6 0.4 1.8 0.1 2.6 0c1.7-0.2 3.5-0.7 4.9-1.7 0.4-0.2 0.7-0.5 1.1-0.8 0.3-0.3 0.7-0.6 1-0.9s0.6-0.7 0.9-1 0.6-0.7 0.8-1.1c-0.2 0.4-0.4 0.9-0.6 1.3s-0.5 0.8-0.7 1.2c-0.3 0.4-0.6 0.8-0.9 1.1l-1 1-1.2 0.9c-0.4 0.2-0.8 0.5-1.3 0.7-0.4 0.2-0.9 0.4-1.4 0.5s-1 0.3-1.4 0.3c-0.5 0.1-1 0.2-1.5 0.2s-1 0-1.5 0c-1 0-1.9-0.1-2.9-0.3s-1.9-0.4-2.8-0.7c-0.5-0.2-0.9-0.3-1.4-0.5s-0.9-0.4-1.4-0.6l0.6 0.1-2.3 0.3c-0.4 0.1-0.8 0.1-1.2 0.1l-1.2 0.1c-0.8 0.1-1.6 0.1-2.3 0.1-0.8 0-1.6 0-2.4-0.1s-1.6-0.1-2.3-0.3c-0.4-0.1-0.8-0.1-1.2-0.2s-0.8-0.2-1.1-0.3c-0.8-0.2-1.5-0.5-2.2-0.9-0.2-0.1-0.9-0.6-1.4-1.2z"/><path d="m136.9 68.1s0 0.3-0.2 0.7-0.5 0.9-1 1.2c-0.4 0.4-0.9 0.6-1.4 0.7-0.4 0.1-0.7 0.1-0.7 0.1s0.2-0.3 0.4-0.6c0.3-0.3 0.6-0.7 1-1s0.8-0.6 1.2-0.8 0.7-0.3 0.7-0.3z"/><path d="m165.3 71.8s1 0.1 2.5 0.1h1.2 1.3c0.4 0 0.9-0.1 1.3-0.1 0.4-0.1 0.9-0.1 1.3-0.2s0.9-0.2 1.3-0.3c0.2-0.1 0.4-0.1 0.6-0.2s0.4-0.1 0.6-0.2c0.4-0.1 0.8-0.3 1.1-0.5 0.2-0.1 0.4-0.2 0.5-0.2 0.2-0.1 0.3-0.2 0.5-0.3 0.3-0.2 0.6-0.3 0.9-0.5 0.2-0.2 0.5-0.3 0.6-0.4 0.4-0.2 0.6-0.4 0.6-0.4s-0.1 0.2-0.3 0.6c-0.1 0.2-0.2 0.4-0.4 0.7s-0.4 0.5-0.7 0.8c-0.1 0.1-0.3 0.3-0.4 0.5-0.2 0.1-0.3 0.3-0.5 0.4-0.4 0.3-0.7 0.6-1.2 0.8-0.4 0.2-0.9 0.5-1.4 0.6-0.5 0.2-1 0.3-1.5 0.4s-1.1 0.1-1.6 0.2c-0.5 0-1 0-1.5-0.1-1-0.1-1.8-0.4-2.6-0.6-1.4-0.4-2.2-1.1-2.2-1.1z"/><path d="m138.6 85s0.1 0.1 0.2 0.3 0.2 0.5 0.2 0.9 0 0.8-0.1 1.2-0.3 0.9-0.5 1.3-0.4 0.8-0.7 1.2c-0.2 0.4-0.5 0.7-0.8 0.9-0.5 0.5-0.9 0.8-0.9 0.8s0.1-0.5 0.4-1.1 0.7-1.4 1-2.2c0.2-0.4 0.4-0.8 0.5-1.2 0.2-0.4 0.3-0.7 0.4-1 0.2-0.6 0.3-1.1 0.3-1.1z"/><path class="st2" d="m135.7 86.5s3 26.2 3.6 31 7.6 7.6 9.4 7.9 9.9 0.4 9.9 0.4 20.1-12.6 26 0.5"/><path class="st2" d="m73.7 197.2 27.1-36.2s26.1-2.7 36.6-10.4c12.8-9.3 12.8-6.6 22.6-7.1 4.7-0.2 10.9-0.1 14.9-5.9s3.3-5.2 3.3-5.2"/><line class="st2" x1="184.6" x2="175.8" y1="126.3" y2="133"/><path d="m121.7 88.9c0 0.9 0 1.9-0.2 2.8-0.1 0.9-0.3 1.9-0.6 2.8-0.1 0.5-0.3 0.9-0.4 1.4l-0.5 1.3-0.6 1.3c-0.2 0.4-0.5 0.8-0.7 1.3-0.2 0.4-0.5 0.8-0.8 1.2s-0.5 0.8-0.8 1.2l-0.9 1.1c-0.3 0.4-0.7 0.7-1 1-0.4 0.3-0.7 0.7-1.1 1l-1.1 0.9c-0.4 0.3-0.8 0.6-1.2 0.8l-1.2 0.8 0.4-0.7c0 2.2-0.1 4.4-0.3 6.5-0.2 2.2-0.4 4.3-0.7 6.5-0.1 1.1-0.3 2.2-0.5 3.2-0.2 1.1-0.4 2.1-0.6 3.2-0.4 2.1-1 4.3-1.6 6.3-0.3 1-0.7 2.1-1 3.1-0.4 1-0.8 2.1-1.2 3.1s-0.9 2-1.4 3l-0.8 1.4-0.9 1.6c-0.6 0.9-1.2 1.8-1.9 2.7-0.3 0.4-0.7 0.8-1.1 1.2s-0.8 0.8-1.2 1.1c-0.8 0.7-1.7 1.4-2.6 2-0.5 0.3-0.9 0.5-1.4 0.8l-1.5 0.6 1.4-0.8c0.4-0.3 0.9-0.6 1.3-0.9 0.8-0.7 1.6-1.4 2.4-2.2 0.4-0.4 0.7-0.8 1-1.2s0.7-0.8 0.9-1.3c0.6-0.9 1.2-1.8 1.7-2.7l1.4-2.8c0.4-1 0.9-1.9 1.2-2.9 0.7-2 1.4-4 1.9-6.1 0.3-1 0.5-2.1 0.8-3.1 0.2-1 0.5-2.1 0.7-3.1 0.4-2.1 0.8-4.2 1.1-6.3s0.6-4.2 0.8-6.4c0.2-2.1 0.4-4.3 0.5-6.4v-0.5l0.4-0.3 1.2-0.7c0.4-0.2 0.8-0.4 1.2-0.7l1.1-0.8c0.4-0.2 0.7-0.6 1-0.9s0.7-0.6 1-0.9l0.9-1c0.3-0.3 0.6-0.7 0.9-1.1s0.6-0.7 0.8-1.1 0.5-0.8 0.7-1.2l0.7-1.2 0.6-1.2c0.2-0.4 0.4-0.9 0.5-1.3 0.3-0.9 0.6-1.8 0.8-2.7 0.2-0.8 0.4-1.7 0.5-2.7z"/><path d="m158.7 125.1s0 0.7 0.1 1.6c0 0.5 0.1 1 0.2 1.6l0.3 1.8c0.1 0.3 0.1 0.6 0.2 0.9l0.3 0.9c0.2 0.6 0.4 1.1 0.6 1.5l0.3 0.6c0.1 0.2 0.2 0.3 0.2 0.4 0.1 0.3 0.2 0.4 0.2 0.4s-0.1-0.1-0.4-0.3l-0.9-0.9c-0.2-0.2-0.3-0.4-0.5-0.7-0.2-0.2-0.3-0.5-0.5-0.8-0.3-0.6-0.5-1.2-0.7-1.9-0.1-0.7-0.2-1.3-0.2-2 0-0.6 0-1.2 0.1-1.7l0.7-1.4z"/><path class="st3" d="m57 146.5s5.6 12.2 31.6 24.3"/><path d="m151.7 80.1s-0.5 0.1-1.3 0.1c-0.4 0-0.9-0.1-1.3-0.2-0.5-0.1-1-0.3-1.5-0.6-0.2-0.1-0.5-0.3-0.7-0.4-0.2-0.2-0.4-0.3-0.6-0.5-0.4-0.4-0.6-0.8-0.7-1.2-0.1-0.2-0.1-0.4-0.1-0.6s0-0.3 0-0.4c0-0.2 0.1-0.4 0.1-0.4s0.1 0.1 0.1 0.3c0.1 0.2 0.2 0.5 0.4 0.8s0.5 0.6 0.8 0.8c0.2 0.1 0.4 0.3 0.5 0.4 0.2 0.1 0.4 0.2 0.6 0.4 0.4 0.2 0.9 0.4 1.3 0.6s0.8 0.3 1.2 0.5c0.7 0.2 1.2 0.4 1.2 0.4z"/><path d="m158.8 62.2s0.1 0.2 0.2 0.5 0.3 0.7 0.7 1.1c0.3 0.4 0.8 0.8 1.3 1.3 0.5 0.4 1.1 0.8 1.8 1.2 0.3 0.2 0.6 0.4 1 0.5 0.3 0.2 0.6 0.3 0.9 0.5 0.3 0.1 0.6 0.3 0.9 0.4 0.1 0 0.4 0 0.6-0.1 0.5-0.2 0.8-0.6 1.1-0.8l0.4-0.4s-0.1 0.2-0.2 0.5c-0.2 0.3-0.4 0.7-0.9 1.1-0.3 0.2-0.5 0.4-1.1 0.4-0.4-0.1-0.7-0.2-1.1-0.3-0.7-0.2-1.4-0.6-2.1-1-1.3-0.8-2.6-1.9-3.1-3-0.2-0.3-0.2-0.5-0.3-0.8-0.1-0.2-0.1-0.5-0.1-0.6v-0.5z"/><path d="m173.7 70.6s-0.4 0-0.9-0.2-1.1-0.6-1.7-1.1c-0.5-0.5-0.9-1.1-1.1-1.6s-0.3-0.9-0.3-0.9 0.3 0.2 0.7 0.5 0.9 0.8 1.4 1.2l1.3 1.3c0.3 0.6 0.6 0.8 0.6 0.8z"/></svg>
