<?xml version="1.0" encoding="UTF-8"?>
<svg width="226.77px" height="226.77px" enable-background="new 0 0 226.77 226.77" version="1.1" viewBox="0 0 226.77 226.77" xmlns="http://www.w3.org/2000/svg"><rect width="226.77px" height="226.77px" fill="#fff"/><path d="m168.51 45.337c1.892 2.095 3.344 4.673 3.962 7.553 0.313 1.438 0.342 2.964 0.059 4.454-0.276 1.493-0.903 2.927-1.771 4.173-1.746 2.511-4.259 4.287-6.861 5.595-1.307 0.659-2.646 1.238-4.014 1.713-1.367 0.477-2.752 0.885-4.144 1.245l0.529-0.284c-0.412 0.368-0.794 0.696-1.198 1.025l-1.205 0.968c-0.813 0.629-1.635 1.243-2.481 1.824-1.684 1.17-3.414 2.271-5.194 3.287-1.777 1.019-3.589 1.985-5.467 2.812-0.929 0.433-1.88 0.82-2.832 1.202-0.947 0.393-1.926 0.71-2.887 1.068l0.512-0.38c-0.636 0.824-1.276 1.575-1.951 2.326-0.67 0.747-1.356 1.479-2.057 2.195-1.394 1.44-2.881 2.789-4.428 4.062-1.544 1.278-3.189 2.435-4.903 3.468-0.865 0.506-1.751 0.971-2.656 1.392-0.91 0.412-1.847 0.758-2.793 1.051 1.783-0.87 3.433-1.942 4.991-3.125 1.564-1.177 3.016-2.487 4.424-3.837 1.398-1.363 2.723-2.796 4.007-4.264 0.639-0.736 1.261-1.486 1.867-2.248 0.597-0.762 1.204-1.544 1.753-2.302l0.177-0.244 0.335-0.136c0.917-0.372 1.849-0.702 2.752-1.108 0.907-0.394 1.813-0.792 2.698-1.236 0.897-0.417 1.763-0.899 2.647-1.344 0.866-0.479 1.743-0.938 2.589-1.454 1.711-0.997 3.374-2.078 4.988-3.222 0.806-0.574 1.603-1.159 2.391-1.753l1.16-0.914c0.381-0.304 0.765-0.63 1.107-0.929l0.243-0.213 0.286-0.071c2.674-0.661 5.299-1.492 7.762-2.611 1.229-0.564 2.405-1.221 3.485-1.991 1.092-0.753 2.077-1.638 2.886-2.655 0.797-1.023 1.413-2.178 1.771-3.431 0.364-1.254 0.432-2.596 0.308-3.937-0.123-1.346-0.489-2.68-0.969-3.979-0.496-1.292-1.107-2.562-1.878-3.745z"/><linearGradient id="a" x1="79.515" x2="88.338" y1="22.49" y2="35.59" gradientTransform="matrix(1 0 0 -1 0 226.11)" gradientUnits="userSpaceOnUse"><stop stop-color="#fff" offset="0"/><stop stop-color="#EDEDED" offset="1"/></linearGradient><polygon points="101.95 215.1 112.1 195.15 120.01 180.04 115.97 179.34 101.5 176.23 91.013 169.91 84.429 161.96 55.921 193.86" fill="url(#a)"/><path d="m85.601 164.24s10.439 15.465 33.052 15.137" fill="none" stroke="#000" stroke-linecap="round"/><path d="m103.36 16.625c1.451-0.286 2.95-0.378 4.447-0.291 1.499 0.078 3.002 0.366 4.449 0.891 1.45 0.515 2.817 1.345 3.969 2.435 1.158 1.087 2.054 2.457 2.642 3.928 1.194 2.96 1.3 6.162 0.979 9.184-0.162 1.519-0.411 3.021-0.763 4.492-0.35 1.471-0.769 2.919-1.232 4.348l-0.052-0.907c0.208 0.453 0.356 0.84 0.518 1.261 0.154 0.413 0.297 0.829 0.434 1.246 0.262 0.837 0.513 1.677 0.692 2.535 0.195 0.854 0.342 1.719 0.467 2.587 0.116 0.87 0.193 1.746 0.237 2.625 0.032 0.88 0.032 1.762-0.018 2.645-0.013 0.441-0.077 0.882-0.113 1.322-0.037 0.444-0.111 0.865-0.184 1.305-0.298 1.727-0.748 3.42-1.321 5.061l0.019-0.614c0.232 0.985 0.418 1.932 0.575 2.903 0.163 0.965 0.305 1.933 0.43 2.902 0.258 1.938 0.403 3.889 0.476 5.841l0.029 1.465c0.02 0.487-0.016 0.978-0.022 1.466-9e-3 0.976-0.099 1.952-0.162 2.924-0.118 0.971-0.217 1.94-0.409 2.897-0.146 0.962-0.432 1.899-0.665 2.835l0.138-1.444c0.06-0.477 0.054-0.962 0.082-1.441 0.068-0.957 0.029-1.92 0.032-2.876-0.043-0.958-0.058-1.913-0.153-2.866-0.07-0.953-0.175-1.904-0.275-2.852-0.126-0.948-0.243-1.894-0.407-2.836-0.15-0.942-0.31-1.883-0.49-2.82s-0.375-1.87-0.591-2.797c-0.215-0.923-0.445-1.862-0.683-2.749l-0.079-0.296 0.098-0.319c0.479-1.555 0.837-3.142 1.052-4.742 0.052-0.392 0.102-0.804 0.129-1.199 0.028-0.398 0.083-0.793 0.089-1.194 0.037-0.799 0.027-1.6-9e-3 -2.402-0.05-0.802-0.128-1.602-0.243-2.4-0.124-0.796-0.267-1.591-0.455-2.376-0.18-0.787-0.398-1.565-0.63-2.337-0.121-0.384-0.248-0.766-0.384-1.143-0.135-0.366-0.287-0.766-0.427-1.079l-0.204-0.456 0.152-0.452c0.461-1.369 0.878-2.749 1.227-4.14 0.346-1.391 0.658-2.787 0.85-4.194 0.196-1.404 0.295-2.817 0.232-4.208-0.043-1.391-0.244-2.771-0.684-4.061-0.44-1.288-1.104-2.49-2.01-3.511-0.904-1.025-2.055-1.835-3.32-2.459-1.268-0.627-2.66-1.027-4.084-1.3-1.43-0.254-2.899-0.391-4.375-0.337z"/><path d="m169.02 47.561s-0.328 0.147-0.902 0.404c-0.577 0.246-1.392 0.623-2.363 1.071-0.487 0.222-1.005 0.48-1.548 0.749-0.536 0.273-1.108 0.586-1.594 0.947-0.12 0.089-0.227 0.188-0.291 0.269-0.035 0.042-0.039 0.068-0.039 0.061-0.03 0.103-0.024 0.128-0.03 0.18-0.02 0.268 0.024 0.599 0.071 0.925 0.102 0.659 0.28 1.338 0.487 2.003 0.198 0.668 0.428 1.332 0.699 1.952 0.139 0.305 0.275 0.614 0.434 0.869 0.039 0.065 0.079 0.121 0.118 0.175 4e-3 9e-3 0.07 0.074 0.023 0.037l0.097 0.083c0.072 0.069 0.121 0.092 0.157 0.108 0.033 0.024 0.084 0.05 0.153 0.072 0.497 0.199 1.139 0.196 1.711 0.138 0.58-0.069 1.137-0.183 1.642-0.328 1.011-0.29 1.845-0.619 2.411-0.883 0.572-0.26 0.899-0.408 0.899-0.408s-0.073 0.053-0.209 0.152c-0.139 0.094-0.33 0.257-0.6 0.421-0.53 0.341-1.301 0.826-2.32 1.244-0.51 0.205-1.08 0.403-1.716 0.521-0.635 0.1-1.339 0.214-2.117-0.046-0.158-0.035-0.477-0.217-0.574-0.304l-0.101-0.079c-0.105-0.099-0.096-0.098-0.149-0.153-0.067-0.081-0.131-0.163-0.186-0.243-0.221-0.323-0.395-0.645-0.548-0.98-0.306-0.668-0.559-1.356-0.779-2.057-0.206-0.706-0.38-1.42-0.482-2.157-0.049-0.371-0.075-0.742-0.027-1.163 0.016-0.119 0.05-0.265 0.073-0.326 0.057-0.168 0.143-0.29 0.219-0.377 0.158-0.178 0.313-0.297 0.467-0.402 0.613-0.414 1.222-0.66 1.799-0.908 0.577-0.242 1.134-0.431 1.646-0.605 1.027-0.343 1.9-0.566 2.506-0.732 0.61-0.159 0.963-0.23 0.963-0.23z"/><path d="m99.232 75.494s2.231-23.175 3.578-26.524c1.347-3.348 2.203-21.815 2.203-21.815" fill="none" stroke="#000" stroke-linecap="round" stroke-width="2"/><line x1="105.78" x2="105.75" y1="26.846" y2="16.293" fill="none" stroke="#000" stroke-linecap="round" stroke-width="2"/><line x1="161.86" x2="169.75" y1="50.914" y2="48.247" fill="none" stroke="#000" stroke-linecap="round" stroke-width="2"/><path d="m107.11 106s23.547-1.921 25.654-1.308 10.372 10.25 11.775 14.769-2.771 10.83-2.771 10.83" fill="none" stroke="#000" stroke-linecap="round" stroke-width="2"/><path d="m122.58 61.268s1.527-7.929 5.869-8.779c5.009-0.981 9.125-1.092 10.626 3.538" fill="none" stroke="#000" stroke-linecap="round" stroke-width="2"/><path d="m142.98 81.541s-0.408 9.236 0.125 13.515" fill="none" stroke="#000" stroke-linecap="round" stroke-width="2"/><line x1="142" x2="140.97" y1="127.73" y2="138.9" fill="none" stroke="#000" stroke-linecap="round" stroke-width="2"/><path d="m125.11 118.2c-0.144 1.067-0.095 2.135 0.188 3.085 0.288 0.951 0.833 1.74 1.578 2.277 0.729 0.561 1.657 0.848 2.598 1.065 0.481 0.091 0.97 0.158 1.468 0.194 0.499 0.03 1.001 0.061 1.508 0.067l1.325 0.016-0.43 1.29c-0.102 0.307-0.208 0.692-0.291 1.048-0.083 0.365-0.16 0.732-0.217 1.102-0.134 0.736-0.222 1.479-0.241 2.217-9e-3 0.369-2e-3 0.736 0.02 1.101 0.03 0.364 0.059 0.724 0.111 1.083 0.111 0.713 0.308 1.404 0.605 2.047 0.146 0.321 0.298 0.645 0.499 0.938 0.182 0.307 0.412 0.581 0.645 0.854 0.245 0.264 0.501 0.52 0.783 0.757 0.279 0.237 0.581 0.458 0.899 0.657 0.634 0.402 1.329 0.742 2.057 1.021 0.727 0.29 1.489 0.511 2.266 0.729-0.4 0-0.805 0.012-1.211 1e-3 -0.401-0.042-0.811-0.059-1.215-0.123-0.803-0.144-1.623-0.323-2.396-0.669-0.387-0.165-0.77-0.36-1.136-0.584l-0.544-0.353-0.504-0.415c-0.32-0.296-0.639-0.603-0.908-0.953-0.286-0.336-0.529-0.71-0.746-1.094-0.425-0.776-0.725-1.612-0.917-2.461-0.088-0.425-0.168-0.852-0.204-1.282-0.036-0.429-0.054-0.857-0.052-1.284 5e-3 -0.853 0.079-1.698 0.222-2.529 0.075-0.415 0.169-0.825 0.273-1.234 0.109-0.415 0.219-0.798 0.378-1.242l0.895 1.306c-0.56-0.029-1.123-0.048-1.685-0.138-0.562-0.083-1.124-0.203-1.683-0.354-1.111-0.318-2.223-0.85-3.103-1.709-0.881-0.853-1.415-2.043-1.488-3.194-0.093-1.153 0.165-2.272 0.653-3.237z"/><path d="m118 123.5s0.573-0.158 1.433-0.395c0.808-0.234 1.778-0.508 2.66-0.9 0.232-0.076 0.438-0.202 0.658-0.297 0.225-0.089 0.415-0.23 0.631-0.327 0.215-0.1 0.394-0.242 0.595-0.347 0.204-0.102 0.375-0.234 0.553-0.342 0.164-0.12 0.356-0.202 0.491-0.311 0.137-0.105 0.277-0.189 0.389-0.262 0.23-0.143 0.382-0.222 0.382-0.222s-4e-3 0.16-0.046 0.436c-0.047 0.273-0.113 0.679-0.336 1.098-0.104 0.214-0.204 0.465-0.378 0.679-0.17 0.216-0.333 0.471-0.562 0.673-0.23 0.198-0.451 0.44-0.735 0.598-0.272 0.177-0.557 0.347-0.864 0.466-1.222 0.529-2.575 0.505-3.474 0.2-0.917-0.261-1.397-0.747-1.397-0.747z"/><path d="m119.65 122.07s2.085 2.212 4.43 6.119c1.179 1.945 2.404 4.315 3.472 6.97 0.514 1.334 1.039 2.722 1.432 4.18 0.425 1.447 0.74 2.954 1.009 4.469 0.228 1.523 0.375 3.061 0.403 4.582 0.011 0.761 0.024 1.516-0.049 2.261-0.026 0.372-0.051 0.742-0.076 1.109-0.049 0.365-0.097 0.728-0.146 1.088-0.178 1.44-0.519 2.809-0.92 4.074-0.173 0.641-0.425 1.238-0.653 1.817-0.217 0.584-0.487 1.123-0.751 1.636-0.476 1.051-1.094 1.915-1.576 2.706-0.554 0.749-1.04 1.394-1.467 1.901-0.901 0.979-1.423 1.516-1.423 1.516s0.4-0.636 1.1-1.749c0.333-0.563 0.69-1.273 1.13-2.058 0.357-0.833 0.829-1.73 1.183-2.776 0.198-0.514 0.398-1.049 0.542-1.625 0.158-0.57 0.364-1.144 0.475-1.764 0.129-0.614 0.291-1.235 0.361-1.89 0.089-0.651 0.213-1.308 0.249-1.991 0.03-0.339 0.059-0.681 0.089-1.026 7e-3 -0.346 0.014-0.695 0.022-1.046 0.029-0.7-7e-3 -1.411-0.021-2.127-0.047-1.432-0.213-2.884-0.447-4.325-0.234-1.442-0.51-2.883-0.897-4.277-0.368-1.397-0.769-2.768-1.217-4.077-0.468-1.301-0.91-2.569-1.404-3.744-0.484-1.178-0.968-2.285-1.431-3.301-1.881-4.048-3.419-6.652-3.419-6.652z"/><line x1="145.38" x2="144.54" y1="130.91" y2="143.04" fill="none" stroke="#000" stroke-linecap="round" stroke-width="2"/><line x1="102.17" x2="110.83" y1="90.167" y2="93.333" fill="none" stroke="#000" stroke-linecap="round" stroke-width="2"/><line x1="102.42" x2="109.99" y1="103.71" y2="105.78" fill="none" stroke="#000" stroke-linecap="round" stroke-width="2"/><path d="m142.8 144.64s-2.999 12.094-16.9 24.142l-23.309 44.513" fill="none" stroke="#000" stroke-linecap="round" stroke-width="2"/><path d="m164.83 57.994" fill="none" stroke="#000"/><path d="m109.25 18.25s0.298 0.636 0.433 1.669c0.073 0.514 0.106 1.125 0.062 1.779-0.037 0.655-0.166 1.35-0.371 2.027-0.226 0.668-0.498 1.332-0.884 1.877-0.165 0.289-0.371 0.537-0.576 0.762-0.191 0.236-0.39 0.441-0.601 0.603-0.387 0.358-0.761 0.585-1.032 0.724-0.265 0.147-0.418 0.22-0.418 0.22s0.106-0.136 0.292-0.373c0.094-0.112 0.209-0.248 0.34-0.403 0.117-0.164 0.248-0.35 0.391-0.552 0.152-0.192 0.285-0.421 0.425-0.66 0.149-0.233 0.288-0.487 0.415-0.76 0.147-0.261 0.259-0.549 0.376-0.841 0.133-0.284 0.222-0.592 0.318-0.896 0.117-0.298 0.173-0.616 0.262-0.919 0.055-0.312 0.146-0.613 0.191-0.914 0.109-0.599 0.182-1.168 0.238-1.663 0.105-0.989 0.139-1.68 0.139-1.68z"/><path d="m136.62 139.44s-0.311-0.616-0.475-1.629c-0.074-0.505-0.139-1.106-0.091-1.753 0.022-0.649 0.165-1.337 0.377-2.007 0.138-0.325 0.243-0.662 0.426-0.962 0.156-0.313 0.345-0.599 0.56-0.855 0.103-0.13 0.199-0.262 0.304-0.381 0.118-0.107 0.234-0.212 0.346-0.315 0.217-0.21 0.438-0.388 0.671-0.514 0.431-0.297 0.834-0.452 1.122-0.54 0.283-0.096 0.443-0.14 0.443-0.14s-0.126 0.114-0.345 0.313c-0.11 0.092-0.243 0.204-0.395 0.333-0.145 0.135-0.288 0.31-0.458 0.475-0.176 0.161-0.33 0.367-0.492 0.582-0.175 0.203-0.329 0.438-0.474 0.69-0.169 0.235-0.284 0.513-0.419 0.784-0.152 0.262-0.23 0.567-0.344 0.853-0.105 0.291-0.187 0.593-0.265 0.89-0.051 0.304-0.152 0.595-0.184 0.892-0.113 0.585-0.156 1.146-0.211 1.632-0.077 0.97-0.096 1.652-0.096 1.652z"/><polyline points="121.15 91.25 130.62 91.25 121.76 99.693 112.19 99.384" fill="#fff"/><polyline points="170.53 38.803 180 38.803 171.15 47.246 161.57 46.937" fill="#fff"/><polyline points="98.502 13.345 105.4 6.855 104.74 19.071 97.551 25.407" fill="#fff"/><polyline points="113.14 66.159 122.13 63.164 124.01 85.699 107.22 76.707" fill="#fff"/><path d="m107.19 92.361s21.261-1.43 29.035 0.223c7.773 1.653 14.498 21.471 14.502 25.419 4e-3 3.949-4.247 13.506-5.187 15.885" fill="none" stroke="#000" stroke-linecap="round" stroke-width="2"/><path d="m64.333 184.83s20.842-22.056 24.712-29.535c3.87-7.48-5.695-55.204-3.827-63.623s28.649-21.042 33.215-24.942 40.305-14.905 43.428-16.037" fill="none" stroke="#000" stroke-linecap="round" stroke-width="2"/><path d="m135.17 138.57s0.414 0.648 1.111 1.419c0.165 0.199 0.383 0.383 0.577 0.595 0.222 0.191 0.439 0.4 0.691 0.583 0.235 0.202 0.507 0.371 0.772 0.554 0.267 0.179 0.564 0.323 0.845 0.49 0.304 0.128 0.593 0.286 0.899 0.403 0.313 0.098 0.606 0.243 0.913 0.329 0.307 0.081 0.603 0.181 0.888 0.274 0.292 0.056 0.569 0.125 0.828 0.193 0.516 0.152 0.967 0.196 1.283 0.289 0.317 0.078 0.504 0.137 0.504 0.137s-0.176 0.068-0.493 0.161c-0.318 0.075-0.777 0.251-1.345 0.273-0.284 0.026-0.595 0.052-0.924 0.057-0.328-0.022-0.679-0.044-1.04-0.088s-0.727-0.158-1.1-0.255c-0.373-0.105-0.729-0.289-1.094-0.439-0.34-0.206-0.696-0.391-1.001-0.639-0.308-0.244-0.604-0.491-0.846-0.777-0.265-0.262-0.454-0.573-0.648-0.847-0.174-0.29-0.332-0.565-0.435-0.841-0.466-1.079-0.385-1.871-0.385-1.871z"/><path d="m104.79 28.871" fill="none" stroke="#000" stroke-linecap="round"/></svg>
