<?xml version="1.0" encoding="UTF-8"?>
<svg width="475px" height="226.8px" enable-background="new 0 0 475 226.8" version="1.1" viewBox="0 0 475 226.8" xmlns="http://www.w3.org/2000/svg"><rect width="475px" height="226.8px" fill="#fff"/><style type="text/css">.st0{fill:#FFFFFF;} .st1{fill:url(#d);} .st2{fill:none;stroke:#000000;} .st3{fill:none;stroke:#000000;stroke-width:2;stroke-linecap:round;} .st4{fill:none;stroke:#000000;stroke-width:1.6;stroke-linecap:round;} .st5{fill:none;stroke:#000000;stroke-width:0.75;stroke-linecap:round;} .st6{fill:url(#c);} .st7{fill:url(#b);} .st8{fill:none;stroke:#000000;stroke-linecap:round;} .st9{fill:url(#a);} .st10{fill:none;stroke:#000000;stroke-width:2;} .st11{fill:none;stroke:#000000;stroke-width:1.5;stroke-linecap:round;stroke-linejoin:bevel;} .st12{fill:none;stroke:#000000;stroke-width:1.5;stroke-linecap:round;} .st13{fill:none;stroke:#000000;stroke-width:1.4;stroke-linecap:round;}</style><rect class="st0" x=".3" y=".3" width="473.3" height="226.8"/><linearGradient id="d" x1="32.528" x2="42.97" y1="830.82" y2="805.61" gradientTransform="translate(0 -616)" gradientUnits="userSpaceOnUse"><stop stop-color="#fff" offset="0"/><stop stop-color="#EDEDED" offset="1"/></linearGradient><polygon class="st1" points="61.3 220.3 71.3 180.1 50.6 178.1 27.9 169.1 28.4 170.9 20.4 183.7 4.6 207.3"/><path class="st2" d="m32.8 170.5s13.7 10.1 35.8 9.2"/><path class="st3" d="m7.9 204.3c0-1 23.3-37 24.1-41.9s12.7-70.1 12.7-70.1"/><path class="st3" d="m43.4 92.2s-2-9.6 4.6-12.3"/><path class="st3" d="m52.2 89.6 23.6-13c1.3-0.7 3.4-0.8 4.8-0.3l16.1 6.3c1.3 0.5 3 2.1 3.6 3.5l2.2 4.9"/><path class="st3" d="m52.6 77.8 29.1-15.6c1.3-0.7 3.3-0.5 4.5 0.3l19.2 14.1c1.2 0.9 2.7 2.7 3.4 4.1l2.1 4.2"/><path class="st4" d="m92.7 54.2 4.3-0.4c1.4-0.1 3.4 0.7 4.4 1.8l9.9 11.3c1 1.1 2.2 3.2 2.8 4.7l1.4 3.8"/><path class="st3" d="M48.8,79.2l34-26.5c1.2-0.9,3.1-0.9,4.2,0.1L108.2,70c1.1,0.9,2.6,2.8,3.3,4.2l2.9,6.1"/><path class="st3" d="m67.8 101.6s4.7-0.9 7.9-6.3"/><path class="st3" d="m74.4 94.5s7.2 3.1 15.4 1.7"/><path class="st3" d="m87 94.7s10.9 15.4 20.2 4l-4.9-6.9"/><path class="st3" d="m108 100.3s5 1.3 7.9-5.8l-5.1-7.7"/><path class="st3" d="m114.7 81.3 4 8s-1.5 3.1-2.7 3.3"/><path class="st3" d="m88.1 99.8 3.7 9.7s2.7 2.2 6.9 2.2"/><line class="st3" x1="96" x2="105.6" y1="113.6" y2="105.6"/><path class="st3" d="m105.4 102.1s0.8 4.2 1.2 5.9"/><path d="m72.1 101.2s0.2 0.1 0.4 0.6c0.1 0.2 0.2 0.5 0.2 0.8 0.1 0.3 0.1 0.7 0.1 1v1.2c0 0.4-0.1 0.9-0.2 1.4s-0.1 1-0.3 1.4c-0.1 0.5-0.2 1-0.4 1.5-0.3 1-0.6 1.9-0.9 2.8-0.2 0.4-0.4 0.8-0.5 1.2-0.2 0.4-0.3 0.8-0.5 1.1-0.3 0.7-0.6 1.2-0.8 1.6l-0.3 0.6s0.1-0.2 0.2-0.7c0.1-0.4 0.3-1 0.5-1.7s0.5-1.5 0.7-2.4c0.3-0.9 0.6-1.8 0.8-2.8 0.2-0.5 0.3-0.9 0.4-1.4s0.2-0.9 0.3-1.4c0.1-0.4 0.2-0.9 0.3-1.3 0-0.4 0.1-0.8 0.2-1.2 0.1-0.7 0.1-1.3 0-1.8 0-0.3-0.2-0.5-0.2-0.5z"/><path d="m69.1 112.6s0.1 0.9 0.2 2.4c0.1 1.6 0.2 3.8 0.3 6.4 0.1 2.7 0.2 5.8 0.3 9.1s0.1 6.9 0.1 10.5c0 1.8-0.1 3.6-0.1 5.3 0 0.9-0.1 1.8-0.2 2.6-0.1 0.9-0.1 1.7-0.4 2.6-0.5 1.7-1.4 3.1-2.2 4.3-0.9 1.2-1.8 2.3-2.6 3.3-1.7 1.9-3.4 3.3-4.5 4.2-0.6 0.5-1.1 0.8-1.4 1s-0.5 0.3-0.5 0.3 0.2-0.1 0.5-0.4c0.3-0.2 0.8-0.6 1.3-1.1 1.1-1 2.6-2.5 4.2-4.4 0.8-1 1.7-2.1 2.5-3.3s1.6-2.6 2-4.1c0.2-0.7 0.3-1.6 0.3-2.4 0.1-0.8 0.1-1.7 0.1-2.6 0.1-1.7 0.1-3.5 0.1-5.3v-10.4-9.1-6.5-2.4z"/><path d="m54.2 161.9s0.2-0.1 0.5-0.3 0.8-0.5 1.4-0.9 1.2-0.8 2-1.2c0.7-0.4 1.5-0.9 2.3-1.3s1.5-0.9 2.3-1.3c0.7-0.4 1.4-0.8 1.9-1.2 0.6-0.4 1-0.7 1.3-0.9s0.5-0.4 0.5-0.4-0.1 0.2-0.4 0.5c-0.1 0.2-0.3 0.4-0.5 0.6s-0.4 0.5-0.7 0.7c-0.5 0.5-1.1 1-1.8 1.5s-1.5 1-2.2 1.4c-1.6 0.9-3.2 1.7-4.4 2.1l-1.5 0.5c-0.4 0.2-0.7 0.2-0.7 0.2z"/><path d="m89.7 104.2s0.1 0.3 0.3 1c0.2 0.6 0.5 1.5 0.8 2.5 0.7 2.1 1.4 5 2.1 7.8 0.7 2.9 1.3 5.8 1.7 8 0.2 1.1 0.3 2 0.4 2.7 0.1 0.6 0.1 1 0.1 1s-0.4-1.4-1-3.5-1.4-5-2.1-7.8c-0.7-2.9-1.3-5.8-1.8-7.9-0.2-1.1-0.4-2-0.5-2.6 0.1-0.8 0-1.2 0-1.2z"/><path class="st3" d="m114.8 74 4.3 8.9s-0.9 1.4-2 1.4"/><path class="st3" d="m119.8 84.4s3.8 0.7 0.8 12.6"/><path d="m121.1 97.6s0.2 0.5 0.6 1.3c0.2 0.4 0.4 0.9 0.5 1.5 0.2 0.6 0.4 1.3 0.6 2.1s0.4 1.6 0.5 2.5 0.2 1.9 0.2 2.9c0 0.5 0 1-0.1 1.6 0 0.5-0.1 1.1-0.2 1.6-0.2 1.1-0.6 2.1-1.1 3.2-0.3 0.5-0.6 0.9-0.9 1.4-0.3 0.4-0.7 0.8-1 1.1-0.7 0.8-1.4 1.4-2.1 2.1-1.4 1.3-2.7 2.3-4 3.2-2.4 1.7-4.2 2.5-4.2 2.5s1.4-1.4 3.6-3.4c1-1 2.3-2.2 3.5-3.6 0.6-0.7 1.2-1.4 1.9-2.1 0.3-0.4 0.6-0.7 0.9-1.1 0.2-0.4 0.5-0.7 0.7-1.1 0.4-0.8 0.8-1.7 0.9-2.6 0.1-0.5 0.2-0.9 0.3-1.4s0.1-0.9 0.1-1.4 0.1-0.9 0.1-1.4v-1.3c0-0.9-0.1-1.7-0.1-2.4-0.1-1.5-0.3-2.8-0.4-3.7l-0.3-1.5z"/><path d="m110.7 121.3s-0.2 1-0.8 2.6c-0.3 0.8-0.6 1.8-1.1 2.9-0.4 1.1-1 2.3-1.6 3.6-0.7 1.3-1.4 2.7-2.2 4.1-0.9 1.4-1.7 2.9-2.8 4.4-1 1.5-2.1 3-3.3 4.5-1.1 1.5-2.4 2.9-3.7 4.4-1.3 1.4-2.6 2.7-3.9 4.1-1.4 1.3-2.7 2.5-4.1 3.6s-2.7 2.1-4 3.1-2.6 1.8-3.7 2.5c-1.2 0.8-2.2 1.5-3.2 2s-1.8 1-2.5 1.4c-1.4 0.8-2.2 1.2-2.2 1.2s0.7-0.6 2-1.5c0.7-0.5 1.5-1 2.4-1.7 0.9-0.6 1.9-1.5 3-2.3 0.5-0.4 1.1-0.9 1.7-1.3 0.6-0.5 1.2-0.9 1.8-1.5 1.2-1 2.5-2.1 3.8-3.3s2.5-2.5 3.9-3.7c1.3-1.3 2.6-2.7 3.8-4 1.2-1.4 2.5-2.8 3.6-4.2s2.3-2.8 3.3-4.3c1.1-1.4 2-2.8 2.9-4.2 0.5-0.7 0.9-1.4 1.3-2 0.4-0.7 0.8-1.3 1.2-1.9 0.7-1.2 1.4-2.4 1.9-3.4 0.6-1 1-1.9 1.4-2.7s0.7-1.4 0.8-1.8l0.3-0.6z"/><line class="st3" x1="75.9" x2="63" y1="159.4" y2="217.1"/><path d="m100.9 93s-0.3 0.5-0.7 1.2c-0.2 0.4-0.3 0.8-0.3 1.3 0 0.2 0 0.4 0.1 0.7 0 0.2 0.1 0.4 0.3 0.6 0.1 0.2 0.3 0.5 0.4 0.7 0.2 0.2 0.3 0.4 0.4 0.6 0.3 0.4 0.6 0.8 0.9 1.1 0.5 0.6 0.9 1 0.9 1s-0.6-0.1-1.3-0.6c-0.4-0.2-0.7-0.6-1.1-0.9l-0.6-0.6c-0.2-0.3-0.3-0.4-0.5-0.7s-0.3-0.6-0.3-1c-0.1-0.3-0.1-0.7 0-1 0-0.3 0.2-0.6 0.3-0.8s0.3-0.4 0.4-0.6c0.6-0.8 1.1-1 1.1-1z"/><path d="m109.2 87.8s-0.2 0.1-0.5 0.3-0.7 0.6-0.8 1.1c-0.1 0.3-0.1 0.6-0.1 0.9s0.1 0.7 0.3 1c0.1 0.4 0.3 0.8 0.4 1.2s0.3 0.8 0.4 1.2c0.3 0.8 0.6 1.6 1.1 1.9 0.2 0.2 0.5 0.3 0.9 0.3h0.9c0.6-0.1 1.1-0.2 1.4-0.3 0.4-0.1 0.6-0.1 0.6-0.1s-0.2 0.1-0.5 0.3c-0.2 0.1-0.3 0.2-0.6 0.3-0.2 0.1-0.5 0.2-0.8 0.3s-0.7 0.2-1.1 0.2-0.8-0.1-1.2-0.3c-0.4-0.3-0.7-0.6-1-1.1-0.2-0.4-0.4-0.8-0.6-1.3-0.3-0.9-0.5-1.7-0.8-2.5-0.1-0.4-0.2-0.9-0.2-1.3s0.1-0.9 0.3-1.2c0.3-0.7 0.9-1 1.2-1.1 0.4 0.2 0.7 0.2 0.7 0.2z"/><path class="st5" d="m113.5 82.2s-0.9 0.8-1.7 2.2"/><path d="m114.8 90.8s0.1-0.2 0.4-0.5c0.2-0.3 0.5-0.6 0.8-0.8 0.3-0.3 0.6-0.5 0.8-0.8l0.4-0.4s0.1 0.3 0 0.6c-0.1 0.4-0.4 0.8-0.7 1.1s-0.7 0.5-1.1 0.6c-0.3 0.2-0.6 0.2-0.6 0.2z"/><path d="m75 100.4s0.1 0 0 0c0.2 0.2 0.3 0.4 0.3 0.6 0.1 0.2 0.1 0.5 0.1 0.8s0 0.7 0 1.1c-0.1 0.8-0.2 1.7-0.5 2.7s-0.6 2-1 2.9c-0.8 1.9-1.8 3.8-2.5 5.1-0.4 0.7-0.8 1.2-1 1.6s-0.4 0.6-0.4 0.6 0.1-0.3 0.2-0.7c0.2-0.4 0.4-1 0.7-1.7s0.6-1.6 1-2.4c0.4-0.9 0.8-1.8 1.1-2.8 0.2-0.5 0.4-0.9 0.6-1.4s0.4-0.9 0.5-1.4c0.3-0.9 0.6-1.8 0.7-2.5 0.1-0.4 0.1-0.7 0.2-1v-0.8c0-0.2 0-0.4-0.1-0.5 0.1-0.1 0.1-0.2 0.1-0.2z"/><linearGradient id="c" x1="-112.57" x2="-104.06" y1="-666.81" y2="-654.17" gradientTransform="matrix(.9084 -.4181 -.4181 -.9084 -4.2581 -446.17)" gradientUnits="userSpaceOnUse"><stop stop-color="#fff" offset="0"/><stop stop-color="#EDEDED" offset="1"/></linearGradient><polygon class="st6" points="196.5 207.8 194.9 185.3 195.7 169.2 192.2 171.1 178.9 172.5 167.7 171.2 156.7 167.9 147.7 207.6"/><path d="m155.1 15c1.1-0.6 2.3-1.1 3.6-1.3s2.6-0.1 3.9 0.3 2.5 1.3 3.4 2.4 1.6 2.4 2.1 3.7c1 2.7 1.4 5.6 1.5 8.4s0 5.6-0.3 8.4l-0.2-0.8c0.3 0.5 0.4 0.9 0.6 1.3s0.4 0.9 0.5 1.3l0.9 2.7c0.5 1.9 0.8 3.8 1 5.7s0.2 3.9 0.1 5.8c-0.2 1.9-0.5 3.8-1 5.7v-0.6c0.5 2.1 0.9 4.2 1.2 6.3 0.2 1.1 0.3 2.1 0.4 3.2s0.2 2.1 0.3 3.2 0.2 2.1 0.2 3.2v1.6 1.6c0 0.5 0 1.1-0.1 1.6 0 0.5-0.1 1.1-0.1 1.6-0.1 0.5-0.1 1.1-0.2 1.6l-0.3 1.6 0.1-1.6v-1.6c0-1.1-0.1-2.1-0.1-3.2l-0.1-1.6c0-0.5-0.1-1-0.2-1.6-0.1-1-0.3-2.1-0.4-3.1-0.3-2.1-0.7-4.1-1.2-6.2-0.2-1-0.4-2.1-0.7-3.1-0.2-1-0.5-2-0.8-3l-0.1-0.3 0.1-0.3c0.4-1.7 0.6-3.5 0.7-5.3s0.1-3.6-0.1-5.3c-0.2-1.8-0.5-3.5-1-5.2-0.2-0.9-0.5-1.7-0.8-2.5-0.2-0.4-0.3-0.8-0.5-1.2s-0.4-0.8-0.5-1.1v-0.3-0.4c0.1-1.3 0.3-2.7 0.3-4 0.1-1.3 0.1-2.7 0.1-4 0-2.7-0.2-5.3-1-7.8-0.4-1.2-0.9-2.4-1.6-3.4s-1.6-1.8-2.7-2.3-2.3-0.7-3.5-0.7c-1.1 0-2.3 0.2-3.5 0.6z"/><path class="st2" d="m159.6 168.5s10 7.5 33.2 2.4"/><path d="m157.2 15.7s0.2 0 0.6 0.1 1 0.2 1.6 0.5c0.3 0.2 0.7 0.4 1 0.7s0.6 0.7 0.8 1.3c0.1 0.3 0.1 0.6 0.1 0.9 0 0.2 0 0.5-0.1 0.7-0.1 0.5-0.1 1-0.2 1.5-0.4 2-1.2 3.9-2.2 5-0.5 0.6-1.1 0.8-1.5 0.9-0.2 0.1-0.4 0.1-0.5 0.1s-0.2 0-0.2 0 0.2 0 0.6-0.2 0.8-0.5 1.2-1.1c0.8-1.1 1.3-3 1.7-4.9 0.1-0.5 0.2-0.9 0.2-1.4 0-0.2 0.1-0.5 0.1-0.7s0-0.4 0-0.5c-0.1-0.7-0.7-1.3-1.2-1.7s-1-0.7-1.4-0.9l-0.6-0.3z"/><path class="st3" d="m156.1 76.5c0.2-1.7 1.1-29.3 1.1-29.3l-1.4-20"/><path class="st3" d="m164 90.8s18.5-10.2 23.3-12.8 13.7 7.8 17.3 12.1 4.3 9.1 3.3 11.7"/><path class="st3" d="m167.4 100.2s24.6-6.7 27.8-6.5 13.4 10.5 15.6 14.4c2.2 3.8-1.7 10.3-1.7 10.3"/><line class="st3" x1="209.3" x2="206.2" y1="117.8" y2="127.4"/><path class="st3" d="m205.1 73.6s3.4-9.3 13.5-5.3"/><line class="st3" x1="219" x2="216.4" y1="69.2" y2="80.8"/><path class="st3" d="m216.2 76.9s2.6 10.3 1.3 13.7c-1.2 3.4-5.6 14.5-5.6 14.5"/><path class="st3" d="m205.4 130s-1.5 13.1-10.2 25.2l1.5 48.8"/><line class="st3" x1="156.8" x2="155.7" y1="26.5" y2="15.6"/><path d="m186.8 112.2c0.5 0.2 1 0.3 1.5 0.4s1 0.2 1.5 0.2h0.7s0.5 0 0.7 0c0.5 0 1-0.1 1.4-0.1 0.2 0 0.5-0.1 0.7-0.1s0.5-0.1 0.7-0.2l0.7-0.2 0.7-0.3c0.5-0.1 0.9-0.4 1.3-0.6 0.2-0.1 0.4-0.2 0.6-0.4l0.6-0.4 1.3-0.8v1.6 0.4 0.5c0 0.3 0.1 0.6 0.1 0.9 0.1 0.6 0.3 1.1 0.5 1.6 0.3 0.5 0.6 0.8 1 1s0.9 0.3 1.4 0.3l2-0.1-1.4 1.5c-0.1 0.2-0.3 0.4-0.5 0.6s-0.3 0.5-0.4 0.7c-0.3 0.5-0.4 1-0.6 1.5-0.2 1-0.1 2.2 0.3 3.2 0.5 1 1.2 1.9 2.1 2.7 0.4 0.4 0.9 0.7 1.4 1.1 0.5 0.3 1 0.7 1.5 1-0.5-0.2-1.1-0.4-1.6-0.6s-1-0.5-1.5-0.9c-1-0.7-1.9-1.5-2.6-2.6-0.3-0.6-0.6-1.2-0.7-1.9s-0.1-1.4 0-2.1 0.3-1.4 0.6-2c0.1-0.3 0.3-0.6 0.5-0.9s0.3-0.6 0.6-0.9l0.6 1.5c-0.7 0.1-1.5 0.1-2.3-0.3-0.8-0.3-1.4-1-1.8-1.7s-0.7-1.5-0.8-2.2c-0.1-0.4-0.1-0.8-0.1-1.1v-0.6s0-0.4 0-0.6l1.3 0.9-0.7 0.4c-0.2 0.1-0.5 0.3-0.7 0.4l-1.5 0.6c-0.3 0.1-0.5 0.2-0.8 0.2l-0.8 0.1c-0.3 0.1-0.5 0.1-0.8 0.1s-0.5 0.1-0.8 0c-0.5 0-1.1 0-1.6-0.1s-1-0.2-1.5-0.3c-1-0.2-1.9-0.7-2.8-1.4z"/><path d="m191 112.2s0.2 0 0.4 0.2c0.3 0.1 0.7 0.4 1 0.7 0.2 0.2 0.4 0.4 0.6 0.7 0.2 0.2 0.4 0.6 0.5 0.9s0.3 0.7 0.4 1.1 0.1 0.8 0.2 1.2c0 0.4 0 0.8-0.1 1.2s-0.2 0.7-0.3 1.1c-0.1 0.3-0.3 0.6-0.5 0.9s-0.4 0.5-0.5 0.7c-0.3 0.4-0.7 0.7-0.9 0.9s-0.4 0.3-0.4 0.3 0-0.2 0.1-0.5 0.2-0.7 0.3-1.2c0.1-0.2 0.1-0.5 0.2-0.8 0-0.3 0.1-0.5 0.2-0.8 0-0.3 0.1-0.6 0.1-0.8v-0.8c0-0.6-0.1-1.1-0.2-1.7-0.1-0.3-0.1-0.5-0.2-0.8s-0.2-0.5-0.2-0.7c-0.2-0.4-0.3-0.8-0.5-1.1-0.2-0.5-0.2-0.7-0.2-0.7z"/><path d="m192.3 118.9 0.3 0.3c0.2 0.2 0.4 0.5 0.6 0.9 0.5 0.8 1.2 2.1 1.8 3.6 0.7 1.6 1.3 3.4 1.8 5.5s0.9 4.4 1 6.7c0.1 1.2 0.1 2.3 0 3.4 0 1.1-0.2 2.2-0.4 3.3-0.1 0.5-0.2 1.1-0.3 1.6s-0.3 1-0.4 1.5c-0.3 0.9-0.6 1.8-0.9 2.6s-0.7 1.5-1 2.1-0.6 1.1-0.9 1.5c-0.5 0.8-0.9 1.3-0.9 1.3s0.2-0.5 0.7-1.4c0.2-0.4 0.4-1 0.7-1.6 0.2-0.6 0.5-1.3 0.7-2.1 0.3-0.8 0.5-1.7 0.7-2.6s0.4-1.9 0.5-2.9 0.2-2.1 0.2-3.2v-3.3c-0.2-4.4-1.3-8.8-2.3-12-0.5-1.6-1-2.9-1.4-3.8l-0.5-1c0.1-0.3 0-0.4 0-0.4z"/><polyline class="st0" points="169.1 70.3 175.1 66.1 176.6 81.3 173.7 83.4 168.1 83.7"/><path class="st3" d="m148.8 202.6s8.5-36.8 8.5-43.1-10.3-62.2-9.7-67.1 16.4-16.1 22.1-20.1 14.8-9.9 18.4-7.5c3.7 2.3 17.1 11.4 18.3 15.2s1.4 12 1.4 12"/><linearGradient id="b" x1="250.35" x2="257.27" y1="-590.38" y2="-580.11" gradientTransform="matrix(1 0 0 -1 0 -387.89)" gradientUnits="userSpaceOnUse"><stop stop-color="#fff" offset="0"/><stop stop-color="#EDEDED" offset="1"/></linearGradient><polygon class="st7" points="271.3 216.8 281.8 197.1 287.2 187.4 279.2 185.8 264.2 179.8 255.7 172.3 251.3 165.6 227.1 191.6"/><path class="st3" d="m273.8 211.5c0.8-1.3 26-47.1 26-47.1-5.5 8.5 17.1-8.8 17.2-43.3"/><path class="st8" d="m253.1 167.6s8.7 16.6 31 19"/><path class="st3" d="m227.8 189.2s28.4-29.4 29.2-31.5 6.4-61.9 6.8-65.1"/><line class="st3" x1="270.7" x2="268.7" y1="47.1" y2="58.6"/><polyline class="st3" points="268.3 56.5 264.5 72.7 263.9 97.7"/><path d="m268.6 46.3c1.2 0 2.3 0.2 3.5 0.4 1.1 0.3 2.3 0.7 3.3 1.2 1.1 0.6 2.1 1.3 3 2.3 0.4 0.5 0.8 1 1.1 1.6s0.6 1.2 0.8 1.9c0.4 1.3 0.5 2.7 0.4 4.1 0 0.7-0.1 1.3-0.2 1.9s-0.2 1.3-0.3 1.9c-0.2 1.3-0.5 2.5-0.8 3.8-0.2 0.6-0.4 1.3-0.6 1.9-0.1 0.3-0.3 0.6-0.5 1-0.1 0.2-0.2 0.3-0.3 0.5l-0.2 0.3-0.3 0.3 0.4-1.4c0.1 0.4 0.3 0.8 0.4 1.2l0.3 1.2c0.2 0.8 0.4 1.6 0.5 2.4 0.2 1.6 0.4 3.2 0.5 4.8v2.4s0 1.6-0.1 2.4c0 0.8-0.1 1.6-0.2 2.4s-0.2 1.6-0.4 2.3v-0.4c0.2 0.8 0.3 1.5 0.4 2.2s0.2 1.5 0.3 2.2c0.1 1.5 0.2 3 0.2 4.4 0 1.5-0.2 3-0.4 4.4-0.3 1.4-0.7 2.9-1.3 4.2 0.4-1.4 0.6-2.8 0.7-4.2s0.1-2.9 0-4.3-0.3-2.8-0.5-4.3c-0.1-0.7-0.3-1.4-0.4-2.1-0.2-0.7-0.3-1.4-0.5-2v-0.3c0.1-0.8 0.1-1.5 0.2-2.3 0-0.8 0.1-1.5 0.1-2.3s0-1.5 0-2.3c0-0.4 0-0.8-0.1-1.1 0-0.4 0-0.8-0.1-1.1-0.1-1.5-0.3-3-0.5-4.5-0.1-0.7-0.3-1.5-0.4-2.2-0.1-0.4-0.2-0.7-0.3-1.1-0.1-0.3-0.2-0.7-0.3-1l0.4-1.4c-0.1 0.1 0 0 0 0l0.1-0.1c0.1-0.1 0.1-0.2 0.2-0.3 0.1-0.2 0.2-0.5 0.3-0.7 0.2-0.5 0.4-1 0.6-1.6 0.4-1.1 0.7-2.3 0.9-3.5l0.4-1.8 0.3-1.8c0.1-1.1 0.1-2.3-0.1-3.4-0.1-0.5-0.3-1.1-0.5-1.6s-0.5-1-0.9-1.4c-0.7-0.9-1.5-1.7-2.5-2.3-0.9-0.6-2-1.1-3-1.6-1.4-0.6-2.5-1-3.6-1.2z"/><path class="st3" d="m298.9 80.6s4.9 10.9 3 20.1l3.1 10"/><line class="st3" x1="273.4" x2="277.8" y1="44.2" y2="27.3"/><path class="st3" d="m296 23.5s7 7 3.3 20.7c0 0 3.4 8.7-0.7 19 0 0 2 10.5 0.4 17.4"/><path d="m281.9 9.3c1.2 0 2.4 0.2 3.6 0.6 0.6 0.2 1.2 0.4 1.7 0.7 0.6 0.3 1.1 0.6 1.6 1s1 0.8 1.5 1.2c0.5 0.5 0.9 1 1.3 1.5s0.7 1.1 1 1.7 0.6 1.2 0.8 1.9c0.2 0.6 0.4 1.3 0.5 2s0.2 1.4 0.3 2c0.1 0.7 0.1 1.4 0.1 2 0 0.7 0 1.4-0.1 2-0.1 0.7-0.1 1.4-0.2 2-0.1 0.7-0.2 1.3-0.3 2s-0.3 1.3-0.4 2l-0.5 1.9v-0.8c0.2 0.5 0.3 1 0.5 1.4 0.1 0.5 0.2 0.9 0.3 1.4 0.2 0.9 0.4 1.9 0.5 2.9 0.1 0.5 0.1 1 0.2 1.4 0 0.5 0.1 1 0.1 1.4l0.1 1.4v1.4c0 0.5 0 1-0.1 1.4 0 0.5 0 1-0.1 1.4-0.1 1-0.2 1.9-0.3 2.9s-0.3 1.9-0.5 2.8c-0.1 0.5-0.2 0.9-0.4 1.4l-0.4 1.4v-0.7c0.3 1.2 0.5 2.3 0.7 3.4s0.4 2.3 0.5 3.4c0.3 2.3 0.5 4.6 0.6 6.9s0 4.6-0.2 6.9c-0.1 1.1-0.3 2.3-0.5 3.4s-0.6 2.2-0.9 3.3c0.4-2.2 0.6-4.5 0.7-6.7 0-2.2-0.1-4.5-0.3-6.7s-0.6-4.4-1-6.6c-0.2-1.1-0.4-2.2-0.7-3.3-0.2-1.1-0.5-2.2-0.8-3.2l-0.1-0.3 0.1-0.4 0.3-1.3c0.1-0.4 0.2-0.9 0.3-1.3 0.2-0.9 0.4-1.8 0.5-2.7s0.2-1.8 0.3-2.7c0-0.4 0.1-0.9 0.1-1.4s0-0.9 0-1.4c0-0.9 0-1.8-0.1-2.7 0-0.5-0.1-0.9-0.1-1.3 0-0.5-0.1-0.9-0.1-1.3-0.1-0.9-0.3-1.8-0.4-2.7-0.1-0.4-0.2-0.9-0.3-1.3s-0.2-0.9-0.3-1.2l-0.1-0.4 0.1-0.4 0.5-1.8c0.2-0.6 0.3-1.2 0.4-1.8s0.2-1.2 0.4-1.9c0.1-0.6 0.2-1.2 0.3-1.9 0.1-0.6 0.1-1.3 0.1-1.9s0-1.3 0-1.9-0.1-1.2-0.2-1.9c-0.1-0.6-0.2-1.2-0.4-1.8-0.1-0.6-0.4-1.2-0.6-1.7-0.2-0.6-0.5-1.1-0.8-1.6s-0.7-1-1.1-1.5-0.8-0.9-1.3-1.3-0.9-0.7-1.4-1.1c-0.5-0.3-1-0.6-1.6-0.9-1.1 0-2.2-0.4-3.4-0.6z"/><line class="st3" x1="282.2" x2="283.9" y1="16.9" y2="9.9"/><path d="m273.1 17.8c1.5-0.2 3-0.3 4.5-0.1s3 0.5 4.4 1.2c1.4 0.6 2.7 1.6 3.8 2.9 1.1 1.2 1.9 2.8 2.4 4.4 1.1 3.3 1 6.8 0.6 10-0.2 1.7-0.5 3.3-0.9 4.9s-0.9 3.2-1.4 4.7l-0.1-1c0.2 0.4 0.3 0.8 0.5 1.2 0.1 0.4 0.2 0.8 0.4 1.2 0.2 0.8 0.4 1.6 0.5 2.4l0.3 2.4c0.1 0.8 0.1 1.6 0.1 2.4v1.2s0 0.8-0.1 1.2l-0.1 1.2-0.2 1.2c-0.1 0.8-0.3 1.6-0.5 2.3-0.1 0.4-0.2 0.8-0.3 1.1l-0.3 1.1v-0.6c0.2 1 0.4 1.9 0.5 2.9s0.3 1.9 0.4 2.9c0.2 1.9 0.4 3.9 0.4 5.8v1.5 1.5c0 1-0.1 2-0.1 2.9-0.1 1-0.2 1.9-0.4 2.9-0.1 1-0.4 1.9-0.6 2.8l0.1-1.4c0.1-0.5 0-1 0.1-1.4 0.1-1 0-1.9 0-2.9s-0.1-1.9-0.1-2.9c-0.1-1-0.2-1.9-0.3-2.9-0.1-0.9-0.2-1.9-0.4-2.8-0.1-0.9-0.3-1.9-0.4-2.8s-0.3-1.9-0.5-2.8-0.4-1.9-0.6-2.7l-0.1-0.3 0.1-0.3 0.3-1.1c0.1-0.4 0.2-0.7 0.3-1.1 0.1-0.7 0.3-1.4 0.4-2.2l0.2-2.2c0-0.4 0.1-0.7 0.1-1.1v-1.1c0-0.7 0-1.5-0.1-2.2s-0.1-1.5-0.3-2.2c-0.1-0.7-0.3-1.4-0.5-2.1-0.1-0.3-0.2-0.7-0.3-1s-0.2-0.7-0.3-0.9l-0.2-0.5 0.2-0.5c0.5-1.5 1-3 1.4-4.5s0.7-3 1-4.6c0.2-1.5 0.4-3.1 0.4-4.6s-0.1-3.1-0.5-4.5-1-2.8-1.9-4-2-2.1-3.2-2.9c-1.2-0.7-2.6-1.2-4.1-1.6-1.6-0.2-3.1-0.4-4.6-0.4z"/><line class="st3" x1="276.7" x2="277.7" y1="28.6" y2="18"/><polyline class="st0" points="276.4 22.9 277.2 13.9 269.8 12.9"/><polyline class="st0" points="269.5 49.6 270.4 40.6 263 39.6"/><polyline class="st0" points="281.4 15.4 283.9 6.8 276.8 4.2"/><path class="st0" d="m287.8 11.9"/><path class="st3" d="m305.1 105.9s6-7.4 7.1-15.1 6.2-16.3 10.3-18.7c4.2-2.4 8.8 2.2 9 3.7 0.3 1.5-2.9 9.8-2.9 9.8"/><path class="st3" d="m317.2 122.7c0.1-2.6 8-13.7 11.8-36.8"/><path d="m286.1 98.3s-0.2 1.1-0.5 3.1c-0.3 1.9-0.6 4.8-0.7 8.1-0.1 1.7 0 3.5 0 5.4 0.1 1.9 0.3 3.9 0.6 6 0.1 1 0.4 2.1 0.6 3.1 0.1 0.5 0.3 1 0.4 1.6 0.1 0.5 0.3 1 0.5 1.5 0.7 2 1.6 4 2.6 6.1 0.9 2 1.8 4.1 2.6 6.2 0.3 1.1 0.7 2.1 0.9 3.2 0.1 0.5 0.2 1.1 0.4 1.6 0.1 0.5 0.2 1.1 0.2 1.6 0.2 1.1 0.2 2.1 0.2 3.2 0.1 1-0.1 2-0.1 3s-0.3 1.9-0.4 2.8c-0.1 0.5-0.2 0.9-0.2 1.3-0.1 0.4-0.2 0.8-0.3 1.3-0.2 0.8-0.4 1.6-0.6 2.3-0.3 0.7-0.5 1.4-0.8 2-0.2 0.6-0.5 1.2-0.7 1.8-0.2 0.5-0.5 1-0.7 1.5-0.8 1.8-1.3 2.8-1.3 2.8s0.4-1 1.1-2.8c0.2-0.4 0.4-0.9 0.6-1.5s0.4-1.2 0.6-1.8 0.4-1.3 0.7-2.1c0.2-0.7 0.4-1.5 0.6-2.3l0.3-1.2c0.1-0.4 0.1-0.9 0.2-1.3 0.1-0.9 0.3-1.8 0.3-2.8s0.2-1.9 0-2.9c-0.1-1-0.1-2-0.3-3-0.1-0.5-0.1-1-0.2-1.6-0.1-0.5-0.2-1-0.4-1.5-0.2-1-0.6-2-0.9-3.1-0.8-2-1.6-4.1-2.6-6.1-0.9-2-1.8-4-2.5-6.2-0.2-0.5-0.4-1.1-0.5-1.6s-0.3-1.1-0.4-1.6c-0.2-1.1-0.5-2.1-0.6-3.2-0.3-2.1-0.4-4.2-0.5-6.1 0-2 0-3.8 0.1-5.5 0.2-3.4 0.7-6.2 1-8.1 0.4-2.1 0.7-3.2 0.7-3.2z"/><path d="m277.8 170.2s0.3 0 0.7-0.1c0.5 0 1.1-0.1 1.9-0.3l1.2-0.3c0.4-0.1 0.9-0.3 1.3-0.4 0.4-0.2 0.9-0.4 1.4-0.6s0.9-0.5 1.4-0.8c0.5-0.2 0.9-0.6 1.3-0.9s0.8-0.7 1.1-1c0.4-0.3 0.7-0.7 1-1.1 0.3-0.3 0.6-0.7 0.8-1s0.5-0.6 0.7-0.9 0.3-0.5 0.4-0.8c0.3-0.4 0.4-0.7 0.4-0.7s-0.1 0.3-0.3 0.7c-0.1 0.2-0.2 0.5-0.3 0.9-0.1 0.3-0.3 0.7-0.5 1.1s-0.4 0.8-0.7 1.2-0.6 0.9-0.9 1.2c-0.4 0.4-0.7 0.8-1.2 1.1-0.4 0.4-0.9 0.7-1.4 1s-1 0.5-1.5 0.8-1 0.4-1.5 0.6c-0.5 0.1-1 0.3-1.4 0.3-0.5 0.1-0.9 0.1-1.3 0.1-0.8 0-1.5 0-1.9-0.1h-0.7z"/><path d="m297.7 81.3c-0.3 0.2-0.6 0.5-1 0.6-0.4 0.2-0.7 0.3-1.1 0.3-0.4 0.1-0.8 0.1-1.2 0.1s-0.8-0.1-1.2-0.2l0.4-0.2c-0.1 0.4-0.3 0.7-0.4 1-0.2 0.3-0.3 0.6-0.6 0.9-0.4 0.6-0.9 1.1-1.4 1.6-0.3 0.2-0.5 0.4-0.8 0.6s-0.6 0.4-0.9 0.5c-0.3 0.2-0.6 0.3-0.9 0.4s-0.6 0.2-1 0.3l0.3-0.4c0 0.2-0.1 0.4-0.1 0.6-0.1 0.2-0.1 0.3-0.2 0.5-0.1 0.3-0.3 0.6-0.5 0.9-0.3 0.6-0.7 1.1-1.1 1.5-0.4 0.5-0.9 0.9-1.3 1.3-0.5 0.4-0.9 0.8-1.5 1.1 0.4-0.5 0.8-0.9 1.2-1.4s0.8-0.9 1.1-1.4 0.7-1 0.9-1.5c0.1-0.3 0.3-0.5 0.4-0.8 0.1-0.1 0.1-0.3 0.1-0.4s0.1-0.3 0.1-0.4v-0.3l0.3-0.1c0.3-0.1 0.6-0.2 0.9-0.3s0.6-0.2 0.8-0.4c0.3-0.1 0.5-0.3 0.8-0.5s0.5-0.4 0.8-0.6c0.5-0.4 0.9-0.8 1.3-1.4 0.2-0.3 0.4-0.5 0.6-0.8s0.3-0.6 0.5-0.8l0.1-0.3 0.3 0.1c0.3 0.1 0.7 0.2 1 0.3 0.4 0.1 0.7 0.1 1.1 0.1 0.8 0.1 1.5-0.1 2.2-0.5z"/><linearGradient id="a" x1="349.92" x2="359.16" y1="815.75" y2="793.43" gradientTransform="translate(0 -616)" gradientUnits="userSpaceOnUse"><stop stop-color="#fff" offset="0"/><stop stop-color="#EDEDED" offset="1"/></linearGradient><polygon class="st9" points="372.5 206.5 384.7 169.2 365.5 166.5 344.9 156.1 345.3 157.8 338 171.8 327 193.8"/><line class="st3" x1="371.7" x2="389.1" y1="208.5" y2="155.1"/><path class="st3" d="m384.2 159.1s21.1-5.6 41-33.9"/><path class="st10" d="m424 126.9s9.5-16.3 26.1-22.5c8.5-3.1 5.7-8.1 5.7-8.1"/><path class="st3" d="m329.6 188s19.5-41.2 23.4-48 11.7-40.3 13.7-47.4c2.1-7.1 2.5-7.5 7-10"/><path class="st10" d="m406.5 99s-1.9 7.1 1.4 8.9 5.4 1.7 10.3-2.7 7.3-6.5 7.3-6.5"/><path d="m388.2 95.5c0.8 0.4 1.6 0.6 2.5 0.9 0.8 0.2 1.7 0.4 2.5 0.5 0.4 0.1 0.8 0.1 1.3 0.2 0.4 0 0.8 0.1 1.3 0.1h1.3 1.3c0.4 0 0.8-0.1 1.3-0.1 0.4 0 0.8-0.1 1.3-0.1l1.3-0.2 1.2-0.3c0.8-0.1 1.6-0.4 2.5-0.7 0.4-0.1 0.8-0.3 1.2-0.4l1.5-0.5 0.3 0.1c0.7 0.2 1.5 0.4 2.2 0.5s1.5 0.3 2.3 0.4c1.5 0.2 3 0.4 4.5 0.4 3 0.1 6-0.1 8.8-1.2l0.3-0.1 0.3 0.1c1.1 0.4 2.2 0.7 3.3 1s2.2 0.6 3.3 0.8c2.2 0.4 4.5 0.8 6.7 0.6 1.1-0.1 2.2-0.3 3.1-0.8 0.4-0.3 1-0.6 1.4-0.9 0.5-0.3 0.9-0.7 1.3-1.1s0.8-0.8 1.2-1.3 0.7-1 1-1.5c0.6-1.1 1.1-2.2 1.3-3.4-0.2 2.5-1.3 5-2.9 6.9-0.4 0.5-0.8 0.9-1.3 1.3-0.5 0.5-0.9 0.8-1.5 1.1-1.1 0.7-2.3 1-3.5 1.2s-2.4 0.2-3.6 0.2c-1.2-0.1-2.4-0.2-3.5-0.4-1.2-0.2-2.3-0.4-3.5-0.7s-2.3-0.6-3.4-0.9h0.7c-1.6 0.6-3.2 1-4.8 1.2s-3.2 0.2-4.8 0.2c-1.6-0.1-3.2-0.3-4.7-0.5-0.8-0.1-1.6-0.3-2.3-0.5-0.8-0.2-1.5-0.4-2.3-0.6h0.6l-1.3 0.4c-0.4 0.1-0.9 0.3-1.3 0.4-0.9 0.2-1.7 0.4-2.6 0.5l-1.3 0.2-1.3 0.1h-1.3s-0.9 0-1.3 0l-1.3-0.1c-0.4 0-0.9-0.1-1.3-0.2s-0.9-0.2-1.3-0.3-0.9-0.2-1.3-0.3c-0.9-0.2-1.7-0.6-2.5-0.9-1.3-0.3-2.1-0.8-2.9-1.3z"/><path d="m393.7 96.1s0.1 0.5 0 1.3c-0.1 0.4-0.2 0.8-0.3 1.3-0.2 0.4-0.4 0.9-0.7 1.3s-0.6 0.8-0.9 1.1-0.7 0.6-1 0.8-0.6 0.3-0.8 0.4-0.3 0.1-0.3 0.1 0.1-0.1 0.2-0.3 0.3-0.4 0.5-0.7 0.5-0.6 0.7-0.9 0.5-0.7 0.8-1.1c0.2-0.4 0.5-0.8 0.7-1.1 0.2-0.4 0.4-0.7 0.6-1 0.3-0.8 0.5-1.2 0.5-1.2z"/><path d="m390.4 103.8c0 3.6-0.1 7.1-0.2 10.6s-0.2 7.1-0.4 10.6l-0.4 10.6-0.6 10.6c-0.1 0.5-0.2 0.9-0.3 1.3s-0.3 0.8-0.5 1.2c-0.4 0.8-0.8 1.5-1.3 2.2-1 1.4-2.2 2.5-3.5 3.4s-2.8 1.6-4.3 2.1c-0.7 0.2-1.5 0.4-2.3 0.6s-1.5 0.2-2.3 0.3c0.8-0.1 1.5-0.3 2.3-0.5 0.7-0.2 1.5-0.4 2.2-0.7 1.4-0.6 2.8-1.3 4.1-2.2s2.4-2.1 3.3-3.4c0.4-0.7 0.8-1.4 1.1-2.1 0.2-0.4 0.3-0.7 0.4-1.1s0.2-0.8 0.3-1.1l0.4-10.6 0.6-10.6c0.2-3.5 0.4-7.1 0.6-10.6s0.5-7 0.8-10.6z"/><path class="st2" d="m349.1 158.2s9.9 9.9 32.1 10.7"/><path class="st3" d="m383.5 79.2s22.6-2.1 26.9-2.4 6.4 0.8 10.3 1.7c3.9 0.8 18.8 4.8 18.8 4.8"/><line class="st3" x1="439.7" x2="449.6" y1="84.3" y2="88.7"/><path class="st3" d="m368.3 83.2s1.3-9.1 6.8-9.4"/><path class="st11" d="m373.1 71.9s2.3-5.6 6.6-5c4.4 0.7 37.5 2.8 37.5 2.8l35.2 12.2"/><path class="st3" d="m453.3 82.9 9.1 3.2s0.2 12.1-13.6 8.9"/><path class="st3" d="m421.6 67.5c2.9-0.7 38.7 14 38.7 14"/><path class="st12" d="m460 81.7 10.5 3.4s-0.6 11.3-10.9 11.1"/><path d="m411.9 113.8s0.2 0.1 0.5 0.3 0.7 0.6 1.1 1c0.4 0.5 0.9 1 1.3 1.6s0.9 1.3 1.3 2.1c0.4 0.7 0.8 1.5 1.1 2.2s0.6 1.4 0.8 2c0.4 1.2 0.6 2 0.6 2s-0.5-0.7-1.1-1.8c-0.3-0.5-0.7-1.2-1-1.8-0.4-0.7-0.8-1.4-1.1-2.1l-1.2-2.1c-0.4-0.7-0.7-1.3-1-1.8-0.8-0.9-1.3-1.6-1.3-1.6z"/><path d="m428 101s0.4 0.4 0.9 1.1 1.2 1.7 1.7 2.7c0.6 1 1.1 2.1 1.4 2.9s0.5 1.4 0.5 1.4-0.4-0.4-0.9-1.1-1.2-1.7-1.7-2.7c-0.6-1-1.1-2.1-1.4-2.9-0.4-0.8-0.5-1.4-0.5-1.4z"/><path d="m412.5 76.7s0.1 0.5 0.3 1.3c0.1 0.8 0.3 1.8 0.4 2.9 0.1 1 0.3 2.1 0.4 2.8 0.1 0.4 0.1 0.7 0.2 0.9 0 0.2 0.1 0.4 0.1 0.4s-0.1-0.1-0.2-0.3-0.3-0.5-0.5-0.8c-0.2-0.4-0.3-0.8-0.5-1.3-0.1-0.5-0.2-1-0.3-1.6-0.1-1.1-0.1-2.2 0-3-0.1-0.7 0.1-1.3 0.1-1.3z"/><path class="st8" d="m415.3 78.2s-0.4 5.1-0.6 8.1"/><path d="m439.6 85.7s0.3 0.8 0.9 2 1.4 2.7 2.6 3.7c0.3 0.3 0.6 0.5 0.9 0.7s0.6 0.3 0.9 0.3c0.6 0 1.1-0.4 1.6-0.8s0.9-0.8 1.2-1 0.5-0.3 0.5-0.3-0.1 0.2-0.3 0.5-0.5 0.8-0.9 1.3c-0.2 0.3-0.5 0.5-0.8 0.8s-0.7 0.5-1.2 0.5-1-0.2-1.3-0.4c-0.4-0.2-0.8-0.5-1.1-0.8-1.3-1.2-2.1-3-2.4-4.3-0.6-1.3-0.6-2.2-0.6-2.2z"/><path d="m450.8 84.4 1.5 1.5c0.5 0.4 1 1 1.6 1.5s1.2 1 1.9 1.4c0.3 0.2 0.7 0.3 1 0.3s0.6 0 0.9-0.2c0.7-0.4 1.3-0.8 1.9-1.1 1.1-0.6 1.9-0.9 1.9-0.9s-0.6 0.6-1.6 1.4c-0.5 0.4-1.1 0.9-1.7 1.3-0.4 0.3-0.9 0.5-1.4 0.4-0.5 0-0.9-0.2-1.3-0.4-0.8-0.4-1.5-1-2-1.6-0.6-0.6-1-1.2-1.4-1.8-0.9-1-1.3-1.8-1.3-1.8z"/><path class="st8" d="m464.5 87.7c1.5 0.2 2.7-2.4 3.9-3.3"/><path d="m384.2 99.2s0.5 0.2 1.2 0.4c0.7 0.3 1.6 0.6 2.5 1s1.8 0.8 2.5 1c0.3 0.2 0.6 0.3 0.8 0.4s0.3 0.2 0.3 0.2-0.5 0.1-1.3 0c-0.7-0.1-1.7-0.3-2.7-0.7-0.9-0.4-1.8-0.9-2.4-1.4-0.6-0.4-0.9-0.9-0.9-0.9z"/><path class="st13" d="m394.6 66.3c12.1-0.5 30.5 1.7 30.5 1.7"/></svg>
