<?xml version="1.0" encoding="UTF-8"?>
<svg width="422.04px" height="226.77px" enable-background="new 0 0 422.038 226.772" version="1.1" viewBox="0 0 422.04 226.77" xmlns="http://www.w3.org/2000/svg"><rect width="422.04px" height="226.77px" fill="#fff"/><style type="text/css">.st0{fill:url(#a);} .st1{fill:none;stroke:#000000;stroke-width:0.5;stroke-linecap:round;} .st2{fill:none;stroke:#000000;stroke-width:2;stroke-linecap:round;} .st3{fill:none;stroke:#000000;stroke-linecap:round;} .st4{fill:url(#SVGID_00000010278759093040980610000011160978632534466178_);} .st5{fill:none;stroke:#000000;} .st6{fill:#FFFFFF;} .st7{fill:url(#SVGID_00000080168019993822358000000010010128761774587816_);} .st8{fill:url(#SVGID_00000024704342757573486140000011608637079506331282_);}</style><linearGradient id="a" x1="232.09" x2="240.22" y1="236.67" y2="224.6" gradientTransform="matrix(.9829 -.1842 .1842 .9829 -34.545 18.063)" gradientUnits="userSpaceOnUse"><stop stop-color="#fff" offset="0"/><stop stop-color="#EDEDED" offset="1"/></linearGradient><polygon class="st0" points="263.14 221.24 267.46 190.87 270.06 179.79 259.97 178.35 244.27 173.5 234.12 167.4 228.72 162.24 208.58 200.71"/><path d="m245.95 17.601s0.052 0.376 0.144 1.035c0.077 0.659 0.227 1.596 0.388 2.713 0.09 0.557 0.186 1.16 0.308 1.784 0.063 0.311 0.133 0.629 0.222 0.938 0.082 0.295 0.198 0.644 0.311 0.787l0.016 0.021c-0.04-0.039 0.02 0.016 0.02 0.016 0.034 0.032 0.065 0.059 0.077 0.06l0.146 0.082c0.125 0.061 0.267 0.115 0.416 0.163 0.299 0.094 0.62 0.177 0.949 0.242 0.659 0.135 1.348 0.201 2.035 0.266 0.687 0.059 1.382 0.074 2.038 0.038 0.324-0.021 0.654-0.052 0.838-0.163 0.172-0.095 0.39-0.348 0.549-0.602 0.335-0.528 0.565-1.149 0.735-1.748 0.173-0.601 0.294-1.191 0.373-1.743 0.171-1.103 0.216-2.049 0.221-2.71 0.013-0.662 5e-3 -1.044 5e-3 -1.044s0.079 0.371 0.167 1.033c0.076 0.662 0.168 1.619 0.118 2.779-0.075 1.154-0.22 2.531-0.932 3.901-0.201 0.338-0.412 0.671-0.833 0.948-0.419 0.244-0.802 0.271-1.165 0.324-0.733 0.08-1.456 0.057-2.181 0.015-0.724-0.041-1.442-0.152-2.151-0.302-0.354-0.081-0.707-0.165-1.056-0.302-0.175-0.068-0.35-0.145-0.527-0.244-0.091-0.056-0.172-0.1-0.286-0.194-0.061-0.047-0.091-0.078-0.118-0.107l-0.071-0.075-0.062-0.084c-0.275-0.438-0.329-0.783-0.418-1.142-0.072-0.353-0.119-0.693-0.16-1.024-0.084-0.66-0.122-1.281-0.146-1.855-0.089-2.286 0.03-3.806 0.03-3.806z"/><path d="m272.43 15.146s-0.181 1.538-0.453 3.845c-0.056 0.573-0.118 1.195-0.182 1.852-0.053 0.649-0.094 1.356-0.051 2.009 0.034 0.371 0.067 0.46 0.273 0.606 0.222 0.17 0.53 0.311 0.837 0.446 0.624 0.265 1.308 0.466 1.994 0.639 0.685 0.183 1.383 0.334 2.068 0.441 0.341 0.054 0.682 0.108 1 0.127 0.148 0.011 0.324 7e-3 0.385-0.018 0.103-0.027 0.224-0.09 0.337-0.17 0.465-0.332 0.858-0.883 1.17-1.417 0.312-0.544 0.577-1.092 0.789-1.615 0.429-1.046 0.721-1.963 0.899-2.611 0.181-0.651 0.284-1.023 0.284-1.023s-0.021 0.389-0.108 1.065c-0.098 0.673-0.242 1.642-0.574 2.772-0.174 0.562-0.376 1.172-0.68 1.785-0.311 0.606-0.661 1.26-1.303 1.782-0.164 0.126-0.348 0.242-0.576 0.318-0.269 0.084-0.446 0.076-0.645 0.081-0.379-4e-3 -0.74-0.033-1.104-0.082-0.725-0.1-1.448-0.243-2.168-0.421-0.717-0.191-1.428-0.415-2.123-0.723-0.349-0.157-0.688-0.336-1.024-0.616-0.09-0.08-0.156-0.133-0.261-0.267-0.127-0.182-0.093-0.106-0.201-0.356-0.091-0.274-0.102-0.481-0.111-0.684-0.023-0.799 0.095-1.494 0.189-2.165 0.099-0.667 0.231-1.285 0.352-1.856 0.245-1.139 0.51-2.071 0.683-2.725 0.182-0.652 0.304-1.019 0.304-1.019z"/><path d="m300.41 32.13s-0.456 1.365-1.14 3.412c-0.321 1.017-0.75 2.225-0.99 3.485-0.029 0.154-0.046 0.308-0.049 0.439-6e-3 0.053 0.014 0.147 2e-3 0.107 0.013 0.036 0.029 0.093 0.04 0.111 0.011 0.01 0.012 0.012 0.023 0.031 0.122 0.193 0.369 0.403 0.613 0.593 0.505 0.385 1.09 0.718 1.682 1.022 0.59 0.313 1.2 0.596 1.805 0.832 0.299 0.118 0.606 0.237 0.883 0.304l0.097 0.021c-0.019 3e-3 0.064 7e-3 0.091 0.01 0.034-1e-3 0.069-3e-3 0.132-0.014 0.109-0.022 0.23-0.072 0.349-0.137 0.483-0.264 0.924-0.708 1.297-1.148 0.374-0.447 0.708-0.902 0.994-1.341 0.576-0.876 1.007-1.655 1.288-2.211 0.286-0.557 0.448-0.875 0.448-0.875s-0.094 0.35-0.299 0.949c-0.215 0.593-0.525 1.447-1.024 2.415-0.255 0.48-0.545 0.997-0.916 1.505-0.377 0.502-0.796 1.03-1.425 1.43-0.16 0.096-0.335 0.183-0.54 0.236-0.095 0.025-0.22 0.045-0.349 0.044-0.053-4e-3 -0.051 2e-3 -0.151-0.01l-0.144-0.022c-0.364-0.068-0.686-0.172-1.015-0.285-0.648-0.239-1.286-0.52-1.913-0.837-0.621-0.331-1.229-0.691-1.803-1.143-0.284-0.237-0.561-0.481-0.795-0.878-0.031-0.055-0.064-0.132-0.091-0.199-0.022-0.061-0.027-0.089-0.041-0.134-0.044-0.211-0.034-0.29-0.031-0.41 0.015-0.213 0.048-0.399 0.087-0.576 0.161-0.704 0.397-1.316 0.615-1.903 0.22-0.584 0.459-1.119 0.675-1.614 0.892-1.964 1.595-3.209 1.595-3.209z"/><path class="st1" d="m265.96 49.369s6.153-0.816 10.068 2.825"/><path class="st1" d="m265.6 52.009s4.352 2.12 10.286 1.908"/><path class="st1" d="m285.4 63.377s6.15 0.845 9.1 5.413"/><path class="st1" d="m284.44 65.839s3.725 3.211 9.523 4.583"/><path class="st1" d="m243.06 48.4s5.826-2.272 10.403 0.338"/><path class="st1" d="m243.26 51.059s4.684 1.022 10.424-0.608"/><path d="m273.16 14.309s0.136-5e-3 0.362-0.04c0.218-0.022 0.538-0.119 0.921-0.197 0.765-0.176 1.828-0.351 2.908-0.267 0.536 0.051 1.074 0.139 1.559 0.298 0.487 0.147 0.925 0.346 1.278 0.549 0.359 0.196 0.63 0.408 0.817 0.557 0.188 0.148 0.288 0.24 0.288 0.24s-0.132-0.035-0.351-0.111c-0.213-0.09-0.531-0.175-0.902-0.286-0.372-0.106-0.805-0.218-1.272-0.306-0.23-0.061-0.478-0.067-0.72-0.118-0.246-0.031-0.497-0.06-0.748-0.075-1.006-0.084-2.03-0.042-2.822-0.053-0.397-6e-3 -0.729-0.042-0.968-0.085-0.227-0.046-0.35-0.106-0.35-0.106z"/><path d="m301.45 31.157s0.132 0.038 0.357 0.074c0.215 0.047 0.548 0.053 0.934 0.097 0.779 0.069 1.845 0.232 2.856 0.647 0.5 0.216 0.991 0.466 1.412 0.769 0.426 0.292 0.791 0.618 1.076 0.922 0.291 0.299 0.493 0.586 0.632 0.787 0.14 0.2 0.211 0.319 0.211 0.319s-0.117-0.074-0.306-0.215c-0.179-0.152-0.461-0.333-0.787-0.554-0.328-0.217-0.712-0.459-1.134-0.688-0.203-0.13-0.439-0.212-0.657-0.337-0.228-0.106-0.459-0.211-0.696-0.304-0.94-0.393-1.931-0.671-2.686-0.927-0.379-0.129-0.687-0.266-0.903-0.382-0.209-0.113-0.309-0.208-0.309-0.208z"/><path d="m247.19 15.076s0.136-5e-3 0.362-0.04c0.218-0.022 0.538-0.119 0.921-0.197 0.765-0.176 1.828-0.351 2.908-0.267 0.536 0.051 1.074 0.139 1.559 0.298 0.487 0.147 0.925 0.346 1.278 0.549 0.359 0.196 0.63 0.408 0.817 0.557 0.188 0.148 0.288 0.24 0.288 0.24s-0.132-0.035-0.351-0.111c-0.213-0.09-0.531-0.175-0.902-0.286-0.372-0.106-0.805-0.218-1.272-0.306-0.23-0.061-0.478-0.067-0.72-0.118-0.246-0.031-0.497-0.06-0.748-0.075-1.006-0.084-2.03-0.042-2.822-0.053-0.397-6e-3 -0.729-0.042-0.968-0.085-0.228-0.046-0.35-0.106-0.35-0.106z"/><path class="st2" d="m212.25 194.19s21.306-39.629 21.244-43.514c-0.063-3.884 3.728-60.119 3.647-62.421-0.35-9.881 3.271-35.832 3.38-38.065s3.135-29.574 4.175-32.121c1.782-4.363 6.078-6.45 9.811-4.65s3.61 9.782 3.184 13.034-0.907 11.586-4.579 49.254"/><path class="st2" d="m254.62 78.109s7.422-25.317 8.486-30.023 4.4-19.406 5.801-25.706c1.4-6.3 1.707-11.264 8.577-10.763s6.507 8.357 4 19.109-6.573 45.359-8.767 53.06"/><path class="st2" d="m273.78 86.346 10.625-26.359s11.011-25.074 15.544-28.489c4.842-3.649 10.977-0.821 8.528 7.429s-15.853 40.469-19.173 49.061"/><path class="st2" d="m286.4 95.705s5.29-11.556 8.383-11.967c3.092-0.411 8.881 2.07 7.403 9.16s-6.049 22.89-6.049 22.89"/><path class="st2" d="m296.14 109.8s-3.251 13.674-6.33 28.074-12.079 25.788-17.67 30.765c0 0-6.678 35.483-7.864 43.146"/><path class="st3" d="m231.29 163.99s3.303 10.238 34.331 14.869"/><path d="m97.205 50.068c1.765 2.095 3.12 4.673 3.697 7.553 0.292 1.438 0.319 2.964 0.055 4.454-0.258 1.493-0.843 2.927-1.652 4.173-1.629 2.511-3.974 4.287-6.402 5.595-1.22 0.659-2.469 1.238-3.745 1.713-1.275 0.477-2.568 0.885-3.867 1.245l0.494-0.284c-0.384 0.368-0.741 0.696-1.118 1.025l-1.124 0.968c-0.759 0.629-1.526 1.243-2.315 1.824-1.571 1.17-3.185 2.271-4.846 3.287-1.658 1.019-3.349 1.985-5.101 2.812-0.867 0.433-1.754 0.82-2.642 1.202-0.884 0.393-1.797 0.71-2.694 1.068l0.478-0.38c-0.593 0.824-1.191 1.575-1.82 2.326-0.625 0.747-1.265 1.479-1.919 2.195-1.301 1.44-2.688 2.789-4.132 4.062-1.441 1.278-2.976 2.435-4.575 3.468-0.807 0.506-1.634 0.971-2.478 1.392-0.849 0.412-1.723 0.758-2.606 1.051 1.664-0.87 3.203-1.942 4.657-3.125 1.459-1.177 2.814-2.487 4.128-3.837 1.304-1.363 2.541-2.796 3.739-4.264 0.596-0.736 1.177-1.486 1.742-2.248 0.557-0.762 1.123-1.544 1.636-2.302l0.165-0.244 0.313-0.136c0.856-0.372 1.725-0.702 2.568-1.108 0.846-0.394 1.692-0.792 2.517-1.236 0.837-0.417 1.645-0.899 2.47-1.344 0.808-0.479 1.626-0.938 2.416-1.454 1.596-0.997 3.148-2.078 4.654-3.222 0.752-0.574 1.496-1.159 2.231-1.753l1.082-0.914c0.355-0.304 0.714-0.63 1.033-0.929l0.227-0.213 0.267-0.071c2.495-0.661 4.944-1.492 7.242-2.611 1.147-0.564 2.244-1.221 3.252-1.991 1.019-0.753 1.938-1.638 2.693-2.655 0.744-1.023 1.318-2.178 1.652-3.431 0.34-1.254 0.403-2.596 0.287-3.937-0.115-1.346-0.456-2.68-0.904-3.979-0.465-1.292-1.035-2.562-1.755-3.745z"/><linearGradient id="d" x1="18.325" x2="25.511" y1="260.9" y2="250.23" gradientTransform="translate(0 -57.355)" gradientUnits="userSpaceOnUse"><stop stop-color="#fff" offset="0"/><stop stop-color="#EDEDED" offset="1"/></linearGradient><polygon points="35.095 219.84 44.565 199.88 51.95 184.77 48.178 184.07 34.679 180.96 24.894 174.64 18.751 166.69 0 189.56" fill="url(#d)"/><path class="st3" d="m19.844 168.97s9.74 15.465 30.839 15.137"/><path d="m36.414 21.356c1.354-0.286 2.752-0.378 4.149-0.291 1.399 0.078 2.801 0.366 4.151 0.891 1.353 0.515 2.628 1.345 3.703 2.435 1.08 1.087 1.916 2.457 2.465 3.928 1.114 2.96 1.213 6.162 0.913 9.184-0.151 1.519-0.383 3.021-0.712 4.492-0.327 1.471-0.718 2.919-1.15 4.348l-0.049-0.907c0.194 0.453 0.332 0.84 0.483 1.261 0.144 0.413 0.277 0.829 0.405 1.246 0.244 0.837 0.479 1.677 0.646 2.535 0.182 0.854 0.319 1.719 0.436 2.587 0.108 0.87 0.18 1.746 0.221 2.625 0.03 0.88 0.03 1.762-0.017 2.645-0.012 0.441-0.072 0.882-0.105 1.322-0.035 0.444-0.104 0.865-0.172 1.305-0.278 1.727-0.698 3.42-1.233 5.061l0.018-0.614c0.216 0.985 0.39 1.932 0.536 2.903 0.152 0.965 0.285 1.933 0.401 2.902 0.241 1.938 0.376 3.889 0.444 5.841l0.027 1.465c0.019 0.487-0.015 0.978-0.021 1.466-8e-3 0.976-0.092 1.952-0.151 2.924-0.11 0.971-0.202 1.94-0.382 2.897-0.136 0.962-0.403 1.899-0.62 2.835l0.129-1.444c0.056-0.477 0.05-0.962 0.077-1.441 0.063-0.957 0.027-1.92 0.03-2.876-0.04-0.958-0.054-1.913-0.143-2.866-0.065-0.953-0.163-1.904-0.257-2.852-0.118-0.948-0.227-1.894-0.38-2.836-0.14-0.942-0.289-1.883-0.457-2.82s-0.35-1.87-0.551-2.797c-0.201-0.923-0.415-1.862-0.637-2.749l-0.074-0.296 0.091-0.319c0.447-1.555 0.781-3.142 0.982-4.742 0.049-0.392 0.095-0.804 0.12-1.199 0.026-0.398 0.077-0.793 0.083-1.194 0.035-0.799 0.025-1.6-8e-3 -2.402-0.047-0.802-0.119-1.602-0.227-2.4-0.116-0.796-0.249-1.591-0.425-2.376-0.168-0.787-0.371-1.565-0.588-2.337-0.113-0.384-0.231-0.766-0.358-1.143-0.126-0.366-0.268-0.766-0.398-1.079l-0.19-0.456 0.142-0.452c0.43-1.369 0.819-2.749 1.145-4.14 0.323-1.391 0.614-2.787 0.793-4.194 0.183-1.404 0.275-2.817 0.216-4.208-0.04-1.391-0.228-2.771-0.638-4.061-0.411-1.288-1.03-2.49-1.875-3.511-0.843-1.025-1.917-1.835-3.098-2.459-1.183-0.627-2.482-1.027-3.811-1.3-1.331-0.254-2.702-0.391-4.079-0.337z"/><path d="m97.681 52.292s-0.306 0.147-0.842 0.404c-0.538 0.246-1.299 0.623-2.205 1.071-0.454 0.222-0.938 0.48-1.444 0.749-0.5 0.273-1.034 0.586-1.487 0.947-0.112 0.089-0.212 0.188-0.272 0.269-0.033 0.042-0.036 0.068-0.036 0.061-0.028 0.103-0.022 0.128-0.028 0.18-0.019 0.268 0.022 0.599 0.066 0.925 0.095 0.659 0.261 1.338 0.454 2.003 0.185 0.668 0.399 1.332 0.652 1.952 0.13 0.305 0.257 0.614 0.405 0.869 0.036 0.065 0.074 0.121 0.11 0.175 4e-3 9e-3 0.065 0.074 0.021 0.037l0.09 0.083c0.067 0.069 0.113 0.092 0.146 0.108 0.031 0.024 0.078 0.05 0.143 0.072 0.464 0.199 1.063 0.196 1.596 0.138 0.541-0.069 1.061-0.183 1.532-0.328 0.943-0.29 1.721-0.619 2.25-0.883 0.534-0.26 0.839-0.408 0.839-0.408s-0.068 0.053-0.195 0.152c-0.13 0.094-0.308 0.257-0.56 0.421-0.495 0.341-1.214 0.826-2.165 1.244-0.476 0.205-1.008 0.403-1.601 0.521-0.592 0.1-1.249 0.214-1.975-0.046-0.147-0.035-0.445-0.217-0.536-0.304l-0.094-0.079c-0.098-0.099-0.09-0.098-0.139-0.153-0.063-0.081-0.122-0.163-0.174-0.243-0.206-0.323-0.369-0.645-0.511-0.98-0.286-0.668-0.522-1.356-0.727-2.057-0.192-0.706-0.355-1.42-0.45-2.157-0.046-0.371-0.07-0.742-0.025-1.163 0.015-0.119 0.047-0.265 0.068-0.326 0.053-0.168 0.133-0.29 0.204-0.377 0.147-0.178 0.292-0.297 0.436-0.402 0.572-0.414 1.14-0.66 1.679-0.908 0.538-0.242 1.058-0.431 1.536-0.605 0.958-0.343 1.773-0.566 2.338-0.732 0.572-0.159 0.901-0.23 0.901-0.23z"/><path class="st2" d="m32.563 80.225s2.082-23.175 3.338-26.524c1.257-3.348 2.056-21.815 2.056-21.815"/><line class="st2" x1="38.672" x2="38.641" y1="31.577" y2="21.024"/><line class="st2" x1="90.999" x2="98.358" y1="55.645" y2="52.978"/><path class="st2" d="m39.911 110.73s21.971-1.921 23.937-1.308 9.678 10.25 10.987 14.769-2.585 10.83-2.585 10.83"/><path class="st2" d="m54.346 65.999s1.425-7.929 5.476-8.779c4.674-0.981 8.514-1.092 9.915 3.538"/><path class="st2" d="m73.378 86.272s-0.381 9.236 0.117 13.515"/><line class="st2" x1="72.471" x2="71.504" y1="132.46" y2="143.63"/><path d="m56.708 122.93c-0.134 1.067-0.089 2.135 0.175 3.085 0.269 0.951 0.777 1.74 1.472 2.277 0.68 0.561 1.546 0.848 2.424 1.065 0.449 0.091 0.905 0.158 1.37 0.194 0.466 0.03 0.934 0.061 1.407 0.067l1.236 0.016-0.401 1.29c-0.095 0.307-0.194 0.692-0.272 1.048-0.077 0.365-0.149 0.732-0.202 1.102-0.125 0.736-0.207 1.479-0.225 2.217-8e-3 0.369-2e-3 0.736 0.019 1.101 0.028 0.364 0.055 0.724 0.104 1.083 0.104 0.713 0.287 1.404 0.564 2.047 0.136 0.321 0.278 0.645 0.466 0.938 0.17 0.307 0.384 0.581 0.602 0.854 0.229 0.264 0.467 0.52 0.731 0.757 0.26 0.237 0.542 0.458 0.839 0.657 0.592 0.402 1.24 0.742 1.919 1.021 0.678 0.29 1.389 0.511 2.114 0.729-0.373 0-0.751 0.012-1.13 1e-3 -0.374-0.042-0.757-0.059-1.134-0.123-0.749-0.144-1.514-0.323-2.236-0.669-0.361-0.165-0.718-0.36-1.06-0.584l-0.508-0.353-0.47-0.415c-0.299-0.296-0.596-0.603-0.847-0.953-0.267-0.336-0.494-0.71-0.696-1.094-0.397-0.776-0.676-1.612-0.856-2.461-0.082-0.425-0.157-0.852-0.19-1.282-0.034-0.429-0.05-0.857-0.049-1.284 5e-3 -0.853 0.074-1.698 0.207-2.529 0.07-0.415 0.158-0.825 0.255-1.234 0.102-0.415 0.204-0.798 0.353-1.242l0.835 1.306c-0.523-0.029-1.048-0.048-1.572-0.138-0.524-0.083-1.049-0.203-1.57-0.354-1.037-0.318-2.074-0.85-2.895-1.709-0.822-0.853-1.32-2.043-1.388-3.194-0.087-1.153 0.154-2.272 0.609-3.237z"/><path d="m50.074 128.23s0.535-0.158 1.337-0.395c0.754-0.234 1.659-0.508 2.482-0.9 0.216-0.076 0.409-0.202 0.614-0.297 0.21-0.089 0.387-0.23 0.589-0.327 0.201-0.1 0.368-0.242 0.555-0.347 0.19-0.102 0.35-0.234 0.516-0.342 0.153-0.12 0.332-0.202 0.458-0.311 0.128-0.105 0.258-0.189 0.363-0.262 0.215-0.143 0.356-0.222 0.356-0.222s-4e-3 0.16-0.043 0.436c-0.044 0.273-0.105 0.679-0.314 1.098-0.097 0.214-0.19 0.465-0.353 0.679-0.159 0.216-0.311 0.471-0.524 0.673-0.215 0.198-0.421 0.44-0.686 0.598-0.254 0.177-0.52 0.347-0.806 0.466-1.14 0.529-2.403 0.505-3.241 0.2-0.855-0.261-1.303-0.747-1.303-0.747z"/><path d="m51.613 126.8s1.945 2.212 4.133 6.119c1.1 1.945 2.243 4.315 3.24 6.97 0.48 1.334 0.969 2.722 1.336 4.18 0.397 1.447 0.69 2.954 0.941 4.469 0.213 1.523 0.35 3.061 0.376 4.582 0.01 0.761 0.022 1.516-0.046 2.261-0.024 0.372-0.048 0.742-0.071 1.109-0.046 0.365-0.091 0.728-0.136 1.088-0.166 1.44-0.484 2.809-0.858 4.074-0.161 0.641-0.397 1.238-0.609 1.817-0.202 0.584-0.454 1.123-0.701 1.636-0.444 1.051-1.021 1.915-1.47 2.706-0.517 0.749-0.97 1.394-1.369 1.901-0.841 0.979-1.328 1.516-1.328 1.516s0.373-0.636 1.026-1.749c0.311-0.563 0.644-1.273 1.054-2.058 0.333-0.833 0.774-1.73 1.104-2.776 0.185-0.514 0.371-1.049 0.506-1.625 0.147-0.57 0.34-1.144 0.443-1.764 0.12-0.614 0.272-1.235 0.337-1.89 0.083-0.651 0.199-1.308 0.232-1.991 0.028-0.339 0.055-0.681 0.083-1.026 7e-3 -0.346 0.013-0.695 0.021-1.046 0.027-0.7-7e-3 -1.411-0.02-2.127-0.044-1.432-0.199-2.884-0.417-4.325-0.218-1.442-0.476-2.883-0.837-4.277-0.343-1.397-0.718-2.768-1.136-4.077-0.437-1.301-0.849-2.569-1.31-3.744-0.452-1.178-0.903-2.285-1.335-3.301-1.754-4.048-3.189-6.652-3.189-6.652z"/><line class="st2" x1="75.62" x2="74.834" y1="135.64" y2="147.77"/><line class="st2" x1="35.301" x2="43.387" y1="94.898" y2="98.064"/><line class="st2" x1="35.54" x2="42.597" y1="108.44" y2="110.51"/><path class="st2" d="m73.216 149.37s-2.798 12.094-15.769 24.142l-21.749 44.513"/><path class="st5" d="m93.766 62.725"/><path d="m41.91 22.981s0.278 0.636 0.404 1.669c0.068 0.514 0.099 1.125 0.058 1.779-0.035 0.655-0.155 1.35-0.346 2.027-0.211 0.668-0.465 1.332-0.825 1.877-0.154 0.289-0.346 0.537-0.537 0.762-0.178 0.236-0.364 0.441-0.561 0.603-0.361 0.358-0.71 0.585-0.963 0.724-0.247 0.147-0.39 0.22-0.39 0.22s0.099-0.136 0.272-0.373c0.088-0.112 0.195-0.248 0.317-0.403 0.109-0.164 0.231-0.35 0.365-0.552 0.142-0.192 0.266-0.421 0.397-0.66 0.139-0.233 0.269-0.487 0.387-0.76 0.137-0.261 0.242-0.549 0.351-0.841 0.124-0.284 0.207-0.592 0.297-0.896 0.109-0.298 0.161-0.616 0.244-0.919 0.051-0.312 0.136-0.613 0.178-0.914 0.102-0.599 0.17-1.168 0.222-1.663 0.098-0.989 0.13-1.68 0.13-1.68z"/><path d="m67.451 144.17s-0.29-0.616-0.443-1.629c-0.069-0.505-0.13-1.106-0.085-1.753 0.021-0.649 0.154-1.337 0.352-2.007 0.129-0.325 0.227-0.662 0.397-0.962 0.146-0.313 0.322-0.599 0.523-0.855 0.096-0.13 0.186-0.262 0.284-0.381 0.11-0.107 0.218-0.212 0.323-0.315 0.202-0.21 0.409-0.388 0.626-0.514 0.402-0.297 0.778-0.452 1.047-0.54 0.264-0.096 0.413-0.14 0.413-0.14s-0.118 0.114-0.322 0.313c-0.103 0.092-0.227 0.204-0.369 0.333-0.135 0.135-0.269 0.31-0.427 0.475-0.164 0.161-0.308 0.367-0.459 0.582-0.163 0.203-0.307 0.438-0.442 0.69-0.158 0.235-0.265 0.513-0.391 0.784-0.142 0.262-0.215 0.567-0.321 0.853-0.098 0.291-0.174 0.593-0.247 0.89-0.048 0.304-0.142 0.595-0.172 0.892-0.105 0.585-0.146 1.146-0.197 1.632-0.072 0.97-0.09 1.652-0.09 1.652z"/><polyline class="st6" points="53.01 95.981 61.849 95.981 53.587 104.42 44.653 104.12"/><polyline class="st6" points="99.089 43.534 107.93 43.534 99.665 51.977 90.731 51.668"/><polyline class="st6" points="31.881 18.076 38.32 11.586 37.699 23.802 30.994 30.138"/><polyline class="st6" points="45.544 70.89 53.929 67.895 55.68 90.43 40.016 81.438"/><path class="st2" d="m39.99 97.092s19.838-1.43 27.091 0.223 13.527 21.471 13.531 25.419c4e-3 3.949-3.963 13.506-4.84 15.885"/><path class="st2" d="m3.486 185.55s15.961-18.038 19.572-25.517c3.611-7.48-5.314-55.204-3.571-63.623s26.731-21.042 30.991-24.942 37.607-14.905 40.521-16.037"/><path d="m66.095 143.3s0.386 0.648 1.037 1.419c0.154 0.199 0.357 0.383 0.538 0.595 0.207 0.191 0.41 0.4 0.645 0.583 0.219 0.202 0.473 0.371 0.72 0.554 0.249 0.179 0.526 0.323 0.788 0.49 0.284 0.128 0.553 0.286 0.839 0.403 0.292 0.098 0.565 0.243 0.852 0.329 0.286 0.081 0.563 0.181 0.829 0.274 0.272 0.056 0.531 0.125 0.773 0.193 0.481 0.152 0.902 0.196 1.197 0.289 0.296 0.078 0.47 0.137 0.47 0.137s-0.164 0.068-0.46 0.161c-0.297 0.075-0.725 0.251-1.255 0.273-0.265 0.026-0.555 0.052-0.862 0.057-0.306-0.022-0.634-0.044-0.97-0.088-0.337-0.044-0.678-0.158-1.026-0.255-0.348-0.105-0.68-0.289-1.021-0.439-0.317-0.206-0.649-0.391-0.934-0.639-0.287-0.244-0.564-0.491-0.789-0.777-0.247-0.262-0.424-0.573-0.605-0.847-0.162-0.29-0.31-0.565-0.406-0.841-0.436-1.079-0.36-1.871-0.36-1.871z"/><path class="st3" d="m37.746 33.602"/><linearGradient id="b" x1="126.91" x2="136.74" y1="19.001" y2="42.725" gradientTransform="matrix(1 0 0 -1 0 227.47)" gradientUnits="userSpaceOnUse"><stop stop-color="#fff" offset="0"/><stop stop-color="#EDEDED" offset="1"/></linearGradient><polygon points="155.78 212.53 167.24 178.8 147.63 174.4 132.48 166.62 130.37 162.09 118.92 176.37 99.485 200.91" fill="url(#b)"/><path class="st3" d="m132.48 166.62s9.858 11.074 29.97 11.792"/><path class="st2" d="m194.95 91.607s4.988 4.098 6.41 5.632c1.121 1.209-0.157 11.492-1.938 14.721s-5.977 11.823-6.903 23.524c-1.259 15.914-19.848 30.146-23.71 35.359l-10.415 40.148"/><path class="st2" d="m99.485 200.91s32.434-35.396 33.647-43.217-5.946-58.614-5.898-61.97 5.176-11.479 5.176-11.479"/><path class="st2" d="m137.15 98.312s-4.971-24.928-5.151-28.315c-0.18-3.386 1.246-25.692 1.246-25.692"/><line class="st2" x1="134.83" x2="134.51" y1="43.253" y2="31.567"/><line class="st2" x1="184.67" x2="184.09" y1="117.96" y2="105.45"/><path d="m133.55 31.148c1.206-0.196 2.444-0.243 3.676-0.136 1.233 0.101 2.472 0.356 3.66 0.836 1.191 0.466 2.334 1.177 3.282 2.162 0.467 0.496 0.901 1.04 1.249 1.646 0.37 0.593 0.643 1.247 0.878 1.91 0.223 0.669 0.372 1.357 0.482 2.049 0.095 0.692 0.155 1.388 0.161 2.08 0.018 0.714-1e-3 1.321 0 1.987-0.018 0.665-0.041 1.338-0.086 2.001-0.074 1.328-0.207 2.662-0.421 4.007-0.109 0.673-0.24 1.349-0.439 2.031-0.095 0.342-0.205 0.684-0.346 1.038-0.064 0.174-0.15 0.357-0.236 0.54l-0.159 0.291c-0.078 0.119-0.088 0.167-0.287 0.401l0.226-1.383c0.192 0.446 0.342 0.834 0.495 1.249 0.153 0.409 0.289 0.819 0.427 1.23 0.264 0.824 0.523 1.649 0.721 2.49 0.414 1.677 0.757 3.37 1.003 5.079 0.125 0.854 0.219 1.713 0.288 2.574 0.071 0.861 0.131 1.721 0.154 2.584 0.049 0.861 0.036 1.725 0.024 2.586-0.014 0.861-0.079 1.721-0.117 2.58l-0.114-0.49c0.35 0.718 0.638 1.398 0.916 2.111 0.27 0.71 0.518 1.427 0.745 2.152 0.452 1.449 0.828 2.928 1.064 4.435 0.234 1.506 0.371 3.034 0.309 4.557-0.049 1.522-0.302 3.033-0.771 4.446 0.261-1.475 0.295-2.966 0.187-4.433-0.125-1.467-0.373-2.914-0.742-4.327-0.378-1.409-0.819-2.798-1.362-4.142-0.269-0.673-0.557-1.336-0.864-1.987-0.302-0.646-0.626-1.311-0.956-1.898l-0.104-0.184-0.01-0.306c-0.027-0.83-0.025-1.658-0.074-2.485-0.062-0.826-0.08-1.652-0.164-2.474-0.06-0.824-0.155-1.643-0.259-2.461-0.044-0.41-0.112-0.816-0.175-1.223-0.07-0.405-0.112-0.816-0.188-1.22-0.258-1.624-0.609-3.23-1.025-4.81-0.211-0.789-0.427-1.575-0.666-2.351-0.123-0.385-0.244-0.773-0.38-1.15-0.129-0.374-0.278-0.768-0.41-1.09l0.226-1.383c-0.097 0.113-0.022 0.025-0.018 8e-3l0.073-0.13c0.051-0.109 0.105-0.215 0.154-0.344 0.102-0.244 0.195-0.517 0.277-0.799 0.167-0.561 0.311-1.157 0.436-1.763 0.244-1.216 0.423-2.472 0.545-3.742 0.074-0.634 0.103-1.265 0.171-1.9 0.04-0.637 0.109-1.331 0.125-1.921 0.029-0.612 9e-3 -1.219-0.038-1.821-0.062-0.599-0.157-1.191-0.311-1.762-0.154-0.569-0.336-1.136-0.606-1.652-0.249-0.531-0.577-1.014-0.939-1.47-0.744-0.895-1.675-1.638-2.722-2.191-1.045-0.556-2.189-0.94-3.361-1.209-1.177-0.252-2.384-0.422-3.604-0.423z"/><path class="st2" d="m151.01 75.83c6.376-3.25 11.725-7.107 17.091-7.412 7.454-0.423 12.24 14.781 14.872 21.277 1.692 4.175 2.195 16.007 2.195 16.007"/><path class="st2" d="m149.94 72.745s9.028-5.719 17.177-9.775 19.966 22.11 19.966 22.11"/><path d="m156.3 89.39s0.156 0.135 0.428 0.333c0.268 0.201 0.648 0.474 1.101 0.719 0.218 0.138 0.48 0.218 0.722 0.335 0.261 0.069 0.516 0.17 0.788 0.188 0.262 0.07 0.541 0.015 0.811 0.028 0.276-0.073 0.554-0.061 0.835-0.197l0.426-0.136c0.138-0.079 0.281-0.144 0.422-0.214 0.139-0.076 0.286-0.122 0.425-0.207 0.138-0.088 0.273-0.174 0.408-0.259 0.273-0.164 0.55-0.313 0.79-0.509 0.248-0.181 0.497-0.34 0.732-0.489 0.231-0.152 0.427-0.321 0.62-0.449 0.184-0.138 0.36-0.247 0.504-0.341 0.29-0.183 0.473-0.28 0.473-0.28s-0.058 0.2-0.189 0.536c-0.067 0.166-0.147 0.373-0.257 0.596s-0.213 0.495-0.388 0.743c-0.167 0.254-0.354 0.532-0.566 0.813-0.199 0.293-0.466 0.556-0.754 0.82-0.28 0.271-0.581 0.543-0.957 0.745-0.18 0.109-0.36 0.223-0.547 0.324-0.2 0.084-0.411 0.154-0.619 0.227-0.407 0.165-0.873 0.184-1.312 0.215-0.443-0.04-0.895-0.071-1.284-0.255-0.408-0.132-0.741-0.376-1.051-0.591-0.283-0.255-0.538-0.5-0.723-0.769-0.398-0.506-0.597-1.009-0.71-1.359-0.111-0.352-0.128-0.567-0.128-0.567z"/><path class="st3" d="m165.14 88.737"/><path d="m165.14 88.737c-0.145 0.742-0.21 1.489-0.244 2.225-0.022 0.738-0.023 1.467 0.058 2.184 0.075 0.716 0.181 1.419 0.365 2.095 0.188 0.674 0.408 1.328 0.693 1.946 0.276 0.623 0.631 1.196 1.009 1.745 0.179 0.281 0.398 0.534 0.599 0.797 0.227 0.243 0.43 0.506 0.676 0.73 0.466 0.471 0.976 0.895 1.497 1.308 0.526 0.406 1.089 0.765 1.663 1.106l0.59 0.351-0.018 0.747c-0.01 0.433 0.011 0.952 0.028 1.434 0.024 0.491 0.053 0.983 0.108 1.472 0.101 0.979 0.26 1.95 0.489 2.894 0.119 0.47 0.234 0.94 0.377 1.4 0.146 0.457 0.304 0.909 0.489 1.346 0.186 0.435 0.384 0.865 0.617 1.268 0.229 0.405 0.464 0.81 0.74 1.176 0.263 0.381 0.566 0.722 0.88 1.052l0.495 0.47 0.532 0.423c0.37 0.258 0.744 0.527 1.155 0.723 0.397 0.233 0.833 0.374 1.262 0.546 0.442 0.125 0.883 0.292 1.346 0.363 0.457 0.113 0.927 0.152 1.4 0.21 0.473 0.071 0.951 0.051 1.433 0.081 0.481 7e-3 0.966-0.014 1.455-0.021-0.469 0.131-0.941 0.278-1.421 0.397-0.484 0.075-0.969 0.2-1.464 0.234-0.495 0.052-0.994 0.081-1.497 0.056-0.505 9e-3 -1.007-0.074-1.515-0.136-0.497-0.12-1.009-0.215-1.495-0.413-0.498-0.16-0.97-0.405-1.443-0.651-0.461-0.274-0.902-0.582-1.318-0.933-0.411-0.354-0.81-0.731-1.164-1.15-0.365-0.409-0.7-0.85-0.989-1.318-0.3-0.462-0.56-0.949-0.802-1.442-0.478-0.991-0.862-2.024-1.145-3.08-0.276-1.058-0.471-2.132-0.602-3.211-0.07-0.54-0.112-1.082-0.147-1.626-0.035-0.553-0.038-1.072-0.018-1.675l0.572 1.097c-1.283-0.792-2.53-1.729-3.56-2.932-0.268-0.286-0.496-0.619-0.742-0.928-0.222-0.333-0.457-0.654-0.652-1.007-0.417-0.685-0.732-1.44-0.983-2.206-0.519-1.532-0.671-3.17-0.545-4.733 0.142-1.565 0.53-3.088 1.236-4.414z"/><path d="m157.7 88.913c1.179 2.412 1.972 5.044 2.404 7.75 0.392 2.706 0.338 5.555-0.513 8.214l-0.017-0.303c1.432 2.885 2.79 5.81 4.188 8.714 1.385 2.911 2.792 5.809 4.136 8.742l4.076 8.775 3.993 8.82-0.022-0.039c0.244 0.398 0.399 0.79 0.542 1.205 0.135 0.413 0.232 0.838 0.295 1.267 0.064 0.428 0.104 0.86 0.102 1.292 6e-3 0.216 6e-3 0.431-0.015 0.645-0.019 0.214-0.019 0.43-0.052 0.642-0.059 0.425-0.118 0.848-0.227 1.26-0.081 0.419-0.226 0.817-0.349 1.221-0.129 0.402-0.313 0.782-0.466 1.171l-0.561 1.118 0.484-1.154c0.129-0.399 0.277-0.788 0.388-1.19 0.102-0.405 0.225-0.804 0.284-1.218 0.086-0.408 0.123-0.824 0.16-1.238 0.022-0.207 0.012-0.415 0.02-0.622 9e-3 -0.207-1e-3 -0.414-0.017-0.62-0.018-0.413-0.076-0.822-0.157-1.223-0.077-0.402-0.192-0.794-0.332-1.173-0.137-0.373-0.312-0.755-0.509-1.057l-0.013-0.02-9e-3 -0.019-4.25-8.68-4.167-8.725c-1.402-2.901-2.743-5.836-4.105-8.758-1.349-2.93-2.739-5.838-4.054-8.786l-0.07-0.156 0.053-0.148c0.883-2.476 1.026-5.222 0.734-7.886-0.134-1.338-0.379-2.668-0.71-3.974-0.338-1.308-0.738-2.6-1.244-3.847z"/><line class="st2" x1="194.71" x2="189.13" y1="92.08" y2="87.411"/><path d="m188.25 87.369s-0.175 0.357-0.436 0.98c-0.143 0.302-0.272 0.698-0.454 1.118-0.148 0.442-0.341 0.921-0.501 1.458-0.08 0.267-0.163 0.544-0.25 0.832-0.068 0.29-0.139 0.589-0.211 0.897-0.172 0.603-0.223 1.266-0.341 1.922-0.027 0.671-0.136 1.351-0.075 2.042 0.021 0.344-7e-3 0.694 0.051 1.036l0.156 1.03c0.021 0.35 0.145 0.678 0.236 1.012 0.099 0.332 0.182 0.668 0.27 1.002 0.291 0.623 0.522 1.267 0.803 1.871 0.339 0.572 0.655 1.14 0.953 1.691 0.359 0.515 0.699 1.002 1.011 1.452 0.158 0.231 0.309 0.452 0.453 0.663 0.162 0.196 0.316 0.381 0.461 0.555 0.296 0.344 0.541 0.666 0.749 0.929 0.412 0.528 0.64 0.858 0.64 0.858s-0.338-0.157-0.913-0.482c-0.286-0.164-0.641-0.359-1.034-0.609-0.199-0.124-0.41-0.256-0.632-0.396-0.2-0.172-0.411-0.353-0.63-0.542-0.436-0.385-0.929-0.791-1.404-1.277-0.431-0.532-0.884-1.107-1.339-1.718-0.403-0.65-0.76-1.381-1.127-2.114-0.128-0.397-0.257-0.797-0.385-1.199-0.118-0.406-0.268-0.806-0.307-1.236l-0.168-1.272c-0.063-0.422-5e-3 -0.85-0.01-1.269-0.023-0.845 0.168-1.649 0.299-2.424 0.091-0.382 0.211-0.746 0.323-1.103 0.106-0.359 0.224-0.702 0.38-1.019 0.146-0.32 0.276-0.634 0.423-0.926 0.164-0.281 0.322-0.552 0.474-0.813 0.29-0.524 0.641-0.948 0.924-1.331 0.305-0.37 0.576-0.682 0.822-0.917 0.47-0.485 0.789-0.701 0.789-0.701z"/><path d="m189.66 87.122s0.064 0.062 0.154 0.214c0.094 0.146 0.216 0.371 0.342 0.672 0.26 0.598 0.57 1.499 0.71 2.643 0.059 0.571 0.091 1.198 0.054 1.861-0.035 0.645-0.184 1.393-0.286 2.025-0.071 0.577-0.033 1.252 0.184 1.853 0.204 0.613 0.546 1.201 0.967 1.741 0.424 0.533 0.892 1.069 1.391 1.532 0.457 0.423 1.07 0.788 1.247 0.51 0.298-0.319 0.392-1.067 0.453-1.651 0.06-0.617 0.064-1.216 0.074-1.769 0.016-1.108-8e-3 -2.038-0.019-2.688v-1.024s0.24 1.463 0.458 3.692c0.049 0.559 0.083 1.168 0.075 1.825-7e-3 0.329-0.019 0.67-0.081 1.027-0.067 0.353-0.139 0.743-0.446 1.12-0.152 0.18-0.401 0.34-0.654 0.356-0.244 0.022-0.472-0.027-0.658-0.106-0.383-0.155-0.678-0.382-0.98-0.629-0.54-0.481-1.075-0.977-1.549-1.574-0.472-0.591-0.903-1.263-1.153-2.032-0.254-0.774-0.303-1.578-0.185-2.374 0.154-0.732 0.306-1.292 0.378-1.921 0.09-0.606 0.107-1.189 0.109-1.729-0.014-1.08-0.145-1.99-0.291-2.613-0.149-0.622-0.275-0.968-0.294-0.961z"/><path d="m182.43 106.2c-0.014 5e-3 0.088-0.064-1e-3 -9e-3 -0.077 0.032-0.181 0.115-0.304 0.217-0.245 0.211-0.536 0.573-0.818 1.04-0.565 0.941-1.041 2.352-1.419 3.825-0.379 1.472-0.691 3.001-0.968 4.164-0.124 0.583-0.261 1.07-0.351 1.415-0.096 0.344-0.164 0.541-0.164 0.541s-0.215-0.806-0.286-2.032c-0.074-1.223-5e-3 -2.879 0.42-4.49 0.4-1.608 1.214-3.16 2.172-3.997 0.467-0.424 0.947-0.658 1.296-0.735 0.174-0.045 0.317-0.042 0.414-0.028 0.025 7e-3 0.044 2e-3 0.076 0.032 0.015 0.052-0.034 0.051-0.034 0.051-0.021 4e-3 -0.033 6e-3 -0.033 6e-3z"/><path d="m152.68 163.77s0.169 0.091 0.48 0.165c0.31 0.076 0.753 0.14 1.286 0.151 1.068 0.013 2.479-0.192 3.88-0.531 1.403-0.326 2.796-0.762 3.864-1.052 1.055-0.324 1.796-0.476 1.796-0.476s-0.613 0.46-1.605 1.012c-0.505 0.253-1.086 0.575-1.75 0.815-0.332 0.118-0.664 0.278-1.024 0.371-0.357 0.1-0.717 0.215-1.082 0.305-0.739 0.154-1.485 0.285-2.2 0.297-0.355 0.021-0.701 5e-3 -1.028-0.029-0.327-0.012-0.635-0.091-0.915-0.146-0.563-0.133-1.008-0.349-1.291-0.536-0.29-0.186-0.411-0.346-0.411-0.346z"/><path d="m171.54 133.83s0.17 0.222 0.412 0.654c0.231 0.435 0.556 1.069 0.856 1.874 0.134 0.406 0.305 0.842 0.422 1.322 0.137 0.474 0.261 0.981 0.359 1.512 0.115 0.528 0.184 1.083 0.263 1.646 0.051 0.565 0.105 1.14 0.139 1.716 0.035 1.154 0.01 2.307-0.088 3.381-0.107 1.073-0.254 2.066-0.445 2.902-0.147 0.844-0.397 1.519-0.518 1.999-0.14 0.477-0.233 0.744-0.233 0.744s0.012-0.288 0.055-0.784 0.123-1.199 0.166-2.045c0.03-0.421 0.062-0.876 0.095-1.358 0.019-0.481 0.039-0.989 0.06-1.514 0.022-0.524-4e-3 -1.066 0.017-1.615 9e-3 -0.549-0.03-1.106-0.04-1.663-0.021-0.556-0.063-1.112-0.102-1.658-0.074-0.541-0.088-1.085-0.175-1.598-0.073-0.516-0.136-1.018-0.226-1.488-0.075-0.474-0.18-0.913-0.256-1.327-0.192-0.813-0.355-1.499-0.511-1.965-0.151-0.468-0.25-0.735-0.25-0.735z"/><linearGradient id="c" x1="343.26" x2="353.09" y1="19.001" y2="42.725" gradientTransform="matrix(1 0 0 -1 0 227.47)" gradientUnits="userSpaceOnUse"><stop stop-color="#fff" offset="0"/><stop stop-color="#EDEDED" offset="1"/></linearGradient><polygon points="372.13 212.53 383.59 178.8 363.98 174.4 348.83 166.62 346.72 162.09 335.27 176.37 315.84 200.91" fill="url(#c)"/><path class="st3" d="m348.83 166.62s9.858 11.074 29.97 11.792"/><path class="st2" d="m411.3 91.607s4.988 4.098 6.41 5.632c1.121 1.209-0.157 11.492-1.938 14.721s-5.977 11.823-6.903 23.524c-1.259 15.914-19.848 30.146-23.71 35.359l-10.415 40.148"/><path class="st2" d="m315.84 200.91s32.434-35.396 33.647-43.217-5.946-58.614-5.898-61.97 5.176-11.479 5.176-11.479"/><path class="st2" d="m353.5 98.312s-4.971-24.928-5.151-28.315c-0.18-3.386 1.246-25.692 1.246-25.692"/><line class="st2" x1="351.18" x2="350.86" y1="43.253" y2="31.567"/><line class="st2" x1="401.02" x2="400.44" y1="117.96" y2="105.45"/><path d="m349.9 31.148c1.206-0.196 2.444-0.243 3.676-0.136 1.233 0.101 2.472 0.356 3.66 0.836 1.191 0.466 2.334 1.177 3.282 2.162 0.467 0.496 0.901 1.04 1.249 1.646 0.37 0.593 0.643 1.247 0.878 1.91 0.223 0.669 0.372 1.357 0.482 2.049 0.095 0.692 0.155 1.388 0.161 2.08 0.018 0.714-1e-3 1.321 0 1.987-0.018 0.665-0.041 1.338-0.086 2.001-0.074 1.328-0.207 2.662-0.421 4.007-0.109 0.673-0.24 1.349-0.439 2.031-0.095 0.342-0.205 0.684-0.346 1.038-0.064 0.174-0.15 0.357-0.236 0.54l-0.158 0.291c-0.078 0.119-0.088 0.167-0.287 0.401l0.226-1.383c0.192 0.446 0.342 0.834 0.495 1.249 0.153 0.409 0.289 0.819 0.427 1.23 0.264 0.824 0.522 1.649 0.721 2.49 0.414 1.677 0.757 3.37 1.003 5.079 0.125 0.854 0.219 1.713 0.288 2.574 0.071 0.861 0.131 1.721 0.154 2.584 0.049 0.861 0.036 1.725 0.024 2.586-0.014 0.861-0.079 1.721-0.117 2.58l-0.114-0.49c0.35 0.718 0.638 1.398 0.916 2.111 0.27 0.71 0.518 1.427 0.745 2.152 0.452 1.449 0.828 2.928 1.064 4.435 0.234 1.506 0.371 3.034 0.309 4.557-0.049 1.522-0.302 3.033-0.771 4.446 0.261-1.475 0.295-2.966 0.187-4.433-0.125-1.467-0.373-2.914-0.742-4.327-0.378-1.409-0.819-2.798-1.362-4.142-0.269-0.673-0.557-1.336-0.864-1.987-0.302-0.646-0.626-1.311-0.956-1.898l-0.104-0.184-0.01-0.306c-0.027-0.83-0.025-1.658-0.074-2.485-0.062-0.826-0.08-1.652-0.164-2.474-0.06-0.824-0.155-1.643-0.259-2.461-0.044-0.41-0.112-0.816-0.175-1.223-0.07-0.405-0.112-0.816-0.188-1.22-0.258-1.624-0.609-3.23-1.025-4.81-0.211-0.789-0.427-1.575-0.666-2.351-0.123-0.385-0.244-0.773-0.38-1.15-0.129-0.374-0.278-0.768-0.41-1.09l0.226-1.383c-0.097 0.113-0.022 0.025-0.018 8e-3l0.073-0.13c0.051-0.109 0.105-0.215 0.154-0.344 0.102-0.244 0.195-0.517 0.277-0.799 0.167-0.561 0.311-1.157 0.436-1.763 0.244-1.216 0.423-2.472 0.545-3.742 0.074-0.634 0.103-1.265 0.171-1.9 0.04-0.637 0.109-1.331 0.125-1.921 0.029-0.612 9e-3 -1.219-0.038-1.821-0.062-0.599-0.157-1.191-0.311-1.762-0.154-0.569-0.336-1.136-0.607-1.652-0.249-0.531-0.577-1.014-0.939-1.47-0.744-0.895-1.675-1.638-2.722-2.191-1.045-0.556-2.189-0.94-3.361-1.209-1.177-0.252-2.385-0.422-3.604-0.423z"/><path class="st2" d="m367.36 75.83c6.376-3.25 11.725-7.107 17.091-7.412 7.454-0.423 12.24 14.781 14.872 21.277 1.692 4.175 2.195 16.007 2.195 16.007"/><path class="st2" d="m366.3 72.745s9.028-5.719 17.177-9.775 19.966 22.11 19.966 22.11"/><path d="m372.65 89.39s0.156 0.135 0.428 0.333c0.268 0.201 0.648 0.474 1.101 0.719 0.218 0.138 0.48 0.218 0.722 0.335 0.261 0.069 0.516 0.17 0.788 0.188 0.262 0.07 0.541 0.015 0.811 0.028 0.276-0.073 0.554-0.061 0.835-0.197l0.426-0.136c0.138-0.079 0.281-0.144 0.422-0.214 0.139-0.076 0.286-0.122 0.425-0.207 0.138-0.088 0.273-0.174 0.408-0.259 0.273-0.164 0.55-0.313 0.79-0.509 0.248-0.181 0.497-0.34 0.732-0.489 0.231-0.152 0.427-0.321 0.62-0.449 0.184-0.138 0.36-0.247 0.504-0.341 0.29-0.183 0.473-0.28 0.473-0.28s-0.058 0.2-0.189 0.536c-0.067 0.166-0.147 0.373-0.257 0.596s-0.213 0.495-0.388 0.743c-0.167 0.254-0.354 0.532-0.566 0.813-0.199 0.293-0.466 0.556-0.754 0.82-0.28 0.271-0.581 0.543-0.957 0.745-0.18 0.109-0.36 0.223-0.547 0.324-0.2 0.084-0.411 0.154-0.619 0.227-0.407 0.165-0.873 0.184-1.312 0.215-0.443-0.04-0.895-0.071-1.284-0.255-0.408-0.132-0.741-0.376-1.051-0.591-0.283-0.255-0.538-0.5-0.723-0.769-0.398-0.506-0.597-1.009-0.71-1.359-0.111-0.352-0.128-0.567-0.128-0.567z"/><path class="st3" d="m381.49 88.737"/><path d="m381.49 88.737c-0.145 0.742-0.21 1.489-0.244 2.225-0.022 0.738-0.023 1.467 0.058 2.184 0.075 0.716 0.181 1.419 0.365 2.095 0.188 0.674 0.408 1.328 0.693 1.946 0.276 0.623 0.631 1.196 1.009 1.745 0.179 0.281 0.398 0.534 0.599 0.797 0.227 0.243 0.43 0.506 0.676 0.73 0.466 0.471 0.976 0.895 1.497 1.308 0.526 0.406 1.089 0.765 1.663 1.106l0.59 0.351-0.018 0.747c-0.01 0.433 0.011 0.952 0.028 1.434 0.024 0.491 0.053 0.983 0.108 1.472 0.101 0.979 0.26 1.95 0.489 2.894 0.119 0.47 0.234 0.94 0.377 1.4 0.146 0.457 0.304 0.909 0.489 1.346 0.186 0.435 0.384 0.865 0.617 1.268 0.229 0.405 0.464 0.81 0.74 1.176 0.263 0.381 0.566 0.722 0.88 1.052l0.495 0.47 0.532 0.423c0.37 0.258 0.744 0.527 1.155 0.723 0.397 0.233 0.833 0.374 1.262 0.546 0.442 0.125 0.883 0.292 1.346 0.363 0.457 0.113 0.927 0.152 1.4 0.21 0.473 0.071 0.951 0.051 1.433 0.081 0.481 7e-3 0.966-0.014 1.455-0.021-0.469 0.131-0.941 0.278-1.421 0.397-0.484 0.075-0.969 0.2-1.464 0.234-0.495 0.052-0.994 0.081-1.497 0.056-0.505 9e-3 -1.007-0.074-1.515-0.136-0.497-0.12-1.009-0.215-1.495-0.413-0.498-0.16-0.97-0.405-1.443-0.651-0.461-0.274-0.902-0.582-1.318-0.933-0.411-0.354-0.81-0.731-1.164-1.15-0.365-0.409-0.7-0.85-0.989-1.318-0.3-0.462-0.56-0.949-0.802-1.442-0.478-0.991-0.862-2.024-1.145-3.08-0.276-1.058-0.471-2.132-0.602-3.211-0.07-0.54-0.112-1.082-0.147-1.626-0.035-0.553-0.038-1.072-0.018-1.675l0.572 1.097c-1.283-0.792-2.53-1.729-3.56-2.932-0.268-0.286-0.496-0.619-0.742-0.928-0.222-0.333-0.457-0.654-0.652-1.007-0.417-0.685-0.732-1.44-0.983-2.206-0.519-1.532-0.671-3.17-0.545-4.733 0.143-1.565 0.53-3.088 1.236-4.414z"/><path d="m374.05 88.913c1.179 2.412 1.972 5.044 2.404 7.75 0.392 2.706 0.338 5.555-0.513 8.214l-0.017-0.303c1.432 2.885 2.79 5.81 4.188 8.714 1.385 2.911 2.792 5.809 4.136 8.742l4.076 8.775 3.993 8.82-0.022-0.039c0.244 0.398 0.399 0.79 0.542 1.205 0.135 0.413 0.232 0.838 0.295 1.267 0.064 0.428 0.104 0.86 0.102 1.292 6e-3 0.216 6e-3 0.431-0.015 0.645-0.019 0.214-0.019 0.43-0.052 0.642-0.059 0.425-0.118 0.848-0.227 1.26-0.081 0.419-0.226 0.817-0.349 1.221-0.129 0.402-0.313 0.782-0.466 1.171l-0.561 1.118 0.484-1.154c0.129-0.399 0.277-0.788 0.388-1.19 0.102-0.405 0.225-0.804 0.284-1.218 0.086-0.408 0.123-0.824 0.16-1.238 0.022-0.207 0.012-0.415 0.02-0.622 9e-3 -0.207-1e-3 -0.414-0.017-0.62-0.018-0.413-0.076-0.822-0.157-1.223-0.077-0.402-0.192-0.794-0.332-1.173-0.137-0.373-0.312-0.755-0.509-1.057l-0.013-0.02-9e-3 -0.019-4.25-8.68-4.167-8.725c-1.402-2.901-2.743-5.836-4.105-8.758-1.349-2.93-2.739-5.838-4.054-8.786l-0.07-0.156 0.053-0.148c0.883-2.476 1.026-5.222 0.734-7.886-0.134-1.338-0.379-2.668-0.71-3.974-0.338-1.308-0.737-2.6-1.244-3.847z"/><line class="st2" x1="411.06" x2="405.48" y1="92.08" y2="87.411"/><path d="m404.6 87.369s-0.175 0.357-0.436 0.98c-0.143 0.302-0.272 0.698-0.454 1.118-0.148 0.442-0.341 0.921-0.501 1.458-0.08 0.267-0.163 0.544-0.25 0.832-0.068 0.29-0.139 0.589-0.211 0.897-0.172 0.603-0.223 1.266-0.341 1.922-0.027 0.671-0.136 1.351-0.075 2.042 0.021 0.344-7e-3 0.694 0.051 1.036l0.156 1.03c0.021 0.35 0.145 0.678 0.236 1.012 0.099 0.332 0.182 0.668 0.27 1.002 0.291 0.623 0.522 1.267 0.803 1.871 0.339 0.572 0.655 1.14 0.953 1.691 0.359 0.515 0.699 1.002 1.011 1.452 0.158 0.231 0.309 0.452 0.453 0.663 0.162 0.196 0.316 0.381 0.461 0.555 0.296 0.344 0.541 0.666 0.749 0.929 0.412 0.528 0.64 0.858 0.64 0.858s-0.338-0.157-0.913-0.482c-0.286-0.164-0.641-0.359-1.034-0.609-0.199-0.124-0.41-0.256-0.632-0.396-0.2-0.172-0.411-0.353-0.63-0.542-0.436-0.385-0.929-0.791-1.404-1.277-0.431-0.532-0.884-1.107-1.339-1.718-0.403-0.65-0.76-1.381-1.127-2.114-0.128-0.397-0.257-0.797-0.385-1.199-0.118-0.406-0.268-0.806-0.307-1.236l-0.168-1.272c-0.063-0.422-5e-3 -0.85-0.01-1.269-0.023-0.845 0.168-1.649 0.299-2.424 0.091-0.382 0.211-0.746 0.323-1.103 0.106-0.359 0.224-0.702 0.38-1.019 0.146-0.32 0.276-0.634 0.423-0.926 0.164-0.281 0.322-0.552 0.474-0.813 0.29-0.524 0.641-0.948 0.924-1.331 0.305-0.37 0.576-0.682 0.822-0.917 0.47-0.485 0.789-0.701 0.789-0.701z"/><path d="m406.01 87.122s0.064 0.062 0.154 0.214c0.094 0.146 0.216 0.371 0.342 0.672 0.26 0.598 0.57 1.499 0.71 2.643 0.059 0.571 0.091 1.198 0.054 1.861-0.035 0.645-0.184 1.393-0.286 2.025-0.071 0.577-0.033 1.252 0.184 1.853 0.204 0.613 0.546 1.201 0.967 1.741 0.424 0.533 0.892 1.069 1.391 1.532 0.457 0.423 1.07 0.788 1.247 0.51 0.298-0.319 0.392-1.067 0.453-1.651 0.06-0.617 0.064-1.216 0.074-1.769 0.016-1.108-8e-3 -2.038-0.019-2.688v-1.024s0.24 1.463 0.458 3.692c0.049 0.559 0.083 1.168 0.075 1.825-7e-3 0.329-0.019 0.67-0.081 1.027-0.067 0.353-0.139 0.743-0.446 1.12-0.152 0.18-0.401 0.34-0.654 0.356-0.244 0.022-0.472-0.027-0.658-0.106-0.383-0.155-0.678-0.382-0.98-0.629-0.54-0.481-1.075-0.977-1.549-1.574-0.472-0.591-0.903-1.263-1.153-2.032-0.254-0.774-0.303-1.578-0.185-2.374 0.154-0.732 0.306-1.292 0.378-1.921 0.09-0.606 0.107-1.189 0.109-1.729-0.014-1.08-0.145-1.99-0.291-2.613-0.15-0.622-0.276-0.968-0.294-0.961z"/><path d="m398.78 106.2c-0.014 5e-3 0.088-0.064-1e-3 -9e-3 -0.077 0.032-0.181 0.115-0.304 0.217-0.245 0.211-0.536 0.573-0.818 1.04-0.565 0.941-1.041 2.352-1.419 3.825-0.379 1.472-0.691 3.001-0.968 4.164-0.124 0.583-0.261 1.07-0.351 1.415-0.096 0.344-0.164 0.541-0.164 0.541s-0.215-0.806-0.286-2.032c-0.074-1.223-5e-3 -2.879 0.42-4.49 0.4-1.608 1.214-3.16 2.172-3.997 0.467-0.424 0.947-0.658 1.296-0.735 0.174-0.045 0.317-0.042 0.414-0.028 0.025 7e-3 0.044 2e-3 0.076 0.032 0.015 0.052-0.034 0.051-0.034 0.051-0.02 4e-3 -0.033 6e-3 -0.033 6e-3z"/><path d="m369.03 163.77s0.169 0.091 0.48 0.165c0.31 0.076 0.753 0.14 1.286 0.151 1.068 0.013 2.479-0.192 3.88-0.531 1.403-0.326 2.796-0.762 3.864-1.052 1.055-0.324 1.796-0.476 1.796-0.476s-0.613 0.46-1.605 1.012c-0.505 0.253-1.086 0.575-1.75 0.815-0.332 0.118-0.664 0.278-1.024 0.371-0.357 0.1-0.717 0.215-1.082 0.305-0.739 0.154-1.485 0.285-2.2 0.297-0.355 0.021-0.701 5e-3 -1.028-0.029-0.327-0.012-0.635-0.091-0.915-0.146-0.563-0.133-1.008-0.349-1.291-0.536-0.289-0.186-0.411-0.346-0.411-0.346z"/><path d="m387.89 133.83s0.17 0.222 0.412 0.654c0.231 0.435 0.556 1.069 0.856 1.874 0.134 0.406 0.305 0.842 0.422 1.322 0.137 0.474 0.261 0.981 0.359 1.512 0.115 0.528 0.184 1.083 0.263 1.646 0.051 0.565 0.105 1.14 0.139 1.716 0.035 1.154 0.01 2.307-0.088 3.381-0.107 1.073-0.254 2.066-0.445 2.902-0.147 0.844-0.397 1.519-0.518 1.999-0.14 0.477-0.233 0.744-0.233 0.744s0.012-0.288 0.055-0.784 0.123-1.199 0.166-2.045c0.03-0.421 0.062-0.876 0.095-1.358 0.019-0.481 0.039-0.989 0.06-1.514 0.022-0.524-4e-3 -1.066 0.017-1.615 9e-3 -0.549-0.03-1.106-0.04-1.663-0.021-0.556-0.063-1.112-0.102-1.658-0.074-0.541-0.088-1.085-0.175-1.598-0.073-0.516-0.136-1.018-0.226-1.488-0.075-0.474-0.18-0.913-0.256-1.327-0.192-0.813-0.355-1.499-0.511-1.965-0.151-0.468-0.25-0.735-0.25-0.735z"/></svg>
