<?xml version="1.0" encoding="UTF-8"?>
<!DOCTYPE svg  PUBLIC '-//W3C//DTD SVG 1.1//EN'  'http://www.w3.org/Graphics/SVG/1.1/DTD/svg11.dtd'>
<svg width="213.73px" height="226.77px" enable-background="new 0 0 213.732 226.771" version="1.1" viewBox="0 0 213.73 226.77" xmlns="http://www.w3.org/2000/svg"><rect width="213.73px" height="226.77px" fill="#fff"/><path d="m174 114.33 3.833 16.167 5.167 20.833 0.167 3-1.334 1.334 0.167 7.5 8.333 3 7.5 0.333s6.333-14.333 6.5-18.833 1.667-28.667 1.667-28.667l-2.667-20.667s-3.166-10.833-7.333-15.833-11.834-11-11.834-11l-6.666-5.5-9.334-5.833-5.666-2.5s-8 1.167-9.5 1.333-8-0.667-8-0.667-8 2.666-8.5 2.833-12 0.167-12 0.167l-15 2-8.667 1.167s-3.334 3.833-6.167 6-15.666 10.833-16.166 11.333-11.333 15.333-11.833 15.5-5.667 12.334-5.667 12.334l-3.167 16.833 0.5 16.834 3.833 15.834 3.5 10 12.167-3.667 3.333-31.167 0.834-4.333 9-3 9.667 1 14.167-2 3.333-1.167 3.167 1.5 5.667-1.166s10.666 0.499 13.333 0.166 20-4.666 23-5.166 10.666-5.835 10.666-5.835z" fill="#EDEDED"/><linearGradient id="c" x1="23" x2="8.5" y1="83.166" y2="83.166" gradientUnits="userSpaceOnUse"><stop stop-color="#EDEDED" offset="0"/><stop stop-color="#fff" offset="1"/></linearGradient><path d="m8.333 57s11.833-10 12.833-10 2 1.333 2 1.333-0.166 4.167 4.334 13.5 7.667 12.5 7.667 12.5l6 6.833-3.5 4-17.167 16.667-12.833 17.5v-61.5l0.666-0.833z" fill="url(#c)"/><path d="m65.108 65.039c4.856 1.54 9.948 1.54 15.04 1.658 1.062 0 2.59-0.467 3.539 0.229 8.086-0.401 26.114-1.646 37.586-5.115 0 0 13.567 1.586 23.612-2.643 0 0 13.391 0.353 17.091-1.057 0 0 11.103 0.706 15.684-1.058 0 0 6.9 0.999 12.313-2.413 2.023-1.413 3.562-2.927 5.167-4.64 1.539-1.776 0.948-4.263 0.948-6.513 0.354-0.475 0.946-0.829 0.828-1.303-0.237-0.591-0.592-0.829-1.066-0.829-7.579 0.473-15.277 0.119-22.856-0.711l-0.354-0.236c-7.697-0.119-14.686-1.184-22.856-1.303-6.157-1.066-12.554-2.014-18.829-2.724 0-0.711 0.709-1.184 0.947-1.776 0.828-2.487-1.302-4.027-2.724-5.33-0.712-0.118-1.185-1.303-1.895-1.421-0.475 0.355-0.475 0.83-0.594 1.185-2.723 2.487-6.039 3.198-9.593 3.908l-1.42-0.236c-1.065 0.828-2.725 0.71-4.027 0.947-6.749 0-13.855-0.237-20.132-1.776-1.185-0.355-2.131 0.237-3.196-0.355-0.83-0.237-1.895-0.119-2.607-0.355-3.553-0.355-6.75-0.829-10.302-0.592-0.593-0.237-1.066-0.237-1.658 0-0.475-0.83-1.066 0.592-1.658-0.237-6.277-0.118-12.317-0.474-18.238 0.947-1.184 1.066-2.724 1.066-3.909 1.54-10.066 2.96-18.592 8.29-27 13.974-3.079-1.421-4.5 1.777-6.868 3.08 0.117 0.592 0 1.184 0.592 1.421 1.776 0.71 2.842-1.658 4.026-2.369 0.593 0 1.185-0.71 1.539 0 2.25 9.949 6.987 18.475 12.909 26.528-0.118 1.54 1.421 2.25 2.487 3.314 0.592 1.186 2.961 1.777 1.895 3.672-8.29 5.448-15.632 12.672-21.79 20.606-0.473 1.067-2.842 2.488-1.302 3.791 1.657 0.592 2.25-1.777 3.434-2.488 2.724-4.619 6.75-8.409 10.421-12.078 3.671-3.553 8.408-5.922 11.369-10.067 0.948-1.183 0.237-2.96 0-4.026 2.368-3.198 5.329-6.158 8.527-8.408 3.434-2.605 7.697-4.146 11.961-4.738 1.183-0.123 2.011 0.943 2.959-3e-3z"/><path d="m26.382 47.038c6.514-4.737 13.738-8.408 21.08-11.842 1.185-0.83 2.724-1.659 3.79-2.487 0.593 0.473 1.303-0.83 2.013-0.238 12.909-2.25 28.304-1.066 41.094 1.066 0.119 0.711 0.946 0.829 1.54 0.948 4.975 0.947 10.065 0.711 15.04 1.184 2.843-0.473 5.329 0.592 8.172 0.355 0.354-0.237 0.829-0.237 0.829-0.71l-0.356-0.71c2.726-0.948 5.686-1.658 8.055-3.672 1.064-0.118 1.657 0.593 2.249 1.303 0.593 1.302-0.118 2.605-1.065 3.434-1.304 1.066-3.197 0.236-4.737 0.355h-0.236c0 0.948 1.302 0.948 2.013 1.302 0.947-0.118 1.657 0.237 2.25 0.592 4.263 0.119 7.343 0.237 11.369 0.947l0.355-0.236c2.014 0.828 4.737 0.354 6.276 1.776 3.078 0.474 6.039 0.592 9.118 0.947 6.159 0.119 12.673 0.948 18.711 1.184l0.356 0.237c6.512-0.119 13.381 1.302 20.014 0.829 1.065 2.605-0.712 4.855-2.488 6.513-2.841 3.316-7.697 4.145-11.604 4.737 2.012-1.184 3.789-3.671 3.67-6.395-0.356-0.474-0.473-0.947-0.236-1.539 0.591-0.474 1.539-1.066 0.71-2.014l-0.474-0.237c-6.277 1.421-12.791 0.948-19.186 1.421-7.46-0.237-15.157-1.777-22.854-2.605l-0.83 0.592c4.383 2.132 9.947 1.303 14.565 2.724 1.185 0.119 2.606 0 3.316 0.355-12.315 2.132-22.618-2.487-34.106-3.316-0.355 0-1.302-0.119-1.539 0.474 0 2.606 2.842 0.711 4.146 1.54 6.631 1.184 13.145 2.724 19.776 3.197 3.434-0.474 6.869 0.119 10.186-0.119 3.077-0.118 6.038-0.118 8.763-0.354 1.066 0.829 0.236 2.132 0 3.079-1.775 2.014-4.144 3.672-6.75 4.619-3.671 0.119-7.461 1.185-11.369 1.658 0.236-0.592-0.593-0.946-0.947-1.302-6.396 1.776-13.265 4.026-20.251 3.908 0.237 0.118 0.355-0.118 0.475-0.356-0.119-0.592-0.948-0.355-1.422-0.592-1.183 0.474-2.368-0.355-3.672 0-12.315 2.605-25.342 4.382-38.488 5.092-8.409 0.12-18 0.593-24.632-4.5-0.119 0.592-0.711 1.184-0.237 1.777 0.474 0.711 1.42 0.83 1.776 1.421-1.421 0.474-3.079 0.83-4.618 0.711-6.869 2.725-12.317 8.17-16.816 13.62-0.711 0.236-1.184-0.83-1.896-1.066l-1.303-0.947c-1.658-2.96-3.671-5.33-5.329-8.409l-0.237-0.947c-1.065 0.12-1.065-2.014-2.131-2.841 0.119-1.185-0.947-1.777-1.065-3.08-0.356 0.354-0.592-0.593-0.83-0.948-0.118-0.474 0-1.184-0.473-1.302-0.593-1.422-1.066-3.198-1.304-4.856l-0.592 0.118c0.119-0.118-0.119-0.355 0-0.592 0.237 0.119 0.355-0.119 0.355-0.474-0.474-0.592-0.237-1.895-0.592-2.724 0.117-1.303 1.657-1.776 2.603-2.605z" fill="#fff"/><path d="m168.37 47.985 0.355-0.355c4.619-0.118 9.12-0.355 13.62-0.829-0.237 1.421-0.119 3.316-1.185 4.264-4.617 3.79-10.185 4.856-16.224 4.974 2.488-1.777 4.382-4.738 3.434-8.054z" fill="#fff"/><path d="m88.859 208.36c-1.774-4.676-3.995-9.388-3.612-14.772 0.098-0.433 0.401-0.536 0.198-0.969-0.1-0.647-0.704-1.188-1.308-0.863-1.61 1.722-1.738 8.567-6.145 2.366-1.611-1.824-2.921-3.869-4.029-5.917-0.906-1.614-2.113-3.335-1.912-5.381-1.209-2.152-1.913-4.738-2.521-7.213-0.131-0.385-0.153-0.807-0.166-1.229-1.018 0.11-2.038 0.241-3.054 0.383 0.54 2.636 1.114 5.259 1.409 7.846h-0.103l0.302 0.32c2.229 8.807 4.572 17.612 8.876 25.474 4.033-0.061 8.053-0.071 12.065-0.045z"/><path d="m198.55 165.39c-0.502-0.109-1.308-0.649-1.713 0.108-1.61 8.499-5.032 16.356-9.767 23.355-1.208 1.399-1.814 4.302-4.029 3.872-0.908-0.214-2.017-0.536-2.317-1.51-0.705-0.318-1.413 0-2.113 0.325 0.198 2.154-0.104 4.305-0.607 6.352-0.841 3.795-1.977 7.549-3.309 11.221 2.408-0.12 4.82-0.266 7.235-0.437 0.761-1.049 1.526-2.101 2.32-3.142 2.014-3.98 4.128-7.751 5.135-12.163l0.202 0.216c-0.402-0.969 0.603-2.69-0.502-3.551 1.409-2.906 3.324-6.028 4.831-8.721 0.305-0.32 0-0.971 0.507-1.076 1.509-3.982 2.92-7.965 4.029-12.052 0.198-0.967 0.501-2.045 0.098-2.797z"/><path d="m139.8 147.23c-1.107 2.477-2.315 5.058-3.624 7.537-0.404 0-0.302-0.54-0.404-0.756 0.103-1.294 1.008-2.046 0.604-3.336 0.303-1.507 1.006-2.801 1.812-3.985 0.504 0.106 1.41-0.212 1.612 0.54z"/><path d="m96.55 139.18c-2.538 0.616-4.862 1.233-6.768 2.596 0 0.246-0.106 0.493 0.427 0.556 1.372-0.371 2.535-1.298 4.122-1.545 0.103 0.434 1.163 0.369 1.797 0.434 7.723 0.245 14.807 1.357 21.891 2.593 1.377 0.062 2.432-0.493 3.067-1.112 0.104-0.492 0.526-0.989 0.213-1.42-6.876-1.606-14.278-3.027-21.997-3.091-0.742 0.492-1.905 0.618-2.752 0.989z"/><path d="m99.726 139.24c-1.485 0.554-3.069 0.862-4.551 1.359 7.614 0.247 15.338 1.109 22.949 2.099 0.532-0.062 1.162-0.308 1.271-0.616 0.105-0.619-1.271-0.558-2.011-0.864-2.962-0.68-5.499-1.486-8.779-1.793l-0.315-0.185c-2.538-0.062-4.757-0.56-7.297-0.495-0.107 0.309-0.742 0.558-1.267 0.495z" fill="#fff"/><path d="m93.699 154.01c0.119 0.235 0.026 0.713 0.469 0.697 0.551-0.146 1.185-0.994 1.837-1.377 1.428-0.408 2.838-1.294 4.192-0.871 0.078 2.138 0.171 4.626 1.783 6.11 2.801 0.607 5.676 0.26 8.777 0.024 1.954-1.263 0.743-3.945 1.56-5.876 0.197-0.721-1.498-1.369-0.059-1.538l4.126 0.316c1.197 2.331 1.193 5.181 2.713 7.143 0.688 0.567 1.541-0.295 2.215-0.083 0.438-0.255 0.638-0.857 0.504-1.443-0.567-0.335-1.241-0.546-1.798-0.528-0.596-1.044-0.977-2.339-1.679-3.262 0.185-0.956-0.738-1.873-0.439-2.835 0.449 0.102 0.911 0.562 1.338 0.068 0.092-0.474-0.366-0.815-0.817-0.917-7.57-0.428-16.837-1.624-23.343 2.657-0.652 0.382-1.075 0.99-1.379 1.715z"/><path d="m106.38 151.28c-1.637 0.89-4.688-0.536-4.471 2.302 0.492 1.29-9e-3 2.735 0.919 3.765 2.346 0.387 4.36 0.671 6.671 0.107l0.526-0.732 0.018-5.461c-1.228-0.193-2.554-0.026-3.663 0.019z" fill="#fff"/><path d="m168.11 139.01c2.539 0.674 4.867 1.349 6.771 2.836 0 0.269 0.105 0.538-0.426 0.606-1.372-0.406-2.534-1.418-4.123-1.688-0.104 0.475-1.161 0.404-1.795 0.475-7.725 0.268-14.809 1.484-21.891 2.836-1.377 0.066-2.433-0.54-3.069-1.216-0.104-0.538-0.528-1.08-0.212-1.557 6.874-1.754 14.277-3.308 22-3.374 0.738 0.54 1.901 0.676 2.745 1.082z"/><path d="m164.94 139.07c1.479 0.607 3.066 0.946 4.549 1.488-7.616 0.268-15.336 1.214-22.949 2.294-0.528-0.068-1.164-0.34-1.271-0.678-0.105-0.675 1.271-0.606 2.009-0.942 2.961-0.742 5.499-1.622 8.778-1.958l0.317-0.204c2.538-0.066 4.757-0.608 7.296-0.54 0.106 0.336 0.741 0.61 1.271 0.54z" fill="#fff"/><path d="m170.96 154.01c-0.121 0.235-0.029 0.713-0.474 0.697-0.549-0.146-1.186-0.994-1.833-1.377-1.43-0.408-2.84-1.294-4.193-0.871-0.076 2.138-0.175 4.626-1.786 6.11-2.799 0.607-5.673 0.26-8.773 0.024-1.956-1.263-0.744-3.945-1.562-5.876-0.192-0.721 1.498-1.369 0.059-1.538l-4.125 0.316c-1.193 2.331-1.191 5.181-2.71 7.143-0.69 0.567-1.546-0.295-2.218-0.083-0.437-0.255-0.637-0.857-0.504-1.443 0.571-0.335 1.242-0.546 1.8-0.528 0.595-1.044 0.974-2.339 1.677-3.262-0.185-0.956 0.738-1.873 0.439-2.835-0.449 0.102-0.911 0.562-1.336 0.068-0.091-0.474 0.363-0.815 0.812-0.917 7.57-0.428 16.839-1.624 23.346 2.657 0.651 0.382 1.074 0.99 1.381 1.715z"/><path d="m158.28 151.28c1.634 0.89 4.688-0.536 4.471 2.302-0.494 1.29 5e-3 2.735-0.922 3.765-2.348 0.387-4.357 0.671-6.67 0.107l-0.525-0.732-0.02-5.461c1.229-0.193 2.558-0.026 3.666 0.019z" fill="#fff"/><polygon points="80.41 152.36 80.312 152.15 80.41 152.26" fill="#fff"/><rect x="79.908" y="152.58" width=".099" height=".216" fill="#fff"/><path d="m80.312 152.58c0 0.108 0 0.324-0.204 0.431l-0.101-0.431h0.305z" fill="#fff"/><path d="m139.6 169.72c0.908 1.938 1.009 4.521 2.823 5.919 0 0.324 0 0.648-0.204 0.752-0.502-0.323-0.603 0.54-1.108 0.217-3.221-4.415-3.422-10.116-4.833-15.498-0.2-1.291-0.604-2.799 0-3.983 0.604 0.215 1.106-0.647 1.411 0.326-0.202 0.214-0.403 0.75-0.305 1.072-0.2 1.294 0.506 2.799 0.806 3.875-0.199 1.188 1.008 2.69 0.103 3.767 0.2 0 0.705 0.109 0.806 0.538-0.101 0.647-0.101 1.292 0 2.046l0.501 0.969z"/><rect x="138.29" y="166.39" width=".099" height=".107"/><path d="m130.23 168.65 0.2 0.747c-0.504 2.048-0.907 4.31-1.912 6.246-0.404 0-0.906 0.538-1.312-0.105 0.805-2.261 1.109-4.845 1.913-7.105 0.306 0.217 0.907-0.112 1.111 0.217z"/><path d="m146.65 177.8c-0.706 2.797-1.409 6.133-4.229 7.317-0.706-0.536-0.606 0.647-1.312 0.647-1.409-1.076-2.921-0.647-4.732-0.968-1.007 0.752-2.519 1.396-3.727 0.752-0.503-1.292-1.409-0.107-2.216-0.752-0.907-0.434-1.912-0.972-2.519-1.938 0.908-0.86 1.915 0.756 2.921 0.858 2.115 0.754 3.628-0.643 5.34-1.288 1.407-0.971 2.819-2.477 4.028-3.769v-0.218c1.31-0.427 0.302 1.186 0.904 1.51-0.705 0.858-1.309 1.937-2.113 2.799 0.301 0.323 0.904 0.536 1.408 0.432 0.807-0.754 2.319-1.616 2.922-3.126 0.303-0.967 1.511-1.614 1.008-2.797 0.604-0.431 2.217-0.751 2.317 0.541z"/><path d="m119.15 179.41c-0.504 1.187 0.401 2.156 0.706 3.126 0.904 0.538 1.71 1.721 2.918 1.612 1.411-1.074 2.216-4.306 4.331-2.908 1.008-0.214 1.813 0.326 2.417 0.758v0.32c-0.905 0.433-1.512-0.86-2.417-0.214-1.008 1.183-1.812 2.692-3.022 3.66-0.805-0.758-1.409 0.86-2.314 0-0.805-1.401-2.722 0.108-3.323-1.508-0.304-1.506-0.907-2.906-0.604-4.522 0.401-0.217 0.904-0.217 1.308-0.324z"/><linearGradient id="b" x1="79.119" x2="79.119" y1="208" y2="201.83" gradientUnits="userSpaceOnUse"><stop stop-color="#fff" offset="0"/><stop stop-color="#F5F5F5" offset="1"/></linearGradient><path d="m77.491 196.95c-0.201-0.438-1.006-0.328-1.006-0.987-1.613-2.076-3.326-4.491-4.735-6.787 0.804 3.395 2.113 6.573 3.223 9.854 1.329 3.371 2.714 6.622 4.469 9.671 2.352-0.022 4.7-0.029 7.046-0.022-1.163-3.03-2.17-6.118-3.09-9.119-2.315 0.44-4.094-0.748-5.907-2.61z" fill="url(#b)"/><linearGradient id="a" x1="181.93" x2="181.93" y1="208" y2="201.83" gradientUnits="userSpaceOnUse"><stop stop-color="#fff" offset="0"/><stop stop-color="#F5F5F5" offset="1"/></linearGradient><path d="m186.87 193.8c-0.808 0.446-1.511 1.117-2.017 2.018l-2.217-0.445c0-0.787-1.209-0.679-1.812-1.015-0.892 5.226-2.225 10.387-3.834 15.308 0.732-0.043 1.467-0.1 2.2-0.147 0.346-0.502 0.688-1.014 1.03-1.562 2.822-4.385 5.54-9.104 6.65-14.157z" fill="url(#a)"/><path d="m130.43 197.51c-0.303 0.754 0.402 0.754 0.605 1.078 2.113 0.104 4.129 0 5.94-0.538 0.102-0.54 0.402-0.862 0.707-1.185 4.734 0.216 8.257 3.66 12.187 5.705 0.904-0.213 2.216 0.107 2.921-0.969 0.504 0 1.006 0.429 1.107 0.862 0.202 0.75-0.604 1.074-1.008 1.288-0.805 0-1.207 0.648-1.613 1.294-2.112 0-3.825-1.403-5.941-1.722-1.308-0.216-3.222-0.86-4.732-0.11-1.714 0.324-3.225 0.65-4.936 0.971-2.819 0.325-6.042 0.968-8.461-0.542l-0.101-0.64c-0.704-0.106-1.308 0.106-2.013 0.536-3.223 0.862-6.446 2.584-10.071 1.937-0.708-1.398-2.723-0.752-3.828-1.832-0.202-0.318-0.103-0.641-0.103-0.965 0.304 0.108 0.304-0.107 0.403-0.32 0.505 0.106 1.008 0.645 1.41 0.967 1.915 0 3.929 0.646 5.541-0.754 3.121-3.015 6.949-4.199 10.775-5.815 0.607-0.107 1.01 0.432 1.211 0.754z"/><path d="m131.34 199.88c2.517 0.43 4.935-0.431 7.454-1.078 3.02 0.43 5.739 1.83 8.357 3.662-2.819-0.647-5.338-1.832-8.357-1.614-0.607 0.103-0.607 0.967-1.008 1.396-2.721 0.54-5.339 0.54-8.158 0.432-0.806-0.75-2.014 0.324-2.52-1.076-2.215 0.215-4.331 0.862-6.244 2.041-0.806 0.109-1.711 0.222-2.416 0.222 2.82-2.156 6.142-4.415 9.769-5.276 1.007 0.427 1.811 1.614 3.123 1.291z" fill="#fff"/><path d="m132.18 213.53c3.062 0.842 6.74-0.396 9.729-1.173 0.088-0.324 0.297-0.118 0.404-0.016 0.127 0.641-0.654 1.212-1.237 1.777-4.543 2.137-10.504 1.854-14.476-1.422l-0.152-1.177c2.027 0.234 3.617 1.998 5.732 2.011z"/><path d="m68.494 177.32 0.408-0.307c0.103 0.102 0.208 0.511 0.31 0.307l0.203-0.511c-0.816-2.146-1.022-4.493-1.839-6.64-0.055-0.621-0.364-1.247-0.61-1.87-0.686-0.043-1.373-0.084-2.062-0.123 0.976 3.14 2.086 6.227 3.59 9.144z"/><path d="m68.892 168.55c3.165-0.515 6.228-1.328 9.292-2.146 1.736 1.329 1.327-1.53 2.962-1.632 0.306-1.328-1.125-0.513-1.635-0.821-0.102-8.474 0.716-17.46 2.042-25.733 0.615-2.553 0.819-5.31 1.94-7.759 2.655-0.514 5.312-1.227 7.866-2.046 8.885 1.125 17.562 0.511 25.733-2.451 0.613 0.717 1.635 0.717 2.553 0.922 9.499 0.51 16.954-5.617 24.718-10.01h0.406c1.227-1.123 2.963-2.044 4.391-3.063 4.188-2.656 8.783-5.209 12.357-8.884-0.816-0.409-1.43 0.51-2.247 0.817-7.353 5.206-15.217 10.211-22.978 14.604-5.105 2.653-10.519 6.023-16.746 5.002 0.815-0.715 2.041-1.224 3.163-1.53 7.864-3.674 15.625-8.884 22.266-13.99 1.224-1.433 3.982-2.554 4.083-4.699l-0.816-0.104-3.368 2.657c-2.25 1.735-4.7 3.573-6.946 5.21-3.882 2.244-7.66 5.204-11.849 6.739-1.323 1.226-3.061 1.532-4.491 2.451-0.613 0.102-0.818 0.307-1.329 0.612-0.203 0-0.305 0-0.406-0.204-1.636 1.428-4.189 1.428-6.126 2.449-0.514 0.206-0.92-0.101-1.331 0.308-1.633 0.203-2.962 0.817-4.595 0.713-0.409 0.409-0.919 0-1.226 0.311-2.655 0.509-4.491 0.509-7.15 0.509-0.715 0.103-2.042 0.202-2.755-0.103 14.093-5.618 27.779-12.255 40.647-20.631 0.101-0.51 0.51-0.917 0.918-1.222v-0.206c-0.612-0.204-1.431-0.102-2.043 0.511-14.4 8.374-28.697 15.93-44.631 21.142-0.61-0.311-1.325-0.311-2.04-0.311-0.82 0-0.92 0.717-0.92 1.33-1.429 0.511-3.063 0.715-4.493 0.919l0.104-0.513c-0.205-1.02-1.021 0.104-1.535-0.61-0.203 0.509-0.509 0.919-0.717 1.43-1.12 0.406-2.448 0.306-3.573 0.202-0.509 0.513-1.531 0.513-1.122 1.43 1.33 0.614 2.656 0.614 4.085 0.614-2.352 8.68-2.963 17.87-3.674 26.86-0.102 0.715 0.202 1.43-0.309 2.041h0.102c0.207 0.1 0.105 0.308 0.105 0.408 0 1.529 0.102 2.857 0.102 4.393-2.76 1.02-5.721 1.428-8.48 2.143-1.02-0.715-1.837 0.614-2.856 0-0.818-0.204-0.818 0.614-1.227 1.021-1.431-3.268-2.144-6.842-2.962-10.312-0.512-0.408 0.103-1.431-0.613-1.84-0.204-1.939-0.814-3.982-1.02-5.925-0.612-0.51 0-1.428-0.511-1.939-0.921-6.025-1.532-12.562-1.125-18.075 6.639-1.941 12.969-5.618 18.895-8.579 0 0-0.101-0.101 0-0.101 0.101-0.309 0.203-0.105 0.305 0 0.513-0.713 1.737-0.204 1.941-1.226 0.306 0.202 0.92-0.206 1.328-0.308 0.103-0.817 0.919-0.309 1.224-0.715 0.411-0.715 1.433-0.307 1.941-1.124 1.43-0.51 3.063-1.123 4.185-2.144v0.104c0.41-0.204 0.92-0.309 0.82-0.817-1.226 0.201-2.246 1.122-3.372 1.53-0.51 1.021-1.937 0.612-2.553 1.533-2.143 0.918-4.39 1.734-6.432 3.061 0 0.717-0.614 0.308-1.021 0.514-5.616 2.553-11.133 5.821-17.363 7.046 0-5.516 0.614-11.643 2.247-16.953l-0.714-0.204c-0.511 0.102-1.33 0.409-1.533 1.124-1.429 5.207-1.94 10.518-2.042 15.932-0.101 1.634-1.634 0.408-2.553 1.021-0.102 1.836 1.735 0.814 2.553 1.227-0.206 8.17 1.226 16.439 2.656 24.102 0.511 1.02 0.612 2.241 0.817 3.368 1.244 3.841 2.244 7.806 3.453 11.694 0.689 0.037 1.377 0.08 2.065 0.117-0.196-0.5-0.355-0.999-0.31-1.496 0.511 0.61 1.531 0.307 2.245 0.61l1.228-0.305z"/><path d="m185.42 106.36c-0.614 1.125-0.818 2.556-2.043 3.371-5.207 4.903-11.337 7.967-17.77 10.42 0 0.713-0.613-0.105-0.815 0.303-0.818 0.717-2.25 0.41-3.168 1.125h-0.103c-1.123 0.408-2.452 0.511-3.471 1.224-0.51-0.305-1.226 0-1.737 0.307-3.268 0.512-6.537 1.636-9.804 2.044-2.247 0.408-4.493 0.715-6.638 1.125l-0.103 0.305c-1.635-0.615-2.962 0.511-4.595-0.103-0.306 0-0.51-0.408-0.615-0.715 0.512-0.41-0.305-0.612-0.201-1.021 0.409-0.511 0.816-0.719 1.531-0.409l0.102-0.204c0.204 0.305 0.717 0.103 0.919 0l0.308-0.408c-0.104 0.202 0 0.303 0.203 0.408 1.735-0.206 3.884-0.307 5.411-0.919l0.205 0.204c8.479-1.43 15.728-3.167 23.592-6.026 1.021-0.919 2.758-0.817 3.881-1.938 1.122-0.104 2.245-0.921 3.165-1.635 1.226 0 2.042-1.226 3.269-1.634 2.757-1.633 5.106-4.086 7.763-6.027 0.203 0.103 0.611-0.104 0.714 0.203z"/><path d="m195.49 176.25c0.895-2.746 2.104-5.363 3.048-8.127 0.28-0.828 0.451-1.855 1.05-2.283l-0.085 0.515 4.13-11.07c0.421-2.671 0.853-5.137 1.28-7.704l-0.104 2e-3c1.118-9.439 2.155-18.259 2.349-27.871 0.189-3.58 0.034-8.277-0.696-11.83-0.425-0.499-0.939-0.581-1.446-0.463-0.613 0.02-0.59 0.735-0.678 1.147 2.14 15.358-0.832 30.477-2.68 45.661-2.519 7.421-4.605 14.736-7.221 22.062 0.525-0.018 0.525-0.02 1.053-0.039z"/><path d="m182.45 154.75c0.102-0.204 0.204-0.204 0.407-0.204 0.205 0.614 0.819 1.43 1.431 1.842 0.41-0.105 0.203-0.616 0.41-0.82-0.207-3.572-1.941-6.636-2.656-10.107-1.941-9.192-5.312-18.383-5.515-27.882-0.103-0.408-0.408-0.713-0.717-0.815-0.61 0.305-1.328 0.305-1.837 0.919 0.614 3.981 1.023 7.455 1.735 11.231 1.634 5.923 2.963 11.846 4.495 17.771 0.712 2.043 1.428 4.495 2.041 6.74-0.406-0.305-0.815-0.103-1.329-0.204-0.407 0.102-0.918 0.306-0.918 0.816l0.306 5.006c0.411 3.879 0.309 7.965 1.224 11.539 0.312 0.715 0.718 1.736 1.739 1.428 1.225-0.406 0.41-1.634 0.611-2.451l-0.409-1.836-1.018-12.973z"/><path d="m98.3 110.34c0 0.408-0.711 0.512-1.018 0.611-2.044 1.228-3.984 2.452-6.229 3.167-0.103 0.102 0 0.308-0.204 0.308l-0.103-0.102c0.204-0.408 0.408-0.817 0.918-0.921 1.123 0.612 1.021-1.122 2.143-1.122 0.514 0.306 0.411-0.513 0.921-0.513 1.43 0 2.249-1.222 3.471-1.633l0.101 0.205z"/><rect x="199" y="164.98" width=".104" height=".104" fill="#fff"/><path d="m180.8 162.15c4.227 3.405 10.732 3.566 15.733 4.555" fill="none" stroke="#000" stroke-width="1.0212"/><path d="m182.82 70.425c16.201 8.697 19.073 21.36 22.943 38.207" fill="none" stroke="#000" stroke-linecap="round" stroke-width="2.184"/><path d="m167.41 60.865c4.777 1.913 9.069 4.356 12.828 7.17" fill="none" stroke="#000" stroke-linecap="round" stroke-width="2.184"/><path d="m58.636 118.92c3.118-22.149 18.685-40.191 39.973-51.181" fill="none" stroke="#000" stroke-linecap="round" stroke-width="2.184"/><line x1="79.644" x2="77.655" y1="156.59" y2="170.11" fill="none" stroke="#000" stroke-linecap="round" stroke-width="2.184"/><polyline points="137.78 31.739 143.41 12.791 147.85 27.594 153.48 13.383 157.32 30.555" fill="none" stroke="#000" stroke-linecap="round" stroke-width="3.5528"/></svg>
