<?xml version="1.0" encoding="UTF-8"?>
<!DOCTYPE svg  PUBLIC '-//W3C//DTD SVG 1.1//EN'  'http://www.w3.org/Graphics/SVG/1.1/DTD/svg11.dtd'>
<svg width="150.24px" height="226.77px" enable-background="new 0 0 150.236 226.771" version="1.1" viewBox="0 0 150.24 226.77" xmlns="http://www.w3.org/2000/svg"><rect width="150.24px" height="226.77px" fill="#fff"/><linearGradient id="a" x1="40.938" x2="44.938" y1="220.72" y2="201.06" gradientUnits="userSpaceOnUse"><stop stop-color="#fff" offset="0"/><stop stop-color="#EDEDED" offset="1"/></linearGradient><path d="m75 224 2-20.333 2.333-22.667-17.492 5.568s-14.174-0.234-20.841-4.901-9.667-8.667-12.333-11-4.667-6-4.667-6l-4.333 12.667-7.333 21-3.334 8.666s25 19.666 66 17z" fill="url(#a)"/><path d="m140.24 59.075c-1.007-0.111-0.896-1.23-1.23-1.79-0.783-0.783-1.565-2.236-2.684-2.349-0.447-0.895-1.23-0.335-2.014-0.67-0.447-0.561-0.336 0-1.006 0-1.454-0.111-2.685 1.229-3.914 1.901-1.342-0.225-1.566 1.453-2.572 1.677-0.672 1.343-2.237 2.349-3.132 3.467-0.671 0.335-1.007 1.118-1.678 1.23-0.224 0.782-1.007 1.118-1.342 1.679-1.007 0.78-2.014 2.459-3.579 3.018-0.335 1.455-1.678 1.455-2.349 2.796-0.223 0.112-0.56 0-0.446 0.337l-3.021 2.907c-0.671 0.447-1.118 1.678-2.125 2.125-0.56 1.118-1.789 2.459-2.684 3.02v0.111c-2.796 2.797-4.474 5.593-7.158 8.724-0.447 0.67-1.006 1.118-1.678 1.23-0.67-2.46 1.119-4.361 1.23-6.599 0-0.335 0.561-0.224 0.112-0.559 1.23-3.579 2.572-7.494 3.803-10.96 0.782-1.678 2.237-3.133 2.46-5.033 1.342-2.572 2.235-5.479 3.132-8.275v-0.895c2.46-4.362 3.466-9.171 5.145-13.758 1.007-3.242 1.453-6.373 2.795-9.616 0.225-1.008 0.112-2.126 0.671-2.907 0.112-0.449 0.447-0.896 0.112-1.343 0-0.895-0.112-2.35-0.559-3.355-0.112-1.23-1.454-1.454-1.342-2.572-1.119-0.447-2.014-1.342-3.244-1.678-0.782-0.223-1.565 0.112-2.013-0.783-0.225 1.343-1.454-0.223-2.013 0.447-2.126-0.335-3.804 1.118-5.257 2.573h0.335c-0.895 1.678-2.46 3.466-3.243 5.145-5.145 10.735-9.17 22.143-14.091 33.326-1.229 2.237-1.901 4.81-3.467 6.823-0.448-0.448 0.335-1.007-0.111-1.454 0.67-4.474 1.229-8.947 1.565-13.31 0-1.006 0.895-0.223 1.342-0.223 0.559-0.783-1.119-0.56-1.008-1.23l1.344-12.75c1.453-2.684 2.012-5.815 2.684-8.723 0.446-1.901 0.225-3.914 1.118-5.48 0.446-4.138 1.565-8.274 1.901-12.302-0.111-1.678 0.671-3.579 0-5.033-0.447-0.559-0.672-1.229-0.782-1.788l-0.56-0.336c-0.56-0.895-1.453-1.677-2.35-2.46-0.335-0.336-0.895 0-1.006-0.56-1.566-0.335-3.355-0.895-5.032-0.335-1.79-0.448-2.685 1.564-4.139 2.013 0.112 0.447-0.335 0.783-0.56 1.006 0.225 1.342-2.012 1.455-1.229 2.572-0.56 1.342-1.231 2.796-1.678 4.25l-0.337 0.111 0.112 0.225c-0.671 2.571-1.678 5.367-2.461 8.163-0.67 1.566-0.67 3.803-1.677 5.257l0.224 0.225c-2.125 8.611-2.908 16.886-4.697 25.387 0.111 0.446-0.783 0.224-0.225 0.67-1.229 6.04-2.348 11.856-4.024 17.782h-0.112v0.671c-0.223-0.111-0.336 0-0.336-0.111l-0.224 0.111c-0.335 0.112-1.118 0.224-1.565 0 0.111-0.783-0.111-1.564 0.111-2.348l-0.223-0.225c0.223-5.144 0.111-9.953 0.223-14.873l-0.111-0.225c0.336-0.783-0.225-1.678 0.111-2.349-0.111-1.006-0.559-2.797 0.447-3.132l-0.559-0.447c0.111-2.125-0.225-3.913-0.447-6.039-0.225-2.348 0.223-4.921 0.672-7.27-0.225-1.342 0.111-2.684 0.447-4.024-0.225-1.902 0.559-3.356 0.559-5.146 0.111-0.671-0.225-2.013 0.447-2.461-0.224-1.454 0.225-3.242 0.225-4.809-0.113-0.446 0.781-0.225 0.223-0.56 0-0.446-0.223-1.118 0.112-1.453-0.112-1.008-0.224-2.237-0.448-3.132 0.113-0.224 0.113-0.447-0.111-0.559-0.112-0.672-0.672-0.783-0.559-1.454-1.119-1.566-3.021-3.02-4.922-3.132-0.559-0.336-1.564-0.223-2.461-0.111-1.9 0.224-3.69 1.118-5.144 2.236-0.896 1.007-2.349 2.572-1.565 4.025-1.678 8.501-2.685 16.44-3.803 25.387-0.224 1.791-0.335 3.804-0.783 5.481 0.111 2.013-0.334 4.138-0.67 6.15 0.559 0.336-0.112 0.447-0.225 0.783l0.336 0.335c-0.224 2.236-0.783 4.585-0.559 6.822-0.113 0-0.113 0.224-0.336 0.224-0.447 4.809-0.447 9.395-0.672 13.979-0.223 5.146-0.223 10.178-0.559 15.881v3.69c-0.672 0.895-2.014 1.565-2.684 2.685v0.446c-1.79 2.908-1.231 6.486-1.453 9.842 0.559 3.914 0.67 8.165 0.67 11.743-0.895 13.532-2.797 27.399-7.045 40.149 0.11 0.447-0.895 0.447-0.336 1.007-0.447 1.118-0.783 2.46-1.342 3.354-0.113-0.111-0.336-0.111-0.336-0.224-0.56-0.335-1.23-0.224-1.678 0.224-0.447 2.014-1.119 3.802-1.342 5.703-0.225 0.225-0.337 0.336-0.56 0.336 0 0.336 0.335 0.672 0.223 1.007-1.899 4.585-2.683 9.059-4.585 13.644-2.066 5.513-4.102 10.937-6.217 16.332 0.339 0.815 0.66 1.643 0.959 2.481 1.377-3.251 2.721-6.503 3.805-9.754 0.782-0.671 0.224-1.79 1.118-2.461 0.782-1.565 1.007-3.579 1.901-5.033-0.225-0.559 1.008-0.446 0.336-0.894 0.672-1.119 0.895-2.014 1.23-3.132 0.782-1.453 1.006-3.803 2.124-5.368-0.112-0.672 0.448-1.454 0.335-2.014 0.783-1.9 1.007-3.802 1.79-5.479 6.151 12.973 20.466 20.914 34.558 20.131 0.672 0.111 1.566-0.559 2.236-0.224 3.914-0.671 7.717-1.679 11.184-3.467 0-0.896 1.008-0.559 1.566-0.896 0.111 0.559 0.67 1.118 1.229 1.118 1.118-0.447 0.782-1.789 1.342-2.572-0.111-0.111-0.224-0.111-0.224-0.335 0.224-0.448 0.559-1.007 0.112-1.453 0.224-0.672 0.446-1.678 0.335-2.461 0.672-1.566 0.56-3.021 1.23-4.585 0.111-1.901 1.566-3.244 2.685-4.811h0.224c0.671-1.453 1.789-2.796 2.796-4.137h0.224v-0.224c0.111-0.448 0.447-0.672 0.67-0.782 1.79-2.797 3.691-5.816 5.257-8.5 0.224-0.56 1.007-1.118 1.119-1.343 1.341-2.908 2.907-5.815 4.25-8.5 1.005-1.565 1.342-3.354 2.348-4.695 0.56-1.566 1.007-3.355 1.79-4.922 0-0.448 0.782-0.335 0.335-0.895 0.895-2.35 1.789-4.809 2.461-7.27 0-0.447 0.782-0.895 0.446-1.23 1.008-3.354 1.791-7.492 2.461-11.184 3.132-4.81 5.703-9.282 9.282-13.979 0.672-0.783 1.118-1.901 2.013-2.35 0.112-1.229 1.342-2.236 1.901-3.467 2.014-1.453 2.908-3.689 4.922-5.032 0-0.111 0.11-0.335-0.112-0.559 0.336-0.225 0.783-1.231 1.23-0.783-0.447-0.224 0.224-0.56 0.111-0.895 1.901-1.901 3.131-4.922 5.256-6.71 2.349-3.579 5.481-7.158 7.494-11.184 0.334-0.448 0.67-0.783 0.67-1.343 0.672-0.782 1.008-1.789 1.118-2.572 0.56-1.117 0.448-2.684 0.672-3.913 9e-3 -0.55-0.773-1.221 9e-3 -1.556z"/><path d="m86.444 6.177c0.672-0.336 0.56 0.67 1.119 0.895l0.112 0.335c-2.126-0.895-4.139-2.013-6.71-1.789-0.225 0.112-0.225 0.335-0.225 0.671 2.572 0.112 5.033 0.895 6.935 2.685-0.224 2.348-1.007 4.585-2.014 6.598 0.335 0.447 0.559-0.336 0.896-0.336 1.006-1.342 1.229-2.907 1.788-4.361 0 1.23-0.224 3.02-0.335 4.25-0.224 1.789-0.335 3.467-0.895 5.032 0.111 1.902-0.672 3.803-0.672 5.592-0.224 0.111-0.447 0.225-0.559 0.336 0.559 0.336 0.335 1.008 0 1.342 0 2.125-0.672 4.361-1.006 6.375-0.447 0.336-0.783 0.56-0.783 1.119l0.111 0.222c-0.336 2.126-0.783 4.474-1.006 6.6-0.56 3.579-0.672 6.71-1.342 10.178-2.014-0.448-3.469 0-5.368-0.448-2.573 0.336-5.033-0.559-7.27-1.565 0.335-1.006 1.677-1.006 2.683-1.342 2.797-0.672 6.711-0.782 8.612 1.453 0.224 0.447-0.335 1.119 0.448 1.119 0.559-0.336 0.559-0.895 0.335-1.453-1.901-2.797-6.04-2.126-9.282-1.901-1.343 0.894-4.362 0-3.803 2.571 1.565 1.343 3.803 1.343 5.816 1.566l7.715 0.671c-0.781 8.835-2.236 17.223-2.459 26.505l0.782 0.335c0.337-1.342 0.112-3.243 1.565-3.913 0.225-0.671 1.007-1.566 0.56-2.013 0.782-1.232 1.229-2.686 2.237-3.691 0.111-1.118 0.781-2.125 1.229-3.02 0.448-0.672 0.559-1.901 1.342-1.901-0.111-1.23 0.56-2.461 1.342-3.244-0.224-0.559 0.335-1.118 0.56-1.677 1.118-2.685 2.348-5.48 3.578-8.052l-0.223-0.112c0.894-1.454 1.118-3.243 2.236-4.586 0.56-1.789 1.118-3.354 2.013-4.921 0.224-0.894 0.448-2.125 1.231-2.907 0.111-1.565 1.341-3.019 1.678-4.362 1.341-2.796 2.571-6.262 4.695-8.835 0.225-0.895 1.008-1.565 1.566-2.349-0.559 1.343-1.453 2.796-1.901 4.25-0.56 1.454-0.111 3.132 0.335 4.586 0.56 0.335 1.23 0.782 1.791 1.229 1.788 0.448 4.696 1.901 6.038-0.224 0.559-0.783 1.007-1.564 1.678-2.348-1.901 6.934-3.578 13.866-5.703 20.801-0.783 0-1.119 0.56-1.566 1.007 0.336 1.789-0.895 3.69-1.341 5.257-0.449 0.783 0 1.901-0.783 2.46-2.237-3.802-6.935-5.032-11.073-4.362-0.11 0.336-0.446 0.112-0.671 0.225l-0.223-0.112c-0.448 0.224-0.225 0.671 0 0.896 0.335 0.559 0.783 0.111 1.229 0.335 3.579 1.343 6.822 3.132 10.065 5.032-0.895 1.678-1.007 4.026-2.572 5.145-0.447 0.783-0.56 1.678-1.23 2.236-0.334 1.231-0.559 3.021-1.453 3.915 0.223 1.007-0.336 2.349-0.895 3.354 0.336 0.672-0.561 1.231-0.224 2.013-0.672 2.126-1.455 4.474-2.014 6.711-0.223 1.342-1.341 2.46-0.447 3.803 1.678 0.224 0.559 2.125 2.124 2.572 0.896 0.783 1.343-0.783 2.237-0.225 1.119-0.335 0.896-1.564 1.901-2.236-0.335-0.111-0.224-0.671-0.111-0.895 3.355-3.802 6.263-8.164 10.176-11.967 3.021 2.35 6.375 4.138 9.396 6.599 0.224 1.008 1.118 2.237 0.224 3.243-3.244 5.033-6.71 9.729-10.065 14.651-1.342 1.9-2.684 4.025-3.803 6.037-0.783 0.337-1.118-1.341-1.788-0.559-0.783 0-0.337 0.672-0.672 1.119 0 1.342-0.671 2.685-1.007 4.026 0.224 1.229-0.336 2.571-0.447 3.915-0.336 0.67-0.111 1.563-0.559 2.124-0.448 2.014-1.008 4.473-1.566 6.375-0.111 0.111-0.336 0.223-0.336 0.447 0.112 0.67-0.559 1.342-0.559 2.124-1.343 3.803-2.572 7.941-4.474 11.407-1.454 4.362-4.025 8.276-6.151 12.525-0.56-0.11-0.224 0.672-0.56 0.783-2.906 5.033-6.375 9.507-9.506 14.203-0.447-0.335-1.117 0.448-1.564-0.223-0.448 0.783-0.56 1.788-1.118 2.348 0.335 0.112 0.11 0.56 0.11 0.783-0.223 0.111-0.223 0.67-0.223 1.118-0.783 1.229-1.565 2.126-2.461 3.131-0.447 0.672 0.113 1.231 0.336 1.791 0.336-0.225 0.782-0.225 1.006 0-0.111 0.67 0 1.341-0.446 1.899 0.335 0.337-0.224 0.337-0.112 0.56 0.224 1.118 0 2.015-0.111 3.02-1.119 0.225-1.453 1.566-2.686 1.23-10.176 4.697-22.254 4.251-31.648-1.677-4.922-3.133-9.955-7.27-12.414-12.861-1.117-0.559-1.23-2.684-2.684-2.125 0-0.448 0-0.895 0.447-1.229 0.67 0.11 1.006-0.896 1.342-1.455 1.007-1.342 1.117-3.132 1.9-4.696 5.368-12.525 6.375-26.841 7.718-41.38l-0.112-17.67c0.447-0.671 0.783-1.23 1.566-1.678-0.449 1.23 0.67 2.124 0.67 3.243 1.343-0.336 1.008-2.013 1.678-2.907-0.223-2.236-0.111-4.138 0-6.151-0.111-4.697 0.447-8.835 0.447-12.973 0-1.565 0.225-3.578 0.111-5.256-0.223-1.901 0.56-3.914 0.113-5.48 0.335-0.56-0.225-1.566 0.224-2.236 0.781-5.369 0.335-10.961 1.453-16.217-0.782-0.783 0.895-1.007 0-1.79-0.112-1.118 0.335-2.349 0.446-3.578 0.113 0 0.113-0.112 0.225-0.112l-0.225-0.224 1.231-9.952h0.112c-0.225-1.791 0.783-3.244 0.67-5.146 0.895-4.361 0.895-8.276 2.014-12.189v-0.783c0.56 0.783 0.895 1.9 1.901 2.236 1.901 0.671 4.361 0.224 6.263 0 0.224 0.447-0.448 1.229 0.448 1.343 0.78-0.225 0.446-1.454 0.894-2.013l1.006-2.237c0.336 3.802-0.336 7.828-0.781 11.631-0.338 4.026-0.113 8.5-1.118 12.189 0.11 1.902 0.67 4.139 0.222 6.151-3.578-0.559-7.27-0.224-10.4 0.783-0.447 0.223-0.895 0.671-0.895 1.229-0.559 0.225-1.678-0.783-1.788 0.336 0.67 0.559 1.565 0.559 2.235 0.782h10.848c0.225 0.783 0.225 1.791 0 2.461 0.225 0.671 0.225 1.343 0.113 2.013 0 1.119 0.224 2.572-0.113 3.804 0.337 5.032 0.113 9.506 0.113 14.426-0.335 0.112-0.448 0.447-0.56 0.896 1.005 1.23 0.446 2.796 1.229 4.026 2.461 1.006 0.895-3.132 2.908-2.013-0.336 0.559 0.561 0.446 0.561 1.005 0 0.672 0 1.23-0.225 1.678 0.111 0.336 0.671 0.112 1.006 0.112 2.014-5.704 3.355-11.967 4.697-17.67 0-0.336 0.113-1.007 0.447-1.23-0.223-0.671 0-1.565 0.225-2.349 0.895-3.02 0.671-5.815 1.9-8.835-0.446-0.783 0.559-1.229 0.224-1.902 0.56-3.579 1.343-7.38 2.013-11.07 0.447-1.566 0.447-3.468 1.008-5.033 0.111-0.447 0.223-1.342 0.559-1.789 1.008-4.698 2.685-9.842 4.473-14.539 0 1.566 1.902 3.02 3.355 3.803 1.789 0.56 3.914 0.671 5.704 0.224-1.342-1.23-4.026-0.224-5.479-1.566-1.342-0.894-2.686-2.013-2.237-4.025-0.335-0.336-0.56-0.783-0.224-1.118l0.67-0.783c-0.111-0.448 0.449-1.23 0.561-1.79 0.447-1.006 1.565 0.337 1.565-0.671l-0.443-0.227c0.671-0.783 1.79-0.561 2.796-0.896 1.231 1e-3 2.572 0.336 3.578 1.344z" fill="#fff"/><path d="m55.354 9.531c-1.678 0.336-3.691 0.225-5.48 0.783 1.678-1.118 3.579-1.006 5.48-0.783z" fill="#fff"/><path d="m56.808 11.655c0.448 1.791-0.446 3.579-1.005 5.146-2.685-0.335-5.929 1.342-7.27-1.789-0.337-1.119-0.224-2.125-0.224-3.132 2.348-1.343 6.262-2.237 8.499-0.225z" fill="#fff"/><path d="m114.29 26.866c-0.225 2.46-2.013 4.361-3.691 6.375-1.454 0.895-2.796-0.447-4.138-0.56-0.895-0.448-1.453-1.23-1.678-2.125-0.225-2.685 0.783-4.921 2.013-6.935 1.453-1.342 3.579 0.112 5.145 0.448 1.006 0.672 2.236 1.343 2.349 2.797z" fill="#fff"/><path d="m56.138 45.655c-0.113 0.559 0.335 1.342-0.225 1.677-3.689-0.335-6.375-0.112-10.289-0.447-0.111-0.782 1.119-0.782 1.566-1.229 2.684-0.784 6.263-1.009 8.948-1e-3z" fill="#fff"/><path d="m135.09 57.062c1.23 1.006 2.349 2.235 2.349 3.914-0.56-0.225-1.23-1.118-1.901-1.566-0.783-0.782-1.007-1.9-2.125-2.348 0.558-1.119 0.894 0.559 1.677 0z" fill="#fff"/><path d="m104 61.646c-0.335 0.225-0.224 0.896-0.671 0.56-3.131-1.678-5.927-3.802-9.17-5.033 1.117-0.11 2.236-0.559 3.354-0.11 2.685 0.222 5.48 2.012 6.487 4.583z" fill="#fff"/><path d="m131.63 57.845c-0.112 0.111-0.335 0.111-0.448 0.224-0.112-0.224 0.224-0.224 0.448-0.224z" fill="#fff"/><path d="m136.21 61.983c-0.225 3.018-3.914 3.801-6.375 4.696-1.006-0.446-1.788-1.342-2.46-2.125 0.782-0.671 0.672-2.013 1.454-2.796 1.006-1.453 2.124-2.684 3.69-3.578 1.678 0.784 2.237 2.684 3.691 3.803z" fill="#fff"/><rect x="130.4" y="58.404" width=".113" height=".224" fill="#fff"/><path d="m127.27 65.674c0.894 1.118 2.013 1.789 3.467 1.901 1.677-1.455 4.137-1.455 5.927-3.021-1.677 4.361-4.921 7.94-7.269 11.743-1.678 2.013-3.132 4.809-5.033 6.821-1.231-0.67-1.231 1.008-2.125 1.454-0.447-0.782-1.678-0.56-1.565-1.789-1.454-2.796-4.25-4.697-7.27-4.922l-1.454-1.564c2.014-2.461 5.369-5.145 7.382-7.382l0.559-0.336-0.112-0.11c2.461-2.014 4.362-4.81 6.711-6.486 0.447-1.231 1.566-1.902 2.796-2.461-1.231 1.566-2.798 3.916-2.014 6.152z" fill="#fff"/><rect x="82.084" y="68.58" width=".111" height=".225" fill="#fff"/><path d="m119.66 82.336c-1.565-0.895-3.467-1.788-4.809-3.354 1.902 0.335 3.802 1.566 4.809 3.354z" fill="#fff"/><path d="m121.78 85.469c-0.224-0.224-0.559-0.672-0.447-1.007 0.111 0.335 1.007 0.67 0.447 1.007z" fill="#fff"/><path d="m97.628 88.936h-0.335v-0.336c0.224 0.111 0.224 0.111 0.335 0.336z" fill="#fff"/><path d="m79.958 180.31c0.56 2.124-0.223 4.137-0.559 6.263 0.225 0.335 0.225 0.783 0.225 1.229-0.449 0.448-0.225 0.896-0.449 1.454-0.223 0.895 0.113 1.565-0.223 2.46-0.225 3.243-0.672 6.6-0.783 9.729-0.224 3.244-0.447 5.705-0.783 8.836 0.111 0.335 0 1.118 0 1.566-0.559 2.348-0.672 4.473-1.789 6.486-0.223 0-0.56-0.336-0.56-0.56 0-1.454 0.224-2.908 0.112-4.362 0.111-1.677 0.56-3.466 0.225-4.92 0.67-3.803 0.894-7.493 0.894-11.521 0.446-3.242 0.335-5.703 0.783-9.17-0.224-1.118 0.446-2.237 0.335-3.467v-1.007c0-0.447 0.447-1.006 0.447-1.564-0.223-1.117 1.008-2.124 2.125-1.452z"/></svg>
