<?xml version="1.0" encoding="UTF-8"?>
<!DOCTYPE svg  PUBLIC '-//W3C//DTD SVG 1.1//EN'  'http://www.w3.org/Graphics/SVG/1.1/DTD/svg11.dtd'>
<svg width="170.08px" height="226.77px" enable-background="new 0 0 170.079 226.771" version="1.1" viewBox="0 0 170.08 226.77" xmlns="http://www.w3.org/2000/svg"><rect width="170.08px" height="226.77px" fill="#fff"/><linearGradient id="a" x1="46.102" x2="54.602" y1="199.15" y2="183.15" gradientUnits="userSpaceOnUse"><stop stop-color="#fff" offset="0"/><stop stop-color="#EDEDED" offset="1"/></linearGradient><path d="m76 210 7.5-36s-18.5-5.5-20.5-6-16-12.5-18-15.5-5-9-5-9l-11 21.5-9 17s34 27.5 56 28z" fill="url(#a)"/><path d="m144.1 15.33-0.112 0.113c0.335 1.005 1.79 0.559 1.901 1.789 2.013 1.678 3.131 4.362 2.572 7.158-1.006 3.02-4.026 5.144-5.928 7.38-3.131 2.461-5.368 5.145-8.499 7.829 0.111 0.448-0.56 0.335-0.671 0.672-1.007 0.67-0.895 1.9-2.125 2.124-7.605 8.164-15.992 16.44-22.927 25.164-1.229 0.783-1.565 2.125-2.907 2.684 0.111 1.119-2.35 1.006-1.007 1.901 4.921-0.783 9.171-1.007 13.868-1.455 0.895 0.112 2.013 0.112 2.125 1.119 0.67 0 1.453 0.447 2.012 0.783h0.113c0.335 0.448 0.782 0.783 1.342 1.342 0.111 0.111 0.111 0 0.223-0.111 1.007 1.454 2.35 2.907 2.908 4.696h0.224c0.671 2.908 1.23 6.263 0.447 9.17-0.224 0.783-0.56 1.454 0.335 1.902h0.225c0 0.335 0 0.448 0.224 0.67h0.112c1.229 1.566 2.571 3.355 3.467 5.369 0.111 1.454 0.783 3.019 0.783 4.473 0.559 0.67-0.336 1.9 0.223 2.796-0.559 0.447-0.223 1.341-0.447 1.9 0.447 0.783 1.454 1.342 1.789 2.35 1.902 1.454 1.566 4.36 1.902 6.597-0.336 0.337 0.223 0.896-0.336 1.343 0.336 0.56 0 0.56-0.224 1.118-0.448 1.678-1.454 2.237-2.237 3.914-1.006 0.895-2.014 2.237-2.684 3.468-3.579 3.467-7.381 7.492-10.736 10.848l-0.895 0.224c-2.125 3.69-4.921 7.383-7.717 10.178-0.447 0.447-0.336 0.782-1.119 1.006-0.111 0.448-1.006 0.783-1.23 1.342-2.124 2.014-5.256 4.14-7.381 6.376-3.802 2.571-7.27 4.921-10.959 7.381-0.225 0.223-0.783 0.672-1.23 0.783-0.56 0.782-1.454 0.782-2.014 1.677-0.224 1.679-1.453 2.571-1.677 4.25-0.671 0.224-0.112 1.231-0.783 1.454-0.447 0.895-0.895 1.9-1.119 2.796 0.559 0.335 1.455 0 1.901 0.56-1.006 0.895-2.684 0.67-3.467 1.565-0.559 0.335-0.895-0.112-1.119-0.446-15.209-0.449-29.86-8.389-37.689-22.369-1.454-2.907-2.684-6.038-3.578-9.059 2.237-1.007 1.79-3.354 2.348-5.032 0-1.23 0.783-2.461 1.119-3.579 0.67-2.236 1.006-4.585 1.454-7.046-0.335-0.335 0.335-0.447 0.224-0.895 4.138-20.242 6.71-43.392-0.112-62.74l-0.336-0.223c0.336-0.782-0.335-1.565-0.447-2.46-0.671-1.566-0.783-3.355-1.342-4.921 0.447-0.67 1.229-0.67 1.789-0.447 0.448 0.782 0.671 1.678 1.23 2.459-0.559 0.336 0.447 1.007 0.224 1.566 1.23 3.803 1.901 7.494 3.243 11.072 1.006 4.474 1.23 8.947 2.013 13.98-0.223 4.808 0.336 10.176-0.223 14.874 0.223 0.447 0 0.783-0.112 1.342-0.112 2.572-0.335 4.809-0.448 7.157-0.224 1.902-0.447 3.02-0.671 5.033-0.559 0.225 0.112 0.783-0.224 1.231-0.783 1.564 0 2.571-0.783 4.024 0.335 0.336-0.447 0.896 0 1.119-0.224 0.335-0.224 0.783 0 1.118-0.671 0.335-0.56 1.454-0.783 2.237-1.23 6.598-2.572 12.861-4.585 19.236-0.111 0.67 0.112 2.012-1.118 2.46 0.559 2.684 2.237 4.92 3.244 7.492 5.033 7.381 11.407 13.756 19.459 16.889l0.448 0.447c5.145 1.678 10.289 3.578 15.769 3.467 1.341-2.349 2.013-5.145 3.131-7.605-0.671-0.335-0.559-0.783-0.894-1.342 0.223-1.119 1.9-0.67 2.349-1.678 0.67-1.23 1.006-3.131 2.684-3.579 0.559 0 1.117 0.448 1.342 0.782 10.513-6.709 21.808-14.65 27.848-26.28 1.229-1.119 1.342-2.908 2.795-4.027 0.895-0.335 0.895 0.448 1.23 0.896l-0.111 0.559h0.447c3.242-3.579 7.156-6.934 9.842-11.184l-0.113-0.225c1.23-1.565 1.902-3.131 1.566-5.256-0.336-0.111 0.224-0.67 0-1.118 0.224-1.343-0.895-2.125-1.006-3.355-0.561-0.448-0.895-1.566-1.678-1.789-0.336-0.448-1.007-1.007-1.678-1.007-3.803 1.454-7.381 3.132-10.625 5.145-0.559 0.112-1.118 0.224-1.678 0.112-0.223-0.783 0-1.118 0.336-1.79 0.56-0.111 0.783-0.335 1.454-0.559 2.46-1.341 4.81-2.572 7.157-3.69 1.678-0.671 3.244-1.789 4.922-2.125-0.112-0.672 0.446-1.454-0.112-1.901 0.447-0.895-0.336-1.901-0.224-2.795-0.783-3.579-2.908-6.935-6.486-8.277-1.566 0.224-2.908 0.448-4.475 0.783-2.795-0.111-5.368 0.783-8.275 0.783-0.224 0.671-0.671 0-1.007 0.336-0.56 0-1.341 0.224-1.789-0.336-0.224-0.559-0.111-1.007 0.112-1.566 4.361-0.895 9.395-1.005 14.314-1.565 0.895 0.223 1.454-0.672 2.349-0.224 0.896-2.46 0.448-5.256 0.112-7.829-0.336-0.448-0.112-1.454-0.783-1.79 0.224-0.67-0.895-1.119-0.783-1.9-1.006-2.014-3.467-2.573-4.696-4.251-1.118 0.448-1.901 0.113-3.021 0.672-1.342-0.335-3.467 0.335-5.145 0.447-2.684 0.224-5.479 0.783-7.939 1.455-1.789-0.224-4.697 0.671-5.593-1.566-0.224-0.559 0.336-1.118 0.896-1.118 1.118 0 1.9 0 2.796 0.224 0.895 0.447 1.007-0.671 1.118-1.118 6.375-8.388 13.98-16.217 21.361-24.045-1.23-1.566-2.573-2.349-3.691-3.803-0.559 0.224-1.006-0.335-1.453-0.783-2.014-1.119-4.026-2.459-5.928-3.802 0.223-0.224-0.111-0.672 0.447-0.672 4.697 0.783 10.4 2.573 11.967 7.605 1.453-1.455 2.795-2.796 3.914-4.586l1.23-0.894c4.473-5.033 8.723-8.388 12.973-13.196-1.901 0.67-4.474 2.46-6.598 0.894-1.23-1.229-2.686-2.46-3.467-4.025v-0.896c1.117 0.336 0.67-1.23 1.117-1.789 0.895-1.454 2.236-2.684 3.69-3.579l-0.335-0.224c-9.506 2.796-16.44 10.848-23.821 17.334-0.112 0.448-1.007 0.671-1.229 1.231-6.375 6.15-12.525 11.854-18.006 18.453-0.783 0.335-1.678 1.454-2.35 2.236-4.025 3.915-7.604 8.275-12.078 11.295-2.684 1.342-4.809 3.02-7.493 4.474-1.006 0.783-2.46 1.678-3.355 2.349-0.671 0.559-1.23 1.119-2.013 1.229-0.559 0.112-1.677 0.112-1.566-0.783-0.111-0.67 0.559-0.783 0.671-1.23-1.677-7.045-1.342-14.539-4.362-21.137-2.46-6.375-7.829-11.854-14.539-13.085-2.013-0.67-4.92-1.341-6.934-0.223-0.447-0.113-0.782 0.446-1.119 0.67-0.111 0.783-0.894 0.559-1.341 0.894 0 1.231-0.783 2.685 0 3.803 2.572 2.348 5.368 5.144 7.828 7.829 0 0.446-0.224 0.895-0.447 1.229-1.007 0.335-1.79-0.559-2.461-1.006-2.236-3.02-6.486-4.81-7.381-8.387 0-2.35-0.782-5.146 1.566-6.71 2.125 0 3.915-1.566 6.04-1.342 0.783 0.111 1.789-0.224 2.46 0l0.112-0.224c1.454 0.894 3.243 0.894 4.697 1.677 3.355 1.007 6.599 3.02 9.059 5.703l0.559 0.113c-0.111 1.006 0.895 1.342 1.118 2.348 0.336 0.783 1.455 0.56 1.119 1.566 1.342 1.901 2.125 4.361 3.02 6.262-0.224 0.448 0.447 0.895 0.447 1.454-0.223 2.014 0.671 3.132 0.896 5.033 0.782 2.573 0.559 4.921 1.118 7.493-0.112 0.672-0.224 1.902 0.447 2.349 0.223 0.112 0.223 0.335 0.223 0.56-0.67 0.111-0.335 0.894-0.223 1.229l0.223 0.671c4.921-3.243 9.506-6.039 14.539-9.394 10.29-10.625 20.579-22.032 31.986-32.209-0.224-0.336 0.224-0.448 0.336-0.336 7.157-6.486 14.762-14.65 24.827-16.104 1.456-0.111 2.91 0.448 4.252 0.448z"/><path d="m143.21 18.126-0.225 0.224c0.561-0.336 1.007 0.783 1.566 1.007l-0.112 0.224c0.56 0.223 1.343 1.006 1.23 1.9-1.343-1.454-3.021-2.459-4.81-3.467l-0.782-0.783c0.447-0.559 1.678 0 2.46 0.335 0.226 0.113 0.448 0.337 0.673 0.56z" fill="#fff"/><path d="m145.67 22.712c0.782 0.895-0.896 1.565-0.896 2.348-2.012 1.007-4.249 2.125-6.598 2.46-1.566-0.895-3.243-2.013-3.914-3.914 0.111-2.46 2.348-4.585 4.586-5.592 2.348 1.567 5.144 2.461 6.822 4.698z" fill="#fff"/><path d="m124.31 46.309c-0.336 0.113-0.336 0.448-0.672 0.672-2.572-2.909-5.814-5.145-8.946-7.605v-0.223c3.69 0.893 8.834 2.682 9.618 7.156z" fill="#fff"/><rect x="103.62" y="71.696" width=".111" height=".112" fill="#fff"/><path d="m102.61 72.255h0.225-0.225z" fill="#fff"/><path d="m40.094 146.18c-0.448-0.56-1.678-0.447-2.014 0.224 0.224 0.782-1.23 0.782-0.447 1.565-2.013 3.69-3.355 7.271-5.48 10.96-0.783 1.344-1.342 2.686-2.349 3.803-0.671 2.236-2.013 4.362-3.243 6.487-1.468 2.877-3.071 5.778-4.743 8.686 0.146 1.204 0.268 2.404 0.36 3.599 0.574-0.959 1.149-1.92 1.699-2.891h0.447l-0.112-0.559c2.684-3.914 4.585-8.611 7.157-12.861 0 0.111 0.112 0.111 0.224 0.111 0-1.006 0.672-1.789 1.007-2.572 0.783-0.559 0.559-2.236 1.565-2.572 0.224-1.117 1.118-2.125 1.566-3.132 0.448-0.335 0.112-1.118 0.783-1.118 0-0.67 0.447-1.453 0.783-1.901 0.672-2.684 3.356-4.697 2.797-7.829z"/><path d="m84.828 175.48c0-0.894-1.677-1.453-2.237-0.446-2.013 8.498-3.579 18.006-5.48 26.617l-0.335 0.447c-0.145 1.121-0.348 2.219-0.572 3.307 1.013-0.93 1.983-1.864 3.024-2.659-0.018-0.335 0.205-0.786 8e-3 -0.984 0.447-1.565 0.895-3.354 1.119-4.809 0.783-2.124 0.783-4.696 1.677-6.935 0.335-1.453 0.223-3.131 1.006-4.584-0.447-0.56 0.224-1.119 0.112-1.678 0.447-0.895 0.111-1.789 0.67-2.685-0.222-1.564 0.56-3.689 1.008-5.591z"/></svg>
