<?xml version="1.0" encoding="UTF-8"?>
<svg width="226.8px" height="226.8px" enable-background="new 0 0 226.8 226.8" version="1.1" viewBox="0 0 226.8 226.8" xmlns="http://www.w3.org/2000/svg"><rect width="226.8px" height="226.8px" fill="#fff"/><style type="text/css">.st0{fill:#FFFFFF;} .st1{opacity:0.18;} .st2{fill:url(#b);} .st3{fill:url(#a);} .st4{fill:none;stroke:#000000;stroke-width:2;stroke-linecap:round;} .st5{fill:none;stroke:#000000;stroke-width:2;} .st6{fill:none;stroke:#000000;stroke-linecap:round;} .st7{fill:none;stroke:#000000;stroke-width:0.5;stroke-linecap:round;}</style><rect class="st0" width="226.8" height="226.8"/><g class="st1"><linearGradient id="b" x1="14.615" x2="41.615" y1="-467.91" y2="-473.91" gradientTransform="matrix(1 0 0 -1 0 -388.4)" gradientUnits="userSpaceOnUse"><stop stop-color="#fff" offset="0"/><stop stop-color="#EDEDED" offset="1"/></linearGradient><path class="st2" d="m76.4 67.4c-1.3-0.3-58.7-14.7-58.7-14.7s-14.7 35.7 0 55l26-0.3 15.7 2.3s0-14.7 2-20 16-20.3 16-20.3l-1-2z"/></g><linearGradient id="a" x1="121.36" x2="131.02" y1="-379.23" y2="-402.53" gradientTransform="matrix(.1101 .9939 -.9939 .1101 -363.5 -.0242)" gradientUnits="userSpaceOnUse"><stop stop-color="#fff" offset="0"/><stop stop-color="#EDEDED" offset="1"/></linearGradient><polygon class="st3" points="24.9 103.5 57.6 109.1 59.7 101.4 66.9 80 75.2 67.7 70 66.5 55.2 62.2 29.5 57.2"/><path class="st4" d="m40 59.8s48.2 9.9 57 12.7 40.9 17.8 44.5 19.9 11.1 3.6 14.3 9.2 7.7 19.4 7.7 19.4"/><path class="st5" d="m33 104.7s27.4 3.2 37 8.9"/><path class="st4" d="m68.9 112s11.6 24.5 30.8 34"/><path class="st4" d="m145.9 113.4s24.4 15.5 28.7 17.6 20.4 22.7 20.4 22.7 7.3 12.9 7.7 13.8"/><path d="m140.9 137.2c1.7 1.1 3.5 2.1 5.3 3.1 1.8 0.9 3.7 1.8 5.5 2.6 0.9 0.4 1.9 0.7 2.8 1.1 1 0.3 1.9 0.7 2.9 0.9 1 0.3 1.9 0.6 2.9 0.8 1 0.3 2 0.4 2.9 0.7l0.2 0.1 0.2 0.2c0.6 0.6 1.3 1.2 2 1.8l2 1.8 12.3 10.8 0.2 0.2c0.3 0.5 0.7 1 1.1 1.4 0.4 0.5 0.8 0.9 1.2 1.4 0.8 0.9 1.6 1.8 2.5 2.7 1.7 1.7 3.7 3.2 5.8 4.3s4.5 1.5 6.8 0.8c1.1-0.3 2.2-1 3.1-1.8s1.8-1.7 2.5-2.7c-0.3 0.5-0.6 1.1-1 1.6s-0.8 1-1.2 1.5c-0.9 0.9-1.9 1.7-3.2 2.2-1.2 0.5-2.6 0.8-3.9 0.6-1.3-0.1-2.6-0.4-3.8-0.9-2.4-1-4.5-2.5-6.5-4.2-1-0.9-1.9-1.8-2.7-2.7-0.4-0.5-0.9-0.9-1.3-1.4l-1.2-1.5 0.2 0.2-4.2-3.6c-1.4-1.2-2.7-2.4-4.1-3.6s-2.7-2.5-4-3.8-2.6-2.5-3.9-3.9l0.4 0.2c-1-0.3-2-0.5-3-0.8s-2-0.6-3-1c-1-0.3-1.9-0.7-2.9-1.1-0.9-0.4-1.9-0.8-2.8-1.3-1.9-0.9-3.6-1.9-5.4-3-1.4-1.2-3.1-2.4-4.7-3.7z"/><line class="st4" x1="152.3" x2="163.3" y1="146.2" y2="166.3"/><path class="st4" d="m161.5 162.9s5 15.1 13.7 11.1c5.8-2.7 2.8-8.8 2.8-8.8"/><path class="st4" d="m137.7 131.5s8.9 15.4 10.1 19.2c1.2 3.9 0.5 6.9-3.5 8.5-3.9 1.6-8.2 1.3-10.9-2.1-1.3-1.6-15.4-19-15.4-19l-3.8-1.3"/><path class="st4" d="m96.2 141s19.2 20.9 23.8 21.7 10-0.3 11.2-5"/><path class="st6" d="m74.3 70.3s-11.3 13.2-14.8 35.1"/><path d="m202.5 164.8s-1.3-1-3.2-2.4c-0.5-0.4-1-0.7-1.6-1.1s-1.2-0.8-1.8-1c-0.3-0.1-1.1 0.3-1.7 0.7s-1.2 0.9-1.9 1.4c-0.6 0.5-1.2 1-1.7 1.6-0.1 0.1-0.2 0.3-0.3 0.4s-0.1 0.2-0.1 0.3c0 0.3 0 0.6 0.1 0.9 0.2 0.7 0.5 1.3 0.8 1.9s0.7 1.1 1 1.6c0.7 1 1.4 1.7 1.9 2.2s0.8 0.8 0.8 0.8-0.3-0.2-0.9-0.6-1.3-1.1-2.2-2c-0.8-0.9-1.7-2-2.3-3.6-0.1-0.4-0.2-0.8-0.2-1.3 0-0.3 0.1-0.5 0.2-0.7s0.2-0.4 0.4-0.5c0.5-0.7 1.1-1.2 1.7-1.8 0.6-0.5 1.3-1 2-1.4 0.4-0.2 0.7-0.4 1.1-0.6 0.2-0.1 0.4-0.1 0.7-0.2h0.4c0.2 0 0.3 0.1 0.4 0.1 0.8 0.3 1.4 0.8 1.9 1.2s1 0.9 1.5 1.3c0.9 0.8 1.6 1.6 2.1 2.1 0.7 0.4 0.9 0.7 0.9 0.7z"/><path d="m178.5 167.8s-1-1.3-2.5-3.2l-1.2-1.5s-0.9-1.1-1.4-1.4c-0.3-0.2-1.1 0-1.8 0.2s-1.4 0.5-2.1 0.8-1.4 0.7-2 1.1c-0.2 0.1-0.3 0.2-0.4 0.3s-0.2 0.2-0.2 0.3c-0.1 0.3-0.1 0.6-0.1 0.9 0 0.7 0.1 1.4 0.3 2s0.4 1.2 0.6 1.8c0.4 1.1 0.9 2 1.2 2.6s0.5 1 0.5 1-0.3-0.3-0.7-0.9-1-1.4-1.6-2.5-1.1-2.4-1.3-4c0-0.4 0-0.8 0.2-1.3 0.1-0.3 0.3-0.5 0.4-0.7 0.2-0.2 0.3-0.3 0.5-0.4 0.7-0.5 1.4-0.9 2.1-1.2 0.7-0.4 1.5-0.6 2.3-0.9l1.2-0.3h0.7 0.2l0.2 0.1c0.1 0.1 0.3 0.1 0.4 0.2 0.7 0.5 1.1 1.1 1.5 1.7s0.8 1.1 1.1 1.6c0.6 1 1.1 1.9 1.5 2.5 0.2 0.9 0.4 1.2 0.4 1.2z"/><path class="st7" d="m174.4 131.1s-6 3-7.2 9.5"/><path class="st7" d="m177.1 132.8s-3.7 5.8-8.1 8.5"/></svg>
