<?xml version="1.0" encoding="UTF-8"?>
<svg width="226.8px" height="226.8px" enable-background="new 0 0 226.8 226.8" version="1.1" viewBox="0 0 226.8 226.8" xmlns="http://www.w3.org/2000/svg"><rect width="226.8px" height="226.8px" fill="#fff"/><style type="text/css">.st0{fill:#FFFFFF;} .st1{fill:url(#a);} .st2{fill:none;stroke:#000000;stroke-width:2;stroke-linecap:round;} .st3{fill:none;stroke:#000000;stroke-linecap:round;} .st4{fill:none;stroke:#000000;stroke-width:1.7;stroke-linecap:round;} .st5{fill:none;stroke:#000000;stroke-width:3;}</style><rect class="st0" width="226.8" height="226.8"/><linearGradient id="a" x1="-101.14" x2="-93.253" y1="1858.6" y2="1846.9" gradientTransform="matrix(.9829 -.1842 .1842 .9829 -190.74 -1663.9)" gradientUnits="userSpaceOnUse"><stop stop-color="#fff" offset="0"/><stop stop-color="#EDEDED" offset="1"/></linearGradient><polygon class="st1" points="78.1 196.1 82 169 83.2 153.9 74.3 154.2 60.4 151.2 48.4 144.6 46.3 140.2 23.3 174.1"/><path class="st2" d="m26.2 168.7s23-32.4 24.9-38.5 6.1-51.3 9.4-57.8"/><path class="st2" d="m58.5 75.7s-1.3-14.2 5.5-15.6"/><path class="st2" d="m63.9 58.6s1.2-5.4 9.4-5.9c2.7-0.2 37.6-5.9 37.6-5.9s4.4-0.4 8.3 0.3 32.9 8.4 32.9 8.4"/><path class="st2" d="m80 182.8s3.6-38 5.4-41 19.8-11.1 24.3-28.2 11.7-22.4 16.8-26.7"/><path d="m151.6 60.9-32.8-8.8c-0.8-0.3-1.6-0.5-2.4-0.7s-1.7-0.3-2.5-0.3h-0.6l-0.7 0.1-1.3 0.1-2.6 0.3-10.7 1.2-21.1 2.3 31.5-4.5 3.9-0.6 0.7-0.1c0.2 0 0.5 0 0.7-0.1 0.9 0 1.9 0 2.8 0.2s1.8 0.4 2.7 0.7h-0.1l33 7.7c0.6 0.2 1 0.8 0.9 1.4s-0.7 1.2-1.4 1.1z"/><path d="m144.2 67.4s-4.2-1.1-10.6-2.9c-3.2-0.8-6.9-1.8-10.9-2.9-2-0.5-4-1-6.1-1.6-0.5-0.1-1-0.3-1.6-0.4-0.3-0.1-0.5-0.1-0.8-0.2-0.3 0-0.5-0.1-0.8-0.1-1.1-0.2-2.1-0.3-3.2-0.3-2.2-0.2-4.3-0.1-6.5 0-2.2 0-4.3 0.1-6.3 0.1-4.1 0.1-8 0.2-11.3 0.3-6.6 0.2-11 0.3-11 0.3s4.4-0.3 11-0.7c3.3-0.2 7.1-0.4 11.2-0.7 2.1-0.1 4.2-0.2 6.3-0.4 2.2-0.1 4.4-0.3 6.6-0.2 1.1 0 2.2 0.1 3.3 0.2 0.3 0 0.5 0.1 0.8 0.1s0.6 0.1 0.9 0.2c0.5 0.1 1.1 0.2 1.6 0.3 2.1 0.5 4.2 0.9 6.2 1.4 4 0.9 7.8 1.8 11 2.5 6.4 1.5 10.7 2.5 10.7 2.5 0.7 0.2 1.1 0.8 0.9 1.5 0 0.7-0.7 1.1-1.4 1z"/><line class="st3" x1="73.5" x2="78.7" y1="58.9" y2="59.7"/><line class="st3" x1="74.1" x2="79.4" y1="68.1" y2="68.6"/><line class="st2" x1="153.2" x2="160.6" y1="56.3" y2="57.7"/><line class="st2" x1="153" x2="162.6" y1="60.5" y2="61.6"/><line class="st4" x1="145.5" x2="154.3" y1="66.7" y2="67.7"/><line class="st2" x1="130.2" x2="139" y1="73" y2="74.1"/><path class="st3" d="m47.9 142.8s13.8 12.3 31.9 11.6"/><path d="m85.9 91.7s0 0.8 0.2 2.3c0.2 1.4 0.7 3.5 1.2 5.9s1.1 5.3 1.6 8.4c0.3 1.5 0.5 3.1 0.8 4.7 0.1 0.8 0.3 1.6 0.4 2.5 0.1 0.8 0.2 1.6 0.3 2.5 0.1 1.7 0.2 3.4 0.1 5 0 0.8-0.2 1.7-0.2 2.5-0.1 0.8-0.3 1.6-0.5 2.4-0.4 1.5-1 3-1.8 4.2-0.7 1.3-1.6 2.3-2.5 3.2s-1.8 1.6-2.7 2.1c-0.4 0.3-0.8 0.5-1.2 0.7s-0.7 0.4-1.1 0.6c-0.7 0.3-1.2 0.6-1.5 0.7-0.4 0.2-0.5 0.2-0.5 0.2s0.2-0.1 0.5-0.3 0.8-0.5 1.5-0.8c0.3-0.2 0.7-0.4 1-0.6 0.4-0.2 0.8-0.5 1.2-0.8s0.8-0.6 1.2-1c0.4-0.3 0.8-0.8 1.3-1.2 0.8-0.9 1.7-1.9 2.3-3.2 0.7-1.2 1.1-2.6 1.6-4.1 0.1-0.8 0.3-1.5 0.4-2.3s0.2-1.6 0.2-2.4c0.1-1.6 0-3.2-0.2-4.9-0.1-0.8-0.2-1.7-0.3-2.5l-0.3-2.4c-0.2-1.6-0.5-3.2-0.7-4.7-0.5-3.1-0.9-5.9-1.3-8.4s-0.7-4.5-0.8-6c-0.1-0.7-0.1-1.3-0.1-1.7-0.1-0.4-0.1-0.6-0.1-0.6z"/><path d="m130.2 73.1s-3.3-0.8-8.3-2.1c-2.5-0.6-5.4-1.3-8.5-2.1-1.5-0.4-3.1-0.8-4.8-1.2-1.6-0.4-3.3-0.6-4.9-0.8s-3.3 0-5 0.1-3.3 0.2-4.9 0.3c-3.2 0.2-6.2 0.4-8.7 0.6-5.1 0.4-8.5 0.6-8.5 0.6s3.4-0.4 8.4-1c2.5-0.3 5.5-0.6 8.7-1 1.6-0.2 3.2-0.3 4.9-0.5 1.7-0.1 3.4-0.4 5.1-0.3s3.4 0.3 5.1 0.6c1.6 0.3 3.3 0.7 4.8 1 3.1 0.6 6 1.2 8.5 1.8 5 1 8.3 1.7 8.3 1.7 0.6 0.1 1 0.7 0.9 1.4 0.2 0.7-0.4 1.1-1.1 0.9 0.1 0 0 0 0 0z"/><path d="m85.2 86.4c1.4 0.3 2.9 0.4 4.3 0.4s2.8-0.2 4.2-0.5 2.6-0.9 3.8-1.6 2.2-1.6 3.1-2.6l0.4-0.5 0.6 0.3c0.3 0.2 0.7 0.3 1 0.5s0.7 0.3 1.1 0.4c0.7 0.3 1.4 0.5 2.2 0.7 1.5 0.4 3 0.7 4.5 0.9 1.5 0.1 3 0.1 4.5-0.2s2.8-0.8 4.1-1.5l0.4-0.2 0.4 0.1c0.4 0.1 0.9 0.3 1.4 0.4s1 0.2 1.5 0.3c1 0.2 2 0.3 3 0.4 2 0.1 4.1 0 6-0.6 0.5-0.1 1-0.3 1.4-0.5 0.5-0.2 0.9-0.4 1.3-0.7 0.4-0.2 0.8-0.5 1.2-0.9l0.6-0.5 0.5-0.5c0.4-0.4 0.7-0.8 1-1.2s0.6-0.8 0.9-1.3c0.3-0.4 0.5-0.9 0.7-1.4s0.4-1 0.6-1.5c-0.2 1-0.5 2.1-1 3-0.2 0.5-0.5 1-0.7 1.4-0.3 0.5-0.6 0.9-0.9 1.3-1.3 1.7-3.2 3.1-5.3 3.8-0.5 0.2-1.1 0.4-1.6 0.5s-1.1 0.2-1.6 0.3c-1.1 0.2-2.2 0.2-3.3 0.2s-2.2-0.1-3.3-0.3c-0.5-0.1-1.1-0.2-1.6-0.3s-1.1-0.3-1.6-0.4l0.8-0.1c-1.5 0.9-3.1 1.5-4.7 1.9-1.7 0.3-3.4 0.4-5 0.2-1.7-0.2-3.3-0.5-4.8-1-0.8-0.3-1.5-0.5-2.3-0.9-0.4-0.2-0.8-0.3-1.1-0.5-0.4-0.2-0.7-0.4-1.1-0.6l1-0.2c-1.1 1.1-2.3 2-3.7 2.7-1.3 0.7-2.8 1.2-4.3 1.4-1.5 0.3-3 0.3-4.4 0.1-1.4 0.1-2.8-0.2-4.2-0.7z"/><path d="m88.8 87.3s0.3 0.5 0.5 1.3c0 0.2 0.1 0.4 0.1 0.7v0.8s-0.1 0.5-0.2 0.8-0.2 0.5-0.3 0.8-0.3 0.5-0.4 0.8c-0.2 0.2-0.3 0.4-0.5 0.7-0.4 0.4-0.7 0.7-1.1 1-0.3 0.3-0.7 0.4-0.9 0.5s-0.3 0.2-0.3 0.2 0.1-0.1 0.2-0.3 0.4-0.4 0.6-0.8c0.1-0.2 0.2-0.3 0.4-0.5 0.1-0.2 0.2-0.4 0.4-0.6 0.2-0.4 0.5-0.8 0.7-1.3 0.1-0.2 0.2-0.4 0.3-0.7 0.1-0.2 0.2-0.5 0.2-0.7 0.1-0.5 0.2-0.9 0.3-1.3v-1.4z"/><path d="m91.3 122.7s0.1 0.3 0.2 1c0.1 0.3 0.1 0.7 0.1 1.1s0.1 0.9 0 1.5c0 0.5 0 1.1-0.1 1.7s-0.2 1.2-0.4 1.9c-0.2 0.6-0.4 1.3-0.7 2-0.1 0.3-0.3 0.7-0.4 1-0.2 0.3-0.4 0.6-0.5 0.9-0.3 0.6-0.8 1.2-1.3 1.8l-0.3 0.4-0.4 0.4c-0.3 0.2-0.5 0.5-0.8 0.7-0.5 0.5-1.1 0.8-1.6 1.2s-1 0.6-1.5 0.8-0.9 0.5-1.3 0.6-0.8 0.2-1.1 0.3l-0.9 0.3s0.3-0.2 0.9-0.5c0.3-0.1 0.6-0.3 1-0.5s0.8-0.5 1.2-0.7c0.4-0.3 0.9-0.5 1.4-0.9 0.4-0.4 1-0.7 1.4-1.2s0.9-0.9 1.3-1.4 0.8-1.1 1.2-1.7c0.2-0.3 0.4-0.6 0.5-0.9s0.3-0.6 0.4-0.9c0.3-0.6 0.5-1.2 0.7-1.8s0.4-1.2 0.5-1.8 0.2-1.1 0.3-1.6c0.1-1 0.2-1.9 0.2-2.5v-1.2z"/><path d="m154.8 67.5s0.1 0.3 0.1 1v1.1c-0.1 0.4-0.1 0.9-0.2 1.4s-0.3 1.1-0.5 1.7c-0.1 0.3-0.3 0.6-0.4 0.9s-0.3 0.6-0.5 0.9-0.4 0.6-0.6 0.8c-0.2 0.3-0.5 0.5-0.8 0.8-0.2 0.3-0.6 0.5-0.9 0.7l-0.9 0.6-1.5 0.6-0.5 0.1c-0.7 0.2-1.4 0.4-2 0.4-0.7 0-1.3 0.1-1.9 0.1s-1.2-0.1-1.7-0.1-1-0.2-1.4-0.3-0.8-0.2-1.1-0.3l-0.9-0.3s0.4 0 1 0h1.1 1.4s1-0.1 1.6-0.1 1.2-0.2 1.8-0.3c0.6 0 1.2-0.3 1.8-0.5l0.5-0.1 0.4-0.2 0.9-0.4c0.3-0.1 0.5-0.3 0.8-0.5s0.5-0.3 0.8-0.6c0.2-0.2 0.5-0.4 0.7-0.6s0.4-0.5 0.6-0.7 0.4-0.5 0.5-0.7c0.2-0.2 0.3-0.5 0.5-0.7 0.2-0.5 0.5-1 0.7-1.4 0.4-0.9 0.6-1.7 0.7-2.3-0.2-0.7-0.1-1-0.1-1z"/><path d="m163.2 61.2s0.4 1 0.5 2.5c0 0.4 0 0.8-0.1 1.3 0 0.2-0.1 0.5-0.1 0.7s-0.1 0.5-0.2 0.7-0.1 0.5-0.2 0.7-0.2 0.5-0.3 0.7c-0.3 0.5-0.6 0.9-1 1.3s-0.8 0.7-1.3 1c-0.4 0.3-1 0.4-1.4 0.7-0.5 0.1-1 0.2-1.4 0.3-0.5 0.1-0.9 0-1.3 0h-0.6c-0.2 0-0.3-0.1-0.5-0.1-0.3-0.1-0.6-0.1-0.8-0.2-0.4-0.1-0.7-0.2-0.7-0.2s0.3 0 0.7-0.1c0.2 0 0.5-0.1 0.8-0.1s0.6-0.1 1-0.2 0.7-0.1 1.1-0.2 0.8-0.3 1.2-0.4c0.4-0.2 0.8-0.4 1.1-0.6 0.3-0.3 0.7-0.5 1-0.9 0.3-0.3 0.6-0.7 0.8-1l0.6-1.2c0.2-0.4 0.3-0.8 0.4-1.2s0.2-0.8 0.3-1.1c0.1-0.4 0.1-0.7 0.2-1 0-0.3 0.1-0.6 0.1-0.8 0-0.3 0.1-0.6 0.1-0.6z"/><path d="m161.8 57.5s0 0.1 0.1 0.2c0 0.1 0.1 0.2 0.1 0.4 0.1 0.3 0.1 0.8 0 1.2-0.1 0.9-0.5 1.6-0.5 1.6s0.1-0.8 0-1.6c-0.1-0.4-0.2-0.8-0.3-1-0.1-0.1-0.1-0.2-0.2-0.3-0.1-0.2 0-0.5 0.2-0.7 0.2-0.1 0.5 0 0.6 0.2z"/><path d="m129.7 74.1v0c0 0.1-0.1 0.2-0.1 0.3v0.4c0 0.1 0.1 0.3 0.1 0.5 0.1 0.2 0.2 0.3 0.3 0.5s0.3 0.3 0.5 0.5c0.4 0.3 0.9 0.6 1.4 0.8s1.1 0.4 1.6 0.6c0.3 0.1 0.5 0.1 0.8 0.2 0.2 0.1 0.5 0.1 0.7 0.2 0.9 0.1 1.4 0.2 1.4 0.2s-0.6 0-1.5-0.1c-0.2 0-0.5-0.1-0.7-0.1s-0.5-0.1-0.8-0.1c-0.5-0.1-1.1-0.2-1.7-0.4s-1.1-0.4-1.6-0.8c-0.2-0.2-0.5-0.3-0.7-0.5s-0.4-0.4-0.5-0.6-0.2-0.5-0.3-0.7c0-0.2-0.1-0.4-0.1-0.6s0-0.3 0-0.4 0-0.1 0-0.1c0.1-0.3 0.3-0.4 0.6-0.4 0.5 0 0.7 0.3 0.6 0.6z"/><path d="m144.7 69.3c0 0.1 0 0.1-0.1 0.2v0.3c0 0.1 0 0.3 0.1 0.4 0.1 0.2 0.1 0.3 0.3 0.5 0.1 0.2 0.3 0.3 0.5 0.5 0.4 0.3 0.9 0.6 1.4 0.8s1.1 0.4 1.6 0.6c0.3 0.1 0.5 0.1 0.8 0.2 0.2 0.1 0.5 0.1 0.7 0.2 0.9 0.2 1.4 0.3 1.4 0.3s-0.6 0-1.5-0.1c-0.2 0-0.5 0-0.7-0.1-0.3 0-0.5 0-0.8-0.1-0.6-0.1-1.1-0.2-1.7-0.4s-1.2-0.4-1.7-0.7c-0.2-0.2-0.5-0.3-0.7-0.6-0.2-0.2-0.4-0.4-0.5-0.7-0.1-0.2-0.2-0.5-0.3-0.7s-0.1-0.4-0.1-0.6 0-0.3 0-0.4 0-0.1 0-0.1c0.1-0.4 0.4-0.6 0.8-0.5s0.6 0.4 0.5 0.8c0.1 0.1 0 0.1 0 0.2z"/><path d="m152.9 62.4c0 0.1 0 0.1-0.1 0.2v0.3s0 0.3 0.1 0.4c0.1 0.2 0.1 0.3 0.3 0.5 0.1 0.2 0.3 0.3 0.5 0.5 0.4 0.3 0.9 0.6 1.4 0.8s1.1 0.4 1.6 0.6c0.3 0.1 0.5 0.1 0.8 0.2 0.2 0.1 0.5 0.1 0.7 0.2 0.9 0.2 1.4 0.3 1.4 0.3s-0.6 0-1.5-0.1c-0.2 0-0.5 0-0.7-0.1-0.3 0-0.5 0-0.8-0.1-0.6-0.1-1.1-0.2-1.7-0.4s-1.2-0.4-1.7-0.7c-0.2-0.2-0.5-0.3-0.7-0.6-0.2-0.2-0.4-0.4-0.5-0.7-0.1-0.2-0.2-0.5-0.3-0.7s-0.1-0.4-0.1-0.6v-0.4-0.1c0.1-0.4 0.4-0.6 0.8-0.5s0.6 0.4 0.5 0.8v0.2z"/><path class="st5" d="m146.3 99.1c0.9-12.9 11.2-23.6 24.5-24.5 14.6-1.1 27.3 9.9 28.4 24.5s-9.9 27.3-24.5 28.4c-9.4 0.7-18-3.6-23.2-10.6"/><polygon points="146.3 102.9 162.2 119 152.4 117.7 146.4 125.5"/><line class="st2" x1="102.3" x2="106.9" y1="86.3" y2="84.7"/><line class="st3" x1="76.7" x2="102.1" y1="68.1" y2="66.3"/><line class="st3" x1="76.9" x2="108.5" y1="59.5" y2="58.4"/></svg>
