<?xml version="1.0" encoding="UTF-8"?>
<svg width="226.8px" height="226.8px" enable-background="new 0 0 226.8 226.8" version="1.1" viewBox="0 0 226.8 226.8" xmlns="http://www.w3.org/2000/svg"><rect width="226.8px" height="226.8px" fill="#fff"/><style type="text/css">.st0{fill:#FFFFFF;} .st1{fill:url(#b);} .st2{fill:none;stroke:#000000;stroke-width:2;stroke-linecap:round;} .st3{fill:none;stroke:#000000;stroke-linecap:round;} .st4{fill:none;stroke:#000000;stroke-width:1.5;stroke-linecap:round;} .st5{fill:url(#a);} .st6{fill:none;stroke:#000000;stroke-width:0.5;stroke-linecap:round;}</style><rect class="st0" x=".1" width="226.7" height="226.7"/><linearGradient id="b" x1="32.525" x2="43.169" y1="-593.78" y2="-570.44" gradientTransform="matrix(1 0 0 -1 0 -387.89)" gradientUnits="userSpaceOnUse"><stop stop-color="#fff" offset="0"/><stop stop-color="#EDEDED" offset="1"/></linearGradient><path class="st1" d="m62.3 221.2 4.7-34.6 6.1-17.8s-9-1.1-10.9-0.5-16.2-4.1-16.2-4.1l-10.7-5.9-5.6-5.6-13.9 23.1-15.7 20.6s61.6 24.8 62.2 24.8z"/><path d="m10.7 184 14.4-23.7 4.9-7.9 0.1-0.1c1.1-1.3 2-3 2.4-4.7 0.2-0.9 0.3-1.7 0.2-2.6 0-0.4-0.1-0.8-0.2-1.3l-0.3-1.4c-0.7-3.8-1.3-7.6-2-11.3-1.2-7.6-2.4-15.1-3.5-22.7s-2.2-15.2-3.1-22.8c-0.1-1-0.2-1.9-0.3-2.9l-0.1-0.8v-0.5-0.3-0.2 0-0.1-0.4l-0.1-0.7c-0.2-1-0.2-2.2 0.1-3.3s0.9-2.2 1.6-3 1.6-1.5 2.4-2c0.4-0.3 0.8-0.5 1.4-0.8l0.6-0.3 0.8-0.3c2-0.7 3.9-0.9 5.5-1.6 0.8-0.3 1.5-0.8 2.1-1.3l2-2c0.9-0.8 1.7-1.3 2.7-1.8 0.9-0.5 1.8-0.8 2.8-1.2 3.7-1.3 7.5-2.2 11.3-2.9s7.6-1.3 11.4-1.9l1.4-0.2h0.4 0.6c0.4 0.1 0.6 0.2 0.9 0.3 1 0.6 1.7 1.4 2.4 2.1 1.3 1.5 2.4 3.1 3.4 4.8 1.9 3.4 3.6 6.8 5.3 10.2 0.8 1.7 1.6 3.5 2.4 5.2l1.2 2.6c0.4 0.9 0.8 1.8 0.9 2.8 0.1 1.1-0.2 2.1-0.8 2.9-0.5 0.8-1.2 1.6-1.8 2.3l-3.9 4.2-7.9 8.3 7.7-8.6c1.3-1.4 2.5-2.9 3.8-4.3 0.6-0.7 1.2-1.5 1.7-2.3s0.7-1.7 0.6-2.5c-0.1-0.9-0.5-1.7-0.9-2.6l-1.3-2.6-2.9-4.7c-1.8-3.4-3.5-6.8-5.5-10-0.9-1.6-2.1-3.1-3.3-4.5-0.6-0.7-1.3-1.3-1.9-1.7-0.2-0.1-0.3-0.1-0.4-0.1s0 0-0.1 0h-0.2s0.1 0 0 0h-0.1l-1.5 0.2c-3.8 0.6-7.5 1.3-11.2 2.1s-7.4 1.7-10.9 3c-0.9 0.3-1.7 0.7-2.5 1.1s-1.6 0.9-2.1 1.4c-0.1 0.1-0.3 0.3-0.4 0.5l-0.5 0.5c-0.3 0.4-0.7 0.8-1.1 1.1-0.8 0.7-1.7 1.3-2.7 1.7-2 0.8-3.9 1-5.5 1.7l-0.6 0.2-0.6 0.3c-0.3 0.2-0.8 0.4-1.1 0.7-0.7 0.5-1.4 1-2 1.6-0.5 0.6-0.9 1.3-1.1 2s-0.2 1.5 0 2.4l0.1 0.7c0 0.3 0.1 0.5 0 1.1v0.3 0.1-0.1-0.1 1c0.1 0.9 0.2 1.9 0.3 2.8 0.9 7.6 2 15.2 3 22.7l3.2 22.7c0.5 3.8 1.1 7.6 1.7 11.3l0.2 1.4c0.1 0.5 0.2 1 0.2 1.5 0.1 1.1-0.1 2.1-0.3 3.1-0.6 2-1.5 3.8-2.9 5.3l0.1-0.1-5.1 7.7-10.4 15.4-5.1 7.9z"/><path d="m92.2 96.2c0-0.1 0-0.2-0.1-0.3v-0.1h0.1v0.1c0.1 0.4 0.3 0.9 0.4 1.6 0.3 1.4 0.6 3.4 0.7 5.9 0.1 2.4 0.1 5.3-0.2 8.4-0.2 1.5-0.4 3.1-0.7 4.7s-0.7 3.2-1.1 4.8c-0.5 1.6-1 3.1-1.6 4.6s-1.2 3-1.9 4.3c-1.4 2.8-2.9 5.2-4.3 7.2s-2.7 3.5-3.7 4.6-1.5 1.6-1.5 1.6 0.4-0.7 1.2-1.9 1.8-2.9 3-5 2.5-4.6 3.6-7.3c0.6-1.4 1.1-2.8 1.7-4.3l1.5-4.5s0.8-3.1 1.2-4.6c0.3-1.5 0.6-3 0.8-4.5 0.5-3 0.7-5.7 0.8-8.1s0.1-4.4 0-5.8c0-0.7-0.1-1.3-0.1-1.6v-0.1h0.1v0.1c0 0.1 0 0.1 0.1 0.2v0z"/><line class="st2" x1="81.3" x2="66.1" y1="137.8" y2="195.5"/><path class="st3" d="m32.8 156s14.5 13.8 36.8 12.3"/><path class="st2" d="m37 72.2s21.4-4.1 25.3-4.5c3.8-0.4 7.3 5.8 8.8 8.8s7.6 13.3 4.1 16.9-9.4 7.1-9.4 7.1"/><path d="m45.8 87.4s0.2 0.1 0.6 0.2 0.9 0.3 1.5 0.4c1.3 0.3 2.9 0.7 4.5 0.7h1.2s0.8-0.1 1.2-0.1 0.7-0.1 1.1-0.2c0.4 0 0.7-0.1 1-0.2s0.6-0.1 0.9-0.2 0.5-0.1 0.7-0.2c0.4-0.1 0.6-0.1 0.6-0.1s-0.1 0.2-0.4 0.5l-0.5 0.5s-0.5 0.4-0.8 0.6-0.6 0.4-1 0.6-0.8 0.4-1.2 0.5-0.9 0.3-1.4 0.3c-0.5 0.1-1 0.1-1.4 0.1h-0.7l-0.7-0.3c-0.5-0.1-0.9-0.2-1.3-0.4s-0.8-0.3-1.2-0.5-0.7-0.4-1-0.6c-0.6-0.4-1-0.8-1.3-1.1s-0.4-0.5-0.4-0.5z"/><path d="m57.3 84.4s0.4 0.5 0.8 1.1c0.5 0.6 1 1.4 1.5 2.2 0.3 0.4 0.5 0.8 0.8 1.2s0.5 0.8 0.7 1.1 0.4 0.6 0.5 0.9l0.2 0.4s-0.2 0-0.4-0.1c-0.3-0.1-0.6-0.1-1-0.3s-0.8-0.4-1.3-0.8c-0.4-0.4-0.8-0.8-1.1-1.3s-0.6-1-0.7-1.5c-0.2-0.5-0.2-1-0.2-1.5-0.1-0.9 0.2-1.4 0.2-1.4z"/><path d="m59.7 88s-0.9 1.1-2.1 2.8c-0.3 0.4-0.6 0.9-0.9 1.4s-0.5 1.1-0.8 1.6c-0.3 0.6-0.5 1.2-0.7 1.8s-0.3 1.2-0.4 1.9c-0.1 0.6-0.1 1.3 0 1.9s0.1 1.2 0.3 1.8 0.3 1.1 0.6 1.7c0.1 0.3 0.2 0.5 0.4 0.8 0.1 0.2 0.2 0.5 0.4 0.7 0.3 0.4 0.5 0.9 0.7 1.2 0.2 0.4 0.4 0.7 0.6 0.9 0.4 0.5 0.5 0.8 0.5 0.8s-0.3-0.2-0.8-0.5c-0.5-0.4-1.2-0.9-2-1.7-0.4-0.4-0.8-0.9-1.1-1.4-0.4-0.5-0.7-1.1-0.9-1.8-0.1-0.3-0.3-0.7-0.3-1-0.1-0.4-0.2-0.7-0.2-1.1-0.1-0.8-0.1-1.5 0-2.3 0.2-1.5 0.7-3 1.5-4.2 0.7-1.2 1.6-2.2 2.3-3 1.5-1.7 2.9-2.3 2.9-2.3z"/><line class="st4" x1="65.7" x2="57.6" y1="100" y2="106.1"/><path d="m62.8 105.2s0.7 2.8 1.7 6.9c0.5 2.1 1.2 4.5 1.8 7.1 0.4 1.3 0.7 2.6 1.1 4s0.6 2.8 0.6 4.3c0.1 2.9-0.6 5.8-1.6 8.3s-2.4 4.7-3.7 6.4-2.6 3-3.5 3.8-1.5 1.3-1.5 1.3 0.5-0.5 1.4-1.4 2.1-2.2 3.3-3.9 2.5-3.9 3.4-6.4 1.5-5.3 1.4-8.1c0-1.4-0.3-2.8-0.6-4.1-0.4-1.4-0.7-2.7-1-4-0.7-2.6-1.2-5-1.6-7.2-0.9-4.1-1.2-7-1.2-7z"/><path d="m64.8 104.9s0.5 1.5 1.2 3.7c0.3 1.1 0.7 2.4 1.1 3.8s0.7 2.9 1.1 4.4c0.3 1.5 0.6 3.1 0.8 4.5s0.4 2.8 0.4 4c0 0.6 0.1 1.1 0 1.6v1.2c-0.1 0.7-0.1 1.1-0.1 1.1s0-0.4 0-1.1c0-0.3-0.1-0.7-0.1-1.2s-0.1-1-0.2-1.6-0.2-1.2-0.3-1.9-0.3-1.3-0.4-2.1c-0.3-1.4-0.6-2.9-0.9-4.5-0.7-3-1.3-6.1-1.8-8.3-0.5-2.1-0.8-3.6-0.8-3.6z"/><path class="st2" d="m78.8 96.1"/><path class="st4" d="m77.4 96.6-5.2 6.4s-2.1 0.6-3.9-1.8"/><path class="st4" d="m92.2 90.1-4.3 8.2s-1.4 1.1-3.1-1.3"/><path class="st4" d="m84.3 94.4-4.3 6.1s-2.1 0.6-3.9-1.8"/><path d="m57.1 58.4s0-0.1 0.1-0.3 0.3-0.4 0.6-0.6c0.5-0.5 1.4-1.1 2.4-1.7 1.1-0.6 2.3-1.2 3.7-1.7 0.7-0.3 1.4-0.6 2.2-0.8s1.5-0.5 2.3-0.7 1.6-0.4 2.3-0.5c0.8-0.2 1.5-0.3 2.3-0.4 1.5-0.2 2.9-0.3 4.1-0.3 0.6 0 1.2 0.1 1.7 0.1 0.5 0.1 0.9 0.1 1.3 0.2 0.3 0.1 0.6 0.2 0.8 0.2 0.2 0.1 0.3 0.1 0.3 0.1s-0.4 0-1.1 0.1-1.7 0.2-2.8 0.4-2.5 0.5-3.9 0.8c-0.7 0.2-1.4 0.4-2.2 0.5-0.7 0.2-1.5 0.4-2.2 0.6-0.8 0.2-1.5 0.4-2.2 0.6s-1.5 0.4-2.2 0.6c-1.4 0.4-2.7 0.8-3.8 1.1-1.1 0.4-2.1 0.7-2.7 0.9-0.3 0.1-0.6 0.3-0.7 0.4-0.2 0.3-0.3 0.4-0.3 0.4z"/><path d="m76.7 51.7s0.2-0.1 0.6-0.2 1.1-0.2 1.9-0.1 1.8 0.3 2.9 0.9c1 0.6 2 1.6 2.9 2.8 0.8 1.2 1.5 2.6 2.2 4s1.3 3 2 4.6c0.6 1.6 1.2 3.3 1.8 5s1.1 3.5 1.6 5.2c0.2 0.9 0.5 1.8 0.7 2.7l0.2 0.7 0.1 0.3v0.4 0.4 0.5c0 0.3-0.1 0.5-0.1 0.8-0.5 2-1.3 3.6-2.1 5.1s-1.7 2.9-2.6 4.3c-0.9 1.3-1.7 2.5-2.6 3.6-1.7 2.2-3.2 3.9-4.3 5s-1.8 1.7-1.8 1.7 0.6-0.7 1.6-1.9c1-1.3 2.3-3.1 3.7-5.4s3.1-5 4.5-8.1c0.7-1.5 1.4-3.1 1.6-4.7 0-0.2 0-0.4 0.1-0.5v-0.2-0.3l-0.2-0.5-0.2-0.6c-0.3-0.8-0.5-1.7-0.8-2.6-0.6-1.7-1.1-3.4-1.7-5.1s-1.1-3.3-1.7-4.9-1.1-3.1-1.7-4.6-1.1-2.8-1.7-4c-0.5-1.1-1.3-2-2.1-2.7s-1.6-1-2.4-1.3c-0.7-0.2-1.4-0.3-1.8-0.3-0.4-0.1-0.6 0-0.6 0z"/><path d="m65.1 54.2s0-0.1 0.1-0.3 0.3-0.4 0.5-0.6c0.5-0.5 1.3-1 2.3-1.6s2.2-1.1 3.5-1.6 2.7-1 4.2-1.4 2.9-0.6 4.3-0.8 2.7-0.2 3.9-0.1c1.1 0 2.1 0.2 2.7 0.4 0.3 0.1 0.6 0.2 0.7 0.2 0.2 0.1 0.3 0.1 0.3 0.1s-0.4 0-1 0.1-1.5 0.2-2.6 0.4c-0.5 0.1-1.1 0.2-1.7 0.3s-1.2 0.3-1.9 0.4c-1.3 0.3-2.7 0.6-4.1 1s-2.8 0.7-4.1 1.1-2.5 0.7-3.6 1c-1 0.3-1.9 0.6-2.5 0.9-0.3 0.1-0.5 0.2-0.6 0.3-0.3 0.1-0.4 0.2-0.4 0.2z"/><path d="m83.1 48.1s0.2-0.1 0.6-0.2 1-0.2 1.9-0.1c0.8 0.1 1.8 0.3 2.8 0.9s2 1.5 2.8 2.7c0.4 0.6 0.7 1.2 1.1 1.8 0.4 0.7 0.7 1.3 1 2 0.6 1.4 1.3 2.9 1.9 4.4l1.8 4.8c0.6 1.7 1.1 3.4 1.6 5.1 0.2 0.9 0.5 1.7 0.7 2.6l0.3 1.3 0.1 0.7v0.4 0.4c0 1.2-0.3 2-0.5 2.9-0.3 0.9-0.6 1.7-0.9 2.5-0.7 1.6-1.5 3-2.2 4.3-0.8 1.3-1.5 2.6-2.2 3.7-1.4 2.3-2.7 4.1-3.7 5.3-0.9 1.2-1.5 1.9-1.5 1.9s0.4-0.8 1.2-2.1c0.8-1.4 1.8-3.3 3-5.7s2.6-5.1 3.7-8.2c0.3-0.8 0.5-1.5 0.7-2.3s0.3-1.6 0.3-2.2v-0.2-0.2 0-0.1l0.1-0.5-0.4-1.2c-0.3-0.8-0.6-1.7-0.8-2.5-0.5-1.7-1.1-3.3-1.7-5-0.5-1.6-1.1-3.3-1.7-4.8-0.5-1.6-1.1-3.1-1.6-4.5-0.3-0.7-0.5-1.4-0.8-2-0.2-0.6-0.6-1.3-0.8-1.8-0.5-1.1-1.3-2-2.1-2.6s-1.6-1-2.3-1.2-1.3-0.3-1.7-0.3c-0.5-0.1-0.7 0-0.7 0z"/><path d="m65.1 99.4s-0.7 0.2-1.6 0.3c-0.5 0.1-1 0.2-1.6 0.3-0.3 0.1-0.6 0.2-0.9 0.2-0.3 0.1-0.6 0.2-0.9 0.3s-0.6 0.2-0.8 0.3c-0.1 0.1-0.3 0.1-0.4 0.2s-0.2 0.1-0.3 0.2c-0.2 0.1-0.4 0.3-0.6 0.5s-0.3 0.4-0.4 0.5l-0.3 0.6s-0.1 0.3-0.1 0.5c-0.1 0.3-0.1 0.4-0.1 0.4s-0.1-0.2-0.1-0.5c0-0.1-0.1-0.3-0.1-0.5s0-0.5 0.1-0.7c0.1-0.3 0.2-0.6 0.4-0.8s0.4-0.6 0.7-0.8 0.5-0.5 0.9-0.6c0.3-0.2 0.6-0.3 1-0.4 0.7-0.2 1.3-0.3 2-0.4h1.7c0.7 0.1 1.4 0.4 1.4 0.4z"/><path d="m77.2 96.1s-0.6 0.3-1.4 0.6c-0.4 0.2-0.9 0.4-1.4 0.6s-1 0.5-1.5 0.8c-0.2 0.2-0.5 0.3-0.7 0.5-0.1 0.1-0.2 0.2-0.3 0.2l-0.3 0.3c-0.2 0.2-0.3 0.4-0.5 0.6l-0.3 0.6c0 0.2-0.1 0.4-0.1 0.6s0 0.3 0 0.5v0.4s-0.1-0.1-0.2-0.4c0-0.1-0.2-0.3-0.2-0.5s-0.1-0.4-0.1-0.7c0-0.2 0.1-0.5 0.2-0.8s0.2-0.6 0.4-0.8c0.2-0.3 0.4-0.5 0.7-0.7 0.2-0.2 0.5-0.4 0.8-0.6 0.6-0.3 1.1-0.6 1.7-0.8s1.1-0.3 1.6-0.4h1.6z"/><line class="st2" x1="33.4" x2="11.2" y1="147.8" y2="183.2"/><path d="m76.3 98s0.4-0.8 1.2-1.8 1.9-2.3 3.1-3.5 2.4-2.4 3.4-3.2c0.5-0.4 0.9-0.8 1.2-1l0.4-0.4s-0.1 0.2-0.2 0.6c-0.2 0.3-0.4 0.8-0.8 1.3-0.7 1.1-1.8 2.5-2.9 3.7-1.2 1.2-2.5 2.3-3.5 3.1-1.1 0.8-1.9 1.2-1.9 1.2z"/><linearGradient id="a" x1="29.634" x2="37.206" y1="-658.5" y2="-647.26" gradientTransform="matrix(.9829 -.1842 -.1842 -.9829 .8816 -444.12)" gradientUnits="userSpaceOnUse"><stop stop-color="#fff" offset="0"/><stop stop-color="#EDEDED" offset="1"/></linearGradient><polygon class="st5" points="178.2 214 184.2 186 184.7 178.2 174.2 177.2 159.2 171.4 148.5 162.5 144.1 155.1 121.1 189"/><path class="st2" d="m128.1 180.4s18.3-28.6 20.5-32.9 9.2-58.2 9.2-58.2c0.6-6.5 4.2-15.1 5.2-17.9s6.8-22.7 6.8-22.7l10.5-26.4"/><path class="st2" d="m180.3 23.6c1.8-5.8 3.5-11.8 9.4-10.7 4.3 0.8 4.8 3.4 4.8 3.4"/><path class="st2" d="m178.4 79.5s5.3-26.6 7.1-31.2c1.8-4.7 8.2-25 8.2-25"/><path class="st2" d="m194.2 25.1s0-11.5 3.9-11.9 14-1 9.8 18-5.2 18.8-9.7 48.7"/><path class="st2" d="m196.7 85.5s9.3-11.4 12.6-11.4 8.3 3.7 7.5 7.7-9.7 18.4-9.7 18.4"/><path class="st2" d="m217.1 86.1c0.5-0.2 5.8 3.6 6.3 9.2 0.5 5.7-4.6 17.2-7.5 21.1"/><path class="st2" d="m216.7 111.6s-2.2 4.3-2.8 10.3c-1.1 12.1-13.6 42-26.4 48.9 0 0-6.7 29.6-7.8 36.6"/><path class="st3" d="m145.8 157.6s10.9 20.6 37 20.3"/><path d="m196.6 17.4v1s0 1.5 0 2.6c0 0.5 0 1.1 0.1 1.7 0 0.3 0.1 0.6 0.1 0.9 0.1 0.3 0.1 0.6 0.3 0.7 0.1 0.1 0.5 0.3 0.7 0.4 0.3 0.1 0.6 0.2 0.9 0.3 0.7 0.2 1.3 0.4 2 0.5s1.4 0.3 2.1 0.3h0.9c0.1 0 0.2 0 0.2-0.1l0.4-0.4c0.4-0.4 0.8-0.9 1.1-1.4s0.5-1.1 0.7-1.6c0.3-1 0.5-1.9 0.6-2.5s0.1-1 0.1-1 0 0.1 0 0.3v0.7c0 0.6-0.1 1.5-0.3 2.6-0.1 0.5-0.3 1.1-0.5 1.7-0.3 0.6-0.6 1.2-1.1 1.8-0.1 0.1-0.3 0.3-0.5 0.4-0.1 0.1-0.2 0.1-0.3 0.2l-0.2 0.1c-0.5 0.1-0.8 0.1-1.2 0.1-0.7 0-1.5-0.2-2.2-0.3s-1.4-0.3-2.1-0.5c-0.3-0.1-0.7-0.2-1-0.4s-0.6-0.3-1-0.6c-0.4-0.4-0.4-0.8-0.5-1.1 0-0.3-0.1-0.7-0.1-1 0-0.6 0-1.2 0.1-1.8 0.4-2.2 0.7-3.6 0.7-3.6z"/><path d="m183.3 16.5s0 0.3-0.1 0.9-0.1 1.5-0.2 2.5c0 0.5-0.1 1.1-0.1 1.6 0 0.6 0 1.2 0.1 1.7 0 0.2 0.8 0.5 1.3 0.7 0.6 0.2 1.3 0.3 1.9 0.4 0.7 0.1 1.3 0.2 2 0.3h0.9 0.4c0.2 0 0.3-0.1 0.4-0.1 0.5-0.2 0.9-0.6 1.3-1 0.3-0.4 0.6-0.9 0.8-1.3 0.4-0.9 0.6-1.7 0.7-2.3s0.2-0.9 0.2-0.9 0 0.1 0 0.2v0.7c0 0.6 0 1.5-0.4 2.5-0.2 0.5-0.4 1.1-0.7 1.6s-0.8 1-1.5 1.4c-0.2 0.1-0.4 0.2-0.5 0.2-0.2 0.1-0.4 0.1-0.6 0.1h-1.1c-0.7 0-1.4-0.1-2.1-0.2s-1.4-0.3-2-0.5c-0.3-0.1-0.7-0.2-1-0.4s-0.8-0.4-0.9-0.9c-0.2-0.8-0.1-1.4 0-2s0.2-1.2 0.3-1.7c0.4-2.3 0.9-3.5 0.9-3.5z"/><path class="st6" d="m187.4 48.8s6.6-0.8 10.8 2.8"/><path class="st6" d="m187 51.4s4.7 2.1 11 1.9"/><path class="st6" d="m172.2 46.9s6.6-0.8 10.8 2.8"/><path class="st6" d="m171.8 49.5s4.7 2.1 11 1.9"/><line class="st2" x1="175.3" x2="179.5" y1="79.9" y2="74.1"/><line class="st2" x1="208" x2="207.8" y1="98.5" y2="101.4"/><path d="m183.9 15h0.4c0.2 0 0.6-0.1 1-0.2 0.8-0.2 2-0.4 3.1-0.3 0.6 0.1 1.2 0.1 1.7 0.3 0.5 0.1 1 0.3 1.4 0.5s0.7 0.4 0.9 0.6c0.2 0.1 0.3 0.2 0.3 0.2s-0.1 0-0.4-0.1c-0.2-0.1-0.6-0.2-1-0.3s-0.9-0.2-1.4-0.3c-0.2-0.1-0.5-0.1-0.8-0.1s-0.5-0.1-0.8-0.1c-1.1-0.1-2.2 0-3-0.1-0.4 0-0.8 0-1-0.1-0.3 0.1-0.4 0-0.4 0z"/><path d="m197.2 15.5h0.4c0.2 0 0.6-0.1 1-0.2 0.8-0.2 2-0.4 3.1-0.3 0.6 0.1 1.2 0.1 1.7 0.3 0.5 0.1 1 0.3 1.4 0.5s0.7 0.4 0.9 0.6c0.2 0.1 0.3 0.2 0.3 0.2s-0.1 0-0.4-0.1c-0.2-0.1-0.6-0.2-1-0.3s-0.9-0.2-1.4-0.3c-0.2-0.1-0.5-0.1-0.8-0.1s-0.5-0.1-0.8-0.1c-1.1-0.1-2.2 0-3-0.1-0.4 0-0.8 0-1-0.1-0.2 0.1-0.4 0-0.4 0z"/></svg>
