<?xml version="1.0" encoding="UTF-8"?>
<svg width="344px" height="226.8px" enable-background="new 0 0 344 226.8" version="1.1" viewBox="0 0 344 226.8" xmlns="http://www.w3.org/2000/svg"><rect width="344px" height="226.8px" fill="#fff"/><path d="m92.6 91.7c-0.5-2-3-3.4-5.1-3.6-1.2-0.1-4 0-6.2 0.2-1.5 0.2-2.8 0.5-2.8 0.5l-6.4 0.5s-2.3-0.1-4.5 0.2-4.4 0.9-4.4 0.9-5.8 0.9-11.5 1.9c-5.3 1-10.3 2.1-10.3 2.1l-5.9 0.7 2.3-9.2s1.6-5 0.7-9.2c-0.9-3.9-4.2-7.1-4.2-7.1s-1.8-1-3.5-0.5-1.8 1.9-1.8 1.9l1.4 4.6c0 0.9-2.1 5.5-2.1 5.5s-0.7 0.8-1.2 1.8c-0.5 1.1-0.7 2.4-0.7 2.4s-0.5 0.7-1.1 1.8c-1.1 2.1-2.7 5.3-2.7 5.3s-2.1 1.9-3 4.4c-1 2.5-0.8 5.5-0.8 5.5l-2.7 9.6s-1.5 4.1-3.7 7.5c-2.8 4.2-9.4 11.3-9.6 11.4 0.7 2.2 3.2 9.5 7.2 14.8 4.9 6.4 13.1 9.4 13.1 9.4l1.2-1c2.6-2.2 5.2-4.1 5.2-4.1s1.5-1.4 3.1-2.3c1.4-0.8 2.8-1.1 2.8-1.1s8.9-2.5 14.1-5.1c8.3-4.1 14.2-9.3 14.2-9.3s3.7-1.2 6.1-2.6c2.3-1.4 3.8-3.3 3.8-3.3s1.3-1.1 1.4-2.4c0.2-1.7-1.2-3.8-1.2-3.8s3.4-2.2 4.2-5.8-2.8-4.8-2.8-4.8h-0.1 0.1c2.2-0.7 3-4.2 2.4-6.8-0.5-2.2-2.6-3.9-4.3-3.6l-0.5 0.2c0.2-0.1 0.3-0.1 0.5-0.2v-0.1l5.8-0.5 6.3-1s2.8-0.3 4.3-0.8 3.5-2.7 2.9-4.9z" fill="#fff"/><path d="m90.1 89.2s-2.2 0.1-2.5 0.3c-0.4 0.2-1.6 0.5-1.5 2.5s1.1 2.6 1.9 2.6c0.7 0 3.2-0.5 3.2-0.5s1-1 0.7-2.8c-0.4-1.6-1.8-2.1-1.8-2.1z" clip-rule="evenodd" fill="#fff" fill-rule="evenodd"/><path d="m90.1 88.9c-1.4 0.1-3.1 0-3.9 1.3-0.9 1.5-0.4 4.6 1.7 4.7 0.9 0.1 2.2-0.2 3.1-0.4 0.5-0.1 0.7-0.4 0.9-0.9 0.8-1.6 0.1-4-1.8-4.7-0.3-0.1-0.4 0.5-0.1 0.6 1.8 0.6 1.8 2.9 1.1 4.3-0.1 0.3-0.1 0.1-0.1 0.1-0.2 0.1-0.5 0.1-0.8 0.1-0.7 0.1-1.4 0.3-2.1 0.3-2 0.1-2.4-3.4-1-4.4 0.8-0.5 2-0.4 2.9-0.5 0.5 0.1 0.5-0.5 0.1-0.5z"/><path d="m67.4 97.7c-0.7-1.5-1.7-3.5-1.2-5.2 0-0.1 0.1-0.5 0.3-0.6 0.4-0.1 0.4 0.6 0.4 0.8 0.2 0.8 0.3 1.6 0.5 2.3 0.2 0.8 0.4 1.5 0.6 2.3 0.1 0.4 0.7 0.3 0.5-0.1-0.5-1.4-0.8-3.1-1.1-4.6-0.1-0.6-0.6-2.1-1.4-1.3s-0.5 2.5-0.2 3.5 0.7 2 1.1 3c0.1 0.4 0.7 0.4 0.5-0.1z"/><path d="m28.2 95.1c0.5 0.1 0.9 0.2 1.3 0.3 0.3 0.1 0.7 0.2 1 0.2 0.2 0 0.4 0.1 0.5 0.2 0.1 0 0.4 0.2 0.2 0.1 0.1 0.1 0.5 0.4 0.7 0.2 0.1-0.2-0.2-0.5-0.4-0.6-1.1-0.7-2.6-0.9-3.9-1.1-0.6-0.2 0.2 0.7 0.6 0.7z"/><path d="m27.2 97.4s3.4-1.3 6.9-2.1c3.5-0.9 7.1-1.3 7.1-1.3s5.1-1.1 10.3-2.1c5.7-1 11.5-1.9 11.5-1.9s2.2-0.6 4.4-0.9 4.5-0.2 4.5-0.2l6.4-0.5s1.2-0.3 2.8-0.5c2.2-0.2 5-0.3 6.2-0.2 2.1 0.2 4.6 1.6 5.1 3.6" clip-rule="evenodd" fill="none" fill-rule="evenodd" stroke="#000" stroke-miterlimit="10"/><path d="m92 91.1c0.3 6.5-13.4 6.1-18 6.7-5.4 0.7-13.8 5-18.9 2.8-0.7-0.3-0.5 0.8 0 1 5.8 2.6 15-2.3 21.2-2.9 5.1-0.5 17-0.1 16.7-7.3-0.1-0.5-1-1-1-0.3z"/><path d="m63.4 115.1c1.7-1.8 2.1-2 4.4-3 2.5-1 5.7-1.5 7.9-2.9 4.2-2.6 2.9-12.9-3-11.2-0.6 0.2-1 1.6-0.3 1.4 1.9-0.6 3.5 0.8 4.1 2.5 1 2.4 0.2 5.2-2.1 6.6-1.6 1-4 1.4-5.8 2.1-2.8 1.1-4 1.6-5.9 3.7-0.4 0.6 0 1.6 0.7 0.8z"/><path d="m63 125.6c0.3-0.5 0.5-0.9 0.8-1.4 0.2-0.3 1.1-1.6 0.4-1 0.8-0.5 2.3-0.7 3.2-1 2.1-0.7 4.6-1.1 6.5-2.1 4-2.2 7.2-9.8 1.4-11.8-0.6-0.2-1.3 1.1-0.6 1.4 4.3 1.5 2.2 7-0.7 9-1.1 0.8-2.8 1.1-4.2 1.5-1.6 0.5-4.2 0.8-5.6 1.8-1 0.7-1.5 2.2-2 3.2-0.4 0.7 0.4 1.3 0.8 0.4z"/><path d="m73.5 120.1c3.2 7-6.5 9-10.4 11.3-5.1 3-9.4 7-14.9 9.5-4.3 1.9-8.8 3-13.2 4.6-4.1 1.5-7.6 4.8-10.9 7.5-0.5 0.4-0.5 1.7 0.3 1.1 4.2-3.5 8-6.5 13.2-8.1 7.6-2.3 14.6-5.4 21.1-9.9 1.7-1.2 3.3-2.9 5.1-3.8 2.9-1.6 5.9-2.2 8.4-4.4 2.9-2.6 4.1-5 2.4-8.8-0.4-0.6-1.3 0.5-1.1 1z"/><path d="m29.4 71c0.3-4.1 4-1.2 5-0.6 2.5 1.4 3.6 6.9 3.6 8.9 0 2.1-0.5 4.1-1 6.1-0.7 3-1.5 6-2.2 8.9-0.1 0.5 0.8 1.7 1 1 1.4-5.7 4.3-12.9 2.9-18.9-0.6-2.6-2.4-6.3-4.8-7.7-1.8-1.1-5.4-1-5.6 1.7 0 0.5 1 1.5 1.1 0.6z"/><path d="m30.2 75.3c0 0.9-2.1 5.5-2.1 5.5s-0.7 0.8-1.2 1.8c-0.5 1.1-0.7 2.4-0.7 2.4s-0.5 0.7-1.1 1.8c-1.1 2.1-2.7 5.3-2.7 5.3s-2.1 1.9-3 4.4c-1 2.5-0.8 5.5-0.8 5.5l-2.7 9.6s-1.5 4.1-3.7 7.5c-2.8 4.3-9.6 11.4-9.6 11.4" clip-rule="evenodd" fill="none" fill-rule="evenodd" stroke="#000" stroke-miterlimit="10"/><path d="m28.8 70.5c0.5 0.2 2.5 1.4 2.5 1.4s0.5 2.1 0.3 3c-0.2 0.8-1.1 2.6-1.6 0.8-0.5-1.7-1.9-4.8-1.2-5.2z" clip-rule="evenodd" fill="#fff" fill-rule="evenodd"/><path d="m28.7 71c0.9 0.4 1.7 0.9 2.5 1.4-0.1-0.1-0.2-0.2-0.2-0.4 0.1 0.5 0.2 1.1 0.3 1.6s-0.2 3-1 1.8c-0.4-0.6-0.5-1.6-0.8-2.2-0.1-0.3-0.9-2-0.6-2.3s0-1.3-0.4-0.9c-0.9 0.9 0.2 3.1 0.5 4 0.3 0.8 1 4.2 2.3 2.3 0.9-1.3 0.7-3 0.3-4.5-0.1-0.4-0.3-0.5-0.7-0.8l-2.1-1.2c-0.4 0-0.5 1-0.1 1.2z"/><path d="m219 97s-0.4 1.4-0.3 2.9c0.1 1.7 0.5 3.7 0.5 3.7l-1.9 0.9s-2.4 0.3-2.5-2.5 1.6-3.2 1.6-3.2l2.6-1.8z" clip-rule="evenodd" fill="#fff" fill-rule="evenodd"/><path d="m218.7 97.1c-0.6 2.2-0.3 4.5 0.2 6.7 0.1-0.2 0.3-0.5 0.4-0.7-0.6 0.3-1.3 0.8-2 0.9-1.4 0.2-2.2-1.2-2.2-2.4-0.1-1.3 0.5-2.1 1.5-2.8 0.8-0.5 1.6-1.1 2.4-1.6 0.2-0.1 0.5-0.9 0.1-0.7-1.8 1.2-4 2-4.4 4.5-0.2 1.5 0.1 3.4 1.8 3.8 1 0.2 1.8-0.5 2.7-0.9 0.2-0.1 0.4-0.5 0.4-0.7-0.5-2.1-0.8-4.3-0.2-6.4 0-0.5-0.6 0-0.7 0.3z" fill="#1D1D1B"/><path d="m219.1 97.2s1.2-1.4 3.2-0.4c2.1 1 2.1 4.5 1.6 6.4-0.2 0.8-1.1 3.1-3 5-2.5 2.5-6.1 4.6-6.8 4.9-1.2 0.5-3.2 1.9-3.2 1.9s-0.6 0.4-0.7 1" clip-rule="evenodd" fill="none" fill-rule="evenodd" stroke="#1D1D1B" stroke-miterlimit="10"/><path d="m204.8 102.8c-0.1 1.5 0.4 3.1 1.2 4.5 0.1 0.2 0.5 0.2 0.4-0.1-0.7-1.3-1.3-2.8-1.1-4.3-0.1-0.2-0.5-0.4-0.5-0.1z" fill="#1D1D1B"/><path d="m219.1 97.1s-4.6 1.6-6.4 1.7c-0.9 0.1-3.4 0.3-5 1-1.5 0.7-2.1 1.8-2.1 1.8l-4.3 2.9s-2.7 1.3-3.9 4.2c-1.3 3.1-1 7.6-1 7.6v5.1" clip-rule="evenodd" fill="none" fill-rule="evenodd" stroke="#1D1D1B" stroke-miterlimit="10"/><path d="m207.3 117.3c4.7 2.9 9.7 5.4 14.8 7.7 1 0.5 0.1-0.8-0.4-1-4.9-2.3-9.8-4.6-14.4-7.5-1-0.7-0.7 0.4 0 0.8z" fill="#1D1D1B"/><path d="m216.7 112.7c2.1 2.3 3.6 5.3 4.3 8.3 0.2 1 1 0.3 0.9-0.4-0.8-3.4-2.4-6.6-4.7-9.2-0.6-0.5-0.9 0.9-0.5 1.3z" fill="#1D1D1B"/><path d="m219.9 120.3c3.8 1.8 7.7 3.3 11.8 4.1 0.5 0.1 1.7-0.4 0.8-0.6-4-0.8-7.9-2.3-11.5-4-0.4-0.1-1.8 0.2-1.1 0.5z" fill="#1D1D1B"/><path d="m222.2 126.4c1.7-2.9 8.2-2.4 10.9-1.4 0.4 0.1 0.8-0.7 0.4-0.9-3.1-1.2-9.9-1.4-11.8 1.9-0.4 0.6 0.1 1 0.5 0.4z" fill="#1D1D1B"/><path d="m232.9 125c3.6-1.5 7.5-1.5 11.3-0.6 0.4 0.1 0.8-0.8 0.4-0.9-3.9-0.9-7.9-0.9-11.7 0.7-0.3 0.1-0.5 1.1 0 0.8z" fill="#1D1D1B"/><path d="m244.5 124.6c1.9-2.5 4.6-5.8 8.1-5.8 0.5 0 0.5-1.2 0-1.2-3.6-0.1-6.5 3.4-8.4 5.9-0.4 0.4 0 1.6 0.3 1.1z" fill="#1D1D1B"/><path d="m256.5 104.7c-3.1 1.7-4.3 5-3.9 8.3 0.1 0.6 1.3 0.5 1.2 0-0.4-3 0.4-6 3.1-7.5 0.6-0.3 0.1-1.1-0.4-0.8z" fill="#1D1D1B"/><path d="m255.8 109.7c-0.2-2.8 3.4-8.4 6.3-5.3 0.4 0.4 1-0.3 0.6-0.7-3.6-3.7-8 2.6-7.8 6.1 0.1 0.5 1 0.4 0.9-0.1z" fill="#1D1D1B"/><path d="m232.4 150.6c2.5 0.4 4.7 0.3 6.8-1.2 1.2-0.8 1.7-1.1 3-1.7 1.2-0.6 2.3-1.4 3.2-2.4 0.5-0.5-0.3-0.9-0.7-0.5-1.5 1.5-3.2 1.9-4.9 3-1.4 0.9-2.4 2-4.1 2.2-1 0.1-2.1 0-3.1-0.2-0.5-0.1-0.9 0.7-0.2 0.8z" fill="#1D1D1B"/><path d="m186.5 127.3c2-1.7 4.2-3.3 6.2-5.1 1.7-1.6 3.1-3.8 4.1-5.8 0.2-0.3-1-0.5-1.2-0.1-1.1 2.2-2.5 4.4-4.4 6.1-1.9 1.6-3.9 3.1-5.8 4.7-0.3 0.2 0.8 0.4 1.1 0.2z" fill="#1D1D1B"/><path d="m200.9 150.2s9.2-3.9 15.7-3.5c5.3 0.3 10.8 3.3 10.8 3.3s2.2 1 3.9 0.3c1.7-0.6 3.7-1.6 4.1-1.8s3.6-1.7 6.5-2.9c1.9-0.8 3-0.9 4-1.4s9.6-4.3 9.6-4.3 2.3-1.2 3.9-2.7c1.2-1.1 1.8-2.7 1.8-2.7l5.3-11.4s0.6-1.4 0.6-2.9c0-1.6-0.6-3.3-0.6-3.3l-2-8.7-0.6-2.9c0.3 0-1.3-1-2.9-0.8s-2.8 2.1-2.8 2.1" fill="none" stroke="#000" stroke-miterlimit="10"/><path d="m252 118.2s0.6-3.4 1.6-5.4c1.4-2.9 3.8-4.8 3.8-4.8s1.5-1.1 3.3-1c1.8 0 2.4 1.8 2.4 1.8" clip-rule="evenodd" fill="none" fill-rule="evenodd" stroke="#1D1D1B" stroke-miterlimit="10"/><path d="m229.4 142c5.6-2.6 11.4-3.2 17.2-5 3.4-1 5.7-3.4 8.1-5.8 2.2-2.3 4.9-4.4 6.4-7.2 1.8-3.5 1.6-6.3 1.5-10.1 0-0.6-1-0.6-1 0.1 0.2 3.9 0.3 7.1-1.9 10.5-1.6 2.5-4.2 4.5-6.2 6.6-2.5 2.7-5.2 4.6-8.9 5.3-5.3 1.1-10.5 2.4-15.4 4.7-0.6 0.2-0.3 1.1 0.2 0.9z" fill="#1D1D1B"/><path d="m261.1 109s-0.4 3.8-0.2 4.8 0.9 1 1.5 0.1 1.1-4.5 1.1-4.5-0.6-1.6-2.4-0.4z" clip-rule="evenodd" fill="#fff" fill-rule="evenodd"/><path d="m260.9 108.9c-0.2 1.4-0.3 2.9-0.3 4.3 0 0.5 0.1 1.3 0.8 1.5s1.2-0.6 1.4-1.1c0.3-0.8 0.5-1.7 0.7-2.5 0.1-0.5 0.4-1.3 0.3-1.7-0.2-1.4-1.9-1.1-2.8-0.6-0.3 0.2 0 0.6 0.3 0.4 0.7-0.4 1.4-0.6 2 0.1 0.1 0.1 0.1 0.2 0.1 0.1 0 0.1 0 0.2-0.1 0.3-0.2 1.1-0.4 2.2-0.8 3.3-0.1 0.2-0.1 0.6-0.3 0.7-0.1 0.1-1 0-1.1-0.1v-0.3c-0.1-0.5 0-1.1 0-1.7 0-0.9 0.1-1.8 0.2-2.6 0.1-0.3-0.4-0.4-0.4-0.1z" fill="#1D1D1B"/><path d="m261.1 109s-0.4 3.8-0.2 4.8 0.9 1 1.5 0.1 1.1-4.5 1.1-4.5-0.6-1.6-2.4-0.4z" clip-rule="evenodd" fill="#fff" fill-rule="evenodd"/><path d="m261 109c-0.2 1.4-0.4 3-0.3 4.4 0.1 1.6 1.4 1.4 1.9 0.2 0.4-0.8 0.5-1.8 0.7-2.7 0.1-0.4 0.3-1.1 0.3-1.5-0.2-1.3-1.9-0.9-2.6-0.5-0.2 0.1 0 0.3 0.1 0.2 0.6-0.4 1.7-0.6 2.1 0.2 0.1 0.2 0.1 0.3 0 0.6-0.2 1.2-0.4 2.4-0.9 3.6 0 0.1-0.1 0.2-0.1 0.3-0.2 0.4-0.3 0.5-0.8 0.4-0.5-0.2-0.5-0.4-0.5-0.9v-1.7c0.1-0.9 0.1-1.7 0.2-2.6 0.2-0.2-0.1-0.2-0.1 0z" fill="#1D1D1B"/><path d="m139.9 102c0.7 7.4-2.3 16-7.4 21.3-0.3 0.3-0.6 1.6 0.1 0.9 5.6-5.8 8.9-15.1 8.2-23.2 0-0.5-0.9 0.6-0.9 1z" fill="#1D1D1B"/><path d="m136.6 119c0.1 3.9-1.9 7.9-3.9 11-0.4 0.7 0.5 0.2 0.8-0.1 2.2-3.3 4.2-7.5 4.1-11.6-0.1-0.3-1 0.3-1 0.7z"/><path d="m145.6 95.1c-1.1 2.6-3.1 4.8-6.1 5.2-0.8 0.1 0.1 1 0.6 0.9 3.2-0.4 5.5-2.8 6.7-5.6 0.3-0.6-0.9-1.1-1.2-0.5z" fill="#1D1D1B"/><path d="m145.6 95.4c3.6 0.8 7.3 0.4 10.6-1.2 0.6-0.3-0.4-1.1-0.9-0.9-3 1.5-6.4 1.9-9.7 1.1-0.9-0.1-0.7 0.9 0 1z" fill="#1D1D1B"/><path d="m156 93.9c3.1 0.2 6 0 8.9-1.4 0.6-0.3-0.4-1.1-0.9-0.9-2.7 1.3-5.4 1.4-8.3 1.2-0.9 0.1-0.3 1.1 0.3 1.1z" fill="#1D1D1B"/><path d="m164.1 92.3c3.6 1.2 7 1.2 10.5-0.1 2.3-0.9 6.1-4.8 3.4-7.2-0.5-0.4-1.6-0.1-0.9 0.5 2.3 2.1-2 5.4-3.7 6-3.1 1-5.9 1.1-9 0.1-0.7-0.4-1.1 0.4-0.3 0.7z" fill="#1D1D1B"/><path d="m127.5 85.3s2.2-1.9 3.5-2 3.5 0.3 4.4 0.5c0.9 0.1 3.8 0.2 5.4 0.2s7.2-0.4 7.2-0.4 1.5-0.5 3.3-0.6c2.6-0.1 5.9 0.4 5.9 0.4s3-0.2 5.3-0.2c2.7 0 4.8 0.2 4.8 0.2l2.7 0.4" clip-rule="evenodd" fill="none" fill-rule="evenodd" stroke="#1D1D1B" stroke-miterlimit="10"/><path d="m176.8 85.8-6.5-1.1s-2.4-1.4 0-1.3 6.6 0.2 7.2 0.7-0.7 1.7-0.7 1.7z" clip-rule="evenodd" fill="#fff" fill-rule="evenodd"/><path d="m176.8 85.5c-1-0.2-2-0.3-3-0.5-1.1-0.2-2.5-0.2-3.5-0.6 0.2 0.1-0.1-0.1-0.2-0.2-0.5-0.4-0.4-0.5 0.3-0.6 1-0.1 2.1 0.1 3.1 0.1 0.9 0.1 1.9 0.1 2.8 0.2 0.7 0.1 1.1 0.2 0.7 1-0.1 0.2-0.4 0.4-0.6 0.6-0.3 0.3 0.4 0.5 0.6 0.3 0.4-0.4 1.2-1.1 0.9-1.7s-1.6-0.6-2.1-0.7c-1.6-0.2-3.2-0.2-4.8-0.3-0.4 0-1.9-0.3-2.1 0.4-0.2 1.1 1.8 1.4 2.4 1.5 1.8 0.3 3.6 0.6 5.4 0.9 0.5 0.2 0.5-0.3 0.1-0.4z" fill="#1D1D1B"/><path d="m121.2 84.8s1.2-4.4 2.8-5.1c1.5-0.7 2.4-0.9 6.6-0.2s7.7 0.8 9.9 0.9 8.1 0 8.1 0 1.8-0.5 3.9-0.4 4.5 0.6 4.5 0.6l6.4 0.4s1.9-0.3 3.7 0c3.5 0.4 9.3 1.1 9.3 1.1l3.8 0.4" clip-rule="evenodd" fill="none" fill-rule="evenodd" stroke="#1D1D1B" stroke-miterlimit="10"/><path d="m182.2 81.8c-6.9-0.7-13.3-3.7-20.1-4.2-5.6-0.4-11.2-1-16.8-0.9-3.4 0.1-7 0.5-10.4 0.3-2.9-0.1-5.8-0.9-8.8-1.1-4.7-0.2-6.4 2.1-7.6 6.3-1.9 6.7-4.1 13.2-6.6 19.6-2.2 5.6-4.9 11.1-7.1 16.7-2.4 6.1-4.3 11-8.1 16.3-0.3 0.4 0.4 1.4 0.7 0.9 5.8-8.1 9-17.7 12.8-26.9 2.4-5.8 4.7-11.8 6.7-17.8 1.1-3.5 1.8-11.8 5.7-13.4 3.4-1.5 8.7 0.4 12.2 0.6 3 0.2 6-0.1 9-0.2 5.9-0.2 11.6 0.4 17.5 0.7 7.3 0.5 14 3.5 21.3 4.3 0.5 0 0.1-1.2-0.4-1.2z" fill="#1D1D1B"/><path d="m184.7 87.5c0.9-1.3 1.2-2.8 0.4-4.2-0.2-0.4-0.5-0.9-0.9-1.1-0.5-0.2-1.1-0.2-1.6-0.2-0.5-0.1-0.9 0.7-0.3 0.8 0.4 0.1 0.8 0.1 1.2 0.2 0.1 0 0.5 0.2 0.3 0-0.3-0.2 0.2 0.4 0.2 0.4 0.8 1.2 0.7 2.6-0.1 3.8-0.4 0.5 0.6 0.7 0.8 0.3z" fill="#1D1D1B"/><path d="m180 82.4c1.6 0.1 4.6 0.3 4.6 0.3l-0.8 1.3s-3-0.3-4.1-0.5c-1.1-0.3-1.1-1.2 0.3-1.1z" clip-rule="evenodd" fill="#fff" fill-rule="evenodd"/><path d="m180 82.7c1.5 0.1 3.1 0.2 4.6 0.3l-0.3-0.3c-0.3 0.4-0.5 0.9-0.8 1.3 0.1 0 0.2-0.1 0.4-0.1-0.6-0.1-1.2-0.1-1.8-0.2-0.5-0.1-0.9-0.1-1.4-0.2-0.2 0-0.5-0.1-0.7-0.1-0.1 0-0.2 0-0.2-0.1-0.6-0.2-0.5-0.4 0.2-0.6 0.4 0 0.5-0.5 0-0.5s-1.3 0-1.5 0.5c-0.2 0.6 0.7 0.9 1.1 1 1.3 0.4 2.8 0.4 4.1 0.5 0.1 0 0.3 0 0.4-0.1 0.3-0.4 0.5-0.9 0.8-1.3 0.1-0.2-0.2-0.3-0.3-0.3-1.5-0.1-3.1-0.2-4.6-0.3-0.4-0.1-0.4 0.4 0 0.5z" fill="#1D1D1B"/><path d="m177 91.5c4.3-0.2 11.2-3.3 8.3-8.6-0.3-0.5-1.5-0.5-1.1 0.2 2.5 4.5-4 7.2-7.5 7.4-0.9 0.1-0.3 1.1 0.3 1z" fill="#1D1D1B"/><line x1="178.9" x2="178.5" y1="82.2" y2="82.8" clip-rule="evenodd" fill="none" fill-rule="evenodd" stroke="#1D1D1B" stroke-miterlimit="10"/><path d="m143.1 100c2 2.6 4.5 1.6 6.5-0.1 2.3-1.9 4.6-3.7 6.9-5.6 0.7-0.5-0.3-1.1-0.9-0.7-1.5 1.2-2.9 2.3-4.4 3.5-1.8 1.5-4.8 5.1-7 2.2-0.4-0.4-1.5 0.2-1.1 0.7z"/><path d="m176.1 90.8c2.5 4.7-3.5 6.7-6.7 8.5-3.3 1.9-6.5 3.2-9.2 5.9-3.6 3.6-6.7 7.5-9.9 11.4-2.3 2.8-4.6 5.9-7.5 8.1-3.7 2.9-8.3 4.1-11.9 7.2-5.2 4.5-8.2 10.4-11.7 16.3-0.2 0.4 0.9 0.6 1.1 0.2 3.9-6.5 7.4-13.5 14-17.7 3.8-2.4 7.2-2.9 11.6-7.2 2.6-2.5 4.8-5.5 7.1-8.3 3.4-4.2 6.9-9.4 11.6-12.1 3.8-2.3 8.2-3.9 11.7-6.6 2.1-1.7 2.5-3.3 1.2-5.7-0.2-0.5-1.7-0.4-1.4 0z"/><path d="m157.7 93.4c1.1 2.4 2.3 4.5 3.9 6.7 0.1 0.2 1 0.6 0.7 0.2-1.5-2.1-2.7-4.2-3.8-6.5-0.1-0.3-1-0.8-0.8-0.4z"/><path d="m147 102.5c1.5 1.4 2.7 2.9 3.5 4.8 0.6 1.6 1.2 3.2 1.7 4.8 0.2 0.5 0.3-0.2 0.2-0.4-0.6-1.8-1.2-3.6-1.9-5.3-0.7-1.8-2-3.2-3.4-4.5-0.2-0.3-0.3 0.4-0.1 0.6z"/><path d="m328.2 88.1c-0.9 1.8-1.6 4.3-0.8 6.3 1.3 3.3 5.3 4.6 8.5 5.3 0.3 0.1 1-0.2 0.5-0.3-6-1.3-10.3-4.9-7.3-11.1 0.1-0.3-0.8-0.4-0.9-0.2z" fill="#1D1D1B"/><path d="m327.1 93.7s-2.6 3-2.9 6.3c-0.8 0.2-2.5 0.2-2.5 0.2" clip-rule="evenodd" fill="none" fill-rule="evenodd" stroke="#1D1D1B" stroke-miterlimit="10"/><path d="m314.8 93.4c4.7 3.8 8.6 9.2 11.6 14.4 0.2 0.3 1.3 0.2 1.2-0.1-3-5.3-6.9-10.7-11.7-14.6-0.3-0.2-1.5 0-1.1 0.3z" fill="#1D1D1B"/><path d="m323.9 100.4c0 0.2 0.1 0.5 0.2 0.7 0.4 0.9 1.1 1.6 1.8 2.3 0.2 0.2 0.5 0.5 0.7 0.4 0.2 0 0.2-0.3 0-0.4-0.6-0.6-1.2-1.2-1.6-2-0.1-0.2-0.2-0.3-0.1-0.4 0.1-0.3-0.9-0.9-1-0.6z" fill="#1D1D1B"/><path d="m308.6 102.9c2.7 2.5 3 6.5 3.8 9.9 0.5 2.3 1.4 4.4 2 6.7 1 3.9 1.7 8.9 0.6 12.8-1.2 4.2-5.4 6.7-9.5 7.7-0.5 0.1-0.1 0.6 0.3 0.5 8.8-2.1 11.1-8.8 10.1-17.1-0.5-3.9-2.1-7.3-2.9-11.1-0.7-3.4-1.1-7.2-3.8-9.7-0.3-0.4-1 0-0.6 0.3z" fill="#1D1D1B"/><path d="m302.7 153.6c2.8-5.3 6.2-9.4 6.2-9.4l9.9-12.6s1.9-1.9 3.5-3.8c1.1-1.4 1.9-3 1.9-3s1.1-3.2 2.3-5.6c0.9-1.8 1.8-3.1 1.8-3.1l2.3-3.4s4.5-6.4 7.1-10.1c1.1-1.6 1.7-2.6 1.7-2.6s1.6-1.7 1.8-3.1c0.2-1.3-0.6-2.5-0.6-2.5s-1.1-2-1.2-2.8 0.4-2.4 0.6-3.5c0.3-1.1 1.8-2.1 1.2-4.3s-3.1-2.9-3.1-2.9" clip-rule="evenodd" fill="none" fill-rule="evenodd" stroke="#000" stroke-miterlimit="10"/><path d="m315.7 84.1s2.2 0.8 4.2 0.9c1.6 0 3-0.8 3-0.8" clip-rule="evenodd" fill="none" fill-rule="evenodd" stroke="#1D1D1B" stroke-miterlimit="10"/><path d="m309.3 93c2.8-1.5 7.9-4.8 7-8.5-0.1-0.4-1.1-0.4-1 0.1 0.8 3.4-4.2 6.5-6.7 7.9-0.5 0.3 0.3 0.7 0.7 0.5z" fill="#1D1D1B"/><path d="m328.1 87c1.2 2.3 3.8 3.5 6.3 3.6 2.1 0 5.2-0.8 5.6-3.3 0.1-0.6-0.8-0.8-0.9-0.2-0.4 2.4-4 2.8-5.8 2.4-1.7-0.3-3.5-1.4-4.3-3-0.4-0.7-1.2-0.1-0.9 0.5z" fill="#1D1D1B"/><path d="m294.2 93.7c0.8-2.1 2.4-3.7 4.5-4.4 0.5-0.2 0.1-0.7-0.3-0.5-2.4 0.8-4.1 2.5-5 4.9-0.1 0.4 0.7 0.4 0.8 0z" fill="#1D1D1B"/><path d="m300.1 88 8.1-9.5s1.1-1.5 2.4-2.3c0.9-0.6 2.2-0.4 2.4-0.5 0.3-0.1 2.5-0.5 4.8-0.6 2.5-0.1 5 0.1 5 0.1s1.4 0 2.7 0.4c1 0.3 1.8 1 1.8 1l5.9 3.8 2.5 1.7" clip-rule="evenodd" fill="none" fill-rule="evenodd" stroke="#1D1D1B" stroke-miterlimit="10"/><path d="m309.2 102.7c2.7-2.4 3.9-6.2 3.6-9.7-0.1-0.6-1-0.6-1 0.1 0.3 3.3-0.8 6.7-3.3 8.9-0.5 0.4 0.2 1.1 0.7 0.7z" fill="#1D1D1B"/><path d="m313 96.1c3-2.8 4.6-6.4 4.7-10.5 0-0.9-0.9-0.9-0.9 0-0.1 3.6-1.8 6.7-4.3 9.2-0.4 0.4-0.1 1.8 0.5 1.3z" fill="#1D1D1B"/><path d="m336.2 82.1s-0.6 2.5-2.3 3.5c-1.9 1.1-5 0.9-5 0.9s-1.9-0.2-3.5-1c-1.4-0.7-2.5-1.8-2.5-1.8" clip-rule="evenodd" fill="none" fill-rule="evenodd" stroke="#1D1D1B" stroke-linecap="round" stroke-miterlimit="10" stroke-width=".95"/><path d="m338.4 87.1-1.9-1.9c-0.4-0.5-0.7-2 0.1-1.4s3.1 3.1 3.1 3.1l-1.3 0.2z" clip-rule="evenodd" fill="#fff" fill-rule="evenodd" stroke="#1D1D1B" stroke-miterlimit="10" stroke-width=".4"/><path d="m280.8 141c2.5-4.2 4.4-8 4.4-8s2.5-6.2 4.1-16.8c1.6-10 2.3-24.2 2.3-24.2s-0.2-3.6 1-5.9 3.8-3.4 3.8-3.4 2.2-1.7 4.5-4c3.3-3.2 7-7.4 7-7.4s1.5-1.8 3.2-2.4c2-0.6 4.3 0 4.3 0l7.6 2.2s2.4 0.8 4.4 1.9c1.9 1.1 3.5 2.6 3.5 2.6l2.1 3.4" clip-rule="evenodd" fill="none" fill-rule="evenodd" stroke="#1D1D1B" stroke-miterlimit="10"/><path d="m337.9 82.4s-1-4.8-1.5-6.5-0.5-1.6-1.4-2.8c-1.1-1.4-2.6-2.5-2.6-2.5l-4.1-1.6s-0.8-0.4-1.5-0.6c-1.1-0.4-2.3-0.6-2.3-0.6l-5.4-1.5s-1.6-0.9-3-0.8c-1 0.1-2.1 1.1-2.1 1.1l-2.3 2.2" clip-rule="evenodd" fill="none" fill-rule="evenodd" stroke="#1D1D1B" stroke-miterlimit="10"/><path d="m337.9 82.4 1.7 4-1.3-3s-2-2.2-1.1 1" clip-rule="evenodd" fill="#fff" fill-rule="evenodd" stroke="#1D1D1B" stroke-miterlimit="10" stroke-width=".5"/></svg>
