<?xml version="1.0" encoding="UTF-8"?>
<svg width="226.77px" height="226.77px" enable-background="new 0 0 226.77 226.77" version="1.1" viewBox="0 0 226.77 226.77" xmlns="http://www.w3.org/2000/svg"><rect width="226.77px" height="226.77px" fill="#fff"/><linearGradient id="a" x1="54.38" x2="81.149" y1="217.55" y2="222.55" gradientTransform="matrix(.2093 -.9779 .9779 .2093 -162.59 197.71)" gradientUnits="userSpaceOnUse"><stop stop-color="#fff" offset="0"/><stop stop-color="#EDEDED" offset="1"/></linearGradient><polygon points="86.668 199.03 103.07 165.29 82.635 158.8 72.295 151.64 63.65 143.96 59.561 150.02 52.718 160.15 34.207 180.75" fill="url(#a)"/><path d="m68.764 147.75s8.366 12.493 31.089 16.873" fill="none" stroke="#000"/><path d="m117.23 64.926c11.561-1.578 29.759-3.239 32.661-3.239 6.4 0 17.467 17.6 17.867 22.4s-5.2 10.533-5.2 10.533" fill="none" stroke="#000" stroke-linecap="round" stroke-width="2"/><path d="m40.917 173.64s29.133-36.4 29.667-38c0.533-1.6 23.667-62.291 23.667-62.291 0.871-2.428 13.182-6.313 19.828-7.968" fill="none" stroke="#000" stroke-linecap="round" stroke-width="2"/><path d="m116.54 66.402s24.014-0.314 28.014-0.314 5.6 3.2 8 6.4 11.2 18.4 8 24.4-6.024 7.731-7.461 9.179" fill="none" stroke="#000" stroke-linecap="round" stroke-width="2"/><path d="m104.96 71.287s26.8 0.8 30.8 1.2 3.562-1.128 8.8 9.467c6.024 12.183 4.634 18.747 1.034 25.547" fill="none" stroke="#000" stroke-linecap="round" stroke-width="2"/><path d="m102.96 79.687s21.8-0.097 24.8 0.8c3.832 1.146 12.56 15.362 12.96 18.562s-0.497 6.87-1.297 8.87" fill="none" stroke="#000" stroke-linecap="round" stroke-width="2"/><line x1="138.33" x2="136.46" y1="106.81" y2="117.44" fill="none" stroke="#000" stroke-linecap="round" stroke-width="2"/><path d="m106.39 158.49s21.37-6.005 40.17-28.805c11.764-14.267 26-16 39.2-14.4-3.817-0.529 1.115 0.556 7.184 0.332 4.813-0.178 7.616-2.732 5.216-8.732s-14-11.2-22.4-11.2-16.296 3.058-16.296 3.058" fill="none" stroke="#000" stroke-linecap="round" stroke-width="2"/><path d="m136.51 107.61s-0.581 0.575-1.352 1.441c-0.76 0.868-1.728 2.058-2.224 3.371-0.076 0.16-0.118 0.327-0.164 0.493-0.057 0.163-0.101 0.328-0.121 0.495-0.08 0.346-0.092 0.635-0.059 0.801 0.06 0.407 0.569 0.844 1.015 1.196 0.453 0.358 0.858 0.672 1.117 0.919 0.265 0.241 0.4 0.4 0.4 0.4s-0.199-0.046-0.548-0.126c-0.345-0.086-0.824-0.208-1.404-0.427-0.294-0.106-0.602-0.254-0.938-0.476-0.331-0.214-0.685-0.576-0.877-1.078-0.209-0.543-0.145-1.039-0.075-1.45 0.058-0.436 0.195-0.865 0.365-1.267 0.163-0.409 0.383-0.784 0.616-1.136 0.243-0.346 0.504-0.662 0.767-0.954 0.55-0.564 1.121-1.009 1.641-1.337 1.037-0.666 1.841-0.865 1.841-0.865z"/><path d="m143.87 106.21s-0.573 0.589-1.335 1.462c-0.752 0.875-1.703 2.07-2.195 3.369-0.075 0.159-0.117 0.324-0.162 0.488-0.056 0.162-0.101 0.324-0.12 0.489-0.079 0.343-0.093 0.626-0.06 0.776 0.033 0.194 0.155 0.392 0.341 0.604 0.18 0.213 0.428 0.389 0.642 0.581 0.449 0.363 0.851 0.684 1.107 0.937 0.262 0.246 0.395 0.409 0.395 0.409s-0.201-0.042-0.553-0.116c-0.348-0.08-0.83-0.196-1.414-0.41-0.297-0.104-0.607-0.25-0.948-0.472-0.333-0.216-0.709-0.574-0.899-1.093-0.209-0.558-0.148-1.06-0.076-1.474 0.058-0.44 0.197-0.872 0.368-1.277 0.164-0.412 0.388-0.788 0.621-1.143 0.24-0.351 0.505-0.667 0.775-0.955 0.557-0.563 1.132-1.007 1.657-1.331 1.044-0.659 1.856-0.844 1.856-0.844z"/><path d="m151.81 106.06s-0.748 0.36-1.771 0.989c-1.014 0.63-2.319 1.563-3.173 2.796-0.193 0.318-0.391 0.63-0.526 0.968l-0.057 0.123c0.01-0.048-0.02 0.069-0.028 0.096l-0.04 0.143c2e-3 0.025 5e-3 0.043 3e-3 0.064-0.016 0.077 8e-3 0.221 0.048 0.337 0.091 0.251 0.315 0.506 0.536 0.744 0.228 0.237 0.47 0.453 0.692 0.664 0.45 0.412 0.819 0.785 1.049 1.068 0.235 0.279 0.345 0.456 0.345 0.456s-0.698-0.43-1.758-1.041c-0.267-0.154-0.55-0.341-0.847-0.566-0.295-0.226-0.614-0.5-0.843-0.948-0.104-0.234-0.195-0.473-0.178-0.789l0.019-0.23 0.035-0.144c0.02-0.069 6e-3 -0.051 0.053-0.191l0.064-0.151c0.157-0.411 0.368-0.803 0.619-1.167 0.262-0.355 0.546-0.686 0.853-0.983 0.318-0.283 0.642-0.544 0.973-0.767 0.329-0.225 0.666-0.411 0.989-0.573 0.318-0.172 0.64-0.289 0.93-0.404 1.176-0.443 2.013-0.494 2.013-0.494z"/><line x1="106.39" x2="90.959" y1="158.49" y2="190.09" fill="none" stroke="#000" stroke-linecap="round" stroke-width="2"/><path d="m145.44 106.25-1.677 9.841s-2.88 0.7-5.214-0.267" fill="none" stroke="#000" stroke-linecap="round" stroke-width="1.5"/><path d="m154.86 104.27-5.59 10.371s-2.847-0.022-3.834-0.979" fill="none" stroke="#000" stroke-linecap="round" stroke-width="1.7"/><path d="m109.63 97.421c0.866 0.565 1.844 0.901 2.811 1.034 0.97 0.146 1.938 0.03 2.836-0.251 0.904-0.276 1.729-0.765 2.494-1.331 0.769-0.564 1.463-1.246 2.102-1.981l1.942-2.234-0.316 3.098c-0.017 0.169-0.043 0.441-0.047 0.669-6e-3 0.239-2e-3 0.479 0.017 0.718 0.034 0.478 0.115 0.949 0.246 1.397 0.268 0.895 0.704 1.706 1.32 2.369s1.406 1.179 2.295 1.546c0.438 0.194 0.905 0.35 1.379 0.489 0.48 0.129 0.973 0.231 1.473 0.315l1.328 0.224-0.433 1.255c-0.109 0.315-0.223 0.715-0.313 1.084-0.092 0.378-0.171 0.76-0.246 1.142-0.149 0.765-0.247 1.539-0.275 2.308-0.032 0.77 0.023 1.532 0.134 2.275 0.118 0.742 0.331 1.461 0.657 2.122 0.164 0.329 0.347 0.652 0.566 0.949 0.204 0.31 0.459 0.584 0.722 0.852 0.268 0.266 0.564 0.504 0.88 0.725 0.323 0.206 0.644 0.434 1.001 0.601 0.349 0.185 0.714 0.346 1.094 0.478 0.371 0.157 0.767 0.251 1.156 0.379 0.393 0.113 0.798 0.181 1.201 0.286l1.231 0.215-1.257 0.083c-0.42-4e-3 -0.844-5e-3 -1.269-0.035-0.421-0.052-0.854-0.059-1.273-0.165-0.426-0.074-0.846-0.181-1.263-0.32-0.42-0.124-0.83-0.302-1.23-0.499-0.398-0.207-0.783-0.442-1.146-0.718-0.358-0.278-0.714-0.577-1.017-0.924-0.324-0.33-0.59-0.714-0.833-1.106-0.486-0.788-0.83-1.653-1.057-2.535-0.234-0.882-0.318-1.785-0.34-2.675-0.018-0.892 0.044-1.776 0.163-2.649 0.053-0.438 0.148-0.869 0.24-1.3 0.1-0.438 0.203-0.841 0.356-1.314l0.895 1.479c-0.577-0.085-1.154-0.193-1.73-0.336-0.574-0.158-1.15-0.328-1.709-0.579-1.115-0.487-2.185-1.198-3.037-2.153-0.863-0.945-1.447-2.135-1.713-3.351-0.139-0.608-0.208-1.223-0.215-1.834-6e-3 -0.306 6e-3 -0.611 0.032-0.916 0.029-0.316 0.058-0.587 0.144-0.954l1.626 0.863c-0.787 0.745-1.641 1.438-2.592 2.003-0.473 0.286-0.977 0.526-1.497 0.725-0.523 0.192-1.058 0.358-1.612 0.444-2.216 0.386-4.538-0.407-5.921-1.967z"/><path d="m113.09 96.887c1.166 1.523 2.05 3.359 2.168 5.412 0.044 1.02-0.159 2.103-0.69 3.038-0.509 0.948-1.301 1.714-2.166 2.294l0.333-0.714c0.315 1.889 0.58 3.757 0.762 5.648 0.185 1.887 0.358 3.777 0.43 5.673 0.184 3.791 0.147 7.599-0.165 11.397-0.339 3.793-0.952 7.59-2.134 11.244-0.61 1.817-1.338 3.608-2.324 5.259-0.965 1.655-2.186 3.184-3.68 4.348 1.27-1.405 2.21-3.03 2.968-4.716 0.743-1.696 1.315-3.46 1.737-5.263 0.871-3.598 1.296-7.302 1.52-11.014 0.124-1.856 0.183-3.72 0.194-5.584 0.017-1.865 0.015-3.732-0.048-5.599-0.07-1.867-0.125-3.736-0.247-5.603-0.128-1.862-0.24-3.742-0.435-5.585l-0.051-0.487 0.384-0.228c0.747-0.443 1.439-0.978 1.912-1.685 0.494-0.694 0.742-1.547 0.828-2.437 0.069-0.896-0.058-1.824-0.284-2.736-0.243-0.905-0.569-1.808-1.012-2.662z"/><path d="m112.28 65.551s4.46-1.284 7.963-1.019" fill="none" stroke="#000" stroke-linecap="round" stroke-width="2"/></svg>
