<?xml version="1.0" encoding="UTF-8"?>
<svg width="226.77px" height="226.77px" enable-background="new 0 0 226.77 226.77" version="1.1" viewBox="0 0 226.77 226.77" xmlns="http://www.w3.org/2000/svg"><rect width="226.77px" height="226.77px" fill="#fff"/><path d="m122.42 214.28" fill="#fff"/><linearGradient id="a" x1="95.583" x2="105.28" y1="212.2" y2="188.79" gradientUnits="userSpaceOnUse"><stop stop-color="#fff" offset="0"/><stop stop-color="#EDEDED" offset="1"/></linearGradient><polygon points="119.95 212.17 128.34 178.6 111.03 178.28 99.605 175.65 88.772 169.85 90.418 171.58 82.418 185.58 77.153 208.32" fill="url(#a)"/><path d="m91.743 171.19s8.892 8.868 31.515 7.258" fill="none" stroke="#000"/><path d="m94.041 102.58c-0.826-2.62-0.799-6.786 0.839-10.47" fill="none" stroke="#000" stroke-linecap="round" stroke-width="1.6"/><path d="m80.004 197.51s7.115-19.305 12.058-40.534c4.942-21.229 2.494-52.772 1.979-54.402" fill="none" stroke="#000" stroke-linecap="round" stroke-width="2"/><polyline points="96.624 98.632 98.795 67.284 102.09 40.076" fill="none" stroke="#000" stroke-linecap="round" stroke-width="2"/><path d="m99.795 101.08s4.397-26.061 5.303-39.32" fill="none" stroke="#000" stroke-linecap="round" stroke-width="2"/><line x1="102.81" x2="103.54" y1="40.871" y2="30.025" fill="none" stroke="#000" stroke-linecap="round" stroke-width="2"/><line x1="107.09" x2="107.34" y1="27.823" y2="21.259" fill="none" stroke="#000" stroke-linecap="round" stroke-width="2"/><line x1="105.31" x2="104.77" y1="61.436" y2="51.865" fill="none" stroke="#000" stroke-linecap="round" stroke-width="2"/><path d="m104.02 51.593c1.996-0.767 4.3-1.014 6.49-0.308 0.537 0.192 1.078 0.413 1.566 0.733 0.499 0.301 0.952 0.682 1.362 1.098 0.412 0.415 0.779 0.878 1.09 1.369 0.32 0.486 0.594 1.004 0.806 1.536 0.233 0.53 0.397 1.075 0.559 1.622 0.14 0.548 0.271 1.102 0.361 1.657 0.184 1.109 0.283 2.228 0.279 3.334 0.014 0.556 0.01 1.109-0.022 1.658-0.019 0.552-0.041 1.103-0.099 1.648-0.056 0.545-0.075 1.099-0.167 1.636l-0.234 1.623-0.321-1.016c0.365 0.391 0.505 0.642 0.721 0.968 0.182 0.31 0.352 0.624 0.493 0.942 0.296 0.635 0.511 1.287 0.686 1.942 0.175 0.656 0.266 1.32 0.353 1.981 0.049 0.66 0.11 1.322 0.094 1.976 0.018 0.658-0.041 1.305-0.081 1.954-0.046 0.648-0.165 1.282-0.252 1.921-0.133 0.628-0.256 1.258-0.397 1.881l-0.496 1.845-0.82 3.05-1.103-2.927-0.057-0.151-0.03-0.089-0.015-0.052c0.783 0.25-1.765-0.217 1.762-0.904 0.096 0.125 0.043 0.059 0.071 0.098 0.035 0.052 0.076 0.138 0.07 0.127l0.041 0.097 0.101 0.273 0.176 0.518 0.316 1.029c0.198 0.687 0.375 1.377 0.533 2.071 0.324 1.386 0.523 2.799 0.657 4.214s0.128 2.843 0.021 4.255c-0.128 1.411-0.398 2.81-0.863 4.13 0.344-2.778 0.096-5.529-0.445-8.201-0.261-1.339-0.636-2.653-1.03-3.954-0.202-0.649-0.421-1.293-0.658-1.927l-0.37-0.941-0.196-0.457-0.097-0.21c-6e-3 -0.013-0.015-0.029-0.012-0.022-0.011-0.022 0.025 0.055 0.055 0.098l0.067 0.092c3.525-0.685 0.978-1.15 1.762-0.897l-0.01-0.037c-0.022-0.068-4e-3 -0.015-8e-3 -0.028l0.04 0.091-1.923 0.123 0.374-1.762 0.276-1.768 0.081-0.884c0.019-0.295 0.076-0.588 0.078-0.881 0.025-0.586 0.07-1.173 0.041-1.752 6e-3 -0.584-0.061-1.155-0.111-1.727-0.079-0.566-0.186-1.122-0.313-1.667-0.135-0.541-0.299-1.071-0.519-1.561-0.105-0.249-0.227-0.481-0.352-0.708-0.116-0.194-0.305-0.471-0.363-0.534l-0.411-0.445 0.091-0.571c0.164-1.031 0.337-2.063 0.461-3.094 0.078-0.516 0.121-1.032 0.162-1.547 0.053-0.517 0.08-1.032 0.089-1.546 0.045-1.031 0-2.051-0.079-3.063-0.044-0.505-0.125-1.002-0.212-1.496-0.107-0.488-0.214-0.977-0.38-1.441-0.066-0.241-0.164-0.465-0.258-0.691-0.09-0.229-0.18-0.458-0.302-0.668-0.217-0.437-0.48-0.847-0.783-1.224s-0.642-0.73-1.032-1.022c-0.375-0.314-0.803-0.562-1.247-0.79-0.901-0.431-1.913-0.668-2.95-0.772-1.041-0.077-2.113-0.053-3.167 0.145z"/><path d="m105 29.599s12.499 2.651 7.249 20.776" fill="none" stroke="#000" stroke-linecap="round" stroke-width="2"/><path d="m107.32 21.425s13.186-1.425 10.311 17.95c0 0 3.625 11.458 0.625 22.792 0 0 4.833 7.5 1.167 18.833 0 0 4.249 7.625 2.82 16.894" fill="none" stroke="#000" stroke-linecap="round" stroke-width="2"/><path d="m122.24 97.894s9.481 1.755 13.33 7.014" fill="none" stroke="#000" stroke-linecap="round" stroke-width="2"/><path d="m131.65 101.71c-0.118-1.055-0.079-2.135 0.08-3.198 0.148-1.068 0.436-2.121 0.825-3.148 0.41-1.017 0.933-2.006 1.599-2.909 0.669-0.9 1.474-1.711 2.374-2.403l-0.349 1.086c-0.152-0.468-0.245-0.853-0.339-1.278-0.089-0.415-0.161-0.831-0.224-1.248-0.126-0.833-0.179-1.673-0.179-2.512-2e-3 -0.838 0.038-1.676 0.133-2.506 0.106-0.83 0.259-1.652 0.459-2.46 0.188-0.811 0.461-1.601 0.759-2.373 0.287-0.777 0.653-1.522 1.042-2.246 0.386-0.727 0.836-1.416 1.309-2.081 0.477-0.663 1.007-1.284 1.563-1.874-0.344 0.737-0.687 1.46-0.991 2.197-0.322 0.727-0.586 1.474-0.851 2.212-0.252 0.743-0.471 1.493-0.666 2.245-0.203 0.75-0.332 1.515-0.469 2.272-0.132 0.759-0.218 1.524-0.26 2.29-0.057 0.764-0.084 1.53-0.061 2.294 0.024 0.764 0.087 1.524 0.17 2.28 0.048 0.377 0.103 0.752 0.174 1.122 0.068 0.36 0.16 0.756 0.248 1.052l0.209 0.701-0.557 0.385c-0.788 0.545-1.532 1.172-2.164 1.916-0.65 0.727-1.225 1.538-1.708 2.415-0.509 0.866-0.905 1.804-1.27 2.766-0.34 0.968-0.649 1.965-0.856 3.003z"/><path d="m143.05 70.764s0.622-0.567 1.724-1.052c1.09-0.507 2.667-0.94 4.345-0.856 0.832 0.035 1.689 0.211 2.446 0.552 0.383 0.135 0.72 0.415 1.034 0.613 0.301 0.243 0.537 0.541 0.753 0.782 0.187 0.278 0.311 0.564 0.421 0.797 0.13 0.223 0.117 0.48 0.159 0.653 0.05 0.366 0.052 0.562 0.052 0.562s-0.165-0.148-0.408-0.384c-0.132-0.11-0.233-0.276-0.43-0.393-0.191-0.122-0.382-0.261-0.584-0.402-0.246-0.097-0.475-0.221-0.732-0.321-0.287-0.062-0.531-0.194-0.848-0.233-0.306-0.056-0.607-0.128-0.946-0.15-0.325-0.047-0.668-0.069-1.015-0.08-0.341-0.044-0.702-8e-3 -1.048-0.035h-1.043c-0.684 0.013-1.338 0.015-1.912 0.01-1.139 9e-3 -1.968-0.063-1.968-0.063z"/><path d="m150.71 82.826s-5.454 5.507-3.621 33.007c0 0-2.086 27.383-14.46 39.608" fill="none" stroke="#000" stroke-linecap="round" stroke-width="2"/><line x1="154.03" x2="149.76" y1="72.431" y2="81.783" fill="none" stroke="#000" stroke-linecap="round" stroke-width="2"/><path d="m133.62 152.75s-10.291 38.847-10.71 47.496" fill="none" stroke="#000" stroke-linecap="round" stroke-width="2"/><polyline points="121.15 62.249 129.8 62.117 135.77 64.937" fill="none" stroke="#000" stroke-linecap="round" stroke-width="2"/><line x1="136.36" x2="143.57" y1="65.658" y2="68.084" fill="none" stroke="#000" stroke-linecap="round" stroke-width="2"/><path d="m121.86 75.989c1.121-0.428 2.257-0.76 3.395-1.076 1.138-0.317 2.285-0.581 3.431-0.846l0.207-0.048 0.33 0.141c0.199 0.086 0.48 0.19 0.731 0.268 0.259 0.083 0.523 0.155 0.789 0.216 0.529 0.131 1.064 0.227 1.598 0.293 1.071 0.125 2.138 0.092 3.184-0.098 1.044-0.202 2.062-0.588 3.038-1.137 0.49-0.273 0.964-0.591 1.438-0.933 0.47-0.346 0.932-0.721 1.409-1.109-0.235 0.562-0.515 1.117-0.872 1.624-0.347 0.516-0.759 0.993-1.221 1.43-0.459 0.441-0.984 0.82-1.544 1.149-0.274 0.178-0.576 0.304-0.874 0.438-0.302 0.126-0.61 0.24-0.925 0.334-0.628 0.197-1.282 0.301-1.935 0.349-0.655 0.039-1.311 0.017-1.953-0.077-0.644-0.086-1.273-0.244-1.882-0.45-0.304-0.107-0.602-0.226-0.897-0.359-0.302-0.137-0.568-0.265-0.895-0.455l0.536 0.094c-1.173 0.097-2.345 0.195-3.526 0.24-1.181 0.048-2.364 0.078-3.562 0.012z"/><path d="m119.42 103.12c0.475 2.014 0.886 4.04 1.331 6.06l1.225 6.078-0.104-0.202c0.558 0.588 1.012 1.192 1.447 1.835 0.42 0.644 0.838 1.292 1.188 1.974 0.38 0.668 0.703 1.363 1.019 2.062 0.344 0.687 0.573 1.42 0.864 2.128 0.283 0.712 0.474 1.455 0.715 2.181 0.254 0.724 0.366 1.485 0.552 2.226 0.189 0.742 0.298 1.498 0.414 2.253 0.113 0.755 0.258 1.506 0.302 2.268l0.199 2.278c0.031 0.761 0.038 1.523 0.05 2.284 0.01 0.761 0.012 1.522-0.055 2.28l-0.143 2.275c-0.027 0.759-0.175 1.508-0.256 2.261l-0.315 2.251c-0.301 1.486-0.61 2.968-0.944 4.44l0.572-4.491 0.163-2.253c0.047-0.75 0.16-1.496 0.152-2.248l0.039-2.252c0.033-0.75-4e-3 -1.499-0.048-2.247l-0.089-2.244-0.229-2.232c-0.054-0.747-0.208-1.479-0.329-2.216-0.124-0.736-0.241-1.474-0.437-2.194-0.189-0.721-0.324-1.457-0.551-2.166-0.225-0.709-0.399-1.437-0.664-2.132-0.273-0.691-0.485-1.41-0.809-2.079-0.296-0.682-0.6-1.361-0.957-2.012-0.33-0.666-0.724-1.296-1.118-1.921-0.408-0.609-0.832-1.239-1.292-1.768l-0.088-0.101-0.016-0.101-0.949-6.128c-0.276-2.049-0.59-4.092-0.839-6.147z"/><path d="m135.37 66.994s-9e-3 0.531 0.194 1.173c0.065 0.156 0.119 0.324 0.215 0.48 0.074 0.167 0.212 0.305 0.313 0.465 0.275 0.275 0.573 0.561 0.969 0.754 0.171 0.129 0.391 0.199 0.587 0.296 0.195 0.099 0.411 0.165 0.613 0.242s0.4 0.155 0.598 0.206c0.196 0.055 0.38 0.121 0.552 0.183 0.698 0.189 1.182 0.391 1.182 0.391s-0.494 0.136-1.258 0.178c-0.38-0.015-0.833 0.013-1.308-0.109-0.236-0.061-0.492-0.077-0.733-0.193-0.242-0.104-0.498-0.175-0.732-0.329-0.236-0.14-0.464-0.293-0.664-0.49-0.221-0.166-0.363-0.419-0.524-0.625-0.127-0.238-0.242-0.469-0.291-0.709-0.077-0.229-0.077-0.462-0.085-0.664 3e-3 -0.411 0.112-0.731 0.198-0.94 0.093-0.207 0.174-0.309 0.174-0.309z"/><path d="m106.21 52.729s0.173-0.039 0.484-0.037c0.309 5e-3 0.764 0.043 1.285 0.278 0.254 0.127 0.536 0.293 0.764 0.566 0.236 0.259 0.425 0.611 0.497 0.99 0.101 0.377 0.065 0.788 0.047 1.097-0.024 0.337-0.04 0.686-0.087 1.028-0.081 0.689-0.204 1.379-0.391 2.015-0.187 0.635-0.434 1.22-0.736 1.675-0.295 0.459-0.649 0.776-0.933 0.919-0.129 0.089-0.259 0.11-0.334 0.139-0.077 0.025-0.118 0.038-0.118 0.038s0.148-0.104 0.333-0.326c0.1-0.103 0.188-0.256 0.292-0.419 0.092-0.176 0.181-0.376 0.265-0.603 0.331-0.91 0.493-2.22 0.637-3.546 0.034-0.333 0.068-0.666 0.101-0.994 0.026-0.355 0.065-0.613 0.033-0.862-0.017-0.255-0.11-0.474-0.223-0.679-0.112-0.209-0.295-0.366-0.46-0.523-0.362-0.285-0.742-0.468-1.013-0.586-0.274-0.117-0.443-0.17-0.443-0.17z"/><path d="m104.59 31.583s0.217 0.015 0.589 0.096c0.37 0.084 0.901 0.225 1.497 0.53 0.583 0.301 1.304 0.76 1.727 1.632 0.105 0.215 0.172 0.457 0.211 0.706 0.045 0.252 0.014 0.518 6e-3 0.708-0.03 0.426-0.06 0.857-0.119 1.29-0.125 0.863-0.311 1.732-0.638 2.511-0.318 0.777-0.779 1.469-1.327 1.903-0.542 0.447-1.122 0.598-1.502 0.632-0.388 0.029-0.6-0.011-0.6-0.011s0.216-0.044 0.554-0.179c0.337-0.137 0.78-0.398 1.155-0.848 0.771-0.897 1.166-2.507 1.371-4.139 0.054-0.409 0.104-0.824 0.14-1.232 0.044-0.429 0.044-0.67-0.07-0.995-0.224-0.606-0.745-1.108-1.219-1.483-0.484-0.374-0.937-0.649-1.258-0.835-0.324-0.187-0.517-0.286-0.517-0.286z"/><path d="m108.77 23.088s0.667 0.034 1.604 0.406c0.463 0.193 1.006 0.456 1.502 0.912 0.499 0.431 0.944 1.158 0.94 1.972-9e-3 0.373-0.032 0.667-0.057 1.002-0.04 0.323-0.086 0.641-0.138 0.948-0.124 0.613-0.294 1.178-0.497 1.642-0.401 0.942-0.929 1.401-0.929 1.401s0.163-0.654 0.29-1.586c0.066-0.468 0.131-1.012 0.188-1.598 0.036-0.293 0.066-0.596 0.091-0.907 0.034-0.298 0.077-0.649 0.092-0.921 0.048-0.501-0.196-0.992-0.538-1.415-0.351-0.416-0.783-0.759-1.171-1.025-0.784-0.532-1.377-0.831-1.377-0.831z"/><path d="m144.38 67.287s0.129 0.298 0.139 0.739c0.018 0.44-0.075 1.023-0.321 1.555-0.246 0.531-0.642 0.996-1.017 1.249-0.183 0.131-0.357 0.211-0.487 0.254-0.127 0.045-0.203 0.061-0.203 0.061s0.021-0.08 0.064-0.203c0.048-0.119 0.105-0.289 0.182-0.476 0.147-0.379 0.344-0.841 0.554-1.304 0.22-0.458 0.453-0.923 0.674-1.276 0.213-0.354 0.415-0.599 0.415-0.599z"/></svg>
