<?xml version="1.0" encoding="UTF-8"?>
<!DOCTYPE svg  PUBLIC '-//W3C//DTD SVG 1.1//EN'  'http://www.w3.org/Graphics/SVG/1.1/DTD/svg11.dtd'>
<svg width="170.08px" height="226.77px" enable-background="new 0 0 170.079 226.771" version="1.1" viewBox="0 0 170.08 226.77" xmlns="http://www.w3.org/2000/svg"><rect width="170.08px" height="226.77px" fill="#fff"/><linearGradient id="a" x1="33.987" x2="58.653" y1="196.51" y2="173.18" gradientUnits="userSpaceOnUse"><stop stop-color="#fff" offset="0"/><stop stop-color="#EDEDED" offset="1"/></linearGradient><path d="m65.333 217.33 15-46 0.334-2.334s-14-3.666-20.333-9.666-12.667-16.334-14.334-21.334-5.333 3.667-5.333 3.667-3.667 2.666-5.667 5.333-19.667 21.334-19.667 21.334 11 35 50 49z" fill="url(#a)"/><path d="m93.823 24.763c1.837 1.101 3.673 2.447 4.774 4.039 1.225 0.613 1.714 2.449 2.938 3.184 0.245 1.715 1.958 3.06 2.571 4.65 1.836 5.512 1.347 11.51 0 17.265-1.102 2.325-1.225 5.265-2.081 7.589 0.367 0.735-0.49 1.348 0 2.206-0.857 0.61-0.123 1.591-0.368 2.325 0.735 0.734 1.47-0.857 2.082 0l3.428-0.367 0.244 0.244c8.203-0.611 16.528-0.366 24.486 0.98 2.08 0.49 4.407 1.345 6.244 1.835 1.102 0.612 2.326 1.225 3.428 1.591 1.591 0.736 0.244 2.939 1.959 2.939 0.855 2.204 2.326 4.041 2.203 6.734-0.123 2.814-0.979 5.998-3.184 7.957l-0.855 0.857c0.121 0.244-0.123 0.734-0.369 1.102l-1.224 0.367c1.103 1.959 3.673 3.183 3.551 5.876 1.225 2.449 0.612 4.653 0 7.346-0.734 2.081-1.958 4.162-3.183 6.245-0.368 0.49-1.225 0.979-1.103 1.836 0.979 0.856 1.47 2.203 2.204 3.182-0.367 1.103 0.123 2.205 0 3.307-0.123 1.224-0.246 2.448-0.613 3.55l0.49 0.246c-1.347 0.489-0.979 2.57-1.714 3.305-0.612 1.469-0.979 4.041-3.061 4.041-0.122 1.592 0.245 3.182-0.367 4.773 0.489 0.367-0.368 0.735-0.245 1.225 0.123 2.571-1.347 4.897-2.326 7.101-1.836 1.592-3.55 3.429-6.366 2.816 0.123-0.612-0.612-0.979-0.979-0.857-3.061 0.857-6.243 1.102-9.549 1.714-0.49-0.612-1.225-0.489-1.836-0.489l-0.245 0.366 0.122 0.123c-0.612 0.245-1.469 0.734-1.592 1.469-0.612 0.49-1.469 0.857-2.08 1.47-0.735 0.979-2.082 1.102-2.694 2.326-0.367-0.491-0.856 0.122-1.103 0.367-1.836 0.612-2.693 1.714-4.529 2.204-1.102 1.102-2.693 0.857-3.795 1.958-1.837 0.735-4.408 0.98-5.877 2.693-1.102-0.611-2.449 0.49-3.305 1.224-0.98-0.489-1.715 0.857-2.572 0.613-1.468 0.368-2.692 1.225-4.284 1.469-1.347 2.326-2.694 4.163-3.429 6.857-1.102-0.124-1.224 1.59-2.081 0.979-0.123-1.837-2.204-0.857-3.306-1.715-12.487-3.183-22.894-14.078-27.668-25.831-0.979 0-0.123-1.959-1.591-1.837v-0.244c-0.612 0-0.123 0.856-0.857 0.856-0.612 1.102-1.347 1.102-2.081 2.081-3.06 2.693-5.754 5.387-8.447 8.325 0.122 0.367-0.123 0.612-0.367 0.489-1.592 1.103-2.449 2.939-3.917 3.796l-3.918 4.407-0.123-3.673c3.673-4.04 7.346-7.713 11.019-11.386l-0.123-0.245c1.96-1.224 3.306-3.428 5.265-4.896 0.857-1.225 2.082-1.959 2.938-3.184 0.367-0.611 1.102-1.592 1.959-0.98l0.49 0.612c3.183-4.773 5.51-10.161 8.692-15.18l0.122-0.857c0.368 0.245 0.491-0.367 0.735-0.612 3.673-7.346 6.856-14.323 9.427-22.037-0.122-1.224 0.735-2.449 1.102-3.55 0.979-3.917 2.571-7.468 3.796-11.142 0.489-1.714 0.979-2.693 1.713-4.285 1.102-3.305 2.571-6.365 4.775-9.059l1.591-0.244c2.815-7.837 5.019-15.304 5.999-23.631 0.123-1.592 0.489-3.549 0.489-5.264 0.489-0.488 0.612-1.346 0.245-1.836-1.347-3.674-3.305-6.979-3.183-11.141-0.245-1.347 1.225-2.203 1.836-3.061 2.571-0.98 5.142-1.591 7.591-0.245 0.858 0.246 1.225 0.492 2.082 0.737z"/><path d="m89.049 26.477c1.347-0.49 2.571 0.612 3.795 0.856 1.836 1.347 3.306 3.061 4.897 4.775-0.245 0.61 0.612 0.488 0.733 1.102 0.857 0.979 1.592 2.326 2.082 3.551 1.837 2.324 1.592 5.998 1.837 8.812-0.367 7.346-3.673 13.346-3.428 20.813-0.368 0.368-1.103-0.366-1.47 0.368-1.102-0.368-1.959 0.979-2.816-0.368-1.714-0.366-3.428-0.612-5.387-0.489-0.122 0.489-0.611 1.225 0 1.715 0.857 0.61 1.959 0.489 2.816 0.979 0.489-0.368 0.734 0 1.225 0.369 2.203 0.978 4.774-0.858 7.101 0 0.734-0.492 1.835-0.858 2.815-0.369l0.49-0.368c8.324-0.243 16.65-0.854 25.098 0.857 3.673-0.12 6.855 1.591 10.161 2.815 0 0.613 0 1.471 0.857 1.592 2.081 2.205 3.428 5.143 2.571 8.081 0.121 1.224-0.49 2.693-1.225 3.794-0.734 0.369-1.715 1.225-2.693 0.735-0.49 0.489-0.98-0.366-1.47 0.247-0.856-0.613-2.204-0.247-3.183-0.613v-0.124c-3.307-0.366-6.611-0.978-9.917-0.978l-0.245-0.49c-0.244 0.122-0.49 0.367-0.856 0.367l-0.245-0.367c-0.611 0.61-1.47 0.122-2.326 0.122-0.367-0.979-0.49-2.081-1.836-2.327-1.348 0.367-1.102 2.327-1.714 3.553 0.489 1.1 1.837 1.223 2.692 1.957 0.857-0.121 1.959 0.979 2.326-0.366 3.061 0.245 5.388 0.61 8.57 0.979 2.204-0.122 4.407 0.735 6.611 1.47 0.734 0.367 1.836 0 2.448 0.611-0.245 0.734-1.224 1.592-0.734 2.449 0.489 0.121 1.102 0.366 1.225 0.856-0.245 0.98 0.856 1.101 0.979 1.959 0.121 0.49 0.244 1.102 0.488 1.591 0.123 0.735 0.246 1.47-0.244 2.082l0.244 0.124c-0.244 3.549-1.836 6.364-3.428 9.303-1.959-0.366-3.673-0.979-5.631-1.714-1.715-0.733-3.428-1.225-5.265-1.959-1.347 0.123-1.959-0.49-3.183-0.857-0.367 0.124-1.225 0.245-1.225-0.489-0.122-0.367-0.367 0-0.611 0-1.225-0.856-1.959-2.203-3.551-1.958-0.735 0.366-0.49 0.979-0.368 1.591 1.593 1.224 3.429 3.43 5.877 2.204 0.856 0.488 1.837 1.102 2.815 1.346 1.592 0.734 3.551 1.225 5.02 1.716 0.367 0 0.367 0.855 0.98 0.611 0.611-0.122 1.346 0.488 1.958 0.735 0.612-0.247 0.368 0.979 1.102 0.366 0.368 0 0.612 0.244 0.979 0.612-0.122 0.122-0.122 0.366 0 0.489 0.367 0.122 0.979 0.489 1.592 0.489-0.857 0.612-0.367 1.716 0.245 2.449 0.856 4.284-0.489 8.203-2.081 11.875-5.143-1.958-11.02-2.203-16.527-2.816-0.367-0.244-0.736-0.244-0.98 0-1.102 0.369-2.081-0.733-2.816 0.369-0.244 0.489-0.488 1.102 0.123 1.468 1.47 0.491 3.061-0.121 4.652 0.245 3.674 0.246 7.713 0.734 11.141 1.714 0.49-0.123 0.857 0.368 1.225 0.368 0.123 1.225 0.49 2.448 0.734 3.55-0.489 2.814-0.734 6.488-2.448 9.061l-0.122-0.124c-0.367 0.857-1.103 2.205-2.082 2.449-0.979-0.244-2.081 0.123-3.183-0.244-1.225 0.367-3.062 0.734-4.163 0.489-1.592 0.489-3.305 0.367-4.896 0.367 0-0.367 0-0.979-0.245-1.225-1.347-1.101-1.714 0.735-2.693 0.979-6.366 7.102-15.915 11.142-24.976 14.447-1.469 0.857-3.672 0.734-5.142 1.591 0-0.49-0.734-0.49-1.101-0.733-2.205-0.369-2.205 2.569-3.306 3.917-0.734 1.592-1.224 3.062-2.082 4.529l-0.122 0.612c-13.712-2.816-25.955-14.568-29.75-27.547 0.368-0.979 0.98-1.713 1.47-2.448l-0.123-0.121c0.857-1.592 1.714-3.552 2.815-4.776 0.613-1.836 2.082-2.937 2.694-4.773 1.347-2.693 2.938-4.653 4.162-7.347 1.102-1.958 2.326-3.917 3.184-5.876 0.367 0 0.489-0.489 0.245-0.733 0.245-1.226 1.347-2.205 1.469-3.553 1.225-1.467 1.102-3.183 2.204-4.773 0.489-1.714 1.102-3.306 1.714-4.897 0.123-0.122 0.367-0.122 0.367-0.244 0-2.449 1.347-4.53 1.713-6.855l0.368-0.244c1.836-5.145 3.305-10.898 5.876-15.794 0-1.347 1.101-2.204 1.469-3.429 0.123-0.123 0.367 0 0.489 0.122 1.47-0.855 2.694-2.692 3.428-4.284-0.122-0.488 0.245-0.735 0.49-0.98 0.367-0.979 0.489-2.447 1.225-3.305 0-1.225 0.856-2.205 0.856-3.429 2.449-6.733 2.694-14.079 4.285-20.812 0.734-0.49-0.122-0.98 0-1.592-0.122-1.348 1.47-3.795-0.612-4.286l-0.979 0.247c-0.98-2.816-1.836-5.265-1.592-8.448 0.489-0.612 1.103 0.122 1.47-0.612 0.488-0.245 0.979 0 1.591-0.123 0.373-0.123 1.228-0.123 0.984 0.368z" fill="#fff"/><polygon points="44.118 141.68 44.363 141.44 44.363 141.68"/><path d="m72.766 197.14c0.368-0.613-0.122-1.349 0.49-1.715 0.367-2.082 1.714-3.918 1.958-5.999l0.246-0.245c0.245-1.592 1.102-2.692 1.224-4.162 0.735-0.613 0.367-1.592 0.979-2.203 0.49-1.47 0.612-2.449 1.47-3.796 0.245-3.184 2.571-5.266 2.693-8.448l-0.49-0.611c-1.469-0.979-1.469 0.857-2.325 1.469-1.96 5.265-3.551 10.651-5.754 16.039-0.49 1.468-0.734 2.693-1.347 3.917-1.102 3.673-2.571 7.958-3.918 11.997-0.093 0.284-0.19 0.571-0.284 0.856 0.973-0.421 1.947-0.832 2.92-1.234 0.305-1.239 0.671-2.469 1.404-3.54 0-0.735 0.244-1.592 0.734-2.325z"/></svg>
