<?xml version="1.0" encoding="UTF-8"?>
<svg width="422.95px" height="226.77px" enable-background="new 0 0 422.953 226.77" version="1.1" viewBox="0 0 422.95 226.77" xmlns="http://www.w3.org/2000/svg"><rect width="422.95px" height="226.77px" fill="#fff"/><style type="text/css">.st0{fill:url(#d);} .st1{fill:none;stroke:#000000;stroke-width:2;stroke-linecap:round;} .st2{fill:none;stroke:#000000;stroke-linecap:round;} .st3{fill:#FFFFFF;} .st4{fill:url(#c);} .st5{fill:none;stroke:#000000;} .st6{fill:url(#b);} .st7{fill:none;stroke:#000000;stroke-width:1.5;stroke-linecap:round;} .st8{fill:url(#a);}</style><linearGradient id="d" x1="24.128" x2="30.456" y1="815.94" y2="806.54" gradientTransform="translate(0 -615.78)" gradientUnits="userSpaceOnUse"><stop stop-color="#fff" offset="0"/><stop stop-color="#EDEDED" offset="1"/></linearGradient><polygon class="st0" points="43.26 213.38 52.853 195.23 57.781 186.35 50.447 184.82 36.774 179.28 29.027 172.39 24.971 166.27 2.8 190.19"/><path class="st1" d="m45.554 208.53c0.702-1.215 23.78-43.417 23.78-43.417-5.035 7.799 15.634-8.147 15.753-39.905"/><path class="st2" d="m26.629 168.09s7.963 15.298 28.33 17.464"/><path class="st1" d="m3.488 187.98s25.962-27.06 26.684-29.002c0.723-1.942 5.847-57.06 6.226-59.977"/><line class="st1" x1="42.677" x2="40.872" y1="57.09" y2="67.639"/><polyline class="st1" points="40.505 65.703 37.02 80.62 36.5 103.68"/><path d="m40.758 56.371c1.054 0.014 2.113 0.146 3.155 0.395 1.043 0.246 2.074 0.604 3.056 1.125 0.982 0.511 1.922 1.19 2.715 2.078 0.384 0.453 0.758 0.933 1.05 1.479 0.308 0.534 0.543 1.118 0.736 1.718 0.359 1.211 0.454 2.494 0.381 3.734-0.038 0.637-0.111 1.222-0.172 1.785-0.059 0.571-0.156 1.173-0.246 1.754-0.194 1.164-0.429 2.328-0.749 3.491-0.16 0.582-0.344 1.166-0.588 1.746-0.121 0.291-0.253 0.581-0.414 0.877-0.076 0.146-0.171 0.298-0.267 0.449l-0.172 0.238c-0.083 0.096-0.097 0.137-0.299 0.318l0.347-1.301c0.134 0.4 0.234 0.738 0.332 1.103 0.101 0.359 0.186 0.718 0.274 1.078 0.163 0.72 0.321 1.441 0.426 2.17 0.224 1.456 0.382 2.921 0.45 4.391 0.038 0.734 0.045 1.471 0.031 2.205-0.013 0.735-0.034 1.468-0.09 2.201-0.033 0.733-0.12 1.461-0.207 2.188-0.089 0.726-0.224 1.445-0.333 2.165l-0.019-0.358c0.152 0.698 0.266 1.356 0.368 2.036 0.095 0.676 0.174 1.354 0.238 2.034 0.124 1.358 0.194 2.724 0.157 4.089-0.038 1.364-0.145 2.729-0.399 4.063-0.247 1.335-0.64 2.637-1.204 3.831 0.387-1.277 0.584-2.595 0.684-3.912 0.082-1.321 0.08-2.642-0.017-3.957-0.104-1.314-0.247-2.623-0.472-3.917-0.111-0.647-0.235-1.291-0.376-1.929-0.137-0.634-0.285-1.286-0.451-1.881l-0.036-0.128 0.016-0.23c0.049-0.699 0.123-1.394 0.152-2.093 0.018-0.699 0.074-1.394 0.071-2.092 0.02-0.697 7e-3 -1.394-0.014-2.089-3e-3 -0.348-0.028-0.696-0.049-1.042-0.027-0.346-0.027-0.695-0.059-1.04-0.086-1.386-0.259-2.765-0.489-4.125-0.118-0.68-0.241-1.357-0.385-2.027-0.075-0.333-0.149-0.668-0.235-0.994-0.08-0.322-0.178-0.666-0.265-0.94l0.347-1.301c-0.1 0.089-0.027 0.023-0.022 0.011l0.075-0.099c0.054-0.086 0.111-0.169 0.167-0.275 0.112-0.197 0.22-0.422 0.32-0.655 0.198-0.468 0.389-0.966 0.553-1.483 0.333-1.033 0.602-2.117 0.833-3.216l0.325-1.655c0.105-0.578 0.215-1.131 0.269-1.647 0.124-1.058 0.091-2.122-0.134-3.134-0.121-0.502-0.274-1-0.496-1.464-0.204-0.475-0.49-0.906-0.789-1.327-0.628-0.816-1.399-1.535-2.264-2.116-0.866-0.582-1.808-1.052-2.784-1.441-0.984-0.369-1.993-0.695-3.032-0.884z"/><path class="st1" d="m68.534 87.931s4.515 10.005 2.755 18.545l2.837 9.19"/><line class="st1" x1="45.214" x2="49.158" y1="54.359" y2="38.815"/><path class="st1" d="m65.812 35.346s6.414 6.472 3.019 19.087c0 0 3.111 8.057-0.624 17.489 0 0 1.844 9.651 0.326 16.009"/><path d="m52.954 22.276c1.098 0.02 2.205 0.212 3.273 0.566 0.535 0.175 1.062 0.386 1.575 0.641 0.515 0.251 1.011 0.554 1.488 0.894 0.48 0.336 0.931 0.725 1.362 1.142 0.426 0.424 0.821 0.888 1.181 1.388 0.351 0.506 0.674 1.037 0.952 1.597 0.271 0.562 0.527 1.14 0.715 1.743 0.218 0.594 0.353 1.214 0.491 1.831 0.107 0.623 0.217 1.248 0.26 1.878 0.078 0.63 0.074 1.257 0.096 1.888 3e-3 0.628-0.028 1.255-0.054 1.881-0.059 0.62-0.1 1.246-0.192 1.861-0.1 0.611-0.172 1.232-0.297 1.836-0.127 0.602-0.236 1.213-0.379 1.811l-0.448 1.787-0.025-0.73c0.171 0.475 0.297 0.882 0.419 1.32 0.122 0.433 0.217 0.867 0.319 1.302 0.184 0.871 0.347 1.746 0.463 2.627 0.057 0.44 0.123 0.881 0.157 1.324 0.036 0.443 0.095 0.884 0.111 1.329l0.068 1.332-2e-3 1.334c8e-3 0.445-0.032 0.888-0.048 1.332-0.023 0.444-0.035 0.888-0.087 1.329-0.078 0.884-0.17 1.767-0.316 2.64-0.11 0.881-0.311 1.741-0.497 2.604-0.083 0.434-0.218 0.853-0.33 1.279l-0.351 1.27 5e-3 -0.606c0.259 1.059 0.465 2.078 0.662 3.122 0.19 1.04 0.346 2.086 0.486 3.133 0.282 2.095 0.473 4.205 0.533 6.323 0.07 2.117 8e-3 4.24-0.219 6.342-0.114 1.051-0.287 2.093-0.496 3.122-0.218 1.028-0.509 2.035-0.842 3.015 0.407-2.05 0.574-4.123 0.607-6.192 0.025-2.07-0.095-4.135-0.296-6.188-0.223-2.051-0.51-4.092-0.887-6.114-0.187-1.011-0.401-2.016-0.622-3.016-0.219-0.995-0.46-2.008-0.725-2.959l-0.075-0.27 0.08-0.336 0.288-1.212c0.091-0.405 0.207-0.803 0.269-1.216 0.138-0.821 0.321-1.63 0.414-2.457 0.129-0.821 0.205-1.649 0.269-2.479 0.044-0.414 0.05-0.83 0.067-1.245 0.01-0.415 0.044-0.831 0.03-1.246 0-0.832-0.015-1.662-0.059-2.492-0.01-0.415-0.062-0.827-0.09-1.242-0.027-0.415-0.085-0.824-0.133-1.236-0.098-0.823-0.24-1.637-0.401-2.444-0.09-0.399-0.172-0.803-0.278-1.194-0.091-0.39-0.208-0.801-0.312-1.131l-0.122-0.388 0.097-0.342 0.477-1.685c0.153-0.563 0.272-1.134 0.41-1.701 0.136-0.567 0.218-1.143 0.331-1.715 0.101-0.573 0.156-1.15 0.245-1.724 0.052-0.576 0.109-1.153 0.136-1.73 7e-3 -0.575 0.041-1.155-3e-3 -1.726-9e-3 -0.577-0.082-1.141-0.149-1.71-0.101-0.556-0.175-1.127-0.335-1.666-0.13-0.553-0.322-1.081-0.527-1.601-0.213-0.519-0.467-1.014-0.749-1.493-0.294-0.47-0.609-0.925-0.962-1.35-0.357-0.419-0.738-0.821-1.155-1.178-0.412-0.365-0.856-0.69-1.315-0.989-0.458-0.303-0.939-0.569-1.436-0.803-0.992-0.456-2.036-0.834-3.122-1.017z"/><line class="st1" x1="53.266" x2="54.758" y1="29.297" y2="22.845"/><path d="m44.933 30.085c1.339-0.228 2.713-0.256 4.079-0.103 1.367 0.145 2.729 0.501 4.027 1.096 1.302 0.585 2.51 1.487 3.509 2.633 1.005 1.144 1.759 2.557 2.234 4.053 0.968 3.012 0.954 6.223 0.568 9.247-0.195 1.52-0.47 3.021-0.835 4.488-0.363 1.468-0.788 2.911-1.252 4.334l-0.05-0.906c0.182 0.412 0.301 0.738 0.424 1.104 0.124 0.357 0.226 0.715 0.327 1.074 0.192 0.719 0.361 1.445 0.467 2.18 0.124 0.732 0.203 1.47 0.256 2.209 0.062 0.739 0.069 1.479 0.076 2.218-3e-3 0.369-0.025 0.738-0.037 1.107-8e-3 0.369-0.033 0.737-0.074 1.104l-0.109 1.099-0.176 1.087c-0.099 0.729-0.295 1.432-0.442 2.146-0.074 0.357-0.192 0.701-0.285 1.052l-0.299 1.046 0.016-0.566c0.194 0.907 0.35 1.78 0.481 2.674 0.136 0.889 0.255 1.781 0.36 2.673 0.216 1.785 0.337 3.583 0.398 5.381l0.024 1.35c0.017 0.449-0.013 0.901-0.018 1.35-8e-3 0.899-0.083 1.798-0.136 2.694-0.099 0.894-0.182 1.787-0.342 2.669-0.122 0.886-0.362 1.749-0.557 2.612l0.116-1.33c0.05-0.439 0.045-0.886 0.069-1.327 0.057-0.882 0.024-1.769 0.027-2.649-0.036-0.883-0.049-1.762-0.128-2.64-0.059-0.878-0.146-1.754-0.23-2.628-0.105-0.873-0.203-1.745-0.341-2.613-0.126-0.868-0.26-1.735-0.41-2.598-0.151-0.863-0.314-1.723-0.495-2.577-0.18-0.85-0.373-1.715-0.572-2.532l-0.062-0.253 0.078-0.312 0.245-0.988c0.076-0.331 0.177-0.654 0.233-0.989 0.113-0.669 0.276-1.328 0.342-2.004l0.129-1.007 0.081-1.011c0.033-0.336 0.054-0.673 0.056-1.011 7e-3 -0.337 0.024-0.675 0.023-1.011-0.014-0.674-0.028-1.348-0.092-2.017-0.055-0.669-0.134-1.337-0.254-1.992-0.107-0.659-0.254-1.307-0.413-1.946-0.085-0.316-0.172-0.635-0.274-0.94-0.094-0.299-0.218-0.629-0.312-0.854l-0.198-0.47 0.147-0.437c0.461-1.368 0.883-2.75 1.243-4.144 0.357-1.396 0.682-2.798 0.901-4.214 0.22-1.415 0.357-2.842 0.341-4.254 3e-3 -1.411-0.136-2.819-0.496-4.147-0.359-1.326-0.927-2.577-1.724-3.65-0.796-1.075-1.822-1.949-2.963-2.626-1.143-0.682-2.408-1.137-3.705-1.459-1.301-0.306-2.643-0.489-3.996-0.475z"/><line class="st1" x1="48.232" x2="49.109" y1="40.026" y2="30.296"/><polyline class="st3" points="47.888 34.814 48.665 26.523 41.908 25.591"/><polyline class="st3" points="41.639 59.351 42.417 51.059 35.66 50.127"/><polyline class="st3" points="52.466 27.887 54.737 19.934 48.286 17.532"/><path class="st3" d="m58.369 24.669"/><path class="st1" d="m74.192 109.44s5.527-6.821 6.465-13.912c0.938-7.09 5.639-15.005 9.436-17.216 3.796-2.212 8.003 2.013 8.242 3.4 0.239 1.386-2.68 9.021-2.68 9.021"/><path class="st1" d="m85.242 124.91c0.049-2.36 7.331-12.621 10.768-33.939"/><path d="m56.785 104.22s-0.196 1.018-0.435 2.816c-0.251 1.795-0.505 4.378-0.612 7.481-0.068 1.551-0.043 3.232 0.021 5.006 0.112 1.77 0.25 3.635 0.561 5.534 0.117 0.957 0.354 1.903 0.539 2.873 0.131 0.473 0.262 0.95 0.394 1.429 0.124 0.493 0.28 0.965 0.456 1.423 0.628 1.869 1.504 3.723 2.336 5.581 0.845 1.857 1.644 3.763 2.34 5.685 0.284 0.989 0.66 1.935 0.851 2.937 0.113 0.494 0.226 0.985 0.337 1.472 0.081 0.495 0.14 0.991 0.209 1.48 0.171 0.976 0.182 1.952 0.208 2.905 0.071 0.953-0.08 1.879-0.122 2.781-0.028 0.907-0.234 1.762-0.365 2.598-0.073 0.416-0.144 0.826-0.213 1.228-0.092 0.396-0.207 0.777-0.306 1.154-0.205 0.752-0.402 1.472-0.589 2.157-0.246 0.66-0.479 1.288-0.698 1.876-0.22 0.588-0.426 1.137-0.617 1.645-0.225 0.491-0.431 0.941-0.618 1.349-0.761 1.617-1.195 2.54-1.195 2.54s0.381-0.951 1.047-2.615c0.167-0.415 0.352-0.873 0.553-1.374 0.167-0.515 0.346-1.072 0.538-1.667 0.19-0.594 0.393-1.227 0.606-1.894 0.164-0.683 0.336-1.4 0.516-2.149 0.087-0.375 0.189-0.754 0.27-1.145 0.058-0.397 0.116-0.801 0.176-1.211 0.106-0.823 0.286-1.665 0.287-2.55 0.016-0.881 0.141-1.783 0.044-2.705-0.059-0.92-0.059-1.865-0.239-2.807-0.072-0.473-0.132-0.951-0.214-1.428-0.113-0.471-0.226-0.945-0.341-1.422-0.192-0.965-0.569-1.887-0.853-2.845-0.697-1.873-1.501-3.734-2.361-5.587-0.819-1.879-1.678-3.729-2.324-5.709-0.18-0.487-0.335-0.975-0.452-1.462-0.131-0.493-0.261-0.983-0.39-1.47-0.181-0.994-0.414-1.966-0.524-2.943-0.315-1.94-0.388-3.844-0.453-5.639-0.015-1.798 7e-3 -3.496 0.118-5.057 0.184-3.127 0.604-5.698 0.921-7.484 0.326-1.788 0.593-2.787 0.593-2.787z"/><path d="m49.239 170.43s0.244-9e-3 0.663-0.054c0.419-0.031 1.014-0.129 1.714-0.275 0.351-0.068 0.725-0.164 1.118-0.275 0.398-0.088 0.795-0.268 1.22-0.39 0.408-0.181 0.841-0.329 1.254-0.55 0.419-0.205 0.842-0.42 1.235-0.695 0.417-0.23 0.793-0.531 1.165-0.823 0.388-0.272 0.707-0.625 1.046-0.928 0.347-0.296 0.604-0.672 0.897-0.979 0.295-0.308 0.514-0.653 0.737-0.957 0.207-0.316 0.449-0.573 0.594-0.849 0.158-0.27 0.296-0.505 0.41-0.699 0.231-0.388 0.376-0.608 0.376-0.608s-0.076 0.251-0.23 0.688c-0.08 0.218-0.175 0.485-0.285 0.789-0.097 0.315-0.289 0.621-0.467 0.976-0.187 0.35-0.372 0.747-0.654 1.099-0.275 0.355-0.511 0.789-0.866 1.124-0.346 0.341-0.658 0.76-1.072 1.055-0.394 0.322-0.793 0.654-1.235 0.911-0.428 0.285-0.884 0.506-1.335 0.714-0.444 0.231-0.919 0.341-1.358 0.507-0.454 0.109-0.887 0.239-1.309 0.286-0.419 0.076-0.817 0.112-1.185 0.125-0.736 0.045-1.348-0.022-1.771-0.07-0.425-0.05-0.662-0.122-0.662-0.122z"/><path d="m67.395 88.6c-0.285 0.218-0.587 0.438-0.926 0.57-0.332 0.146-0.682 0.251-1.04 0.309-0.357 0.063-0.722 0.086-1.086 0.061-0.368-0.025-0.717-0.075-1.097-0.186l0.363-0.187c-0.113 0.345-0.245 0.634-0.393 0.935-0.152 0.292-0.315 0.58-0.504 0.847-0.375 0.532-0.792 1.04-1.283 1.452-0.242 0.209-0.495 0.406-0.758 0.582-0.265 0.175-0.53 0.347-0.815 0.477-0.276 0.152-0.571 0.249-0.859 0.366-0.29 0.107-0.59 0.177-0.886 0.265l0.309-0.376c-0.035 0.221-0.081 0.345-0.131 0.508-0.052 0.151-0.109 0.297-0.171 0.438-0.124 0.283-0.264 0.55-0.414 0.808-0.309 0.509-0.659 0.976-1.038 1.407-0.378 0.431-0.784 0.825-1.21 1.188-0.43 0.357-0.866 0.701-1.326 1.001 0.373-0.425 0.752-0.831 1.108-1.262 0.344-0.442 0.698-0.866 1.006-1.328 0.32-0.45 0.612-0.92 0.853-1.411 0.125-0.242 0.237-0.49 0.332-0.741 0.047-0.125 0.089-0.251 0.125-0.377 0.031-0.115 0.068-0.27 0.073-0.338l0.021-0.28 0.289-0.097c0.267-0.089 0.541-0.157 0.802-0.26 0.259-0.112 0.525-0.204 0.77-0.346 0.253-0.124 0.498-0.265 0.737-0.42 0.239-0.153 0.468-0.325 0.688-0.508 0.443-0.364 0.853-0.781 1.214-1.247 0.18-0.233 0.351-0.475 0.511-0.726 0.153-0.251 0.305-0.525 0.413-0.777l0.124-0.288 0.24 0.1c0.288 0.121 0.628 0.214 0.955 0.272 0.332 0.055 0.67 0.086 1.009 0.083 0.683-2e-3 1.353-0.19 1.995-0.514z"/><path d="m418.38 129.75s-0.704-1.29-1.762-3.225c-0.269-0.477-0.56-0.994-0.878-1.525-0.317-0.508-0.687-1.118-1.068-1.473-0.265-0.229-0.982-0.14-1.55 0.036-0.599 0.185-1.188 0.493-1.729 0.867-0.544 0.373-1.038 0.833-1.439 1.357-0.201 0.262-0.387 0.533-0.541 0.823l-0.11 0.219c-7e-3 -0.017-0.053 0.14-0.077 0.202-0.023 0.078-9e-3 0.1-0.025 0.152-5e-3 0.055 0 0.132-3e-3 0.198 0.043 0.578 0.267 1.223 0.492 1.8 0.239 0.586 0.464 1.14 0.672 1.651 0.429 1.025 0.763 1.896 1.001 2.502 0.23 0.611 0.351 0.964 0.351 0.964s-0.182-0.32-0.499-0.881c-0.312-0.564-0.756-1.368-1.29-2.333-0.257-0.49-0.549-1.013-0.819-1.6-0.263-0.591-0.574-1.207-0.673-2.037-4e-3 -0.111-0.013-0.211-7e-3 -0.332 0.013-0.122 0.031-0.282 0.058-0.374 0.036-0.105 0.027-0.126 0.102-0.3l0.118-0.263c0.166-0.346 0.364-0.679 0.591-0.988 0.457-0.616 1.013-1.148 1.623-1.581 0.612-0.431 1.282-0.754 1.98-0.961 0.35-0.1 0.711-0.172 1.086-0.176 0.189-1e-3 0.382 0.015 0.582 0.063 0.216 0.053 0.431 0.15 0.603 0.315 0.574 0.594 0.834 1.189 1.146 1.765 0.295 0.572 0.542 1.125 0.761 1.641 0.869 2.06 1.304 3.494 1.304 3.494z"/><linearGradient id="c" x1="305.64" x2="330" y1="150.25" y2="145.7" gradientTransform="matrix(1 0 0 -1 0 225.89)" gradientUnits="userSpaceOnUse"><stop stop-color="#fff" offset="0"/><stop stop-color="#EDEDED" offset="1"/></linearGradient><polygon class="st4" points="300.11 95.677 330.82 103.74 334.56 88.015 338.85 77.79 347.3 67.55 341.26 64.873 331.16 60.394 311.24 53.29"/><path d="m402.85 201.67s0.116-0.195 0.317-0.535c0.202-0.335 0.453-0.844 0.702-1.452 0.236-0.607 0.455-1.362 0.36-2.075-0.055-0.375-0.177-0.623-0.421-1.006-0.228-0.369-0.469-0.739-0.713-1.101-0.963-1.447-2.092-2.773-3.204-3.209-0.546-0.224-1.061-0.245-1.415-0.179-0.356 0.061-0.562 0.134-0.562 0.134s0.045-0.031 0.129-0.09c0.084-0.061 0.211-0.145 0.387-0.225 0.346-0.151 0.915-0.32 1.591-0.175 0.675 0.129 1.397 0.544 2.039 1.114 0.651 0.567 1.226 1.294 1.746 2.047 0.258 0.38 0.492 0.772 0.721 1.16 0.1 0.177 0.251 0.409 0.332 0.667 0.085 0.252 0.142 0.513 0.156 0.768 0.055 1.035-0.338 1.848-0.69 2.444-0.359 0.609-0.758 1.015-1.022 1.302-0.274 0.281-0.453 0.411-0.453 0.411z"/><path d="m396.93 199.28s-0.46-0.488-1.054-1.279c-0.302-0.391-0.642-0.852-1.005-1.341-0.369-0.483-0.744-1.009-1.151-1.494-0.192-0.255-0.403-0.486-0.603-0.721-0.218-0.208-0.403-0.46-0.621-0.637-0.207-0.202-0.414-0.369-0.619-0.522-0.204-0.152-0.411-0.256-0.604-0.362-0.199-0.048-0.386-0.173-0.559-0.165-0.171-5e-3 -0.338-0.067-0.462-0.024-0.271 0.035-0.426 0.056-0.426 0.056s0.126-0.091 0.382-0.245c0.124-0.096 0.299-0.109 0.501-0.162 0.207-0.073 0.434-0.014 0.695-4e-3 0.244 0.056 0.525 0.122 0.783 0.259 0.263 0.13 0.538 0.278 0.783 0.482 0.52 0.374 0.982 0.877 1.414 1.395 1.711 2.121 2.546 4.764 2.546 4.764z"/><path class="st1" d="m300.85 96.736s38.184 8.425 40.253 11.479 29.825 66.473 29.825 66.473l8.381 14.48"/><polyline class="st1" points="366.84 154.5 376.32 176.53 388 193.66"/><path class="st1" d="m388.76 193.3 4.357 8.933s2.134 0.659 4.73-1.696"/><path class="st1" d="m378.59 186.64 4.435 8.79s1.406 0.733 3.569-0.696"/><path class="st1" d="m321.24 57.052 35.331 15.674s6.544 0.153 13.187 0.894c6.643 0.74 22.804 8.798 24.603 12.826 2.999 6.719 7.367 13.051 14.319 23.421 0 0 4.521 8.92 6.254 12.002"/><line class="st1" x1="414.8" x2="420.29" y1="123.09" y2="132.24"/><path d="m385.42 105.1s1.312 1.818 3.179 4.583c0.932 1.38 2.021 2.99 3.187 4.715 1.177 1.71 2.391 3.566 3.673 5.359 0.616 0.918 1.249 1.82 1.89 2.692 0.631 0.882 1.252 1.745 1.87 2.568 0.606 0.836 1.227 1.6 1.798 2.352 0.566 0.759 1.159 1.404 1.671 2.049 0.512 0.649 1.037 1.167 1.477 1.669 0.224 0.248 0.433 0.479 0.626 0.694 0.207 0.197 0.395 0.378 0.567 0.542 0.688 0.658 1.08 1.056 1.08 1.056s-0.468-0.254-1.286-0.738c-0.204-0.123-0.43-0.261-0.676-0.41-0.23-0.174-0.478-0.363-0.744-0.563-0.525-0.412-1.152-0.844-1.743-1.426-0.601-0.567-1.298-1.145-1.933-1.859-0.648-0.699-1.369-1.408-2.019-2.229-0.665-0.807-1.383-1.615-2.025-2.512-0.668-0.875-1.331-1.777-1.971-2.698s-1.249-1.865-1.851-2.793c-0.616-0.916-1.143-1.878-1.695-2.776-1.067-1.823-2.004-3.564-2.757-5.088-1.519-3.034-2.318-5.187-2.318-5.187z"/><path d="m407.69 134.2s0.857 0.12 2.143 0.299c0.311 0.032 0.647 0.068 1.003 0.106 0.351 0.045 0.723 0.044 1.1 0.08 0.378 0.039 0.768-2e-3 1.159 0.024 0.388-0.04 0.788-4e-3 1.176-0.07 0.391-0.038 0.782-0.072 1.157-0.159 0.188-0.04 0.379-0.067 0.566-0.097 0.183-0.052 0.363-0.103 0.541-0.153 0.362-0.089 0.702-0.209 1.025-0.337 0.33-0.114 0.641-0.235 0.916-0.384 0.275-0.147 0.557-0.245 0.786-0.371 0.22-0.14 0.427-0.25 0.598-0.345 0.344-0.186 0.558-0.286 0.558-0.286s-0.105 0.214-0.321 0.575c-0.11 0.179-0.242 0.403-0.412 0.644-0.172 0.239-0.401 0.469-0.652 0.727-0.127 0.129-0.26 0.264-0.397 0.403-0.155 0.112-0.316 0.227-0.481 0.347-0.331 0.243-0.688 0.499-1.101 0.658-0.4 0.195-0.82 0.386-1.272 0.482-0.443 0.148-0.906 0.196-1.368 0.251-0.462 0.062-0.924 0.02-1.377 0.015-0.449-0.051-0.891-0.114-1.306-0.214-0.836-0.187-1.581-0.495-2.185-0.817-1.221-0.643-1.856-1.378-1.856-1.378z"/><path d="m387.62 110.62s0.223 0.262 0.303 0.767c0.041 0.248 0.054 0.554-4e-3 0.866-0.042 0.319-0.167 0.637-0.311 0.937-0.167 0.286-0.355 0.553-0.571 0.755-0.212 0.206-0.433 0.362-0.638 0.462-0.402 0.213-0.713 0.236-0.713 0.236s0.152-0.305 0.387-0.668c0.118-0.184 0.247-0.391 0.381-0.606 0.127-0.22 0.268-0.439 0.386-0.672 0.248-0.453 0.441-0.935 0.574-1.343 0.13-0.404 0.206-0.734 0.206-0.734z"/><path d="m385.2 112.52c0.743 0.999 1.368 2.107 1.904 3.269 0.526 1.167 0.97 2.396 1.257 3.686 0.291 1.286 0.452 2.632 0.386 3.993-0.021 0.68-0.115 1.36-0.243 2.034-0.126 0.676-0.341 1.329-0.582 1.97l-0.053-0.822c0.175 0.302 0.303 0.551 0.431 0.828 0.132 0.27 0.242 0.547 0.358 0.822 0.216 0.556 0.411 1.122 0.57 1.7 0.167 0.576 0.276 1.169 0.381 1.762 0.086 0.597 0.16 1.197 0.189 1.802 0.029 0.302 0.026 0.605 0.026 0.907-6e-3 0.303 0.015 0.607-0.015 0.908l-0.063 0.907c-0.02 0.303-0.086 0.598-0.127 0.897-0.076 0.602-0.236 1.181-0.373 1.765-0.061 0.296-0.169 0.573-0.257 0.857l-0.278 0.85-1.441-0.991c0.174-0.202 0.307-0.335 0.465-0.49 0.152-0.148 0.307-0.289 0.467-0.424 0.316-0.273 0.652-0.515 0.997-0.74 0.692-0.446 1.434-0.808 2.215-1.049 0.78-0.239 1.598-0.367 2.412-0.323 0.813 0.036 1.612 0.222 2.364 0.514l-0.817 0.477c0.097-0.307 0.191-0.521 0.303-0.764 0.11-0.235 0.23-0.461 0.359-0.679 0.261-0.434 0.552-0.843 0.871-1.219 0.639-0.753 1.383-1.388 2.201-1.853 1.633-0.948 3.471-1.252 5.221-1.136-1.741 0.253-3.434 0.826-4.816 1.878-0.684 0.53-1.298 1.152-1.795 1.869-0.248 0.358-0.468 0.737-0.657 1.13-0.092 0.198-0.181 0.396-0.259 0.597-0.076 0.192-0.152 0.422-0.189 0.576-0.088 0.369-0.432 0.589-0.767 0.492l-5e-3 -1e-3 -0.045-0.014c-1.307-0.4-2.666-0.345-3.924 0.113-0.629 0.228-1.233 0.558-1.795 0.959-0.282 0.2-0.55 0.423-0.813 0.652-0.131 0.115-0.258 0.234-0.38 0.357-0.117 0.117-0.252 0.261-0.33 0.355-0.321 0.387-0.867 0.416-1.219 0.062-0.262-0.263-0.343-0.661-0.236-1.007l0.014-0.044 0.237-0.762c0.075-0.255 0.171-0.504 0.219-0.766 0.113-0.52 0.251-1.035 0.308-1.565 0.09-0.525 0.131-1.055 0.173-1.587 0.033-0.265 0.014-0.532 0.024-0.799 4e-3 -0.267 0.012-0.533-0.012-0.8-0.017-0.534-0.076-1.063-0.144-1.592-0.082-0.527-0.185-1.049-0.306-1.567s-0.273-1.027-0.443-1.528c-0.093-0.246-0.18-0.496-0.283-0.733-0.095-0.236-0.216-0.487-0.311-0.671l-0.029-0.057c-0.124-0.243-0.124-0.53-0.025-0.765 0.457-1.064 0.787-2.208 0.911-3.407 0.127-1.197 0.099-2.43-0.057-3.658-0.168-1.225-0.433-2.454-0.81-3.65-0.373-1.204-0.816-2.387-1.364-3.525z"/><path class="st1" d="m368.72 134.03s7.803 23.511 10.307 23.972 16.282-6.223 25.417-12.105"/><line class="st1" x1="403.78" x2="412.37" y1="144.92" y2="141.07"/><path d="m408.52 134.56s0.601-0.166 1.452 0.06c0.427 0.102 0.911 0.301 1.387 0.623 0.472 0.323 0.942 0.763 1.304 1.314 0.185 0.271 0.349 0.561 0.467 0.874 0.146 0.295 0.213 0.623 0.283 0.93 0.085 0.304 0.075 0.616 0.091 0.9 0.022 0.284-0.028 0.553-0.07 0.794-0.042 0.24-0.07 0.458-0.15 0.641-0.063 0.184-0.138 0.34-0.194 0.466-0.119 0.251-0.203 0.382-0.203 0.382s-0.065-0.158-0.151-0.415c-0.04-0.127-0.094-0.28-0.134-0.449-0.036-0.17-0.135-0.351-0.189-0.545-0.068-0.193-0.129-0.399-0.227-0.598-0.094-0.2-0.15-0.418-0.269-0.615-0.105-0.202-0.191-0.414-0.318-0.609-0.11-0.203-0.227-0.404-0.368-0.592-0.111-0.208-0.279-0.376-0.406-0.576-0.151-0.185-0.3-0.368-0.444-0.545-0.3-0.355-0.609-0.684-0.881-0.99-0.554-0.581-0.98-1.05-0.98-1.05z"/><polyline class="st1" points="367.05 145.57 381.33 174.49 395.1 192.7"/><line class="st1" x1="396.5" x2="401.5" y1="192.93" y2="201.94"/><path class="st1" d="m393.61 154.58s1.812 3.768 1.812 9.648c0 0 6.753 5.839 6.174 15.607 0 0 12.703 13.735 0.624 23.021"/><path class="st5" d="m345.02 70.53s-10.602 8.999-13.139 31.506"/><line class="st1" x1="366.54" x2="369.99" y1="133.08" y2="137.74"/><linearGradient id="b" x1="128.86" x2="138.86" y1="818.52" y2="796.59" gradientTransform="translate(0 -615.78)" gradientUnits="userSpaceOnUse"><stop stop-color="#fff" offset="0"/><stop stop-color="#EDEDED" offset="1"/></linearGradient><path class="st6" d="m155.12 218.7 4.253-34.256 5.443-17.589s-8.076-1.074-9.794-0.465-14.554-4.014-14.554-4.014l-9.652-5.807-4.999-5.569-12.455 22.837-14.14 20.347c1e-3 -1e-3 55.289 24.516 55.898 24.516z"/><path d="m108.73 181.91 4.312-7.831 4.349-7.805 4.351-7.804 4.404-7.767 0.018-0.031 0.055-0.071c1.012-1.317 1.819-2.988 2.194-4.671 0.192-0.847 0.27-1.717 0.199-2.566-0.013-0.439-0.107-0.818-0.181-1.285l-0.255-1.419c-0.625-3.739-1.188-7.47-1.755-11.206-1.096-7.476-2.139-14.959-3.163-22.447-0.986-7.497-1.98-14.98-2.827-22.521-0.103-0.946-0.201-1.889-0.276-2.86l-0.047-0.754c-4e-3 -0.132-0.011-0.271-4e-3 -0.461-2e-3 -0.016 8e-3 -0.153 0.026-0.257l0.031-0.16c-0.032 0.131-4e-3 0.012-9e-3 0.03 0.015-0.063 0.026-0.131 0.011-0.074-4e-3 0.059-5e-3 -0.197-0.035-0.373l-0.099-0.681c-0.152-0.978-0.222-2.164 0.047-3.291 0.256-1.136 0.819-2.137 1.47-2.947 0.66-0.806 1.406-1.463 2.179-2.021 0.403-0.286 0.747-0.513 1.216-0.797l0.578-0.316 0.694-0.317c1.793-0.732 3.512-0.912 4.906-1.583 0.702-0.328 1.345-0.747 1.917-1.301 0.282-0.282 0.573-0.555 0.825-0.887l0.427-0.528c0.14-0.172 0.279-0.346 0.501-0.564 0.78-0.783 1.564-1.283 2.384-1.749 0.815-0.456 1.642-0.833 2.475-1.17 3.333-1.331 6.727-2.147 10.121-2.902 3.398-0.728 6.807-1.303 10.214-1.861l1.278-0.206 0.217-0.033 0.161-0.013c0.129-4e-3 0.4 5e-3 0.525 0.045 0.317 0.061 0.575 0.196 0.821 0.331 0.93 0.586 1.523 1.339 2.12 2.075 1.149 1.505 2.162 3.03 3.039 4.754 1.72 3.325 3.241 6.72 4.758 10.126 0.743 1.71 1.469 3.43 2.182 5.156l1.048 2.605c0.332 0.881 0.685 1.777 0.802 2.806 0.135 1.041-0.209 2.096-0.688 2.907-0.471 0.832-1.051 1.562-1.612 2.273-1.149 1.425-2.319 2.805-3.494 4.19l-7.131 8.209 6.876-8.464c1.14-1.413 2.284-2.833 3.385-4.27 0.554-0.727 1.075-1.461 1.488-2.255 0.418-0.789 0.65-1.638 0.51-2.492-0.124-0.853-0.486-1.708-0.845-2.553l-1.135-2.538-2.357-5.038c-1.583-3.347-3.184-6.703-4.94-9.909-0.833-1.562-1.891-3.079-2.986-4.438-0.547-0.661-1.151-1.321-1.734-1.654-0.14-0.069-0.278-0.136-0.387-0.147-0.084-0.018-0.032-5e-3 -0.116-0.014l-0.161 0.017c-0.026 3e-3 0.082-0.01 0.017-1e-3l-0.04 8e-3 -0.079 0.015-1.269 0.24c-3.384 0.641-6.757 1.328-10.1 2.107-3.334 0.787-6.672 1.649-9.795 2.948-0.778 0.326-1.537 0.687-2.25 1.098-0.704 0.401-1.403 0.896-1.888 1.4-0.103 0.091-0.25 0.272-0.394 0.455l-0.424 0.538c-0.296 0.397-0.655 0.753-1.006 1.107-0.718 0.7-1.57 1.264-2.448 1.678-1.778 0.831-3.548 1.022-4.974 1.639l-0.498 0.226-0.576 0.318c-0.282 0.177-0.678 0.433-0.995 0.664-0.663 0.48-1.262 1.027-1.753 1.629-0.481 0.608-0.837 1.268-0.994 1.978-0.163 0.715-0.136 1.462 2e-3 2.342l0.107 0.72c0.029 0.291 0.082 0.508 0.039 1.04-0.02 0.175-0.033 0.223-0.044 0.275l-0.026 0.117c8e-3 -0.024 0.015-0.047 0.021-0.072 0.011-0.045 0.011-0.125 0.011-0.081l6e-3 0.248 0.044 0.66c0.075 0.913 0.173 1.851 0.27 2.784 0.812 7.486 1.778 14.986 2.735 22.473l2.895 22.47c0.482 3.743 0.962 7.494 1.499 11.214l0.215 1.372c0.063 0.464 0.174 1.013 0.177 1.521 0.061 1.038-0.058 2.075-0.303 3.056-0.502 1.974-1.386 3.715-2.623 5.254l0.072-0.102-4.576 7.645-4.629 7.608-4.63 7.606-4.673 7.581z"/><path d="m181.96 95.092s-0.013-0.048-0.039-0.141c-0.012-0.046-0.027-0.105-0.045-0.174-4e-3 -0.047-0.027-0.043-0.014-0.145 0.122-1e-3 0.05 0.036 0.077 0.038l0.011 0.033 0.021 0.066c0.102 0.362 0.239 0.896 0.367 1.586 0.264 1.377 0.551 3.373 0.673 5.79 0.134 2.416 0.105 5.255-0.187 8.273-0.154 1.508-0.338 3.067-0.627 4.63-0.284 1.564-0.624 3.143-1.023 4.704-0.417 1.555-0.892 3.091-1.41 4.581-0.508 1.495-1.111 2.92-1.711 4.286-1.216 2.726-2.567 5.143-3.842 7.111-1.266 1.978-2.454 3.51-3.309 4.553-0.861 1.039-1.384 1.597-1.384 1.597s0.401-0.667 1.101-1.836c0.69-1.173 1.655-2.856 2.721-4.921 1.06-2.069 2.209-4.528 3.278-7.235 0.543-1.349 1.03-2.776 1.522-4.224 0.484-1.452 0.922-2.948 1.309-4.46 0.406-1.506 0.756-3.029 1.051-4.542 0.288-1.514 0.564-3.007 0.759-4.468 0.41-2.917 0.627-5.671 0.725-8.041 0.09-2.371 0.066-4.358 1e-3 -5.749-0.038-0.694-0.065-1.244-0.109-1.612l-9e-3 -0.066-5e-3 -0.031c0.021-0.013-0.057-0.014 0.057-0.01 0.014-0.02 5e-3 0.06 0.012 0.083 5e-3 0.071 0.011 0.131 0.014 0.179 0.01 0.094 0.015 0.145 0.015 0.145z"/><line class="st1" x1="172.12" x2="158.48" y1="136.3" y2="193.33"/><path class="st2" d="m128.58 154.24s13.027 13.676 33.091 12.193"/><path class="st1" d="m132.35 71.419s19.251-4.025 22.706-4.465c3.455-0.439 6.526 5.715 7.905 8.744s6.802 13.132 3.727 16.752-8.48 7.066-8.48 7.066"/><path d="m140.29 86.418s0.202 0.076 0.547 0.188c0.342 0.117 0.824 0.272 1.388 0.435 1.135 0.322 2.594 0.651 4.045 0.672 0.364 0.041 0.724-0.012 1.083-0.012 0.36 2e-3 0.707-0.083 1.054-0.103 0.347-0.029 0.671-0.131 0.995-0.176 0.327-0.039 0.62-0.147 0.906-0.211 0.278-0.087 0.561-0.113 0.785-0.205 0.228-0.083 0.44-0.138 0.614-0.19 0.35-0.097 0.566-0.14 0.566-0.14s-0.128 0.181-0.381 0.478c-0.128 0.145-0.282 0.328-0.473 0.52-0.181 0.212-0.427 0.377-0.69 0.575-0.268 0.19-0.548 0.434-0.891 0.583-0.339 0.157-0.691 0.366-1.084 0.478-0.394 0.104-0.8 0.265-1.229 0.3-0.428 0.051-0.865 0.112-1.303 0.079l-0.654-0.038-0.64-0.117c-0.426-0.062-0.824-0.227-1.21-0.353-0.376-0.164-0.739-0.321-1.062-0.519-0.326-0.189-0.619-0.393-0.876-0.603-0.523-0.399-0.898-0.82-1.141-1.128-0.242-0.308-0.349-0.513-0.349-0.513z"/><path d="m150.58 83.448s0.326 0.497 0.72 1.131c0.414 0.635 0.895 1.421 1.379 2.205 0.243 0.393 0.49 0.785 0.716 1.173 0.239 0.376 0.447 0.756 0.633 1.096 0.181 0.345 0.342 0.638 0.445 0.867 0.103 0.227 0.155 0.376 0.155 0.376s-0.138-0.011-0.369-0.06c-0.227-0.055-0.562-0.131-0.907-0.325-0.368-0.163-0.749-0.436-1.133-0.77-0.371-0.348-0.728-0.773-1.027-1.249-0.285-0.485-0.527-1.004-0.668-1.527-0.154-0.517-0.213-1.03-0.21-1.47-0.013-0.885 0.266-1.447 0.266-1.447z"/><path d="m152.75 87.021s-0.825 1.109-1.843 2.812c-0.246 0.433-0.508 0.899-0.765 1.398-0.259 0.498-0.493 1.041-0.726 1.596-0.243 0.554-0.405 1.155-0.584 1.751-0.146 0.606-0.287 1.22-0.34 1.844-0.071 0.621-0.081 1.245-0.038 1.858 0.047 0.611 0.118 1.218 0.268 1.792 0.144 0.573 0.306 1.133 0.512 1.647 0.09 0.264 0.203 0.509 0.315 0.747 0.111 0.238 0.196 0.486 0.32 0.699 0.236 0.43 0.43 0.851 0.647 1.195 0.21 0.348 0.377 0.674 0.544 0.916 0.317 0.502 0.492 0.81 0.492 0.81s-0.276-0.182-0.747-0.534c-0.465-0.357-1.109-0.915-1.775-1.726-0.323-0.411-0.687-0.862-0.98-1.414-0.316-0.533-0.615-1.135-0.833-1.803-0.115-0.332-0.225-0.673-0.301-1.033-0.098-0.354-0.155-0.723-0.196-1.098-0.097-0.749-0.089-1.524-0.013-2.286 0.16-1.527 0.664-2.965 1.304-4.158 0.627-1.206 1.398-2.174 2.104-2.923 1.428-1.503 2.635-2.09 2.635-2.09z"/><line class="st7" x1="158.15" x2="150.84" y1="98.916" y2="104.93"/><path d="m155.52 104.06s0.597 2.747 1.491 6.868c0.478 2.049 1.035 4.44 1.632 7.002 0.322 1.276 0.653 2.595 0.991 3.936 0.341 1.353 0.521 2.812 0.544 4.244 0.062 2.884-0.51 5.742-1.414 8.227-0.915 2.489-2.144 4.612-3.322 6.301-1.194 1.683-2.352 2.924-3.179 3.762-0.839 0.826-1.349 1.256-1.349 1.256s0.48-0.472 1.268-1.349 1.868-2.184 2.98-3.898c1.114-1.707 2.26-3.837 3.082-6.294 0.847-2.437 1.381-5.211 1.292-7.986-0.031-1.393-0.232-2.747-0.541-4.08-0.321-1.345-0.636-2.667-0.941-3.948-0.601-2.569-1.074-4.991-1.45-7.071-0.767-4.161-1.084-6.97-1.084-6.97z"/><path d="m157.33 103.7s0.487 1.445 1.094 3.655c0.295 1.107 0.648 2.397 0.977 3.794 0.336 1.395 0.652 2.895 0.955 4.398 0.281 1.509 0.551 3.022 0.741 4.453 0.199 1.43 0.32 2.776 0.388 3.933 0.032 0.579 0.065 1.108 0.042 1.582-0.016 0.473-1e-3 0.882-0.04 1.219-0.078 0.67-0.122 1.053-0.122 1.053s-4e-3 -0.385-9e-3 -1.056c6e-3 -0.333-0.05-0.74-0.08-1.204-0.026-0.464-0.111-0.985-0.169-1.553-0.055-0.569-0.16-1.181-0.257-1.83-0.09-0.649-0.23-1.328-0.339-2.034-0.245-1.409-0.522-2.911-0.815-4.408-0.597-2.998-1.192-5.994-1.64-8.242-0.446-2.251-0.726-3.76-0.726-3.76z"/><path class="st1" d="m169.93 95.023"/><path class="st7" d="m168.68 95.556-4.678 6.329s-1.924 0.551-3.492-1.81"/><path class="st7" d="m181.96 89.14-3.864 8.096s-1.248 1.064-2.816-1.296"/><path class="st7" d="m174.89 93.345-3.856 6.009s-1.924 0.551-3.492-1.81"/><path d="m150.42 57.755c8e-3 3e-3 0.01-0.101 0.1-0.263 0.095-0.175 0.26-0.394 0.503-0.628 0.481-0.481 1.236-1.055 2.189-1.632 0.948-0.588 2.094-1.18 3.351-1.721 0.631-0.265 1.28-0.548 1.957-0.779 0.675-0.236 1.365-0.464 2.057-0.679 0.699-0.193 1.4-0.375 2.095-0.535 0.692-0.176 1.388-0.272 2.057-0.385 1.342-0.206 2.614-0.29 3.706-0.256 0.546 9e-3 1.047 0.055 1.488 0.111 0.442 0.059 0.824 0.13 1.135 0.212 0.312 0.063 0.551 0.161 0.713 0.214 0.162 0.056 0.247 0.086 0.247 0.086s-0.364 0.017-0.982 0.093c-0.618 0.067-1.488 0.206-2.519 0.416-1.031 0.217-2.224 0.503-3.499 0.836-0.636 0.173-1.293 0.352-1.96 0.534-0.669 0.176-1.344 0.379-2.019 0.583-0.679 0.187-1.356 0.387-2.018 0.595-0.665 0.204-1.319 0.404-1.952 0.598-1.265 0.395-2.444 0.775-3.452 1.114-1.004 0.349-1.842 0.648-2.399 0.921-0.277 0.137-0.498 0.256-0.618 0.361-0.135 0.109-0.174 0.212-0.18 0.204z"/><path d="m168.04 51.098s0.193-0.08 0.577-0.163c0.383-0.083 0.961-0.167 1.708-0.085 0.744 0.069 1.658 0.333 2.595 0.928 0.94 0.588 1.841 1.555 2.572 2.766 0.678 1.159 1.317 2.527 1.935 3.928 0.595 1.424 1.188 2.933 1.762 4.511 0.548 1.587 1.11 3.228 1.634 4.911 0.501 1.693 1.01 3.412 1.463 5.156 0.217 0.876 0.431 1.75 0.626 2.641l0.144 0.671 0.067 0.344 0.033 0.172 0.017 0.086 0.02 0.124 4e-3 0.042c0.01 0.126 0.028 0.188 0.031 0.365 3e-3 0.169 3e-3 0.346-5e-3 0.507-0.029 0.268-0.057 0.539-0.11 0.78-0.407 1.948-1.15 3.513-1.87 5.049-0.73 1.522-1.541 2.912-2.319 4.217-0.784 1.301-1.569 2.496-2.328 3.569-1.502 2.158-2.891 3.833-3.902 4.957-1.021 1.115-1.65 1.692-1.65 1.692s0.552-0.668 1.417-1.918c0.872-1.242 2.056-3.066 3.359-5.329 1.287-2.271 2.743-4.965 4.001-7.969 0.616-1.483 1.248-3.102 1.48-4.634 0.033-0.192 0.037-0.363 0.05-0.537-4e-3 -0.06-6e-3 -0.106-3e-3 -0.159 5e-3 -0.046-0.025-0.203-0.035-0.299l-0.137-0.535-0.171-0.624c-0.233-0.836-0.491-1.684-0.751-2.526-0.509-1.692-1.02-3.389-1.552-5.046-0.513-1.665-1.02-3.303-1.536-4.876-0.509-1.574-0.987-3.102-1.496-4.52-0.495-1.434-0.952-2.731-1.489-3.915-0.485-1.132-1.146-2.023-1.85-2.673-0.703-0.656-1.463-1.036-2.115-1.272-0.658-0.224-1.213-0.302-1.592-0.333-0.379-0.027-0.584-3e-3 -0.584-3e-3z"/><path d="m157.63 53.601c6e-3 2e-3 9e-3 -0.094 0.084-0.249 0.084-0.164 0.228-0.386 0.452-0.609 0.438-0.468 1.137-1.02 2.022-1.571 0.881-0.563 1.952-1.118 3.127-1.623 1.174-0.51 2.454-0.974 3.759-1.336 1.304-0.365 2.632-0.636 3.892-0.793 1.258-0.163 2.449-0.207 3.468-0.144 1.019 0.048 1.864 0.207 2.441 0.371 0.29 0.065 0.511 0.165 0.662 0.216 0.15 0.055 0.23 0.084 0.23 0.084s-0.334 0.034-0.918 0.093c-0.578 0.058-1.391 0.19-2.354 0.37-0.48 0.1-0.999 0.209-1.549 0.324-0.546 0.129-1.122 0.264-1.718 0.404-1.189 0.299-2.451 0.64-3.712 0.992-1.261 0.351-2.523 0.713-3.702 1.068-1.179 0.358-2.279 0.701-3.217 1.012-0.934 0.32-1.715 0.598-2.231 0.857-0.259 0.13-0.457 0.244-0.57 0.343-0.123 0.105-0.162 0.198-0.166 0.191z"/><path d="m173.79 47.541s0.189-0.078 0.562-0.159 0.937-0.167 1.664-0.094c0.725 0.061 1.619 0.304 2.539 0.866 0.926 0.551 1.819 1.475 2.557 2.638 0.394 0.622 0.66 1.139 0.995 1.817 0.331 0.653 0.626 1.316 0.942 2.002 0.584 1.386 1.17 2.858 1.74 4.391 0.544 1.545 1.088 3.147 1.614 4.783 0.506 1.645 0.991 3.325 1.455 5.016 0.225 0.848 0.43 1.703 0.632 2.562l0.289 1.295 0.13 0.668 0.016 0.083 0.017 0.104 5e-3 0.041 0.021 0.161c0.015 0.085 0.022 0.272 0.026 0.423-2e-3 1.137-0.234 1.984-0.475 2.853-0.251 0.85-0.544 1.651-0.853 2.423-0.614 1.544-1.313 2.959-1.994 4.284-0.682 1.324-1.357 2.551-2.013 3.659-1.296 2.227-2.461 4.015-3.289 5.255-0.847 1.224-1.331 1.924-1.331 1.924s0.385-0.769 1.06-2.115c0.675-1.344 1.625-3.269 2.716-5.599 1.075-2.333 2.32-5.076 3.353-8.08 0.254-0.749 0.49-1.518 0.673-2.29 0.181-0.75 0.313-1.595 0.276-2.187-7e-3 -0.064 4e-3 -0.094-0.022-0.222l-0.025-0.16-6e-3 -0.04-4e-3 -0.02c0.021 0.12 3e-3 0.023 6e-3 0.044l-0.019-0.074-0.151-0.595-0.346-1.223c-0.249-0.82-0.499-1.643-0.747-2.467-0.484-1.656-1.005-3.302-1.519-4.92-0.49-1.628-0.997-3.22-1.505-4.751-0.476-1.545-0.975-3.018-1.46-4.405-0.242-0.69-0.473-1.373-0.716-1.989-0.217-0.602-0.528-1.302-0.756-1.8-0.493-1.09-1.155-1.942-1.848-2.568-0.697-0.627-1.44-0.992-2.079-1.215-0.643-0.214-1.185-0.288-1.555-0.316-0.373-0.026-0.575-3e-3 -0.575-3e-3z"/><path d="m157.57 98.252s-0.598 0.152-1.458 0.331c-0.43 0.091-0.925 0.202-1.446 0.323-0.263 0.049-0.521 0.151-0.793 0.205-0.261 0.084-0.535 0.155-0.789 0.26-0.253 0.101-0.523 0.178-0.747 0.315-0.115 0.065-0.237 0.118-0.351 0.177-0.105 0.072-0.208 0.142-0.311 0.213-0.225 0.125-0.355 0.319-0.54 0.465-0.145 0.174-0.254 0.364-0.389 0.532-0.073 0.196-0.153 0.381-0.229 0.551-0.073 0.171-0.077 0.339-0.115 0.475-0.059 0.274-0.103 0.445-0.103 0.445s-0.047-0.153-0.111-0.446c-0.021-0.145-0.093-0.329-0.078-0.542 0.011-0.212 0.024-0.462 0.062-0.735 0.09-0.248 0.173-0.55 0.326-0.82 0.179-0.237 0.339-0.563 0.597-0.75 0.238-0.224 0.491-0.447 0.782-0.589 0.279-0.182 0.579-0.288 0.875-0.416 0.603-0.203 1.212-0.333 1.785-0.37 0.572-0.044 1.104-0.031 1.556 0.031 0.899 0.1 1.477 0.345 1.477 0.345z"/><path d="m168.52 95.045s-0.502 0.255-1.255 0.639c-0.373 0.184-0.8 0.402-1.251 0.639-0.448 0.241-0.916 0.503-1.353 0.804-0.208 0.159-0.446 0.288-0.623 0.471-0.093 0.087-0.19 0.169-0.289 0.247l-0.244 0.271c-0.178 0.171-0.276 0.375-0.405 0.558-0.115 0.189-0.159 0.395-0.25 0.58-0.04 0.194-0.059 0.383-0.093 0.556-0.037 0.174 6e-3 0.325 0 0.457 6e-3 0.27 0.01 0.424 0.01 0.424s-0.07-0.128-0.183-0.377c-0.044-0.128-0.152-0.274-0.17-0.471-0.026-0.194-0.073-0.423-0.074-0.675 0.04-0.242 0.046-0.539 0.152-0.806 0.111-0.261 0.209-0.57 0.402-0.8 0.169-0.26 0.362-0.5 0.592-0.701 0.214-0.229 0.467-0.384 0.704-0.575 0.502-0.319 1.021-0.589 1.527-0.766 0.503-0.185 0.983-0.31 1.401-0.377 0.832-0.151 1.402-0.098 1.402-0.098z"/><line class="st1" x1="129.1" x2="109.19" y1="146.11" y2="181.12"/><path d="m167.7 96.885s0.394-0.76 1.096-1.769c0.695-1.016 1.685-2.294 2.742-3.494 1.052-1.206 2.168-2.336 3.024-3.167 0.431-0.416 0.791-0.764 1.042-1.006 0.241-0.252 0.395-0.399 0.395-0.399s-0.053 0.205-0.176 0.569c-0.138 0.348-0.355 0.841-0.669 1.385-0.617 1.099-1.577 2.437-2.647 3.647-1.064 1.219-2.234 2.315-3.171 3.069-0.929 0.762-1.636 1.165-1.636 1.165z"/><linearGradient id="a" x1="224.19" x2="234.18" y1="818.52" y2="796.59" gradientTransform="translate(0 -615.78)" gradientUnits="userSpaceOnUse"><stop stop-color="#fff" offset="0"/><stop stop-color="#EDEDED" offset="1"/></linearGradient><path class="st8" d="m250.45 218.7 4.253-34.256 5.443-17.589s-8.076-1.074-9.794-0.465-14.554-4.014-14.554-4.014l-9.652-5.807-4.999-5.569-12.455 22.837-14.14 20.347c1e-3 -1e-3 55.289 24.516 55.898 24.516z"/><path d="m204.06 181.91 4.312-7.831 4.349-7.805 4.351-7.804 4.404-7.767 0.018-0.031 0.055-0.071c1.012-1.317 1.819-2.988 2.194-4.671 0.192-0.847 0.27-1.717 0.199-2.566-0.013-0.439-0.107-0.818-0.181-1.285l-0.255-1.419c-0.625-3.739-1.188-7.47-1.755-11.206-1.096-7.476-2.139-14.959-3.163-22.447-0.986-7.497-1.98-14.98-2.827-22.521-0.103-0.946-0.201-1.889-0.276-2.86l-0.047-0.754c-4e-3 -0.132-0.011-0.271-4e-3 -0.461-2e-3 -0.016 8e-3 -0.153 0.026-0.257l0.031-0.16c-0.032 0.131-4e-3 0.012-9e-3 0.03 0.015-0.063 0.026-0.131 0.011-0.074-4e-3 0.059-5e-3 -0.197-0.035-0.373l-0.099-0.681c-0.152-0.978-0.222-2.164 0.047-3.291 0.256-1.136 0.819-2.137 1.47-2.947 0.66-0.806 1.406-1.463 2.179-2.021 0.403-0.286 0.747-0.513 1.216-0.797l0.578-0.316 0.694-0.317c1.793-0.732 3.512-0.912 4.906-1.583 0.702-0.328 1.345-0.747 1.917-1.301 0.282-0.282 0.573-0.555 0.825-0.887l0.427-0.528c0.14-0.172 0.279-0.346 0.501-0.564 0.78-0.783 1.564-1.283 2.384-1.749 0.815-0.456 1.642-0.833 2.475-1.17 3.333-1.331 6.727-2.147 10.121-2.902 3.398-0.728 6.807-1.303 10.214-1.861l1.278-0.206 0.217-0.033 0.161-0.013c0.129-4e-3 0.4 5e-3 0.525 0.045 0.317 0.061 0.575 0.196 0.821 0.331 0.93 0.586 1.523 1.339 2.12 2.075 1.149 1.505 2.162 3.03 3.039 4.754 1.72 3.325 3.241 6.72 4.758 10.126 0.743 1.71 1.469 3.43 2.182 5.156l1.048 2.605c0.332 0.881 0.685 1.777 0.802 2.806 0.135 1.041-0.209 2.096-0.688 2.907-0.471 0.832-1.051 1.562-1.612 2.273-1.149 1.425-2.319 2.805-3.494 4.19l-7.131 8.209 6.876-8.464c1.14-1.413 2.284-2.833 3.385-4.27 0.554-0.727 1.075-1.461 1.488-2.255 0.418-0.789 0.65-1.638 0.51-2.492-0.124-0.853-0.486-1.708-0.845-2.553l-1.135-2.538-2.357-5.038c-1.583-3.347-3.184-6.703-4.94-9.909-0.833-1.562-1.891-3.079-2.986-4.438-0.547-0.661-1.151-1.321-1.734-1.654-0.14-0.069-0.278-0.136-0.387-0.147-0.084-0.018-0.032-5e-3 -0.116-0.014l-0.161 0.017c-0.026 3e-3 0.082-0.01 0.017-1e-3l-0.04 8e-3 -0.079 0.015-1.269 0.24c-3.384 0.641-6.757 1.328-10.1 2.107-3.334 0.787-6.672 1.649-9.795 2.948-0.778 0.326-1.537 0.687-2.251 1.098-0.704 0.401-1.403 0.896-1.888 1.4-0.103 0.091-0.25 0.272-0.394 0.455l-0.424 0.538c-0.296 0.397-0.655 0.753-1.006 1.107-0.718 0.7-1.57 1.264-2.448 1.678-1.778 0.831-3.548 1.022-4.974 1.639l-0.498 0.226-0.576 0.318c-0.282 0.177-0.678 0.433-0.995 0.664-0.663 0.48-1.262 1.027-1.753 1.629-0.481 0.608-0.837 1.268-0.994 1.978-0.163 0.715-0.136 1.462 2e-3 2.342l0.107 0.72c0.029 0.291 0.082 0.508 0.039 1.04-0.02 0.175-0.033 0.223-0.044 0.275l-0.026 0.117c8e-3 -0.024 0.015-0.047 0.021-0.072 0.011-0.045 0.011-0.125 0.011-0.081l6e-3 0.248 0.044 0.66c0.075 0.913 0.173 1.851 0.27 2.784 0.812 7.486 1.778 14.986 2.735 22.473l2.895 22.47c0.482 3.743 0.962 7.494 1.499 11.214l0.215 1.372c0.063 0.464 0.174 1.013 0.177 1.521 0.061 1.038-0.058 2.075-0.303 3.056-0.502 1.974-1.386 3.715-2.623 5.254l0.072-0.102-4.576 7.645-4.629 7.608-4.63 7.606-4.672 7.581z"/><path d="m277.29 95.092s-0.013-0.048-0.039-0.141c-0.012-0.046-0.027-0.105-0.045-0.174-4e-3 -0.047-0.027-0.043-0.014-0.145 0.122-1e-3 0.05 0.036 0.077 0.038l0.011 0.033 0.021 0.066c0.102 0.362 0.239 0.896 0.367 1.586 0.264 1.377 0.551 3.373 0.673 5.79 0.134 2.416 0.105 5.255-0.187 8.273-0.154 1.508-0.338 3.067-0.627 4.63-0.284 1.564-0.624 3.143-1.023 4.704-0.417 1.555-0.892 3.091-1.41 4.581-0.509 1.495-1.111 2.92-1.711 4.286-1.216 2.726-2.567 5.143-3.842 7.111-1.266 1.978-2.454 3.51-3.309 4.553-0.861 1.039-1.384 1.597-1.384 1.597s0.401-0.667 1.101-1.836c0.69-1.173 1.655-2.856 2.721-4.921 1.06-2.069 2.209-4.528 3.278-7.235 0.543-1.349 1.03-2.776 1.522-4.224 0.484-1.452 0.922-2.948 1.309-4.46 0.406-1.506 0.756-3.029 1.051-4.542 0.288-1.514 0.564-3.007 0.759-4.468 0.41-2.917 0.627-5.671 0.725-8.041 0.09-2.371 0.066-4.358 1e-3 -5.749-0.038-0.694-0.065-1.244-0.109-1.612l-9e-3 -0.066-4e-3 -0.031c0.021-0.013-0.057-0.014 0.057-0.01 0.014-0.02 5e-3 0.06 0.012 0.083 5e-3 0.071 0.011 0.131 0.014 0.179 8e-3 0.094 0.014 0.145 0.014 0.145z"/><line class="st1" x1="267.45" x2="253.81" y1="136.3" y2="193.33"/><path class="st2" d="m223.91 154.24s13.027 13.676 33.091 12.193"/><path class="st1" d="m227.68 71.419s19.251-4.025 22.706-4.465c3.455-0.439 6.526 5.715 7.905 8.744s6.802 13.132 3.727 16.752-8.48 7.066-8.48 7.066"/><path d="m235.62 86.418s0.202 0.076 0.547 0.188c0.342 0.117 0.824 0.272 1.388 0.435 1.135 0.322 2.594 0.651 4.045 0.672 0.364 0.041 0.724-0.012 1.083-0.012 0.36 2e-3 0.707-0.083 1.054-0.103 0.347-0.029 0.671-0.131 0.995-0.176 0.327-0.039 0.62-0.147 0.906-0.211 0.278-0.087 0.561-0.113 0.785-0.205 0.228-0.083 0.44-0.138 0.614-0.19 0.35-0.097 0.566-0.14 0.566-0.14s-0.128 0.181-0.381 0.478c-0.128 0.145-0.282 0.328-0.473 0.52-0.181 0.212-0.427 0.377-0.69 0.575-0.268 0.19-0.548 0.434-0.891 0.583-0.339 0.157-0.691 0.366-1.084 0.478-0.394 0.104-0.8 0.265-1.229 0.3-0.428 0.051-0.865 0.112-1.303 0.079l-0.654-0.038-0.64-0.117c-0.426-0.062-0.824-0.227-1.21-0.353-0.376-0.164-0.739-0.321-1.062-0.519-0.326-0.189-0.619-0.393-0.876-0.603-0.523-0.399-0.898-0.82-1.141-1.128-0.242-0.308-0.349-0.513-0.349-0.513z"/><path d="m245.91 83.448s0.326 0.497 0.72 1.131c0.414 0.635 0.895 1.421 1.379 2.205 0.243 0.393 0.49 0.785 0.716 1.173 0.239 0.376 0.447 0.756 0.633 1.096 0.181 0.345 0.342 0.638 0.445 0.867 0.103 0.227 0.155 0.376 0.155 0.376s-0.138-0.011-0.369-0.06c-0.227-0.055-0.561-0.131-0.907-0.325-0.368-0.163-0.749-0.436-1.133-0.77-0.371-0.348-0.728-0.773-1.027-1.249-0.285-0.485-0.527-1.004-0.668-1.527-0.154-0.517-0.213-1.03-0.21-1.47-0.013-0.885 0.266-1.447 0.266-1.447z"/><path d="m248.08 87.021s-0.825 1.109-1.843 2.812c-0.246 0.433-0.508 0.899-0.765 1.398-0.259 0.498-0.493 1.041-0.726 1.596-0.243 0.554-0.405 1.155-0.584 1.751-0.146 0.606-0.287 1.22-0.34 1.844-0.071 0.621-0.081 1.245-0.038 1.858 0.047 0.611 0.118 1.218 0.268 1.792 0.144 0.573 0.306 1.133 0.512 1.647 0.09 0.264 0.203 0.509 0.315 0.747 0.111 0.238 0.196 0.486 0.32 0.699 0.236 0.43 0.43 0.851 0.647 1.195 0.21 0.348 0.377 0.674 0.544 0.916 0.317 0.502 0.492 0.81 0.492 0.81s-0.276-0.182-0.747-0.534c-0.465-0.357-1.109-0.915-1.775-1.726-0.323-0.411-0.687-0.862-0.98-1.414-0.316-0.533-0.615-1.135-0.833-1.803-0.115-0.332-0.225-0.673-0.301-1.033-0.098-0.354-0.155-0.723-0.196-1.098-0.097-0.749-0.089-1.524-0.013-2.286 0.16-1.527 0.664-2.965 1.304-4.158 0.627-1.206 1.398-2.174 2.104-2.923 1.428-1.503 2.635-2.09 2.635-2.09z"/><line class="st7" x1="253.48" x2="246.17" y1="98.916" y2="104.93"/><path d="m250.85 104.06s0.597 2.747 1.491 6.868c0.478 2.049 1.035 4.44 1.632 7.002 0.322 1.276 0.653 2.595 0.991 3.936 0.341 1.353 0.521 2.812 0.544 4.244 0.062 2.884-0.51 5.742-1.414 8.227-0.915 2.489-2.144 4.612-3.322 6.301-1.194 1.683-2.352 2.924-3.179 3.762-0.839 0.826-1.349 1.256-1.349 1.256s0.48-0.472 1.268-1.349 1.868-2.184 2.98-3.898c1.114-1.707 2.26-3.837 3.082-6.294 0.847-2.437 1.381-5.211 1.292-7.986-0.031-1.393-0.232-2.747-0.541-4.08-0.321-1.345-0.636-2.667-0.941-3.948-0.601-2.569-1.074-4.991-1.45-7.071-0.767-4.161-1.084-6.97-1.084-6.97z"/><path d="m252.66 103.7s0.487 1.445 1.094 3.655c0.295 1.107 0.648 2.397 0.977 3.794 0.336 1.395 0.652 2.895 0.955 4.398 0.281 1.509 0.551 3.022 0.741 4.453 0.199 1.43 0.32 2.776 0.388 3.933 0.032 0.579 0.065 1.108 0.042 1.582-0.016 0.473-1e-3 0.882-0.04 1.219-0.078 0.67-0.122 1.053-0.122 1.053s-4e-3 -0.385-9e-3 -1.056c6e-3 -0.333-0.05-0.74-0.08-1.204-0.026-0.464-0.111-0.985-0.169-1.553-0.055-0.569-0.16-1.181-0.257-1.83-0.09-0.649-0.23-1.328-0.339-2.034-0.245-1.409-0.522-2.911-0.815-4.408-0.597-2.998-1.192-5.994-1.64-8.242-0.446-2.251-0.726-3.76-0.726-3.76z"/><path class="st1" d="m265.26 95.023"/><path class="st7" d="m264.01 95.556-4.678 6.329s-1.924 0.551-3.492-1.81"/><path class="st7" d="m277.29 89.14-3.864 8.096s-1.248 1.064-2.816-1.296"/><path class="st7" d="m270.22 93.345-3.856 6.009s-1.924 0.551-3.492-1.81"/><path d="m245.75 57.755c8e-3 3e-3 0.01-0.101 0.1-0.263 0.095-0.175 0.26-0.394 0.503-0.628 0.481-0.481 1.236-1.055 2.189-1.632 0.948-0.588 2.094-1.18 3.351-1.721 0.631-0.265 1.28-0.548 1.957-0.779 0.675-0.236 1.365-0.464 2.057-0.679 0.699-0.193 1.4-0.375 2.095-0.535 0.692-0.176 1.388-0.272 2.057-0.385 1.342-0.206 2.614-0.29 3.706-0.256 0.546 9e-3 1.047 0.055 1.488 0.111 0.442 0.059 0.824 0.13 1.135 0.212 0.312 0.063 0.551 0.161 0.713 0.214 0.162 0.056 0.247 0.086 0.247 0.086s-0.364 0.017-0.982 0.093c-0.618 0.067-1.488 0.206-2.519 0.416-1.031 0.217-2.224 0.503-3.499 0.836-0.636 0.173-1.293 0.352-1.96 0.534-0.669 0.176-1.344 0.379-2.019 0.583-0.679 0.187-1.356 0.387-2.018 0.595-0.665 0.204-1.319 0.404-1.952 0.598-1.265 0.395-2.444 0.775-3.452 1.114-1.004 0.349-1.842 0.648-2.399 0.921-0.277 0.137-0.498 0.256-0.618 0.361-0.135 0.109-0.175 0.212-0.18 0.204z"/><path d="m263.37 51.098s0.193-0.08 0.577-0.163c0.383-0.083 0.961-0.167 1.708-0.085 0.744 0.069 1.658 0.333 2.595 0.928 0.94 0.588 1.841 1.555 2.572 2.766 0.678 1.159 1.317 2.527 1.935 3.928 0.595 1.424 1.188 2.933 1.762 4.511 0.548 1.587 1.11 3.228 1.634 4.911 0.501 1.693 1.01 3.412 1.463 5.156 0.217 0.876 0.431 1.75 0.626 2.641l0.144 0.671 0.067 0.344 0.033 0.172 0.017 0.086 0.02 0.124 4e-3 0.042c0.01 0.126 0.028 0.188 0.031 0.365 3e-3 0.169 3e-3 0.346-5e-3 0.507-0.029 0.268-0.057 0.539-0.11 0.78-0.407 1.948-1.15 3.513-1.87 5.049-0.729 1.522-1.541 2.912-2.319 4.217-0.784 1.301-1.569 2.496-2.328 3.569-1.502 2.158-2.891 3.833-3.902 4.957-1.021 1.115-1.65 1.692-1.65 1.692s0.552-0.668 1.417-1.918c0.872-1.242 2.056-3.066 3.359-5.329 1.287-2.271 2.743-4.965 4.001-7.969 0.616-1.483 1.248-3.102 1.48-4.634 0.033-0.192 0.037-0.363 0.05-0.537-4e-3 -0.06-6e-3 -0.106-3e-3 -0.159 5e-3 -0.046-0.025-0.203-0.035-0.299l-0.137-0.535-0.171-0.624c-0.233-0.836-0.491-1.684-0.751-2.526-0.509-1.692-1.02-3.389-1.552-5.046-0.513-1.665-1.02-3.303-1.536-4.876-0.509-1.574-0.987-3.102-1.496-4.52-0.495-1.434-0.952-2.731-1.489-3.915-0.485-1.132-1.146-2.023-1.85-2.673-0.703-0.656-1.463-1.036-2.115-1.272-0.658-0.224-1.213-0.302-1.592-0.333-0.379-0.027-0.584-3e-3 -0.584-3e-3z"/><path d="m252.96 53.601c6e-3 2e-3 9e-3 -0.094 0.084-0.249 0.084-0.164 0.228-0.386 0.452-0.609 0.438-0.468 1.137-1.02 2.022-1.571 0.881-0.563 1.952-1.118 3.127-1.623 1.174-0.51 2.454-0.974 3.759-1.336 1.304-0.365 2.632-0.636 3.892-0.793 1.258-0.163 2.449-0.207 3.468-0.144 1.019 0.048 1.864 0.207 2.441 0.371 0.29 0.065 0.511 0.165 0.662 0.216 0.15 0.055 0.23 0.084 0.23 0.084s-0.334 0.034-0.918 0.093c-0.578 0.058-1.391 0.19-2.354 0.37-0.48 0.1-0.999 0.209-1.549 0.324-0.546 0.129-1.122 0.264-1.718 0.404-1.189 0.299-2.451 0.64-3.712 0.992-1.261 0.351-2.523 0.713-3.702 1.068-1.179 0.358-2.279 0.701-3.217 1.012-0.934 0.32-1.715 0.598-2.231 0.857-0.259 0.13-0.457 0.244-0.57 0.343-0.122 0.105-0.161 0.198-0.166 0.191z"/><path d="m269.12 47.541s0.189-0.078 0.562-0.159 0.937-0.167 1.664-0.094c0.725 0.061 1.619 0.304 2.539 0.866 0.926 0.551 1.819 1.475 2.557 2.638 0.394 0.622 0.66 1.139 0.995 1.817 0.331 0.653 0.626 1.316 0.942 2.002 0.584 1.386 1.17 2.858 1.74 4.391 0.544 1.545 1.088 3.147 1.614 4.783 0.506 1.645 0.991 3.325 1.455 5.016 0.225 0.848 0.43 1.703 0.632 2.562l0.289 1.295 0.13 0.668 0.016 0.083 0.017 0.104 5e-3 0.041 0.021 0.161c0.015 0.085 0.022 0.272 0.026 0.423-2e-3 1.137-0.234 1.984-0.475 2.853-0.251 0.85-0.544 1.651-0.853 2.423-0.614 1.544-1.313 2.959-1.994 4.284-0.682 1.324-1.357 2.551-2.013 3.659-1.296 2.227-2.461 4.015-3.289 5.255-0.847 1.224-1.331 1.924-1.331 1.924s0.385-0.769 1.06-2.115c0.675-1.344 1.625-3.269 2.716-5.599 1.075-2.333 2.32-5.076 3.353-8.08 0.254-0.749 0.49-1.518 0.673-2.29 0.181-0.75 0.313-1.595 0.276-2.187-7e-3 -0.064 4e-3 -0.094-0.022-0.222l-0.025-0.16-6e-3 -0.04-4e-3 -0.02c0.021 0.12 3e-3 0.023 6e-3 0.044l-0.019-0.074-0.151-0.595-0.346-1.223c-0.249-0.82-0.499-1.643-0.747-2.467-0.484-1.656-1.005-3.302-1.519-4.92-0.49-1.628-0.997-3.22-1.505-4.751-0.476-1.545-0.975-3.018-1.46-4.405-0.242-0.69-0.473-1.373-0.716-1.989-0.217-0.602-0.528-1.302-0.756-1.8-0.493-1.09-1.155-1.942-1.848-2.568-0.697-0.627-1.44-0.992-2.079-1.215-0.643-0.214-1.185-0.288-1.555-0.316-0.373-0.026-0.575-3e-3 -0.575-3e-3z"/><path d="m252.9 98.252s-0.598 0.152-1.458 0.331c-0.43 0.091-0.925 0.202-1.446 0.323-0.263 0.049-0.521 0.151-0.793 0.205-0.261 0.084-0.535 0.155-0.789 0.26-0.253 0.101-0.523 0.178-0.747 0.315-0.115 0.065-0.237 0.118-0.351 0.177-0.105 0.072-0.208 0.142-0.311 0.213-0.225 0.125-0.355 0.319-0.54 0.465-0.145 0.174-0.254 0.364-0.389 0.532-0.073 0.196-0.153 0.381-0.229 0.551-0.073 0.171-0.077 0.339-0.115 0.475-0.059 0.274-0.103 0.445-0.103 0.445s-0.047-0.153-0.111-0.446c-0.021-0.145-0.093-0.329-0.078-0.542 0.011-0.212 0.024-0.462 0.062-0.735 0.09-0.248 0.173-0.55 0.326-0.82 0.179-0.237 0.339-0.563 0.597-0.75 0.238-0.224 0.491-0.447 0.782-0.589 0.279-0.182 0.579-0.288 0.875-0.416 0.603-0.203 1.212-0.333 1.785-0.37 0.572-0.044 1.104-0.031 1.556 0.031 0.9 0.1 1.477 0.345 1.477 0.345z"/><path d="m263.85 95.045s-0.502 0.255-1.255 0.639c-0.373 0.184-0.8 0.402-1.251 0.639-0.448 0.241-0.916 0.503-1.353 0.804-0.208 0.159-0.446 0.288-0.623 0.471-0.093 0.087-0.19 0.169-0.289 0.247l-0.244 0.271c-0.178 0.171-0.276 0.375-0.405 0.558-0.115 0.189-0.159 0.395-0.25 0.58-0.04 0.194-0.059 0.383-0.093 0.556-0.037 0.174 6e-3 0.325 0 0.457 6e-3 0.27 0.01 0.424 0.01 0.424s-0.07-0.128-0.183-0.377c-0.044-0.128-0.152-0.274-0.17-0.471-0.026-0.194-0.073-0.423-0.074-0.675 0.04-0.242 0.046-0.539 0.152-0.806 0.111-0.261 0.209-0.57 0.402-0.8 0.169-0.26 0.362-0.5 0.592-0.701 0.214-0.229 0.467-0.384 0.704-0.575 0.502-0.319 1.021-0.589 1.527-0.766 0.503-0.185 0.983-0.31 1.401-0.377 0.833-0.151 1.402-0.098 1.402-0.098z"/><line class="st1" x1="224.43" x2="204.52" y1="146.11" y2="181.12"/><path d="m263.03 96.885s0.394-0.76 1.096-1.769c0.695-1.016 1.685-2.294 2.742-3.494 1.052-1.206 2.168-2.336 3.024-3.167 0.431-0.416 0.791-0.764 1.042-1.006 0.241-0.252 0.395-0.399 0.395-0.399s-0.053 0.205-0.176 0.569c-0.138 0.348-0.355 0.841-0.669 1.385-0.617 1.099-1.577 2.437-2.647 3.647-1.064 1.219-2.234 2.315-3.171 3.069-0.929 0.762-1.636 1.165-1.636 1.165z"/></svg>
