<?xml version="1.0" encoding="UTF-8"?>
<svg width="226.77px" height="226.77px" enable-background="new 0 0 226.77 226.77" version="1.1" viewBox="0 0 226.77 226.77" xmlns="http://www.w3.org/2000/svg"><rect width="226.77px" height="226.77px" fill="#fff"/><linearGradient id="a" x1="17.786" x2="28.103" y1="86.908" y2="62.006" gradientTransform="matrix(.8262 .5634 -.5634 .8262 76.771 91.125)" gradientUnits="userSpaceOnUse"><stop stop-color="#fff" offset="0"/><stop stop-color="#EDEDED" offset="1"/></linearGradient><polygon points="55.102 198.95 88.102 161.61 77.239 146.92 66.109 124.36 65.53 126.06 51.032 133.12 27.768 150.28" fill="url(#a)"/><path d="m37.268 142.28 37.791-24.555s12.236-26.415 26.901-41.696c0 0 12.986-23.968 15.062-33.211" fill="none" stroke="#000" stroke-linecap="round" stroke-width="2"/><path d="m115.57 46.416 0.712-12.919s4.991-3.336 9.446 2.457 3.224 16.921 1.299 22.004c-1.925 5.084-5.808 11.902-5.311 15.666" fill="none" stroke="#000" stroke-width="2"/><path d="m111.98 74.782s36.255-9.059 39.717-9.707 34.837-5.397 38.727-4.963c3.89 0.435 9.04 0.335 8.845 7.667-0.135 5.095-4.104 6.345-12.127 7.214s-31.82 5.655-31.82 5.655" fill="none" stroke="#000" stroke-linecap="round" stroke-width="2"/><polyline points="161.26 79.848 129.58 90.727 127.1 92.78" fill="none" stroke="#000" stroke-linecap="round" stroke-width="2"/><path d="m155.92 84.674s6.644 0.224 6.352 5.773-1.776 6.447-5.151 8.2-17.349 9.467-17.349 9.467l-2.167 2.333" fill="none" stroke="#000" stroke-linecap="round" stroke-width="2"/><path d="m157.97 100.82s5.442 0.657 5.088 6.968-3.615 7.908-8.793 10.823-13.663 9.341-13.663 9.341" fill="none" stroke="#000" stroke-linecap="round" stroke-width="2"/><path d="m157.64 120.36s4.317 3.948 1.984 7.948-19.506 14.713-19.506 14.713" fill="none" stroke="#000" stroke-linecap="round" stroke-width="2"/><path d="m145.77 139.36s-26.977 16.837-55.158 18.781" fill="none" stroke="#000" stroke-linecap="round" stroke-width="2"/><line x1="95.296" x2="60.268" y1="155.82" y2="194.28" fill="none" stroke="#000" stroke-linecap="round" stroke-width="2"/><path d="m69.062 125.14s1.557 17.279 18.257 35.083" fill="none" stroke="#000"/><path d="m117 44.421s0.141-0.624 0.406-1.511c0.258-0.891 0.636-2.052 0.951-3.207 0.325-1.151 0.572-2.311 0.495-3.156-0.035-0.422-0.159-0.76-0.302-0.979-0.136-0.224-0.257-0.338-0.257-0.338-7e-3 0.01 0.159 0.034 0.399 0.199 0.243 0.157 0.548 0.497 0.718 0.984 0.368 0.978 0.249 2.336-0.09 3.556-0.344 1.231-0.896 2.371-1.392 3.174-0.49 0.807-0.928 1.278-0.928 1.278z"/><path d="m150.9 68.54s-4e-3 0.784 0.033 1.923c0.019 0.57 0.054 1.23 0.109 1.931 0.065 0.7 0.135 1.443 0.27 2.174 0.063 0.366 0.112 0.735 0.207 1.087 0.084 0.355 0.148 0.71 0.257 1.041 0.092 0.336 0.18 0.662 0.294 0.961 0.107 0.302 0.191 0.598 0.309 0.853 0.106 0.264 0.202 0.506 0.288 0.721 0.102 0.209 0.19 0.392 0.263 0.542 0.139 0.312 0.219 0.491 0.219 0.491s-0.142-0.131-0.382-0.377c-0.251-0.239-0.575-0.61-0.896-1.109-0.181-0.239-0.331-0.522-0.486-0.826-0.168-0.299-0.32-0.625-0.443-0.976-0.29-0.689-0.471-1.466-0.615-2.244-0.122-0.783-0.181-1.572-0.162-2.311 0.016-0.738 0.089-1.422 0.199-2 0.203-1.161 0.536-1.881 0.536-1.881z"/><path d="m151.93 69.642s1.18 5.233 1.601 8.288" fill="none" stroke="#000" stroke-linecap="round" stroke-width=".75"/><path d="m194.66 62.76c-0.01 2e-3 0.064-0.089 0.031-0.241-0.046-0.156-0.316-0.181-0.611-0.166-0.613 0.034-1.478 0.278-2.487 0.615-0.994 0.351-2.2 0.787-3.261 1.456-0.267 0.174-0.456 0.345-0.527 0.546-0.099 0.221-0.127 0.521-0.125 0.832 8e-3 0.631 0.156 1.319 0.325 2 0.175 0.699 0.35 1.397 0.523 2.085l0.112 0.537c0.019 0.111 0.075 0.343 0.113 0.465 0.065 0.218 0.219 0.449 0.407 0.616 0.399 0.336 1 0.511 1.577 0.618 0.584 0.1 1.157 0.154 1.689 0.198 2.154 0.126 3.591 0.21 3.591 0.21s-0.357 0.063-0.984 0.144c-0.629 0.064-1.524 0.203-2.617 0.241-0.547 0.026-1.143 0.027-1.786-0.031-0.635-0.064-1.363-0.18-2.038-0.682-0.326-0.264-0.598-0.601-0.753-1.045-0.071-0.206-0.095-0.316-0.146-0.548l-0.112-0.497c-0.163-0.672-0.377-1.361-0.542-2.075-0.163-0.716-0.319-1.447-0.319-2.236 5e-3 -0.392 0.057-0.811 0.255-1.221 0.21-0.448 0.594-0.715 0.895-0.891 0.632-0.373 1.263-0.589 1.861-0.796 0.598-0.202 1.176-0.346 1.711-0.464 1.071-0.232 1.99-0.315 2.64-0.264 0.309 0.026 0.627 0.123 0.658 0.344 2e-3 0.188-0.091 0.246-0.08 0.25z"/><path d="m195.58 62.688s0.446 0.386 0.895 1.124c0.465 0.728 0.909 1.804 1.142 2.933 0.061 0.281 0.087 0.569 0.131 0.848 0.045 0.28 0.036 0.561 0.055 0.829 0.018 0.268-9e-3 0.531-0.018 0.776-3e-3 0.246-0.045 0.478-0.076 0.691-0.052 0.426-0.155 0.774-0.228 1.014-0.074 0.241-0.125 0.375-0.125 0.375s-0.033-0.144-0.073-0.389c-0.039-0.246-0.082-0.593-0.148-1.003-0.117-0.821-0.274-1.889-0.498-2.943-0.098-0.53-0.223-1.054-0.341-1.548-0.119-0.494-0.24-0.955-0.346-1.355-0.222-0.81-0.37-1.352-0.37-1.352z"/><path d="m176.92 65.641s-0.087 2.765 0.882 6.994" fill="none" stroke="#000" stroke-linecap="round" stroke-width=".5"/><path d="m136.24 100.44s-1.691 5.867-11.316 5.544" fill="none" stroke="#000" stroke-linecap="round" stroke-width=".75"/><path d="m142.07 118.93s-0.58 6.178-9.321 6.761" fill="none" stroke="#000" stroke-linecap="round" stroke-width=".75"/></svg>
