<?xml version="1.0" encoding="UTF-8"?>
<svg width="226.77px" height="226.77px" enable-background="new 0 0 226.77 226.77" version="1.1" viewBox="0 0 226.77 226.77" xmlns="http://www.w3.org/2000/svg"><rect width="226.77px" height="226.77px" fill="#fff"/><linearGradient id="a" x1="61.14" x2="70.806" y1="182.55" y2="159.21" gradientUnits="userSpaceOnUse"><stop stop-color="#fff" offset="0"/><stop stop-color="#EDEDED" offset="1"/></linearGradient><polygon points="86.046 188.7 99.38 151.37 78.431 148.71 55.904 138.31 56.38 140.04 48.38 154.04 36.38 176.04" fill="url(#a)"/><line x1="85.213" x2="104.22" y1="190.7" y2="137.27" fill="none" stroke="#000" stroke-linecap="round" stroke-width="2"/><path d="m98.806 141.32s22.994-5.611 44.772-33.86" fill="none" stroke="#000" stroke-linecap="round" stroke-width="2"/><path d="m142.33 109.05s10.382-16.344 28.473-22.466c9.242-3.128 6.208-8.121 6.208-8.121" fill="none" stroke="#000" stroke-width="2"/><path d="m39.213 170.2s21.282-41.159 25.523-47.992c4.242-6.833 12.732-40.325 14.991-47.413s2.78-7.499 7.633-10.047" fill="none" stroke="#000" stroke-linecap="round" stroke-width="2"/><path d="m123.2 81.24s-2.026 7.09 1.571 8.917 5.884 1.653 11.266-2.739c5.381-4.392 7.964-6.538 7.964-6.538" fill="none" stroke="#000" stroke-width="2"/><path d="m103.23 77.73c0.876 0.373 1.792 0.624 2.702 0.863 0.915 0.224 1.837 0.409 2.766 0.533 0.462 0.074 0.925 0.135 1.392 0.169 0.465 0.043 0.928 0.094 1.396 0.099 0.467 8e-3 0.93 0.049 1.395 0.043l1.394-0.017c0.464-0.016 0.927-0.064 1.389-0.094 0.463-0.024 0.923-0.076 1.381-0.148l1.375-0.179 1.362-0.264c0.912-0.145 1.795-0.443 2.69-0.66 0.447-0.111 0.879-0.285 1.321-0.417l1.316-0.427 0.299-0.097 0.323 0.079c0.769 0.188 1.602 0.356 2.413 0.501 0.817 0.145 1.638 0.271 2.461 0.376 1.643 0.234 3.294 0.382 4.942 0.44 3.282 0.079 6.603-0.113 9.607-1.157l0.366-0.127 0.371 0.113c1.15 0.351 2.359 0.7 3.554 1.001 1.2 0.305 2.409 0.57 3.622 0.796 2.421 0.444 4.881 0.781 7.28 0.64 1.188-0.073 2.382-0.259 3.391-0.757 0.476-0.251 1.1-0.61 1.559-0.93 0.498-0.321 0.988-0.704 1.441-1.105 0.462-0.398 0.893-0.834 1.289-1.3 0.41-0.457 0.767-0.958 1.104-1.476 0.641-1.051 1.182-2.195 1.442-3.434-0.181 2.533-1.406 4.984-3.192 6.871-0.446 0.479-0.912 0.924-1.435 1.34-0.537 0.451-0.984 0.762-1.593 1.148-1.206 0.725-2.542 1.036-3.846 1.234-1.312 0.175-2.622 0.198-3.917 0.151-1.295-0.056-2.583-0.161-3.856-0.351-1.272-0.187-2.535-0.415-3.789-0.683-1.259-0.271-2.489-0.557-3.749-0.94l0.736-0.014c-1.705 0.613-3.462 0.978-5.218 1.184-1.757 0.209-3.516 0.23-5.259 0.154-1.743-0.083-3.473-0.26-5.186-0.526-0.855-0.142-1.706-0.305-2.554-0.489-0.853-0.187-1.678-0.383-2.548-0.631l0.622-0.018-1.408 0.4c-0.471 0.126-0.932 0.285-1.414 0.371-0.962 0.174-1.904 0.425-2.878 0.52l-1.449 0.188-1.458 0.095c-0.485 0.034-0.971 0.047-1.459 0.03-0.487-0.01-0.972-3e-3 -1.457-0.027l-1.452-0.108c-0.483-0.032-0.963-0.121-1.442-0.186-0.48-0.059-0.954-0.164-1.427-0.26-0.475-0.088-0.944-0.203-1.41-0.33-0.936-0.232-1.846-0.56-2.74-0.905-0.889-0.361-1.756-0.779-2.565-1.282z"/><path d="m109.23 78.247s0.107 0.515-0.027 1.272c-0.06 0.378-0.178 0.813-0.364 1.255-0.172 0.45-0.439 0.891-0.724 1.316-0.305 0.413-0.644 0.799-1.003 1.117-0.363 0.312-0.721 0.579-1.06 0.757-0.322 0.2-0.626 0.308-0.834 0.385-0.209 0.075-0.332 0.108-0.332 0.108s0.078-0.105 0.22-0.273 0.352-0.389 0.584-0.667c0.242-0.267 0.502-0.59 0.787-0.921 0.269-0.347 0.564-0.702 0.823-1.085 0.273-0.372 0.526-0.76 0.754-1.132 0.23-0.371 0.433-0.73 0.607-1.044 0.344-0.628 0.569-1.088 0.569-1.088z"/><path d="m105.57 86.023c-0.053 3.55-0.123 7.099-0.25 10.645-0.128 3.546-0.215 7.094-0.395 10.637l-0.482 10.633-0.603 10.627-2e-3 0.031-3e-3 0.016c-0.092 0.473-0.221 0.873-0.373 1.29-0.15 0.411-0.328 0.81-0.522 1.199-0.392 0.777-0.868 1.507-1.406 2.185-1.072 1.36-2.391 2.504-3.842 3.411-1.445 0.922-3.034 1.583-4.66 2.06-0.812 0.244-1.639 0.428-2.467 0.591-0.831 0.152-1.669 0.25-2.507 0.333 0.83-0.144 1.651-0.322 2.467-0.517 0.812-0.211 1.618-0.44 2.403-0.727 1.569-0.571 3.077-1.299 4.446-2.227 1.369-0.926 2.588-2.065 3.554-3.386 0.487-0.657 0.901-1.364 1.252-2.096 0.176-0.366 0.338-0.739 0.471-1.119 0.133-0.374 0.253-0.781 0.318-1.135l-5e-3 0.047 0.481-10.633 0.602-10.627c0.182-3.543 0.456-7.082 0.689-10.622 0.235-3.541 0.526-7.079 0.834-10.616z"/><path d="m60.52 140.35s10.831 9.884 35.041 10.706" fill="none" stroke="#000"/><path d="m98.109 61.401s24.703-2.056 29.331-2.429 7.018 0.841 11.249 1.651 20.485 4.794 20.485 4.794" fill="none" stroke="#000" stroke-linecap="round" stroke-width="2"/><line x1="159.49" x2="170.31" y1="66.465" y2="70.905" fill="none" stroke="#000" stroke-linecap="round" stroke-width="2"/><path d="m81.458 65.405s1.413-9.057 7.459-9.38" fill="none" stroke="#000" stroke-linecap="round" stroke-width="2"/><path d="m86.684 54.081s2.478-5.624 7.263-4.954 40.909 2.791 40.909 2.791l38.495 12.211" fill="none" stroke="#000" stroke-linecap="round" stroke-linejoin="bevel" stroke-width="1.5"/><path d="m174.36 65.141 9.893 3.193s0.181 12.101-14.817 8.87" fill="none" stroke="#000" stroke-linecap="round" stroke-width="2"/><path d="m139.71 49.703c3.205-0.719 42.25 14.036 42.25 14.036" fill="none" stroke="#000" stroke-linecap="round" stroke-width="2"/><path d="m181.67 63.89 11.462 3.353s-0.694 11.293-11.953 11.051" fill="none" stroke="#000" stroke-linecap="round" stroke-width="1.5"/><path d="m129.11 95.985s0.192 0.095 0.496 0.315c0.301 0.22 0.721 0.557 1.166 1.015 0.453 0.452 0.946 1.013 1.423 1.648 0.491 0.628 0.95 1.341 1.395 2.059 0.426 0.73 0.841 1.467 1.174 2.185 0.351 0.709 0.629 1.393 0.858 1.984 0.451 1.183 0.653 2.011 0.653 2.011s-0.508-0.687-1.167-1.755c-0.342-0.528-0.712-1.156-1.119-1.821-0.401-0.666-0.828-1.377-1.255-2.088-0.418-0.714-0.852-1.418-1.261-2.075-0.407-0.659-0.801-1.265-1.142-1.785-0.685-1.036-1.221-1.693-1.221-1.693z"/><path d="m146.63 83.211s0.455 0.425 1.024 1.131c0.576 0.702 1.271 1.681 1.897 2.701 0.621 1.024 1.173 2.089 1.531 2.921 0.365 0.828 0.533 1.426 0.533 1.426s-0.456-0.425-1.025-1.13c-0.576-0.701-1.27-1.681-1.896-2.702-0.62-1.024-1.171-2.09-1.53-2.922-0.366-0.828-0.534-1.425-0.534-1.425z"/><path d="m129.72 58.914s0.152 0.535 0.298 1.32c0.155 0.786 0.313 1.823 0.466 2.852 0.155 1.03 0.311 2.06 0.428 2.832 0.069 0.393 0.127 0.72 0.168 0.949 0.041 0.234 0.057 0.375 0.057 0.375s-0.091-0.102-0.239-0.294c-0.155-0.189-0.337-0.481-0.53-0.848-0.186-0.368-0.372-0.815-0.52-1.306-0.156-0.49-0.26-1.026-0.352-1.563-0.153-1.078-0.146-2.167-0.048-2.977 0.089-0.81 0.272-1.34 0.272-1.34z"/><path d="m132.85 60.39s-0.385 5.063-0.635 8.063" fill="none" stroke="#000" stroke-linecap="round"/><path d="m159.3 67.842s0.331 0.84 0.935 2.006c0.608 1.155 1.528 2.656 2.807 3.711 0.322 0.257 0.659 0.491 1.01 0.683 0.36 0.201 0.708 0.325 0.98 0.34 0.604 0.042 1.239-0.429 1.752-0.812 0.52-0.396 0.964-0.75 1.291-0.97 0.324-0.226 0.522-0.338 0.522-0.338s-0.134 0.181-0.368 0.498c-0.237 0.314-0.566 0.759-1.019 1.272-0.227 0.259-0.492 0.525-0.834 0.78-0.335 0.254-0.798 0.478-1.335 0.498-0.57 0.028-1.038-0.197-1.448-0.399-0.425-0.211-0.824-0.484-1.182-0.797-1.471-1.241-2.273-2.976-2.675-4.261-0.409-1.301-0.436-2.211-0.436-2.211z"/><path d="m171.64 66.542s0.658 0.609 1.645 1.522c0.494 0.447 1.069 0.964 1.702 1.48 0.639 0.502 1.328 1.039 2.068 1.386 0.363 0.181 0.738 0.315 1.088 0.349 0.357 0.022 0.64-0.024 0.95-0.209 0.729-0.416 1.421-0.787 2.024-1.089 1.201-0.613 2.05-0.947 2.05-0.947s-0.666 0.616-1.737 1.429c-0.533 0.411-1.166 0.871-1.858 1.346-0.386 0.283-0.977 0.485-1.501 0.432-0.53-0.038-1.012-0.206-1.453-0.413-0.872-0.439-1.593-1.031-2.214-1.628-0.619-0.599-1.133-1.208-1.542-1.753-0.823-1.084-1.222-1.905-1.222-1.905z"/><path d="m186.59 69.907c1.649 0.159 2.983-2.436 4.303-3.32" fill="none" stroke="#000" stroke-linecap="round"/><path d="m98.809 81.419s0.529 0.171 1.274 0.449c0.735 0.277 1.716 0.646 2.696 1.015 0.978 0.376 1.956 0.752 2.689 1.034 0.373 0.154 0.683 0.283 0.901 0.373 0.218 0.098 0.343 0.163 0.343 0.163s-0.553 0.091-1.371 0.024c-0.819-0.051-1.898-0.271-2.918-0.661-1.019-0.392-1.974-0.94-2.619-1.45-0.654-0.498-0.995-0.947-0.995-0.947z"/><path d="m110.21 48.453c13.221-0.484 33.277 1.741 33.277 1.741" fill="none" stroke="#000" stroke-linecap="round" stroke-width="1.4"/></svg>
