<?xml version="1.0" encoding="UTF-8"?>
<!DOCTYPE svg  PUBLIC '-//W3C//DTD SVG 1.1//EN'  'http://www.w3.org/Graphics/SVG/1.1/DTD/svg11.dtd'>
<svg width="255.12px" height="226.77px" enable-background="new 0 0 255.118 226.771" version="1.1" viewBox="0 0 255.12 226.77" xmlns="http://www.w3.org/2000/svg"><rect width="255.12px" height="226.77px" fill="#fff"/><linearGradient id="b" x1="26.723" x2="37.872" y1="212.8" y2="189.55" gradientUnits="userSpaceOnUse"><stop stop-color="#fff" offset="0"/><stop stop-color="#EDEDED" offset="1"/></linearGradient><path d="m57.667 218 5-29.919 1-4.773s-13.333-0.637-18-2.546c-4.667-1.91-10.667-6.685-12.667-8.912s-6.333-10.185-6.333-10.185l-4.333 4.774-12.667 16.869-6.667 9.23s12.667 26.735 54.667 25.462z" fill="url(#b)"/><linearGradient id="a" x1="230.67" x2="219.67" y1="211.67" y2="189.67" gradientUnits="userSpaceOnUse"><stop stop-color="#fff" offset="0"/><stop stop-color="#EDEDED" offset="1"/></linearGradient><path d="m204.33 217-6.334-21.667-5-18s13.333 4.667 20 0.667 13.334-7.666 14.667-9.333 5.667-7.334 5.667-7.334l3.666 8.667 14.334 25s-15.333 23.667-47 22z" fill="url(#a)"/><path d="m247.81 186.63c-0.766-0.658-0.438-1.424-1.313-1.972-0.22-1.313-1.425-1.752-1.533-3.066-1.862-3.286-4.054-6.899-5.915-10.404-1.643-3.287-3.395-6.243-4.271-9.967-0.986-0.111-0.657-1.534-1.533-1.754-0.876 1.096-2.41 1.643-3.614 2.081-0.439-1.094-1.424-2.081-1.315-3.395h-0.218c-0.22-0.11-0.109-0.329-0.109-0.438h-0.22c-0.767-2.191-1.644-4.162-2.3-6.243-1.862-1.097-0.767-3.396-1.533-5.038-0.438-5.477-1.096-11.063-1.753-16.429-0.109-2.19-0.548-4.381-0.438-6.792-0.658-4.708-0.986-9.2-1.315-13.91-0.219-1.751-0.327-4.052-0.656-6.132-0.438-0.987-0.109-2.41-0.438-3.176-0.657-4.821-1.752-9.419-3.614-13.691-0.219-0.767-0.438-1.643-0.767-2.409-0.657-0.548 0-0.876 0.329-1.205-0.439-6.571-1.753-12.267-2.41-18.73-1.204-8.761-3.066-16.976-5.476-25.299-0.658-0.876-0.438-2.629-1.863-2.848l0.549-1.314c0.656-0.767 0.109-2.19 0.985-2.957l-0.438-0.109c0.438-1.753 0.438-3.944 0.328-5.695-0.548-1.314-0.985-2.519-1.862-3.614-1.314-1.644-3.396-1.315-4.93-1.644-0.437 0.656-1.532 0.438-1.97 0.766 0.767-2.081-0.221-3.503 0.108-5.585-0.438-1.534-0.876-3.833-2.848-4.052l-1.094 0.11c-2.081-0.767-3.615-0.11-5.588 0.437-0.547 0.44-0.984 1.096-1.752 1.315 0.439 0.767-0.547 0.986-0.766 1.534-0.549 1.533-1.533 3.176-1.204 4.928-0.986 3.942-0.221 7.557 0.108 11.5 0.329 0.985 0.329 2.299 0.329 3.286 0.438 0.656 0.547 1.643 0.767 2.408 0 6.462 0.109 13.254 2.847 19.167 0 1.862-0.547 3.725-0.547 5.477-0.329 5.806 0.218 11.938 3.176 16.54-1.424 0.875-3.614 0.218-4.928-0.329l0.438 0.657c1.424 0.767 3.396 0.876 4.818 0.219 0.768 1.862 2.739 2.52 4.054 3.833 0.547 0 0.876 0.767 1.095 1.205-0.329 1.095 0.657 1.533 0.328 2.738h-0.109v0.218h0.109c0.22 0.11 0.22 0.329 0.329 0.549-0.329 1.971 0.767 3.505 0.767 5.367 0.768 0.657-0.109 1.861 0.768 2.3-0.221 1.424 0.876 2.409 1.095 3.613 0.109 0.22 0.109 1.096 0.657 0.658-0.22-1.425-0.109-2.738-0.768-3.943-0.327-0.547 0-1.314-0.656-1.643-0.22-3.505-1.754-6.9-1.096-10.515-0.767-0.875 0-2.081 0.109-2.956-1.644-0.657-0.876 1.862-1.752 2.299l-0.658-0.548c0.22-0.328 0.329 0.111 0.658-0.109-0.11-1.095-1.423-1.424-2.301-2.081 0.22-1.643-1.643-2.519-2.19-3.942-0.218-1.204-0.767-1.862-0.876-3.176-0.876-3.725-0.985-7.667-0.768-11.501 0.768-0.877-0.328-2.191 0.439-2.848-0.219-0.986 0.219-2.19 0-3.285-1.205-0.986-1.972-3.067-1.972-4.819-0.549-1.971-0.876-3.834-0.876-5.915 0.438-0.328-0.22-0.658-0.11-0.986 0.657-0.876-0.219-1.752 0.11-2.52-0.11-0.657 0.656-0.547 0.985-0.547 0-0.767-0.547-1.424-0.876-2.082 0.329-0.985 0.109-2.19 0.876-3.066 0-0.548-0.219-0.876-0.658-1.315-0.438-0.547-0.984 0.22-1.312 0-0.549-2.08-0.549-4.161-0.768-6.241 0.11-4.71-0.219-9.311 2.958-12.925 1.203-0.549 2.3-1.313 3.942-0.986 0.547 0.548 1.095 0.22 1.752 0.11 0.657 0.547 0.548 1.094 0.657 1.861-0.109 0.22-0.109 0.329 0.11 0.548 0.328 1.752-0.22 3.833 0.876 5.804-0.11 0.111-0.658 0.22-0.548 0.658-1.425 1.204-2.191 3.067-3.066 4.709-1.315 5.148 0.548 10.954 1.642 16.101-0.876 2.956-0.438 5.804-0.438 9.09 0.987 4.818 0.438 10.186 3.395 14.676-1.752 5.695 1.205 11.5 2.739 16.867l-0.329 0.877c0 3.505 0.768 7.557 1.644 11.171 0.767 0.987 0.876 2.3 0.328 3.394l0.219 0.22c-0.108 2.409 0.22 4.929 0.658 6.901 0.109 0.876 0.657 1.86 0.218 2.627 0 0.439 0.22 1.096 0.768 1.315 0.329 1.095 1.862 0.328 2.738 0.876 0.109-0.767 1.532-0.657 0.767-1.424-0.439-0.109-0.439-0.986-0.986-0.656-1.972 0.437-1.205-1.862-1.643-2.849 0.22-0.219-0.219-0.876 0.329-1.204-0.548-0.219-0.329-1.095-0.329-1.534h0.109c-0.656-1.971-0.438-3.724-0.109-5.695-0.109-0.984 0.767-2.08 0.22-3.066-0.438-0.109-0.986-0.329-1.315-0.109-0.766-2.191-0.876-4.381-1.204-6.682-0.328-1.642 0-3.614 0.656-5.256 0.329-1.204-0.876-0.987-1.533-1.096-0.656-2.847-1.533-5.585-1.86-8.323-0.549-0.767 0-1.862-0.329-2.738 0.219-1.095 0.219-2.409 0.985-3.176 0.329-0.876 1.753-1.314 2.629-1.971 0.985-0.439 2.3-0.22 2.848 0.875 0.328 1.863 0.767 4.163 0.547 6.024 0.329 1.095 0.438 2.738 0.658 3.942l-0.22 0.111c0.658 1.094 0.108 2.19 1.205 2.847 0.329-0.22 0.547-0.657 0.767-0.986-0.109-2.737 0-5.366-0.438-8.104-0.329-2.081-0.11-4.49-1.973-5.805-0.219-1.862-2.409-0.767-3.504-1.314v0.219c-1.315 0.219-2.081 1.204-3.396 1.095-0.108 0.657-0.875 0.876-1.204 1.204-0.548-0.766-0.548-1.642-0.548-2.519-0.766-0.438 0.438-0.987-0.328-1.424-0.548-3.395-0.877-6.243-1.096-9.528l0.329-0.548-0.329-0.219-0.109-2.738c1.096-3.505-0.329-6.899-0.657-10.295 0-0.766-0.109-1.094-0.438-1.861 0.658-0.767-0.547-1.424 0-2.191h-0.109c-0.329-3.176-0.547-6.791 1.973-9.201 0.876-0.766 1.752-2.08 3.065-2.08 0.768-0.439 1.533-0.439 2.41-0.439 0.438 0.11 0.985 0.548 0.985 1.095 1.096 0.658 0.658 2.191 0.985 2.958-0.218 0.876 0.11 1.643 0 2.519 0 0.657-0.218 1.533-0.109 2.081l-0.547 4.163c0 0.656 0.876 0.437 1.205 0.547-0.11 0.109-0.11 0.437-0.22 0.548 2.957 9.529 5.258 19.934 6.572 29.682 0.108 0.438 0.108 0.767 0 1.205 0.547 4.598 1.643 8.979 2.081 13.58-0.768-1.204-1.534-3.066-3.286-3.175-1.424 1.533 1.313 2.409 1.205 4.051 0.876 1.315 1.533 2.191 1.861 3.725 1.753 4.272 3.177 8.871 3.833 13.472 0.22 3.396 1.096 6.244 0.877 9.529 1.204 11.062 2.189 24.424 3.395 35.487 0.657 1.862 0.22 3.723 0.877 5.476 0.109 1.096 0.985 2.19 0.656 3.176 1.862 2.52 2.63 5.367 3.834 8.325 0 0 0.438 0.219 0.328 0.438 0.658 0.547 0.329 1.313-0.22 1.753 0.658 0 1.205-0.11 1.863 0.108 0.109 0.549 0.767 0.986 0.547 1.533-6.899 8.652-17.414 13.91-28.476 13.582-1.643 0-3.615-0.329-5.148-0.329-1.314 0-2.409-0.328-2.957-1.752-0.438-0.11-1.095-1.096-1.314-0.219 0 1.423 0.548 2.847 0.767 3.833 0.768 1.643 1.205 3.066 1.861 4.709 0.549 1.095 0.438 2.52 1.205 3.505 2.053 6.684 3.781 13.489 5.361 20.341 1.064 0.963 2.019 2.148 2.926 3.425-0.925-3.97-2.011-7.919-2.92-12.046l0.109-0.109c-1.643-4.053-2.409-8.872-3.942-13.145-0.768-2.518-1.973-4.928-2.628-7.336 5.038 1.095 10.186 0.875 15.332 0.109 7.996-2.081 15.882-6.463 21.139-13.582 1.972 0.11 0.438-2.3 1.972-2.957 4.601 9.857 10.296 19.276 15.444 28.806 0.158 0.16 0.374 0.495 0.481 0.834 0.295-0.92 0.564-1.848 0.792-2.789-0.633-1.081-1.18-2.171-1.713-3.306z"/><path d="m184.17 19.273c-0.22 0.767-0.438 1.754-1.314 1.862-0.328-0.108-0.439-0.438-0.767-0.547-2.63 1.534-3.285 4.709-3.614 7.557l-0.221 4.49c0.44 0.548-0.107 1.315 0.111 2.082 0 0.765 0.438 1.643 0.109 2.19 0.108 0.437 0.108 0.985 0.108 1.424 0.768-0.111 1.425-0.329 1.973 0.547 0.876 0.547-0.438 0.986 0.108 1.533-0.767 0.658-0.547 1.972-0.984 2.738 0.438 0.877-0.221 1.752 0 2.629 0 1.643-0.11 3.285 0.438 4.928 0.547 1.204-0.438 4.161 1.862 4.052 0.219 0.109 0.657 0.438 0.766 0.986-0.108 0.547-0.547 1.424-0.438 1.972l-0.328 1.095c-0.219 1.752-0.11 4.162-0.11 5.694 0.768 2.958 0.22 6.9 1.753 9.42 0.109 1.971 1.313 4.052 2.3 6.132 0 1.315 1.314 2.848 0.219 4.163 0.22 4.6 1.096 9.42-0.219 13.582 0.219 0.108 0.329 0.219 0.657 0.219-0.328 0.656-0.219 0.876-0.109 1.752l-0.219 0.11c0 4.709 0.548 8.981 0.548 13.471 0.108 0.767-0.768 0.549-1.314 0.549l-0.438-0.876c0-4.272-0.329-9.09-0.768-13.034 0.656-0.549-0.329-2.41 1.095-2.847-0.327-5.806-0.656-10.735-1.424-16.43-0.548-1.314-1.095-2.629-1.861-3.725-0.549 0.11-1.425-0.218-1.862-0.765-1.205 0-2.41 0.327-3.396 0.765-0.219 0.329-0.109 0.549-0.547 0.549l-0.22 0.108c-1.314 3.068-1.752 6.902-1.424 10.077-0.438 1.095 0.109 2.41 0.109 3.614-0.109 3.067 0.876 5.366 1.096 8.434 1.096 1.314 1.096 2.958 1.533 4.381l0.875 3.505 0.44 0.328c-0.44 0.438-0.329 1.095-0.111 1.534 0.221 1.751 0.111 3.614 0.111 5.147-0.111 1.532-0.768 3.286-0.548 4.928-0.877 1.644-0.11 3.725-0.768 5.367v4.6c-0.438 2.52 0.22 5.258 0.438 7.777 0.22 1.753 0.878 3.614 1.534 5.257 0.438 2.41 1.424 4.162 2.629 6.462 1.752 3.615 4.709 6.9 7.118 10.188 0.329 0.765 0.877 1.532 1.424 2.298 0.328-0.547 0.768-1.094 1.315-1.314 0.109 0.876 1.314-0.108 1.314 0.987 0.547 2.08 0.767 3.395 1.313 5.365 0.438 3.726 2.628 7.34 2.52 11.062-0.876 0.329-1.644-0.767-2.301 0.109-0.109-0.438 0.439-0.438 0.657-0.768-2.081-4.598-2.738-9.527-4.38-14.237-0.329 0.111-0.439 0.767-0.877 0.329-2.848-1.973-4.6-5.258-6.9-7.887 0.11-0.218-0.218-0.657-0.438-0.766 0 0-0.329-0.328-0.329-0.548-5.585-7.667-7.885-16.757-7.446-26.177-0.22-0.219 0-0.766 0.109-1.096-0.329-1.313 0.219-2.738-0.109-4.052 0.548-1.205 0.328-2.738 0.767-4.052 0.766-3.286 0.328-6.463 0.438-9.858l-0.328-0.22 0.219-0.438c-0.767-2.847-1.204-5.805-2.19-8.652 0.329-0.438 0.219-0.985-0.109-1.533-1.313-6.243-1.862-13.91-0.219-20.044 1.095-1.094 0.547-3.833 2.956-3.065 1.097-0.878 2.41-0.548 3.615-0.658 0.547 0.11 0.876 0.438 1.314 0.219-1.424-4.6-1.752-9.638-2.081-14.128 0.657-0.766-0.438-1.972 0.329-2.739-0.329-0.985-0.768-1.971-1.314-2.738-0.219-1.642-0.329-3.285-0.877-4.709l0.219-0.328c-0.328-2.629-0.438-5.257 0-7.996-0.656-1.314-0.876-2.848-1.095-4.381-0.328-5.477-1.424-12.596 2.3-17.305 0.985-0.985 2.41-1.205 3.725-1.314 0.657-0.106 1.423 0.113 1.533 0.66z"/><rect x="186.58" y="77.542" width=".109" height=".218"/><polygon points="198.96 95.613 198.96 95.394 198.96 95.394"/><path d="m191.84 97.147c0.218 1.094 0.547 2.518 0.328 3.503 1.205 2.629 1.205 5.695 1.971 8.434l0.876 4.271c-1.532-1.642-0.876-4.599-1.86-6.353-0.876-3.504-1.534-7.118-2.081-10.623 0.546-0.109 0.655 0.438 0.766 0.768z"/><path d="m195.45 116.2c-0.547-0.437-0.109-1.095-0.656-1.532l0.109-1.096c0.438 0.768 0.547 1.644 0.547 2.628z"/><path d="m195.89 118.83c-0.219-0.876-0.548-1.534-0.438-2.41 0.219 0.766 0.438 1.642 0.438 2.41z"/><path d="m196.44 117.96 0.219 0.548-0.219-0.548z"/><path d="m196 119.38 0.11 0.328-0.11-0.328z"/><path d="m196.33 120.48-0.109 0.109-0.108-0.438c0.217 0 0.108 0.219 0.217 0.329z"/><rect x="196.11" y="120.8" width=".108" height=".111"/><path d="m196.44 121.9c-0.11-0.108-0.22-0.108-0.328-0.22l0.108-0.437c0.33 1e-3 0.22 0.438 0.22 0.657z"/><path d="m198.52 122.56v0.109h-0.328v-0.22c0.109 0 0.219 0 0.328 0.111z"/><polygon points="196.77 123.1 196.33 122.67 196.66 122.78"/><rect x="198.52" y="123" width=".109" height=".108"/><path d="m196.99 123.54-0.11 0.111v-0.221c0.11-0.109 0 0.11 0.11 0.11z"/><polygon points="197.97 124.75 198.08 123.98 198.19 124.64"/><polygon points="198.08 125.73 198.19 125.51 198.3 125.51"/><path d="m197.76 126.17v0.438-0.438z"/><path d="m198.19 127.38h-0.329c0.108-0.108 0.108-0.219 0.329-0.219v0.219z"/><path d="m198.08 127.81c0.219 1.313-0.11 2.957 0.219 4.162-0.329 1.751 0.658 3.394 0.329 5.037 0.547 1.315 0.109 2.409 0.329 3.725 0.438 2.3 1.096 4.6 1.643 7.01 1.644 3.724 3.176 8.104 7.119 10.294-0.11 0.22-0.219 0.657-0.657 0.657-1.095 0.329-1.862-1.204-2.738-1.752-2.52-3.286-3.833-7.009-4.928-10.842 0.218-0.768-0.438-1.534-0.221-2.082-0.876-0.876-0.218-2.189-0.876-3.177 0.438-0.328 0.11-1.095-0.108-1.424 0.438-1.204-0.658-1.861-0.329-2.848 0.329 0 0.329-0.219 0.548-0.327-0.548-0.768-0.657-1.315-0.657-2.19 0.218-1.097-0.22-2.301-0.329-3.396 0.22 0 0.329-0.108 0.329-0.219-0.658 0 0-0.767-0.22-1.204 0.985-0.44-0.439-1.095 0.547-1.424z"/><path d="m199.51 139.64c0.22 0.219 0 0.438 0.109 0.657-0.328 0-0.438-0.438-0.438-0.657 0.11 0 0.22 0.109 0.329 0z"/><path d="m200.27 142.6h-0.219c0-0.438-0.11-0.548 0.107-0.876 0.112 0.328 0.221 0.547 0.112 0.876z"/><polygon points="200.38 143.92 200.16 143.26 200.38 143.7"/><path d="m201.15 145.56c-0.438-0.657-0.329-1.205-0.438-1.972 0.329 0.547 0.656 1.425 0.438 1.972z"/><path d="m201.7 146.43c-0.218 0.108-0.438-0.328-0.218-0.438 0.109-1e-3 0.218 0.218 0.218 0.438z"/><path d="m203.23 148.84c0.328 1.204 1.314 2.408 1.752 3.505 1.314 1.753 3.177 3.505 4.709 5.038 0 0.329-0.328 0.656-0.656 0.329-2.52-1.204-3.834-3.942-5.367-6.134 0.22-0.33-0.109-1.096-0.438-0.985-0.767-1.204-1.315-2.409-1.534-3.834 1.315 0.108 0.549 1.752 1.534 2.081z"/><path d="m231.38 162.31c-0.328 0.329-0.219 0.768-0.548 1.097l-0.656-0.658c0.218-0.439 0.656-0.548 1.204-0.439z" fill="#fff"/><path d="m92.543 79.294-0.328-0.219c0-3.613-0.767-6.791-2.082-10.186-1.095-3.285-4.929-2.629-7.557-3.176-1.533-0.109-2.519 1.642-3.396 2.629-0.767 2.518-2.19 4.709-2.738 7.337 0-0.657-0.766-1.424 0-1.861h-0.109c-0.438 0-0.329-0.439-0.329-0.658-1.424-1.643 0.438-3.504 0.438-5.257 1.972-4.601 1.862-10.186 1.643-15.553 0.658-2.19 1.534-4.162 1.863-6.353 0.657-0.876 0.328-1.971 0.875-2.847 0-1.096 0.438-2.41 0.329-3.396 0.438-2.738-1.205-4.818-1.205-7.229 0.109-0.657 0.547-1.314 0.438-1.971 0.438-0.329 0-1.096 0.767-1.423 0.548-6.244 0.658-13.144-5.038-16.977-0.328-0.329-0.657 0.218-0.876-0.219-0.658 0-1.424 0-1.862 0.547-0.547 2.081 2.19 1.204 2.738 2.628 4.491 4.272 2.738 12.706 0.985 17.744h0.11c0.328 1.642 0.986 3.176 1.314 4.928l-0.11 0.11c0.548 2.19 0 4.6-0.547 6.9-0.548 2.08-0.438 5.037-2.628 6.352 0.876 1.205-0.658 2.958 0.548 3.943 0.547 5.147-0.658 9.749-2.191 14.348 0 1.644-1.534 3.943 0 5.258 0.657 1.314 0 3.285 1.314 4.6l-1.205 14.349c0.438 0.876 1.205 1.533 1.205 2.628-0.548 0.328-0.109 1.315-0.875 1.642-1.096 0.767-0.438 2.411-0.658 3.615 0 0.439 0 1.206 0.658 1.095 0.766-0.547 0.328-1.862 0.438-2.847 0.328-0.767 0.875-1.314 0.985-2.301 0.876-0.766 0.547-2.518 0.219-3.614 0.438-4.928-0.219-10.295 1.971-14.457 0.22-1.971 0.986-3.942 1.424-5.805 0.986-2.081 1.534-4.38 3.505-5.915 1.424 0.985 3.614-0.219 4.491 1.314l0.219-0.219c2.519 3.505 2.738 8.213 2.519 12.924l-0.219 0.218c-0.438 5.039-2.081 9.201-3.285 13.802 0.328 2.189-1.862 2.081-2.082 4.052-0.328 0.437 0 1.204-0.548 1.642l0.22 0.438c-0.986 4.82-0.22 9.749-0.329 14.897-0.548 6.133 0.219 13.143-1.314 19.495-2.081 9.966-10.295 16.866-15.005 25.41-0.766 0.219-1.424 0.767-1.533 1.533-1.752 5.147-1.752 11.062-2.629 16.429 0.11 0.657-0.219 1.642 0.438 1.861l-0.548 1.534c-2.848 0.875-6.134 0.656-8.762-0.11-10.733-1.424-22.453-9.419-26.176-20.592 1.861-2.08 2.847-4.709 4.491-7.008 0.438-0.438 0.766-1.643 1.313-1.973v-0.437c0.329-1.534 1.534-3.505 1.425-5.368 2.409-9.528 3.613-19.495 4.271-29.681 0.219-1.534 0-3.285 0.329-5.039-0.329-0.766 0-1.751-0.11-2.738 0.547-0.328-0.109-0.437 0-0.766 0.439-0.877-0.109-1.972 0.219-2.738-0.438-1.094 0.11-1.972-0.219-2.957-0.219-0.547 0.767-0.767 0.11-1.095 0.438-0.438-0.219-0.986 0.219-1.314 0.11-0.439-0.329-0.767-0.657-0.987-0.658-2.518 1.533-4.051 1.314-6.461 1.314-8.433 3.505-16.976 5.367-25.082 0.548-1.861 0.876-3.613 1.314-5.585 0.548-0.876 0.219-2.19 1.096-2.848-0.218-0.656 0.876-1.095 0.547-1.532 1.315-1.206 1.972-2.301 2.082-4.272 0.548-2.081 0.438-4.819 1.643-6.681 0.656-0.658 1.533 0.109 2.19-0.111 0.329 0 0.767 0.329 1.096 0.549 1.423-0.438 1.533 1.533 2.409 1.971 2.958 5.039 0.548 11.5-1.205 16.319-0.329-0.108-0.876-0.219-1.205 0.109-0.986 0.767 0.438 1.534 0.219 2.41 0.219 0.548-0.767 1.095 0.109 1.534 0.986 3.942 0.11 8.323-1.095 11.938-1.095 0.438-0.657 1.753-0.986 2.738 1.753 5.805 0.876 12.267-0.876 17.743l0.109 0.22c2.41-0.767 2.52-4.162 2.958-6.462-0.11-2.081 2.628-1.861 3.395-3.395 1.423-0.22 1.752-1.862 2.629-2.738 0.219-1.862 1.533-3.395 1.643-5.038 1.424-5.039 1.534-11.5 0.438-16.758 0.767-1.424 1.862-2.847 1.862-4.599 0.547-0.439 0.109-1.206 0.766-1.534-0.328-0.986 0.219-2.081 0.11-3.066 0.438-1.753 0.657-3.505 0.657-5.148 0.218-0.219 0.438-0.547 0.11-0.767 0.108-1.643-0.438-3.285-0.219-4.928-0.767-0.438-0.219-1.424-0.767-1.971 0.986-2.19 2.19-4.601 2.519-7.01-0.109-2.19 0.766-3.943 0.219-6.132 0.438-0.658-0.328-1.424-0.328-2.3 0-1.643-0.548-3.505-1.315-5.148-0.875-2.518-3.613-3.724-5.804-4.381-0.767-0.658-0.985 0.22-1.862-0.109 0.11-1.533 0.11-3.067 0.548-4.381 0.658 0 0.547-0.877 0.876-1.314-0.547-0.877-0.219-2.301-0.547-3.177-0.11-1.642 0.547-3.395 2.081-4.161 1.314 0 2.519 0 3.504 0.767 1.424 0.328 1.752 1.971 2.52 2.848 2.955 6.679 2.955 14.236 1.969 21.463-1.095 1.754-0.109 3.834-0.547 5.695l0.438 0.329c0.109 2.191 0.22 4.6-0.219 6.791 0 3.396-1.205 6.681-1.533 10.185l0.328 0.439c-0.109 4.49 0.767 8.324 0 12.596-0.657 2.409-1.205 4.49-2.3 6.571-0.219 0.219 0.219 0.439 0.329 0.767 0.985 0.329 1.205-1.095 1.862-1.534 2.19-5.695 2.738-12.156 1.095-18.181l-0.328-0.219c1.971-6.132 3.176-13.034 1.971-19.934 0.439-1.095 0.329-2.191 0.767-3.505 0.219-0.766-0.109-1.642 0.438-2.19 0.109-2.19 0.22-4.052 0.547-6.353-0.218-1.752-0.218-3.066-0.328-4.819 0.109-2.628-1.315-5.257-1.643-7.775-1.095-1.316-1.424-3.176-2.848-4.162 0-0.548-0.548-0.548-0.767-0.767-1.095-1.096-2.409-0.656-3.724-0.985-2.081-0.548-4.163 0.985-5.477 2.738-0.329 1.752-0.438 4.162 0.109 5.915-0.548 1.971-0.657 4.708-0.876 7.229-1.205 0.329-1.424 1.533-2.41 2.19-0.657 2.628-0.657 5.367-0.657 7.885-1.424 4.053-2.738 8.325-2.738 12.816-0.328 0.657-1.095 0.766-1.752 0.875-2.081 2.848-1.533 7.338-2.409 10.625-0.109 0.219-0.547 0.219-0.767 0.11-2.3 0.657-1.752 3.504-2.738 5.366-0.985 3.286-1.314 7.009-2.41 10.077-1.205 5.914-2.737 11.938-3.724 17.852-2.628 4.492-1.751 10.625-1.314 15.772-0.109 14.129-1.096 28.587-4.709 41.729-0.767 4.052-3.286 7.557-5.367 11.062l-0.547-0.328c-0.219 0.107-0.438 0.328-0.438 0.547 0.219 1.533-1.643 0.877-1.971 2.191-6.067 8.68-12.051 17.062-17.958 25.715 0.131 0.941 0.256 1.88 0.374 2.816 2.423-3.635 4.808-7.231 7.508-10.79 1.753-1.86 2.629-4.49 4.601-6.133 0.438-1.644 1.862-2.738 2.629-4.272 1.313-1.971 2.738-4.161 4.381-6.023 1.423 4.272 4.162 7.996 7.338 11.5 2.081 1.754 3.943 4.272 6.571 5.148 0.767 0.986 2.19 1.314 3.177 2.082 1.752 0.656 3.395 1.204 4.82 2.189 1.643-0.109 2.737 0.877 4.162 1.096 1.861 0.329 3.833 0.219 5.366 0.984 1.314-0.547 3.066 0 4.6-0.108-1.205 7.558-2.3 14.677-3.505 22.233 0.219 0.438-0.657 0.328-0.109 0.767-0.226 1.3-0.479 2.57-0.704 3.843 0.661-0.587 1.343-1.133 2.024-1.685 0.032-0.206 0.075-0.416 0.104-0.624 0.767-0.33 0.109-0.986 0.328-1.534 0.987-4.052 1.424-8.323 2.191-12.596 0.876-2.847 0.767-5.585 1.424-8.434 0.767-1.751 0.438-4.271 1.971-5.585 0.11-0.768-0.657-1.314-1.314-1.314 0.109-1.424 0.767-3.065 0.657-4.6 0.439-1.752 0.22-3.067 0.877-4.711-0.22-1.204 0.438-2.409 0.438-3.613 0-0.438 0.547-0.438 0.219-0.986 0.219-0.328 0.438 0 0.657 0l0.438-0.656c-0.219-1.315 0.875-2.191 0.985-3.396-0.11-0.547 0.767-0.218 0.328-0.766 0.548-0.547 0.767-1.095 1.096-1.753 1.205-1.425 1.643-2.957 2.957-4.162 0.658-0.328 0.329-1.314 1.314-1.204 0-0.22 0-0.329-0.109-0.438 0.329-0.219 0.329-0.329 0.657-0.329 2.629-3.395 4.929-7.009 6.9-10.732 1.314-2.19 1.095-3.944 2.19-6.134 0.11-1.096 0-2.629 0.876-3.286l-0.438-0.656c0.438-1.205 0.109-2.629 0.547-3.726-0.109-2.189 0-4.161-0.109-6.132 0.657-3.286-0.11-6.791 0.657-10.077-0.657-1.643 0.109-3.724-0.22-5.367-0.218-1.971 0.329-4.709 0.329-6.572-0.109-2.409 2.19-3.614 2.3-5.914 0.109-0.547 0.767-0.767 0.547-1.423 1.752-4.82 2.847-9.529 3.286-14.567l0.328-0.111z"/><path d="m64.833 25.627c1.096 1.094 1.534 2.627 1.643 4.161 1.205 2.081 0.985 4.709 0.985 7.338 0 2.739-0.766 5.367-1.752 7.775-0.329 0.111-0.986 0.329-1.095 0.877 0 1.314 0.547 2.41 0.438 3.615 0.547 0.656 0.438 1.751 0.438 2.408 0.767 3.944-0.657 7.667-0.875 11.5-0.22 0.986-0.329 1.972-0.876 2.738-0.329 0-1.095-0.109-1.095 0.547-0.219 2.301 0.876 4.602 0.876 6.901 0.767 6.243-0.876 13.144-3.505 18.62l-0.109 0.984c-0.876 0.439-1.862 1.754-2.957 1.643 0-3.175 0.547-6.352-0.438-9.528 0.438-2.08 1.205-4.052 1.752-6.133 0.438-2.738 0.875-6.023 0.219-8.872 0.548-0.438-0.11-0.657-0.11-1.094 1.972-3.726 3.067-7.667 3.943-11.94-0.438-0.656 0.658-1.095 0-1.752 0.658-0.658-0.328-1.205-0.109-1.862-0.548-1.861-0.657-3.943-2.3-5.257 0.219-0.438-0.876-0.766-0.767-1.314-0.109-0.438-0.438 0.109-0.767-0.219-1.095-0.986-2.19-1.314-3.614-1.205 0-1.972 0.548-3.723 1.096-5.367 0.547-1.751 0.657-3.833 1.862-5.256 0-1.643 0.438-2.848 0.328-4.6 0.438-1.424-0.11-3.286 0.328-4.929 1.425-0.328 1.643-1.095 3.067-1.314 1.422-0.219 2.189 0.768 3.394 1.535z" fill="#fff"/><path d="m58.48 122.56h-0.219c-0.438-2.738-1.096-5.804-1.424-8.543l0.219-0.658c0.767 2.957 0.986 6.025 1.424 9.201z"/><path d="m58.7 123.65c-0.329 0-0.329-0.11-0.329-0.329l0.11-0.438c0.328 0.218 0.109 0.547 0.219 0.767z"/><polygon points="58.7 124.86 58.7 124.09 58.809 124.86"/><path d="m58.918 127.81-0.109-2.52c0.219 0.877 0.657 1.973 0.109 2.52z"/><path d="m59.795 131.54c-0.329-0.658-0.329-1.862-0.658-2.738l0.11-0.657c0.11 0.985 0.548 2.189 0.548 3.395z"/><path d="m59.904 133.51c-0.329-0.329 0-1.205-0.219-1.645 0.219 0.44 0.329 1.204 0.219 1.645z"/><path d="m60.124 136.36c-0.438-0.657-0.219-1.752-0.219-2.519l0.219 2.519z"/><path d="m60.452 138.88c-0.876-0.547 0.109-1.426-0.329-2.19l0.329 2.19z"/><path d="m60.561 140.19c0 0.111-0.109 0.221-0.219 0.111v-0.439c0.329 0 0.219 0.22 0.219 0.328z"/><path d="m60.561 142.93c0.11-0.766-0.547-1.423-0.109-2.189 0.219 0.876-0.11 1.313 0.109 2.189z"/><path d="m60.671 144.79c-0.329-0.328 0.219-1.095 0-1.532 0.11 0.437 0.11 1.204 0 1.532z"/><rect x="60.671" y="146.21" width=".11" height=".11"/><path d="m60.89 149.5c-0.766-0.548 0.11-1.096-0.109-1.752l0.109 1.752z"/><path d="m61 152.13c-0.986-0.22 0-1.753-0.219-2.3 0.219 0.656 0.438 1.533 0.219 2.3z"/><path d="m58.042 167.46c-0.548 0.657-1.423 0.877-2.3 0.987-1.205 0-2.409-0.987-2.957-1.644 2.628-0.11 3.724-2.848 5.257-4.601 0.876-2.189 2.628-3.724 2.847-6.134 1.205-1.752 1.534-3.833 1.972-6.024-1.205 5.916-1.205 12.488-4.819 17.416z"/><path d="m61.109 154.32c-0.328 0.438 0.11 0.986 0 1.314-0.548-0.767-0.438-1.753-0.109-2.737 0.328 0.657-0.219 0.985 0.109 1.423z"/><path d="m60.561 159.03c0.329 1.314-0.547 2.081-0.657 3.396-1.314 1.644-1.862 5.257-4.929 4.709 2.848-2.519 4.162-5.914 5.695-9.2 1.315-0.547-0.109 0.766-0.109 1.095z" fill="#fff"/><line x1="88.635" x2="110.34" y1="128.16" y2="128.16" fill="none" stroke="#000" stroke-width="3.2318"/><polygon points="103.99 136.53 107.55 128.16 103.99 119.78 123.85 128.16"/><line x1="173.13" x2="140.32" y1="128.16" y2="128.16" fill="none" stroke="#000" stroke-width="3.2318"/><polygon points="146.68 119.78 143.12 128.16 146.68 136.54 126.82 128.16"/></svg>
