<?xml version="1.0" encoding="UTF-8"?>
<svg width="226.77px" height="226.77px" enable-background="new 0 0 226.77 226.77" version="1.1" viewBox="0 0 226.77 226.77" xmlns="http://www.w3.org/2000/svg"><rect width="226.77px" height="226.77px" fill="#fff"/><linearGradient id="a" x1="83.328" x2="91.786" y1="21.659" y2="34.218" gradientTransform="matrix(.9829 -.1842 -.1842 -.9829 7.6798 245.11)" gradientUnits="userSpaceOnUse"><stop stop-color="#fff" offset="0"/><stop stop-color="#EDEDED" offset="1"/></linearGradient><polygon points="113.75 221.24 118.39 190.87 121.17 179.79 110.35 178.34 93.531 173.5 82.648 167.4 76.861 162.24 55.283 200.71" fill="url(#a)"/><path d="m95.332 17.6s0.056 0.376 0.154 1.035c0.083 0.659 0.243 1.596 0.416 2.713 0.096 0.557 0.199 1.16 0.33 1.784 0.067 0.311 0.143 0.629 0.238 0.938 0.088 0.295 0.212 0.644 0.333 0.787l0.017 0.021c-0.043-0.039 0.021 0.016 0.021 0.016 0.036 0.032 0.07 0.059 0.082 0.06l0.157 0.082c0.134 0.061 0.286 0.115 0.446 0.163 0.32 0.094 0.664 0.177 1.017 0.242 0.706 0.135 1.445 0.201 2.181 0.266 0.736 0.059 1.481 0.074 2.184 0.038 0.347-0.021 0.701-0.052 0.898-0.163 0.184-0.095 0.418-0.348 0.588-0.602 0.359-0.528 0.606-1.149 0.788-1.748 0.185-0.601 0.315-1.191 0.4-1.743 0.183-1.103 0.232-2.049 0.237-2.71 0.014-0.662 5e-3 -1.044 5e-3 -1.044s0.085 0.371 0.179 1.033c0.081 0.662 0.18 1.619 0.126 2.779-0.08 1.154-0.236 2.531-0.999 3.901-0.215 0.338-0.442 0.671-0.893 0.948-0.449 0.244-0.86 0.271-1.249 0.324-0.786 0.08-1.56 0.057-2.337 0.015-0.776-0.041-1.545-0.152-2.305-0.302-0.379-0.081-0.758-0.165-1.132-0.302-0.188-0.068-0.375-0.145-0.565-0.244-0.098-0.056-0.184-0.1-0.306-0.194-0.065-0.047-0.098-0.078-0.127-0.107l-0.076-0.075-0.066-0.084c-0.295-0.438-0.353-0.783-0.448-1.142-0.077-0.353-0.128-0.693-0.172-1.024-0.09-0.66-0.131-1.281-0.157-1.855-0.093-2.286 0.035-3.806 0.035-3.806z"/><path d="m123.72 15.145s-0.194 1.538-0.486 3.845c-0.06 0.573-0.126 1.195-0.195 1.852-0.057 0.649-0.101 1.356-0.055 2.009 0.036 0.371 0.072 0.46 0.293 0.606 0.238 0.17 0.568 0.311 0.897 0.446 0.669 0.265 1.402 0.466 2.137 0.639 0.734 0.183 1.482 0.334 2.216 0.441 0.366 0.054 0.731 0.108 1.072 0.127 0.159 0.011 0.347 7e-3 0.413-0.018 0.11-0.027 0.24-0.09 0.361-0.17 0.498-0.332 0.92-0.883 1.254-1.417 0.334-0.544 0.618-1.092 0.846-1.615 0.46-1.046 0.773-1.963 0.963-2.611 0.194-0.651 0.304-1.023 0.304-1.023s-0.022 0.389-0.116 1.065c-0.105 0.673-0.259 1.642-0.615 2.772-0.186 0.562-0.403 1.172-0.729 1.785-0.333 0.606-0.708 1.26-1.397 1.782-0.176 0.126-0.373 0.242-0.617 0.318-0.288 0.084-0.478 0.076-0.691 0.081-0.406-4e-3 -0.793-0.033-1.183-0.082-0.777-0.1-1.552-0.243-2.324-0.421-0.769-0.191-1.531-0.415-2.275-0.723-0.374-0.157-0.737-0.336-1.097-0.616-0.096-0.08-0.167-0.133-0.28-0.267-0.136-0.182-0.1-0.106-0.215-0.356-0.097-0.274-0.109-0.481-0.119-0.684-0.025-0.799 0.102-1.494 0.203-2.165 0.106-0.667 0.248-1.285 0.377-1.856 0.263-1.139 0.547-2.071 0.732-2.725 0.195-0.652 0.326-1.019 0.326-1.019z"/><path d="m153.7 32.129s-0.489 1.365-1.222 3.412c-0.344 1.017-0.804 2.225-1.061 3.485-0.031 0.154-0.049 0.308-0.053 0.439-6e-3 0.053 0.015 0.147 2e-3 0.107 0.014 0.036 0.031 0.093 0.043 0.111 0.012 0.01 0.013 0.012 0.025 0.031 0.131 0.193 0.395 0.403 0.657 0.593 0.541 0.385 1.168 0.718 1.803 1.022 0.632 0.313 1.286 0.596 1.935 0.832 0.321 0.118 0.65 0.237 0.946 0.304l0.104 0.021c-0.02 3e-3 0.069 7e-3 0.098 0.01 0.036-1e-3 0.074-3e-3 0.141-0.014 0.117-0.022 0.247-0.072 0.374-0.137 0.518-0.264 0.99-0.708 1.39-1.148 0.401-0.447 0.759-0.902 1.065-1.341 0.617-0.876 1.079-1.655 1.38-2.211 0.306-0.557 0.48-0.875 0.48-0.875s-0.101 0.35-0.32 0.949c-0.23 0.593-0.563 1.447-1.097 2.415-0.273 0.48-0.584 0.997-0.982 1.505-0.404 0.502-0.853 1.03-1.527 1.43-0.171 0.096-0.359 0.183-0.579 0.236-0.102 0.025-0.236 0.045-0.374 0.044-0.057-4e-3 -0.055 2e-3 -0.162-0.01l-0.154-0.022c-0.39-0.068-0.735-0.172-1.088-0.285-0.695-0.239-1.378-0.52-2.05-0.837-0.666-0.331-1.317-0.691-1.932-1.143-0.304-0.237-0.601-0.481-0.852-0.878-0.033-0.055-0.069-0.132-0.098-0.199-0.024-0.061-0.029-0.089-0.044-0.134-0.047-0.211-0.036-0.29-0.033-0.41 0.016-0.213 0.051-0.399 0.093-0.576 0.173-0.704 0.425-1.316 0.659-1.903 0.236-0.584 0.492-1.119 0.723-1.614 0.956-1.964 1.71-3.209 1.71-3.209z"/><path d="m116.77 49.368s6.594-0.816 10.79 2.825" fill="none" stroke="#000" stroke-linecap="round" stroke-width=".5"/><path d="m116.39 52.008s4.664 2.12 11.024 1.908" fill="none" stroke="#000" stroke-linecap="round" stroke-width=".5"/><path d="m137.61 63.376s6.591 0.845 9.753 5.413" fill="none" stroke="#000" stroke-linecap="round" stroke-width=".5"/><path d="m136.59 65.838s3.992 3.211 10.206 4.583" fill="none" stroke="#000" stroke-linecap="round" stroke-width=".5"/><path d="m92.235 48.399s6.244-2.272 11.149 0.338" fill="none" stroke="#000" stroke-linecap="round" stroke-width=".5"/><path d="m92.452 51.058s5.02 1.022 11.172-0.608" fill="none" stroke="#000" stroke-linecap="round" stroke-width=".5"/><path d="m124.5 14.308s0.146-5e-3 0.388-0.04c0.234-0.022 0.577-0.119 0.987-0.197 0.82-0.176 1.959-0.351 3.117-0.267 0.575 0.051 1.151 0.139 1.671 0.298 0.522 0.147 0.991 0.346 1.37 0.549 0.385 0.196 0.675 0.408 0.876 0.557 0.201 0.148 0.309 0.24 0.309 0.24s-0.141-0.035-0.376-0.111c-0.228-0.09-0.569-0.175-0.967-0.286-0.399-0.106-0.863-0.218-1.363-0.306-0.246-0.061-0.512-0.067-0.772-0.118-0.264-0.031-0.533-0.06-0.802-0.075-1.078-0.084-2.176-0.042-3.024-0.053-0.426-6e-3 -0.781-0.042-1.037-0.085-0.246-0.046-0.377-0.106-0.377-0.106z"/><path d="m154.81 31.156s0.141 0.038 0.383 0.074c0.23 0.047 0.587 0.053 1.001 0.097 0.835 0.069 1.977 0.232 3.061 0.647 0.536 0.216 1.062 0.466 1.513 0.769 0.457 0.292 0.848 0.618 1.153 0.922 0.312 0.299 0.528 0.586 0.677 0.787 0.15 0.2 0.226 0.319 0.226 0.319s-0.125-0.074-0.328-0.215c-0.192-0.152-0.494-0.333-0.843-0.554-0.351-0.217-0.763-0.459-1.215-0.688-0.218-0.13-0.471-0.212-0.704-0.337-0.244-0.106-0.492-0.211-0.746-0.304-1.007-0.393-2.07-0.671-2.879-0.927-0.406-0.129-0.736-0.266-0.968-0.382-0.224-0.113-0.331-0.208-0.331-0.208z"/><path d="m96.658 15.075s0.146-5e-3 0.388-0.04c0.234-0.022 0.577-0.119 0.987-0.197 0.82-0.176 1.959-0.351 3.117-0.267 0.575 0.051 1.151 0.139 1.671 0.298 0.522 0.147 0.991 0.346 1.37 0.549 0.385 0.196 0.675 0.408 0.876 0.557 0.201 0.148 0.309 0.24 0.309 0.24s-0.141-0.035-0.376-0.111c-0.228-0.09-0.569-0.175-0.967-0.286-0.399-0.106-0.863-0.218-1.363-0.306-0.246-0.061-0.512-0.067-0.772-0.118-0.264-0.031-0.533-0.06-0.802-0.075-1.078-0.084-2.176-0.042-3.024-0.053-0.426-6e-3 -0.781-0.042-1.037-0.085-0.246-0.046-0.377-0.106-0.377-0.106z"/><path d="m59.217 194.18s22.835-39.629 22.768-43.514c-0.067-3.884 3.996-60.119 3.909-62.421-0.375-9.881 3.506-35.832 3.623-38.065s3.36-29.574 4.475-32.121c1.91-4.363 6.514-6.45 10.515-4.65s3.869 9.782 3.412 13.034-0.972 11.586-4.908 49.254" fill="none" stroke="#000" stroke-linecap="round" stroke-width="2"/><path d="m104.62 78.108s7.955-25.317 9.095-30.023 4.716-19.406 6.217-25.706 1.83-11.264 9.192-10.763 6.974 8.357 4.287 19.109-7.045 45.359-9.396 53.06" fill="none" stroke="#000" stroke-linecap="round" stroke-width="2"/><path d="m125.15 86.345 11.387-26.359s11.801-25.074 16.659-28.489c5.189-3.649 11.765-0.821 9.14 7.429s-16.99 40.469-20.549 49.061" fill="none" stroke="#000" stroke-linecap="round" stroke-width="2"/><path d="m138.68 95.704s5.67-11.556 8.984-11.967 9.518 2.07 7.934 9.16-6.483 22.89-6.483 22.89" fill="none" stroke="#000" stroke-linecap="round" stroke-width="2"/><path d="m149.13 109.8s-3.484 13.674-6.784 28.074-12.946 25.788-18.938 30.765c0 0-7.157 35.483-8.428 43.146" fill="none" stroke="#000" stroke-linecap="round" stroke-width="2"/><path d="m79.617 163.99s3.54 10.238 36.794 14.869" fill="none" stroke="#000" stroke-linecap="round"/></svg>
