<?xml version="1.0" encoding="UTF-8"?>
<svg width="226.77px" height="226.77px" enable-background="new 0 0 226.77 226.77" version="1.1" viewBox="0 0 226.77 226.77" xmlns="http://www.w3.org/2000/svg"><rect width="226.77px" height="226.77px" fill="#fff"/><path d="m178.03 60.917s-7e-3 0.019-0.02 0.056c-7e-3 9e-3 -0.029 0.09-0.037 0.169-0.015 0.085-0.012 0.193-5e-3 0.321 0.017 0.127 0.048 0.272 0.112 0.431 0.073 0.152 0.147 0.331 0.29 0.493 0.117 0.177 0.296 0.332 0.474 0.502 0.382 0.319 0.858 0.609 1.37 0.848 0.514 0.24 1.055 0.43 1.574 0.591 0.256 0.092 0.515 0.138 0.756 0.204 0.243 0.061 0.472 0.118 0.684 0.171 0.862 0.162 1.437 0.27 1.437 0.27s-0.586-0.027-1.466-0.069c-0.22-0.023-0.458-0.049-0.709-0.076-0.251-0.033-0.521-0.044-0.794-0.1-0.55-0.09-1.135-0.207-1.715-0.385-0.579-0.178-1.151-0.42-1.663-0.738-0.248-0.175-0.494-0.338-0.695-0.555-0.216-0.191-0.379-0.436-0.521-0.66-0.137-0.234-0.229-0.471-0.29-0.692-0.051-0.223-0.082-0.425-0.082-0.596-4e-3 -0.177 6e-3 -0.296 0.028-0.42 0.02-0.096 0.03-0.148 0.03-0.148 0.072-0.353 0.417-0.581 0.77-0.509s0.581 0.417 0.509 0.77c-6e-3 0.031-0.015 0.061-0.025 0.09l-0.012 0.032z"/><path d="m187.71 62.102s-0.018 0.048-0.017 0.037c-3e-3 4e-3 -0.027 0.067-0.03 0.134-0.017 0.139-3e-3 0.369 0.147 0.653 0.078 0.141 0.184 0.291 0.331 0.44 0.139 0.151 0.322 0.295 0.513 0.44 0.21 0.127 0.409 0.286 0.655 0.394 0.238 0.118 0.475 0.251 0.736 0.343 0.258 0.095 0.507 0.217 0.772 0.29 0.262 0.082 0.521 0.162 0.771 0.24 0.508 0.133 0.988 0.247 1.4 0.342 0.834 0.156 1.39 0.259 1.39 0.259s-0.567-0.023-1.418-0.058c-0.425-0.034-0.922-0.08-1.455-0.14-0.266-0.043-0.541-0.086-0.82-0.131-0.282-0.036-0.56-0.124-0.845-0.185-0.286-0.057-0.563-0.162-0.841-0.253-0.281-0.08-0.541-0.225-0.803-0.339-0.253-0.138-0.501-0.281-0.72-0.456-0.223-0.17-0.417-0.365-0.579-0.577-0.324-0.424-0.465-0.913-0.478-1.265-0.012-0.181 5e-3 -0.311 0.026-0.436 0.024-0.103 0.037-0.158 0.037-0.158 0.082-0.351 0.433-0.569 0.784-0.487s0.569 0.433 0.486 0.784c-6e-3 0.027-0.014 0.053-0.024 0.079l-0.018 0.05z"/><linearGradient id="a" x1="-189.69" x2="-178.27" y1="155.57" y2="183.14" gradientTransform="matrix(.9085 .4178 .4178 -.9085 171.33 393.49)" gradientUnits="userSpaceOnUse"><stop stop-color="#fff" offset="0"/><stop stop-color="#EDEDED" offset="1"/></linearGradient><polygon points="89.75 188.96 116.54 154.16 94.097 147.05 78.938 129.32 81.468 128.17 64.452 138.99 41.075 154.22" fill="url(#a)"/><path d="m50.793 147.4s32.453-20.524 34.848-22.915 15.254-55.833 16.114-58.783-2.543-9.465 6.956-13.217c0 0 32.056-10.936 34.953-12.003s34.026 6.219 36.335 9.219l9.551 5.365" fill="none" stroke="#000" stroke-linecap="round" stroke-width="2"/><path d="m186.47 58.707s-1.708-0.981-3.461-2.024c-0.876-0.522-1.94-1.155-3.16-1.881-0.607-0.361-1.253-0.745-1.934-1.15-0.639-0.37-1.375-0.712-2.156-1.033-0.78-0.318-1.618-0.623-2.471-0.846-0.912-0.21-1.854-0.427-2.823-0.65-1.952-0.447-4.011-0.918-6.141-1.406-4.26-0.975-8.803-2.015-13.347-3.055-0.591-0.142-1.094-0.25-1.654-0.292-0.556-0.051-1.122-0.061-1.685-0.042-0.562 0.02-1.125 0.067-1.671 0.158-0.539 0.081-1.064 0.247-1.63 0.404-2.208 0.622-4.382 1.234-6.485 1.826-4.206 1.184-8.132 2.289-11.497 3.237-6.73 1.895-11.217 3.158-11.217 3.158s4.451-1.383 11.128-3.457c3.338-1.037 7.233-2.247 11.406-3.544 2.087-0.648 4.243-1.318 6.433-1.999 0.535-0.164 1.106-0.362 1.709-0.471 0.59-0.115 1.184-0.179 1.78-0.217 0.596-0.036 1.196-0.042 1.8-3e-3 0.604 0.028 1.247 0.147 1.792 0.265 4.57 0.918 9.14 1.836 13.424 2.696 2.142 0.43 4.213 0.846 6.176 1.241 0.988 0.2 1.95 0.395 2.88 0.583 0.978 0.228 1.862 0.527 2.709 0.845 0.844 0.321 1.641 0.664 2.393 1.071 0.699 0.391 1.363 0.761 1.986 1.109 1.239 0.693 2.32 1.298 3.21 1.796 1.78 0.996 3.504 1.95 3.504 1.95 0.482 0.27 0.654 0.879 0.384 1.361s-0.879 0.654-1.361 0.384c-4e-3 -4e-3 -0.014-0.011-0.021-0.014z"/><path d="m177.19 60.286s-3.488-0.739-8.72-1.847c-2.616-0.554-5.668-1.201-8.938-1.893-0.817-0.173-1.649-0.349-2.49-0.528-0.867-0.195-1.627-0.341-2.486-0.385-0.846-0.055-1.712-0.051-2.565 0.015-0.838 0.054-1.686 0.262-2.576 0.424-14.004 2.696-28.008 5.391-28.008 5.391s13.901-3.185 27.802-6.37l1.303-0.298c0.444-0.105 0.919-0.184 1.371-0.235 0.914-0.103 1.821-0.138 2.728-0.112 0.898 0.01 1.858 0.16 2.674 0.316 0.847 0.149 1.684 0.295 2.507 0.44 3.292 0.578 6.365 1.117 8.999 1.579 5.267 0.924 8.779 1.54 8.779 1.54 0.544 0.095 0.908 0.614 0.812 1.158-0.095 0.544-0.614 0.908-1.158 0.812-9e-3 -2e-3 -0.023-5e-3 -0.034-7e-3z"/><path d="m187.18 60.559c-0.073 2.033-0.836 4.08-2.152 5.73-0.328 0.413-0.684 0.81-1.078 1.166-0.386 0.365-0.81 0.693-1.254 0.986-0.437 0.306-0.906 0.563-1.382 0.802-0.477 0.241-0.971 0.439-1.471 0.623-0.506 0.155-1.013 0.329-1.532 0.431-0.516 0.128-1.037 0.214-1.56 0.29-1.046 0.149-2.098 0.216-3.145 0.202-2.094-0.032-4.169-0.278-6.199-0.688l1.08-0.549c-0.224 0.463-0.424 0.74-0.671 1.069-0.241 0.311-0.5 0.602-0.779 0.871-0.556 0.538-1.179 0.996-1.838 1.377-1.33 0.754-2.801 1.149-4.255 1.344-1.459 0.186-2.916 0.118-4.33-0.068-1.417-0.183-2.793-0.532-4.132-0.952l0.654-0.137c-0.524 0.388-1.028 0.713-1.557 1.037-0.529 0.315-1.069 0.611-1.618 0.886-1.101 0.544-2.234 1.034-3.42 1.371-1.18 0.342-2.402 0.578-3.632 0.593-1.228 0.025-2.459-0.186-3.569-0.653 1.171 0.288 2.37 0.306 3.531 0.147 1.161-0.174 2.292-0.494 3.374-0.941 1.081-0.447 2.128-0.975 3.127-1.584 0.5-0.304 0.988-0.626 1.464-0.965 0.474-0.33 0.958-0.687 1.378-1.038l0.267-0.223 0.388 0.086c1.31 0.291 2.629 0.495 3.939 0.615 1.312 0.113 2.617 0.068 3.88-0.093 0.629-0.094 1.246-0.233 1.84-0.424 0.595-0.189 1.16-0.442 1.692-0.739 0.532-0.296 1.029-0.649 1.466-1.057 0.219-0.203 0.42-0.423 0.603-0.651 0.174-0.212 0.364-0.503 0.443-0.657l0.354-0.693 0.726 0.144c0.971 0.193 1.938 0.405 2.914 0.548 0.487 0.087 0.976 0.123 1.465 0.188 0.489 0.063 0.978 0.074 1.467 0.114 0.978 0.039 1.956 0.054 2.924-0.029 0.484-0.04 0.967-0.089 1.443-0.177 0.482-0.063 0.945-0.193 1.415-0.305 0.463-0.131 0.925-0.268 1.371-0.449 0.446-0.178 0.888-0.373 1.303-0.614 0.424-0.227 0.827-0.495 1.209-0.788 0.393-0.282 0.754-0.607 1.096-0.953 0.687-0.691 1.264-1.497 1.737-2.371 0.456-0.88 0.838-1.822 1.024-2.822z"/><path d="m141.25 74.983s0.358 0.776 0.324 2.054c-0.019 0.314-0.028 0.663-0.107 1.019-0.06 0.361-0.148 0.738-0.288 1.113-0.113 0.385-0.305 0.753-0.479 1.136-0.221 0.354-0.42 0.736-0.675 1.076-0.272 0.325-0.51 0.683-0.815 0.966-0.295 0.292-0.573 0.596-0.891 0.828-0.605 0.506-1.221 0.897-1.772 1.189-0.529 0.325-1.036 0.476-1.363 0.62-0.338 0.124-0.531 0.195-0.531 0.195s0.157-0.134 0.433-0.367c0.268-0.24 0.694-0.513 1.138-0.922 0.226-0.199 0.47-0.412 0.735-0.625 0.244-0.235 0.502-0.483 0.768-0.74 0.285-0.236 0.495-0.558 0.769-0.826 0.277-0.268 0.477-0.603 0.72-0.903 0.242-0.302 0.427-0.641 0.639-0.956 0.156-0.343 0.382-0.651 0.505-0.99 0.148-0.33 0.284-0.653 0.384-0.972 0.112-0.315 0.184-0.624 0.261-0.909 0.264-1.152 0.245-1.986 0.245-1.986z"/><path d="m139.46 80.685c0.625 0.752 1.34 1.406 2.093 1.976 0.749 0.577 1.565 1.042 2.404 1.393 1.684 0.707 3.503 0.834 5.223 0.456l-0.273 0.088c1.094-0.59 2.186-1.119 3.297-1.645 1.104-0.534 2.247-0.986 3.396-1.435 1.15-0.444 2.318-0.864 3.537-1.176 0.603-0.169 1.227-0.301 1.856-0.426l0.964-0.15 1.006-0.078-0.877 0.491c0.244-0.341 0.467-0.62 0.708-0.919 0.237-0.293 0.481-0.577 0.728-0.859 0.495-0.561 1.009-1.103 1.542-1.626 1.08-1.031 2.239-1.982 3.479-2.816 1.252-0.815 2.572-1.536 3.979-2.032 0.695-0.265 1.418-0.452 2.141-0.598 0.723-0.152 1.462-0.203 2.187-0.228-1.407 0.39-2.719 0.961-3.951 1.651-1.223 0.706-2.375 1.515-3.436 2.433-1.072 0.902-2.071 1.889-2.994 2.942-0.47 0.518-0.921 1.053-1.352 1.601-0.214 0.275-0.426 0.552-0.628 0.833-0.198 0.276-0.408 0.576-0.57 0.833l-0.272 0.432-0.606 0.06-0.801 0.079-0.826 0.147c-0.555 0.123-1.113 0.25-1.672 0.42-0.56 0.148-1.114 0.354-1.677 0.518-0.56 0.188-1.12 0.37-1.677 0.578-1.118 0.397-2.217 0.856-3.331 1.289-1.107 0.44-2.217 0.914-3.294 1.393l-0.174 0.077-0.099 0.011c-1.054 0.118-2.133 0.092-3.174-0.114-1.042-0.208-2.028-0.62-2.915-1.149-0.888-0.535-1.659-1.218-2.329-1.963-0.656-0.755-1.217-1.587-1.612-2.487z"/><path d="m190.64 70.65s0.658 0.045 1.572 0.401c0.451 0.184 0.976 0.425 1.486 0.779 0.526 0.33 1.016 0.792 1.47 1.289 0.194 0.279 0.423 0.529 0.578 0.829 0.17 0.29 0.321 0.583 0.416 0.89 0.12 0.297 0.199 0.594 0.23 0.887 0.052 0.287 0.087 0.556 0.061 0.81-9e-3 0.251-0.017 0.479-0.047 0.676-0.043 0.198-0.092 0.367-0.13 0.504-0.078 0.275-0.132 0.425-0.132 0.425s-0.024-0.16-0.067-0.441c-0.015-0.136-0.034-0.3-0.055-0.489-0.042-0.182-0.09-0.387-0.141-0.611-0.034-0.223-0.13-0.45-0.214-0.689-0.07-0.244-0.192-0.481-0.316-0.725-0.1-0.255-0.281-0.478-0.425-0.725-0.137-0.251-0.353-0.461-0.523-0.697-0.197-0.218-0.386-0.447-0.6-0.647-0.219-0.195-0.412-0.414-0.637-0.587-0.423-0.378-0.859-0.691-1.228-0.976-0.755-0.541-1.298-0.903-1.298-0.903z"/><path d="m96.105 178.54 34.645-41.334s19.773-3.829 28.619-31.14c0 0 13.137-19.921 36.207-28.222" fill="none" stroke="#000" stroke-linecap="round" stroke-width="2"/><path d="m80.386 132.4s15.872 20.15 32.996 20.565" fill="none" stroke="#000" stroke-linecap="round"/><polyline points="178.06 60.03 185.16 60.928 186.88 61.272" fill="none" stroke="#000" stroke-linecap="round" stroke-width="2"/><line x1="188.14" x2="197.1" y1="58.951" y2="62.549" fill="none" stroke="#000" stroke-linecap="round" stroke-width="2"/><line x1="189.56" x2="198.1" y1="55.776" y2="59.163" fill="none" stroke="#000" stroke-linecap="round" stroke-width="2"/><path d="m197.16 62.876s-0.049 0.354-0.244 0.946c-0.089 0.301-0.231 0.649-0.401 1.052-0.194 0.386-0.384 0.851-0.684 1.298-0.143 0.23-0.293 0.47-0.448 0.718-0.18 0.231-0.366 0.471-0.558 0.717-0.376 0.501-0.858 0.964-1.358 1.438-0.549 0.416-1.07 0.926-1.726 1.264-0.32 0.179-0.628 0.39-0.966 0.544l-1.039 0.421c-0.344 0.152-0.704 0.251-1.07 0.325-0.363 0.079-0.725 0.159-1.084 0.237-0.723 0.109-1.449 0.087-2.137 0.129-0.687-0.043-1.346-0.149-1.963-0.23-0.616-0.091-1.17-0.314-1.685-0.463-0.516-0.15-0.978-0.31-1.361-0.528-0.391-0.189-0.723-0.372-0.995-0.518-0.543-0.298-0.839-0.483-0.839-0.483s0.361 0.029 0.967 0.107c0.302 0.042 0.668 0.086 1.077 0.159 0.406 0.089 0.878 0.104 1.383 0.139 0.506 0.017 1.043 0.104 1.609 0.103 0.568-0.025 1.16-0.042 1.766-0.046 0.599-0.096 1.218-0.169 1.833-0.278 0.302-0.08 0.607-0.161 0.913-0.242 0.31-0.064 0.614-0.154 0.902-0.289l0.886-0.339c0.288-0.129 0.561-0.288 0.841-0.429 0.572-0.261 1.073-0.634 1.589-0.953 0.464-0.386 0.973-0.703 1.381-1.096 0.425-0.374 0.825-0.738 1.173-1.102 0.363-0.351 0.656-0.71 0.948-1.01 0.256-0.323 0.516-0.59 0.696-0.832 0.389-0.468 0.594-0.759 0.594-0.759z"/><path d="m134.83 86.789s-0.031 0.205-0.089 0.589c-0.065 0.383-0.14 0.949-0.219 1.666-0.084 0.716-0.161 1.592-0.201 2.597-0.053 1.004-0.055 2.139-0.07 3.377-0.014 2.477 0.15 5.368 0.145 8.486 1e-3 3.119-0.184 6.459-0.707 9.765-0.268 1.65-0.643 3.283-1.069 4.875-0.462 1.582-0.964 3.131-1.607 4.57-0.301 0.728-0.634 1.428-1.012 2.088-0.338 0.68-0.771 1.289-1.157 1.9-0.377 0.617-0.859 1.141-1.262 1.687-0.424 0.532-0.911 0.981-1.335 1.446-0.919 0.865-1.824 1.59-2.709 2.105-0.215 0.137-0.423 0.27-0.624 0.398-0.21 0.112-0.422 0.204-0.62 0.301-0.397 0.189-0.762 0.362-1.092 0.519-0.676 0.272-1.237 0.406-1.603 0.534-0.37 0.116-0.568 0.178-0.568 0.178s0.191-0.08 0.551-0.23c0.355-0.157 0.89-0.353 1.54-0.66 0.314-0.176 0.661-0.371 1.04-0.584 0.188-0.108 0.388-0.211 0.585-0.334 0.188-0.139 0.382-0.283 0.583-0.431 0.826-0.561 1.654-1.327 2.515-2.19 0.393-0.469 0.845-0.92 1.234-1.452 0.368-0.548 0.812-1.067 1.152-1.682 0.349-0.608 0.743-1.21 1.043-1.884 0.163-0.329 0.328-0.662 0.495-0.998 0.147-0.346 0.295-0.695 0.445-1.047 0.606-1.405 1.075-2.924 1.505-4.475 0.396-1.563 0.738-3.167 0.984-4.79 0.264-1.609 0.483-3.255 0.611-4.862 0.128-1.612 0.188-3.206 0.216-4.752 0.043-3.093 0.065-5.998 0.161-8.489 0.054-1.246 0.137-2.387 0.261-3.394 0.109-1.008 0.245-1.881 0.379-2.597 0.122-0.719 0.262-1.27 0.357-1.647 0.093-0.382 0.142-0.583 0.142-0.583z"/><path d="m125.13 129.33s-0.152 0.172-0.469 0.42c-0.315 0.251-0.8 0.563-1.423 0.862-0.618 0.314-1.381 0.576-2.213 0.805-0.42 0.086-0.85 0.223-1.298 0.275-0.446 0.068-0.9 0.141-1.356 0.175-0.912 0.077-1.828 0.093-2.68 0.04-0.854-0.036-1.643-0.143-2.314-0.26-0.673-0.097-1.221-0.263-1.606-0.356-0.382-0.108-0.6-0.17-0.6-0.17s0.227-0.01 0.625-0.027c0.393-5e-3 0.954-0.011 1.628-0.019 0.671-0.013 1.448-0.015 2.277-0.049 0.415 4e-3 0.841-0.045 1.274-0.059 0.434-0.01 0.872-0.051 1.309-0.096 0.878-0.055 1.743-0.193 2.557-0.313 0.806-0.151 1.562-0.299 2.196-0.481 1.276-0.341 2.093-0.747 2.093-0.747z"/><line x1="120.03" x2="153.39" y1="61.38" y2="55.064" fill="none" stroke="#000" stroke-linecap="round"/><line x1="114" x2="146.06" y1="54.956" y2="46.041" fill="none" stroke="#000" stroke-linecap="round"/><line x1="83.442" x2="43.448" y1="83.776" y2="83.776" fill="none" stroke="#000" stroke-width="3"/><polygon points="28.621 83.776 49.515 75.239 44.557 83.776 49.515 92.311"/><path d="m197.67 58.923s0.348 1.285-0.73 3.215" fill="none" stroke="#000" stroke-linecap="round"/></svg>
