<?xml version="1.0" encoding="UTF-8"?>
<svg width="426.1px" height="226.77px" enable-background="new 0 0 426.1 226.77" version="1.1" viewBox="0 0 426.1 226.77" xmlns="http://www.w3.org/2000/svg"><rect width="426.1px" height="226.77px" fill="#fff"/><style type="text/css">.st0{fill:#FFFFFF;} .st1{fill:url(#a);} .st2{fill:none;stroke:#000000;stroke-width:1.9294;stroke-linecap:round;} .st3{fill:none;stroke:#000000;stroke-width:0.9647;stroke-linecap:round;} .st4{fill:none;stroke:#000000;stroke-width:1.4471;stroke-linecap:round;} .st5{fill:url(#SVGID_00000149352091419330537930000008428646947407738528_);} .st6{fill:none;stroke:#000000;stroke-width:0.9647;} .st7{fill:url(#SVGID_00000076575176196493724840000016656876681631645100_);} .st8{fill:url(#SVGID_00000134960739501738517770000001359852930647142800_);} .st9{opacity:0.22;} .st10{fill:url(#SVGID_00000072255420218444239480000002869153702781367685_);}</style><rect class="st0" x="1.888" y="2.264" width="423.16" height="222.61"/><linearGradient id="a" x1="172.07" x2="182.31" y1="216.88" y2="194.42" gradientTransform="translate(0 -.6617)" gradientUnits="userSpaceOnUse"><stop stop-color="#fff" offset="0"/><stop stop-color="#EDEDED" offset="1"/></linearGradient><path class="st1" d="m201.88 223.11 3.298-24.982 5.638-17.791s-8.366-1.086-10.146-0.47c-1.779 0.616-15.077-4.06-15.077-4.06l-9.998-5.874-5.178-5.633-12.903 23.1-14.648 20.581c2e-3 -2e-3 58.384 15.129 59.014 15.129z"/><path d="m152.72 195.57 4.467-7.921 4.505-7.895 4.507-7.894 4.562-7.856 0.019-0.031 0.057-0.072c1.048-1.332 1.885-3.022 2.273-4.725 0.199-0.857 0.279-1.737 0.206-2.596-0.013-0.444-0.111-0.827-0.187-1.3l-0.264-1.435c-0.648-3.782-1.23-7.556-1.818-11.335-1.135-7.562-2.216-15.131-3.277-22.705-1.022-7.583-2.051-15.152-2.929-22.78-0.107-0.957-0.208-1.911-0.286-2.893l-0.048-0.763c-5e-3 -0.134-0.011-0.274-5e-3 -0.466-2e-3 -0.016 8e-3 -0.155 0.027-0.26l0.033-0.162c-0.034 0.133-4e-3 0.012-9e-3 0.03 0.016-0.064 0.027-0.132 0.011-0.075-5e-3 0.06-6e-3 -0.199-0.036-0.377l-0.102-0.689c-0.157-0.989-0.23-2.189 0.048-3.329 0.265-1.149 0.849-2.162 1.523-2.981 0.684-0.815 1.456-1.48 2.257-2.044 0.418-0.289 0.773-0.519 1.259-0.806l0.598-0.32 0.718-0.321c1.858-0.74 3.638-0.922 5.082-1.601 0.727-0.332 1.393-0.756 1.986-1.316 0.292-0.285 0.594-0.561 0.854-0.897l0.442-0.534c0.145-0.174 0.288-0.35 0.519-0.571 0.808-0.792 1.62-1.298 2.47-1.769 0.844-0.461 1.701-0.843 2.564-1.183 3.453-1.346 6.969-2.172 10.484-2.935 3.52-0.736 7.052-1.318 10.581-1.882l1.323-0.208 0.224-0.033 0.167-0.013c0.134-4e-3 0.414 5e-3 0.544 0.046 0.329 0.062 0.596 0.198 0.851 0.335 0.963 0.593 1.577 1.354 2.196 2.099 1.19 1.522 2.24 3.065 3.148 4.809 1.782 3.363 3.358 6.797 4.929 10.243 0.77 1.73 1.522 3.469 2.261 5.215l1.086 2.635c0.343 0.891 0.71 1.797 0.831 2.838 0.14 1.053-0.217 2.12-0.713 2.94-0.488 0.842-1.089 1.58-1.67 2.299-1.19 1.441-2.402 2.837-3.619 4.238l-7.387 8.303 7.123-8.561c1.181-1.429 2.366-2.866 3.507-4.319 0.574-0.735 1.114-1.478 1.541-2.281 0.433-0.798 0.674-1.657 0.529-2.521-0.128-0.863-0.503-1.728-0.875-2.582l-1.175-2.567-2.442-5.096c-1.64-3.386-3.298-6.78-5.118-10.023-0.863-1.58-1.959-3.114-3.094-4.489-0.567-0.669-1.192-1.336-1.796-1.673-0.145-0.07-0.288-0.138-0.401-0.149-0.087-0.018-0.033-5e-3 -0.12-0.014l-0.167 0.017c-0.027 3e-3 0.085-0.01 0.018-1e-3l-0.041 8e-3 -0.082 0.015-1.315 0.243c-3.506 0.648-7 1.343-10.463 2.131-3.454 0.796-6.912 1.668-10.147 2.982-0.806 0.33-1.592 0.695-2.331 1.111-0.73 0.406-1.454 0.906-1.955 1.416-0.107 0.092-0.259 0.275-0.409 0.46l-0.439 0.544c-0.307 0.402-0.678 0.762-1.042 1.12-0.744 0.708-1.627 1.279-2.536 1.697-1.842 0.841-3.675 1.034-5.153 1.658l-0.516 0.229-0.597 0.322c-0.292 0.179-0.703 0.438-1.031 0.672-0.687 0.486-1.308 1.039-1.816 1.648-0.498 0.615-0.867 1.283-1.029 2.001-0.168 0.723-0.141 1.479 2e-3 2.369l0.111 0.728c0.03 0.294 0.085 0.514 0.04 1.052-0.02 0.177-0.034 0.226-0.046 0.278l-0.027 0.118c8e-3 -0.024 0.016-0.048 0.021-0.073 0.011-0.046 0.011-0.126 0.011-0.082l7e-3 0.251 0.046 0.668c0.078 0.924 0.18 1.872 0.279 2.816 0.841 7.572 1.842 15.158 2.833 22.732l2.999 22.729c0.5 3.786 0.997 7.58 1.553 11.343l0.222 1.388c0.065 0.469 0.181 1.025 0.183 1.539 0.063 1.05-0.061 2.099-0.314 3.091-0.52 1.997-1.436 3.758-2.718 5.314l0.074-0.103-4.74 7.733-4.795 7.696-4.797 7.694-4.834 7.664z"/><path d="m228.58 107.75s-0.014-0.049-0.04-0.143c-0.012-0.047-0.028-0.106-0.047-0.176-4e-3 -0.048-0.028-0.044-0.015-0.147 0.127-1e-3 0.052 0.036 0.08 0.038l0.011 0.033 0.021 0.067c0.106 0.366 0.248 0.906 0.38 1.604 0.274 1.393 0.571 3.412 0.697 5.857 0.139 2.444 0.109 5.315-0.194 8.368-0.159 1.525-0.35 3.102-0.65 4.683-0.294 1.582-0.647 3.179-1.06 4.758-0.432 1.573-0.924 3.127-1.46 4.634-0.527 1.512-1.151 2.954-1.773 4.335-1.259 2.757-2.659 5.202-3.98 7.193-1.311 2.001-2.543 3.55-3.428 4.605-0.892 1.051-1.434 1.615-1.434 1.615s0.415-0.675 1.14-1.857c0.715-1.186 1.714-2.889 2.819-4.978 1.098-2.093 2.288-4.58 3.396-7.318 0.562-1.365 1.067-2.808 1.577-4.273 0.502-1.469 0.955-2.982 1.356-4.511 0.421-1.523 0.784-3.064 1.089-4.594 0.298-1.531 0.584-3.042 0.786-4.519 0.424-2.951 0.65-5.736 0.751-8.134 0.093-2.398 0.068-4.408 1e-3 -5.815-0.039-0.702-0.067-1.258-0.113-1.631l-9e-3 -0.067-5e-3 -0.031c0.021-0.013-0.059-0.014 0.059-0.01 0.015-0.02 6e-3 0.061 0.012 0.084 6e-3 0.072 0.011 0.132 0.015 0.181 0.012 0.098 0.018 0.149 0.018 0.149z"/><line class="st2" x1="218.39" x2="204.26" y1="149.43" y2="207.12"/><path class="st3" d="m173.29 167.58s13.495 13.833 34.279 12.333"/><path class="st2" d="m177.19 83.807s19.942-4.071 23.522-4.516c3.579-0.444 6.76 5.781 8.189 8.845s7.046 13.283 3.86 16.945-8.785 7.147-8.785 7.147"/><path d="m185.42 98.978s0.209 0.077 0.567 0.19c0.355 0.118 0.853 0.275 1.438 0.44 1.175 0.326 2.687 0.658 4.19 0.68 0.377 0.041 0.75-0.012 1.122-0.012 0.373 2e-3 0.732-0.084 1.092-0.104 0.359-0.029 0.695-0.133 1.031-0.178 0.339-0.039 0.642-0.149 0.939-0.213 0.288-0.088 0.581-0.114 0.813-0.207 0.236-0.084 0.456-0.14 0.636-0.192 0.363-0.098 0.586-0.142 0.586-0.142s-0.133 0.183-0.395 0.483c-0.132 0.147-0.292 0.332-0.49 0.526-0.187 0.214-0.442 0.381-0.715 0.582-0.277 0.192-0.568 0.439-0.923 0.59-0.351 0.159-0.716 0.37-1.123 0.484-0.409 0.105-0.828 0.268-1.273 0.303-0.443 0.052-0.896 0.113-1.349 0.08l-0.678-0.038-0.663-0.118c-0.441-0.063-0.853-0.23-1.254-0.357-0.39-0.166-0.766-0.325-1.1-0.525-0.338-0.191-0.641-0.398-0.907-0.61-0.542-0.404-0.931-0.829-1.182-1.141-0.251-0.313-0.362-0.521-0.362-0.521z"/><path d="m196.07 95.974s0.338 0.503 0.745 1.144c0.429 0.642 0.927 1.437 1.429 2.23 0.252 0.398 0.507 0.794 0.742 1.187 0.248 0.38 0.463 0.765 0.656 1.109 0.187 0.349 0.355 0.645 0.461 0.877 0.107 0.23 0.161 0.38 0.161 0.38s-0.143-0.011-0.383-0.061c-0.235-0.056-0.582-0.133-0.94-0.329-0.382-0.165-0.776-0.441-1.174-0.779-0.384-0.352-0.754-0.782-1.064-1.263-0.295-0.491-0.546-1.016-0.692-1.545-0.159-0.523-0.221-1.042-0.218-1.487-0.012-0.894 0.277-1.463 0.277-1.463z"/><path d="m198.32 99.588s-0.854 1.122-1.909 2.844c-0.255 0.438-0.527 0.909-0.792 1.414-0.268 0.504-0.511 1.053-0.752 1.614-0.251 0.56-0.42 1.168-0.605 1.771-0.151 0.613-0.297 1.234-0.352 1.865-0.074 0.628-0.084 1.259-0.039 1.879 0.048 0.618 0.122 1.232 0.277 1.813 0.149 0.58 0.317 1.146 0.53 1.666 0.093 0.267 0.21 0.515 0.327 0.756 0.115 0.241 0.203 0.492 0.331 0.707 0.245 0.435 0.446 0.861 0.67 1.209 0.218 0.352 0.391 0.682 0.564 0.927 0.329 0.508 0.51 0.819 0.51 0.819s-0.286-0.184-0.773-0.54c-0.482-0.361-1.148-0.926-1.839-1.746-0.335-0.416-0.712-0.872-1.015-1.43-0.328-0.539-0.637-1.148-0.863-1.824-0.119-0.336-0.234-0.681-0.312-1.045-0.101-0.358-0.16-0.731-0.203-1.111-0.101-0.758-0.092-1.542-0.013-2.312 0.166-1.545 0.688-2.999 1.351-4.206 0.65-1.22 1.448-2.199 2.18-2.957 1.477-1.519 2.727-2.113 2.727-2.113z"/><line class="st4" x1="203.92" x2="196.34" y1="111.62" y2="117.7"/><path d="m201.19 116.82s0.618 2.779 1.545 6.947c0.495 2.073 1.072 4.491 1.691 7.083 0.333 1.291 0.677 2.625 1.027 3.981 0.354 1.369 0.54 2.844 0.563 4.293 0.064 2.917-0.529 5.808-1.465 8.322-0.948 2.518-2.221 4.665-3.442 6.374-1.237 1.702-2.436 2.958-3.294 3.805-0.869 0.836-1.398 1.27-1.398 1.27s0.497-0.477 1.313-1.365c0.816-0.887 1.935-2.209 3.087-3.943 1.154-1.727 2.342-3.881 3.192-6.366 0.878-2.465 1.43-5.271 1.338-8.078-0.032-1.409-0.24-2.779-0.56-4.127-0.332-1.36-0.659-2.698-0.974-3.993-0.623-2.599-1.113-5.048-1.502-7.152-0.794-4.209-1.121-7.051-1.121-7.051z"/><path d="m203.06 116.46s0.504 1.462 1.134 3.697c0.305 1.12 0.671 2.425 1.013 3.838 0.348 1.411 0.676 2.928 0.989 4.449 0.291 1.526 0.571 3.057 0.768 4.504 0.207 1.446 0.331 2.808 0.402 3.978 0.034 0.586 0.067 1.121 0.044 1.6-0.017 0.478-1e-3 0.892-0.041 1.233-0.081 0.678-0.127 1.065-0.127 1.065s-4e-3 -0.389-9e-3 -1.068c7e-3 -0.337-0.052-0.749-0.083-1.218-0.027-0.469-0.115-0.996-0.175-1.571-0.057-0.576-0.166-1.195-0.266-1.851-0.093-0.656-0.238-1.343-0.351-2.057-0.254-1.425-0.541-2.944-0.844-4.459-0.618-3.032-1.235-6.063-1.698-8.337-0.465-2.276-0.756-3.803-0.756-3.803z"/><path class="st2" d="m216.12 107.68"/><path class="st4" d="m214.82 108.22-4.846 6.402s-1.993 0.557-3.617-1.831"/><path class="st4" d="m228.58 101.73-4.003 8.189s-1.293 1.076-2.917-1.311"/><path class="st4" d="m221.25 105.98-3.994 6.078s-1.993 0.557-3.617-1.831"/><path d="m195.91 69.986c8e-3 3e-3 0.01-0.102 0.103-0.266 0.099-0.177 0.269-0.399 0.521-0.635 0.498-0.487 1.281-1.067 2.267-1.651 0.982-0.595 2.169-1.194 3.471-1.741 0.653-0.268 1.326-0.554 2.027-0.788 0.699-0.239 1.414-0.469 2.131-0.687 0.724-0.195 1.45-0.379 2.17-0.541 0.717-0.178 1.438-0.275 2.131-0.389 1.39-0.208 2.708-0.293 3.839-0.259 0.566 9e-3 1.084 0.056 1.541 0.112 0.458 0.06 0.853 0.132 1.175 0.214 0.323 0.064 0.571 0.163 0.739 0.216 0.168 0.057 0.256 0.087 0.256 0.087s-0.377 0.017-1.017 0.094c-0.64 0.068-1.541 0.208-2.61 0.421-1.068 0.219-2.304 0.509-3.625 0.846-0.659 0.175-1.339 0.356-2.031 0.54-0.693 0.178-1.392 0.383-2.091 0.59-0.704 0.189-1.404 0.391-2.09 0.602-0.689 0.206-1.366 0.409-2.022 0.605-1.31 0.4-2.531 0.784-3.576 1.127-1.04 0.353-1.908 0.655-2.485 0.932-0.287 0.139-0.516 0.259-0.64 0.365-0.137 0.11-0.178 0.214-0.184 0.206z"/><path d="m214.16 63.252s0.2-0.081 0.597-0.165c0.396-0.084 0.996-0.169 1.769-0.086 0.771 0.07 1.718 0.337 2.689 0.939 0.973 0.595 1.907 1.573 2.665 2.798 0.703 1.172 1.364 2.556 2.005 3.973 0.616 1.44 1.23 2.967 1.825 4.563 0.568 1.605 1.149 3.265 1.693 4.968 0.519 1.712 1.046 3.451 1.515 5.215 0.225 0.886 0.447 1.77 0.649 2.671l0.149 0.679 0.07 0.348 0.034 0.174 0.018 0.087 0.02 0.125 5e-3 0.042c0.01 0.127 0.029 0.19 0.032 0.369 3e-3 0.171 3e-3 0.35-6e-3 0.513-0.03 0.271-0.059 0.545-0.114 0.789-0.422 1.97-1.191 3.553-1.937 5.107-0.756 1.54-1.596 2.946-2.402 4.266-0.812 1.316-1.625 2.525-2.411 3.61-1.556 2.183-2.995 3.877-4.042 5.014-1.058 1.128-1.71 1.711-1.71 1.711s0.571-0.676 1.468-1.94c0.904-1.256 2.129-3.101 3.48-5.39 1.333-2.297 2.841-5.022 4.145-8.061 0.638-1.5 1.293-3.138 1.533-4.687 0.034-0.194 0.038-0.367 0.052-0.543-4e-3 -0.061-7e-3 -0.107-3e-3 -0.161 6e-3 -0.047-0.026-0.205-0.036-0.302l-0.141-0.541-0.177-0.631c-0.241-0.846-0.508-1.703-0.778-2.555-0.528-1.711-1.056-3.428-1.608-5.104-0.531-1.684-1.056-3.341-1.591-4.932-0.528-1.592-1.023-3.138-1.55-4.572-0.513-1.451-0.987-2.762-1.542-3.96-0.503-1.145-1.188-2.046-1.916-2.704-0.729-0.664-1.515-1.048-2.191-1.287-0.681-0.227-1.256-0.305-1.649-0.337-0.396-0.027-0.609-3e-3 -0.609-3e-3z"/><path d="m203.38 65.784c7e-3 2e-3 9e-3 -0.095 0.087-0.252 0.087-0.166 0.236-0.39 0.468-0.616 0.453-0.473 1.178-1.032 2.095-1.589 0.913-0.569 2.022-1.131 3.24-1.642 1.216-0.516 2.542-0.985 3.894-1.351 1.351-0.369 2.727-0.643 4.032-0.802 1.303-0.165 2.537-0.209 3.592-0.146 1.055 0.049 1.931 0.209 2.529 0.375 0.301 0.066 0.53 0.167 0.686 0.218 0.155 0.056 0.238 0.085 0.238 0.085s-0.346 0.034-0.951 0.094c-0.598 0.059-1.441 0.192-2.438 0.374-0.497 0.101-1.035 0.211-1.604 0.328-0.566 0.13-1.162 0.267-1.779 0.409-1.231 0.302-2.539 0.647-3.846 1.003-1.307 0.355-2.613 0.721-3.835 1.08-1.221 0.362-2.361 0.709-3.333 1.024-0.968 0.324-1.777 0.605-2.311 0.867-0.268 0.131-0.474 0.247-0.591 0.347-0.129 0.107-0.169 0.201-0.173 0.194z"/><path d="m220.12 59.654s0.195-0.079 0.583-0.161c0.386-0.082 0.971-0.169 1.724-0.095 0.751 0.062 1.677 0.307 2.63 0.876 0.96 0.557 1.885 1.492 2.649 2.668 0.408 0.629 0.684 1.152 1.03 1.838 0.342 0.661 0.649 1.331 0.975 2.025 0.605 1.402 1.212 2.891 1.803 4.442 0.563 1.563 1.127 3.183 1.671 4.838 0.524 1.664 1.027 3.363 1.508 5.074 0.233 0.858 0.446 1.723 0.654 2.591l0.3 1.31 0.135 0.676 0.017 0.084 0.018 0.105 6e-3 0.041 0.021 0.163c0.016 0.086 0.022 0.275 0.027 0.428-2e-3 1.15-0.243 2.007-0.492 2.886-0.26 0.86-0.564 1.67-0.883 2.451-0.636 1.562-1.361 2.993-2.065 4.333-0.706 1.339-1.406 2.58-2.086 3.701-1.343 2.253-2.549 4.061-3.407 5.315-0.878 1.238-1.379 1.946-1.379 1.946s0.399-0.778 1.098-2.139c0.699-1.359 1.684-3.307 2.813-5.663 1.114-2.36 2.403-5.134 3.473-8.173 0.263-0.758 0.507-1.535 0.697-2.316 0.187-0.759 0.324-1.613 0.286-2.212-7e-3 -0.065 4e-3 -0.095-0.022-0.225l-0.026-0.162-7e-3 -0.04-4e-3 -0.02c0.021 0.121 3e-3 0.023 7e-3 0.045l-0.02-0.075-0.156-0.602-0.358-1.237c-0.258-0.829-0.517-1.662-0.774-2.495-0.502-1.675-1.041-3.34-1.574-4.977-0.507-1.647-1.033-3.257-1.559-4.806-0.493-1.563-1.01-3.053-1.512-4.456-0.25-0.698-0.49-1.389-0.742-2.012-0.224-0.609-0.547-1.317-0.784-1.821-0.511-1.103-1.197-1.964-1.914-2.598-0.722-0.634-1.492-1.003-2.154-1.229-0.666-0.216-1.228-0.291-1.611-0.32-0.388-0.025-0.596-2e-3 -0.596-2e-3z"/><path d="m203.31 110.95s-0.62 0.154-1.51 0.335c-0.446 0.092-0.959 0.204-1.498 0.327-0.273 0.05-0.54 0.153-0.822 0.207-0.271 0.085-0.554 0.157-0.817 0.263-0.262 0.102-0.542 0.18-0.774 0.319-0.119 0.066-0.246 0.119-0.364 0.179-0.109 0.073-0.216 0.144-0.322 0.215-0.233 0.126-0.368 0.323-0.559 0.47-0.15 0.176-0.263 0.368-0.403 0.538-0.075 0.198-0.158 0.385-0.237 0.557-0.075 0.173-0.08 0.343-0.119 0.48-0.061 0.277-0.107 0.45-0.107 0.45s-0.048-0.155-0.114-0.451c-0.021-0.147-0.096-0.333-0.081-0.548 0.011-0.214 0.025-0.467 0.064-0.743 0.093-0.251 0.18-0.556 0.338-0.829 0.185-0.24 0.351-0.569 0.618-0.759 0.247-0.227 0.508-0.452 0.81-0.596 0.289-0.184 0.599-0.291 0.906-0.421 0.624-0.205 1.255-0.337 1.849-0.374 0.593-0.044 1.144-0.031 1.612 0.031 0.931 0.102 1.53 0.35 1.53 0.35z"/><path d="m214.66 107.7s-0.52 0.258-1.3 0.646c-0.386 0.186-0.829 0.407-1.295 0.646-0.464 0.244-0.949 0.509-1.402 0.813-0.215 0.161-0.462 0.291-0.646 0.476-0.097 0.088-0.196 0.171-0.3 0.25l-0.253 0.274c-0.184 0.173-0.286 0.379-0.42 0.564-0.119 0.191-0.165 0.4-0.259 0.587-0.042 0.196-0.061 0.387-0.097 0.562-0.038 0.176 7e-3 0.329 0 0.462 7e-3 0.273 0.01 0.429 0.01 0.429s-0.073-0.129-0.19-0.381c-0.046-0.129-0.157-0.277-0.176-0.476-0.027-0.196-0.075-0.428-0.076-0.683 0.042-0.245 0.047-0.545 0.157-0.815 0.115-0.264 0.217-0.577 0.417-0.809 0.175-0.263 0.375-0.506 0.613-0.709 0.221-0.232 0.484-0.388 0.73-0.582 0.52-0.323 1.058-0.596 1.582-0.775 0.521-0.187 1.018-0.314 1.451-0.381 0.864-0.152 1.454-0.098 1.454-0.098z"/><line class="st2" x1="173.82" x2="153.19" y1="159.36" y2="194.77"/><path d="m213.8 109.57s0.409-0.769 1.135-1.789c0.72-1.028 1.746-2.32 2.84-3.534 1.09-1.22 2.246-2.363 3.133-3.203 0.447-0.421 0.819-0.773 1.08-1.018 0.249-0.255 0.41-0.404 0.41-0.404s-0.055 0.207-0.182 0.576c-0.143 0.352-0.368 0.851-0.693 1.401-0.639 1.112-1.633 2.465-2.742 3.689-1.102 1.233-2.315 2.342-3.285 3.104-0.964 0.77-1.696 1.178-1.696 1.178z"/><linearGradient id="c" x1="284.55" x2="293.09" y1="191.78" y2="179.11" gradientTransform="matrix(.9084 -.4181 .4181 .9084 -57.995 151.32)" gradientUnits="userSpaceOnUse"><stop stop-color="#fff" offset="0"/><stop stop-color="#EDEDED" offset="1"/></linearGradient><polygon points="305.31 207.7 303.7 185.17 304.47 169.11 300.91 171 287.39 172.41 276.06 171.05 264.83 167.79 255.71 207.49" fill="url(#c)"/><path d="m263.19 14.906c1.138-0.634 2.386-1.067 3.684-1.271 1.296-0.212 2.661-0.147 3.972 0.273 1.313 0.415 2.523 1.263 3.466 2.351 0.954 1.084 1.653 2.384 2.152 3.731 1.017 2.702 1.382 5.561 1.497 8.368 0.134 2.816-0.039 5.612-0.315 8.379l-0.155-0.773c0.262 0.485 0.453 0.896 0.654 1.347 0.195 0.443 0.376 0.889 0.548 1.338 0.342 0.899 0.641 1.813 0.891 2.743 0.504 1.857 0.854 3.759 1.04 5.682 0.19 1.921 0.216 3.864 0.056 5.788-0.167 1.924-0.491 3.828-0.971 5.683l-6e-3 -0.576c0.52 2.113 0.886 4.211 1.237 6.332 0.168 1.059 0.334 2.119 0.455 3.187 0.132 1.065 0.232 2.136 0.33 3.205 0.075 1.073 0.173 2.141 0.189 3.218 0.011 0.538 0.046 1.073 0.037 1.612l-5e-3 1.612c-8e-3 0.537-0.05 1.075-0.074 1.61-0.019 0.536-0.069 1.071-0.127 1.604-0.06 0.533-0.093 1.067-0.196 1.593l-0.268 1.577 0.056-1.598c0.034-0.529-0.013-1.064-7e-3 -1.593 0.01-1.059-0.091-2.118-0.149-3.171l-0.141-1.579c-0.04-0.526-0.122-1.049-0.181-1.573-0.121-1.047-0.285-2.091-0.435-3.133-0.33-2.082-0.742-4.148-1.172-6.207-0.219-1.028-0.454-2.053-0.706-3.072-0.252-1.015-0.513-2.043-0.783-3.028l-0.074-0.273 0.069-0.303c0.397-1.743 0.647-3.519 0.751-5.303 0.081-1.784 0.061-3.575-0.135-5.35-0.188-1.774-0.529-3.531-1.011-5.238-0.244-0.852-0.512-1.697-0.815-2.523-0.154-0.412-0.315-0.82-0.486-1.22-0.167-0.39-0.363-0.812-0.532-1.132l-0.199-0.377 0.044-0.396c0.149-1.34 0.271-2.681 0.351-4.022 0.078-1.341 0.14-2.679 0.128-4.013-0.032-2.659-0.25-5.329-0.993-7.789-0.381-1.222-0.9-2.383-1.618-3.375-0.714-0.999-1.665-1.771-2.753-2.286-1.094-0.511-2.327-0.706-3.57-0.702-1.245 0.027-2.512 0.225-3.73 0.643z"/><path class="st6" d="m267.78 168.42s10.202 7.482 33.766 2.441"/><path d="m265.34 15.551s0.235 1e-3 0.638 0.081c0.399 0.087 0.984 0.205 1.64 0.538 0.331 0.161 0.675 0.383 1.009 0.692 0.335 0.303 0.642 0.744 0.795 1.297 0.079 0.269 0.093 0.588 0.074 0.851-0.014 0.235-0.041 0.503-0.068 0.745-0.059 0.497-0.137 0.998-0.248 1.49-0.411 1.967-1.211 3.894-2.269 4.996-0.518 0.556-1.098 0.838-1.503 0.932-0.204 0.051-0.369 0.055-0.477 0.051-0.109-3e-3 -0.167-5e-3 -0.167-5e-3s0.236-0.04 0.59-0.219c0.358-0.168 0.795-0.546 1.176-1.118 0.785-1.133 1.366-2.98 1.753-4.852 0.088-0.471 0.176-0.942 0.242-1.407 0.032-0.239 0.059-0.45 0.077-0.69 0.013-0.211 0.021-0.369-0.014-0.548-0.132-0.701-0.73-1.275-1.258-1.673-0.543-0.399-1.05-0.694-1.413-0.875-0.367-0.183-0.577-0.286-0.577-0.286z"/><path class="st2" d="m264.28 76.434c0.195-1.734 1.157-29.274 1.157-29.274l-1.428-20.038"/><path class="st2" d="m272.27 90.717s18.767-10.187 23.663-12.759c4.896-2.571 13.916 7.849 17.584 12.094s4.421 9.09 3.359 11.662"/><path class="st2" d="m275.7 100.05s25.006-6.687 28.238-6.534 13.588 10.516 15.863 14.359c2.276 3.842-1.69 10.345-1.69 10.345"/><line class="st2" x1="318.3" x2="315.15" y1="117.67" y2="127.3"/><path class="st2" d="m314.08 73.53s3.45-9.256 13.75-5.33"/><line class="st2" x1="328.14" x2="325.49" y1="68.594" y2="80.22"/><path class="st2" d="m325.35 76.323s2.612 10.342 1.366 13.735c-1.246 3.394-5.692 14.505-5.692 14.505"/><path class="st2" d="m314.39 129.86s-1.537 13.132-10.371 25.187l1.563 48.768"/><line class="st2" x1="264.96" x2="263.88" y1="26.398" y2="15.527"/><path d="m295.48 112.14c0.487 0.186 0.989 0.294 1.482 0.406 0.5 0.086 0.994 0.167 1.492 0.202 0.249 0.013 0.494 0.041 0.744 0.032 0.248-5e-3 0.492 0.021 0.738-1e-3 0.491-0.014 0.978-0.071 1.459-0.146 0.242-0.02 0.479-0.09 0.718-0.132 0.238-0.046 0.476-0.093 0.707-0.172l0.698-0.207 0.683-0.258c0.462-0.146 0.892-0.396 1.334-0.595 0.222-0.097 0.426-0.244 0.64-0.363l0.639-0.364 1.347-0.766-0.013 1.648c-1e-3 0.112 3e-3 0.284 0.011 0.431l0.037 0.459c0.033 0.305 0.079 0.608 0.142 0.901 0.135 0.581 0.295 1.145 0.554 1.599 0.255 0.459 0.581 0.799 0.981 1.01 0.392 0.231 0.896 0.308 1.432 0.29l2.045-0.07-1.386 1.523c-0.14 0.153-0.318 0.396-0.464 0.611-0.154 0.222-0.297 0.455-0.423 0.696-0.259 0.48-0.454 0.992-0.573 1.516-0.239 1.048-0.151 2.16 0.324 3.166 0.468 1.002 1.222 1.908 2.099 2.661 0.438 0.38 0.898 0.742 1.38 1.073 0.48 0.336 0.976 0.651 1.482 0.957-0.548-0.198-1.102-0.393-1.637-0.643s-1.063-0.529-1.574-0.852c-1.005-0.658-1.981-1.489-2.657-2.644-0.339-0.571-0.598-1.22-0.732-1.908-0.14-0.688-0.131-1.407-0.028-2.095 0.105-0.69 0.308-1.353 0.584-1.97 0.135-0.311 0.289-0.61 0.459-0.9 0.179-0.296 0.345-0.551 0.594-0.856l0.659 1.453c-0.726 0.093-1.538 0.069-2.308-0.282-0.775-0.335-1.398-1.001-1.81-1.702-0.419-0.709-0.667-1.465-0.805-2.217-0.071-0.376-0.119-0.752-0.149-1.128-0.016-0.188-0.025-0.376-0.031-0.565-6e-3 -0.195-7e-3 -0.366 1e-3 -0.596l1.334 0.882-0.729 0.38c-0.248 0.116-0.482 0.258-0.741 0.351-0.513 0.19-1.006 0.425-1.537 0.555-0.262 0.074-0.521 0.156-0.785 0.218l-0.802 0.136c-0.265 0.053-0.535 0.075-0.804 0.093-0.27 0.015-0.536 0.056-0.806 0.047-0.539 0-1.074-0.035-1.604-0.109-0.53-0.071-1.054-0.182-1.563-0.341-1.018-0.3-1.999-0.759-2.838-1.414z"/><path d="m299.68 112.08s0.175 0.034 0.456 0.165c0.28 0.129 0.669 0.352 1.066 0.724 0.204 0.181 0.413 0.396 0.606 0.654 0.202 0.249 0.374 0.553 0.544 0.872 0.145 0.334 0.309 0.68 0.386 1.069 0.116 0.378 0.145 0.782 0.172 1.186 0.024 0.403-0.041 0.804-0.082 1.195-0.087 0.379-0.195 0.747-0.314 1.089-0.152 0.326-0.311 0.631-0.465 0.912-0.17 0.269-0.372 0.492-0.543 0.701-0.325 0.434-0.722 0.668-0.96 0.856-0.253 0.176-0.408 0.258-0.408 0.258s0.035-0.193 0.113-0.499c0.066-0.312 0.232-0.704 0.333-1.195 0.06-0.233 0.126-0.486 0.195-0.753 0.045-0.267 0.097-0.54 0.163-0.811 0.031-0.279 0.056-0.56 0.102-0.838-0.017-0.282 0.039-0.563 8e-3 -0.843-9e-3 -0.561-0.104-1.116-0.223-1.656-0.078-0.262-0.134-0.534-0.224-0.781-0.082-0.252-0.16-0.499-0.25-0.724-0.176-0.45-0.342-0.846-0.469-1.125-0.123-0.287-0.206-0.456-0.206-0.456z"/><path d="m301.06 118.81s0.117 0.061 0.283 0.274c0.164 0.202 0.394 0.509 0.65 0.926 0.508 0.834 1.204 2.055 1.875 3.611 0.67 1.554 1.356 3.426 1.874 5.505 0.53 2.075 0.91 4.35 1.043 6.653 0.062 1.151 0.064 2.307 6e-3 3.441-0.043 1.136-0.197 2.246-0.362 3.312-0.091 0.532-0.201 1.051-0.308 1.558-0.132 0.5-0.262 0.99-0.388 1.466-0.284 0.942-0.587 1.819-0.927 2.6-0.301 0.798-0.69 1.474-0.991 2.088-0.347 0.59-0.633 1.112-0.895 1.522-0.544 0.809-0.867 1.255-0.867 1.255s0.235-0.513 0.664-1.384c0.209-0.439 0.428-0.992 0.695-1.61 0.22-0.644 0.516-1.345 0.748-2.145 0.26-0.789 0.478-1.664 0.704-2.586 0.204-0.93 0.372-1.918 0.515-2.946 0.128-1.03 0.207-2.1 0.247-3.189 0.043-1.089 0.025-2.198-0.046-3.304-0.229-4.436-1.3-8.791-2.35-11.955-0.532-1.58-1.025-2.888-1.438-3.768-0.208-0.438-0.368-0.787-0.499-1.01-0.121-0.223-0.233-0.314-0.233-0.314z"/><polyline class="st0" points="277.48 70.146 283.58 66.019 285.05 81.191 282.12 83.255 276.47 83.619"/><path class="st2" d="m256.88 202.49s8.645-36.771 8.59-43.099-10.428-62.227-9.868-67.114c0.561-4.886 16.689-16.077 22.509-20.125s15.002-9.854 18.734-7.524 17.379 11.436 18.569 15.247c1.189 3.811 1.385 12.002 1.385 12.002"/><linearGradient id="b" x1="370.79" x2="379.32" y1="231.47" y2="218.8" gradientTransform="matrix(.9084 -.4181 .4181 .9084 -57.995 151.32)" gradientUnits="userSpaceOnUse"><stop stop-color="#fff" offset="0"/><stop stop-color="#EDEDED" offset="1"/></linearGradient><polygon points="400.24 207.7 398.63 185.17 399.4 169.11 395.83 171 382.31 172.41 370.99 171.05 359.76 167.79 350.64 207.49" fill="url(#b)"/><path d="m358.11 14.906c1.138-0.634 2.386-1.067 3.684-1.271 1.296-0.212 2.661-0.147 3.972 0.273 1.313 0.415 2.523 1.263 3.466 2.351 0.954 1.084 1.653 2.384 2.152 3.731 1.017 2.702 1.382 5.561 1.497 8.368 0.134 2.816-0.039 5.612-0.315 8.379l-0.155-0.773c0.262 0.485 0.453 0.896 0.654 1.347 0.195 0.443 0.376 0.889 0.548 1.338 0.342 0.899 0.641 1.813 0.891 2.743 0.504 1.857 0.854 3.759 1.04 5.682 0.19 1.921 0.216 3.864 0.056 5.788-0.167 1.924-0.491 3.828-0.971 5.683l-6e-3 -0.576c0.52 2.113 0.886 4.211 1.237 6.332 0.168 1.059 0.334 2.119 0.455 3.187 0.132 1.065 0.232 2.136 0.33 3.205 0.075 1.073 0.173 2.141 0.189 3.218 0.011 0.538 0.046 1.073 0.037 1.612l-5e-3 1.612c-8e-3 0.537-0.05 1.075-0.074 1.61-0.019 0.536-0.069 1.071-0.127 1.604-0.06 0.533-0.093 1.067-0.196 1.593l-0.268 1.577 0.056-1.598c0.034-0.529-0.013-1.064-7e-3 -1.593 0.01-1.059-0.091-2.118-0.149-3.171l-0.141-1.579c-0.04-0.526-0.122-1.049-0.181-1.573-0.121-1.047-0.285-2.091-0.435-3.133-0.33-2.082-0.742-4.148-1.172-6.207-0.219-1.028-0.454-2.053-0.706-3.072-0.252-1.015-0.513-2.043-0.783-3.028l-0.074-0.273 0.069-0.303c0.397-1.743 0.647-3.519 0.751-5.303 0.081-1.784 0.061-3.575-0.135-5.35-0.188-1.774-0.529-3.531-1.011-5.238-0.244-0.852-0.512-1.697-0.815-2.523-0.154-0.412-0.315-0.82-0.486-1.22-0.167-0.39-0.363-0.812-0.532-1.132l-0.199-0.377 0.044-0.396c0.149-1.34 0.271-2.681 0.351-4.022 0.078-1.341 0.14-2.679 0.128-4.013-0.032-2.659-0.25-5.329-0.993-7.789-0.381-1.222-0.9-2.383-1.618-3.375-0.714-0.999-1.665-1.771-2.753-2.286-1.094-0.511-2.327-0.706-3.57-0.702-1.244 0.027-2.512 0.225-3.73 0.643z"/><path class="st6" d="m362.71 168.42s10.202 7.482 33.766 2.441"/><path d="m360.27 15.551s0.235 1e-3 0.638 0.081c0.399 0.087 0.984 0.205 1.64 0.538 0.331 0.161 0.675 0.383 1.009 0.692 0.335 0.303 0.642 0.744 0.795 1.297 0.079 0.269 0.093 0.588 0.074 0.851-0.014 0.235-0.041 0.503-0.068 0.745-0.059 0.497-0.137 0.998-0.248 1.49-0.411 1.967-1.211 3.894-2.269 4.996-0.518 0.556-1.098 0.838-1.503 0.932-0.204 0.051-0.369 0.055-0.477 0.051-0.109-3e-3 -0.167-5e-3 -0.167-5e-3s0.236-0.04 0.59-0.219c0.358-0.168 0.795-0.546 1.176-1.118 0.785-1.133 1.366-2.98 1.753-4.852 0.088-0.471 0.176-0.942 0.242-1.407 0.032-0.239 0.059-0.45 0.077-0.69 0.013-0.211 0.021-0.369-0.014-0.548-0.132-0.701-0.73-1.275-1.258-1.673-0.543-0.399-1.05-0.694-1.413-0.875-0.366-0.183-0.577-0.286-0.577-0.286z"/><path class="st2" d="m359.2 76.434c0.195-1.734 1.157-29.274 1.157-29.274l-1.428-20.038"/><path class="st2" d="m367.2 90.717s18.767-10.187 23.663-12.759c4.896-2.571 13.916 7.849 17.584 12.094s4.421 9.09 3.359 11.662"/><path class="st2" d="m370.63 100.05s25.006-6.687 28.238-6.534 13.588 10.516 15.863 14.359c2.276 3.842-1.69 10.345-1.69 10.345"/><line class="st2" x1="413.22" x2="410.08" y1="117.67" y2="127.3"/><path class="st2" d="m409 73.53s3.45-9.256 13.75-5.33"/><line class="st2" x1="423.07" x2="420.42" y1="68.594" y2="80.22"/><path class="st2" d="m420.28 76.323s2.612 10.342 1.366 13.735c-1.246 3.394-5.692 14.505-5.692 14.505"/><path class="st2" d="m409.32 129.86s-1.537 13.132-10.371 25.187l1.563 48.768"/><line class="st2" x1="359.88" x2="358.81" y1="26.398" y2="15.527"/><path d="m390.41 112.14c0.487 0.186 0.989 0.294 1.482 0.406 0.5 0.086 0.994 0.167 1.492 0.202 0.249 0.013 0.494 0.041 0.744 0.032 0.248-5e-3 0.492 0.021 0.738-1e-3 0.491-0.014 0.978-0.071 1.459-0.146 0.242-0.02 0.479-0.09 0.718-0.132 0.238-0.046 0.476-0.093 0.707-0.172l0.698-0.207 0.683-0.258c0.462-0.146 0.892-0.396 1.334-0.595 0.222-0.097 0.426-0.244 0.64-0.363l0.639-0.364 1.347-0.766-0.013 1.648c-1e-3 0.112 3e-3 0.284 0.011 0.431l0.037 0.459c0.033 0.305 0.079 0.608 0.142 0.901 0.135 0.581 0.295 1.145 0.554 1.599 0.255 0.459 0.581 0.799 0.981 1.01 0.392 0.231 0.896 0.308 1.432 0.29l2.045-0.07-1.386 1.523c-0.14 0.153-0.318 0.396-0.464 0.611-0.154 0.222-0.297 0.455-0.423 0.696-0.259 0.48-0.454 0.992-0.573 1.516-0.239 1.048-0.151 2.16 0.324 3.166 0.468 1.002 1.222 1.908 2.099 2.661 0.438 0.38 0.898 0.742 1.38 1.073 0.48 0.336 0.976 0.651 1.482 0.957-0.548-0.198-1.102-0.393-1.637-0.643s-1.063-0.529-1.574-0.852c-1.005-0.658-1.981-1.489-2.657-2.644-0.339-0.571-0.598-1.22-0.732-1.908-0.14-0.688-0.131-1.407-0.028-2.095 0.105-0.69 0.308-1.353 0.584-1.97 0.135-0.311 0.289-0.61 0.459-0.9 0.179-0.296 0.345-0.551 0.594-0.856l0.659 1.453c-0.726 0.093-1.538 0.069-2.308-0.282-0.775-0.335-1.398-1.001-1.81-1.702-0.419-0.709-0.667-1.465-0.805-2.217-0.071-0.376-0.119-0.752-0.149-1.128-0.016-0.188-0.025-0.376-0.031-0.565-6e-3 -0.195-7e-3 -0.366 1e-3 -0.596l1.334 0.882-0.729 0.38c-0.248 0.116-0.482 0.258-0.741 0.351-0.513 0.19-1.006 0.425-1.537 0.555-0.262 0.074-0.521 0.156-0.785 0.218l-0.802 0.136c-0.265 0.053-0.535 0.075-0.804 0.093-0.27 0.015-0.536 0.056-0.806 0.047-0.539 0-1.074-0.035-1.604-0.109-0.53-0.071-1.054-0.182-1.563-0.341-1.018-0.3-1.999-0.759-2.838-1.414z"/><path d="m394.61 112.08s0.175 0.034 0.456 0.165c0.28 0.129 0.669 0.352 1.066 0.724 0.204 0.181 0.413 0.396 0.606 0.654 0.202 0.249 0.374 0.553 0.544 0.872 0.145 0.334 0.309 0.68 0.386 1.069 0.116 0.378 0.145 0.782 0.172 1.186 0.024 0.403-0.041 0.804-0.082 1.195-0.087 0.379-0.195 0.747-0.314 1.089-0.152 0.326-0.311 0.631-0.465 0.912-0.17 0.269-0.372 0.492-0.543 0.701-0.325 0.434-0.722 0.668-0.96 0.856-0.253 0.176-0.408 0.258-0.408 0.258s0.035-0.193 0.113-0.499c0.066-0.312 0.232-0.704 0.333-1.195 0.06-0.233 0.126-0.486 0.195-0.753 0.045-0.267 0.097-0.54 0.163-0.811 0.031-0.279 0.056-0.56 0.102-0.838-0.017-0.282 0.039-0.563 8e-3 -0.843-9e-3 -0.561-0.104-1.116-0.223-1.656-0.078-0.262-0.134-0.534-0.224-0.781-0.082-0.252-0.16-0.499-0.25-0.724-0.176-0.45-0.342-0.846-0.469-1.125-0.123-0.287-0.206-0.456-0.206-0.456z"/><path d="m395.98 118.81s0.117 0.061 0.283 0.274c0.164 0.202 0.394 0.509 0.65 0.926 0.508 0.834 1.204 2.055 1.875 3.611 0.67 1.554 1.356 3.426 1.874 5.505 0.53 2.075 0.91 4.35 1.043 6.653 0.062 1.151 0.064 2.307 6e-3 3.441-0.043 1.136-0.197 2.246-0.362 3.312-0.091 0.532-0.201 1.051-0.308 1.558-0.132 0.5-0.262 0.99-0.388 1.466-0.284 0.942-0.587 1.819-0.927 2.6-0.301 0.798-0.69 1.474-0.991 2.088-0.347 0.59-0.633 1.112-0.895 1.522-0.544 0.809-0.867 1.255-0.867 1.255s0.235-0.513 0.664-1.384c0.209-0.439 0.428-0.992 0.695-1.61 0.22-0.644 0.516-1.345 0.748-2.145 0.26-0.789 0.478-1.664 0.704-2.586 0.204-0.93 0.372-1.918 0.515-2.946 0.128-1.03 0.207-2.1 0.247-3.189 0.043-1.089 0.025-2.198-0.046-3.304-0.229-4.436-1.3-8.791-2.35-11.955-0.532-1.58-1.025-2.888-1.438-3.768-0.208-0.438-0.368-0.787-0.499-1.01-0.121-0.223-0.233-0.314-0.233-0.314z"/><polyline class="st0" points="372.41 70.146 378.51 66.019 379.98 81.191 377.04 83.255 371.39 83.619"/><path class="st2" d="m351.8 202.49s8.645-36.771 8.59-43.099-10.428-62.227-9.868-67.114c0.561-4.886 16.689-16.077 22.509-20.125s15.002-9.854 18.734-7.524 17.379 11.436 18.569 15.247c1.189 3.811 1.385 12.002 1.385 12.002"/><linearGradient id="d" x1="8.3367" x2="24.724" y1="143.52" y2="136.77" gradientTransform="translate(0 -.6617)" gradientUnits="userSpaceOnUse"><stop stop-color="#fff" offset="0"/><stop stop-color="#EDEDED" offset="1"/></linearGradient><polyline points="43.68 143.45 36.933 125.7 33.21 112.2 9.478 119.7 1.139 122.49 11.339 164.95 43.447 143.45" fill="url(#d)"/><g class="st9"><linearGradient id="e" x1="8.4281" x2="24.816" y1="143.11" y2="136.37" gradientTransform="translate(0 -.6617)" gradientUnits="userSpaceOnUse"><stop stop-color="#fff" offset="0"/><stop stop-color="#EDEDED" offset="1"/></linearGradient><polyline points="43.68 142.83 36.933 125.08 33.21 111.58 9.478 119.08 4.623 120.95 11.339 164.33 43.867 145.69" fill="url(#e)"/></g><path class="st2" d="m8.793 120.01s33.434-13.271 43.189-17.545"/><path class="st2" d="m23.578 156.13s24.479-13.884 38.308-17.422"/><path class="st2" d="m48.057 106.55s7.632-15.55 27.122-13.775"/><path class="st2" d="m72.178 94.054s10.077-5.185 16.105-6.004 12.374 1.734 17.089 3.504 8.51 0.993 8.036 5.528c-0.474 4.536-3.104 12.124-11.294 10.847s-11.051 0.2-11.051 0.2"/><path class="st2" d="m55.825 130.27s19.258 13.929 28.354 24.855"/><path class="st2" d="m94.825 108.05c-2.16 0.12-9.417 5.775-9.417 5.775"/><path class="st2" d="m96.056 108.48s-4.295 7.194-3.54 15.714"/><path class="st2" d="m95.266 116.36s5.267 2.233 7.066 6.295"/><path class="st2" d="m100.72 121.72s13.262 5.083 17.799 20.708"/><path class="st6" d="m34.358 113.6s4.329 18.391 9.061 28.052"/><path class="st2" d="m117.44 141.85s6.648 4.317 7.346 9.567"/><path d="m111.25 144.8s0.252-0.095 0.724-0.106c0.466-9e-3 1.164 0.077 1.927 0.455 0.19 0.094 0.378 0.21 0.582 0.325 0.188 0.133 0.379 0.281 0.571 0.439 0.371 0.329 0.744 0.709 1.062 1.157 0.315 0.449 0.616 0.928 0.86 1.449 0.121 0.26 0.225 0.527 0.33 0.797l0.078 0.203 0.044 0.123 0.031 0.096 0.122 0.384c0.154 0.491 0.306 1.101 0.405 1.648 0.112 0.553 0.154 1.114 0.189 1.654 0.058 1.085-0.062 2.116-0.289 2.948-0.212 0.839-0.532 1.47-0.755 1.891-0.23 0.419-0.357 0.663-0.357 0.663s-0.024-0.286 2e-3 -0.774c0.023-0.487 0.068-1.16 0.051-1.933-0.024-0.777-0.109-1.654-0.279-2.585-0.079-0.467-0.207-0.94-0.321-1.425-0.132-0.489-0.237-0.928-0.413-1.46l-0.114-0.387-0.029-0.097-7e-3 -0.024c0.012 0.039 0 1e-3 0 1e-3l-0.016-0.043-0.063-0.173c-0.088-0.227-0.153-0.467-0.243-0.689-0.098-0.217-0.185-0.437-0.27-0.658-0.102-0.208-0.204-0.413-0.303-0.614-0.224-0.384-0.439-0.757-0.681-1.087-0.25-0.316-0.498-0.614-0.755-0.864-0.518-0.491-1.039-0.831-1.432-1.033-0.395-0.205-0.651-0.281-0.651-0.281z"/><path d="m116.01 156.89s0.02-0.054 0.059-0.154c0.047-0.088 0.124-0.265 0.238-0.426 0.217-0.352 0.577-0.809 1.078-1.289 0.501-0.475 1.146-0.97 1.915-1.359 0.381-0.201 0.799-0.362 1.226-0.51 0.437-0.116 0.879-0.257 1.34-0.297l0.687-0.072c0.23-5e-3 0.46 0.011 0.686 0.018 0.455-7e-3 0.895 0.097 1.317 0.188 0.425 0.068 0.811 0.253 1.176 0.395 0.37 0.132 0.688 0.337 0.975 0.528 0.288 0.188 0.555 0.345 0.758 0.543 0.21 0.186 0.381 0.365 0.521 0.508 0.278 0.29 0.421 0.468 0.421 0.468s-0.228-0.036-0.598-0.119c-0.184-0.044-0.407-0.091-0.649-0.165s-0.538-0.087-0.831-0.16c-0.298-0.061-0.615-0.127-0.957-0.147-0.339-0.029-0.681-0.107-1.046-0.094-0.361-9e-3 -0.728-0.041-1.103-5e-3l-0.563 0.021-0.565 0.077c-0.381 0.017-0.749 0.137-1.124 0.189-0.366 0.097-0.734 0.177-1.086 0.286-0.708 0.205-1.363 0.463-1.944 0.68-0.564 0.245-1.06 0.447-1.397 0.616-0.17 0.081-0.304 0.145-0.396 0.188-0.088 0.061-0.138 0.092-0.138 0.092z"/><path d="m149.03 149.36s-0.328-0.338-0.927-0.866c-0.287-0.271-0.67-0.56-1.095-0.889-0.439-0.311-0.947-0.627-1.519-0.905-0.572-0.275-1.215-0.495-1.902-0.634-0.339-0.091-0.706-0.09-1.067-0.144-0.371 0.02-0.741-0.026-1.125 0.016-0.383 0.034-0.77 0.055-1.161 0.149l-0.589 0.115-0.592 0.167c-0.399 0.089-0.794 0.236-1.189 0.381-0.399 0.128-0.788 0.311-1.179 0.487-0.392 0.168-0.783 0.35-1.166 0.55l-0.578 0.288c-0.136 0.059-0.369 0.21-0.549 0.31-0.795 0.452-1.467 0.881-2.124 1.334-0.651 0.484-1.259 0.977-1.808 1.484-0.53 0.524-1.016 1.044-1.416 1.57-0.203 0.262-0.39 0.52-0.544 0.782-0.177 0.25-0.315 0.505-0.447 0.747-0.258 0.486-0.449 0.935-0.585 1.317-0.268 0.767-0.324 1.254-0.324 1.254s-0.113-0.477-0.048-1.343c0.036-0.43 0.112-0.956 0.284-1.536 0.162-0.583 0.403-1.231 0.758-1.881 0.334-0.667 0.787-1.328 1.316-1.981 0.262-0.328 0.562-0.631 0.854-0.961 0.309-0.308 0.647-0.59 0.981-0.894 0.7-0.576 1.47-1.156 2.219-1.585 0.206-0.122 0.342-0.225 0.606-0.363l0.614-0.326c0.409-0.221 0.821-0.443 1.26-0.609 0.432-0.181 0.86-0.368 1.311-0.503 0.444-0.149 0.885-0.299 1.345-0.392 0.45-0.123 0.907-0.19 1.367-0.231 0.452-0.07 0.912-0.064 1.36-0.067 0.448-0.016 0.893 0.071 1.321 0.118 0.424 0.113 0.846 0.174 1.235 0.329 0.793 0.253 1.484 0.657 2.073 1.074 0.595 0.413 1.064 0.889 1.458 1.316 0.384 0.439 0.687 0.846 0.915 1.2 0.244 0.339 0.381 0.635 0.493 0.826 0.106 0.192 0.164 0.296 0.164 0.296z"/><path class="st2" d="m143.18 156.93"/><line class="st2" x1="142.72" x2="147.99" y1="155.91" y2="149.7"/><path class="st2" d="m143.8 154.63-2.713 7.545s-0.581 2.371-3.723 4.625-15.356 5.375-17.217 5.375-5.537 1.859-7.943-0.518c-1.964-1.939-17.925-16.24-17.925-16.24"/><path d="m141.6 143.34s0.32-0.642 1.052-1.295c0.36-0.333 0.815-0.677 1.348-0.958 0.528-0.291 1.134-0.516 1.762-0.666 0.32-0.049 0.633-0.131 0.956-0.134 0.32-0.017 0.633-0.031 0.941 0.014 0.305 0.033 0.597 0.07 0.871 0.16 0.273 0.083 0.526 0.153 0.749 0.279 0.453 0.205 0.79 0.454 1.004 0.667 0.218 0.2 0.326 0.328 0.326 0.328s-0.172 0.026-0.446 0.048c-0.136 9e-3 -0.298 0.021-0.475 0.024-0.183 0.026-0.385 0.055-0.595 0.064-0.208 4e-3 -0.44 0.07-0.673 0.091-0.232 0.016-0.477 0.075-0.727 0.112-0.248 0.026-0.505 0.101-0.765 0.14-0.26 0.04-0.524 0.117-0.788 0.165-1.059 0.228-2.14 0.525-3.017 0.691-0.862 0.192-1.523 0.27-1.523 0.27z"/><line class="st2" x1="150.51" x2="149.52" y1="142.68" y2="151.14"/><path class="st2" d="m149.93 151.68-2.327 15s-0.465 2-2.792 3.625-16.636 10.625-18.497 11.375-5.351 2.001-6.631 0.375c-1.28-1.625-29.665-23.125-29.665-23.125s-5.734 0.613-8.917-6.693"/><path d="m150.87 145.75c0.645-0.01 1.281 0.124 1.909 0.36 0.615 0.253 1.258 0.618 1.716 1.371l0.123 0.202-0.108 0.368c-0.377 1.281-0.875 2.503-1.461 3.68-0.29 0.59-0.624 1.159-0.975 1.719-0.359 0.557-0.745 1.1-1.212 1.603 0.05-0.708 0.181-1.377 0.339-2.033 0.166-0.652 0.349-1.295 0.575-1.917 0.448-1.246 0.984-2.449 1.641-3.592l0.014 0.569c-0.151-0.421-0.55-0.875-1.014-1.251-0.463-0.395-0.996-0.728-1.547-1.079z"/><path d="m85.07 149.63s0.122 0.174 0.335 0.456c0.21 0.284 0.507 0.676 0.86 1.123 0.353 0.448 0.778 0.936 1.227 1.439 0.468 0.484 0.948 1.001 1.491 1.437 0.248 0.25 0.544 0.429 0.805 0.653 0.266 0.218 0.56 0.38 0.825 0.582 0.269 0.194 0.557 0.332 0.815 0.505 0.257 0.181 0.526 0.295 0.766 0.436 0.247 0.119 0.464 0.284 0.675 0.369 0.208 0.092 0.39 0.194 0.543 0.273 0.304 0.165 0.483 0.279 0.483 0.279s-0.191 0.054-0.534 0.115c-0.171 0.027-0.382 0.065-0.625 0.084-0.246 0.04-0.515 0.01-0.814-0.01-0.298-0.028-0.634-0.026-0.966-0.129-0.333-0.094-0.702-0.165-1.054-0.323-0.347-0.166-0.73-0.304-1.069-0.537-0.343-0.226-0.702-0.448-1.012-0.738-0.321-0.276-0.625-0.571-0.888-0.9-0.285-0.306-0.503-0.664-0.725-0.994-0.409-0.689-0.716-1.375-0.877-2.001-0.186-0.612-0.247-1.151-0.267-1.526-0.023-0.377 6e-3 -0.593 6e-3 -0.593z"/><path d="m110.58 94.486s-0.315-4e-3 -0.864-0.011c-0.547-0.019-1.333-0.015-2.265-0.015-0.466 3e-3 -0.971 0.016-1.497 0.041-0.514 0.035-1.099 0.087-1.54 0.246-0.268 0.019-0.473 0.721-0.625 1.297-0.155 0.608-0.267 1.254-0.354 1.903-0.093 0.648-0.163 1.303-0.195 1.943-0.014 0.636-0.077 1.283 0.108 1.728 0.158 0.386 0.577 0.769 1.014 0.988 0.445 0.229 0.915 0.385 1.359 0.494 0.892 0.205 1.672 0.301 2.217 0.336 0.548 0.042 0.861 0.066 0.861 0.066s-0.309 0.063-0.858 0.129c-0.548 0.05-1.341 0.14-2.305 0.036-0.481-0.053-1.009-0.15-1.552-0.378-0.534-0.234-1.132-0.574-1.492-1.338-0.298-0.722-0.253-1.432-0.247-2.104 0.024-0.683 0.085-1.366 0.173-2.048 0.102-0.68 0.23-1.356 0.41-2.021 0.087-0.334 0.204-0.664 0.351-0.993 0.099-0.188 0.22-0.407 0.313-0.499 0.127-0.182 0.399-0.323 0.55-0.366 0.685-0.208 1.251-0.165 1.807-0.162 0.549 0.018 1.062 0.073 1.533 0.132 1.879 0.253 3.098 0.596 3.098 0.596z"/><path d="m144.91 147.56-0.705 1.385c-0.203 0.412-0.44 0.886-0.67 1.4-0.227 0.514-0.464 1.06-0.639 1.623-0.203 0.554-0.323 1.125-0.42 1.663-0.012 0.269-0.074 0.534-0.074 0.784 0.013 0.247-0.014 0.493 7e-3 0.714 0.033 0.218 0.052 0.425 0.071 0.613 0.028 0.184 0.081 0.336 0.108 0.471 0.06 0.274 0.094 0.431 0.094 0.431s-0.098-0.117-0.261-0.344c-0.075-0.116-0.193-0.249-0.276-0.427-0.08-0.18-0.17-0.388-0.259-0.623-0.085-0.235-0.123-0.505-0.179-0.791-0.05-0.286-0.043-0.592-0.049-0.911 0.022-0.312 0.047-0.64 0.108-0.963 0.084-0.314 0.139-0.648 0.252-0.954 0.216-0.621 0.49-1.21 0.803-1.718 0.306-0.514 0.641-0.953 0.951-1.304 0.619-0.707 1.138-1.049 1.138-1.049z"/><path d="m99.584 132.04s0.696-0.186 1.748 0.019c0.517 0.109 1.128 0.281 1.725 0.601 0.611 0.293 1.203 0.727 1.758 1.202 0.257 0.262 0.534 0.504 0.766 0.782 0.234 0.276 0.463 0.55 0.659 0.835 0.397 0.566 0.717 1.128 0.94 1.637 0.257 0.487 0.373 0.947 0.483 1.249 0.099 0.308 0.146 0.487 0.146 0.487s-0.113-0.142-0.308-0.392c-0.199-0.245-0.43-0.626-0.769-1.032-0.164-0.206-0.338-0.431-0.514-0.672-0.196-0.224-0.404-0.458-0.604-0.71-0.2-0.253-0.453-0.465-0.669-0.722-0.222-0.251-0.485-0.46-0.725-0.696-0.247-0.226-0.507-0.435-0.763-0.641-0.273-0.176-0.514-0.403-0.785-0.553-0.262-0.169-0.517-0.329-0.769-0.463-0.249-0.141-0.495-0.252-0.721-0.365-0.914-0.411-1.598-0.566-1.598-0.566z"/></svg>
