<?xml version="1.0" encoding="UTF-8"?>
<svg width="353.8px" height="226.77px" enable-background="new 0 0 353.805 226.772" version="1.1" viewBox="0 0 353.8 226.77" xmlns="http://www.w3.org/2000/svg"><rect width="353.8px" height="226.77px" fill="#fff"/><style type="text/css">.st0{fill:url(#b);} .st1{fill:none;stroke:#000000;} .st2{fill:none;stroke:#000000;stroke-width:2;stroke-linecap:round;} .st3{fill:none;stroke:#000000;stroke-width:1.6;stroke-linecap:round;} .st4{fill:none;stroke:#000000;stroke-width:0.75;stroke-linecap:round;} .st5{fill:#FFFFFF;} .st6{fill:none;stroke:#000000;stroke-width:3;} .st7{fill:url(#a);} .st8{fill:none;stroke:#000000;stroke-linecap:round;}</style><linearGradient id="b" x1="250.97" x2="261.9" y1="214.15" y2="187.77" gradientUnits="userSpaceOnUse"><stop stop-color="#fff" offset="0"/><stop stop-color="#EDEDED" offset="1"/></linearGradient><polygon class="st0" points="282.71 218.85 293.55 178.64 270.97 176.7 246.22 167.68 246.7 169.41 237.96 182.24 220.71 205.85"/><path class="st1" d="m251.55 169.07s14.939 10.114 39.145 9.163"/><path class="st2" d="m224.38 202.85c0-1 25.462-37.012 26.333-41.917 0.872-4.905 13.835-70.131 13.835-70.131"/><path class="st2" d="m263.11 90.735s-2.174-9.604 4.972-12.347"/><path class="st2" d="m272.68 88.14 25.788-12.968c1.393-0.7 3.732-0.84 5.198-0.309l17.545 6.347c1.466 0.53 3.229 2.109 3.918 3.507l2.435 4.942"/><path class="st2" d="m273.11 76.317 31.839-15.568c1.401-0.685 3.606-0.534 4.901 0.334l20.999 14.088c1.295 0.869 2.958 2.703 3.697 4.075l2.253 4.187"/><path class="st3" d="m316.92 52.747 4.714-0.352c1.555-0.116 3.706 0.713 4.781 1.842l10.795 11.343c1.075 1.129 2.433 3.236 3.018 4.681l1.557 3.846"/><path class="st2" d="m269.04 77.764 37.107-26.506c1.277-0.894 3.345-0.863 4.595 0.068l23.113 17.223c1.25 0.932 2.87 2.821 3.6 4.198l3.221 6.078"/><path class="st2" d="m289.81 100.18s5.121-0.918 8.678-6.291"/><path class="st2" d="m296.97 93.021s7.835 3.112 16.833 1.663"/><path class="st2" d="m310.73 93.225s11.896 15.439 22.091 4.013l-5.366-6.929"/><path class="st2" d="m333.63 98.879s5.51 1.321 8.657-5.776l-5.619-7.674"/><path class="st2" d="m340.96 79.897 4.32 7.974s-1.589 3.089-2.902 3.322"/><path class="st2" d="m311.88 98.35 4 9.667s3 2.167 7.5 2.167"/><line class="st2" x1="320.55" x2="331.05" y1="112.18" y2="104.18"/><path class="st2" d="m330.84 100.62s0.916 4.239 1.299 5.868"/><path d="m294.47 99.781c0.521 0.464 0.668 1.21 0.78 1.873 0.077 0.683 0.083 1.375 0.015 2.052-0.109 1.364-0.445 2.681-0.835 3.969-0.412 1.282-0.894 2.537-1.475 3.745-0.552 1.221-1.23 2.381-1.948 3.513 0.366-1.296 0.801-2.551 1.225-3.805 0.217-0.626 0.432-1.248 0.633-1.876 0.225-0.62 0.417-1.248 0.611-1.875 0.4-1.248 0.763-2.507 1.02-3.779 0.13-0.637 0.227-1.276 0.268-1.922 0.045-0.643 0.03-1.31-0.294-1.895z"/><path d="m291.22 111.14c0.369 4.738 0.597 9.483 0.776 14.23 0.177 4.747 0.238 9.498 0.249 14.254-0.023 2.378-0.093 4.757-0.238 7.143-0.113 1.181-0.144 2.419-0.568 3.618-0.416 1.178-1.027 2.247-1.737 3.223-1.401 1.97-3.063 3.703-4.805 5.333-1.789 1.57-3.614 3.138-5.717 4.266 1.976-1.317 3.715-2.943 5.377-4.619 1.654-1.681 3.232-3.456 4.508-5.411 0.645-0.971 1.184-2.006 1.554-3.064 0.364-1.053 0.384-2.229 0.48-3.402 0.113-2.354 0.15-4.723 0.147-7.093 0.073-4.739-3e-3 -9.485-0.016-14.231l-0.034-7.121 0.024-7.126z"/><path d="m274.95 160.49c2.197-1.362 4.458-2.523 6.695-3.724 1.128-0.582 2.235-1.195 3.343-1.804 1.098-0.629 2.207-1.233 3.224-2.028-0.741 1.071-1.755 1.935-2.803 2.685-1.049 0.761-2.16 1.425-3.296 2.03-2.283 1.189-4.655 2.202-7.163 2.841z"/><path d="m313.71 102.76c1.432 3.714 2.563 7.513 3.606 11.336 0.506 1.916 0.995 3.836 1.417 5.775 0.428 1.935 0.82 3.888 1.03 5.87-0.59-1.898-1.231-3.772-1.786-5.673-0.575-1.895-1.105-3.802-1.627-5.712-1.011-3.829-1.967-7.673-2.64-11.596z"/><path class="st2" d="m341.14 72.511 4.726 8.88s-0.987 1.436-2.154 1.436"/><path class="st2" d="m346.59 83.007s4.191 0.719 0.826 12.649"/><path d="m347.95 96.167c1.271 2.489 2.056 5.215 2.415 8.035 0.169 1.416 0.175 2.86 0.02 4.319-0.224 1.449-0.602 2.921-1.388 4.263-0.17 0.344-0.452 0.63-0.676 0.945-0.237 0.32-0.479 0.61-0.725 0.846-0.486 0.513-0.981 1.013-1.497 1.492-1.047 0.939-2.098 1.867-3.228 2.694-2.238 1.673-4.608 3.168-7.162 4.298 2.1-1.829 4.159-3.639 6.158-5.494 0.982-0.947 1.975-1.87 2.907-2.852 0.466-0.49 0.943-0.966 1.39-1.469l0.336-0.371 0.265-0.366c0.165-0.252 0.383-0.462 0.512-0.742 1.25-2.11 1.536-4.804 1.536-7.46-0.055-2.679-0.381-5.399-0.863-8.138z"/><path d="m336.59 119.81c-1.507 5.044-4.036 9.75-6.92 14.162-2.903 4.417-6.288 8.51-9.986 12.289-0.936 0.933-1.922 1.815-2.88 2.724l-1.45 1.35-1.525 1.266-3.075 2.496c-1.066 0.778-2.142 1.543-3.221 2.3l-1.615 1.139c-0.55 0.363-1.116 0.702-1.679 1.044l-3.38 2.041c-2.293 1.288-4.672 2.425-7.03 3.559 2.147-1.525 4.378-2.881 6.507-4.39l3.166-2.293 1.583-1.139 1.524-1.218c1.013-0.814 2.03-1.621 3.056-2.414l2.931-2.56 1.472-1.269 1.406-1.342c0.93-0.902 1.883-1.78 2.793-2.701 3.651-3.676 7.023-7.619 10.13-11.771 3.072-4.175 5.919-8.546 8.193-13.273z"/><line class="st2" x1="298.6" x2="284.48" y1="158" y2="215.68"/><path d="m325.92 91.593c-0.46 0.647-0.861 1.301-1.041 1.963s-0.1 1.279 0.262 1.816c0.368 0.585 0.867 1.192 1.336 1.763 0.489 0.572 0.995 1.134 1.567 1.69-0.784-0.197-1.487-0.629-2.111-1.13-0.633-0.516-1.166-1.081-1.641-1.795-0.249-0.374-0.389-0.845-0.427-1.308-0.019-0.471 0.093-0.928 0.29-1.318 0.39-0.786 1.039-1.346 1.765-1.681z"/><path d="m334.94 86.405c-0.559 0.22-1.046 0.581-1.31 1.038-0.265 0.456-0.302 0.98-0.194 1.501 0.121 0.525 0.334 1.013 0.577 1.593l0.627 1.661c0.408 1.077 0.913 2.051 1.926 2.25 1.025 0.212 2.226-0.1 3.387-0.373-1.009 0.641-2.136 1.232-3.508 1.144-0.686-0.043-1.374-0.445-1.806-0.972-0.437-0.53-0.695-1.12-0.931-1.688-0.211-0.577-0.398-1.141-0.583-1.701-0.167-0.535-0.417-1.157-0.461-1.817-0.066-0.654 0.12-1.391 0.576-1.894 0.465-0.49 1.094-0.734 1.7-0.742z"/><path class="st4" d="m339.71 80.764s-1.033 0.85-1.843 2.169"/><path d="m341.12 89.333c0.396-0.552 0.848-0.931 1.286-1.316l0.661-0.551c0.21-0.192 0.442-0.363 0.657-0.628 0.071 0.339-0.031 0.702-0.199 0.991-0.161 0.302-0.391 0.545-0.635 0.759-0.502 0.41-1.086 0.709-1.77 0.745z"/><path d="m297.62 98.987c0.278 0.236 0.386 0.616 0.457 0.965 0.072 0.358 0.087 0.721 0.094 1.084-0.026 0.72-0.118 1.441-0.291 2.131-0.314 1.396-0.811 2.732-1.378 4.025-0.573 1.292-1.218 2.547-1.947 3.751-0.7 1.22-1.52 2.369-2.373 3.491 0.516-1.317 1.104-2.585 1.682-3.853 0.291-0.633 0.594-1.258 0.869-1.896 0.3-0.626 0.586-1.257 0.854-1.895 0.574-1.259 1.093-2.537 1.544-3.831 0.231-0.648 0.416-1.304 0.555-1.971 0.119-0.658 0.254-1.374-0.066-2.001z"/><line class="st5" x1="251.55" x2="165.35" y1="115.83" y2="115.83"/><line class="st6" x1="251.55" x2="180.18" y1="115.83" y2="115.83"/><polygon points="165.35 115.83 186.25 107.3 181.29 115.83 186.25 124.37"/><linearGradient id="a" x1="28.636" x2="36.467" y1="549.76" y2="538.13" gradientTransform="translate(0 -369.17)" gradientUnits="userSpaceOnUse"><stop stop-color="#fff" offset="0"/><stop stop-color="#F0F0F1" offset="1"/></linearGradient><polygon class="st7" points="52.711 202.25 65.741 178.23 73.132 165.41 60.725 163.56 44.386 155.41 34.341 146.47 26.95 137.35 1.774 163.07"/><path class="st2" d="m12.13 152.93s19.451-19.466 22.118-24.799 3.453-16.227 4.453-20.227 10.258-28.952 14.591-31.619 7.334-3.595 11.303-10.033c3.756-6.092 8.011-6.004 13.682-5.765 7.043 0.297 10.015 4.131 12.015 5.131"/><path d="m99.533 68.947-14.241-2.329 14.426 0.338c0.553 0.013 0.992 0.472 0.979 1.026-0.013 0.553-0.472 0.992-1.026 0.979-0.045-2e-3 -0.095-8e-3 -0.138-0.014z"/><path d="m67.959 78.284s0.352 0.148 0.967 0.406c0.608 0.262 1.487 0.605 2.519 1.024 0.529 0.184 1.083 0.418 1.682 0.625 0.596 0.218 1.228 0.427 1.88 0.638 0.645 0.237 1.336 0.387 2.02 0.594 0.687 0.196 1.397 0.328 2.098 0.504 0.709 0.104 1.416 0.267 2.116 0.339 0.7 0.037 1.392 0.205 2.061 0.171 0.668-0.01 1.327 0.07 1.938-0.012 0.31-0.022 0.611-0.043 0.902-0.063 0.298 1e-3 0.577-0.038 0.842-0.096 0.533-0.102 1.035-0.175 1.486-0.24 0.437-0.118 0.818-0.222 1.131-0.307 0.639-0.166 1.024-0.25 1.024-0.25s-0.299 0.229-0.857 0.611c-0.282 0.184-0.619 0.432-1.034 0.664-0.428 0.195-0.918 0.416-1.466 0.634-0.538 0.265-1.17 0.357-1.828 0.526-0.659 0.19-1.371 0.233-2.111 0.293-0.741 0.091-1.501 0.024-2.279-1e-3 -0.777-0.034-1.545-0.204-2.324-0.31-0.756-0.199-1.527-0.353-2.25-0.607-0.727-0.244-1.434-0.506-2.094-0.809-0.674-0.27-1.291-0.608-1.872-0.926-0.592-0.297-1.107-0.662-1.595-0.965-1.924-1.281-2.956-2.443-2.956-2.443z"/><path class="st2" d="m100.29 69.618s0.667 3.667-1.333 5.333"/><path class="st2" d="m57.959 109.28c2.667 2 5.667 5.333 8 5.333s7.333-2.667 10-1c0 0 10.167-3.517 13.834-0.517 0 0 16.894-3.898 15.493 10.168"/><path class="st2" d="m70.959 129.95s15.363 5.032 28.015-5.317"/><path class="st2" d="m79.874 83.228s-3.248 18.056 1.752 26.39"/><path d="m72.959 90.618s-0.187 1.565-0.828 3.806c-0.317 1.121-0.733 2.415-1.263 3.77-0.515 1.361-1.142 2.783-1.838 4.174-0.697 1.39-1.486 2.738-2.284 3.964-0.806 1.223-1.644 2.312-2.414 3.199-0.391 0.441-0.773 0.825-1.107 1.164-0.32 0.351-0.66 0.608-0.917 0.833-0.527 0.441-0.837 0.675-0.837 0.675s0.188-0.351 0.534-0.932c0.366-0.565 0.808-1.426 1.389-2.402 0.265-0.509 0.553-1.056 0.878-1.618 0.303-0.578 0.606-1.197 0.956-1.812 0.644-1.268 1.33-2.62 2.017-3.972 0.687-1.357 1.374-2.715 2.018-3.987 0.65-1.274 1.255-2.468 1.807-3.482 1.071-2.039 1.889-3.38 1.889-3.38z"/><path d="m86.959 109.62c0.496-2.472 1.226-4.877 1.971-7.268l1.192-3.56 1.28-3.528 0.092 0.887-0.742-1.182c-0.238-0.402-0.442-0.831-0.664-1.247-0.111-0.208-0.189-0.439-0.284-0.658-0.089-0.223-0.187-0.442-0.267-0.67-0.133-0.473-0.296-0.929-0.357-1.432-0.032-0.249-0.095-0.488-0.099-0.746l-0.028-0.765 0.065-0.777c0.047-0.259 0.104-0.518 0.162-0.775 0.161-0.508 0.355-1.014 0.668-1.46 0.142-0.23 0.319-0.439 0.502-0.643 0.2-0.21 0.362-0.373 0.674-0.592l-0.308 1.149c-0.249-0.552-0.477-1.114-0.677-1.69-0.189-0.582-0.339-1.179-0.439-1.79-0.207-1.216-0.211-2.502 0.136-3.714 0.332-1.214 1.01-2.307 1.884-3.141 0.871-0.837 1.924-1.446 3.036-1.777-0.996 0.588-1.849 1.366-2.505 2.247-0.655 0.884-1.076 1.894-1.236 2.93-0.142 1.043-0.057 2.103 0.217 3.135 0.127 0.517 0.324 1.02 0.512 1.524 0.206 0.501 0.438 0.992 0.689 1.478l0.296 0.572-0.603 0.576c-0.046 0.044-0.203 0.191-0.296 0.314-0.103 0.133-0.209 0.269-0.288 0.423-0.18 0.295-0.292 0.63-0.399 0.965l-0.099 0.528-0.034 0.549 0.034 0.563c2e-3 0.187 0.063 0.38 0.089 0.569 0.042 0.382 0.209 0.759 0.295 1.143 0.063 0.19 0.145 0.379 0.216 0.569 0.078 0.188 0.135 0.382 0.23 0.567l0.277 0.557c0.097 0.184 0.172 0.376 0.287 0.554l0.651 1.083 0.276 0.459-0.184 0.428-1.476 3.438-1.525 3.421c-1.04 2.274-2.11 4.53-3.221 6.787z"/><path class="st2" d="m101.44 77.118s7.397 3.414 8.852 9.166c1.19 4.705 2 28-0.333 33.667"/><path d="m98.292 127.95s-0.967 0.738-2.496 1.625c-0.76 0.454-1.661 0.945-2.636 1.443-0.974 0.501-2.022 1.009-3.078 1.493-2.113 0.966-4.266 1.821-5.87 2.48-0.408 0.161-0.755 0.329-1.089 0.46-0.33 0.137-0.582 0.284-0.821 0.392-0.243 0.105-0.368 0.235-0.496 0.31-0.118 0.084-0.181 0.129-0.181 0.129s0.032-0.067 0.092-0.192c0.071-0.111 0.138-0.36 0.322-0.546 0.173-0.196 0.373-0.483 0.65-0.724 0.271-0.245 0.574-0.556 0.937-0.818 0.357-0.273 0.743-0.589 1.176-0.857 0.428-0.281 0.876-0.593 1.365-0.856 0.485-0.271 0.976-0.576 1.5-0.829 0.516-0.27 1.05-0.523 1.586-0.77 1.072-0.493 2.171-0.922 3.214-1.288 1.041-0.371 2.031-0.669 2.894-0.886 1.718-0.45 2.931-0.566 2.931-0.566z"/><path class="st2" d="m113.63 86.951s5.667-1 7 9.667 1 15.333 1 22-0.667 6.667-1.333 8.667-24.667 15-24.667 15"/><path class="st2" d="m123.29 99.618s4.333-2 6 5 3.333 13 2.667 18.333c-0.667 5.333 0 7-10.333 17s-10.925 12.765-23.258 14.765"/><path class="st2" d="m97.326 155.28-20.367 5c-5 5-14.333 24.667-19.667 32.667"/><path class="st2" d="m95.003 74.943c0.247 0.123 4.88 2.476 4.88 2.476"/><path d="m72.95 144.45s0.97 0.629 2.476 1.345c0.751 0.362 1.642 0.735 2.611 1.073 0.484 0.172 0.99 0.324 1.508 0.462 0.511 0.166 1.047 0.262 1.58 0.371 0.527 0.138 1.073 0.175 1.601 0.268 0.535 0.05 1.062 0.1 1.571 0.147 0.512 0.027 1.01 0.02 1.485 0.042 0.476 0.03 0.922-0.03 1.342-0.031 0.416-0.028 0.809-3e-3 1.146-0.053 0.343-0.03 0.643-0.057 0.889-0.079 0.498-0.036 0.791-0.044 0.791-0.044s-0.258 0.122-0.724 0.315c-0.236 0.092-0.522 0.205-0.85 0.333-0.328 0.141-0.716 0.218-1.139 0.324-0.424 0.091-0.881 0.245-1.381 0.278-0.497 0.051-1.024 0.142-1.573 0.149-0.547-0.014-1.12 0.028-1.695-0.035-0.572-0.082-1.164-0.106-1.738-0.24-0.574-0.133-1.149-0.256-1.696-0.45-0.558-0.156-1.077-0.396-1.58-0.616-0.508-0.209-0.962-0.494-1.4-0.735-0.425-0.269-0.826-0.52-1.167-0.795-1.405-1.048-2.057-2.029-2.057-2.029z"/><path d="m52.45 129.95s0.152 0.251 0.438 0.67c0.283 0.421 0.715 1 1.269 1.658 0.548 0.662 1.223 1.399 1.999 2.128 0.382 0.371 0.797 0.73 1.23 1.083 0.414 0.374 0.885 0.692 1.34 1.027 0.447 0.348 0.944 0.624 1.406 0.935 0.486 0.275 0.964 0.546 1.427 0.808 0.474 0.243 0.947 0.449 1.387 0.668 0.437 0.228 0.884 0.361 1.279 0.534 0.403 0.149 0.761 0.333 1.099 0.43 0.335 0.111 0.627 0.208 0.868 0.288 0.482 0.164 0.758 0.271 0.758 0.271s-0.29-0.02-0.799-0.081c-0.255-0.033-0.565-0.072-0.92-0.117-0.361-0.029-0.749-0.141-1.179-0.243-0.425-0.116-0.907-0.191-1.377-0.386-0.475-0.178-0.991-0.339-1.497-0.57-0.495-0.251-1.031-0.472-1.535-0.769-0.492-0.316-1.021-0.596-1.497-0.954-0.473-0.362-0.959-0.707-1.387-1.108-0.452-0.374-0.849-0.793-1.229-1.2-0.396-0.391-0.708-0.836-1.033-1.225-0.295-0.416-0.583-0.8-0.804-1.186-0.479-0.746-0.764-1.434-0.975-1.899-0.196-0.476-0.268-0.762-0.268-0.762z"/><path d="m65.357 142.12s0.886 0.155 2.215 0.388c1.324 0.24 3.1 0.656 4.783 1.41 0.831 0.392 1.652 0.832 2.337 1.376 0.358 0.249 0.665 0.542 0.947 0.827 0.302 0.262 0.515 0.586 0.735 0.854 0.229 0.261 0.357 0.567 0.504 0.803 0.152 0.235 0.231 0.471 0.301 0.659 0.131 0.375 0.206 0.59 0.206 0.59s-0.138-0.179-0.38-0.493c-0.115-0.157-0.25-0.348-0.442-0.539-0.194-0.188-0.365-0.433-0.621-0.641-0.253-0.209-0.49-0.464-0.799-0.675-0.293-0.227-0.61-0.452-0.956-0.663-0.328-0.234-0.715-0.407-1.078-0.626-0.379-0.196-0.767-0.39-1.167-0.562-0.788-0.372-1.615-0.671-2.386-0.974-0.783-0.291-1.515-0.563-2.142-0.796-0.629-0.237-1.153-0.466-1.512-0.639-0.35-0.181-0.545-0.299-0.545-0.299z"/><path class="st8" d="m28.975 140.28s18.069 24.405 40.128 24.874"/><path d="m89.49 66.713s-0.416 0.03-1.144 0.083c-0.726 0.051-1.766 0.132-2.994 0.31-0.614 0.078-1.278 0.178-1.954 0.342-0.336 0.083-0.678 0.183-0.991 0.321-0.306 0.121-0.61 0.362-0.596 0.471-0.035 0.074 0.158 0.365 0.44 0.582 0.239 0.198 0.647 0.457 0.963 0.657 0.649 0.397 1.386 0.733 2.127 0.936 0.748 0.204 1.52 0.237 2.28 0.168 0.764-0.076 1.503-0.3 2.277-0.499 0.718-0.181 1.403-0.46 2.091-0.69 0.683-0.227 1.339-0.434 1.956-0.591 0.618-0.151 1.188-0.287 1.708-0.325 0.516-0.055 0.97-0.054 1.339-0.044 0.371 0.026 0.658 0.06 0.851 0.108 0.192 0.039 0.295 0.059 0.295 0.059s-0.423-0.015-1.139 0.054c-0.358 0.048-0.789 0.115-1.271 0.246-0.482 0.13-1.022 0.286-1.599 0.496-1.173 0.406-2.412 1.086-3.987 1.597-0.729 0.216-1.543 0.465-2.412 0.569-0.869 0.105-1.789 0.039-2.647-0.208-0.864-0.248-1.652-0.628-2.377-1.126-0.364-0.256-0.641-0.441-1.016-0.762-0.167-0.15-0.332-0.312-0.47-0.533-0.131-0.212-0.267-0.528-0.177-0.874 0.089-0.338 0.321-0.538 0.512-0.667 0.199-0.132 0.396-0.217 0.59-0.288 0.387-0.139 0.761-0.219 1.124-0.284 0.727-0.125 1.41-0.18 2.039-0.217 2.52-0.077 4.182 0.109 4.182 0.109z"/><path d="m104.54 122.44s-0.115 0.015-0.324 0.065c-0.209 0.045-0.518 0.126-0.917 0.193-0.795 0.143-1.96 0.285-3.371 0.185-1.406-0.09-3.058-0.451-4.684-1.209-0.388-0.194-0.783-0.39-1.182-0.59-0.346-0.155-0.739-0.288-1.12-0.39-0.766-0.198-1.574-0.193-2.245 0.093-0.67 0.235-1.249 0.864-1.28 1.367-0.013 0.233 0.034 0.335 0.225 0.451 0.432 0.206 0.716 0.295 1.139 0.423 1.589 0.476 3.166 0.776 4.501 1.035 1.341 0.252 2.468 0.431 3.26 0.523 0.396 0.044 0.708 0.072 0.923 0.08 0.215-5e-3 0.329-8e-3 0.329-8e-3s-0.446 0.144-1.258 0.191c-0.809 0.057-1.966 0.065-3.349-0.024-1.386-0.09-2.988-0.247-4.721-0.638-0.404-0.092-0.958-0.259-1.33-0.42-0.311-0.133-0.603-0.35-0.804-0.67-0.199-0.316-0.277-0.689-0.257-1.021 0.131-1.335 1.1-2.157 2.094-2.584 1.032-0.417 2.154-0.367 3.117-0.099 0.488 0.135 0.929 0.334 1.376 0.565 0.38 0.216 0.754 0.43 1.123 0.64 0.725 0.382 1.447 0.727 2.169 0.96 0.716 0.248 1.415 0.434 2.072 0.56 1.315 0.256 2.452 0.309 3.249 0.316 0.401 0 0.717 0 0.932-1e-3 0.219-3e-3 0.333 7e-3 0.333 7e-3z"/><path class="st4" d="m104.43 123.77s-4.911 0.927-10.914 0.198"/></svg>
