<?xml version="1.0" encoding="UTF-8"?>
<svg width="226.77px" height="226.77px" enable-background="new 0 0 226.77 226.77" version="1.1" viewBox="0 0 226.77 226.77" xmlns="http://www.w3.org/2000/svg"><rect width="226.77px" height="226.77px" fill="#fff"/><linearGradient id="b" x1="41.929" x2="58.929" y1="98.266" y2="105.27" gradientTransform="matrix(1 0 0 -1 0 226.11)" gradientUnits="userSpaceOnUse"><stop stop-color="#fff" offset="0"/><stop stop-color="#EDEDED" offset="1"/></linearGradient><polyline points="79.712 129.06 72.462 111.32 68.462 97.815 42.962 105.32 28.712 109.32 44.962 150.56 79.462 129.06" fill="url(#b)"/><g opacity=".22"><linearGradient id="a" x1="41.929" x2="58.929" y1="98.892" y2="105.89" gradientTransform="matrix(1 0 0 -1 0 226.11)" gradientUnits="userSpaceOnUse"><stop stop-color="#fff" offset="0"/><stop stop-color="#EDEDED" offset="1"/></linearGradient><polyline points="79.712 128.44 72.462 110.69 68.462 97.19 42.962 104.69 28.712 108.69 44.962 149.94 79.913 131.31" fill="url(#a)"/></g><path d="m42.226 105.62s35.925-13.271 46.407-17.545" fill="none" stroke="#000" stroke-linecap="round" stroke-width="2"/><path d="m58.113 141.74s26.303-13.884 41.162-17.422" fill="none" stroke="#000" stroke-linecap="round" stroke-width="2"/><path d="m84.415 92.166s8.201-15.55 29.143-13.775" fill="none" stroke="#000" stroke-linecap="round" stroke-width="2"/><path d="m110.33 79.667s10.828-5.185 17.305-6.004 13.296 1.734 18.362 3.504 9.144 0.993 8.635 5.528c-0.509 4.536-3.335 12.124-12.135 10.847s-11.874 0.2-11.874 0.2" fill="none" stroke="#000" stroke-linecap="round" stroke-width="2"/><path d="m92.762 115.89s20.693 13.929 30.466 24.855" fill="none" stroke="#000" stroke-linecap="round" stroke-width="2"/><path d="m134.67 93.667c-2.321 0.12-10.119 5.775-10.119 5.775" fill="none" stroke="#000" stroke-linecap="round" stroke-width="2"/><path d="m135.99 94.098s-4.615 7.194-3.804 15.714" fill="none" stroke="#000" stroke-linecap="round" stroke-width="2"/><path d="m135.14 101.98s5.659 2.233 7.592 6.295" fill="none" stroke="#000" stroke-linecap="round" stroke-width="2"/><path d="m141 107.33s14.25 5.083 19.125 20.708" fill="none" stroke="#000" stroke-linecap="round" stroke-width="2"/><path d="m69.696 99.209s4.651 18.391 9.736 28.052" fill="none" stroke="#000"/><path d="m158.97 127.46s7.143 4.317 7.893 9.567" fill="none" stroke="#000" stroke-linecap="round" stroke-width="2"/><path d="m152.32 130.42s0.271-0.095 0.778-0.106c0.501-9e-3 1.251 0.077 2.071 0.455 0.204 0.094 0.406 0.21 0.625 0.325 0.202 0.133 0.407 0.281 0.613 0.439 0.399 0.329 0.799 0.709 1.141 1.157 0.338 0.449 0.662 0.928 0.924 1.449 0.13 0.26 0.242 0.527 0.355 0.797l0.084 0.203 0.047 0.123 0.033 0.096 0.131 0.384c0.165 0.491 0.329 1.101 0.435 1.648 0.12 0.553 0.165 1.114 0.203 1.654 0.062 1.085-0.067 2.116-0.311 2.948-0.228 0.839-0.572 1.47-0.811 1.891-0.247 0.419-0.384 0.663-0.384 0.663s-0.026-0.286 2e-3 -0.774c0.025-0.487 0.073-1.16 0.055-1.933-0.026-0.777-0.117-1.654-0.3-2.585-0.085-0.467-0.222-0.94-0.345-1.425-0.142-0.489-0.255-0.928-0.444-1.46l-0.123-0.387-0.031-0.097-8e-3 -0.024c0.013 0.039 0 1e-3 0 1e-3l-0.017-0.043-0.068-0.173c-0.095-0.227-0.164-0.467-0.261-0.689-0.105-0.217-0.199-0.437-0.29-0.658-0.11-0.208-0.219-0.413-0.326-0.614-0.241-0.384-0.472-0.757-0.732-1.087-0.269-0.316-0.535-0.614-0.811-0.864-0.557-0.491-1.116-0.831-1.539-1.033-0.421-0.205-0.696-0.281-0.696-0.281z"/><path d="m157.43 142.5s0.022-0.054 0.063-0.154c0.05-0.088 0.133-0.265 0.256-0.426 0.233-0.352 0.62-0.809 1.158-1.289 0.538-0.475 1.231-0.97 2.058-1.359 0.409-0.201 0.858-0.362 1.317-0.51 0.47-0.116 0.945-0.257 1.44-0.297l0.738-0.072c0.247-5e-3 0.494 0.011 0.737 0.018 0.489-7e-3 0.962 0.097 1.415 0.188 0.457 0.068 0.871 0.253 1.264 0.395 0.398 0.132 0.739 0.337 1.048 0.528 0.309 0.188 0.596 0.345 0.815 0.543 0.226 0.186 0.409 0.365 0.56 0.508 0.299 0.29 0.452 0.468 0.452 0.468s-0.245-0.036-0.643-0.119c-0.198-0.044-0.437-0.091-0.697-0.165s-0.578-0.087-0.893-0.16c-0.32-0.061-0.661-0.127-1.028-0.147-0.364-0.029-0.732-0.107-1.124-0.094-0.388-9e-3 -0.782-0.041-1.185-5e-3l-0.605 0.021-0.607 0.077c-0.409 0.017-0.805 0.137-1.208 0.189-0.393 0.097-0.789 0.177-1.167 0.286-0.761 0.205-1.465 0.463-2.089 0.68-0.606 0.245-1.139 0.447-1.501 0.616-0.183 0.081-0.327 0.145-0.425 0.188-0.096 0.061-0.149 0.092-0.149 0.092z"/><path d="m192.92 134.98s-0.352-0.338-0.996-0.866c-0.308-0.271-0.72-0.56-1.177-0.889-0.472-0.311-1.018-0.627-1.632-0.905-0.615-0.275-1.305-0.495-2.044-0.634-0.364-0.091-0.759-0.09-1.146-0.144-0.399 0.02-0.796-0.026-1.209 0.016-0.411 0.034-0.827 0.055-1.248 0.149l-0.633 0.115-0.636 0.167c-0.429 0.089-0.853 0.236-1.278 0.381-0.429 0.128-0.847 0.311-1.267 0.487-0.421 0.168-0.841 0.35-1.253 0.55l-0.621 0.288c-0.146 0.059-0.397 0.21-0.59 0.31-0.854 0.452-1.576 0.881-2.282 1.334-0.699 0.484-1.353 0.977-1.943 1.484-0.57 0.524-1.092 1.044-1.522 1.57-0.218 0.262-0.419 0.52-0.585 0.782-0.19 0.25-0.338 0.505-0.48 0.747-0.277 0.486-0.482 0.935-0.629 1.317-0.288 0.767-0.348 1.254-0.348 1.254s-0.121-0.477-0.052-1.343c0.039-0.43 0.12-0.956 0.305-1.536 0.174-0.583 0.433-1.231 0.815-1.881 0.359-0.667 0.846-1.328 1.414-1.981 0.282-0.328 0.604-0.631 0.918-0.961 0.332-0.308 0.695-0.59 1.054-0.894 0.752-0.576 1.58-1.156 2.384-1.585 0.221-0.122 0.368-0.225 0.651-0.363l0.66-0.326c0.439-0.221 0.882-0.443 1.354-0.609 0.464-0.181 0.924-0.368 1.409-0.503 0.477-0.149 0.951-0.299 1.445-0.392 0.483-0.123 0.975-0.19 1.469-0.231 0.486-0.07 0.98-0.064 1.461-0.067 0.481-0.016 0.959 0.071 1.419 0.118 0.456 0.113 0.909 0.174 1.327 0.329 0.852 0.253 1.595 0.657 2.227 1.074 0.639 0.413 1.143 0.889 1.567 1.316 0.413 0.439 0.738 0.846 0.983 1.2 0.262 0.339 0.409 0.635 0.53 0.826 0.117 0.192 0.179 0.296 0.179 0.296z"/><path d="m186.62 142.54" fill="none" stroke="#000" stroke-linecap="round" stroke-width="2"/><line x1="186.12" x2="191.79" y1="141.52" y2="135.31" fill="none" stroke="#000" stroke-linecap="round" stroke-width="2"/><path d="m187.29 140.25-2.915 7.545s-0.624 2.371-4 4.625-16.5 5.375-18.5 5.375-5.949 1.859-8.535-0.518c-2.11-1.939-19.26-16.24-19.26-16.24" fill="none" stroke="#000" stroke-linecap="round" stroke-width="2"/><path d="m184.92 128.96s0.344-0.642 1.13-1.295c0.387-0.333 0.876-0.677 1.448-0.958 0.567-0.291 1.219-0.516 1.893-0.666 0.344-0.049 0.68-0.131 1.027-0.134 0.344-0.017 0.68-0.031 1.011 0.014 0.328 0.033 0.642 0.07 0.936 0.16 0.293 0.083 0.565 0.153 0.805 0.279 0.487 0.205 0.849 0.454 1.079 0.667 0.234 0.2 0.35 0.328 0.35 0.328s-0.185 0.026-0.479 0.048c-0.146 9e-3 -0.32 0.021-0.51 0.024-0.197 0.026-0.414 0.055-0.639 0.064-0.224 4e-3 -0.473 0.07-0.723 0.091-0.249 0.016-0.513 0.075-0.781 0.112-0.267 0.026-0.543 0.101-0.822 0.14-0.279 0.04-0.563 0.117-0.847 0.165-1.138 0.228-2.299 0.525-3.242 0.691-0.926 0.192-1.636 0.27-1.636 0.27z"/><line x1="194.5" x2="193.44" y1="128.29" y2="136.75" fill="none" stroke="#000" stroke-linecap="round" stroke-width="2"/><path d="m193.88 137.29-2.5 15s-0.5 2-3 3.625-17.875 10.625-19.875 11.375-5.75 2.001-7.125 0.375c-1.375-1.625-31.875-23.125-31.875-23.125s-6.161 0.613-9.581-6.693" fill="none" stroke="#000" stroke-linecap="round" stroke-width="2"/><path d="m194.88 131.36c0.693-0.01 1.376 0.124 2.051 0.36 0.661 0.253 1.352 0.618 1.844 1.371l0.132 0.202-0.116 0.368c-0.405 1.281-0.94 2.503-1.57 3.68-0.312 0.59-0.671 1.159-1.048 1.719-0.386 0.557-0.801 1.1-1.302 1.603 0.054-0.708 0.195-1.377 0.364-2.033 0.178-0.652 0.375-1.295 0.618-1.917 0.481-1.246 1.057-2.449 1.763-3.592l0.015 0.569c-0.162-0.421-0.591-0.875-1.09-1.251-0.497-0.395-1.069-0.728-1.661-1.079z"/><path d="m124.19 135.25s0.131 0.174 0.36 0.456c0.226 0.284 0.545 0.676 0.924 1.123 0.379 0.448 0.836 0.936 1.318 1.439 0.503 0.484 1.019 1.001 1.602 1.437 0.266 0.25 0.584 0.429 0.865 0.653 0.286 0.218 0.602 0.38 0.886 0.582 0.289 0.194 0.598 0.332 0.876 0.505 0.276 0.181 0.565 0.295 0.823 0.436 0.265 0.119 0.499 0.284 0.725 0.369 0.224 0.092 0.419 0.194 0.583 0.273 0.327 0.165 0.519 0.279 0.519 0.279s-0.205 0.054-0.574 0.115c-0.184 0.027-0.411 0.065-0.672 0.084-0.264 0.04-0.553 0.01-0.875-0.01-0.32-0.028-0.681-0.026-1.038-0.129-0.358-0.094-0.754-0.165-1.132-0.323-0.373-0.166-0.784-0.304-1.149-0.537-0.369-0.226-0.754-0.448-1.087-0.738-0.345-0.276-0.672-0.571-0.954-0.9-0.306-0.306-0.541-0.664-0.779-0.994-0.44-0.689-0.769-1.375-0.942-2.001-0.2-0.612-0.265-1.151-0.287-1.526-0.023-0.377 8e-3 -0.593 8e-3 -0.593z"/><path d="m151.6 80.099s-0.338-4e-3 -0.928-0.011c-0.588-0.019-1.432-0.015-2.434-0.015-0.501 3e-3 -1.043 0.016-1.608 0.041-0.552 0.035-1.181 0.087-1.655 0.246-0.288 0.019-0.508 0.721-0.672 1.297-0.167 0.608-0.287 1.254-0.38 1.903-0.1 0.648-0.175 1.303-0.21 1.943-0.015 0.636-0.083 1.283 0.116 1.728 0.17 0.386 0.62 0.769 1.089 0.988 0.478 0.229 0.983 0.385 1.46 0.494 0.958 0.205 1.797 0.301 2.382 0.336 0.589 0.042 0.925 0.066 0.925 0.066s-0.332 0.063-0.922 0.129c-0.589 0.05-1.441 0.14-2.477 0.036-0.517-0.053-1.084-0.15-1.668-0.378-0.574-0.234-1.216-0.574-1.603-1.338-0.32-0.722-0.272-1.432-0.265-2.104 0.026-0.683 0.091-1.366 0.186-2.048 0.11-0.68 0.247-1.356 0.441-2.021 0.094-0.334 0.219-0.664 0.377-0.993 0.106-0.188 0.236-0.407 0.336-0.499 0.137-0.182 0.429-0.323 0.591-0.366 0.736-0.208 1.344-0.165 1.942-0.162 0.59 0.018 1.141 0.073 1.647 0.132 2.02 0.253 3.33 0.596 3.33 0.596z"/><path d="m188.49 133.17s-0.303 0.554-0.758 1.385c-0.218 0.412-0.473 0.886-0.72 1.4-0.244 0.514-0.499 1.06-0.687 1.623-0.218 0.554-0.347 1.125-0.451 1.663-0.013 0.269-0.08 0.534-0.079 0.784 0.014 0.247-0.015 0.493 8e-3 0.714 0.035 0.218 0.056 0.425 0.076 0.613 0.03 0.184 0.087 0.336 0.116 0.471 0.064 0.274 0.101 0.431 0.101 0.431s-0.105-0.117-0.28-0.344c-0.081-0.116-0.207-0.249-0.297-0.427-0.086-0.18-0.183-0.388-0.278-0.623-0.091-0.235-0.132-0.505-0.192-0.791-0.054-0.286-0.046-0.592-0.053-0.911 0.024-0.312 0.051-0.64 0.116-0.963 0.09-0.314 0.149-0.648 0.271-0.954 0.232-0.621 0.526-1.21 0.863-1.718 0.329-0.514 0.689-0.953 1.022-1.304 0.664-0.707 1.222-1.049 1.222-1.049z"/><path d="m139.78 117.66s0.748-0.186 1.878 0.019c0.556 0.109 1.212 0.281 1.853 0.601 0.657 0.293 1.293 0.727 1.889 1.202 0.276 0.262 0.574 0.504 0.823 0.782 0.251 0.276 0.498 0.55 0.708 0.835 0.427 0.566 0.77 1.128 1.01 1.637 0.276 0.487 0.401 0.947 0.519 1.249 0.106 0.308 0.157 0.487 0.157 0.487s-0.121-0.142-0.331-0.392c-0.214-0.245-0.462-0.626-0.826-1.032-0.176-0.206-0.363-0.431-0.552-0.672-0.211-0.224-0.434-0.458-0.649-0.71-0.215-0.253-0.487-0.465-0.719-0.722-0.238-0.251-0.521-0.46-0.779-0.696-0.265-0.226-0.545-0.435-0.82-0.641-0.293-0.176-0.552-0.403-0.843-0.553-0.281-0.169-0.555-0.329-0.826-0.463-0.268-0.141-0.532-0.252-0.775-0.365-0.982-0.411-1.717-0.566-1.717-0.566z"/></svg>
