<?xml version="1.0" encoding="UTF-8"?>
<svg width="226.77px" height="226.77px" enable-background="new 0 0 226.77 226.77" version="1.1" viewBox="0 0 226.77 226.77" xmlns="http://www.w3.org/2000/svg"><rect width="226.77px" height="226.77px" fill="#fff"/><linearGradient id="a" x1="80.651" x2="88.626" y1="21.248" y2="33.088" gradientTransform="matrix(1 0 0 -1 0 226.11)" gradientUnits="userSpaceOnUse"><stop stop-color="#fff" offset="0"/><stop stop-color="#EDEDED" offset="1"/></linearGradient><polygon points="95.889 215.65 115.14 196.4 123.14 187.51 114.06 187.43 97.473 182.56 88.22 175.08 83.374 168.43 56.889 194.4" fill="url(#a)"/><path d="m65.181 186.63s25.296-24.838 26.16-26.946 11.797-63.846 12.249-67.012" fill="none" stroke="#000" stroke-linecap="round" stroke-width="2"/><path d="m107.87 204.42c1.057-1.152 28.383-30.824 28.383-30.824s5.998-0.63 14.246-16.411 9.632-15.948 8.829-19.95c-0.749-3.737-5.911-27.669-6.554-29.64s-1.874-3.646-4.731-3.629c-3.066 0.018-11.525 0.044-11.525 0.044" fill="none" stroke="#000" stroke-linecap="round" stroke-width="2"/><path d="m128.67 98.249s-0.213 0.513-0.513 1.427c-0.301 0.912-0.706 2.22-1.025 3.807-0.309 1.582-0.572 3.452-0.418 5.396 0.113 1.942 0.704 3.932 1.82 5.585 0.561 0.825 1.244 1.567 2.008 2.209 0.367 0.332 0.795 0.615 1.181 0.896 0.441 0.292 0.878 0.581 1.307 0.865 0.827 0.544 1.663 1.036 2.464 1.496 0.799 0.46 1.577 0.853 2.303 1.201 0.722 0.365 1.413 0.62 2.023 0.869 0.615 0.229 1.165 0.405 1.624 0.53 0.919 0.253 1.478 0.298 1.478 0.298s-0.546 0.163-1.537 0.153c-0.991 0.012-2.409-0.173-4.041-0.65-0.822-0.225-1.675-0.566-2.576-0.934-0.892-0.381-1.798-0.859-2.742-1.374-0.459-0.253-0.891-0.54-1.346-0.817-0.481-0.328-0.956-0.635-1.402-1.018-0.919-0.72-1.729-1.63-2.38-2.639-0.65-1.008-1.162-2.114-1.449-3.252-0.296-1.135-0.418-2.277-0.423-3.368 0.025-2.189 0.516-4.144 1.079-5.735 0.569-1.594 1.227-2.832 1.721-3.671 0.505-0.834 0.844-1.274 0.844-1.274z"/><line x1="127.4" x2="137.47" y1="101.54" y2="104.9" fill="none" stroke="#000" stroke-linecap="round" stroke-width="2"/><path d="m140.04 122.65s-1.119 4.261 3.185 9.556" fill="none" stroke="#000" stroke-linecap="round" stroke-width="2"/><path d="m131.47 127.6s3.099-3.185 7.576-3.056" fill="none" stroke="#000" stroke-linecap="round" stroke-width="2"/><path d="m128.07 103.15s0.065 0.02 0.187 0.098c0.118 0.076 0.291 0.182 0.494 0.342 0.404 0.319 0.988 0.775 1.606 1.418 0.62 0.638 1.301 1.445 1.82 2.495 0.121 0.268 0.236 0.548 0.317 0.854 0.081 0.256 0.151 0.562 0.235 0.771 0.168 0.477 0.443 0.895 0.817 1.162 0.369 0.278 0.859 0.431 1.384 0.5 0.514 0.061 1.099 0.102 1.584 0.086 0.307-0.011 0.439-0.043 0.647-0.115 0.192-0.064 0.34-0.173 0.455-0.314 0.226-0.286 0.308-0.713 0.303-1.115-0.02-0.813-0.221-1.529-0.376-2.007-0.161-0.485-0.254-0.763-0.254-0.763s0.178 0.235 0.432 0.685c0.127 0.225 0.272 0.505 0.415 0.841 0.15 0.333 0.284 0.732 0.355 1.198 0.066 0.457 0.08 1.037-0.265 1.589-0.323 0.566-1.079 0.836-1.64 0.877-0.604 0.046-1.153 0.064-1.779-6e-3 -0.607-0.069-1.281-0.238-1.856-0.654-0.571-0.429-0.936-1.045-1.135-1.651-0.12-0.329-0.156-0.584-0.226-0.87-0.048-0.242-0.13-0.482-0.219-0.719-0.389-0.942-0.949-1.783-1.452-2.478-0.512-0.692-0.96-1.268-1.301-1.645-0.333-0.383-0.533-0.589-0.548-0.579z"/><path d="m124.68 114.29s0.04 0.822 0.11 2.259c0.064 1.437 0.215 3.487 0.406 5.941 0.19 2.454 0.51 5.309 1.001 8.331 0.232 1.514 0.567 3.057 0.974 4.598 0.447 1.507 1.045 3.061 1.519 4.659 0.464 1.597 0.803 3.24 1.003 4.877 0.222 1.637 0.175 3.278 0.029 4.844-0.12 0.779-0.192 1.553-0.413 2.281-0.098 0.366-0.176 0.733-0.287 1.085-0.124 0.348-0.246 0.692-0.366 1.031-0.492 1.35-1.098 2.57-1.737 3.64-0.296 0.55-0.624 1.048-0.959 1.506-0.335 0.457-0.621 0.914-0.947 1.299-0.654 0.768-1.183 1.469-1.688 1.987-1.006 1.033-1.58 1.623-1.58 1.623s0.521-0.636 1.432-1.749c0.465-0.547 0.942-1.28 1.535-2.08 0.295-0.402 0.545-0.872 0.844-1.342 0.299-0.471 0.608-0.967 0.872-1.519 0.581-1.071 1.12-2.281 1.539-3.603 0.102-0.331 0.206-0.667 0.311-1.007 0.092-0.343 0.152-0.699 0.231-1.053 0.173-0.706 0.252-1.444 0.351-2.191 0.116-1.5 0.143-3.066-0.093-4.639-0.214-1.573-0.564-3.155-1.036-4.711-0.439-1.562-1.005-3.089-1.459-4.692-0.398-1.594-0.716-3.173-0.931-4.711-0.242-1.534-0.366-3.028-0.482-4.442-0.1-1.415-0.175-2.753-0.223-3.988-0.101-2.471-0.057-4.531-0.04-5.971 0.031-1.442 0.084-2.263 0.084-2.263z"/><path d="m128.72 136.29s6.285 10.46 2.785 18.21" fill="none" stroke="#000" stroke-linecap="round"/><path d="m86 172.25s9.756 15.501 31 15.25" fill="none" stroke="#000" stroke-linecap="round"/><line x1="111.01" x2="108.94" y1="50.936" y2="60.747" fill="none" stroke="#000" stroke-linecap="round" stroke-width="2"/><polyline points="108.5 58.746 104.33 74.167 103.71 97.999" fill="none" stroke="#000" stroke-linecap="round" stroke-width="2"/><path d="m107.88 50.687c2.44 0.032 4.917 0.458 7.231 1.459 1.155 0.498 2.274 1.157 3.236 2.048 0.481 0.443 0.926 0.939 1.302 1.492 0.391 0.543 0.692 1.152 0.942 1.779 0.247 0.63 0.393 1.293 0.487 1.957 0.08 0.666 0.1 1.334 0.065 1.995l-0.09 0.991-0.116 0.906c-0.065 0.596-0.187 1.234-0.293 1.848-0.238 1.227-0.517 2.453-0.906 3.68-0.193 0.613-0.417 1.228-0.712 1.838-0.146 0.306-0.306 0.611-0.503 0.921-0.092 0.153-0.207 0.313-0.324 0.47l-0.209 0.249c-0.099 0.1-0.118 0.144-0.359 0.33l0.43-1.447c0.161 0.416 0.28 0.765 0.398 1.143 0.122 0.372 0.223 0.743 0.328 1.115 0.195 0.745 0.385 1.491 0.51 2.248 0.268 1.509 0.458 3.029 0.54 4.554 0.045 0.762 0.054 1.527 0.038 2.289-0.015 0.763-0.041 1.524-0.108 2.283-0.039 0.76-0.143 1.516-0.248 2.269-0.106 0.753-0.267 1.497-0.398 2.243l-0.087-0.561c0.157 0.341 0.278 0.644 0.405 0.967 0.124 0.318 0.241 0.637 0.349 0.96 0.213 0.645 0.403 1.296 0.57 1.952 0.332 1.312 0.581 2.649 0.678 4 0.094 1.35 0.081 2.713-0.148 4.045-0.215 1.332-0.65 2.622-1.29 3.78 0.43-1.253 0.627-2.551 0.666-3.84 0.022-1.292-0.092-2.577-0.336-3.838-0.257-1.259-0.58-2.502-1.015-3.709-0.214-0.604-0.45-1.2-0.705-1.786l-0.39-0.872c-0.133-0.282-0.278-0.582-0.414-0.831l-0.115-0.212 0.028-0.35c0.059-0.722 0.147-1.439 0.182-2.16 0.022-0.722 0.088-1.439 0.085-2.16 0.024-0.719 8e-3 -1.438-0.018-2.156-3e-3 -0.359-0.034-0.717-0.058-1.075-0.032-0.358-0.032-0.717-0.072-1.073-0.103-1.43-0.309-2.851-0.584-4.252-0.141-0.7-0.287-1.397-0.458-2.086-0.09-0.342-0.177-0.687-0.28-1.021-0.095-0.33-0.212-0.684-0.312-0.96l0.43-1.447c-0.121 0.093-0.035 0.026-0.03 0.015l0.087-0.099c0.064-0.087 0.131-0.172 0.197-0.279 0.133-0.201 0.261-0.434 0.381-0.675 0.236-0.486 0.467-1.002 0.664-1.542 0.401-1.077 0.721-2.214 1.003-3.366 0.123-0.582 0.268-1.133 0.391-1.739l0.189-0.894 0.127-0.822c0.063-0.553 0.08-1.104 0.05-1.651-0.019-0.272-0.065-0.54-0.095-0.812-0.069-0.261-0.108-0.533-0.189-0.791-0.583-2.111-2.297-3.819-4.34-4.972-1.023-0.585-2.13-1.051-3.267-1.444-1.142-0.378-2.315-0.707-3.52-0.904z"/><line x1="113.64" x2="117.94" y1="47.212" y2="35.004" fill="none" stroke="#000" stroke-linecap="round" stroke-width="2"/><path d="m138.04 32.533s5.867 7.371 2.256 20.91c0 0 3.159 10.53-1.956 20.459 0 0 1.805 7.07-0.451 13.84" fill="none" stroke="#000" stroke-linecap="round" stroke-width="2"/><path d="m136.95 84.878s3.006 8.292 1.243 15.5" fill="none" stroke="#000" stroke-linecap="round" stroke-width="2"/><path d="m123.63 17.381c1.264 0.092 2.531 0.344 3.746 0.764 1.221 0.407 2.404 0.971 3.485 1.715 0.546 0.363 1.062 0.779 1.544 1.234 0.488 0.449 0.938 0.946 1.335 1.484 0.401 0.534 0.765 1.104 1.065 1.705 0.165 0.294 0.302 0.601 0.424 0.915 0.132 0.31 0.262 0.622 0.352 0.945 0.223 0.638 0.362 1.294 0.493 1.954 0.08 0.662 0.191 1.328 0.197 1.993 0.047 0.668 0.019 1.33-9e-3 1.993-0.024 0.664-0.125 1.314-0.187 1.974-0.114 0.646-0.215 1.299-0.362 1.937-0.164 0.632-0.299 1.276-0.489 1.899-0.196 0.62-0.373 1.25-0.587 1.863l-0.668 1.829 0.023-0.828c0.172 0.508 0.294 0.935 0.409 1.398 0.116 0.456 0.199 0.913 0.29 1.37 0.159 0.915 0.293 1.832 0.368 2.753 0.038 0.461 0.085 0.921 0.095 1.383 0.012 0.461 0.052 0.923 0.04 1.384l-0.013 1.385-0.096 1.381c-0.021 0.461-0.102 0.917-0.152 1.375-0.058 0.457-0.106 0.916-0.198 1.368-0.155 0.909-0.329 1.814-0.566 2.704-0.193 0.901-0.496 1.772-0.777 2.648-0.129 0.442-0.321 0.861-0.483 1.29l-0.507 1.28 0.053-0.683c0.111 0.53 0.192 1.011 0.272 1.515 0.079 0.498 0.149 0.997 0.211 1.495 0.122 0.998 0.2 1.998 0.259 2.999 0.113 2.001 0.126 4.008-0.033 6.006-0.136 1.997-0.43 3.985-0.899 5.926-0.462 1.942-1.132 3.833-2.01 5.603 0.554-1.898 0.927-3.822 1.147-5.757 0.225-1.934 0.296-3.878 0.269-5.814-0.041-1.938-0.175-3.871-0.407-5.791-0.116-0.96-0.267-1.915-0.428-2.865-0.079-0.475-0.164-0.949-0.258-1.42-0.093-0.465-0.196-0.95-0.304-1.38l-0.077-0.309 0.131-0.375 0.426-1.22c0.136-0.409 0.301-0.807 0.404-1.225 0.22-0.832 0.495-1.647 0.665-2.489 0.211-0.833 0.361-1.677 0.494-2.525 0.082-0.421 0.119-0.849 0.167-1.274 0.04-0.427 0.111-0.85 0.124-1.279 0.057-0.855 0.099-1.709 0.104-2.566 0.018-0.428-0.015-0.855-0.02-1.283-3e-3 -0.428-0.042-0.854-0.071-1.28-0.058-0.853-0.171-1.699-0.305-2.539-0.078-0.416-0.148-0.837-0.246-1.244-0.08-0.405-0.192-0.837-0.289-1.177l-0.13-0.45 0.153-0.378 0.692-1.712c0.222-0.573 0.406-1.157 0.612-1.735 0.199-0.58 0.342-1.172 0.517-1.758 0.155-0.589 0.267-1.185 0.414-1.776 0.088-0.596 0.218-1.192 0.272-1.791 0.058-0.599 0.119-1.199 0.109-1.797 0.031-0.602-0.039-1.191-0.073-1.788-0.091-0.585-0.156-1.178-0.311-1.75-0.056-0.293-0.15-0.573-0.244-0.854-0.086-0.284-0.183-0.564-0.309-0.832-0.221-0.55-0.503-1.076-0.822-1.579s-0.674-0.988-1.074-1.438c-0.394-0.455-0.828-0.883-1.3-1.269-0.937-0.781-1.986-1.451-3.112-1.987-1.122-0.532-2.306-0.982-3.545-1.25z"/><line x1="123.52" x2="125.74" y1="23.751" y2="18.137" fill="none" stroke="#000" stroke-linecap="round" stroke-width="2"/><path d="m113.52 24.834c1.562-0.142 3.149-0.085 4.72 0.147 1.573 0.221 3.129 0.655 4.615 1.313 1.484 0.657 2.874 1.606 4.024 2.825 1.152 1.217 2.02 2.723 2.528 4.326 0.511 1.603 0.722 3.279 0.712 4.926-0.017 1.651-0.237 3.276-0.577 4.859-0.341 1.584-0.78 3.137-1.325 4.645-0.543 1.509-1.158 2.983-1.819 4.431l4e-3 -1.028c0.191 0.444 0.31 0.788 0.431 1.176 0.124 0.379 0.22 0.757 0.316 1.136 0.179 0.76 0.331 1.524 0.406 2.294 0.097 0.768 0.14 1.541 0.151 2.311 0.022 0.771-0.021 1.539-0.066 2.307-0.03 0.383-0.082 0.763-0.123 1.145-0.035 0.383-0.094 0.761-0.167 1.137-0.069 0.377-0.128 0.755-0.209 1.129l-0.287 1.11c-0.169 0.746-0.454 1.456-0.68 2.182-0.114 0.363-0.278 0.707-0.414 1.061l-0.43 1.054 0.064-0.64c0.169 0.952 0.292 1.862 0.386 2.796 0.101 0.928 0.179 1.856 0.241 2.785 0.132 1.858 0.151 3.722 0.097 5.582l-0.066 1.395c-0.012 0.464-0.079 0.929-0.117 1.392-0.073 0.927-0.226 1.849-0.352 2.767-0.18 0.915-0.342 1.827-0.596 2.722-0.208 0.903-0.553 1.771-0.846 2.64l0.231-1.361c0.091-0.448 0.116-0.91 0.175-1.362 0.129-0.904 0.154-1.82 0.219-2.726 0.02-0.912 0.066-1.818 0.033-2.728-8e-3 -0.908-0.051-1.816-0.089-2.722-0.064-0.906-0.12-1.811-0.222-2.714-0.089-0.902-0.188-1.804-0.306-2.703-0.119-0.899-0.253-1.795-0.409-2.686-0.155-0.886-0.324-1.791-0.503-2.642l-0.062-0.293 0.126-0.347 0.359-0.993c0.113-0.333 0.255-0.657 0.345-0.996 0.18-0.678 0.421-1.34 0.546-2.029 0.162-0.681 0.29-1.366 0.391-2.055 0.063-0.343 0.112-0.687 0.138-1.034 0.032-0.346 0.076-0.691 0.098-1.037 0.03-0.693 0.062-1.386 0.032-2.078-0.019-0.691-0.066-1.382-0.161-2.063-0.081-0.684-0.21-1.358-0.354-2.024-0.079-0.329-0.159-0.662-0.259-0.98-0.089-0.312-0.214-0.659-0.307-0.889l-0.221-0.548 0.226-0.48c0.652-1.387 1.257-2.792 1.788-4.218 0.528-1.426 1.016-2.863 1.375-4.325 0.367-1.459 0.612-2.94 0.683-4.414 0.092-1.473-0.014-2.945-0.374-4.345-0.37-1.395-1.008-2.71-1.912-3.848-0.906-1.141-2.089-2.064-3.388-2.819-1.306-0.751-2.749-1.288-4.234-1.699-1.483-0.393-3.022-0.676-4.585-0.767z"/><line x1="116.75" x2="118.62" y1="36.243" y2="24.949" fill="none" stroke="#000" stroke-linecap="round" stroke-width="2"/><polyline points="116.71 30.571 118.22 21.649 110.23 20.117" fill="#fff"/><polyline points="109.38 54.321 110.89 45.399 102.9 43.867" fill="#fff"/><polyline points="122.65 23.421 125.92 14.983 118.4 11.881" fill="#fff"/><polyline points="126.54 100.3 129.59 101.05 130.86 96.034" fill="#fff"/><path d="m129.92 20.392" fill="#fff"/></svg>
