<?xml version="1.0" encoding="UTF-8"?>
<svg width="226.8px" height="226.8px" enable-background="new 0 0 226.8 226.8" version="1.1" viewBox="0 0 226.8 226.8" xmlns="http://www.w3.org/2000/svg"><rect width="226.8px" height="226.8px" fill="#fff"/><style type="text/css">.st0{fill:#FFFFFF;} .st1{fill:url(#a);} .st2{fill:none;stroke:#000000;stroke-width:2;stroke-linecap:round;} .st3{fill:none;stroke:#000000;stroke-width:0.5;stroke-linecap:round;}</style><rect class="st0" width="226.8" height="226.8"/><linearGradient id="a" x1="-255.67" x2="-217.6" y1="237.67" y2="244.78" gradientTransform="matrix(.5819 -.8133 .8133 .5819 6.4841 -176.49)" gradientUnits="userSpaceOnUse"><stop stop-color="#fff" offset="0"/><stop stop-color="#EDEDED" offset="1"/></linearGradient><polygon class="st1" points="82 199.3 111.3 146.6 88.7 137.3 80.1 118.2 73.7 104.4 68.8 109.7 56.7 118.1 19.4 140.8"/><path class="st2" d="m42.1 127.8s26.4-17.2 33.1-23"/><path class="st2" d="m169 123.1c1.2-4.8 0.1-15.9-2.8-28s-10.7-33.6-17.9-33.7c-4.9 0-9.3 4.1-13.6 4.6-4.8 0.6-10.1-2.4-14.3-1.2-4.7 1.4-7.4 6.9-11.2 8.9-4.4 2.3-10.4 1.5-13.7 4.1-4 3.2-4.5 9.4-7.1 12.4-5.4 6.3-11.2 2.3-11.1 9.2 0.1 9.3 1.6 25.7 14.5 38.8 2.7 2.7 18 8.9 22.6 8.8s8.3-3.2 8.3-3.2"/><path class="st2" d="m94.8 100.6s9.2 20 12.7 25.4c3.5 5.3 12.8 13.8 15.2 15.2s12.5 0.9 13.6-0.1"/><path class="st2" d="m113 87.5s17.9 44.8 30.6 65.3"/><path class="st2" d="m142.7 148.9s2.4 12.9 7.5 15.9c5.9 3.4 13 0.3 14.2-5.3s-1.1-14.8-4.5-18"/><line class="st2" x1="138" x2="163" y1="80.2" y2="147.1"/><path d="m172 123.6s-0.8 0.7-2 1.9c-0.6 0.6-1.3 1.2-1.9 1.9-0.4 0.3-0.7 0.7-1.1 1.1l-1.1 1.1c-0.4 0.4-0.7 0.8-1.1 1.1-0.3 0.4-0.7 0.8-1 1.1-0.3 0.4-0.6 0.7-0.9 1.1-0.3 0.3-0.6 0.7-0.8 1s-0.5 0.6-0.7 0.8c-0.2 0.3-0.4 0.5-0.6 0.7-0.3 0.4-0.5 0.6-0.5 0.6s0-0.3 0.1-0.8 0.3-1.2 0.6-2c0.2-0.4 0.3-0.8 0.5-1.2s0.4-0.9 0.7-1.3 0.6-0.9 0.9-1.3 0.7-0.9 1.1-1.3c0.8-0.8 1.6-1.6 2.5-2.2 0.4-0.3 0.9-0.6 1.3-0.8s0.8-0.5 1.2-0.6c0.8-0.4 1.5-0.6 1.9-0.7 0.7-0.1 0.9-0.2 0.9-0.2z"/><line class="st2" x1="110.3" x2="86.1" y1="149.1" y2="189.6"/><path class="st2" d="m171.7 114.7s14 13.4 11.9 20.9c-1.9 6.5-9.7 10.5-9.7 10.5"/><path class="st2" d="m173.5 145.7-5 6.4s-1 1.3-1.6 1.5-1.6-0.8-1.6-0.8"/><path d="m167.3 152 0.8-0.8s1.2-1.2 2.1-2c0.4-0.4 0.9-0.9 1.3-1.4 0.2-0.3 0.4-0.5 0.6-0.8s0.4-0.5 0.4-0.8c0-0.2-0.1-0.6-0.2-0.9s-0.3-0.7-0.5-1c-0.4-0.7-0.8-1.3-1.3-1.9-1-1.2-2.2-2.2-3.5-2.8-0.3-0.2-0.6-0.3-0.9-0.3s-0.5 0.1-0.8 0.2c-0.6 0.3-1.1 0.7-1.6 1.1-1.9 1.5-3.3 2.4-3.3 2.4s0.3-0.3 0.8-0.8 1.2-1.2 2.1-2c0.5-0.4 0.9-0.9 1.6-1.3 0.3-0.2 0.7-0.4 1.2-0.4s0.9 0.1 1.3 0.3c1.5 0.6 2.8 1.7 3.9 3 0.5 0.6 1 1.3 1.4 2.1 0.2 0.4 0.4 0.7 0.5 1.1s0.2 0.8 0.2 1.3c-0.1 0.5-0.4 0.9-0.6 1.2s-0.5 0.6-0.8 0.8c-0.5 0.5-1 0.9-1.5 1.3-0.9 0.8-1.8 1.3-2.4 1.7-0.4 0.5-0.8 0.7-0.8 0.7z"/><path d="m160.8 155.7s0.1 0 0.3-0.1 0.5-0.3 0.4-0.7c-0.1-0.8-0.8-1.8-1.6-2.9-0.9-1.1-2-2.4-3.3-3.5-0.2-0.1-0.4-0.3-0.5-0.3-0.1-0.1-0.1 0-0.2-0.1h-0.3c-0.4 0-0.8 0.1-1.3 0.2-0.9 0.2-1.7 0.6-2.5 1s-1.6 1-2.3 1.5c-0.7 0.6-1.3 1.2-1.7 1.9-0.1 0.2-0.2 0.7-0.2 1.1s0 0.8 0.1 1.2c0.1 0.8 0.3 1.5 0.6 2.2 0.4 1.4 0.9 2.5 1.2 3.2 0.3 0.8 0.5 1.2 0.5 1.2s-0.3-0.4-0.7-1.1-1-1.8-1.5-3.1c-0.3-0.7-0.5-1.4-0.7-2.2s-0.4-1.7 0-2.8c0.5-0.9 1.1-1.6 1.9-2.2 0.7-0.6 1.6-1.2 2.4-1.7 0.9-0.5 1.8-0.9 2.8-1.1 0.5-0.1 1-0.2 1.5-0.2h0.4c0.1 0 0.4 0.1 0.4 0.1 0.3 0.1 0.4 0.3 0.6 0.4 0.7 0.6 1.3 1.3 1.8 1.9s1 1.3 1.4 1.9 0.7 1.2 1 1.7c0.2 0.5 0.4 1.1 0.4 1.5 0 0.2-0.1 0.4-0.2 0.6-0.1 0.1-0.3 0.2-0.4 0.2-0.2 0.2-0.3 0.2-0.3 0.2z"/><line class="st2" x1="139.7" x2="138.3" y1="77.6" y2="83.3"/><path d="m151 161.7s0.5-0.6 1.3-1.4c0.4-0.4 0.9-0.8 1.5-1.2s1.2-0.8 1.9-1.2 1.4-0.7 2-1c0.7-0.3 1.3-0.5 1.9-0.7 0.6-0.1 1-0.3 1.4-0.3 0.3 0 0.5-0.1 0.5-0.1s-0.2 0.1-0.5 0.2-0.7 0.4-1.2 0.6c-0.5 0.3-1.1 0.6-1.7 0.9-0.6 0.4-1.3 0.7-1.9 1.1-1.3 0.8-2.6 1.5-3.6 2.1-0.9 0.6-1.6 1-1.6 1z"/><path class="st3" d="m130.7 116.7s2.7-4.5 11.5-6.5"/><path class="st3" d="m131.2 119.2s7.7-2.8 11.7-7.4"/><path class="st3" d="m151 108.1s6.2-0.1 12.7-5.1"/><path class="st3" d="m163.3 101.8s-6.2 0-12.8 4.9"/><path class="st3" d="m113.8 128.9s6.3-0.8 12.2-5.4"/><path class="st3" d="m94 135.5s6.3-0.8 12.2-5.4"/><path class="st3" d="m112.7 128.5s3.5-4 11.8-6.7"/><line class="st2" x1="92" x2="96" y1="100" y2="103.1"/></svg>
