<?xml version="1.0" encoding="UTF-8"?>
<!DOCTYPE svg  PUBLIC '-//W3C//DTD SVG 1.1//EN'  'http://www.w3.org/Graphics/SVG/1.1/DTD/svg11.dtd'>
<svg width="187.09px" height="226.77px" enable-background="new 0 0 187.087 226.771" version="1.1" viewBox="0 0 187.09 226.77" xmlns="http://www.w3.org/2000/svg"><rect width="187.09px" height="226.77px" fill="#fff"/><linearGradient id="a" x1="41.188" x2="47.938" y1="215.6" y2="192.35" gradientUnits="userSpaceOnUse"><stop stop-color="#fff" offset="0"/><stop stop-color="#EDEDED" offset="1"/></linearGradient><path d="m74.667 220.33 1.667-22 1.333-13s-13-1.334-15.333-2.667-16.334-7.999-20.334-14.333-7.667-13.334-7.667-13.334-5.334 7.333-5.667 9-3.333 7.666-6.667 14-6 12.333-7 14-4.333 8.667-4.333 8.667 22 22.001 64.001 19.667z" fill="url(#a)"/><path d="m142.03 65.106c0.062 0.169 0.136 0.331 0.17 0.516-0.03-0.195-0.092-0.363-0.17-0.516z"/><path d="m175.08 43.591c0.447-0.672-0.111-1.119-0.111-1.566-1.565-2.685-4.361-6.263-8.164-6.15-0.671-0.112-1.008 0.893-1.678 0.334v0.225c-0.895 0.334-1.9 1.008-2.908 1.454-0.447 0.224-0.67 0-0.895 0.446-4.137 1.566-8.61 4.361-12.525 7.047-0.783 0.335-1.677 1.007-2.46 1.117-3.021 2.572-6.823 4.699-10.178 6.936-0.782 0.559-1.9 1.342-2.796 1.677-7.381 5.368-14.426 10.177-21.473 16.104-0.671 1.006-1.117-0.447-1.789 0.672-1.118 0.446-2.461 0.783-3.69 1.117-1.343-1.9-0.56-4.921-0.448-7.045-0.446-0.672 0.672-1.342 0.225-1.902 1.007-1.006 0.334-2.349 0.895-3.578 0.672 0 0.223-0.895 0.336-1.118 0.447-2.013 1.565-4.362 2.124-6.375 0.335-0.671 0.224-1.679 0.896-2.237 0-1.006 0.559-2.236 0.782-3.242 0.56-0.896 0.448-2.35 1.007-3.133 0.671-2.683-0.112-5.592 1.789-8.051 0.559-2.46 1.453-4.474 2.236-6.934 0.113-0.448 0.672-1.119 0.447-1.23 0.561-0.672 0.225-1.343 0.561-2.014 0-0.559 0.783-1.006 0.559-1.565 0.447-0.447 0.336-1.23 0.447-1.79 0.224-0.56 1.342-0.895 0.672-1.566 0.224-0.894 0.559-2.125 0.67-3.243-0.111-2.013 1.23-4.25 0.112-6.151 0-1.79-1.454-2.908-2.349-4.25h-0.336c-0.783-0.559-1.901-1.007-2.684-0.895-2.237-0.783-5.592-1.118-7.605 0.112-0.446 1.118-1.453 2.237-2.124 3.131-4.586 6.822-7.046 15.545-11.072 23.039-1.901 4.921-4.362 9.842-6.598 14.874-1.342 4.474-3.802 8.946-5.592 13.086-0.895 1.118-1.006 2.683-2.013 3.354l0.111 0.111c-1.118 1.902-2.012 4.138-3.354 5.703-0.447 0.895-0.895 2.014-1.678 2.574-2.46 4.473-5.704 8.274-8.387 12.189-1.006-1.119-0.895-2.573-1.566-3.803-0.335-0.559 0-1.118-0.335-1.566l-0.224-0.111c-1.342-5.146-2.908-9.619-3.579-14.762l0.448-0.561c-0.783-1.23-0.896-2.012-1.119-3.578-0.224-0.559-1.007 0.224-0.783-0.67-0.447-0.113-0.335-0.783-0.783-0.896-1.229-2.572-3.466-4.695-5.144-6.822-1.901-1.117-3.691-2.796-5.704-3.803-3.579-2.236-7.829-2.795-11.855-2.236-0.671 0.672-1.454 0.113-2.013 0.896-1.23-0.113-2.573 1.229-3.132 2.459-0.112 0.225 0 0.895-0.559 0.783 0 0.895 0.112 1.9-0.223 2.684 0.111 0.447 1.006 0.783 0.447 1.23l0.56 0.113c2.684 3.131 6.263 6.485 9.17 8.945 0 0.336 0.336 0.672 0 0.895 0.448 3.691 0.671 7.605 1.119 11.743-0.112 0.112-0.112 0.224-0.224 0.224 0.447 0.783 0.335 1.453 0.335 2.46 0.112 0.896 0.336 1.678 0.112 2.573 0.335 3.803 0.783 6.933 0.671 10.512 1.007 14.428 0.56 26.729-1.23 40.597-0.447 3.354-0.895 6.487-1.454 10.065-1.007 1.006-1.007 2.684-1.677 3.913-0.896 2.574-1.007 5.816-2.908 7.941-0.224-0.335-0.671-0.447-1.006-0.223-0.56 1.006 0.559 1.9 0.447 2.907 6.599 15.88 22.927 28.406 40.261 28.741 1.007 1.119 1.79-0.559 2.796 0l-0.224 0.336c-1.006 3.467-0.671 7.941-1.454 11.407 0 0.783-0.111 1.566-0.111 2.237-0.426 5.042-0.886 10.01-1.359 14.919 0.804-0.366 1.603-0.737 2.397-1.111 0.377-3.674 0.69-7.367 1.087-11.236 0.447-4.474 0.671-8.61 1.565-12.861 0.336-1.229 0-3.019 0.56-4.249-0.447-1.565-1.901-0.112-2.796-0.783-0.111-1.565 0.224-3.132 0.336-4.809 1.006-1.007-0.224-2.796 1.006-3.69-0.224-0.336 0-0.447 0.224-0.671-0.336-0.783 0.447-1.566 0.67-2.35 1.007 0 1.79-1.118 2.685-0.67l0.223-0.56c3.355-1.901 6.151-3.69 9.507-5.815 1.678-1.007 3.355-2.349 4.92-3.579 1.23-0.335 2.126-1.678 3.468-2.124 1.118-1.007 2.572-2.014 3.801-3.132 1.566-1.119 3.021-2.797 4.81-4.026 2.014-2.796 4.921-5.256 7.046-8.163 0.671-1.344 2.125-2.126 3.355-2.796 1.006-0.783 2.572-2.014 2.348-3.469 1.455-1.453 2.908-3.018 3.803-4.809 1.789-1.788 3.02-3.802 5.145-4.92 0.336-1.007 1.454-1.566 2.237-2.35 1.453-2.348 3.354-4.809 4.025-7.604 0.56-2.461-0.56-4.921-1.679-7.045-0.781-0.783-1.34-2.35-2.906-2.014-0.895 1.566 0.225 3.02 1.229 4.25 0.112 0.671 1.23 1.343 0.448 2.125 0.335 1.566-0.111 2.908-0.671 4.362-0.224 0.223-0.337 0.334-0.224 0.67-1.118 1.565-2.236 3.132-3.58 4.473-0.111 0.113-0.223 0.672-0.67 0.672-1.455 1.343-2.908 3.132-4.361 4.361-0.672 1.231-1.789 2.461-2.686 3.579-0.223 0.895-0.781 1.79-1.229 2.685-0.559 0.111-1.007 0.335-0.894 1.006-0.56 0.783-1.455 1.79-2.35 2.014-0.782 1.23-2.572 1.119-3.243 2.572-0.447 0.894-1.342 1.789-1.79 2.684-3.801 4.138-7.045 8.388-11.63 11.52-0.448 0.112-1.007 0.224-1.007 0.782-3.242 2.46-6.935 4.697-10.401 7.27-2.908 1.901-6.039 4.138-9.059 5.48l-0.111-0.336c-0.224-0.559-0.895-0.783-1.566-0.783-1.118 0.783-1.23 2.125-1.79 3.244-0.335 0.335-0.783 0-1.006 0.56-0.56 0.67 0.447 0.559 0.671 0.895-0.559 3.242-1.342 6.934-1.342 10.399-4.25-0.447-8.164-1.117-12.078-2.684-2.013-0.336-3.579-1.678-5.48-2.237-9.059-4.695-17.446-13.756-21.361-23.148 0.224-0.225 0.335-0.448 0.559-0.225 1.454-0.335 1.566-2.013 1.901-3.244 0.112-0.782 0.895-1.117 0.671-2.124 0.224-0.336 0.783-1.006 0.448-1.455 0.559-1.899 1.677-3.801 1.789-5.813 0.112-0.224 0.448-0.56 0.112-0.783 0.447-1.342 0.224-3.244 1.006-4.697 0.224-2.908 0.895-5.816 1.119-8.612-0.224-1.005 0.559-2.013 0.336-2.907 0.111-1.23 0.559-2.013 0.335-3.354 0.112-3.021 0.895-6.264 0.671-9.171 0-1.007-0.112-2.237 0.335-3.132-0.56-3.02 0-5.926-0.224-8.723l-0.112-0.112 0.335-0.335-0.224-0.336c0-2.795-0.112-5.705-0.447-8.387 0.447-0.672-0.336-1.231 0.111-1.791-0.335-3.131-0.223-6.15-0.782-8.947 0.447-0.67-0.448-1.453 0.111-2.012-0.671-1.789-0.447-4.026-0.559-6.039-0.448-0.783 0-1.9-0.448-2.908 0.112-0.225 0.56-0.559 0-0.783-0.111-0.447 0-1.006 0.224-1.341-0.447-1.118-0.224-2.015-0.56-3.132 1.006-3.02-2.46-4.81-4.026-6.822-0.559-1.007-1.9-1.23-2.348-2.461-0.895-0.335-1.678-1.342-2.013-2.236-0.56-0.335-1.343-0.783-1.566-1.453-0.224-1.119 0.559-2.461 1.566-3.467 0.447-0.113 1.118-0.56 1.677-0.113 0.112-0.783 1.119-0.335 1.566-0.783 4.361 0 8.723 1.79 12.189 4.586 3.355 2.237 6.151 5.816 8.612 9.059 0.895 4.139 1.454 7.828 2.572 11.967 0.783 2.685 1.79 5.48 2.237 8.164 0.895 1.342 1.23 3.244 2.236 4.697l-0.782 1.566c-0.336 0.559-0.895 1.229-0.895 1.789-0.112 0.111-0.223 0.336-0.559 0.223-0.112 0.336 0.111 0.561 0.336 1.007 0.447-0.446 1.454 0.224 1.118-0.671 0.112-0.336 0.559-0.895 0.782-0.67v-0.225c0.56-0.225 0.671-0.895 1.118-1.453 0.448-0.672 1.343-0.224 1.566-1.118l-0.56-0.337c2.237-4.025 5.48-7.27 7.605-10.959 2.46-3.132 4.474-6.936 6.822-10.4 5.815-10.736 9.729-22.703 15.322-33.663-0.112-0.448 1.006-0.448 0.334-1.007 2.126-5.033 4.475-9.953 6.936-14.874 0.111-0.559 0.447-1.342 1.006-1.342l0.447 1.789c0.447 2.685 3.467 2.46 5.369 3.243 3.689 1.231 4.695-3.019 6.374-4.808-0.112 2.46-0.224 4.697-1.23 7.045-0.448 0.559 0.112 1.454-0.56 1.789-0.559 3.131-1.788 5.928-2.795 8.835-0.225 2.348-1.343 4.026-1.902 6.375-1.229 11.07-8.163 20.914-7.27 32.656-0.11 0.559 0.672 1.119 0 1.565l0.225 0.112c-1.008 0.67-0.783 1.788-0.56 2.684 1.678 0.111 3.466-0.336 5.145-1.006 7.269-3.691 12.974-9.06 19.907-13.869 0.895 0.225 0.783-1.117 1.566-0.782 1.677-1.565 3.578-2.907 5.59-3.915 0.896 0 0.561 0.783 0.561 1.23 0.895 1.79 2.46 3.243 3.689 4.92h0.337c0.29 1.357 1.669 1.625 2.179 2.617-0.351-0.969-1.099-1.742-1.957-2.504-1.005-1.901-3.018-3.355-3.465-5.48 1.006 0.783 2.013 1.678 3.02 2.461-0.783-1.453-2.236-2.461-3.691-3.355-0.111 0-0.447 0.224-0.672 0 6.04-4.139 12.303-8.053 18.342-11.855 3.243-1.564 6.486-3.466 9.73-4.809 0.895-0.447 2.014-1.342 2.796-0.67-1.901 0.67-3.804 1.789-5.368 3.466-1.007 1.118-2.237 2.237-2.349 3.69l0.448-0.445 0.67 0.559c0.559 2.123 2.461 3.578 4.25 4.696 2.684-0.224 4.92-1.454 7.381-2.349 0.336 0.112 0.112 0.672 0.447 0.559 0.559-0.223 0.113-1.006 0.783-1.118l0.224 0.112c-1.118 2.35-3.132 3.467-5.146 5.256l-0.111-0.111c-0.111 0.335-0.335 0.447-0.67 0.67-0.896 0.783-2.35 1.79-3.244 2.461-1.006 0.447-1.9 1.566-3.02 2.014-1.118 0.672-2.124 1.901-3.355 2.795-0.895 0-1.23 0.896-1.9 1.119-1.566 1.119-2.908 2.572-4.697 3.691l-0.783-0.225c-2.125 1.454-3.803 3.803-6.263 5.145-2.46 2.572-5.703 3.354-8.276 5.704-0.223-0.112-0.447-0.448-0.559-0.56-0.56 0.672-1.566 1.342-2.013 2.014-2.237 2.124-4.138 3.579-6.487 5.479-0.446 0.896-1.342 1.344-2.013 2.126-0.446 0.895-1.677 0.448-1.79 1.453-0.111 0.225-0.111-0.11-0.223 0-1.23 1.566-3.244 3.021-4.586 4.362-0.67-0.112 0 0.783-0.783 0.561-0.223 0.894-0.894 0.894-0.782 1.9 0.448 0.446 1.343 0.446 1.789 0.335 2.35-1.677 4.474-3.243 7.158-4.249 0.448 0.447 1.229 0.447 1.453 1.117 1.118 0.672 2.237 1.566 3.021 2.573 0.336 1.005 1.566 1.563 1.006 2.571h0.224c0.896 0.895-0.335 2.125 0.783 2.686l0.224 2.795c-0.335 1.789 0.111 4.361-1.342 5.928-1.566 0.445-2.572 1.677-4.25 1.9-1.118 1.006-2.908 1.566-4.139 2.46-1.006 0.337-2.013 1.118-3.131 1.118-0.335 0.337-1.007 0.896-0.67 1.343-0.561 0.672 0.781 0.559 0.781 1.23 1.007-0.672 2.125-0.783 2.908-1.79 2.014-0.894 3.355-2.012 5.368-2.684 1.007-0.895 2.573-1.342 3.467-2.35 1.454 0.561 1.677-0.894 2.573-1.564 2.012-3.803 1.006-7.94 0.223-12.08-0.336-0.559-1.006-1.117-0.782-1.788-0.224-0.11-0.447 0-0.337-0.335-1.677-1.566-2.795-3.58-5.032-4.362-1.229 0.224-0.895-1.118-1.899-1.229 2.906-2.908 6.821-5.705 9.729-8.723 1.23-0.447 2.236-1.23 3.354-1.455 0.448-0.895 1.677-1.006 2.237-1.565 2.014-1.118 3.914-2.908 5.928-4.026 0.67-0.895 1.678-1.565 2.459-2.349 1.679-1.677 4.251-3.02 6.152-4.585 2.795-1.678 5.703-4.026 8.5-5.703 4.025-4.139 11.07-5.816 11.967-12.526l-0.558-3.021z"/><path d="m114.35 9.033c0.782 0 0.895 0.895 1.678 0.783 0.783 0.894 1.342 2.237 1.006 3.578-1.006 1.566-2.461 3.244-3.69 4.698-1.79 1.341-3.803-0.448-5.704-0.783-2.124-1.566-1.341-4.697-0.67-6.822 0.67-1.229 2.013-1.342 3.243-1.119 0.895-0.223 1.677 0.225 2.349 0.56 0.111 0 0.111-0.111 0.111-0.224-1.006-0.895-2.684-1.118-3.803-0.895 0.895-0.56 2.684-0.895 3.803-0.112 0.335 0.783 1.116 0 1.677 0.336z" fill="#fff"/><path d="m116.59 12.947c-1.006-1.342-2.125-2.46-3.802-3.02 0.224-0.224 0.894 0 1.229 0.224 1.119 0.447 2.35 1.678 2.573 2.796z"/><path d="m100.6 36.88c-1.678 0.111-3.58-1.455-4.586 0.336 0 0.895 1.119 0.671 1.566 1.23 2.684 0.783 5.369 1.9 7.717 2.795 0 0.448-0.56-0.224-1.008-0.111-2.684-1.23-5.927-1.677-8.609-3.02-0.337-0.224-0.561-0.67-0.225-0.895 0.111 0 0.225 0.225 0.447 0.111-0.111-0.67 0.783-1.119 1.342-1.343 1.118 0.338 2.35 1e-3 3.356 0.897z"/><path d="m101.38 37.104-0.561-0.224 0.112-0.223c0.338 0.223 0.449 0 0.449 0.447z"/><path d="m103.28 37.55v0.225c-0.112-0.225-0.335-0.225-0.56-0.225 0.225-0.11 0.448-0.223 0.56 0z"/><path d="m104.96 38.11h-0.447c0.223-0.223 0.335-0.111 0.447 0z"/><rect x="105.52" y="38.333" width=".111" height=".225"/><path d="m170.05 42.808c0.559 1.453 1.229 3.131 1.229 4.809-0.783 0.783-2.126 0.447-3.021 1.23-1.564 0.223-3.242 1.006-4.809 0.446-1.566-1.342-2.572-3.019-3.579-4.696 1.231-2.349 3.915-3.69 6.264-4.809 0.446-0.111 0.782 0.111 1.229 0.447 0.225-0.336 0.336-0.782 0.111-1.119l-0.335-0.223c1.344 1.006 2.014 2.572 2.911 3.915z" fill="#fff"/><path d="m172.84 45.491c0.11 0.447 0.335 1.23 0 1.677-0.225 0.337-0.448 0.337-0.783 0.225-0.672-3.021-1.118-5.703-2.796-8.163 1.789 1.341 3.914 3.578 3.579 6.261z" fill="#fff"/><polygon points="108.09 39.899 107.53 39.453 107.86 39.677"/><path d="m108.42 40.347 0.113 0.448-0.113-0.448z"/><rect x="108.98" y="40.683" width=".112" height=".224"/><polygon points="105.96 41.689 105.96 41.576 106.3 41.689"/><path d="m135.04 60.926c0.783 2.683 3.243 5.255 5.031 7.716-1.005-0.895-2.012-1.902-2.57-3.02-1.006-0.223-0.225-1.23-1.343-1.342-0.896-1.901-2.013-3.691-1.342-5.704 0.335 0.56-0.223 1.567 0.224 2.35z"/><path d="m140.74 60.926c-0.336 0-0.673-0.672-0.783-1.007l0.783 1.007z"/><polygon points="134.48 61.484 134.37 60.926 134.48 61.261"/><polygon points="141.42 62.155 140.97 61.372 141.42 62.044"/><path d="m143.43 66.964c-0.671-0.335-0.224-1.453-0.671-2.125 0.558 0.56 0.447 1.455 0.671 2.125z"/><rect x="133.59" y="66.964" width=".112" height=".224"/><path d="m33.046 156.77c-0.224-1.007-1.901-1.454-2.349-0.336-0.67 1.901-1.566 3.243-2.013 5.146-0.671 0.782-0.671 1.899-1.343 2.796-0.223 1.341-0.894 2.459-1.229 3.69-2.349 4.92-4.474 9.729-7.27 14.314-1.721 3.586-3.445 7.032-5.402 10.4 0.212 1.152 0.424 2.306 0.651 3.45 0.817-1.304 1.599-2.605 2.291-3.896 0.56-1.342 1.342-2.461 2.125-3.803 0.112-0.896 0.895-1.566 1.118-2.349 0.56-0.56 0.56-1.566 1.23-2.014 1.23-2.684 2.349-5.256 3.915-7.829 0.671-1.678 1.565-3.019 2.125-4.695 0.112-0.561 1.006-0.561 0.671-1.119 0.783-1.455 1.454-3.243 2.013-4.585 0.112-0.336 0.112-0.896 0.671-0.783l-0.112-0.671c0.671-1.008 0.671-2.461 1.677-3.467 0.225-1.342 1.12-2.796 1.231-4.249z"/></svg>
