<?xml version="1.0" encoding="UTF-8"?>
<!DOCTYPE svg  PUBLIC '-//W3C//DTD SVG 1.1//EN'  'http://www.w3.org/Graphics/SVG/1.1/DTD/svg11.dtd'>
<svg width="276.67px" height="226.77px" enable-background="new 0 0 276.667 226.771" version="1.1" viewBox="0 0 276.67 226.77" xmlns="http://www.w3.org/2000/svg"><rect width="276.67px" height="226.77px" fill="#fff"/><linearGradient id="b" x1="33.302" x2="53.635" y1="210.15" y2="171.81" gradientUnits="userSpaceOnUse"><stop stop-color="#fff" offset="0"/><stop stop-color="#EDEDED" offset="1"/></linearGradient><path d="m33.94 145.41s7.806 20.612 14.433 22.005 16.744 5.345 16.744 5.345l7.336 0.478-7.453 46.57s-55.667-4.334-56.667-32l20.333-32.667 5.274-9.731z" fill="url(#b)"/><linearGradient id="a" x1="120.37" x2="140.97" y1="202.77" y2="163.93" gradientTransform="matrix(.9002 .4356 -.4356 .9002 93.557 -42.919)" gradientUnits="userSpaceOnUse"><stop stop-color="#fff" offset="0"/><stop stop-color="#EDEDED" offset="1"/></linearGradient><path d="m145.46 136.98s-1.724 10.722 3.043 16.902c4.135 5.361 13.107 21.297 13.107 21.297l0.564 2.339-28.271 34.758s-41.113-22.946-29.962-48.285l32.532-20.549 8.987-6.462z" fill="url(#a)"/><path d="m106.8 91.121c-1.753-1.274-3.428-3.27-5.661-3.11-1.115 1.755 1.435 1.437 1.994 2.634 1.754 0.875 3.029 2.391 4.464 3.906l0.079 0.238c0.958 0.877 0.4 2.073 0.32 3.189-1.834 5.821-4.146 11.48-6.778 16.902h-0.479c-0.795 1.914-0.716 3.827-1.116 5.902-0.08 0-0.08-0.08-0.159-0.08l0.159 0.637c-0.558 2.311-0.957 4.703-1.674 7.018-0.081 0 0.159 0.318-0.081 0.318-1.356 5.422-3.429 10.764-6.219 15.707-0.081 0.32-0.638 0.559-0.479 0.797-3.667 5.9-8.372 11.086-12.997 16.186-0.24-0.236 0-0.717-0.399-0.875-0.478-0.159-0.956 0.158-1.195 0.557-1.198 2.711-2.152 5.502-3.429 8.213 0.159 1.436-0.638 2.87-1.036 4.307-2.073 0.397-4.625-0.08-6.699-0.08l-0.638-0.397c-3.269-0.56-6.299-1.595-9.249-2.87-8.292-3.43-15.469-10.686-18.977-18.979-0.24-0.797-0.878-1.516-0.878-2.232-0.636-1.037-0.875-2.232-0.957-3.346 0.957-0.162 1.037-1.039 1.755-1.598 0.637-1.354 1.354-2.789 2.153-4.146 0.717-2.392 1.594-4.545 1.914-7.176 0-0.318 0.478-0.559 0.159-0.877l0.957-4.705c0.238-0.477 0.238-1.355 0.397-2.073 0.719-3.827 1.198-7.574 1.756-11.321 0-3.029 0.637-5.74 0.797-8.611 0.24-0.318 0.478-0.957 0.24-1.514 0.478-3.35 0.796-6.857 0.796-10.128 0.319-0.397 0.24-0.956 0.319-1.354 0.239 0.318 0.159 0.877 0.557 1.036l0.718-0.479c-0.158-2.391-0.557-4.704-0.398-6.938 0.24-2.868 0.478-5.899 2.232-8.211-0.239-0.877 0.638-1.275 0.717-2.152 3.748-7.975 5.502-16.664 7.894-25.196 0.159-1.435 1.355-0.079 2.073-0.239 0.559 0.16 1.196 0.559 1.834 0.16 0.24 0.479 0.558 0.079 0.958 0.318 0.479-0.079 1.037 0 1.434 0.16l1.834-0.08 0.081-0.159c-0.958 0-1.435 0-2.312 0.079-0.479-0.559-1.276-0.318-1.913-0.559-0.399 0.319-0.878-0.158-1.356 0-0.638-0.558-1.515-0.479-2.153-1.036 0.4-0.956 0.559-1.993 1.037-2.95 0.398-0.32 1.036 0 1.516 0.16l0.159-0.239c0.4 0.558 1.037 0.239 1.357 0.397-0.64-0.397-1.595-0.397-2.313-0.718-0.239-0.079-0.398 0.241-0.557-0.079 1.991-5.819 3.825-11.561 6.457-17.143l-0.08-0.24c1.198-3.507 2.392-7.016 3.429-10.604 0.318-0.479 0.557-1.196 1.196-1.276l-0.719 2.473c-0.08 0.398-0.239 0.956-0.08 1.274-0.317 0.878-0.317 1.994-0.478 2.872 0.239 0.796-0.718 1.116-0.16 1.754 1.833 0.239 3.269 1.913 5.183 2.152 2.631-0.239 2.87-3.189 3.907-4.942 0.399-0.639 0.718-1.516 1.197-2.074l0.159 0.159c-1.436 6.857-2.153 13.873-4.465 20.333-0.239 1.355-1.118 2.471-0.957 3.906 0.24-0.158 0.24-0.479 0.479-0.638 2.392-6.06 4.543-12.278 5.66-18.896 0.081-0.638 0.32-1.437-0.158-1.993l0.239-2.791h0.159c0.479-0.16 0.797-0.878 0.797-1.436 0.878-1.116 1.834-2.472 3.03-2.951l0.398 0.079c0.479-0.637 1.356-0.397 1.993-0.717 0.401 0.08 0.959 0.239 1.437 0.16 1.993 0.079 4.306 1.275 5.184 3.189-1.037-0.717-2.153-1.515-3.43-1.674-0.08 0.238-0.318 0-0.478-0.079-0.56 0.159-1.516-0.32-1.993 0.159 0.239 0.079 0.557-0.08 0.557 0.317v-0.159c1.673-0.238 3.509 0.878 4.625 2.232 0.797 1.116 0.221 2.435 0.061 3.55-0.876 1.195-1.396 2.949-2.353 3.987-2.313-0.558-5.72-0.755-7.952-1.95-0.957-1.355-0.096-3.717 0.063-5.152-0.078-0.957 1.33-1.551 1.01-2.508l-0.877 0.957c0 0.239 0 0.479-0.24 0.639-0.317 1.674-0.796 3.588-0.317 5.502-0.241 0.238-0.4 0.318-0.4 0.717 2.312 1.437 5.102 0.878 7.815 1.595 0.318 0.159 0.637-0.239 0.876 0 0 0.079 0 0.239-0.079 0.239l0.875-0.08c1.038-2.073 1.914-4.226 2.871-6.299 1.116 5.741-1.993 10.845-2.79 16.266-1.994 7.495-2.872 14.83-5.183 22.166-0.399 1.436-0.478 3.029-1.037 4.385-1.037 6.061-1.834 12.279-2.313 18.34l0.08 0.159c0.082 0.159 0.082-0.079 0.159 0 0.082-0.318 0.24-0.318 0.399-0.56 1.277-4.543 1.435-9.246 2.312-13.953l0.317-0.318c0.958-4.703 2.154-9.487 3.43-14.19 1.117-3.271 1.276-6.859 2.153-10.207-0.081-0.638 0.159-1.356 0.398-1.913 0.878-5.662 3.429-10.924 3.908-16.826 0.719-1.593-0.319-2.948-0.239-4.544-0.479-0.797-0.877-1.674-1.197-2.55h-0.238c-0.718-0.879-1.754-1.754-2.791-2.313-2.233-0.558-4.385-1.116-6.619-0.24-1.355 0.08-2.232 1.595-3.347 2.472l-0.958-1.435c-1.436-1.514-3.827-1.196-5.662-1.594-1.195 0.398-2.232 0.318-3.428 0.557-0.957 0.479-2.073 1.436-2.552 2.472-1.595 5.023-3.268 10.126-5.422 14.911-0.876 2.55-2.312 5.021-2.869 7.654-0.479 0.158 0 0.798-0.479 1.035-0.318 2.074-1.436 3.668-1.914 5.661-0.319 0.32-1.117 0.159-1.277 0.718 0.319 0 0.64-0.318 0.958-0.397 0.16 0.956-0.56 1.595-0.56 2.472-0.637 0.876-0.556 1.992-0.956 2.949-2.392 6.619-3.189 13.555-5.98 19.934-0.877 2.393-1.675 4.783-3.188 6.938-1.356 3.827-1.834 8.372-1.276 12.52-0.318 0.08-0.558-0.32-1.036-0.082-0.479 2.393-0.4 5.422-0.479 7.813-1.674 13.078-2.79 26.632-6.138 39.229l-0.24 0.16c-0.639 1.595-1.196 3.27-2.233 4.783-0.318 1.036-1.435 1.436-1.435 2.631 0.398 3.111 1.754 6.221 3.029 9.091 2.313 5.263 6.22 9.888 10.925 13.474 0.638 0.24 1.117 1.038 1.833 1.117 0.479 0.639 1.277 0.876 1.915 1.277 0.399 0.157 0.717 0.637 1.195 0.476 0.4 0.718 1.198 0.641 1.754 1.118 0.161 0.157 0.559-0.159 0.559 0.24l0.16-0.161c0.24 0.239 0.557 0.639 1.036 0.479 0.397 0.478 1.195 0.557 1.833 0.877 0.319 0.159 0.717 0 0.877 0.238 1.674 0.318 3.27 1.115 5.182 1.196 2.153 0.638 4.705 0.479 7.017 0.798 0.399 0.318 0.082 0.797 0.082 1.274 0 0 0.397-0.079 0.317 0.241-0.158 0.079-0.24 0.318-0.478 0.318-0.32 2.154-0.639 4.306-1.196 6.379-0.318 2.232-0.957 4.145-1.116 6.299l-0.161 0.08c-1.422 7.195-2.375 13.845-3.402 20.879 0.284 0.385 0.578 0.764 0.872 1.139 1.886-11.274 4.1-22.465 6.2-33.979 0.478-1.197 0.638-2.631 1.117-3.51-0.08-0.158-0.397-0.316-0.32-0.558 0.081-0.159 0.399-0.478 0.477-0.397 0.32-1.914 1.118-3.986 1.836-5.822 1.675-3.268 4.464-5.979 6.856-8.77 2.393-2.312 4.466-5.582 6.778-7.813l-0.08-0.238c3.429-4.386 5.9-9.329 7.814-14.433 2.233-5.9 3.667-12.359 4.305-19.137 0.158-0.479 0.719-0.717 0.719-1.275 2.073-2.951 3.109-6.219 4.465-9.489 1.276-3.348 3.269-6.538 3.347-10.365 0.566-2.232-1.827-3.509-3.024-5.103z" stroke="#1A171B" stroke-width=".97"/><path d="m79.934 16.889c0.239 0 0.717 0.08 0.956-0.159-0.478 0.798-0.798 1.675-0.956 2.631-0.479-0.239 0.239-1.036-0.161-1.435l-0.478 0.558c-0.877-0.718-1.754-1.675-2.553-2.312-0.638 0.08-1.036-0.638-1.595-0.159-0.876-0.239-2.071-0.159-2.869 0.159-0.319-0.079-0.319 0.399-0.637 0.399 0.397 0.318 0.797-0.079 1.195-0.079v-0.159c2.311-0.081 4.544 0.876 5.979 2.869-1.116 2.232-2.47 4.465-3.906 6.459-1.037-0.319-2.153-0.4-2.95-1.116-0.718-0.24-1.356-0.638-2.072-0.718-0.241-2.711 0.478-5.343 1.354-7.734 0-0.159-0.159-0.319-0.08-0.479 0.797-0.398 1.754-0.797 2.711-0.558 1.196-0.559 2.552-0.08 3.749 0.08 0.957 0.317 1.595 0.956 2.313 1.753z" fill="#fff"/><path d="m87.109 16.491h-0.398l0.081-0.08c0.078 0.08 0.237 0 0.317 0.08z" stroke="#1A171B" stroke-linecap="square" stroke-miterlimit="2" stroke-width=".97"/><path d="m85.594 16.809v-0.317h0.559c0 0.237-0.401 0.157-0.559 0.317z" stroke="#1A171B" stroke-linecap="square" stroke-miterlimit="2" stroke-width=".97"/><path d="m84.877 16.809c-0.477 0.24-0.957 0.56-1.516 0.719 0-0.479 0.639-0.239 0.639-0.719 0.239 0.479 0.557-0.08 0.877 0z" stroke="#1A171B" stroke-linecap="square" stroke-miterlimit="2" stroke-width=".97"/><path d="m74.591 44.875c-0.158 1.197-0.956 1.994-1.276 3.189 0.24 0.24 0.559 0.161 0.797 0.24 0-0.079-0.079 0.239 0.081 0.318 0.158-0.079 0.319-0.318 0.398 0-0.158 0.479-0.557-0.239-0.717 0.239-0.478-0.079-0.878 0.079-0.957 0.558l-0.638 3.11c0 0.478 0.558 0.159 0.798 0.478-0.082 0.079 0 0.16 0 0.24-0.399 0.08-0.559-0.479-0.957-0.24-0.32 0.479-0.081 0.959-0.24 1.516-2.072 7.174-3.986 14.512-5.98 21.768 0.399 1.116-0.639 1.834-1.355 2.551-0.399 0.079-0.718 0.158-1.118 0.079-0.397-0.318-0.157-0.875 0-1.274 0.4-1.037 1.755-1.275 1.834-2.553 1.995-9.01 5.264-17.7 6.619-26.71 0.798-1.116 1.037-2.792 1.993-3.827 0.239-0.079 0.56 0.08 0.718 0.318z" stroke="#1A171B" stroke-miterlimit="2" stroke-width=".97"/><path d="m63.827 46.631c-0.479-0.24-0.957-0.08-1.355-0.4 0.398 0.4 1.196-0.239 1.355 0.4z" stroke="#1A171B" stroke-linecap="square" stroke-miterlimit="2" stroke-width=".97"/><path d="m65.502 47.028v0.239c-0.319-0.16-1.197-0.239-1.277-0.637 0.4 0.079 0.878 0.477 1.277 0.398z" stroke="#1A171B" stroke-linecap="square" stroke-miterlimit="2" stroke-width=".97"/><path d="m66.06 47.347v0.081-0.081z" stroke="#1A171B" stroke-linecap="square" stroke-miterlimit="2" stroke-width=".97"/><polygon points="66.777 47.985 66.299 47.507 66.777 47.667" stroke="#1A171B" stroke-linecap="square" stroke-miterlimit="2" stroke-width=".97"/><rect x="75.069" y="48.226" width=".079" height=".079" stroke="#1A171B" stroke-linecap="square" stroke-miterlimit="2" stroke-width=".97"/><path d="m76.346 48.544h0.159-0.159z" stroke="#1A171B" stroke-linecap="square" stroke-miterlimit="2" stroke-width=".97"/><path d="m76.982 49.021c-0.557 0.319-1.275 0-1.992-0.238v-0.16c0.638 0 1.356 0.318 1.992 0.398z" stroke="#1A171B" stroke-linecap="square" stroke-miterlimit="2" stroke-width=".97"/><polygon points="76.982 48.623 76.903 48.623" stroke="#1A171B" stroke-linecap="square" stroke-miterlimit="2" stroke-width=".97"/><rect x="77.622" y="48.702" width=".079" height=".081" stroke="#1A171B" stroke-linecap="square" stroke-miterlimit="2" stroke-width=".97"/><rect x="78.418" y="48.941" width=".08" height=".08" stroke="#1A171B" stroke-linecap="square" stroke-miterlimit="2" stroke-width=".97"/><path d="m77.78 49.262c-0.158 0.158-0.558 0-0.478-0.16 0.16 0.397 0.478-0.319 0.478 0.16z" stroke="#1A171B" stroke-linecap="square" stroke-miterlimit="2" stroke-width=".97"/><path d="m78.339 49.42c0.318-0.318 0.478 0 0.559 0.239-0.32-0.079-0.879-0.079-0.797-0.558 0.317-0.08 0.158 0.161 0.238 0.319z" stroke="#1A171B" stroke-linecap="square" stroke-miterlimit="2" stroke-width=".97"/><path d="m80.252 49.659h0.24-0.24z" stroke="#1A171B" stroke-linecap="square" stroke-miterlimit="2" stroke-width=".97"/><path d="m80.492 49.979c-0.16 0.239-0.638 0.08-0.719-0.16l0.719 0.16z" stroke="#1A171B" stroke-linecap="square" stroke-miterlimit="2" stroke-width=".97"/><path d="m83.521 49.898 0.32 0.24-0.32-0.24z" stroke="#1A171B" stroke-linecap="square" stroke-miterlimit="2" stroke-width=".97"/><path d="m67.256 50.297h-0.159c0-0.079 0.08-0.079 0.159-0.079v0.079z" stroke="#1A171B" stroke-linecap="square" stroke-miterlimit="2" stroke-width=".97"/><path d="m81.369 50.378v0.159l-0.479-0.319c0.16 0.079 0.239 0.16 0.479 0.16z" stroke="#1A171B" stroke-linecap="square" stroke-miterlimit="2" stroke-width=".97"/><polygon points="84.081 50.537 84 50.457 84.081 50.457" stroke="#1A171B" stroke-linecap="square" stroke-miterlimit="2" stroke-width=".97"/><rect x="81.687" y="50.537" width=".161" height=".08" stroke="#1A171B" stroke-linecap="square" stroke-miterlimit="2" stroke-width=".97"/><path d="m84.797 51.494c-0.159 0.079-0.32-0.24-0.32-0.479 0.32 1e-3 0.161 0.399 0.32 0.479z" stroke="#1A171B" stroke-linecap="square" stroke-miterlimit="2" stroke-width=".97"/><polygon points="83.361 51.494 83.123 51.254 83.282 51.254" stroke="#1A171B" stroke-linecap="square" stroke-miterlimit="2" stroke-width=".97"/><path d="m74.034 53.328v0.079h-0.242v-0.159c0.082 0 0.161-0.08 0.242 0.08z" stroke="#1A171B" stroke-linecap="square" stroke-miterlimit="2" stroke-width=".97"/><path d="m74.272 53.407h0.079-0.079z" stroke="#1A171B" stroke-linecap="square" stroke-miterlimit="2" stroke-width=".97"/><rect x="74.751" y="53.407" width=".08" height=".159" stroke="#1A171B" stroke-linecap="square" stroke-miterlimit="2" stroke-width=".97"/><path d="m75.945 53.726v0.079l-0.317-0.158c0.08 0.079 0.159 0.079 0.317 0.079z" stroke="#1A171B" stroke-linecap="square" stroke-miterlimit="2" stroke-width=".97"/><polygon points="77.701 53.967 77.78 53.885 77.86 53.885" stroke="#1A171B" stroke-linecap="square" stroke-miterlimit="2" stroke-width=".97"/><rect x="79.854" y="53.967" width=".159" height=".079" stroke="#1A171B" stroke-linecap="square" stroke-miterlimit="2" stroke-width=".97"/><path d="m81.29 54.125c0 0.239-0.24 0.08-0.4 0.16 0.16-0.08 0.239-0.16 0.4-0.16z" stroke="#1A171B" stroke-linecap="square" stroke-miterlimit="2" stroke-width=".97"/><path d="m102.02 81.473c-0.08 0.877 0.237 2.074-0.239 2.632-0.16 1.354-1.038 2.393-1.276 3.668-2.233 3.509-4.545 7.256-7.334 10.285-0.399 0.159-0.559 0.718-1.037 0.639-0.24-0.479 0.159-0.957 0.239-1.435 2.631-4.386 6.299-8.612 7.894-13.476 0.079-0.798 0.398-1.595 0-2.313l0.159-0.158c-1.355-2.553-2.871-5.423-5.742-6.697-1.434 0.717-3.028 1.593-4.303 2.551-0.958 0.957-2.474 1.674-3.271 2.789-1.993 1.357-3.109 3.59-5.102 4.706-0.717-0.159-0.159-0.479-0.159-0.956 2.791-4.227 7.415-7.336 11.481-9.968 2.472-0.399 4.465 1.354 6.06 3.269 0.953 1.434 1.991 2.869 2.63 4.464z" stroke="#1A171B" stroke-linecap="square" stroke-miterlimit="2" stroke-width=".97"/><path d="m21.409 167.03c3.747-5.98 7.415-11.801 11.002-17.94 0.16-1.195 1.355-1.993 1.196-3.348-0.238-0.399-0.797-0.479-1.275-0.399-2.153 4.467-4.704 8.852-7.256 13.078-0.398 1.434-1.754 2.152-2.154 3.588-0.636 0.637-1.274 1.594-1.752 2.391-0.798 1.275-1.675 2.791-2.632 3.988-0.399 0.875-1.275 1.514-1.595 2.471-0.311 0.402-0.621 0.835-0.932 1.284 0.309 0.401 0.617 0.806 0.928 1.206 0.443-0.654 0.891-1.309 1.36-1.932 1.037-1.356 1.913-3.029 3.11-4.387z" stroke="#1A171B" stroke-width=".97"/><rect x="71.642" y="176.04" width=".078" height=".16" fill="#fff" stroke="#1A171B" stroke-linecap="square" stroke-miterlimit="2" stroke-width=".97"/><g stroke="#000"><path d="m200.02 54.158c1.76 3.205 2.891 6.269 3.539 9.637 0.583 1.453 0.467 3.078 0.873 4.574-0.154 2.526 0.146 5.24-1.248 7.404-1.943 4.605-3.852 9.053-5.295 14.017-0.544 0.208-1.268 0.129-1.268-0.616 0.188-1.94 1.023-3.818 1.684-5.654 1.213-3.199 2.522-6.457 4.094-9.408 0.836-6.674-0.723-12.973-3.955-18.818-1.334-1.789-3.771-3.079-6.064-2.438-2.188 0.914-1.746 3.739-1.801 5.479l0.314 1.411c-0.021 0.061-0.207 0.662 0.133 0.985-0.23 1.768-1.09 3.391-1.365 4.983-0.344 0.42-0.057 0.98-0.539 1.283 0.168 0.368-0.121 0.551-0.211 0.944l-0.078-0.017c-0.412 0.732-0.588 1.521-1.002 2.254 0.279 0.227 0.033 0.586-0.035 0.9-0.387 0.244-0.457 0.559-0.625 0.934l0.141 0.113c0.067 0.43-0.711 0.584-0.308 1.006 0.024 0.254-0.526 0.131-0.188 0.454-0.128 0.221-0.469-0.104-0.225 0.278-0.265 0.438-0.675 0.43-0.467 0.971l-0.227 0.281 0.139 0.113c-0.078-0.02-0.174 0.043-0.189 0.121 0.077 0.018 0.059 0.095 0.136 0.113l-0.647 0.683 0.217 0.132c-0.419 0.398-0.463 0.969-0.904 1.449l0.047 0.174-0.195 0.121c0.385 0.5-0.49 0.718-0.359 1.242 0 0 0.133-0.218 0.086-0.393-0.631 0.602-0.824 1.466-1.176 2.296 0.297 0.148 0.341-0.417 0.457-0.56 0.104 0.272-0.3 0.596 0.033 0.587-0.324 0.341-0.204 1.274-0.772 1.231l-0.245 0.357c0.043 0.176-0.033-0.585-0.316-0.069-0.094 0.062 0.105 0.271 0.184 0.289l0.158 0.036c0.156 0.035-0.061-0.098-0.078-0.021 0.042 0.177 0.184 0.29-0.027 0.491l-0.141-0.113c-0.175 0.043-0.07 0.314-0.246 0.357 0.1-0.061-0.042-0.176-0.025-0.252-0.166 0.374-0.841 0.799-0.457 1.301-0.291 0.926-0.607 1.599-1.117 2.393-0.859 1.625-2.773 6.613-4.551 7.535-0.157-0.033-0.549-0.121-0.479-0.436 3.248-5.635 7.311-14.686 9.693-20.512 1.51-3.049 3.238-7.889 4.295-11.123-0.365-3.615-0.43-5.17-0.037-7.836 0.149-2.32 1.981-2.943 3.732-3.376 2.61-0.236 5.294 0.701 6.907 2.713z" stroke-linecap="square" stroke-miterlimit="2" stroke-width=".6987"/><path d="m274.91 80.061c1.773 3.143 1.291 7.579-0.965 10.318-0.404 0.646-1.211 0.969-1.613 1.291-0.887-0.081-1.695 0.646-2.58 0.242-0.728 0.725-1.694 0-2.5 0.484-9.997 0.725-20.963 2.097-30.799 4.674l-2.902 0.564c0.162 0.564-0.402 0.807-0.807 0.889-6.853 0.886-12.979 3.95-19.592 5.645-1.047 0.564-2.256 0.723-3.385 1.207-2.42 0.564-4.515 1.772-7.015 2.259-0.321 0-0.563-0.322-0.646-0.563 0.483-0.646 1.451-0.889 2.098-1.211 5.32-2.016 10.885-3.549 16.284-5.48-0.402-0.164-0.725 0.08-1.048 0.08l7.499-2.34c0.402-0.807 1.611-0.404 2.095-1.049 0-3.707-0.806-6.771-1.692-10.398-0.402-0.402-0.242-1.129-0.725-1.533 0-0.162 0-0.403-0.242-0.403-0.886 1.372-0.565 3.227-0.241 4.759 0.16 1.048 0.16 2.337 0.725 3.223-0.16 0.727 0.322 1.131 0.483 1.776 0.322 0.644 0.563 1.368 1.29 1.772v0.241c-0.484 0-0.727-0.563-0.968-0.806 0.241-0.404-0.322-0.161-0.322-0.483-1.129-2.66-1.772-5.403-1.935-8.467v-1.37c-0.08 0.242-0.16 0.806-0.403 0.806-0.081-0.806 0.323-1.21 0.403-2.014 0.322-0.081 0.162 0.321 0.242 0.402 0.322-0.243 0.645-0.402 1.049-0.483 0.887 1.772 1.289 3.789 1.693 5.803 0.561 2.34 0.561 4.838 1.046 7.339 11.367-2.825 23.14-5.161 34.989-6.288 0.082-0.162 0-0.403 0.082-0.566-0.322-0.32-1.047-0.401-0.968-1.047 0.163-0.322 0.404-0.322 0.646-0.484-0.403-2.498-0.968-4.836-1.773-7.175 0.323-0.888 1.209-1.29 2.014-1.692l-0.644 0.32c2.179-0.482 4.192-1.771 6.532-1.37v0.163c-2.662 0.081-4.838 0.805-7.097 2.174 0.243 1.695 0.889 3.468 1.049 5.162 0.08 0.967 0.483 1.936 0.483 2.981 1.37 1.131 3.306 0.726 4.918 0.808 0.243 0 0.646-0.241 0.887 0 0.727-0.241 1.615-0.725 2.097-1.371 0.323-3.145-0.725-6.369-2.178-9.029 0.081-0.242 0.161-0.402 0.323-0.485 1.047 0.647 0.402 1.935 1.291 2.744 0.484 1.853 0.887 3.95 0.967 5.966 1.048-1.049 1.048-2.742 1.208-4.275-0.24-1.69-0.724-3.467-2.336-4.516-0.483-0.4-1.21-0.644-1.774-0.482-1.209-0.967-2.66-0.483-4.032-0.967-0.403 0.483-0.806-0.324-1.128 0-1.452 0-2.821 0.242-4.031 0.564l-0.162-0.081c-13.221 1.451-27.491 2.66-40.471 5.806-0.404 0.483-0.967 0-1.371 0.24-1.936 0.484-3.952 0.887-5.969 1.291-0.238 0.563-0.643 0.08-1.045 0.404-8.146 2.096-16.449 4.191-24.672 6.369-1.29 0-2.741 0.806-4.029 0.08 0.158-0.564 1.045-0.564 1.529-0.807 20.157-5.32 40.07-11.045 61.355-13.303 5.967-0.889 11.77-1.208 17.736-2.097 1.451 0.644 2.742-0.644 4.272 0.162 2.663 0.238 5.325 1.045 6.775 3.627z" stroke-linecap="square" stroke-miterlimit="2" stroke-width=".6987"/><path d="m252.82 84.494c0.404 1.775 0.483 3.629 1.209 5.4 0 0 0 0.164-0.082 0.164-0.24-0.326-0.321-0.808-0.562-1.211-0.081-1.129-0.242-2.338-0.564-3.387 0.162-1.449-0.725-2.82-0.16-4.271-0.244 1.047 0.159 2.096 0.159 3.305z" stroke-linecap="square" stroke-miterlimit="2" stroke-width=".6987"/><path d="m180.74 83.447c-0.083-0.244 0-0.566 0.16-0.807 0 0.161 0.079 0.645-0.16 0.807z" fill="#fff" stroke-linecap="square" stroke-miterlimit="2" stroke-width=".6987"/><path d="m180.58 83.365c-0.241 0.242 0 0.485-0.241 0.727-0.243-0.241 0.08-0.566 0.241-0.727z" fill="#fff" stroke-linecap="square" stroke-miterlimit="2" stroke-width=".6987"/><path d="m175.9 95.459c-0.806 0.807-1.371 1.611-2.016 2.5-5.238 7.9-9.19 16.606-14.914 24.266-3.709 4.758-7.659 9.837-12.658 13.305-0.32-0.162-0.484 0.16-0.727 0.32l0.162-0.24-0.081-0.08c0.565-0.645 1.452-1.211 1.935-1.936 0.324 0.08 0.484-0.644 0.808-0.725l0.321-0.324-0.321 0.081c0.161-0.564 0.726-0.081 0.968-0.726 0-0.08-0.16 0-0.242-0.08 0.886-1.208 2.258-2.339 3.226-3.307 0 0.083-0.083 0.162-0.083 0.162 0 0.08 0.162 0.08 0.162 0.08 0.402-0.242-0.24-0.404 0.162-0.562l0.08 0.158c0.081-0.077 0.404-0.158 0.242-0.321h-0.242l1.854-2.097 0.161 0.246c0.081-0.084 0.081-0.166 0.162-0.246-0.402-0.241 0.162-0.807 0.402-1.127 0.322 0.162 0.322-0.162 0.403-0.323l0.564-0.726-0.402 0.969c0.483 0 0.321-0.646 0.644-0.807-0.322-0.726 0.725-1.209 0.97-1.855 0.079 0.081 0.241 0.16 0.241 0.081v-0.161c0.16 0 0.16 0.08 0.24 0.161 0.08-0.161 0.08-0.321 0.08-0.403h-0.16c0-0.242 0.08-0.322 0.16-0.483h0.244l-0.244 0.241 0.162 0.162 0.322-0.403c-0.564-0.562 0.564-0.968 0.727-1.612 0.16-0.081 0.241-0.402 0.402-0.484v0.322c0.16-0.08 0.16-0.24 0.322-0.24-0.322-0.324 0-0.646 0.162-0.969 0.08-0.08 0.243-0.08 0.322-0.16l-0.162 0.32 0.484-0.404c-0.484 0 0-0.644 0.08-0.885l0.162-0.243c0.081 0.083 0.16 0.243 0.241 0.243 0.081-0.645 0.323-1.449 1.048-1.854-0.24-0.241 0.081-0.403 0.16-0.565 0.646 0.324 0.566-0.563 0.889-0.806l-0.081-0.162c-0.081 0.162-0.241 0.484-0.483 0.484 0.081-0.402 0.322-0.645 0.564-0.967l0.404-0.162c-0.323-0.4 0.24-0.807 0.402-1.209h0.162c0.08 0.242-0.244 0.402-0.324 0.646l0.08 0.079c0.324-0.079 0.324-0.482 0.484-0.725l-0.24-0.162 0.24-0.079c-0.24-0.403 0.242-0.564 0.242-0.806 1.049-1.695 1.855-3.467 2.902-5.162l0.162 0.162c1.853-3.789 3.789-7.82 7.174-10.964 0.322-0.081 0.564-0.321 0.887-0.163v0.727z" stroke-linecap="square" stroke-miterlimit="2" stroke-width=".6987"/><path d="m236.45 103.36c0.967 3.305 1.049 6.69 0.08 10.077-0.48 0.888-1.046 2.499-2.338 2.338-1.531 0.806-3.063 1.532-4.594 2.419-1.372 0.24-2.259 1.129-3.71 1.533-1.772 0.968-3.87 1.611-5.481 2.982v0.159c-0.887 0.888-1.613 2.099-2.661 2.903-0.402 0.08-0.646-0.322-0.726-0.646 0.161-1.451 1.531-2.257 2.096-3.627 4.838-3.144 10.24-4.837 15.318-7.416 1.451-1.291 0.808-3.548 1.05-5.24-0.083-2.098-0.242-4.032-1.05-5.807-1.049-1.611-3.064-1.854-4.435-2.901-0.159-0.485 0.081-0.564 0.323-0.886 2.419 0.565 5.079 1.612 6.128 4.112z" stroke-linecap="square" stroke-miterlimit="2" stroke-width=".6987"/><rect x="167.12" y="107.07" width=".082" height=".077" fill="#fff" stroke-linecap="square" stroke-miterlimit="2" stroke-width=".6987"/><rect x="161.07" y="117.15" width=".079" height=".162" fill="#fff" stroke-linecap="square" stroke-miterlimit="2" stroke-width=".6987"/><path d="m238.47 121.5c0 3.387 0.886 7.416-0.887 10.482 0.161 0.404-0.322 0.727-0.644 0.968-0.406 0-0.566 0.481-1.051 0.402-0.162-0.161 0-0.402-0.162-0.483-1.127 1.047-2.659 1.773-4.029 2.74 2.338 0.887 2.176 3.788 2.74 5.968 0.243 4.271-2.097 7.575-4.756 10.642v0.243c-1.13 0.32-1.693 1.53-2.822 1.771-0.402 0.404-1.289 0.566-1.693 1.293l-0.564 0.078c-1.451 1.051-3.063 2.016-4.434 3.146-1.209 0.482-2.338 1.451-3.467 2.096-2.418 1.853-5.081 1.691-7.095 4.111-4.192 2.498-8.706 4.756-13.304 6.047-0.32 0.645-0.646-0.161-0.967 0.403-2.582 0.644-5.16 1.208-7.82 1.772-5.4 1.13-10.965 2.019-16.447 1.452-0.645-0.484-1.53 0.161-2.016-0.564-1.209-0.563-2.258 0.402-3.225 0.646-1.13 0.645-2.5 1.048-3.306 2.094 0.403 0.082 0.322 0.405 0.322 0.645-0.646 0.324-1.532-0.402-2.097 0.324-0.564 0-1.129 0.162-1.451-0.324 0.161-0.402 0.566-0.723 0.887-1.127v-0.322c-2.984-3.708-4.998-7.982-7.256-11.934-3.307-6.771-6.611-13.624-8.304-21.041-0.564-1.693-1.048-3.63-0.889-5.482 0.404-0.162 0.324-0.646 0.727-0.727 1.049 0.967 0.403 2.662 1.049 4.032 2.579 11.69 8.143 22.171 14.108 32.329 0.645 0.646 0.969 1.854 1.774 2.019 1.854-1.776 4.03-2.259 6.288-3.147 1.209 0 2.982-0.242 3.547 1.129 4.676 0.403 9.434-0.482 14.028-1.289 0.16-0.483 0.564 0.08 0.889-0.161 5.965-1.048 11.527-2.904 16.851-5.321 1.691-1.049 3.547-1.531 5.159-2.823-0.161-0.563 0.887-0.563 1.208-0.966 0.727-0.082 1.209-0.967 1.854-1.291l3.307-1.529c0 0.078 0 0.158-0.081 0.24l0.081 0.08c3.063-1.693 6.127-3.949 8.787-5.645 2.097-1.529 4.918-2.822 6.37-5.078 1.854-2.822 3.951-5.968 2.659-9.676 0.485-1.692-1.853-2.418-0.968-3.951-4.755 1.695-9.027 5.646-12.736 8.709-0.646 0-0.969 0.724-1.613 0.484-0.08-1.291 1.209-1.854 2.016-2.822l4.193-3.307v0.081c3.627-2.903 8.141-4.516 12.172-6.69 0.162 0 0.404-0.082 0.484 0.162 0.808-1.535 1.051-3.471 1.051-5.565l-0.243-5.24c-0.644-1.37-2.178-2.581-3.548-3.146 0.24-0.404-0.322-1.048 0.323-1.289 2.098 0.321 4.033 2.498 5.001 4.352z" stroke-linecap="square" stroke-miterlimit="2" stroke-width=".6987"/><rect x="160.1" y="118.76" width=".08" height=".08" fill="#fff" stroke-linecap="square" stroke-miterlimit="2" stroke-width=".6987"/><rect x="157.2" y="122.63" width=".083" height=".08" fill="#fff" stroke-linecap="square" stroke-miterlimit="2" stroke-width=".6987"/><path d="m157.12 122.95c0 0.081-0.081 0.081-0.163 0.16v-0.16h0.163z" fill="#fff" stroke-linecap="square" stroke-miterlimit="2" stroke-width=".6987"/><rect x="154.46" y="126.18" width=".079" height=".079" fill="#fff" stroke-linecap="square" stroke-miterlimit="2" stroke-width=".6987"/><polygon points="153.17 127.87 153.33 127.55 153.25 127.79" fill="#fff" stroke-linecap="square" stroke-miterlimit="2" stroke-width=".6987"/><path d="m152.2 128.84v0.162l-0.08-0.162h0.08z" fill="#fff" stroke-linecap="square" stroke-miterlimit="2" stroke-width=".6987"/><path d="m151.4 129.8-0.646 0.646 0.646-0.646z" fill="#fff" stroke-linecap="square" stroke-miterlimit="2" stroke-width=".6987"/><rect x="150.18" y="130.85" width=".082" height=".081" fill="#fff" stroke-linecap="square" stroke-miterlimit="2" stroke-width=".6987"/><polygon points="163.57 171.73 163.65 171.57 163.81 171.57" stroke-linecap="square" stroke-miterlimit="2" stroke-width=".6987"/><line x1="143.51" x2="117.57" y1="136.76" y2="156.36" fill="none" stroke-width="1.6125"/><line x1="161.76" x2="139.38" y1="178.07" y2="204.6" fill="none" stroke-width="1.8632"/></g></svg>
