<?xml version="1.0" encoding="UTF-8"?>
<svg width="226.77px" height="226.77px" enable-background="new 0 0 226.77 226.77" version="1.1" viewBox="0 0 226.77 226.77" xmlns="http://www.w3.org/2000/svg"><rect width="226.77px" height="226.77px" fill="#fff"/><linearGradient id="a" x1="95.312" x2="105.96" y1="31.616" y2="54.964" gradientTransform="matrix(1 0 0 -1 0 226.11)" gradientUnits="userSpaceOnUse"><stop stop-color="#fff" offset="0"/><stop stop-color="#EDEDED" offset="1"/></linearGradient><path d="m125.1 209.78 4.734-34.65 6.058-17.791s-8.989-1.086-10.902-0.47c-1.912 0.616-16.2-4.06-16.2-4.06l-10.743-5.874-5.564-5.633-13.864 23.1-15.739 20.581c2e-3 -2e-3 61.543 24.797 62.22 24.797z" fill="url(#a)"/><path d="m73.468 172.57 4.8-7.921 4.841-7.895 4.843-7.894 4.902-7.856 0.02-0.031 0.061-0.072c1.126-1.332 2.025-3.022 2.442-4.725 0.214-0.857 0.3-1.737 0.221-2.596-0.014-0.444-0.119-0.827-0.201-1.3l-0.284-1.435c-0.696-3.782-1.322-7.556-1.953-11.335-1.22-7.562-2.381-15.131-3.521-22.705-1.098-7.583-2.204-15.152-3.147-22.78-0.115-0.957-0.224-1.911-0.307-2.893l-0.052-0.763c-5e-3 -0.134-0.012-0.274-5e-3 -0.466-2e-3 -0.016 9e-3 -0.155 0.029-0.26l0.035-0.162c-0.036 0.133-4e-3 0.012-0.01 0.03 0.017-0.064 0.029-0.132 0.012-0.075-5e-3 0.06-6e-3 -0.199-0.039-0.377l-0.11-0.689c-0.169-0.989-0.247-2.189 0.052-3.329 0.285-1.149 0.912-2.162 1.636-2.981 0.735-0.815 1.565-1.48 2.425-2.044 0.449-0.289 0.831-0.519 1.353-0.806l0.643-0.32 0.772-0.321c1.996-0.74 3.909-0.922 5.461-1.601 0.781-0.332 1.497-0.756 2.134-1.316 0.314-0.285 0.638-0.561 0.918-0.897l0.475-0.534c0.156-0.174 0.31-0.35 0.558-0.571 0.868-0.792 1.741-1.298 2.654-1.769 0.907-0.461 1.828-0.843 2.755-1.183 3.71-1.346 7.488-2.172 11.265-2.935 3.782-0.736 7.577-1.318 11.369-1.882l1.422-0.208 0.241-0.033 0.179-0.013c0.144-4e-3 0.445 5e-3 0.584 0.046 0.353 0.062 0.64 0.198 0.914 0.335 1.035 0.593 1.695 1.354 2.36 2.099 1.279 1.522 2.407 3.065 3.383 4.809 1.915 3.363 3.608 6.797 5.296 10.243 0.827 1.73 1.635 3.469 2.429 5.215l1.167 2.635c0.369 0.891 0.763 1.797 0.893 2.838 0.15 1.053-0.233 2.12-0.766 2.94-0.524 0.842-1.17 1.58-1.794 2.299-1.279 1.441-2.581 2.837-3.889 4.238l-7.937 8.303 7.654-8.561c1.269-1.429 2.542-2.866 3.768-4.319 0.617-0.735 1.197-1.478 1.656-2.281 0.465-0.798 0.724-1.657 0.568-2.521-0.138-0.863-0.541-1.728-0.94-2.582l-1.263-2.567-2.624-5.096c-1.762-3.386-3.544-6.78-5.499-10.023-0.927-1.58-2.105-3.114-3.324-4.489-0.609-0.669-1.281-1.336-1.93-1.673-0.156-0.07-0.309-0.138-0.431-0.149-0.094-0.018-0.036-5e-3 -0.129-0.014l-0.179 0.017c-0.029 3e-3 0.091-0.01 0.019-1e-3l-0.044 8e-3 -0.088 0.015-1.413 0.243c-3.767 0.648-7.521 1.343-11.242 2.131-3.711 0.796-7.427 1.668-10.903 2.982-0.866 0.33-1.711 0.695-2.505 1.111-0.784 0.406-1.562 0.906-2.101 1.416-0.115 0.092-0.278 0.275-0.439 0.46l-0.472 0.544c-0.33 0.402-0.729 0.762-1.12 1.12-0.799 0.708-1.748 1.279-2.725 1.697-1.979 0.841-3.949 1.034-5.537 1.658l-0.554 0.229-0.641 0.322c-0.314 0.179-0.755 0.438-1.108 0.672-0.738 0.486-1.405 1.039-1.951 1.648-0.535 0.615-0.932 1.283-1.106 2.001-0.181 0.723-0.151 1.479 2e-3 2.369l0.119 0.728c0.032 0.294 0.091 0.514 0.043 1.052-0.022 0.177-0.037 0.226-0.049 0.278l-0.029 0.118c9e-3 -0.024 0.017-0.048 0.023-0.073 0.012-0.046 0.012-0.126 0.012-0.082l7e-3 0.251 0.049 0.668c0.084 0.924 0.193 1.872 0.3 2.816 0.904 7.572 1.979 15.158 3.044 22.732l3.222 22.729c0.537 3.786 1.071 7.58 1.669 11.343l0.239 1.388c0.07 0.469 0.194 1.025 0.197 1.539 0.068 1.05-0.065 2.099-0.337 3.091-0.559 1.997-1.543 3.758-2.92 5.314l0.08-0.103-5.093 7.733-5.152 7.696-5.154 7.694-5.198 7.664z"/><path d="m154.98 84.752s-0.015-0.049-0.043-0.143c-0.013-0.047-0.03-0.106-0.05-0.176-4e-3 -0.048-0.03-0.044-0.016-0.147 0.136-1e-3 0.056 0.036 0.086 0.038l0.012 0.033 0.023 0.067c0.114 0.366 0.266 0.906 0.408 1.604 0.294 1.393 0.613 3.412 0.749 5.857 0.149 2.444 0.117 5.315-0.208 8.368-0.171 1.525-0.376 3.102-0.698 4.683-0.316 1.582-0.695 3.179-1.139 4.758-0.464 1.573-0.993 3.127-1.569 4.634-0.566 1.512-1.237 2.954-1.905 4.335-1.353 2.757-2.857 5.202-4.277 7.193-1.409 2.001-2.732 3.55-3.683 4.605-0.958 1.051-1.541 1.615-1.541 1.615s0.446-0.675 1.225-1.857c0.768-1.186 1.842-2.889 3.029-4.978 1.18-2.093 2.459-4.58 3.649-7.318 0.604-1.365 1.146-2.808 1.694-4.273 0.539-1.469 1.026-2.982 1.457-4.511 0.452-1.523 0.842-3.064 1.17-4.594 0.32-1.531 0.628-3.042 0.845-4.519 0.456-2.951 0.698-5.736 0.807-8.134 0.1-2.398 0.073-4.408 1e-3 -5.815-0.042-0.702-0.072-1.258-0.121-1.631l-0.01-0.067-5e-3 -0.031c0.023-0.013-0.063-0.014 0.063-0.01 0.016-0.02 6e-3 0.061 0.013 0.084 6e-3 0.072 0.012 0.132 0.016 0.181 0.012 0.098 0.018 0.149 0.018 0.149z"/><line x1="144.03" x2="128.85" y1="126.43" y2="184.12" fill="none" stroke="#000" stroke-linecap="round" stroke-width="2"/><path d="m95.568 144.58s14.5 13.833 36.833 12.333" fill="none" stroke="#000" stroke-linecap="round"/><path d="m99.763 60.807s21.428-4.071 25.274-4.516c3.846-0.444 7.264 5.781 8.799 8.845s7.571 13.283 4.148 16.945-9.439 7.147-9.439 7.147" fill="none" stroke="#000" stroke-linecap="round" stroke-width="2"/><path d="m108.6 75.978s0.225 0.077 0.609 0.19c0.381 0.118 0.917 0.275 1.545 0.44 1.263 0.326 2.887 0.658 4.502 0.68 0.405 0.041 0.806-0.012 1.206-0.012 0.401 2e-3 0.787-0.084 1.173-0.104 0.386-0.029 0.747-0.133 1.108-0.178 0.364-0.039 0.69-0.149 1.009-0.213 0.309-0.088 0.624-0.114 0.874-0.207 0.254-0.084 0.49-0.14 0.683-0.192 0.39-0.098 0.63-0.142 0.63-0.142s-0.143 0.183-0.424 0.483c-0.142 0.147-0.314 0.332-0.527 0.526-0.201 0.214-0.475 0.381-0.768 0.582-0.298 0.192-0.61 0.439-0.992 0.59-0.377 0.159-0.769 0.37-1.207 0.484-0.439 0.105-0.89 0.268-1.368 0.303-0.476 0.052-0.963 0.113-1.45 0.08l-0.728-0.038-0.712-0.118c-0.474-0.063-0.917-0.23-1.347-0.357-0.419-0.166-0.823-0.325-1.182-0.525-0.363-0.191-0.689-0.398-0.975-0.61-0.582-0.404-1-0.829-1.27-1.141-0.27-0.313-0.389-0.521-0.389-0.521z"/><path d="m120.05 72.974s0.363 0.503 0.801 1.144c0.461 0.642 0.996 1.437 1.535 2.23 0.271 0.398 0.545 0.794 0.797 1.187 0.266 0.38 0.498 0.765 0.705 1.109 0.201 0.349 0.381 0.645 0.495 0.877 0.115 0.23 0.173 0.38 0.173 0.38s-0.154-0.011-0.411-0.061c-0.253-0.056-0.625-0.133-1.01-0.329-0.41-0.165-0.834-0.441-1.261-0.779-0.413-0.352-0.81-0.782-1.143-1.263-0.317-0.491-0.587-1.016-0.744-1.545-0.171-0.523-0.237-1.042-0.234-1.487-0.014-0.894 0.297-1.463 0.297-1.463z"/><path d="m122.46 76.588s-0.918 1.122-2.051 2.844c-0.274 0.438-0.566 0.909-0.851 1.414-0.288 0.504-0.549 1.053-0.808 1.614-0.27 0.56-0.451 1.168-0.65 1.771-0.162 0.613-0.319 1.234-0.378 1.865-0.079 0.628-0.09 1.259-0.042 1.879 0.052 0.618 0.131 1.232 0.298 1.813 0.16 0.58 0.341 1.146 0.57 1.666 0.1 0.267 0.226 0.515 0.351 0.756 0.124 0.241 0.218 0.492 0.356 0.707 0.263 0.435 0.479 0.861 0.72 1.209 0.234 0.352 0.42 0.682 0.606 0.927 0.353 0.508 0.548 0.819 0.548 0.819s-0.307-0.184-0.831-0.54c-0.518-0.361-1.234-0.926-1.976-1.746-0.36-0.416-0.765-0.872-1.091-1.43-0.352-0.539-0.685-1.148-0.927-1.824-0.128-0.336-0.251-0.681-0.335-1.045-0.109-0.358-0.172-0.731-0.218-1.111-0.108-0.758-0.099-1.542-0.014-2.312 0.178-1.545 0.739-2.999 1.452-4.206 0.698-1.22 1.556-2.199 2.342-2.957 1.586-1.519 2.929-2.113 2.929-2.113z"/><line x1="128.48" x2="120.34" y1="88.62" y2="94.704" fill="none" stroke="#000" stroke-linecap="round" stroke-width="1.5"/><path d="m125.55 93.823s0.664 2.779 1.66 6.947c0.532 2.073 1.152 4.491 1.817 7.083 0.358 1.291 0.727 2.625 1.103 3.981 0.38 1.369 0.58 2.844 0.605 4.293 0.069 2.917-0.568 5.808-1.574 8.322-1.019 2.518-2.386 4.665-3.698 6.374-1.329 1.702-2.618 2.958-3.539 3.805-0.934 0.836-1.502 1.27-1.502 1.27s0.534-0.477 1.411-1.365c0.877-0.887 2.079-2.209 3.317-3.943 1.24-1.727 2.516-3.881 3.43-6.366 0.943-2.465 1.537-5.271 1.438-8.078-0.034-1.409-0.258-2.779-0.602-4.127-0.357-1.36-0.708-2.698-1.047-3.993-0.669-2.599-1.196-5.048-1.614-7.152-0.853-4.209-1.205-7.051-1.205-7.051z"/><path d="m127.56 93.464s0.542 1.462 1.218 3.697c0.328 1.12 0.721 2.425 1.088 3.838 0.374 1.411 0.726 2.928 1.063 4.449 0.313 1.526 0.613 3.057 0.825 4.504 0.222 1.446 0.356 2.808 0.432 3.978 0.036 0.586 0.072 1.121 0.047 1.6-0.018 0.478-1e-3 0.892-0.044 1.233-0.087 0.678-0.136 1.065-0.136 1.065s-4e-3 -0.389-0.01-1.068c7e-3 -0.337-0.056-0.749-0.089-1.218-0.029-0.469-0.124-0.996-0.188-1.571-0.061-0.576-0.178-1.195-0.286-1.851-0.1-0.656-0.256-1.343-0.377-2.057-0.273-1.425-0.581-2.944-0.907-4.459-0.664-3.032-1.327-6.063-1.825-8.337-0.499-2.276-0.811-3.803-0.811-3.803z"/><path d="m141.59 84.683" fill="none" stroke="#000" stroke-linecap="round" stroke-width="2"/><path d="m140.2 85.222-5.207 6.402s-2.142 0.557-3.887-1.831" fill="none" stroke="#000" stroke-linecap="round" stroke-width="1.5"/><path d="m154.98 78.732-4.301 8.189s-1.389 1.076-3.134-1.311" fill="none" stroke="#000" stroke-linecap="round" stroke-width="1.5"/><path d="m147.11 82.985-4.292 6.078s-2.142 0.557-3.887-1.831" fill="none" stroke="#000" stroke-linecap="round" stroke-width="1.5"/><path d="m119.87 46.986c9e-3 3e-3 0.011-0.102 0.111-0.266 0.106-0.177 0.289-0.399 0.56-0.635 0.535-0.487 1.376-1.067 2.436-1.651 1.055-0.595 2.331-1.194 3.73-1.741 0.702-0.268 1.425-0.554 2.178-0.788 0.751-0.239 1.519-0.469 2.29-0.687 0.778-0.195 1.558-0.379 2.332-0.541 0.77-0.178 1.545-0.275 2.29-0.389 1.494-0.208 2.91-0.293 4.125-0.259 0.608 9e-3 1.165 0.056 1.656 0.112 0.492 0.06 0.917 0.132 1.263 0.214 0.347 0.064 0.613 0.163 0.794 0.216 0.18 0.057 0.275 0.087 0.275 0.087s-0.405 0.017-1.093 0.094c-0.688 0.068-1.656 0.208-2.804 0.421-1.148 0.219-2.476 0.509-3.895 0.846-0.708 0.175-1.439 0.356-2.182 0.54-0.745 0.178-1.496 0.383-2.247 0.59-0.756 0.189-1.509 0.391-2.246 0.602-0.74 0.206-1.468 0.409-2.173 0.605-1.408 0.4-2.72 0.784-3.842 1.127-1.117 0.353-2.05 0.655-2.67 0.932-0.308 0.139-0.554 0.259-0.688 0.365-0.15 0.11-0.194 0.214-0.2 0.206z"/><path d="m139.48 40.252s0.215-0.081 0.642-0.165c0.426-0.084 1.07-0.169 1.901-0.086 0.828 0.07 1.846 0.337 2.889 0.939 1.046 0.595 2.049 1.573 2.863 2.798 0.755 1.172 1.466 2.556 2.154 3.973 0.662 1.44 1.322 2.967 1.961 4.563 0.61 1.605 1.235 3.265 1.819 4.968 0.558 1.712 1.124 3.451 1.628 5.215 0.242 0.886 0.48 1.77 0.697 2.671l0.16 0.679 0.075 0.348 0.037 0.174 0.019 0.087 0.022 0.125 5e-3 0.042c0.011 0.127 0.031 0.19 0.034 0.369 3e-3 0.171 3e-3 0.35-6e-3 0.513-0.032 0.271-0.063 0.545-0.122 0.789-0.453 1.97-1.28 3.553-2.081 5.107-0.812 1.54-1.715 2.946-2.581 4.266-0.873 1.316-1.746 2.525-2.591 3.61-1.672 2.183-3.218 3.877-4.343 5.014-1.137 1.128-1.837 1.711-1.837 1.711s0.614-0.676 1.577-1.94c0.971-1.256 2.288-3.101 3.739-5.39 1.432-2.297 3.053-5.022 4.454-8.061 0.686-1.5 1.389-3.138 1.647-4.687 0.037-0.194 0.041-0.367 0.056-0.543-4e-3 -0.061-7e-3 -0.107-3e-3 -0.161 6e-3 -0.047-0.028-0.205-0.039-0.302l-0.152-0.541-0.19-0.631c-0.259-0.846-0.546-1.703-0.836-2.555-0.567-1.711-1.135-3.428-1.728-5.104-0.571-1.684-1.135-3.341-1.71-4.932-0.567-1.592-1.099-3.138-1.665-4.572-0.551-1.451-1.06-2.762-1.657-3.96-0.54-1.145-1.276-2.046-2.059-2.704-0.783-0.664-1.628-1.048-2.354-1.287-0.732-0.227-1.35-0.305-1.772-0.337-0.424-0.027-0.653-3e-3 -0.653-3e-3z"/><path d="m127.9 42.784c7e-3 2e-3 0.01-0.095 0.094-0.252 0.093-0.166 0.254-0.39 0.503-0.616 0.487-0.473 1.266-1.032 2.251-1.589 0.981-0.569 2.173-1.131 3.481-1.642 1.307-0.516 2.731-0.985 4.184-1.351 1.452-0.369 2.93-0.643 4.332-0.802 1.4-0.165 2.726-0.209 3.86-0.146 1.134 0.049 2.075 0.209 2.717 0.375 0.323 0.066 0.569 0.167 0.737 0.218 0.167 0.056 0.256 0.085 0.256 0.085s-0.372 0.034-1.022 0.094c-0.643 0.059-1.548 0.192-2.62 0.374-0.534 0.101-1.112 0.211-1.724 0.328-0.608 0.13-1.249 0.267-1.912 0.409-1.323 0.302-2.728 0.647-4.132 1.003-1.404 0.355-2.808 0.721-4.121 1.08-1.312 0.362-2.537 0.709-3.581 1.024-1.04 0.324-1.909 0.605-2.483 0.867-0.288 0.131-0.509 0.247-0.635 0.347-0.137 0.107-0.18 0.201-0.185 0.194z"/><path d="m145.89 36.654s0.21-0.079 0.626-0.161c0.415-0.082 1.043-0.169 1.852-0.095 0.807 0.062 1.802 0.307 2.826 0.876 1.031 0.557 2.025 1.492 2.846 2.668 0.438 0.629 0.735 1.152 1.107 1.838 0.368 0.661 0.697 1.331 1.048 2.025 0.65 1.402 1.302 2.891 1.937 4.442 0.605 1.563 1.211 3.183 1.796 4.838 0.563 1.664 1.103 3.363 1.62 5.074 0.25 0.858 0.479 1.723 0.703 2.591l0.322 1.31 0.145 0.676 0.018 0.084 0.019 0.105 6e-3 0.041 0.023 0.163c0.017 0.086 0.024 0.275 0.029 0.428-2e-3 1.15-0.261 2.007-0.529 2.886-0.279 0.86-0.606 1.67-0.949 2.451-0.683 1.562-1.462 2.993-2.219 4.333-0.759 1.339-1.511 2.58-2.241 3.701-1.443 2.253-2.739 4.061-3.661 5.315-0.943 1.238-1.482 1.946-1.482 1.946s0.429-0.778 1.18-2.139c0.751-1.359 1.809-3.307 3.023-5.663 1.197-2.36 2.582-5.134 3.732-8.173 0.283-0.758 0.545-1.535 0.749-2.316 0.201-0.759 0.348-1.613 0.307-2.212-8e-3 -0.065 4e-3 -0.095-0.024-0.225l-0.028-0.162-7e-3 -0.04-4e-3 -0.02c0.023 0.121 3e-3 0.023 7e-3 0.045l-0.021-0.075-0.168-0.602-0.385-1.237c-0.277-0.829-0.555-1.662-0.832-2.495-0.539-1.675-1.119-3.34-1.691-4.977-0.545-1.647-1.11-3.257-1.675-4.806-0.53-1.563-1.085-3.053-1.625-4.456-0.269-0.698-0.527-1.389-0.797-2.012-0.241-0.609-0.588-1.317-0.842-1.821-0.549-1.103-1.286-1.964-2.057-2.598-0.776-0.634-1.603-1.003-2.314-1.229-0.716-0.216-1.319-0.291-1.731-0.32-0.415-0.025-0.639-2e-3 -0.639-2e-3z"/><path d="m127.83 87.949s-0.666 0.154-1.623 0.335c-0.479 0.092-1.03 0.204-1.61 0.327-0.293 0.05-0.58 0.153-0.883 0.207-0.291 0.085-0.595 0.157-0.878 0.263-0.282 0.102-0.582 0.18-0.832 0.319-0.128 0.066-0.264 0.119-0.391 0.179-0.117 0.073-0.232 0.144-0.346 0.215-0.25 0.126-0.395 0.323-0.601 0.47-0.161 0.176-0.283 0.368-0.433 0.538-0.081 0.198-0.17 0.385-0.255 0.557-0.081 0.173-0.086 0.343-0.128 0.48-0.066 0.277-0.115 0.45-0.115 0.45s-0.052-0.155-0.123-0.451c-0.023-0.147-0.103-0.333-0.087-0.548 0.012-0.214 0.027-0.467 0.069-0.743 0.1-0.251 0.193-0.556 0.363-0.829 0.199-0.24 0.377-0.569 0.664-0.759 0.265-0.227 0.546-0.452 0.87-0.596 0.311-0.184 0.644-0.291 0.974-0.421 0.671-0.205 1.349-0.337 1.987-0.374 0.637-0.044 1.229-0.031 1.732 0.031 1.003 0.102 1.646 0.35 1.646 0.35z"/><path d="m140.02 84.705s-0.559 0.258-1.397 0.646c-0.415 0.186-0.891 0.407-1.392 0.646-0.499 0.244-1.02 0.509-1.506 0.813-0.231 0.161-0.496 0.291-0.694 0.476-0.104 0.088-0.211 0.171-0.322 0.25l-0.272 0.274c-0.198 0.173-0.307 0.379-0.451 0.564-0.128 0.191-0.177 0.4-0.278 0.587-0.045 0.196-0.066 0.387-0.104 0.562-0.041 0.176 7e-3 0.329 0 0.462l0.011 0.429s-0.078-0.129-0.204-0.381c-0.049-0.129-0.169-0.277-0.189-0.476-0.029-0.196-0.081-0.428-0.082-0.683 0.045-0.245 0.051-0.545 0.169-0.815 0.124-0.264 0.233-0.577 0.448-0.809 0.188-0.263 0.403-0.506 0.659-0.709 0.238-0.232 0.52-0.388 0.784-0.582 0.559-0.323 1.137-0.596 1.7-0.775 0.56-0.187 1.094-0.314 1.559-0.381 0.927-0.152 1.561-0.098 1.561-0.098z"/><line x1="96.144" x2="73.978" y1="136.36" y2="171.77" fill="none" stroke="#000" stroke-linecap="round" stroke-width="2"/><path d="m139.11 86.566s0.439-0.769 1.22-1.789c0.774-1.028 1.876-2.32 3.052-3.534 1.171-1.22 2.413-2.363 3.366-3.203 0.48-0.421 0.88-0.773 1.16-1.018 0.268-0.255 0.44-0.404 0.44-0.404s-0.059 0.207-0.196 0.576c-0.154 0.352-0.395 0.851-0.745 1.401-0.687 1.112-1.755 2.465-2.946 3.689-1.184 1.233-2.487 2.342-3.53 3.104-1.034 0.77-1.821 1.178-1.821 1.178z"/></svg>
