<?xml version="1.0" encoding="UTF-8"?>
<svg width="226.77px" height="226.77px" enable-background="new 0 0 226.77 226.77" version="1.1" viewBox="0 0 226.77 226.77" xmlns="http://www.w3.org/2000/svg"><rect width="226.77px" height="226.77px" fill="#fff"/><linearGradient id="a" x1="78.553" x2="89.481" y1="194.24" y2="167.87" gradientUnits="userSpaceOnUse"><stop stop-color="#fff" offset="0"/><stop stop-color="#EDEDED" offset="1"/></linearGradient><polygon points="110.3 198.95 121.13 158.73 98.555 156.8 73.802 147.78 74.278 149.51 65.542 162.34 48.298 185.95" fill="url(#a)"/><path d="m79.138 149.16s14.939 10.114 39.145 9.163" fill="none" stroke="#000"/><path d="m51.964 182.95c0-1 25.462-37.012 26.333-41.917 0.872-4.905 13.835-70.131 13.835-70.131" fill="none" stroke="#000" stroke-linecap="round" stroke-width="2"/><path d="m90.697 70.831s-2.174-9.604 4.972-12.347" fill="none" stroke="#000" stroke-linecap="round" stroke-width="2"/><path d="m100.26 68.237 25.788-12.968c1.393-0.7 3.732-0.84 5.198-0.309l17.545 6.347c1.466 0.53 3.229 2.109 3.918 3.507l2.435 4.942" fill="none" stroke="#000" stroke-linecap="round" stroke-width="2"/><path d="m100.69 56.413 31.839-15.568c1.401-0.685 3.606-0.534 4.9 0.334l20.999 14.088c1.295 0.869 2.958 2.703 3.697 4.075l2.253 4.187" fill="none" stroke="#000" stroke-linecap="round" stroke-width="2"/><path d="m144.51 32.843 4.714-0.352c1.555-0.116 3.706 0.713 4.781 1.842l10.795 11.343c1.075 1.129 2.433 3.236 3.018 4.681l1.557 3.846" fill="none" stroke="#000" stroke-linecap="round" stroke-width="1.6"/><path d="m96.623 57.861 37.107-26.506c1.277-0.894 3.345-0.863 4.595 0.068l23.113 17.223c1.25 0.932 2.87 2.821 3.6 4.198l3.221 6.078" fill="none" stroke="#000" stroke-linecap="round" stroke-width="2"/><path d="m117.4 80.277s5.121-0.918 8.678-6.291" fill="none" stroke="#000" stroke-linecap="round" stroke-width="2"/><path d="m124.56 73.118s7.835 3.112 16.833 1.663" fill="none" stroke="#000" stroke-linecap="round" stroke-width="2"/><path d="m138.31 73.322s11.896 15.439 22.091 4.013l-5.366-6.929" fill="none" stroke="#000" stroke-linecap="round" stroke-width="2"/><path d="m161.22 78.976s5.51 1.321 8.657-5.776l-5.619-7.674" fill="none" stroke="#000" stroke-linecap="round" stroke-width="2"/><path d="m168.54 59.994 4.32 7.974s-1.589 3.089-2.902 3.322" fill="none" stroke="#000" stroke-linecap="round" stroke-width="2"/><path d="m139.46 78.447 4 9.667s3 2.167 7.5 2.167" fill="none" stroke="#000" stroke-linecap="round" stroke-width="2"/><line x1="148.13" x2="158.63" y1="92.28" y2="84.28" fill="none" stroke="#000" stroke-linecap="round" stroke-width="2"/><path d="m158.43 80.716s0.916 4.239 1.299 5.868" fill="none" stroke="#000" stroke-linecap="round" stroke-width="2"/><path d="m122.05 79.877s0.224 0.149 0.417 0.565c0.098 0.206 0.18 0.467 0.263 0.775 0.06 0.307 0.135 0.661 0.143 1.046 0.041 0.389 0.011 0.802 0 1.245-0.05 0.433-0.07 0.903-0.165 1.369-0.093 0.466-0.155 0.96-0.296 1.438-0.13 0.481-0.244 0.977-0.404 1.455-0.306 0.963-0.662 1.905-1.033 2.773-0.172 0.439-0.385 0.843-0.568 1.234-0.184 0.39-0.367 0.755-0.541 1.089-0.358 0.663-0.696 1.196-0.913 1.577-0.227 0.377-0.369 0.585-0.369 0.585s0.062-0.246 0.191-0.666c0.139-0.416 0.31-1.02 0.563-1.723 0.221-0.715 0.512-1.534 0.814-2.412 0.285-0.883 0.622-1.812 0.901-2.755 0.168-0.464 0.288-0.939 0.425-1.403 0.141-0.463 0.252-0.921 0.368-1.366 0.115-0.445 0.191-0.877 0.288-1.287 0.05-0.411 0.146-0.802 0.166-1.162 0.079-0.722 0.083-1.336-0.018-1.75-0.079-0.418-0.232-0.627-0.232-0.627z"/><path d="m118.81 91.231s0.065 0.889 0.178 2.444c0.09 1.556 0.255 3.778 0.369 6.447 0.113 2.669 0.272 5.783 0.346 9.123 0.076 3.339 0.13 6.903 0.13 10.47-0.02 1.784-0.062 3.568-0.14 5.327-0.044 0.88-0.078 1.752-0.167 2.62-0.073 0.856-0.161 1.747-0.427 2.596-0.525 1.654-1.502 3.067-2.433 4.28-0.955 1.222-1.935 2.306-2.89 3.252-1.897 1.906-3.671 3.279-4.927 4.207-0.635 0.457-1.159 0.78-1.517 0.995-0.367 0.2-0.563 0.306-0.563 0.306s0.186-0.122 0.534-0.352c0.34-0.242 0.823-0.616 1.427-1.104 1.2-0.986 2.831-2.5 4.64-4.442 0.907-0.969 1.829-2.073 2.711-3.297 0.874-1.242 1.704-2.568 2.191-4.105 0.222-0.745 0.297-1.562 0.358-2.413 0.076-0.842 0.099-1.709 0.131-2.58 0.056-1.743 0.072-3.52 0.074-5.297 0.044-3.554 0.036-7.113 3e-3 -10.449-0.015-3.337-0.029-6.452-0.041-9.122-1e-3 -2.671-2e-3 -4.897-3e-3 -6.455 0.01-1.56 0.016-2.451 0.016-2.451z"/><path d="m102.54 140.59s0.205-0.133 0.568-0.348c0.364-0.212 0.884-0.514 1.508-0.877 0.627-0.354 1.36-0.759 2.151-1.178 0.788-0.421 1.628-0.871 2.469-1.321 0.844-0.438 1.681-0.891 2.461-1.317 0.782-0.425 1.505-0.832 2.114-1.199 0.612-0.363 1.121-0.676 1.453-0.928 0.333-0.25 0.539-0.388 0.539-0.388s-0.138 0.196-0.406 0.531c-0.13 0.173-0.314 0.353-0.521 0.566-0.204 0.218-0.443 0.457-0.728 0.684-0.55 0.483-1.235 0.994-1.997 1.488-0.754 0.51-1.599 0.982-2.447 1.445-1.708 0.905-3.486 1.656-4.851 2.136-0.68 0.248-1.265 0.407-1.668 0.534-0.407 0.12-0.645 0.172-0.645 0.172z"/><path d="m141.29 82.857s0.141 0.346 0.365 0.959c0.214 0.615 0.547 1.487 0.895 2.547 0.711 2.116 1.572 4.961 2.347 7.831 0.768 2.871 1.449 5.766 1.874 7.96 0.22 1.095 0.352 2.02 0.456 2.664 0.093 0.647 0.118 1.02 0.118 1.02s-0.452-1.417-1.131-3.543c-0.67-2.126-1.509-4.975-2.282-7.842-0.767-2.869-1.467-5.757-1.933-7.939-0.24-1.089-0.399-2.008-0.53-2.646-0.122-0.642-0.179-1.011-0.179-1.011z"/><path d="m168.72 52.608 4.726 8.88s-0.987 1.436-2.154 1.436" fill="none" stroke="#000" stroke-linecap="round" stroke-width="2"/><path d="m174.17 63.104s4.191 0.719 0.826 12.649" fill="none" stroke="#000" stroke-linecap="round" stroke-width="2"/><path d="m175.54 76.264s0.252 0.459 0.613 1.303c0.18 0.422 0.385 0.94 0.595 1.545 0.203 0.606 0.429 1.295 0.616 2.063 0.192 0.767 0.387 1.607 0.503 2.515 0.129 0.904 0.242 1.873 0.218 2.888 0.016 0.506-0.02 1.025-0.07 1.552-0.021 0.527-0.123 1.06-0.242 1.595-0.218 1.072-0.627 2.144-1.186 3.156-0.286 0.5-0.689 0.939-1.033 1.402-0.363 0.377-0.724 0.753-1.082 1.126-0.743 0.752-1.518 1.418-2.266 2.058-1.507 1.271-3.001 2.34-4.323 3.184-2.637 1.706-4.583 2.505-4.583 2.505s1.555-1.368 3.888-3.419c1.145-1.034 2.469-2.243 3.836-3.575 0.693-0.659 1.358-1.385 2.046-2.081 0.339-0.369 0.68-0.74 1.023-1.113 0.25-0.376 0.556-0.707 0.775-1.107 0.454-0.79 0.82-1.655 1.026-2.575 0.104-0.459 0.225-0.911 0.277-1.381 0.076-0.463 0.142-0.925 0.158-1.39 0.038-0.461 0.057-0.917 0.059-1.369 0.011-0.45 0.023-0.893-3e-3 -1.325-0.026-0.864-0.083-1.688-0.148-2.449-0.141-1.523-0.324-2.8-0.465-3.695-0.137-0.897-0.232-1.413-0.232-1.413z"/><path d="m164.17 99.905s-0.25 0.953-0.851 2.575c-0.328 0.796-0.686 1.789-1.21 2.872-0.484 1.105-1.101 2.315-1.8 3.626-0.715 1.299-1.506 2.704-2.431 4.132-0.93 1.425-1.899 2.941-3.042 4.407-1.084 1.511-2.306 2.994-3.572 4.48-1.246 1.504-2.664 2.894-4.001 4.359-1.42 1.383-2.885 2.72-4.307 4.054-1.489 1.26-2.993 2.454-4.426 3.632-1.492 1.104-2.966 2.127-4.353 3.108-1.374 0.999-2.797 1.761-4.051 2.546-1.269 0.762-2.413 1.489-3.505 2.003-1.074 0.539-2.01 1.009-2.781 1.396-1.549 0.75-2.434 1.178-2.434 1.178s0.814-0.554 2.238-1.524c0.716-0.473 1.585-1.047 2.581-1.705 1.017-0.622 2.075-1.463 3.271-2.309 0.593-0.429 1.211-0.876 1.851-1.339 0.641-0.459 1.315-0.917 1.958-1.458 1.311-1.04 2.695-2.137 4.125-3.272 1.377-1.198 2.777-2.46 4.238-3.695 1.38-1.325 2.798-2.655 4.176-4.023 1.324-1.419 2.733-2.764 3.969-4.223 1.245-1.45 2.528-2.831 3.632-4.282 1.159-1.408 2.207-2.822 3.201-4.169 0.516-0.661 0.942-1.353 1.398-1.996 0.441-0.652 0.903-1.262 1.282-1.885 0.78-1.235 1.516-2.36 2.107-3.393 0.62-1.018 1.102-1.937 1.526-2.685 0.385-0.764 0.718-1.354 0.909-1.772 0.197-0.416 0.302-0.638 0.302-0.638z"/><line x1="126.18" x2="112.06" y1="138.09" y2="195.77" fill="none" stroke="#000" stroke-linecap="round" stroke-width="2"/><path d="m153.5 71.69s-0.378 0.483-0.755 1.22c-0.18 0.37-0.345 0.811-0.374 1.26-0.025 0.224 8e-3 0.448 0.064 0.665 0.05 0.219 0.147 0.434 0.286 0.634 0.086 0.178 0.318 0.469 0.465 0.666 0.167 0.216 0.332 0.429 0.491 0.635 0.33 0.409 0.653 0.783 0.938 1.103 0.574 0.632 1.008 1.049 1.008 1.049s-0.605-0.122-1.374-0.606c-0.386-0.235-0.81-0.556-1.219-0.947-0.2-0.199-0.414-0.399-0.604-0.637-0.202-0.255-0.354-0.407-0.554-0.735-0.179-0.284-0.315-0.616-0.379-0.955-0.079-0.337-0.056-0.69 0.01-1.001 0.054-0.318 0.187-0.595 0.32-0.838 0.134-0.244 0.296-0.446 0.453-0.619 0.639-0.689 1.224-0.894 1.224-0.894z"/><path d="m162.52 66.501s-0.219 0.073-0.544 0.276c-0.315 0.202-0.754 0.559-0.923 1.116-0.091 0.273-0.112 0.587-0.067 0.923 0.029 0.334 0.155 0.688 0.292 1.048 0.136 0.373 0.333 0.774 0.478 1.196 0.153 0.408 0.309 0.822 0.465 1.236 0.303 0.805 0.671 1.559 1.217 1.942 0.272 0.193 0.595 0.301 0.931 0.347 0.335 0.037 0.678 0.047 0.996 4e-3 0.637-0.061 1.186-0.186 1.564-0.279 0.386-0.087 0.606-0.136 0.606-0.136s-0.195 0.116-0.535 0.32c-0.172 0.101-0.382 0.223-0.641 0.327-0.254 0.117-0.544 0.247-0.888 0.331-0.333 0.11-0.725 0.176-1.152 0.177-0.425-1e-3 -0.918-0.08-1.351-0.347-0.424-0.259-0.809-0.631-1.049-1.051-0.267-0.413-0.452-0.846-0.63-1.274-0.316-0.877-0.581-1.676-0.841-2.505-0.135-0.429-0.221-0.869-0.206-1.304-8e-3 -0.429 0.1-0.852 0.288-1.187 0.372-0.697 0.992-0.952 1.365-1.064 0.396-0.108 0.625-0.096 0.625-0.096z"/><path d="m167.29 60.86s-1.033 0.85-1.843 2.169" fill="none" stroke="#000" stroke-linecap="round" stroke-width=".75"/><path d="m168.7 69.43s0.15-0.209 0.386-0.471c0.239-0.258 0.57-0.561 0.899-0.845 0.335-0.279 0.664-0.544 0.907-0.763 0.112-0.113 0.24-0.204 0.294-0.288 0.067-0.079 0.118-0.128 0.118-0.128s0.071 0.258-0.044 0.64c-0.113 0.376-0.419 0.796-0.79 1.11-0.374 0.314-0.808 0.533-1.158 0.637-0.353 0.103-0.612 0.108-0.612 0.108z"/><path d="m125.21 79.083s0.057 0.035 0.133 0.138c0.074 0.101 0.181 0.265 0.241 0.496 0.076 0.228 0.123 0.515 0.152 0.845 0.033 0.332 0.029 0.705-6e-3 1.11-0.077 0.805-0.252 1.736-0.55 2.69-0.275 0.964-0.665 1.955-1.089 2.926-0.848 1.945-1.921 3.769-2.779 5.097-0.437 0.66-0.839 1.187-1.102 1.566-0.272 0.374-0.439 0.58-0.439 0.58s0.091-0.251 0.27-0.676c0.188-0.421 0.431-1.035 0.767-1.745 0.314-0.722 0.695-1.554 1.115-2.437 0.389-0.897 0.856-1.828 1.254-2.786 0.224-0.469 0.426-0.946 0.614-1.418 0.198-0.47 0.394-0.93 0.557-1.385 0.356-0.901 0.621-1.758 0.818-2.501 0.082-0.373 0.163-0.716 0.2-1.025 0.039-0.307 0.053-0.581 0.028-0.8-0.016-0.222-0.054-0.395-0.098-0.508-0.041-0.114-0.086-0.167-0.086-0.167z"/></svg>
