<?xml version="1.0" encoding="UTF-8"?>
<svg width="226.77px" height="226.77px" enable-background="new 0 0 226.77 226.77" version="1.1" viewBox="0 0 226.77 226.77" xmlns="http://www.w3.org/2000/svg"><rect width="226.77px" height="226.77px" fill="#fff"/><linearGradient id="a" x1="84" x2="94.284" y1="105.54" y2="120.81" gradientTransform="matrix(.9757 .2192 .2192 -.9757 -52.486 218.22)" gradientUnits="userSpaceOnUse"><stop stop-color="#fff" offset="0"/><stop stop-color="#EDEDED" offset="1"/></linearGradient><polygon points="66.667 157.17 85.58 123.44 85.417 119.25 79.197 116.28 72.814 110.64 69.072 101.19 71.722 82.296 35 113.5" fill="url(#a)"/><path d="m182.46 154.63s-0.207-0.286-0.569-0.786c-0.35-0.506-0.885-1.207-1.507-2.048-0.32-0.414-0.663-0.864-1.044-1.313-0.191-0.223-0.393-0.447-0.606-0.651-0.195-0.197-0.467-0.416-0.594-0.445-0.142-0.034-0.42 0.027-0.724 0.12-0.295 0.093-0.603 0.207-0.908 0.339-0.613 0.26-1.219 0.587-1.821 0.915-0.6 0.332-1.188 0.693-1.724 1.079-0.265 0.186-0.534 0.395-0.705 0.583-0.17 0.212-0.223 0.404-0.279 0.698-0.091 0.562-0.035 1.174 0.089 1.733 0.125 0.562 0.297 1.09 0.485 1.569 0.39 0.953 0.811 1.723 1.144 2.237 0.331 0.519 0.521 0.816 0.521 0.816s-0.061-0.063-0.177-0.182c-0.11-0.123-0.296-0.285-0.491-0.526-0.403-0.47-0.963-1.168-1.487-2.115-0.245-0.481-0.503-1.015-0.684-1.622-0.178-0.606-0.314-1.278-0.244-2.027 0.035-0.353 0.17-0.829 0.428-1.151 0.27-0.329 0.544-0.548 0.83-0.777 0.576-0.438 1.184-0.819 1.806-1.18s1.271-0.671 1.934-0.947c0.333-0.134 0.668-0.264 1.026-0.354 0.178-0.046 0.363-0.084 0.559-0.108 0.105-8e-3 0.191-0.021 0.335-0.014 0.074 1e-3 0.122 7e-3 0.157 0.014l0.096 0.015 0.102 0.031c0.494 0.202 0.689 0.471 0.937 0.716 0.224 0.255 0.416 0.511 0.597 0.764 0.363 0.503 0.666 0.995 0.933 1.456 1.057 1.847 1.585 3.161 1.585 3.161z"/><path d="m166.37 156.67s-0.198-0.273-0.545-0.752c-0.336-0.484-0.843-1.158-1.441-1.961-0.302-0.4-0.635-0.827-0.993-1.265-0.358-0.421-0.775-0.896-1.185-1.181-0.187-0.22-0.882 0.022-1.441 0.235-0.587 0.229-1.178 0.519-1.754 0.831-0.58 0.307-1.15 0.637-1.684 0.991-0.519 0.367-1.079 0.699-1.317 1.124-0.208 0.367-0.247 0.956-0.143 1.463 0.101 0.52 0.278 1.018 0.474 1.466 0.407 0.892 0.831 1.621 1.152 2.111 0.318 0.497 0.499 0.782 0.499 0.782s-0.249-0.229-0.654-0.663c-0.392-0.443-0.972-1.073-1.507-1.966-0.266-0.446-0.526-0.959-0.693-1.564-0.155-0.6-0.265-1.318 0.117-2.084 0.388-0.687 0.987-1.073 1.53-1.468 0.563-0.387 1.151-0.743 1.755-1.073 0.611-0.317 1.235-0.611 1.885-0.852 0.324-0.124 0.663-0.22 1.022-0.29 0.214-0.027 0.468-0.054 0.601-0.029 0.227 1e-3 0.516 0.151 0.647 0.256 0.606 0.466 0.935 0.98 1.289 1.462 0.338 0.484 0.623 0.959 0.877 1.4 1.003 1.771 1.509 3.027 1.509 3.027z"/><path d="m188.86 144.16s-0.516-0.709-1.289-1.772c-0.391-0.525-0.835-1.146-1.342-1.776-0.249-0.318-0.513-0.64-0.794-0.943-0.274-0.29-0.597-0.618-0.848-0.735-0.068-0.029-0.036-0.019-0.163-0.023-0.029 9e-3 -0.119 0.017-0.203 0.04-0.17 0.038-0.358 0.092-0.542 0.163-0.368 0.146-0.738 0.312-1.095 0.483-0.708 0.354-1.375 0.701-1.94 1.012-0.568 0.308-1.038 0.576-1.365 0.774-0.324 0.199-0.501 0.339-0.501 0.339s0.08-0.217 0.324-0.533c0.239-0.318 0.625-0.732 1.138-1.167 0.515-0.431 1.149-0.896 1.899-1.293 0.372-0.204 0.773-0.394 1.215-0.538 0.221-0.072 0.452-0.141 0.711-0.177 0.13-0.016 0.258-0.026 0.448-0.012 0.09 5e-3 0.342 0.057 0.466 0.135 0.521 0.305 0.78 0.659 1.07 1.012 0.276 0.354 0.519 0.711 0.747 1.06 0.444 0.705 0.825 1.375 1.126 1.963 0.611 1.169 0.938 1.988 0.938 1.988z"/><path d="m41.219 108.22c2.576-2.857 41.066-39.581 56.811-41.532 11.974-1.483 54.369 13.95 54.369 13.95s6.814-0.728 12.364 12.186l15.315 25.112 10.274 25.23s1.994 7.444-7.261 7.756" fill="none" stroke="#000" stroke-linecap="round" stroke-width="2"/><path d="m73.402 146.53s10.994-20.63 17.251-27.537" fill="none" stroke="#000" stroke-linecap="round" stroke-width="2"/><path d="m86.478 112.81s10.336 9.539 22.262 10.783" fill="none" stroke="#000" stroke-linecap="round" stroke-width="2"/><path d="m153.4 97.163 14.591 23.017 16.947 34.903s-2.157 6.512-10.029 5.92c-6.879-0.517-9.73-8.985-9.73-8.985" fill="none" stroke="#000" stroke-linecap="round" stroke-width="2"/><line x1="154.33" x2="156.11" y1="93.833" y2="101.43" fill="none" stroke="#000" stroke-linecap="round" stroke-width="2"/><path d="m139.73 104.21 13.716 24.765 15.381 30.444s-5.577 8.833-12.076 2.806c-3.872-3.591-16.948-21.761-16.948-21.761l-15.688-25.274-2.365-1.438" fill="none" stroke="#000" stroke-linecap="round" stroke-width="2"/><path d="m106.24 118.59 14.899 19.239s8.68 8.286 14.357-1.583" fill="none" stroke="#000" stroke-linecap="round" stroke-width="2"/><path d="m127 144.74s-0.94 4.29 3.406 7.274" fill="none" stroke="#000" stroke-linecap="round" stroke-width="2"/><line x1="132.02" x2="139" y1="153.08" y2="146.5" fill="none" stroke="#000" stroke-linecap="round" stroke-width="2"/><line x1="136.37" x2="142.13" y1="146.87" y2="146.36" fill="none" stroke="#000" stroke-linecap="round" stroke-width="2"/><path d="m72.109 85.049s-12.219 24.642 14.281 34.392" fill="none" stroke="#000"/><path d="m140.25 86.75s7.25 1 9.25 9.5" fill="none" stroke="#000" stroke-linecap="round"/><path d="m165.61 122.48s-7.859 3.017-9.109 4.517" fill="none" stroke="#000" stroke-width=".5"/><path d="m165.75 124.75s-3.073 2.032-7.5 3.5" fill="none" stroke="#000" stroke-width=".5"/><path d="m150.74 129.24s-4.599 4.163-9.599 5.913" fill="none" stroke="#000" stroke-width=".5"/><path d="m149.77 127.94s-7.155 2.988-9.768 5.807" fill="none" stroke="#000" stroke-width=".5"/><path d="m177.01 116.67s-3.04 0.365-6.566 3.526" fill="none" stroke="#000" stroke-width=".5"/><path d="m178.11 117.88s-1.442 1.937-7.904 3.648" fill="none" stroke="#000" stroke-width=".5"/></svg>
