<?xml version="1.0" encoding="UTF-8"?>
<svg width="226.77px" height="226.77px" enable-background="new 0 0 226.772 226.77" version="1.1" viewBox="0 0 226.77 226.77" xmlns="http://www.w3.org/2000/svg"><rect width="226.77px" height="226.77px" fill="#fff"/><linearGradient id="a" x1="82.343" x2="91.678" y1="18.13" y2="31.991" gradientTransform="matrix(.9882 -.1534 -.1534 -.9882 6.0178 241.6)" gradientUnits="userSpaceOnUse"><stop stop-color="#fff" offset="0"/><stop stop-color="#EDEDED" offset="1"/></linearGradient><polygon points="109.63 222.16 122.95 196.07 129.12 182.64 118.12 181.95 102.87 177.07 92.68 170.46 86.085 165.68 56.65 203.88" fill="url(#a)"/><path d="m63.969 197.12s27.602-33.707 28.216-42.479-9.852-47.59-10.468-55.839c-0.517-6.92 3.214-12.584 7.865-15.519s16.874-23.461 21.149-26.694 33.493-0.221 37.753 4.843c1.704 2.026 4.129 4.206 5.404 6.092" fill="none" stroke="#000" stroke-linecap="round" stroke-width="2"/><path d="m98.299 68.903s0.482-0.954 1.391-2.586c0.929-1.62 2.213-3.963 3.927-6.677 0.855-1.359 1.794-2.824 2.889-4.323 0.549-0.751 1.122-1.515 1.806-2.275 0.18-0.19 0.35-0.379 0.568-0.57 0.109-0.096 0.204-0.188 0.351-0.285l0.206-0.141c0.08-0.048 0.197-0.099 0.298-0.142 0.077-0.027 0.051-0.031 0.214-0.074l0.09-0.018 0.181-0.035 0.368-0.068 0.824-0.094c2.076-0.184 4.125-0.243 6.247-0.235 2.113 3e-3 4.255 0.057 6.396 0.153 2.14 0.112 4.278 0.273 6.379 0.472 2.103 0.183 4.162 0.48 6.154 0.768 0.994 0.157 1.972 0.32 2.925 0.493 0.95 0.198 1.879 0.391 2.784 0.579 0.45 0.11 0.893 0.218 1.33 0.325 0.218 0.053 0.435 0.106 0.65 0.159 0.24 0.063 0.372 0.082 0.694 0.185 0.764 0.23 1.725 0.812 2.331 1.315 1.317 1.06 2.23 2.257 3.006 3.318 0.765 1.072 1.361 2.045 1.836 2.854 0.48 0.805 0.797 1.472 1.024 1.918 0.216 0.452 0.331 0.693 0.331 0.693s-0.577-0.902-1.681-2.398c-0.552-0.747-1.24-1.641-2.092-2.602-0.86-0.944-1.872-1.999-3.113-2.865-0.315-0.194-0.642-0.435-0.954-0.558-0.277-0.168-0.693-0.287-1.113-0.406-0.819-0.153-1.667-0.31-2.537-0.473-1.792-0.29-3.689-0.549-5.656-0.792-1.969-0.233-4.011-0.41-6.087-0.589-2.076-0.175-4.191-0.307-6.306-0.4-2.114-0.118-4.232-0.194-6.314-0.22-2.071-0.018-4.155-0.065-6.063 0.054l-0.661 0.046-0.362 0.055-0.182 0.029-0.091 0.015c0.105-0.023 0.024 1e-3 0.044-3e-3 -0.01 9e-3 -0.01-2e-3 -0.035 0.011l-0.098 0.065c-0.062 0.031-0.145 0.108-0.222 0.167-0.156 0.119-0.321 0.281-0.479 0.431-0.639 0.635-1.24 1.346-1.809 2.043-1.132 1.407-2.174 2.783-3.125 4.061-1.887 2.568-3.472 4.713-4.544 6.239-1.096 1.516-1.72 2.381-1.72 2.381z"/><line x1="154.12" x2="160.73" y1="67.889" y2="74.727" fill="none" stroke="#000" stroke-linecap="round" stroke-width="2"/><path d="m94.067 91.625 3.834-3.893s12.515-19.093 13.475-20.151 21.994-5.533 23.734-5.687 8.196 3.939 8.196 3.939" fill="none" stroke="#000" stroke-linecap="round" stroke-width="2"/><line x1="142.91" x2="150.46" y1="66.719" y2="70.307" fill="none" stroke="#000" stroke-linecap="round" stroke-width="1.7"/><path d="m115.18 92.749c1.117-0.59 2.108-1.357 2.971-2.211 0.871-0.849 1.578-1.827 2.127-2.861 0.546-1.039 0.897-2.157 1.104-3.293 0.101-0.57 0.154-1.148 0.172-1.729 0.015-0.58 5e-3 -1.163-0.03-1.746l-0.088-1.466 1.519 0.324c0.242 0.052 0.565 0.106 0.855 0.146 0.299 0.04 0.6 0.074 0.901 0.098 0.603 0.054 1.208 0.057 1.807 0.056 1.198-9e-3 2.378-0.169 3.473-0.503 1.083-0.356 2.107-0.829 2.938-1.552 0.425-0.349 0.8-0.756 1.129-1.204 0.173-0.218 0.316-0.459 0.468-0.696 0.159-0.232 0.275-0.496 0.418-0.743l0.666-1.149 1.013 0.584c0.246 0.142 0.572 0.308 0.872 0.448 0.308 0.143 0.62 0.282 0.938 0.407 0.634 0.255 1.284 0.465 1.935 0.656 1.306 0.377 2.653 0.542 3.972 0.46 1.311-0.108 2.597-0.54 3.682-1.37 0.277-0.199 0.523-0.441 0.776-0.679 0.243-0.249 0.488-0.503 0.699-0.789 0.443-0.556 0.827-1.171 1.183-1.815-0.187 0.704-0.381 1.43-0.727 2.098-0.155 0.344-0.352 0.667-0.557 0.991-0.212 0.317-0.449 0.625-0.715 0.908-0.26 0.291-0.552 0.553-0.858 0.804-0.315 0.235-0.637 0.478-0.993 0.655-0.346 0.2-0.718 0.35-1.091 0.491-0.376 0.139-0.761 0.241-1.15 0.334-1.565 0.338-3.164 0.24-4.688-0.022-0.767-0.13-1.512-0.339-2.245-0.58-0.367-0.119-0.729-0.254-1.089-0.396-0.367-0.147-0.701-0.288-1.098-0.485l1.678-0.565c-0.157 0.328-0.289 0.667-0.473 0.985-0.171 0.325-0.369 0.636-0.587 0.936-0.426 0.605-0.926 1.169-1.492 1.658-1.119 0.996-2.473 1.704-3.867 2.097-1.396 0.394-2.818 0.547-4.213 0.53-0.698-6e-3 -1.39-0.079-2.075-0.175-0.343-0.05-0.684-0.109-1.024-0.177-0.349-0.072-0.663-0.142-1.049-0.251l1.431-1.142c-4e-3 0.672-0.017 1.345-0.114 2.015-0.088 0.67-0.219 1.336-0.403 1.988-0.356 1.307-0.946 2.556-1.738 3.641-0.772 1.1-1.763 2.017-2.84 2.749-1.09 0.725-2.282 1.27-3.523 1.54z"/><path d="m119.98 90.237s0.307 0.057 0.81 0.294c0.243 0.127 0.547 0.284 0.853 0.523 0.319 0.224 0.654 0.519 0.978 0.877 0.159 0.185 0.325 0.377 0.496 0.577 0.151 0.213 0.289 0.446 0.441 0.683 0.294 0.475 0.546 1.015 0.752 1.588 0.172 0.58 0.396 1.181 0.461 1.811 0.044 0.314 0.111 0.63 0.134 0.949l0.028 0.956c0.032 0.642-0.044 1.269-0.117 1.886-0.04 0.623-0.206 1.21-0.339 1.778-0.235 1.149-0.679 2.146-1.027 2.999-0.157 0.433-0.397 0.792-0.571 1.124-0.178 0.33-0.352 0.609-0.49 0.839-0.283 0.458-0.461 0.709-0.461 0.709s0.021-0.314 0.087-0.846c0.036-0.265 0.074-0.587 0.139-0.947 0.048-0.365 0.15-0.762 0.196-1.207 0.053-0.444 0.113-0.921 0.202-1.416 0.101-0.494 0.118-1.025 0.191-1.561 0.072-0.538 0.127-1.093 0.142-1.652 0.022-0.56 0.091-1.127 0.049-1.686l-6e-3 -0.84c-0.025-0.275-0.051-0.549-0.076-0.821-0.03-0.551-0.135-1.069-0.228-1.581-0.132-0.494-0.236-0.992-0.405-1.434-0.085-0.224-0.168-0.441-0.248-0.652-0.097-0.205-0.191-0.402-0.281-0.592-0.199-0.369-0.389-0.72-0.59-1.006-0.198-0.292-0.386-0.54-0.551-0.743-0.335-0.398-0.569-0.609-0.569-0.609z"/><path d="m121.62 109.66s-0.029 0.812 0.099 2.208c0.129 1.392 0.423 3.379 1.19 5.602 0.379 1.101 0.951 2.266 1.49 3.549 0.55 1.276 1.129 2.629 1.657 4.058 0.531 1.428 1.071 2.911 1.525 4.452 0.458 1.539 0.889 3.116 1.237 4.717 0.33 1.605 0.6 3.225 0.777 4.837 0.179 1.612 0.216 3.215 0.18 4.767-0.111 3.102-0.727 6.009-1.782 8.28-1.008 2.294-2.378 3.905-3.429 4.865-0.498 0.514-0.978 0.818-1.275 1.053-0.303 0.227-0.465 0.348-0.465 0.348s0.137-0.149 0.393-0.43c0.253-0.282 0.642-0.673 1.053-1.24 0.865-1.089 1.924-2.787 2.653-5.015 0.391-1.102 0.632-2.354 0.845-3.672 0.185-1.328 0.237-2.745 0.245-4.211-0.017-1.469-0.166-2.985-0.338-4.524-0.191-1.539-0.477-3.094-0.813-4.64-0.314-1.551-0.711-3.09-1.135-4.596-0.434-1.503-0.857-2.989-1.33-4.409-0.481-1.422-0.945-2.796-1.386-4.1-0.454-1.3-0.915-2.546-1.202-3.769-0.579-2.427-0.581-4.499-0.489-5.917 0.103-1.424 0.3-2.213 0.3-2.213z"/><path d="m123.01 102.7c1.582-0.53 3.254-0.763 4.934-0.818 0.422-0.026 0.844-0.023 1.265 6e-3 0.422 0.02 0.847 0.029 1.269 0.086 0.851 0.066 1.685 0.264 2.527 0.446 0.415 0.116 0.829 0.247 1.239 0.387 0.417 0.12 0.805 0.33 1.206 0.502 0.401 0.174 0.798 0.358 1.169 0.602 0.374 0.234 0.758 0.453 1.106 0.726l1.018 0.856c0.341 0.282 0.613 0.642 0.906 0.974 0.295 0.333 0.572 0.676 0.784 1.067l0.686 1.129-1.026-0.38c0.22-0.064 0.379-0.095 0.563-0.129 0.178-0.033 0.354-0.057 0.531-0.078 0.353-0.042 0.705-0.057 1.057-0.061 0.352 2e-3 0.703 0.032 1.05 0.084 0.346 0.06 0.69 0.121 1.024 0.226 0.338 0.081 0.658 0.231 0.974 0.363 0.306 0.165 0.616 0.308 0.892 0.512 0.286 0.185 0.539 0.412 0.788 0.634 0.248 0.223 0.447 0.499 0.664 0.739-0.292-0.157-0.562-0.334-0.856-0.462-0.29-0.136-0.573-0.27-0.876-0.357-0.582-0.22-1.19-0.325-1.788-0.377-0.599-0.059-1.199-0.022-1.785 0.055-0.293 0.044-0.584 0.096-0.867 0.171-0.142 0.037-0.282 0.076-0.418 0.122-0.13 0.042-0.282 0.099-0.369 0.139l-0.557 0.26-0.469-0.64-0.673-0.917c-0.203-0.32-0.466-0.59-0.74-0.849-0.28-0.251-0.491-0.567-0.796-0.791l-0.881-0.7c-0.298-0.228-0.646-0.389-0.956-0.602-0.308-0.219-0.65-0.387-0.996-0.547-0.347-0.159-0.675-0.356-1.046-0.47l-1.081-0.414-1.12-0.337c-0.374-0.115-0.764-0.174-1.144-0.281-0.767-0.188-1.552-0.317-2.344-0.436-0.396-0.065-0.794-0.121-1.196-0.156-0.401-0.05-0.804-0.099-1.209-0.127-0.81-0.066-1.628-0.132-2.459-0.157z"/><path d="m113.47 217.62 24.753-54.81s19.293-13.526 20.76-39.576c0 0 12.601-19.069 12.512-23.698-0.089-4.628-1.943-7.232-5.248-11.5" fill="none" stroke="#000" stroke-linecap="round" stroke-width="2"/><line x1="166.08" x2="163.66" y1="89.207" y2="78.723" fill="none" stroke="#000" stroke-linecap="round" stroke-width="2"/><path d="m158.78 79.074c-0.402 0.276-0.737 0.626-1.06 0.974-0.322 0.351-0.602 0.735-0.868 1.122-0.535 0.774-0.947 1.62-1.304 2.478-0.178 0.43-0.332 0.87-0.462 1.317-0.145 0.441-0.264 0.892-0.373 1.344-0.109 0.453-0.195 0.911-0.272 1.37-0.064 0.462-0.155 0.919-0.2 1.385-0.059 0.463-0.101 0.929-0.128 1.397-0.046 0.465-0.032 0.938-0.066 1.404-0.03 0.938-0.027 1.88 0.015 2.822 0.052 0.942 0.099 1.887 0.184 2.831 0.078 0.945 0.216 1.885 0.32 2.832l0.079 0.723-0.603 0.27c-0.203 0.091-0.466 0.23-0.697 0.36-0.239 0.134-0.474 0.278-0.706 0.428-0.466 0.299-0.909 0.631-1.346 0.973-0.874 0.684-1.666 1.473-2.354 2.347-0.694 0.871-1.26 1.845-1.69 2.895-0.424 1.052-0.69 2.184-0.82 3.359-0.177-1.164-0.174-2.39 0.089-3.579 0.242-1.195 0.722-2.348 1.355-3.407 0.63-1.065 1.445-2.007 2.331-2.866 0.446-0.428 0.929-0.814 1.427-1.182 0.25-0.183 0.504-0.36 0.767-0.529 0.27-0.172 0.515-0.326 0.837-0.495l-0.524 0.992c-0.176-0.969-0.304-1.945-0.416-2.926-0.062-0.489-0.092-0.984-0.14-1.476-0.053-0.492-0.047-0.99-0.071-1.484-0.024-0.992-8e-3 -1.986 0.045-2.981 0.077-0.995 0.189-1.988 0.377-2.974 0.361-1.966 0.992-3.917 2.01-5.662 0.5-0.875 1.111-1.688 1.819-2.399 0.708-0.7 1.523-1.319 2.445-1.663z"/><path d="m147.51 76.429s0.156 0.123 0.425 0.313c0.263 0.194 0.636 0.457 1.068 0.745 0.433 0.291 0.944 0.582 1.472 0.872 0.543 0.267 1.108 0.536 1.704 0.714 0.285 0.13 0.602 0.152 0.894 0.256 0.301 0.066 0.606 0.104 0.902 0.174 0.306 0.035 0.602 0.07 0.882 0.102 0.286 0.044 0.563 0.03 0.826 0.058 0.527 0.055 0.978 0.029 1.31 0.056 0.332 0.02 0.535 0.047 0.535 0.047s-0.143 0.131-0.416 0.332c-0.277 0.189-0.671 0.504-1.223 0.694-0.273 0.101-0.567 0.251-0.902 0.312-0.333 0.063-0.691 0.139-1.067 0.171-0.377-1e-3 -0.775 0.018-1.172-0.035-0.394-0.076-0.808-0.118-1.192-0.269-0.389-0.135-0.772-0.282-1.117-0.495-0.362-0.179-0.668-0.432-0.967-0.662-0.57-0.498-1.025-1.032-1.31-1.553-0.308-0.501-0.47-0.97-0.557-1.301s-0.095-0.531-0.095-0.531z"/><path d="m89.382 167.38s12.778 14.451 34.828 14.974" fill="none" stroke="#000" stroke-linecap="round"/><path d="m163.5 78.865c-0.014-7e-3 -0.022-0.02-0.115-0.071-0.087-0.047-0.226-0.108-0.404-0.169-0.356-0.12-0.875-0.222-1.413-0.228-0.537-0.011-1.087 0.045-1.494 0.127-0.408 0.076-0.679 0.148-0.679 0.148s0.247-0.13 0.634-0.298c0.386-0.174 0.925-0.358 1.493-0.476 0.567-0.122 1.166-0.146 1.626-0.101 0.23 0.024 0.425 0.06 0.565 0.098 0.134 0.034 0.251 0.084 0.237 0.077 0.246 0.125 0.345 0.425 0.221 0.672s-0.425 0.345-0.671 0.221z"/><path d="m162.04 75.334s-0.039 0.086-0.108 0.236c-0.071 0.138-0.173 0.329-0.309 0.543-0.269 0.431-0.676 0.959-1.132 1.426-0.906 0.955-2.019 1.57-2.019 1.57s0.917-0.888 1.5-1.963c0.299-0.53 0.53-1.084 0.658-1.502 0.066-0.209 0.106-0.383 0.132-0.5 0.018-0.109 0.028-0.172 0.028-0.172l3e-3 -0.017c0.059-0.358 0.397-0.601 0.755-0.542s0.601 0.397 0.542 0.755c-9e-3 0.057-0.027 0.115-0.05 0.166z"/><path d="m163.96 90.268s-0.058-1e-3 -0.168-4e-3c-0.142-4e-3 -0.272-0.024-0.466-0.061-0.373-0.069-0.873-0.25-1.381-0.583-0.263-0.155-0.498-0.378-0.75-0.6-0.22-0.251-0.469-0.5-0.654-0.803-0.214-0.285-0.375-0.607-0.537-0.931-0.175-0.318-0.271-0.671-0.408-1.004-0.12-0.34-0.193-0.69-0.288-1.027-0.093-0.337-0.127-0.68-0.191-1.004-0.129-0.648-0.135-1.265-0.198-1.783-0.036-1.046-0.043-1.738-0.043-1.738s0.102 0.689 0.276 1.708c0.131 0.501 0.217 1.1 0.428 1.707 0.103 0.303 0.179 0.625 0.311 0.932 0.134 0.305 0.246 0.624 0.399 0.92 0.168 0.286 0.296 0.597 0.49 0.853 0.182 0.265 0.357 0.524 0.567 0.733 0.186 0.234 0.415 0.398 0.609 0.573 0.218 0.14 0.413 0.286 0.615 0.366 0.392 0.185 0.737 0.256 0.964 0.262 0.105 5e-3 0.214 5e-3 0.233-2e-3 0.053-6e-3 0.081-9e-3 0.081-9e-3l0.038-4e-3c0.413-0.048 0.787 0.248 0.835 0.661s-0.248 0.787-0.661 0.835c-0.031 2e-3 -0.068 4e-3 -0.101 3e-3z"/><path d="m143.28 67.406s-2e-3 0.032-6e-3 0.092c-5e-3 0.039-3e-3 0.129-1e-3 0.245 0.016 0.231 0.047 0.575 0.167 0.976 0.066 0.197 0.131 0.419 0.241 0.634 0.098 0.224 0.227 0.447 0.381 0.669 0.142 0.23 0.34 0.433 0.527 0.654 0.22 0.186 0.411 0.422 0.667 0.582 0.476 0.364 1.017 0.667 1.551 0.89 0.271 0.104 0.526 0.232 0.784 0.306 0.259 0.076 0.504 0.148 0.73 0.214 0.454 0.137 0.849 0.178 1.12 0.241 0.274 0.053 0.43 0.083 0.43 0.083s-0.159-7e-3 -0.437-0.019c-0.277-0.023-0.681-5e-3 -1.156-0.075-0.239-0.033-0.499-0.069-0.773-0.107-0.276-0.036-0.556-0.128-0.855-0.195-0.591-0.15-1.215-0.384-1.802-0.708-0.309-0.138-0.567-0.365-0.85-0.546-0.254-0.219-0.521-0.428-0.733-0.675-0.224-0.239-0.422-0.488-0.586-0.744-0.175-0.248-0.302-0.51-0.421-0.749-0.228-0.486-0.341-0.928-0.409-1.244-0.029-0.16-0.05-0.287-0.058-0.397-8e-3 -0.088-0.012-0.135-0.012-0.135-0.035-0.414 0.272-0.779 0.686-0.814s0.779 0.272 0.814 0.686c3e-3 0.036 4e-3 0.071 2e-3 0.106l-1e-3 0.03z"/><path d="m153.42 70.44s-0.013 0.025-0.037 0.073c-0.018 0.028-0.048 0.107-0.087 0.202-0.069 0.198-0.149 0.499-0.186 0.879-0.021 0.379 8e-3 0.833 0.132 1.314 0.083 0.232 0.146 0.488 0.272 0.724 0.117 0.24 0.236 0.488 0.401 0.712 0.144 0.238 0.314 0.46 0.501 0.666 0.172 0.219 0.36 0.419 0.561 0.597 0.197 0.18 0.372 0.376 0.574 0.519 0.195 0.153 0.38 0.298 0.55 0.431 0.345 0.265 0.662 0.443 0.872 0.589 0.214 0.14 0.336 0.219 0.336 0.219s-0.132-0.062-0.363-0.17c-0.228-0.115-0.571-0.25-0.954-0.466-0.191-0.111-0.398-0.231-0.617-0.358-0.227-0.118-0.433-0.291-0.663-0.45-0.233-0.155-0.459-0.336-0.674-0.542-0.228-0.191-0.445-0.403-0.64-0.64-0.214-0.22-0.387-0.477-0.559-0.732-0.179-0.25-0.299-0.535-0.434-0.8-0.231-0.553-0.353-1.115-0.392-1.609-0.025-0.495 0.023-0.914 0.082-1.208 0.035-0.148 0.061-0.262 0.096-0.36 0.027-0.079 0.041-0.121 0.041-0.121 0.117-0.341 0.488-0.522 0.829-0.405s0.522 0.488 0.405 0.829c-9e-3 0.028-0.021 0.054-0.033 0.08l-0.013 0.027z"/><path d="m153.72 100 5.404 1.422-5.57-0.436c-0.276-0.022-0.483-0.263-0.461-0.54s0.263-0.483 0.54-0.461c0.028 2e-3 0.059 8e-3 0.087 0.015z"/><path d="m132.14 145.06s0.171 1.169-8e-3 2.93c-0.079 0.881-0.274 1.898-0.567 2.969-0.164 0.53-0.33 1.082-0.549 1.624-0.241 0.533-0.446 1.094-0.745 1.611-0.279 0.527-0.579 1.042-0.924 1.519-0.308 0.502-0.691 0.938-1.059 1.358-0.345 0.441-0.751 0.8-1.133 1.14-0.189 0.171-0.373 0.337-0.551 0.497-0.197 0.138-0.387 0.271-0.569 0.399-0.366 0.252-0.694 0.49-1.009 0.663-0.321 0.161-0.6 0.302-0.83 0.417-0.46 0.227-0.726 0.342-0.726 0.342s0.225-0.194 0.624-0.507c0.199-0.154 0.441-0.342 0.719-0.557 0.267-0.226 0.538-0.519 0.858-0.801 0.156-0.145 0.318-0.296 0.486-0.453 0.153-0.171 0.311-0.348 0.474-0.531 0.329-0.359 0.672-0.737 0.979-1.17 0.33-0.414 0.645-0.858 0.934-1.332 0.317-0.456 0.589-0.949 0.845-1.452 0.293-0.483 0.497-1.012 0.737-1.514 0.212-0.514 0.422-1.022 0.604-1.522 0.158-0.508 0.351-0.989 0.474-1.463 0.142-0.47 0.262-0.919 0.366-1.336 0.204-0.835 0.367-1.542 0.442-2.043 0.089-0.497 0.128-0.788 0.128-0.788z"/><line x1="154.61" x2="154.61" y1="54.554" y2="20.368" fill="none" stroke="#000" stroke-width="3"/><polygon points="154.61 5.541 163.15 26.434 154.61 21.476 146.08 26.434"/></svg>
