<?xml version="1.0" encoding="UTF-8"?>
<svg width="226.77px" height="226.77px" enable-background="new 0 0 226.772 226.77" version="1.1" viewBox="0 0 226.77 226.77" xmlns="http://www.w3.org/2000/svg"><rect width="226.77px" height="226.77px" fill="#fff"/><linearGradient id="a" x1="85.599" x2="95.602" y1="209.04" y2="184.9" gradientUnits="userSpaceOnUse"><stop stop-color="#fff" offset="0"/><stop stop-color="#EDEDED" offset="1"/></linearGradient><polygon points="116.76 212.45 129.05 178.72 108.03 174.32 91.789 166.54 89.527 162.01 77.256 176.29 56.427 200.83" fill="url(#a)"/><path d="m91.789 166.54s10.565 11.074 32.12 11.792" fill="none" stroke="#000" stroke-linecap="round"/><path d="m158.74 91.527s5.346 4.098 6.87 5.632c1.201 1.209-0.168 11.492-2.077 14.721s-6.406 11.823-7.398 23.524c-1.349 15.914-21.272 30.146-25.411 35.359l-11.162 40.148" fill="none" stroke="#000" stroke-linecap="round" stroke-width="2"/><path d="m56.427 200.83s34.761-35.396 36.061-43.217-6.373-58.614-6.321-61.97 5.547-11.479 5.547-11.479" fill="none" stroke="#000" stroke-linecap="round" stroke-width="2"/><path d="m96.794 98.232s-5.328-24.928-5.521-28.315c-0.193-3.386 1.335-25.692 1.335-25.692" fill="none" stroke="#000" stroke-linecap="round" stroke-width="2"/><line x1="94.308" x2="93.966" y1="43.173" y2="31.487" fill="none" stroke="#000" stroke-linecap="round" stroke-width="2"/><line x1="147.72" x2="147.1" y1="117.88" y2="105.37" fill="none" stroke="#000" stroke-linecap="round" stroke-width="2"/><path d="m92.934 31.068c1.293-0.196 2.619-0.243 3.94-0.136 1.322 0.101 2.649 0.356 3.923 0.836 1.276 0.466 2.501 1.177 3.517 2.162 0.5 0.496 0.966 1.04 1.339 1.646 0.397 0.593 0.689 1.247 0.941 1.91 0.239 0.669 0.399 1.357 0.517 2.049 0.102 0.692 0.166 1.388 0.173 2.08 0.019 0.714-1e-3 1.321 0 1.987-0.019 0.665-0.044 1.338-0.092 2.001-0.079 1.328-0.222 2.662-0.451 4.007-0.117 0.673-0.257 1.349-0.471 2.031-0.102 0.342-0.22 0.684-0.371 1.038-0.069 0.174-0.161 0.357-0.253 0.54l-0.17 0.291c-0.084 0.119-0.094 0.167-0.308 0.401l0.242-1.383c0.206 0.446 0.367 0.834 0.53 1.249 0.164 0.409 0.31 0.819 0.458 1.23 0.283 0.824 0.56 1.649 0.773 2.49 0.444 1.677 0.811 3.37 1.075 5.079 0.134 0.854 0.235 1.713 0.309 2.574 0.076 0.861 0.14 1.721 0.165 2.584 0.052 0.861 0.039 1.725 0.026 2.586-0.015 0.861-0.085 1.721-0.125 2.58l-0.122-0.49c0.375 0.718 0.684 1.398 0.982 2.111 0.289 0.71 0.555 1.427 0.798 2.152 0.484 1.449 0.887 2.928 1.14 4.435 0.251 1.506 0.398 3.034 0.331 4.557-0.053 1.522-0.324 3.033-0.826 4.446 0.28-1.475 0.316-2.966 0.2-4.433-0.134-1.467-0.4-2.914-0.795-4.327-0.405-1.409-0.878-2.798-1.46-4.142-0.288-0.673-0.597-1.336-0.926-1.987-0.324-0.646-0.671-1.311-1.025-1.898l-0.111-0.184-0.011-0.306c-0.029-0.83-0.027-1.658-0.079-2.485-0.066-0.826-0.086-1.652-0.176-2.474-0.064-0.824-0.166-1.643-0.278-2.461-0.047-0.41-0.12-0.816-0.188-1.223-0.075-0.405-0.12-0.816-0.201-1.22-0.277-1.624-0.653-3.23-1.099-4.81-0.226-0.789-0.458-1.575-0.714-2.351-0.132-0.385-0.262-0.773-0.407-1.15-0.138-0.374-0.298-0.768-0.439-1.09l0.242-1.383c-0.104 0.113-0.024 0.025-0.019 8e-3l0.078-0.13c0.055-0.109 0.113-0.215 0.165-0.344 0.109-0.244 0.209-0.517 0.297-0.799 0.179-0.561 0.333-1.157 0.467-1.763 0.261-1.216 0.453-2.472 0.584-3.742 0.079-0.634 0.11-1.265 0.183-1.9 0.043-0.637 0.117-1.331 0.134-1.921 0.031-0.612 0.01-1.219-0.041-1.821-0.066-0.599-0.168-1.191-0.333-1.762-0.165-0.569-0.36-1.136-0.65-1.652-0.267-0.531-0.618-1.014-1.006-1.47-0.797-0.895-1.795-1.638-2.917-2.191-1.12-0.556-2.346-0.94-3.602-1.209-1.262-0.252-2.556-0.422-3.863-0.423z"/><path d="m111.65 75.75c6.833-3.25 12.566-7.107 18.317-7.412 7.989-0.423 13.118 14.781 15.939 21.277 1.813 4.175 2.353 16.007 2.353 16.007" fill="none" stroke="#000" stroke-linecap="round" stroke-width="2"/><path d="m110.51 72.665s9.676-5.719 18.409-9.775 21.399 22.11 21.399 22.11" fill="none" stroke="#000" stroke-linecap="round" stroke-width="2"/><path d="m117.32 89.31s0.167 0.135 0.459 0.333c0.287 0.201 0.695 0.474 1.18 0.719 0.234 0.138 0.514 0.218 0.774 0.335 0.28 0.069 0.553 0.17 0.844 0.188 0.281 0.07 0.58 0.015 0.869 0.028 0.296-0.073 0.594-0.061 0.895-0.197l0.457-0.136c0.148-0.079 0.301-0.144 0.452-0.214 0.149-0.076 0.307-0.122 0.455-0.207 0.148-0.088 0.293-0.174 0.437-0.259 0.293-0.164 0.589-0.313 0.847-0.509 0.266-0.181 0.533-0.34 0.784-0.489 0.248-0.152 0.458-0.321 0.665-0.449 0.197-0.138 0.386-0.247 0.54-0.341 0.311-0.183 0.507-0.28 0.507-0.28s-0.062 0.2-0.203 0.536c-0.072 0.166-0.158 0.373-0.275 0.596-0.118 0.223-0.228 0.495-0.416 0.743-0.179 0.254-0.379 0.532-0.607 0.813-0.213 0.293-0.499 0.556-0.808 0.82-0.3 0.271-0.623 0.543-1.026 0.745-0.193 0.109-0.386 0.223-0.586 0.324-0.214 0.084-0.441 0.154-0.663 0.227-0.436 0.165-0.936 0.184-1.406 0.215-0.475-0.04-0.959-0.071-1.376-0.255-0.437-0.132-0.794-0.376-1.126-0.591-0.303-0.255-0.577-0.5-0.775-0.769-0.427-0.506-0.64-1.009-0.761-1.359-0.119-0.352-0.137-0.567-0.137-0.567z"/><path d="m126.79 88.657" fill="none" stroke="#000" stroke-linecap="round"/><path d="m126.79 88.657c-0.155 0.742-0.225 1.489-0.261 2.225-0.024 0.738-0.025 1.467 0.062 2.184 0.08 0.716 0.194 1.419 0.391 2.095 0.202 0.674 0.437 1.328 0.743 1.946 0.296 0.623 0.676 1.196 1.081 1.745 0.192 0.281 0.427 0.534 0.642 0.797 0.243 0.243 0.461 0.506 0.724 0.73 0.499 0.471 1.046 0.895 1.604 1.308 0.564 0.406 1.167 0.765 1.782 1.106l0.632 0.351-0.019 0.747c-0.011 0.433 0.012 0.952 0.03 1.434 0.026 0.491 0.057 0.983 0.116 1.472 0.108 0.979 0.279 1.95 0.524 2.894 0.128 0.47 0.251 0.94 0.404 1.4 0.156 0.457 0.326 0.909 0.524 1.346 0.199 0.435 0.412 0.865 0.661 1.268 0.245 0.405 0.497 0.81 0.793 1.176 0.282 0.381 0.607 0.722 0.943 1.052l0.53 0.47 0.57 0.423c0.397 0.258 0.797 0.527 1.238 0.723 0.425 0.233 0.893 0.374 1.353 0.546 0.474 0.125 0.946 0.292 1.443 0.363 0.49 0.113 0.993 0.152 1.5 0.21 0.507 0.071 1.019 0.051 1.536 0.081 0.516 7e-3 1.035-0.014 1.559-0.021-0.503 0.131-1.009 0.278-1.523 0.397-0.519 0.075-1.039 0.2-1.569 0.234-0.53 0.052-1.065 0.081-1.604 0.056-0.541 9e-3 -1.079-0.074-1.624-0.136-0.533-0.12-1.081-0.215-1.602-0.413-0.534-0.16-1.04-0.405-1.547-0.651-0.494-0.274-0.967-0.582-1.413-0.933-0.44-0.354-0.868-0.731-1.247-1.15-0.391-0.409-0.75-0.85-1.06-1.318-0.322-0.462-0.6-0.949-0.86-1.442-0.512-0.991-0.924-2.024-1.227-3.08-0.296-1.058-0.505-2.132-0.645-3.211-0.075-0.54-0.12-1.082-0.158-1.626-0.038-0.553-0.041-1.072-0.019-1.675l0.613 1.097c-1.375-0.792-2.712-1.729-3.815-2.932-0.287-0.286-0.532-0.619-0.795-0.928-0.238-0.333-0.49-0.654-0.699-1.007-0.447-0.685-0.784-1.44-1.054-2.206-0.556-1.532-0.719-3.17-0.584-4.733 0.155-1.565 0.57-3.088 1.327-4.414z"/><path d="m118.82 88.833c1.264 2.412 2.114 5.044 2.577 7.75 0.42 2.706 0.362 5.555-0.55 8.214l-0.018-0.303c1.535 2.885 2.99 5.81 4.488 8.714 1.484 2.911 2.992 5.809 4.433 8.742l4.368 8.775 4.279 8.82-0.024-0.039c0.262 0.398 0.428 0.79 0.581 1.205 0.145 0.413 0.249 0.838 0.316 1.267 0.069 0.428 0.112 0.86 0.109 1.292 6e-3 0.216 6e-3 0.431-0.016 0.645-0.02 0.214-0.02 0.43-0.056 0.642-0.063 0.425-0.127 0.848-0.243 1.26-0.087 0.419-0.242 0.817-0.374 1.221-0.138 0.402-0.335 0.782-0.499 1.171l-0.601 1.118 0.519-1.154c0.138-0.399 0.297-0.788 0.416-1.19 0.109-0.405 0.241-0.804 0.304-1.218 0.092-0.408 0.132-0.824 0.172-1.238 0.024-0.207 0.013-0.415 0.021-0.622 0.01-0.207-1e-3 -0.414-0.018-0.62-0.019-0.413-0.081-0.822-0.168-1.223-0.083-0.402-0.206-0.794-0.356-1.173-0.147-0.373-0.334-0.755-0.546-1.057l-0.014-0.02-0.01-0.019-4.555-8.68-4.466-8.725c-1.503-2.901-2.94-5.836-4.4-8.758-1.446-2.93-2.935-5.838-4.345-8.786l-0.075-0.156 0.057-0.148c0.946-2.476 1.1-5.222 0.787-7.886-0.144-1.338-0.406-2.668-0.761-3.974-0.361-1.308-0.789-2.6-1.332-3.847z"/><line x1="158.48" x2="152.5" y1="92" y2="87.331" fill="none" stroke="#000" stroke-linecap="round" stroke-width="2"/><path d="m151.56 87.289s-0.188 0.357-0.467 0.98c-0.153 0.302-0.292 0.698-0.487 1.118-0.159 0.442-0.365 0.921-0.537 1.458-0.086 0.267-0.175 0.544-0.268 0.832-0.073 0.29-0.149 0.589-0.226 0.897-0.184 0.603-0.239 1.266-0.366 1.922-0.029 0.671-0.146 1.351-0.08 2.042 0.023 0.344-7e-3 0.694 0.055 1.036l0.167 1.03c0.022 0.35 0.155 0.678 0.253 1.012 0.106 0.332 0.195 0.668 0.289 1.002 0.312 0.623 0.559 1.267 0.861 1.871 0.363 0.572 0.702 1.14 1.021 1.691 0.385 0.515 0.749 1.002 1.084 1.452 0.169 0.231 0.331 0.452 0.485 0.663 0.174 0.196 0.339 0.381 0.494 0.555 0.317 0.344 0.58 0.666 0.803 0.929 0.442 0.528 0.686 0.858 0.686 0.858s-0.362-0.157-0.979-0.482c-0.307-0.164-0.687-0.359-1.108-0.609-0.213-0.124-0.439-0.256-0.677-0.396-0.214-0.172-0.44-0.353-0.675-0.542-0.467-0.385-0.996-0.791-1.505-1.277-0.462-0.532-0.947-1.107-1.435-1.718-0.432-0.65-0.814-1.381-1.208-2.114-0.137-0.397-0.275-0.797-0.413-1.199-0.127-0.406-0.287-0.806-0.329-1.236l-0.18-1.272c-0.068-0.422-5e-3 -0.85-0.011-1.269-0.025-0.845 0.18-1.649 0.32-2.424 0.097-0.382 0.226-0.746 0.346-1.103 0.114-0.359 0.24-0.702 0.407-1.019 0.156-0.32 0.296-0.634 0.453-0.926 0.176-0.281 0.345-0.552 0.508-0.813 0.311-0.524 0.687-0.948 0.99-1.331 0.327-0.37 0.617-0.682 0.881-0.917 0.506-0.485 0.848-0.701 0.848-0.701z"/><path d="m153.08 87.042s0.069 0.062 0.165 0.214c0.101 0.146 0.231 0.371 0.367 0.672 0.279 0.598 0.611 1.499 0.761 2.643 0.063 0.571 0.098 1.198 0.058 1.861-0.038 0.645-0.197 1.393-0.307 2.025-0.076 0.577-0.035 1.252 0.197 1.853 0.219 0.613 0.585 1.201 1.036 1.741 0.454 0.533 0.956 1.069 1.491 1.532 0.49 0.423 1.147 0.788 1.337 0.51 0.319-0.319 0.42-1.067 0.486-1.651 0.064-0.617 0.069-1.216 0.079-1.769 0.017-1.108-9e-3 -2.038-0.02-2.688v-1.024s0.257 1.463 0.491 3.692c0.053 0.559 0.089 1.168 0.08 1.825-8e-3 0.329-0.02 0.67-0.087 1.027-0.072 0.353-0.149 0.743-0.478 1.12-0.163 0.18-0.43 0.34-0.701 0.356-0.262 0.022-0.506-0.027-0.705-0.106-0.411-0.155-0.727-0.382-1.05-0.629-0.579-0.481-1.152-0.977-1.66-1.574-0.506-0.591-0.968-1.263-1.236-2.032-0.272-0.774-0.325-1.578-0.198-2.374 0.165-0.732 0.328-1.292 0.405-1.921 0.096-0.606 0.115-1.189 0.117-1.729-0.015-1.08-0.155-1.99-0.312-2.613-0.161-0.622-0.296-0.968-0.316-0.961z"/><path d="m145.32 106.12c-0.015 5e-3 0.094-0.064-1e-3 -9e-3 -0.082 0.032-0.194 0.115-0.326 0.217-0.263 0.211-0.574 0.573-0.877 1.04-0.606 0.941-1.116 2.352-1.521 3.825-0.406 1.472-0.741 3.001-1.037 4.164-0.133 0.583-0.28 1.07-0.376 1.415-0.103 0.344-0.176 0.541-0.176 0.541s-0.23-0.806-0.306-2.032c-0.079-1.223-5e-3 -2.879 0.45-4.49 0.429-1.608 1.301-3.16 2.328-3.997 0.501-0.424 1.015-0.658 1.389-0.735 0.186-0.045 0.34-0.042 0.444-0.028 0.027 7e-3 0.047 2e-3 0.081 0.032 0.016 0.052-0.036 0.051-0.036 0.051-0.023 4e-3 -0.036 6e-3 -0.036 6e-3z"/><path d="m113.44 163.69s0.181 0.091 0.514 0.165c0.332 0.076 0.807 0.14 1.378 0.151 1.145 0.013 2.657-0.192 4.158-0.531 1.504-0.326 2.997-0.762 4.141-1.052 1.131-0.324 1.925-0.476 1.925-0.476s-0.657 0.46-1.72 1.012c-0.541 0.253-1.164 0.575-1.876 0.815-0.356 0.118-0.712 0.278-1.097 0.371-0.383 0.1-0.768 0.215-1.16 0.305-0.792 0.154-1.592 0.285-2.358 0.297-0.381 0.021-0.751 5e-3 -1.102-0.029-0.35-0.012-0.681-0.091-0.981-0.146-0.603-0.133-1.08-0.349-1.384-0.536-0.308-0.186-0.438-0.346-0.438-0.346z"/><path d="m133.65 133.75s0.182 0.222 0.442 0.654c0.248 0.435 0.596 1.069 0.917 1.874 0.144 0.406 0.327 0.842 0.452 1.322 0.147 0.474 0.28 0.981 0.385 1.512 0.123 0.528 0.197 1.083 0.282 1.646 0.055 0.565 0.113 1.14 0.149 1.716 0.038 1.154 0.011 2.307-0.094 3.381-0.115 1.073-0.272 2.066-0.477 2.902-0.158 0.844-0.425 1.519-0.555 1.999-0.15 0.477-0.25 0.744-0.25 0.744s0.013-0.288 0.059-0.784 0.132-1.199 0.178-2.045c0.032-0.421 0.066-0.876 0.102-1.358 0.02-0.481 0.042-0.989 0.064-1.514 0.024-0.524-4e-3 -1.066 0.018-1.615 0.01-0.549-0.032-1.106-0.043-1.663-0.023-0.556-0.068-1.112-0.109-1.658-0.079-0.541-0.094-1.085-0.188-1.598-0.078-0.516-0.146-1.018-0.242-1.488-0.08-0.474-0.193-0.913-0.274-1.327-0.206-0.813-0.38-1.499-0.548-1.965-0.162-0.468-0.268-0.735-0.268-0.735z"/></svg>
