<?xml version="1.0" encoding="UTF-8"?>
<svg width="284px" height="226.8px" enable-background="new 0 0 284 226.8" version="1.1" viewBox="0 0 284 226.8" xmlns="http://www.w3.org/2000/svg"><rect width="284px" height="226.8px" fill="#fff"/><style type="text/css">.st0{fill:#FFFFFF;} .st1{fill:url(#b);} .st2{fill:none;stroke:#000000;stroke-width:2;stroke-linecap:round;} .st3{fill:none;stroke:#000000;stroke-linecap:round;} .st4{fill:url(#a);} .st5{fill:none;} .st6{fill:none;stroke:#000000;} .st7{fill:none;stroke:#000000;stroke-width:0.5;stroke-linecap:round;}</style><rect class="st0" y="1.4" width="284" height="225.4"/><linearGradient id="b" x1="31.114" x2="40.775" y1="833.74" y2="810.42" gradientTransform="translate(0 -616)" gradientUnits="userSpaceOnUse"><stop stop-color="#fff" offset="0"/><stop stop-color="#EDEDED" offset="1"/></linearGradient><polygon class="st1" points="59.5 222.7 67.7 187.1 49.2 182.2 26.7 171.8 28.5 169.7 19.2 187.5 3.8 210.2"/><path class="st2" d="m7.8 203.7s23.4-35.6 24.6-42.7 3.7-59.2 4.8-67.2 0.2-17.4 2.9-24.8 4.4-16.8 4.4-16.8"/><path class="st2" d="m45.2 54.7 0.1-14.4s16.9-1.7 10.5 21.3c0 0 3.3 9.2-1 19.1 0 0 4 5.3 0.4 14.1"/><line class="st2" x1="51" x2="52" y1="38.6" y2="28.9"/><path class="st2" d="m52.4 29.6 0.7-14.5s11.2-1.6 12.2 7.9-1.5 15.2-1.5 15.2 5.2 8.4 0.8 19.5c0 0 4.3 17.2 1.2 25.1"/><path class="st2" d="m63.2 14.1 0.5-10.2s12.9-1.2 13.4 11.3-2 14.8-3.4 16.3"/><path class="st2" d="m73.4 29.3s4.3 16.6-0.7 25c0 0 5.9 14.1 1.4 24.8"/><path class="st2" d="m75.9 58.4 2.9-2.6c1.2-1 3.4-1.7 4.9-1.4l21.1 3.7c1.5 0.3 3.3 1.7 4 3.1l3.8 8.5"/><path class="st2" d="m111.3 69.4 6.2 10.2s-6.2 7-16.3 0.8"/><polyline class="st2" points="100.4 80.2 98.2 74.2 87.9 72.7 81.8 80.5"/><line class="st3" x1="74.5" x2="80" y1="78.8" y2="80.6"/><path class="st2" d="m83.1 78.8s-1.8 8-3.5 17.6-1.7 9.6-1.7 9.6"/><path class="st3" d="m72.8 134.8s0-22.2 4.9-30.4"/><path class="st2" d="m100.9 81.6s-6.7 13.5-5.3 18.1 2.9 22.6 0.7 31.3-9.2 26-15.1 32.6-10 8-10 8l-10.2 44.8"/><path class="st3" d="m30.9 171.6s11.7 13.9 34.7 13.9"/><path d="m108.9 70.8s-0.1 0.2-0.2 0.6c-0.2 0.4-0.3 1-0.4 1.7-0.1 0.4-0.1 0.7-0.1 1.2v1.3c0 0.4 0.1 0.9 0.1 1.4 0.1 0.4 0.2 1 0.3 1.3l0.2 0.7c0.1 0.2 0.2 0.3 0.3 0.5 0.3 0.3 0.5 0.6 0.9 0.7s0.8 0.2 1.1 0.1c0.4 0 0.8-0.1 1.1-0.2 0.7-0.2 1.3-0.4 1.7-0.6l0.6-0.3s-0.2 0.2-0.5 0.5c-0.4 0.3-0.9 0.6-1.6 1-0.4 0.2-0.8 0.3-1.2 0.4-0.2 0.1-0.5 0.1-0.7 0.1-0.3 0-0.5 0-0.8-0.1-0.5-0.1-1-0.5-1.4-0.9-0.2-0.2-0.3-0.5-0.5-0.8l-0.2-0.7c-0.1-0.6-0.2-1-0.3-1.6-0.1-0.5-0.1-1 0-1.5 0-0.5 0.1-0.9 0.2-1.4l0.3-1.2c0.2-0.7 0.6-1.3 0.8-1.6 0.1-0.4 0.3-0.6 0.3-0.6z"/><path class="st3" d="m73.7 80.5s-2.7 2.5-7.3 2"/><path d="m64.4 86.2s0.2 0.8 0 1.9c-0.1 0.3-0.1 0.6-0.3 0.9-0.1 0.3-0.3 0.7-0.5 1s-0.4 0.6-0.7 0.9-0.6 0.6-0.9 0.8-0.7 0.5-1 0.6c-0.3 0.2-0.7 0.4-1 0.5-0.7 0.3-1.4 0.4-1.9 0.5-0.6 0.1-1.1 0.1-1.4 0.1h-0.5s0.2-0.1 0.5-0.2 0.8-0.2 1.3-0.4c0.3-0.1 0.5-0.2 0.8-0.3s0.6-0.3 0.9-0.4 0.6-0.3 0.9-0.5l0.9-0.6c0.3-0.2 0.5-0.5 0.8-0.7 0.2-0.3 0.5-0.5 0.7-0.8s0.4-0.5 0.5-0.8 0.3-0.5 0.4-0.8c0.4-0.9 0.5-1.7 0.5-1.7z"/><path d="m78.9 105.8s0.5 0.4 1 1c0.6 0.6 1.3 1.6 1.9 2.5 0.6 1 1.2 2 1.6 2.7 0.4 0.8 0.6 1.4 0.6 1.4s-0.5-0.4-1-1c-0.6-0.6-1.3-1.6-1.9-2.5-0.6-1-1.2-2-1.6-2.7-0.4-0.8-0.6-1.4-0.6-1.4z"/><path d="m61.4 108.4s0.3 1 0.7 2.7 1.1 4.2 1.7 7.2c0.3 1.5 0.7 3.1 1 4.8s0.7 3.5 1 5.4 0.6 3.8 0.9 5.8 0.5 4 0.7 6.1c0.1 1 0.1 2 0.2 3.1 0.1 1 0.1 2 0.1 3.1 0 1 0 2-0.1 3s-0.1 2-0.3 2.9c-0.1 0.5-0.2 1-0.3 1.4-0.1 0.5-0.3 0.9-0.4 1.4-0.3 0.9-0.6 1.7-0.9 2.6-0.7 1.6-1.4 3.2-2.2 4.5s-1.7 2.5-2.5 3.4c-0.8 1-1.6 1.7-2.3 2.3-1.4 1.1-2.3 1.6-2.3 1.6s0.9-0.5 2.2-1.7c0.6-0.6 1.4-1.4 2.1-2.4 0.8-1 1.5-2.1 2.3-3.4s1.4-2.8 2-4.4c0.3-0.8 0.6-1.6 0.8-2.5 0.1-0.4 0.3-0.9 0.4-1.3 0.1-0.5 0.2-0.9 0.2-1.4 0.2-0.9 0.2-1.9 0.3-2.8 0.1-1 0.1-2 0.1-2.9 0-1 0-2-0.1-3 0-1-0.1-2-0.2-3-0.1-2-0.4-4-0.6-6-0.3-2-0.5-3.9-0.8-5.8-0.6-3.8-1.2-7.3-1.7-10.3-0.6-3-1-5.5-1.4-7.3-0.4-2.1-0.6-3.1-0.6-3.1z"/><path d="m52.3 168.2s0.3-0.1 0.7-0.3c0.2-0.1 0.5-0.2 0.8-0.4s0.6-0.4 1-0.6 0.7-0.5 1.1-0.8l1.2-0.9c0.4-0.3 0.8-0.7 1.2-1 0.4-0.4 0.8-0.7 1.2-1.2 0.4-0.4 0.8-0.8 1.1-1.2s0.7-0.8 1-1.2 0.6-0.8 0.9-1.2 0.6-0.8 0.8-1.1c0.5-0.7 0.9-1.3 1.2-1.7s0.5-0.6 0.5-0.6-0.1 0.3-0.3 0.7-0.4 1.1-0.9 1.9c-0.2 0.4-0.4 0.8-0.7 1.2s-0.6 0.9-0.9 1.3c-0.3 0.5-0.7 0.9-1 1.3-0.3 0.5-0.8 0.9-1.2 1.3s-0.8 0.8-1.3 1.2c-0.4 0.4-0.9 0.7-1.3 1-0.9 0.6-1.8 1.1-2.6 1.5-0.8 0.3-1.5 0.5-2 0.6-0.2 0.2-0.5 0.2-0.5 0.2z"/><linearGradient id="a" x1="320.55" x2="331.68" y1="-459.52" y2="-442.99" gradientTransform="matrix(.9757 .2192 .2192 -.9757 -60.942 -321.5)" gradientUnits="userSpaceOnUse"><stop stop-color="#fff" offset="0"/><stop stop-color="#EDEDED" offset="1"/></linearGradient><polygon class="st4" points="168.2 224.6 187.8 185.2 190 180.2 178.7 171.5 172.4 161.4 166.5 153.3 168 137.5 131.9 173.2"/><path d="m267.5 199-0.6-0.9c-0.4-0.6-1-1.4-1.7-2.4l-1.2-1.5c-0.2-0.3-0.5-0.5-0.7-0.8-0.2-0.2-0.5-0.5-0.7-0.5s-0.5 0-0.9 0.1-0.7 0.2-1.1 0.4c-0.7 0.3-1.4 0.7-2.1 1.1s-1.4 0.8-2 1.3c-0.3 0.2-0.6 0.5-0.8 0.7-0.2 0.3-0.3 0.5-0.3 0.9-0.1 0.7 0 1.4 0.1 2.1s0.4 1.3 0.6 1.8 0.5 1.1 0.7 1.5 0.5 0.8 0.7 1.1l0.6 0.9s-0.1-0.1-0.2-0.2l-0.6-0.6c-0.5-0.6-1.1-1.4-1.7-2.5-0.3-0.6-0.6-1.2-0.8-1.9s-0.4-1.5-0.3-2.3c0-0.4 0.2-0.9 0.5-1.3s0.6-0.6 1-0.9c0.7-0.5 1.4-0.9 2.1-1.4s1.5-0.8 2.2-1.1c0.4-0.2 0.8-0.3 1.2-0.4 0.2-0.1 0.4-0.1 0.6-0.1h0.4 0.2 0.2c0.5 0.2 0.8 0.5 1.1 0.8s0.5 0.6 0.7 0.9c0.4 0.6 0.8 1.2 1.1 1.7 0.7 1.1 1.1 2 1.4 2.6 0.1 0.6 0.3 0.9 0.3 0.9z"/><path d="m277.8 186.2s-0.2-0.4-0.6-1-0.9-1.5-1.5-2.5c-0.3-0.5-0.7-1.1-1.1-1.6-0.2-0.3-0.4-0.5-0.7-0.8l-0.3-0.3c-0.1 0-0.1-0.1-0.1-0.1h-0.2c-0.6-0.1-1.4 0.1-2.1 0.3s-1.4 0.6-2.1 1-1.3 0.9-1.9 1.4l-0.8 0.8c-0.1 0.1-0.2 0.3-0.3 0.4l-0.1 0.2c0 0.1-0.1 0.2-0.1 0.2-0.1 0.4 0.1 1.2 0.3 1.8 0.3 0.6 0.5 1.2 0.8 1.8 0.5 1.1 0.9 2 1.2 2.7s0.4 1 0.4 1-0.2-0.3-0.6-0.9-0.9-1.5-1.6-2.5c-0.3-0.5-0.7-1.1-1-1.7-0.2-0.3-0.3-0.7-0.4-1.1s-0.2-0.8-0.1-1.4c0-0.1 0.1-0.2 0.1-0.3 0.1-0.2 0.1-0.2 0.2-0.3 0.1-0.2 0.2-0.3 0.4-0.5 0.2-0.3 0.5-0.7 0.8-1 0.6-0.6 1.3-1.1 2-1.5s1.5-0.8 2.3-1 1.6-0.5 2.6-0.3l0.4 0.2c0.1 0.1 0.2 0.1 0.3 0.2 0.2 0.2 0.3 0.3 0.4 0.5 0.3 0.3 0.5 0.6 0.6 0.9 0.4 0.6 0.7 1.2 1 1.8 0.6 1.1 0.9 2.1 1.2 2.7 0.5 0.5 0.6 0.9 0.6 0.9z"/><path class="st2" d="m134.4 169.2c2.6-2.9 41.6-43.8 57.4-45.7 12-1.5 51.4 13.7 51.4 13.7s8.8-0.8 13.5 10.2l12.3 14.7 10.7 25.8s-0.6 7-9.9 7.3"/><path class="st5" d="m138.5 161.5"/><path class="st2" d="m169.5 152.8s2.4 16.7 19.8 25.2"/><path class="st6" d="m167.4 142.2s-4.8 10.4 5 19.2"/><path class="st2" d="m186.9 173.6 14.3 24.9s3.3 3.8 9.1 1.8c4.3-1.5 4.8-3.4 4.8-3.4"/><path class="st2" d="m205.9 168.5 10.5 26.1s2.7 4.2 8 1.8 5-4.7 4.8-6.8-6.6-28.7-6.6-28.7l0.4-3.9"/><line class="st2" x1="188.9" x2="172.4" y1="183.2" y2="214.4"/><path class="st2" d="m221.1 199.2s-2.7 8.9 6.1 11.6"/><line class="st2" x1="236.5" x2="228.3" y1="200.1" y2="210.7"/><path class="st2" d="m242.5 196.2"/><path class="st2" d="m244.1 194.6s-3.4 6.9-10.2 7.4"/><path class="st7" d="m240.3 176.5s3.8-7.4 11.2-7.1"/><path class="st7" d="m242.7 175.9s7.9-5 8.1-4.8"/><path class="st7" d="m254.5 165.9s4.3-4.9 10.3-5.9"/><path d="m258.6 204.2s0.3-0.7 0.9-1.5c0.3-0.4 0.7-0.9 1.2-1.3s1.1-0.8 1.7-1.2c0.3-0.2 0.6-0.3 0.9-0.5s0.6-0.2 0.9-0.4c0.3-0.1 0.6-0.2 0.9-0.3s0.6-0.1 0.8-0.1c0.5-0.1 0.9-0.1 1.2-0.1h0.5s-0.2 0.1-0.4 0.2c-0.3 0.1-0.7 0.2-1.1 0.4-0.2 0.1-0.5 0.2-0.7 0.3-0.3 0.1-0.5 0.2-0.8 0.4-0.5 0.3-1.1 0.6-1.7 0.9s-1.1 0.7-1.6 1c-0.5 0.4-1 0.7-1.4 1-0.8 0.7-1.3 1.2-1.3 1.2z"/><path d="m269.2 191s0.3-0.7 0.9-1.5c0.3-0.4 0.7-0.9 1.2-1.3s1.1-0.8 1.7-1.2c0.3-0.2 0.6-0.3 0.9-0.5s0.6-0.2 0.9-0.4c0.3-0.1 0.6-0.2 0.9-0.3s0.6-0.1 0.8-0.1c0.5-0.1 0.9-0.1 1.2-0.1h0.5s-0.2 0.1-0.4 0.2c-0.3 0.1-0.7 0.2-1.1 0.4-0.2 0.1-0.5 0.2-0.7 0.3-0.3 0.1-0.5 0.2-0.8 0.4-0.5 0.3-1.1 0.6-1.7 0.9s-1.1 0.7-1.6 1c-0.5 0.4-1 0.7-1.4 1-0.8 0.8-1.3 1.2-1.3 1.2z"/><line class="st2" x1="238.7" x2="242.1" y1="147.1" y2="155.9"/><path class="st2" d="m227.4 169.2 14.3 17.3s9.7 17.7 15 22 16.6-2.7 12.6-8.7l-4.5-6.8-9.6-20.3-15.4-19.7"/><path class="st7" d="m256.8 166.8s5.5-0.9 9.1-4.8"/></svg>
