<?xml version="1.0" encoding="UTF-8"?>
<svg width="226.77px" height="226.77px" enable-background="new 0 0 226.77 226.77" version="1.1" viewBox="0 0 226.77 226.77" xmlns="http://www.w3.org/2000/svg"><rect width="226.77px" height="226.77px" fill="#fff"/><linearGradient id="a" x1="83.931" x2="93.593" y1="219.61" y2="196.29" gradientUnits="userSpaceOnUse"><stop stop-color="#fff" offset="0"/><stop stop-color="#EDEDED" offset="1"/></linearGradient><polygon points="112.36 224.53 120.5 188.95 102.07 184.05 79.541 173.65 81.36 171.55 72.016 189.37 56.606 212.03" fill="url(#a)"/><path d="m60.606 205.53s23.4-35.641 24.622-42.735c1.222-7.095 3.668-59.177 4.772-67.155s0.232-17.444 2.926-24.752 4.437-16.768 4.437-16.768" fill="none" stroke="#000" stroke-linecap="round" stroke-width="2"/><path d="m98.038 56.528 0.068-14.415s16.9-1.676 10.514 21.297c0 0 3.276 9.19-0.962 19.092 0 0 4.004 5.323 0.351 14.084" fill="none" stroke="#000" stroke-linecap="round" stroke-width="2"/><line x1="103.85" x2="104.82" y1="40.442" y2="30.729" fill="none" stroke="#000" stroke-linecap="round" stroke-width="2"/><path d="m105.19 31.468 0.742-14.451s11.205-1.614 12.172 7.93-1.458 15.162-1.458 15.162 5.208 8.422 0.792 19.505c0 0 4.308 17.245 1.216 25.114" fill="none" stroke="#000" stroke-linecap="round" stroke-width="2"/><path d="m115.99 15.973 0.497-10.208s12.86-1.207 13.415 11.257-2.026 14.794-3.444 16.251" fill="none" stroke="#000" stroke-linecap="round" stroke-width="2"/><path d="m126.29 31.138s4.277 16.575-0.706 24.952c0 0 5.884 14.135 1.371 24.829" fill="none" stroke="#000" stroke-linecap="round" stroke-width="2"/><path d="m128.77 60.287 2.911-2.613c1.16-1.041 3.366-1.675 4.902-1.407l21.062 3.666c1.536 0.267 3.314 1.65 3.951 3.073l3.812 8.512" fill="none" stroke="#000" stroke-linecap="round" stroke-width="2"/><path d="m164.11 71.28 6.179 10.202s-6.179 6.965-16.321 0.762" fill="none" stroke="#000" stroke-linecap="round" stroke-width="2"/><polyline points="153.27 82.113 151.04 76.033 140.74 74.614 134.62 82.42" fill="none" stroke="#000" stroke-linecap="round" stroke-width="2"/><line x1="127.32" x2="132.82" y1="80.63" y2="82.463" fill="none" stroke="#000" stroke-linecap="round"/><path d="m135.98 80.685s-1.82 8.045-3.546 17.595-1.725 9.55-1.725 9.55" fill="none" stroke="#000" stroke-linecap="round" stroke-width="2"/><path d="m125.66 136.72s0.047-22.233 4.911-30.418" fill="none" stroke="#000" stroke-linecap="round"/><path d="m153.77 83.513s-6.703 13.457-5.333 18.1c1.371 4.643 2.936 22.583 0.664 31.295s-9.24 25.97-15.129 32.622-9.997 8.04-9.997 8.04l-10.122 44.71" fill="none" stroke="#000" stroke-linecap="round" stroke-width="2"/><path d="m83.703 173.51s11.721 13.944 34.728 13.939" fill="none" stroke="#000" stroke-linecap="round"/><path d="m161.72 72.659s-0.105 0.229-0.246 0.635c-0.151 0.403-0.302 0.999-0.431 1.709-0.063 0.356-0.112 0.743-0.143 1.152-0.035 0.408-0.039 0.841-0.025 1.284 5e-3 0.444 0.063 0.901 0.124 1.362 0.054 0.445 0.175 0.963 0.271 1.345l0.23 0.704c0.107 0.164 0.184 0.341 0.293 0.502 0.26 0.29 0.518 0.588 0.893 0.685 0.352 0.135 0.751 0.166 1.139 0.141 0.387-0.034 0.765-0.099 1.109-0.195 0.689-0.191 1.269-0.409 1.66-0.591 0.395-0.182 0.621-0.286 0.621-0.286s-0.173 0.183-0.521 0.453c-0.353 0.258-0.859 0.647-1.565 0.964-0.35 0.165-0.753 0.308-1.207 0.395-0.225 0.05-0.472 0.054-0.72 0.077-0.254-0.032-0.521-0.014-0.782-0.119-0.545-0.118-1.031-0.504-1.397-0.942-0.172-0.234-0.307-0.504-0.452-0.763l-0.246-0.699c-0.141-0.577-0.226-1.029-0.284-1.551-0.062-0.504-0.067-1.007-0.045-1.489 0.011-0.483 0.08-0.948 0.167-1.38 0.078-0.434 0.198-0.835 0.327-1.196 0.249-0.725 0.578-1.276 0.81-1.649 0.242-0.368 0.42-0.548 0.42-0.548z"/><path d="m126.56 82.388s-2.726 2.532-7.34 1.962" fill="none" stroke="#000" stroke-linecap="round"/><path d="m117.24 88.099s0.235 0.766 4e-3 1.942c-0.053 0.292-0.141 0.606-0.264 0.926-0.129 0.319-0.269 0.658-0.482 0.972-0.182 0.334-0.443 0.628-0.694 0.938-0.287 0.271-0.568 0.569-0.891 0.806-0.336 0.218-0.652 0.475-1.011 0.633-0.349 0.175-0.692 0.357-1.047 0.459-0.694 0.259-1.366 0.386-1.943 0.459-0.571 0.101-1.062 0.056-1.396 0.068-0.336-4e-3 -0.527-0.016-0.527-0.016s0.181-0.066 0.498-0.18c0.312-0.122 0.773-0.221 1.292-0.43 0.26-0.102 0.541-0.209 0.839-0.31 0.294-0.113 0.584-0.276 0.898-0.403 0.322-0.116 0.6-0.333 0.914-0.489 0.321-0.15 0.585-0.39 0.878-0.587 0.292-0.199 0.538-0.451 0.799-0.677 0.216-0.267 0.488-0.485 0.664-0.765 0.205-0.26 0.377-0.529 0.535-0.793 0.145-0.268 0.285-0.527 0.391-0.778 0.431-1.002 0.543-1.775 0.543-1.775z"/><path d="m131.78 107.7s0.46 0.383 1.041 1.032c0.587 0.644 1.3 1.551 1.946 2.503 0.64 0.955 1.215 1.955 1.592 2.741 0.384 0.782 0.566 1.353 0.566 1.353s-0.461-0.383-1.042-1.032c-0.588-0.644-1.299-1.552-1.944-2.504-0.64-0.956-1.214-1.956-1.591-2.742-0.385-0.781-0.568-1.351-0.568-1.351z"/><path d="m114.27 110.28s0.29 0.978 0.741 2.705c0.437 1.73 1.095 4.196 1.745 7.186 0.34 1.492 0.669 3.117 1.031 4.834 0.334 1.722 0.714 3.534 1.009 5.426 0.332 1.886 0.605 3.847 0.896 5.837 0.251 1.997 0.511 4.026 0.676 6.068 0.101 1.018 0.144 2.043 0.183 3.064 0.05 1.02 0.094 2.036 0.064 3.05-0.018 1.012 0.014 2.015-0.1 3.009-0.093 0.993-0.116 1.976-0.347 2.934-0.092 0.48-0.184 0.955-0.275 1.426-0.109 0.489-0.263 0.905-0.397 1.352-0.252 0.879-0.593 1.735-0.91 2.566-0.667 1.644-1.4 3.151-2.212 4.467-0.777 1.336-1.652 2.458-2.47 3.404-0.813 0.954-1.629 1.685-2.307 2.269-1.386 1.146-2.328 1.57-2.328 1.57s0.899-0.503 2.2-1.716c0.639-0.614 1.401-1.379 2.149-2.361 0.75-0.976 1.544-2.121 2.27-3.449 0.751-1.313 1.421-2.819 2.015-4.44 0.279-0.816 0.58-1.642 0.806-2.542 0.112-0.438 0.268-0.903 0.359-1.329 0.081-0.452 0.163-0.907 0.246-1.367 0.211-0.909 0.223-1.877 0.303-2.842 0.101-0.964 0.058-1.955 0.065-2.949 0.019-0.994-0.036-1.997-0.097-3.005-0.049-1.008-0.105-2.019-0.212-3.029-0.141-2.024-0.377-4.042-0.604-6.029-0.268-1.983-0.517-3.937-0.827-5.819-0.582-3.769-1.164-7.285-1.735-10.286-0.56-3.003-1.027-5.508-1.385-7.255-0.351-1.749-0.552-2.749-0.552-2.749z"/><path d="m105.11 170.11s0.272-0.096 0.725-0.297c0.226-0.103 0.498-0.228 0.799-0.394 0.306-0.154 0.632-0.368 0.996-0.574 0.353-0.23 0.738-0.467 1.126-0.75 0.4-0.264 0.785-0.594 1.202-0.906 0.408-0.325 0.805-0.692 1.219-1.049 0.39-0.386 0.817-0.744 1.188-1.162 0.38-0.408 0.79-0.788 1.133-1.22 0.343-0.43 0.74-0.805 1.046-1.233 0.328-0.413 0.644-0.811 0.945-1.189 0.277-0.396 0.55-0.764 0.805-1.104 0.521-0.673 0.898-1.275 1.19-1.68 0.287-0.409 0.465-0.638 0.465-0.638s-0.098 0.269-0.294 0.731c-0.218 0.449-0.439 1.145-0.873 1.89-0.204 0.38-0.427 0.792-0.675 1.221-0.265 0.418-0.552 0.856-0.86 1.302-0.295 0.455-0.659 0.884-1.014 1.329-0.347 0.453-0.763 0.86-1.152 1.291-0.394 0.426-0.849 0.794-1.264 1.187-0.437 0.37-0.888 0.71-1.331 1.028-0.896 0.624-1.793 1.116-2.593 1.461-0.803 0.343-1.506 0.533-1.997 0.644-0.498 0.103-0.786 0.112-0.786 0.112z"/></svg>
