<?xml version="1.0" encoding="UTF-8"?>
<!DOCTYPE svg  PUBLIC '-//W3C//DTD SVG 1.1//EN'  'http://www.w3.org/Graphics/SVG/1.1/DTD/svg11.dtd'>
<svg width="141.73px" height="226.77px" enable-background="new 0 0 141.732 226.771" version="1.1" viewBox="0 0 141.73 226.77" xmlns="http://www.w3.org/2000/svg"><rect width="141.73px" height="226.77px" fill="#fff"/><linearGradient id="a" x1="40.655" x2="47.093" y1="216.7" y2="197.38" gradientUnits="userSpaceOnUse"><stop stop-color="#fff" offset="0"/><stop stop-color="#EDEDED" offset="1"/></linearGradient><path d="m75.493 218.16-0.586-18.729-0.333-19.769s-13.128 2.209-16.641 1.624-17.559-5.854-20.486-8.194-12.352-13.262-13.2-12.776-2.019 11.021-2.019 11.021l-7.023 19.315-5.268 14.633c1e-3 -1e-3 33.365 18.143 65.556 12.875z" fill="url(#a)"/><path d="m85.87 2.071c-0.112 0.224-0.112 0.447 0 0.559 0.112 0.335 0.671 0 0.446 0.447 1.344 1.23 1.231 3.02 2.014 4.585 0.336 3.467-0.335 5.815-0.335 9.059-0.672 1.23 0.446 2.125-0.672 3.243-0.335 4.138-1.565 8.724-1.453 12.749-0.335 0.335 0.446 0.56 0 0.783-0.112 2.237-0.56 4.585-0.671 6.599 0.447 3.467 0.111 6.71 0.336 10.289 0.111 1.007-0.56 2.013 0 2.908-0.448 0.559-0.336 1.342-0.112 1.79-0.56 3.131-0.112 6.598-0.336 9.73 0.112 1.565 0.224 3.578-0.111 5.256 0.335 0.559 0 1.342 0.895 1.455 0.895-1.343 1.229-3.02 2.125-4.362 3.354-6.263 7.604-12.078 10.849-18.341 2.571-4.137 5.814-8.387 8.051-12.973 1.008-0.336 0.56-1.454 1.455-2.013-0.225-0.671 0.559-0.671 0.781-1.23 1.119-2.349 2.908-4.25 4.027-6.599 1.23-0.783 1.789-2.572 3.355-2.348 1.789-0.783 4.585-0.335 6.486 0.783l0.111-0.112c1.23 1.342 2.461 2.125 3.244 3.914h0.111c0.111 0.783 0.223 1.79 0.559 2.684 0 1.901-0.111 4.138-0.67 6.039 0.559 0.448-0.449 0.335-0.225 0.895-0.783 4.026-3.467 6.822-4.697 10.4-1.342 1.678-2.46 4.138-3.69 6.039v0.448l-0.112-0.112c-1.678 2.46-3.019 5.145-4.92 7.493-0.111 1.007-1.119 2.013-1.343 3.132-0.894 1.677-2.348 3.467-3.019 5.48-0.336-0.112-0.447 0.111-0.447 0.447-0.56 1.007-1.789 2.125-1.789 3.355-0.561 0.224-0.783 0.895-0.783 1.342 0 0.56-0.896 0.783-0.448 1.23-0.783 0.559-1.007 1.342-1.454 2.013l-0.223 1.119c0-0.112 0.111-0.224 0-0.335-0.336 0-0.225 0.448-0.336 0.671-0.336 0.448-1.118 1.118-0.895 1.79-0.224-0.223-0.447 0.224-0.447 0.335 0 0.335-0.447 0.67 0 0.895-1.007 0-0.783 1.118-1.566 1.454v0.224c1.342-0.224 3.244 0.112 4.474 0.447 1.118 1.119 2.796 1.23 3.915 2.572 0.335 1.007 1.564 1.342 1.342 2.46 0.111 0.895 0.895 2.125 0.223 3.02-0.559 0.895-0.334 2.013-0.447 2.908-0.336 0.447-0.446 1.23-0.336 1.565-0.223 0.447-0.334 1.565-0.67 2.013-0.336 1.79-0.783 3.579-1.342 5.256 0.224 0.224 0.224 0.335 0 0.56-1.119 3.467-1.566 7.493-3.131 10.624 0 0.336-0.225 0.783 0.11 1.007-0.11 0-0.224 0-0.224 0.112 0.336 0.111 0.113 0.671-0.223 0.895-0.336 4.473-2.014 8.834-3.914 12.973-0.895 1.342-1.566 2.908-1.901 4.361-0.896 1.342-1.566 3.02-2.461 4.586 0.112 0.671-0.783 1.006-0.895 1.678-0.447 1.453-1.677 2.571-2.013 4.137-1.23 1.119-1.454 2.461-2.35 3.803-1.453 2.237-3.242 4.25-4.361 6.599-1.789 1.678-2.013 3.354-3.914 5.032-1.789 2.685-3.578 5.592-4.697 8.5-1.006 2.46-1.677 4.921-1.789 7.381-0.224 0.895-1.006 0.56-1.566 0.895-0.335-0.335-0.223-1.118-0.895-1.23 0.895-1.006 0.225-2.013 0.783-3.354 0.672-1.454 0.447-2.908 1.23-4.249-0.559-0.672 0.783-0.896 0.783-1.566 0.447-0.783 1.117-1.789 1.117-2.572 1.23-2.014 2.797-3.914 3.803-5.928 0.783 0 0.447-1.006 1.119-1.342 1.342-1.9 3.02-3.803 3.914-5.703 3.02-3.691 4.921-8.276 7.381-12.414 1.342-2.908 3.02-5.703 3.914-8.611 2.572-4.361 4.139-9.842 4.81-14.539-0.56-0.559 0.335-0.783 0.224-1.342 0.224-1.23-0.56-2.348 0.336-3.467 0.335-1.23-0.56-2.349 0.447-3.467 0.223-0.225 0.67-0.225 1.006 0l0.447 0.447c0.56-0.895 0.671-2.125 1.006-3.132 0.896-3.802 1.902-7.717 2.35-11.407 0.111 0 0.224-0.224 0.336-0.224-0.336-0.335-0.672-0.447-0.672-1.006h0.336c0-1.678-1.006-3.69-2.572-4.585-1.23 0.112-1.678-1.342-3.02-1.23-1.566 0.335-3.244 1.119-3.579 2.684-0.335 0.447-1.118 0.895-1.79 0.895-1.229 0.335-1.006-0.559-1.342-1.454 2.35-3.467 4.361-7.493 6.264-11.408 0.895-0.335 0.671-2.013 1.564-2.684 2.686-4.586 5.033-9.171 7.605-13.756l0.112-0.783c-0.335 0-0.896-0.335-1.007 0.335 0 0.448 0 0.783-0.336 1.007h-0.223c0.223-0.559 0.223-1.23 0.223-1.789-2.906-1.23-6.039-1.79-8.723-3.468-0.224-0.335 0.447-0.335 0.671-0.224 2.237 1.678 5.479 1.678 7.94 3.244 0.111-1.901-2.013-2.908-3.467-3.691-2.014-0.894-4.026-0.447-6.039-0.335-0.111-0.671 0.783-0.447 1.23-0.783 1.9 0.671 3.914-0.223 5.48 1.119 1.564 0.112 2.57 1.566 3.242 2.796-0.336 0.56 0.225 1.118 0.672 1.343 0.782 0.447 0.894-0.448 1.342-0.783 0.67-2.125 2.348-3.691 2.907-5.704 1.565-2.237 2.572-4.697 4.138-7.045 1.79-3.355 3.467-6.822 4.809-10.4-0.223-0.448 0.56-1.23 0-1.79-1.229 1.23-2.46 2.46-3.914 3.131-1.565-0.559-3.355-0.559-4.361-2.013-1.006-0.224-1.789-1.119-2.572-1.79-0.111-0.672-0.223-1.678 0.112-2.46-1.007-0.112-0.671 0.895-1.343 1.23-0.782 1.118-1.453 2.348-2.125 3.579-0.111 0.782-0.782 1.006-1.117 1.565-0.336 0.783-1.23 1.454-1.119 2.236-0.895 0.447-1.117 1.454-1.678 2.237-0.336 0.783-1.342 1.566-1.229 2.685-0.56 0-0.896 0.447-0.896 1.006-0.782 1.565-2.348 3.131-2.907 4.921-1.118 0.783-1.565 2.572-2.572 3.69 0.112 0.671-1.007 0.783-0.671 1.454-0.111 0.336-0.895 0.671-0.783 1.118-1.342 1.454-2.46 3.691-3.467 5.48 0.225 0.67-0.895 0.783-0.782 1.342-1.343 2.125-2.349 4.474-3.804 6.934 0.225 0.783-1.118 1.23-1.118 2.125-0.446 0.112-0.894 0.559-1.007 1.006-0.781 1.118-1.9-0.112-2.907 0.559-0.446-0.224-1.007-0.112-1.342-0.447-0.224-0.783 0.671-0.783 0.671-1.454 0.225-1.007-0.671-1.79 0.111-2.685 0.113-0.895-0.223-1.789-0.223-2.684 0.559-1.678-0.225-3.244 0.223-4.921-0.223-1.23 0.113-2.684-0.223-3.803 0.559-0.895 0.111-2.013 0.223-2.908 0.113-3.914 0.56-7.716 0-11.519 0.225-1.566 0.225-2.908 0.113-4.698 0.223-1.789-0.113-3.355 0.223-5.256 0.783-6.821 1.678-13.756 2.35-20.689-0.448-0.335 0-0.56 0-1.007 0-0.782 0.223-1.565 0-2.236-0.783 0.559-0.56 2.125-1.23 2.796-0.112 0.783 0 1.79-1.006 2.125-1.902-0.895-4.251-0.223-6.375-0.559-0.561 0.559-1.344-0.224-2.014-0.56 0.111-0.335 0-0.895-0.447-1.229 0-1.455-0.783-2.908-0.672-4.474-0.447 0.448-0.559 1.678-0.782 2.125-1.118 3.467-2.013 6.822-2.796 10.289 0 1.007-0.112 2.125-0.559 3.132 0.559 0.223 0 0.782-0.112 0.895-0.447 4.585-1.23 8.387-1.677 12.749 0.224 0.895-0.335 2.237-0.112 3.244-0.67 1.789-0.67 4.026-0.67 5.48-0.336 1.901-0.559 3.915-0.559 5.592-0.559 3.579-0.671 7.829-1.007 11.407 0 1.342 0.112 2.685-0.335 3.915 0.447 0.671-0.336 1.454 0 2.125-0.672 2.237-0.447 4.921-2.461 6.487-0.447 0.112-0.782-0.112-1.006-0.448 0.671-0.671-0.112-0.895-0.559-1.454-0.335-0.559 0-1.341-0.56-1.789 0.895-1.23-1.23-1.677-0.559-2.907 1.119-1.454 0-3.467 0.224-5.257-0.335-3.243 0-6.263-0.671-9.618l-0.224-0.111h0.224c0-1.678 0-3.244-0.335-4.81-0.224-0.335 0.448-0.447 0-0.783 0.335-0.336-0.559-0.559-0.112-1.119-0.112-0.559-0.224-1.342-0.336-2.125-3.579-0.782-8.387 0.448-12.189-0.335-0.224-0.447-0.783-0.335-1.119-0.447-0.112 3.355 0.447 7.381-0.112 10.848v7.493c-0.559 0.447 0.335 0.895-0.112 1.342-0.111 0.559-0.224 1.006 0.112 1.565h0.112c-0.783 0.895 0.224 1.901-0.447 2.908 0.224 0.223 0.335 0.335 0.112 0.67-0.112 1.901 0 4.25-0.112 6.375 0.224 0.335 0.335 1.006 0 1.23-0.447 5.032-1.23 10.736-1.677 15.992-0.448 2.349-1.007 4.585-1.23 7.046-0.671 3.579-1.342 8.387-2.125 11.854 0.224 0.336-0.224 1.119-0.224 1.566-0.224 1.9-0.783 4.025-1.119 6.039-0.782 2.349-0.782 5.145-1.565 7.604 0.335 0.671-0.559 1.118-0.223 1.901-0.896 1.565-0.671 3.69-1.342 5.145-0.447 3.02-1.566 5.928-1.79 9.059-0.447 1.454-1.007 3.467-1.23 5.256h-0.112c0 2.461-2.125 4.586-1.677 7.046-1.007 0.783-0.671 3.579-2.684 2.685-0.783-0.336 0-1.119 0-1.678 0.783-0.224 0.224-1.454 0.783-1.901 0.895-2.46 1.23-4.697 1.79-7.27 0.559-3.467 1.342-6.263 2.013-9.729 0.448-1.342 0.559-3.02 1.006-4.361 0.224-1.678 0.895-3.578 1.007-5.256 0.783-3.021 1.342-6.711 2.237-9.842-0.448-0.336 0.111-0.448 0-0.783 0.223-0.672 0.447-1.678 0.223-2.349 0.224-0.112 0.671-0.671 0.112-0.896 1.23-2.459 1.006-5.479 1.902-8.164-0.336-0.223 0.223-0.782 0.111-1.117 1.23-7.493 2.46-15.434 3.132-23.039 0.224-4.138 0.671-8.164 0.782-12.19-0.559-0.783 0.225-2.125-0.335-2.908 0.56-1.342-0.224-3.243 0.335-4.361-0.67-0.112 0.336-0.56-0.223-0.783 0.335-0.895 0-1.789 0.335-2.684-0.112-0.335-0.112-0.894-0.112-1.23 0.112-3.466-0.111-6.263 0.225-9.506 0.559-1.229 0-3.019 0.111-4.473-0.336-6.262-0.783-12.302-1.23-18.229 0.335-2.908-0.335-6.151 0.112-8.947-0.224-0.671 0.447-2.013 0.112-3.02 0.56-1.007 0.67-2.349 1.006-3.467-0.671-0.224 0.447-0.783 0.447-1.23 1.231-0.896 2.349-2.349 3.691-2.908 0.224-0.335 0.448-0.224 0.559 0 2.796-0.447 5.481 0.448 7.718 1.902 1.229 0.335 1.006 1.565 2.125 2.125 0.782 3.355 1.118 6.263 1.454 9.618-0.559 0.447 0.224 1.006-0.112 1.454 0 0.671 0 1.454 0.336 2.125l-0.224 0.224c0.336 2.572 0.447 5.256 0.447 7.828l0.448 0.671-0.336 0.224c0.447 0.336-0.223 0.783 0 1.118l0.336 3.244c-0.336 0.895 0.111 1.901-0.224 2.908 0.111 2.684 0.671 4.81 1.23 7.381-0.447 1.454 0.56 3.131 0.224 4.361 0.336 1.119 0 2.684 0.447 3.691l-0.111 0.223c0.335 0.225-0.336 0.56 0.335 0.783-0.335 1.79-0.112 3.691 0.112 5.48-0.112 1.901 0.335 3.69 0.335 5.815h0.225c0.671-6.04 0.783-13.085 1.342-19.124 0.448-1.23 0.559-2.349 0.448-3.579 0.671-3.915 0.894-7.716 1.565-11.855 0.56-5.033 1.454-10.512 2.349-15.768 0.671-0.336 0-1.23 0.447-1.79 0.112-1.23 0.783-2.349 0.783-3.355 1.007-2.573 1.566-4.474 2.572-7.046 0.672-0.448 0.895-1.901 1.902-1.23 0.335-0.336 0-0.671 0-1.007 1.342-1.901 3.914-2.125 6.039-2.012 1.896-4e-3 3.797 0.443 5.475 1.226z"/><path d="m81.173 3.302c0.224 0.335 0.671 0.223 1.229 0.111 0.447 0.56 1.79 0.672 1.79 1.79 0.112 0.112 0.447 0 0.335 0.336-2.795-0.559-6.486-0.671-9.17-0.671l-0.224-0.783c1.677 0.559 2.572-1.79 4.474-0.783 0.448 0.223 0.895 0.111 1.566 0z" fill="#fff"/><path d="m84.863 7.551c-0.336 2.348-0.783 4.697-1.9 6.822-2.572-0.224-4.81 0.111-7.27-0.56-0.895-2.125-1.119-4.697-0.56-7.046 0.224 0.112 0.224-0.111 0.336-0.223 0-0.112-0.112-0.224-0.224-0.336 0.447-0.783 2.124-0.335 3.131-0.447 2.237 0.224 4.923 0.113 6.487 1.79z" fill="#fff"/><path d="m54.444 9.117c-2.46-0.559-5.368-0.335-7.829-0.112 2.349-0.895 5.704-1.789 7.829 0.112z" fill="#fff"/><path d="m55.115 10.235c0.224 1.79-0.112 3.691-0.335 5.48-1.678 0.336-3.579 0.783-5.257 0.895-2.125 0.671-2.907-2.125-4.585-2.46 0.336-0.671-0.447-1.006-0.223-1.678 0.895-1.006 0.112-3.355 2.237-2.908 2.571 0 6.038-0.783 8.163 0.671z" fill="#fff"/><path d="m56.681 17.952c0 0.224-0.447 0.671 0.112 0.895 0.112 1.341-0.224 2.796 0.224 3.914-0.447 0.56 0.56 1.119-0.111 1.678 0.559 0.335 0 1.454 0.559 2.013l-0.224 0.224c0 1.565 0.448 2.684 0.224 4.361 0.224 1.566 0.335 3.355 0.335 5.145-0.671 0.447-0.559 1.341-0.447 2.013 0.447 1.23 0.56 2.013 0.671 3.467-0.783-0.112-1.23-0.671-1.901-1.006-1.79 0-3.69-0.783-5.368 0-1.79 0-3.802 0.559-5.256 1.901-0.335-1.118-0.224-2.572-0.447-4.138-0.335-7.716-1.342-14.986-0.447-22.814l0.112-0.224c0.895 1.006 1.901 2.572 3.355 2.684 2.684-0.223 4.92-0.895 7.38-1.454 0.112-1.006 0-1.79 0.448-2.796 0.333 1.565 0.333 2.683 0.781 4.137z" fill="#fff"/><path d="m121.1 26.563c1.007 0.447 1.901 1.565 2.571 2.46-1.678-1.566-4.025-1.901-5.927-2.796 0.447-0.783 1.343 0.448 2.013-0.335l1.343 0.671z" fill="#fff"/><path d="m121.1 28.688 0.224-0.224c1.006 1.118 2.684 1.678 2.796 3.131 0.111 0.671-0.448 1.23-0.224 1.678-1.789 1.454-3.803 4.25-6.375 3.02-1.006-1.342-2.46-1.454-3.69-2.348 0.224-2.573 0.671-5.033 2.349-7.046 1.564 0.447 3.241 1.23 4.92 1.789z" fill="#fff"/><path d="m57.463 42.444c0.335-0.112 0.56-0.336 0.671 0.111-0.559 0.559 0.895 0.783 0.111 1.119 0.336 0.111 0.112 0.895 0.448 1.342-3.579 0.112-7.605-0.112-11.296-0.335-0.559-0.112-1.23-0.448-1.342-1.007 0.671-2.237 3.467-1.789 5.369-2.46 1.902 0.112 4.362-0.112 6.039 1.23z" fill="#fff"/><path d="m78.936 43.227c-2.459-0.335-5.145-1.006-7.492 0.559 0.783 0.448 1.9 0.336 2.796 0.448 2.685 0 5.032 0.335 7.717 0.448-3.132 0.223-7.27 0-11.296 0.111l-0.112 0.672c-0.559-0.335-0.223-1.342-1.229-1.342 1.566-0.447 2.796-1.677 4.809-1.677 1.564-0.114 3.353 0.11 4.807 0.781z"/><path d="m80.055 43.898-1.007-0.447 0.224-0.112c0.112 0.559 0.783 0 0.783 0.559z"/><rect x="80.277" y="43.898" width=".113" height=".112"/><rect x="50.53" y="112.12" width=".112" height=".112"/><rect x="42.142" y="125.09" width=".112" height=".112"/><path d="m26.373 161.1c-0.223-0.781-1.341-1.564-2.125-0.781-1.119 1.341-0.447 3.131-1.23 4.695-0.224 1.23-0.56 2.686-1.119 3.914-1.006 5.258-3.243 10.737-4.697 15.882 0 0.447-0.783 0.224-0.336 0.783-1.263 3.765-2.675 7.487-4.187 11.179 0.266 1.115 0.549 2.236 0.901 3.342 0.367-0.789 0.728-1.604 0.938-2.442 1.118-0.56 0.335-1.678 1.118-2.349 0.448-1.454 1.007-2.797 1.566-4.25 0-0.447 0.559-0.783 0.447-1.23l0.335-0.447c0.448-1.118 0.671-2.46 1.23-3.802l0.224 0.11c-0.336-0.781 0.112-1.453 0.223-2.012 0-0.559 0.896-0.672 0.448-1.342 0.671-1.23 1.342-2.797 1.454-4.139 1.677-4.697 3.131-9.617 4.138-14.539-0.335-1.006 0.561-1.789 0.672-2.572z"/><path d="m27.939 160.54c7.829 12.302 20.69 19.795 34.78 19.906 3.803 0.113 7.718-0.67 11.408-1.006 0.112 0.111 0.336 0 0.447 0.224-5.815 2.907-12.861 2.796-19.235 1.678-1.23 0-2.46-0.56-3.579-1.007-3.69-0.783-7.045-2.908-10.624-4.473-5.704-3.691-11.184-9.06-14.539-14.875-0.112-1.006 0.894-0.558 1.342-0.447z"/><path d="m76.293 208.39c0.027-1.203 0.055-2.413-0.041-3.562l0.447-0.111-0.223-0.225c-0.113-3.467-0.225-6.598 0-10.064-0.225-1.119 0.223-2.572 0-3.803 0.447-2.907 0-5.703 0.447-8.611 0-0.783-0.447-1.118-1.23-1.23-0.447 0.112-0.672 0.447-0.895 0.783-0.646 8.871-0.65 19.074-0.646 28.943 0.684-0.728 1.395-1.436 2.141-2.12z"/></svg>
