<?xml version="1.0" encoding="UTF-8"?>
<svg width="226.77px" height="226.77px" enable-background="new 0 0 226.77 226.77" version="1.1" viewBox="0 0 226.77 226.77" xmlns="http://www.w3.org/2000/svg"><rect width="226.77px" height="226.77px" fill="#fff"/><style type="text/css">.st0{fill:url(#a);} .st1{fill:none;stroke:#000000;stroke-width:0.5;stroke-linecap:round;} .st2{fill:none;stroke:#000000;stroke-width:2;stroke-linecap:round;} .st3{fill:none;stroke:#000000;stroke-linecap:round;} .st4{fill:none;stroke:#000000;stroke-width:3;}</style><linearGradient id="a" x1="32.521" x2="45.309" y1="42.903" y2="61.891" gradientTransform="matrix(.8802 .4745 .4745 -.8802 -20.984 195.53)" gradientUnits="userSpaceOnUse"><stop stop-color="#fff" offset="0"/><stop stop-color="#EDEDED" offset="1"/></linearGradient><polygon class="st0" points="36.018 204.31 69.544 181.28 94.333 168 78.863 162.99 67 150.33 61.536 138.03 63.667 123 10.715 146.95"/><path class="st1" d="m117.22 69.691s-5.565-4.898-4.377-10.504"/><path class="st1" d="m119.4 67.941s-5.565-4.898-4.377-10.504"/><path class="st1" d="m126.17 84.318s-6.066-5.339-4.771-11.449"/><path class="st1" d="m130.34 107.11s-5.565-4.898-4.377-10.504"/><path class="st1" d="m129.03 108.86s-5.565-4.898-4.377-10.504"/><path class="st1" d="m137.47 125.5s-6.754-3.057-7.256-8.766"/><path class="st1" d="m123.34 85.447s-5.565-4.898-4.377-10.504"/><path d="m143.63 40.333c-0.918 0.652-1.851 1.272-2.746 1.942-0.911 0.641-1.812 1.307-2.622 2.036-0.382 0.359-0.815 0.77-0.974 1.114-0.098 0.212 0.062 0.833 0.232 1.3 0.351 1.008 0.866 1.993 1.393 2.953 0.531 0.952 1.128 1.912 1.793 2.701 0.544 0.707 1.718 0.684 2.749 0.551 2.126-0.371 4.13-1.462 5.967-2.735-1.605 1.562-3.543 2.887-5.827 3.446-0.573 0.126-1.166 0.213-1.787 0.167-0.309-0.023-0.627-0.087-0.943-0.217-0.323-0.128-0.626-0.367-0.826-0.585-0.832-0.882-1.407-1.854-1.991-2.84-0.563-0.995-1.06-2.022-1.438-3.135-0.091-0.281-0.167-0.57-0.219-0.881-0.036-0.305-0.108-0.664 0.086-1.092 0.365-0.656 0.821-0.981 1.277-1.352 1.845-1.377 3.824-2.441 5.876-3.373z"/><path d="m158.62 71.178c-0.908 0.666-1.832 1.298-2.718 1.982-0.902 0.654-1.793 1.333-2.592 2.073-0.376 0.365-0.804 0.782-0.958 1.128-0.095 0.214 0.074 0.832 0.251 1.296 0.365 1.003 0.894 1.98 1.436 2.932 0.545 0.945 1.155 1.895 1.832 2.675 0.554 0.699 1.728 0.659 2.757 0.511 2.12-0.402 4.109-1.521 5.927-2.821-1.583 1.585-3.501 2.938-5.776 3.53-0.571 0.135-1.162 0.23-1.784 0.193-0.309-0.018-0.628-0.078-0.946-0.203-0.324-0.124-0.632-0.358-0.834-0.573-0.845-0.87-1.434-1.833-2.032-2.811-0.577-0.987-1.089-2.006-1.483-3.114-0.095-0.28-0.175-0.568-0.232-0.878-0.04-0.304-0.117-0.663 0.071-1.093 0.356-0.661 0.807-0.993 1.257-1.371 1.822-1.402 3.785-2.494 5.824-3.456z"/><path d="m156.21 97.213c-0.9 0.664-1.815 1.294-2.694 1.974-0.895 0.651-1.779 1.324-2.576 2.058-0.379 0.363-0.8 0.767-0.981 1.123-0.127 0.197 0.039 0.801 0.204 1.265 0.352 0.996 0.874 1.968 1.407 2.915 0.538 0.937 1.142 1.886 1.815 2.649 0.551 0.664 1.731 0.611 2.747 0.446 2.102-0.422 4.069-1.542 5.877-2.828-1.574 1.571-3.468 2.922-5.718 3.533-0.564 0.142-1.148 0.245-1.765 0.223-0.308-0.02-0.623-0.054-0.942-0.179-0.322-0.104-0.646-0.339-0.849-0.553-0.851-0.863-1.431-1.821-2.023-2.794-0.571-0.982-1.075-1.997-1.457-3.103-0.092-0.28-0.167-0.569-0.217-0.882-0.041-0.292-0.089-0.706 0.126-1.092 0.369-0.618 0.811-0.956 1.262-1.324 1.814-1.386 3.761-2.474 5.784-3.431z"/><path d="m157.53 51.812c-1.028 0.739-2.072 1.445-3.083 2.197-1.026 0.725-2.04 1.471-2.985 2.274-0.459 0.407-0.941 0.812-1.291 1.251-0.086 0.108-0.156 0.216-0.204 0.31-0.027 0.074-0.052 0.147-0.049 0.273-5e-3 0.235 0.05 0.523 0.117 0.804 0.292 1.143 0.845 2.275 1.407 3.366 0.578 1.068 1.236 2.196 2.008 2.99 0.313 0.317 0.895 0.398 1.472 0.395 0.583-1e-3 1.186-0.099 1.777-0.245 2.374-0.625 4.585-1.902 6.646-3.347-1.838 1.727-3.97 3.223-6.451 4.031-0.621 0.196-1.264 0.348-1.943 0.394-0.656 0.026-1.445-1e-3 -2.095-0.548-1.038-0.973-1.642-2.078-2.286-3.203-0.613-1.135-1.143-2.306-1.471-3.612-0.076-0.331-0.134-0.672-0.114-1.068 4e-3 -0.19 0.058-0.429 0.164-0.64 0.102-0.184 0.214-0.335 0.33-0.469 0.465-0.527 0.966-0.925 1.486-1.309 2.083-1.498 4.282-2.745 6.565-3.844z"/><path class="st2" d="m106.06 49.996c2.334-4.085 6.909-7.367 8.972-7.367 4.085 0 5.836 4.377 4.96 8.462"/><path class="st2" d="m104.82 49.048s-8.753 2.918-9.92 7.878-3.793 18.382-3.793 18.382"/><path class="st2" d="m89.35 77.642c-5.836 4.085-5.289 4.182-8.498 16.436s-2.589 22.37-15.427 27.622l-41.201 19.119"/><path class="st2" d="m93.144 74.724c2.042-1.751 16.048-15.172 17.798-17.215s21.883-13.422 25.968-16.048 9.92-6.711 13.422-0.875 0.292 11.379 0.292 11.379"/><path class="st2" d="m103.94 87.562s15.464-16.923 16.631-17.798 31.293-18.455 33.627-19.33 8.396-3.739 11.964 2.991c3.375 6.367 0.217 10.504-3.284 12.838"/><path class="st2" d="m111.96 108.86c1.751-2.188 10.723-12.692 13.13-14.881 2.407-2.188 29.53-22.09 31.512-24.072 3.064-3.064 6.784-2.607 10.285 2.188 4.62 6.328-6.127 16.449-10.066 19.731s-5.777 4.623-5.777 4.623"/><path class="st2" d="m119.4 127.02c2.626-3.064 7.659-10.285 8.753-12.036s18.163-12.911 19.476-14.005 6.565-5.033 8.097-5.471 5.69 0 8.097 5.252-1.313 8.316-7.44 13.786c-6.127 5.471-10.285 8.753-10.285 8.753"/><path class="st2" d="m148.29 120.68s-8.753 13.13-10.942 17.288c-2.188 4.158-5.471 23.196-37.42 24.509"/><line class="st2" x1="102.99" x2="44.109" y1="161.6" y2="199.99"/><path class="st3" d="m107.74 91.982s-6.784 0.875-9.41 11.16"/><path class="st3" d="m62.771 127.13s-7.915 20.486 21.418 37.714"/><path class="st4" d="m191.09 169.1c-8.956 12.326-23.108 20.282-39.034 20.282-16.924 0-31.846-8.985-40.657-22.652"/><polygon points="198 155.97 180.44 170.15 190.31 169.93 195.39 178.39"/></svg>
