<?xml version="1.0" encoding="UTF-8"?>
<!DOCTYPE svg  PUBLIC '-//W3C//DTD SVG 1.1//EN'  'http://www.w3.org/Graphics/SVG/1.1/DTD/svg11.dtd'>
<svg width="471.5px" height="226.77px" enable-background="new 0 0 471.5 226.771" version="1.1" viewBox="0 0 471.5 226.77" xmlns="http://www.w3.org/2000/svg"><rect width="471.5px" height="226.77px" fill="#fff"/><rect x="371.37" y="65.059" width="97.604" height="113.39" fill="#fff"/><linearGradient id="h" x1="382.25" x2="394.12" y1="537.08" y2="542.95" gradientTransform="matrix(1 0 0 -1 .1401 689.83)" gradientUnits="userSpaceOnUse"><stop stop-color="#fff" offset="0"/><stop stop-color="#EBEBEB" offset="1"/></linearGradient><path d="m388 170.06 18.25-22.625s-7.375-10.25-9.5-21l-0.75-0.5-22.875 16.875 14.875 27.25z" fill="url(#h)"/><g stroke="#000"><path d="m426.66 81.174c0.944 1.72 1.552 3.364 1.899 5.172 0.312 0.78 0.25 1.652 0.469 2.455-0.082 1.356 0.078 2.812-0.67 3.975-1.043 2.471-2.067 4.858-2.842 7.522-0.292 0.112-0.681 0.069-0.68-0.331 0.101-1.041 0.549-2.05 0.902-3.034 0.652-1.717 1.355-3.466 2.199-5.05 0.447-3.581-0.389-6.962-2.123-10.101-0.717-0.959-2.023-1.652-3.256-1.307-1.174 0.489-0.938 2.007-0.967 2.94l0.169 0.757c-0.011 0.032-0.11 0.355 0.071 0.53-0.123 0.948-0.586 1.819-0.732 2.674-0.185 0.225-0.03 0.526-0.289 0.689 0.09 0.197-0.066 0.295-0.113 0.507l-0.042-0.01c-0.222 0.394-0.316 0.816-0.538 1.21 0.15 0.122 0.018 0.314-0.02 0.483-0.207 0.131-0.244 0.3-0.335 0.501l0.075 0.062c0.037 0.23-0.381 0.313-0.165 0.539 0.014 0.136-0.282 0.07-0.101 0.244-0.068 0.117-0.252-0.057-0.121 0.149-0.141 0.234-0.361 0.23-0.25 0.521l-0.122 0.15 0.075 0.061c-0.043-0.01-0.094 0.023-0.104 0.065 0.043 9e-3 0.033 0.051 0.074 0.061l-0.348 0.365 0.116 0.072c-0.225 0.214-0.249 0.52-0.485 0.777l0.025 0.094-0.105 0.065c0.207 0.268-0.262 0.385-0.193 0.666 0 0 0.071-0.117 0.047-0.21-0.338 0.322-0.442 0.786-0.631 1.232 0.159 0.08 0.184-0.225 0.245-0.301 0.056 0.146-0.161 0.319 0.019 0.314-0.176 0.184-0.111 0.685-0.416 0.661l-0.131 0.192c0.023 0.095-0.018-0.314-0.17-0.037-0.051 0.032 0.057 0.146 0.098 0.154l0.086 0.02c0.084 0.02-0.033-0.052-0.043-0.011 0.022 0.095 0.1 0.156-0.014 0.264l-0.076-0.062c-0.094 0.023-0.037 0.169-0.132 0.192 0.053-0.032-0.022-0.094-0.013-0.136-0.09 0.201-0.452 0.43-0.246 0.698-0.156 0.497-0.325 0.858-0.6 1.284-0.461 0.872-1.488 3.55-2.441 4.045-0.085-0.019-0.295-0.065-0.258-0.234 1.743-3.024 3.924-7.882 5.203-11.01 0.811-1.636 1.738-4.233 2.305-5.969-0.196-1.94-0.23-2.775-0.021-4.206 0.08-1.245 1.063-1.579 2.004-1.812 1.406-0.123 2.847 0.379 3.712 1.459z" stroke-linecap="square" stroke-miterlimit="2" stroke-width=".375"/><path d="m466.86 95.076c0.951 1.687 0.691 4.067-0.52 5.538-0.217 0.347-0.648 0.52-0.865 0.692-0.477-0.043-0.908 0.347-1.385 0.131-0.391 0.389-0.909 0-1.342 0.26-5.365 0.389-11.251 1.125-16.53 2.509l-1.558 0.304c0.086 0.302-0.217 0.433-0.434 0.476-3.678 0.477-6.965 2.12-10.514 3.029-0.562 0.303-1.213 0.39-1.818 0.649-1.299 0.303-2.424 0.951-3.764 1.211-0.174 0-0.303-0.173-0.347-0.302 0.259-0.347 0.778-0.477 1.126-0.649 2.855-1.082 5.842-1.904 8.74-2.941-0.217-0.088-0.389 0.043-0.562 0.043l4.024-1.256c0.216-0.433 0.864-0.217 1.125-0.563 0-1.989-0.433-3.635-0.909-5.581-0.216-0.217-0.13-0.606-0.389-0.822 0-0.087 0-0.217-0.13-0.217-0.476 0.735-0.303 1.731-0.13 2.553 0.086 0.562 0.086 1.255 0.389 1.73-0.086 0.39 0.174 0.606 0.26 0.953 0.174 0.345 0.303 0.734 0.693 0.951v0.13c-0.26 0-0.39-0.303-0.52-0.433 0.13-0.217-0.174-0.087-0.174-0.26-0.605-1.428-0.951-2.899-1.038-4.544v-0.735c-0.044 0.13-0.087 0.432-0.216 0.432-0.044-0.432 0.172-0.648 0.216-1.081 0.173-0.043 0.087 0.174 0.13 0.216 0.174-0.13 0.346-0.216 0.562-0.259 0.477 0.951 0.693 2.033 0.909 3.114 0.302 1.256 0.302 2.597 0.562 3.938 6.102-1.515 12.42-2.77 18.781-3.375 0.043-0.087 0-0.217 0.043-0.303-0.174-0.173-0.562-0.217-0.52-0.562 0.087-0.174 0.217-0.174 0.346-0.261-0.217-1.341-0.52-2.595-0.951-3.851 0.174-0.476 0.648-0.692 1.082-0.908l-0.347 0.173c1.169-0.26 2.25-0.951 3.506-0.735v0.087c-1.429 0.043-2.597 0.432-3.809 1.168 0.131 0.909 0.476 1.86 0.562 2.77 0.044 0.519 0.261 1.038 0.261 1.601 0.734 0.606 1.773 0.39 2.639 0.433 0.131 0 0.347-0.13 0.476 0 0.39-0.13 0.866-0.389 1.126-0.736 0.174-1.688-0.389-3.418-1.169-4.846 0.043-0.129 0.087-0.217 0.174-0.261 0.562 0.348 0.216 1.039 0.692 1.473 0.26 0.995 0.477 2.12 0.52 3.202 0.562-0.563 0.562-1.472 0.648-2.295-0.129-0.907-0.389-1.86-1.254-2.423-0.261-0.216-0.649-0.346-0.953-0.26-0.648-0.52-1.427-0.26-2.164-0.52-0.216 0.26-0.432-0.174-0.605 0-0.779 0-1.514 0.13-2.163 0.303l-0.087-0.043c-7.096 0.779-14.756 1.428-21.723 3.115-0.216 0.26-0.518 0-0.734 0.13-1.039 0.261-2.121 0.476-3.203 0.692-0.129 0.303-0.346 0.043-0.562 0.217-4.37 1.125-8.827 2.25-13.24 3.419-0.693 0-1.472 0.432-2.164 0.043 0.086-0.303 0.562-0.303 0.822-0.433 10.818-2.856 21.506-5.928 32.931-7.14 3.202-0.477 6.317-0.649 9.52-1.126 0.778 0.347 1.471-0.345 2.293 0.088 1.428 0.13 2.856 0.562 3.635 1.948z" stroke-linecap="square" stroke-miterlimit="2" stroke-width=".375"/><path d="m455 97.456c0.217 0.951 0.26 1.947 0.65 2.898 0 0 0 0.088-0.045 0.088-0.13-0.175-0.173-0.434-0.302-0.65-0.044-0.605-0.13-1.255-0.304-1.817 0.088-0.778-0.389-1.514-0.086-2.293-0.129 0.562 0.087 1.125 0.087 1.774z" stroke-linecap="square" stroke-miterlimit="2" stroke-width=".375"/><path d="m416.32 96.893c-0.044-0.13 0-0.303 0.086-0.432 0 0.086 0.042 0.346-0.086 0.432z" fill="#fff" stroke-linecap="square" stroke-miterlimit="2" stroke-width=".375"/><path d="m416.23 96.85c-0.131 0.131 0 0.261-0.131 0.39-0.128-0.13 0.046-0.304 0.131-0.39z" fill="#fff" stroke-linecap="square" stroke-miterlimit="2" stroke-width=".375"/><path d="m413.72 103.34c-0.434 0.433-0.736 0.864-1.082 1.342-2.812 4.24-4.934 8.913-8.006 13.024-1.99 2.553-4.111 5.279-6.793 7.14-0.174-0.087-0.261 0.087-0.39 0.173l0.087-0.129-0.044-0.044c0.304-0.346 0.778-0.649 1.038-1.038 0.174 0.043 0.26-0.345 0.434-0.389l0.172-0.175-0.172 0.044c0.086-0.302 0.389-0.044 0.52-0.389 0-0.043-0.087 0-0.131-0.043 0.477-0.649 1.213-1.256 1.731-1.774 0 0.043-0.044 0.087-0.044 0.087 0 0.043 0.088 0.043 0.088 0.043 0.216-0.13-0.131-0.217 0.086-0.302l0.043 0.085c0.043-0.042 0.217-0.085 0.13-0.173h-0.13l0.996-1.125 0.086 0.131c0.043-0.044 0.043-0.088 0.087-0.131-0.217-0.13 0.087-0.433 0.216-0.605 0.172 0.087 0.172-0.087 0.217-0.173l0.303-0.39-0.216 0.52c0.259 0 0.173-0.347 0.345-0.433-0.173-0.39 0.39-0.649 0.52-0.996 0.043 0.044 0.131 0.087 0.131 0.044v-0.087c0.086 0 0.086 0.043 0.129 0.087 0.043-0.087 0.043-0.173 0.043-0.217h-0.086c0-0.13 0.043-0.173 0.086-0.26h0.131l-0.131 0.13 0.088 0.087 0.172-0.217c-0.303-0.302 0.304-0.519 0.391-0.865 0.086-0.043 0.129-0.216 0.216-0.26v0.173c0.087-0.043 0.087-0.129 0.173-0.129-0.173-0.175 0-0.347 0.088-0.52 0.043-0.043 0.13-0.043 0.172-0.087l-0.086 0.173 0.26-0.217c-0.26 0 0-0.346 0.043-0.476l0.087-0.13c0.044 0.043 0.087 0.13 0.13 0.13 0.044-0.346 0.174-0.779 0.562-0.994-0.129-0.13 0.043-0.218 0.086-0.304 0.348 0.174 0.305-0.303 0.478-0.433l-0.044-0.087c-0.043 0.087-0.129 0.261-0.26 0.261 0.043-0.217 0.174-0.347 0.303-0.52l0.217-0.086c-0.174-0.217 0.13-0.434 0.217-0.649h0.086c0.044 0.13-0.131 0.216-0.173 0.346l0.042 0.043c0.175-0.043 0.175-0.26 0.261-0.389l-0.13-0.087 0.13-0.043c-0.13-0.217 0.13-0.303 0.13-0.433 0.562-0.909 0.995-1.861 1.558-2.771l0.087 0.088c0.994-2.034 2.033-4.198 3.852-5.886 0.172-0.043 0.303-0.173 0.475-0.087v0.392h-5e-3z" stroke-linecap="square" stroke-miterlimit="2" stroke-width=".375"/><path d="m446.22 107.58c0.519 1.773 0.562 3.592 0.043 5.409-0.259 0.476-0.562 1.341-1.255 1.255-0.822 0.432-1.645 0.823-2.467 1.298-0.735 0.13-1.211 0.606-1.99 0.823-0.951 0.52-2.077 0.864-2.942 1.601v0.086c-0.476 0.477-0.865 1.126-1.428 1.559-0.216 0.043-0.347-0.174-0.39-0.347 0.087-0.779 0.822-1.212 1.125-1.947 2.597-1.688 5.496-2.596 8.223-3.98 0.778-0.693 0.433-1.905 0.562-2.812-0.045-1.126-0.13-2.164-0.562-3.116-0.564-0.865-1.646-0.995-2.381-1.558-0.086-0.26 0.043-0.303 0.174-0.476 1.297 0.302 2.724 0.864 3.288 2.205z" stroke-linecap="square" stroke-miterlimit="2" stroke-width=".375"/><rect x="409" y="109.57" width=".045" height=".042" fill="#fff" stroke-linecap="square" stroke-miterlimit="2" stroke-width=".375"/><rect x="405.76" y="114.98" width=".042" height=".088" fill="#fff" stroke-linecap="square" stroke-miterlimit="2" stroke-width=".375"/><path d="m447.3 117.32c0 1.817 0.476 3.98-0.476 5.626 0.086 0.217-0.174 0.389-0.346 0.52-0.218 0-0.303 0.259-0.563 0.216-0.087-0.087 0-0.216-0.087-0.261-0.605 0.562-1.428 0.952-2.163 1.472 1.255 0.476 1.168 2.033 1.472 3.202 0.129 2.293-1.126 4.066-2.554 5.712v0.13c-0.606 0.174-0.908 0.823-1.515 0.951-0.217 0.217-0.691 0.304-0.908 0.693l-0.303 0.042c-0.779 0.563-1.645 1.082-2.38 1.688-0.649 0.261-1.255 0.78-1.86 1.125-1.299 0.995-2.727 0.908-3.809 2.207-2.25 1.342-4.673 2.553-7.14 3.245-0.173 0.346-0.347-0.087-0.519 0.217-1.386 0.346-2.77 0.648-4.198 0.951-2.899 0.606-5.886 1.083-8.827 0.779-0.346-0.26-0.822 0.088-1.082-0.302-0.649-0.303-1.212 0.216-1.73 0.347-0.606 0.345-1.342 0.561-1.774 1.123 0.217 0.045 0.173 0.218 0.173 0.346-0.346 0.174-0.822-0.216-1.125 0.174-0.303 0-0.605 0.088-0.779-0.174 0.086-0.216 0.304-0.388 0.477-0.605v-0.173c-1.602-1.99-2.684-4.284-3.895-6.404-1.774-3.635-3.549-7.312-4.457-11.294-0.303-0.908-0.562-1.947-0.477-2.942 0.217-0.087 0.174-0.347 0.39-0.39 0.563 0.519 0.216 1.429 0.563 2.164 1.384 6.274 4.369 11.899 7.572 17.352 0.346 0.347 0.519 0.995 0.951 1.083 0.996-0.953 2.164-1.212 3.375-1.688 0.649 0 1.602-0.13 1.905 0.605 2.509 0.217 5.063-0.259 7.528-0.691 0.087-0.261 0.303 0.043 0.477-0.087 3.201-0.562 6.188-1.559 9.045-2.857 0.908-0.562 1.903-0.821 2.769-1.514-0.086-0.303 0.476-0.303 0.649-0.519 0.389-0.044 0.648-0.52 0.994-0.692l1.775-0.822c0 0.042 0 0.085-0.044 0.129l0.044 0.043c1.645-0.907 3.288-2.119 4.717-3.029 1.125-0.821 2.639-1.515 3.418-2.726 0.995-1.514 2.121-3.203 1.428-5.193 0.26-0.908-0.995-1.298-0.52-2.12-2.552 0.909-4.846 3.03-6.836 4.675-0.348 0-0.52 0.388-0.866 0.26-0.043-0.692 0.649-0.995 1.082-1.515l2.251-1.774v0.043c1.947-1.558 4.369-2.423 6.533-3.591 0.086 0 0.217-0.044 0.26 0.087 0.434-0.823 0.562-1.862 0.562-2.986l-0.129-2.812c-0.346-0.736-1.17-1.386-1.904-1.688 0.129-0.217-0.174-0.562 0.173-0.692 1.125 0.17 2.163 1.339 2.683 2.334z" stroke-linecap="square" stroke-miterlimit="2" stroke-width=".375"/><rect x="405.24" y="115.85" width=".043" height=".043" fill="#fff" stroke-linecap="square" stroke-miterlimit="2" stroke-width=".375"/><rect x="403.68" y="117.92" width=".043" height=".043" fill="#fff" stroke-linecap="square" stroke-miterlimit="2" stroke-width=".375"/><path d="m403.64 118.1c0 0.043-0.044 0.043-0.088 0.086v-0.086h0.088z" fill="#fff" stroke-linecap="square" stroke-miterlimit="2" stroke-width=".375"/><rect x="402.21" y="119.83" width=".043" height=".043" fill="#fff" stroke-linecap="square" stroke-miterlimit="2" stroke-width=".375"/><polygon points="401.52 120.74 401.6 120.56 401.56 120.69" fill="#fff" stroke-linecap="square" stroke-miterlimit="2" stroke-width=".375"/><path d="m401 121.26v0.087l-0.044-0.087h0.044z" fill="#fff" stroke-linecap="square" stroke-miterlimit="2" stroke-width=".375"/><path d="m400.56 121.77-0.346 0.347 0.346-0.347z" fill="#fff" stroke-linecap="square" stroke-miterlimit="2" stroke-width=".375"/><rect x="399.92" y="122.34" width=".043" height=".043" fill="#fff" stroke-linecap="square" stroke-miterlimit="2" stroke-width=".375"/><polygon points="407.1 144.28 407.14 144.19 407.23 144.19" stroke-linecap="square" stroke-miterlimit="2" stroke-width=".375"/><line x1="396.33" x2="382.41" y1="125.51" y2="136.03" fill="none" stroke-width=".8654"/><line x1="406.13" x2="394.11" y1="147.68" y2="161.92" fill="none"/></g><path d="m305.57 61.59v113.39h42.344c3.948-21.688 21.259-41.09 42.697-49.837l7.085-63.549h-92.126z" fill="#fff"/><linearGradient id="g" x1="320.2" x2="329.2" y1="528.47" y2="541.3" gradientTransform="matrix(1 0 0 -1 .1401 689.83)" gradientUnits="userSpaceOnUse"><stop stop-color="#fff" offset="0"/><stop stop-color="#EDEDED" offset="1"/></linearGradient><path d="m335.41 167.76 8.334-23 2.166-4.667s-4.166 1.5-10.5-1c-6.333-2.5-11.166-6.166-11.166-6.166l-17.667 20.166s3.167 16.833 28.833 14.667z" fill="url(#g)"/><path d="m319.92 137.65c0.031-0.031 0.054-0.069 0.081-0.104-0.012 3e-3 -0.023 5e-3 -0.032 5e-3l-0.049 0.099z" stroke="#1A171B" stroke-width=".125"/><path d="m316.42 141.58c1e-3 -2e-3 4e-3 -3e-3 5e-3 -4e-3 0-0.041 0-0.026-5e-3 4e-3z" stroke="#1A171B" stroke-width=".125"/><path d="m389.14 115.44c-0.491-1.621-2.015-3.39-3.685-4.028-2.851-1.573-5.994-0.786-8.894 0.147-1.965 1.326-4.322 1.965-6.633 1.965 0.049-0.098-0.049-0.196 0-0.245-0.933 0.295-1.916 0-2.751-0.196-1.081-0.688-1.77-1.867-1.72-3.096 0.54-5.404 0.688-10.515 1.425-15.821l1.376-1.965c0.295-0.639 0.688-1.425 0.688-2.113-0.197-0.196-0.442-0.049-0.591 0.099 0.099 0.442-0.295 0.786-0.393 1.229-0.393 0.344-0.393 1.522-1.277 1.13-0.688 1.523-0.836 3.292-1.031 5.061-0.295 3.979-0.738 8.353-0.934 12.528-0.491 0-0.295 0.541-0.295 0.836 0.589 0.295 0.099 1.326 0.786 1.326 0.59 1.523 2.358 1.867 3.783 2.063 0.933-0.099 2.113-0.049 3.045-0.245 1.917-0.442 3.883-0.786 5.504-1.866 2.161-0.394 4.274-1.131 6.485-0.394 1.866 0.688 4.226 1.965 4.226 4.323-0.147 0.442 0.393 0.786 0 1.131-0.147 0.49-0.688 0.785-1.179 0.835-5.798 0.245-11.448 1.375-16.46 3.833l-0.147-0.099c-5.552 4.472-11.842 7.321-18.179 9.826l-0.59 0.099c-0.639 0.54-1.425 0.688-2.211 0.982-0.246 0.099-0.688-0.197-0.787 0.246-0.098 0.196 0.099 0.294 0.148 0.491 0.393 0.294 0.835 0.049 1.229 0.049-1.229 1.719-2.507 3.292-3.538 5.109-0.196 0.786-0.737 1.18-1.523 1.327-4.274 0.394-8.009-0.147-11.841-1.523-2.555-1.326-5.306-2.702-7.468-5.061-0.197-0.147-0.442-0.442-0.344-0.639h-0.197c0.541-1.277 1.818-2.113 2.506-3.242 0.59-0.394 0.737-0.886 1.277-1.376 0.64-0.786 1.327-1.72 1.916-2.555-0.294-0.59 0.198-1.277 0.492-1.817 1.719-4.963 3.782-9.828 5.847-14.544 0.393-0.54 0.491-1.376 0.835-2.015 0.934-1.719 1.474-3.635 2.702-5.208 0.246-0.246 0.147-0.59-0.099-0.786 0.737-1.621 1.818-3.242 3.439-4.323 0.295-1.867 2.015-3.243 2.653-5.061 1.917-3.292 3.686-6.633 5.946-9.826 0.294-0.098 0.736 0.098 0.933-0.148 0.295 0.051 0.688-0.097 0.982-0.097 0.296-0.296 0.934 0.147 1.229-0.198 0.737 0.198 1.278-0.294 1.916-0.146l-0.049 0.049c2.063-0.245 4.077-0.147 6.044-0.049l0.49 0.393c1.475-0.441 2.702 0.639 3.931 1.228-0.099 0.197 0.147 0.246 0.246 0.345 1.719 0.146 3.292 1.031 4.962 1.572 0.05 0.197 0.197 0.541 0.05 0.737-0.886 1.326-2.261 1.818-3.489 2.555-0.393 0.147-0.835 0.05-1.179 0.246-0.541-0.296-1.229-0.099-1.719-0.491l0.097-2.112c-0.245-0.688-0.589-1.672-1.523-1.721-0.244 0.099-0.392 0.394-0.294 0.59 1.081 0.737 0.786 2.162 0.639 3.243-0.982 2.506-3.636 3.193-5.749 4.177l-0.099 0.147c-0.146 0.245 0.147 0.294 0.296 0.442-1.031 1.424-2.407 2.849-4.177 3.241-0.54-0.146-1.13 0.099-1.572 0.246-0.393 0.197-1.179 0-1.229 0.541l1.179-0.197c0 0.246 0.197 0.147 0.296 0.344 0.147 0.099 0.54 0 0.54 0.246-1.13 2.014-3.194 4.323-5.504 4.766-0.589 0.196-1.424 0.147-1.965 0.59 0.982 0 1.72-0.295 2.604-0.442l-0.147 0.295c0.344 0.147 0.688-0.147 1.081-0.147 2.063-1.131 4.225-3.194 5.06-5.454 1.081-0.491 2.212-0.934 3.096-1.966 0.441-0.688 1.179-1.229 1.031-2.062 1.573-0.345 3.096-0.885 4.323-1.818h0.05c0.688-0.541 1.326-1.18 1.671-2.015 0.491 0.099 0.982 0.245 1.474 0.295 1.425 0.491 2.899-0.295 4.177-0.982 0 0.245 0.099 0.393 0.295 0.639 1.179 0.49 2.751 0.441 4.028 0.196 1.326-0.54 2.948-1.229 3.096-2.948-0.246-0.295 0.098-0.59-0.05-0.885-0.147-0.098-0.344 0.05-0.441 0.099l-2.604-2.113 0.049-0.442c-1.031-1.13-2.211-2.31-3.488-3.243-0.344-0.196-0.54-0.59-0.884-0.736l-1.229-0.197c-4.618-0.197-9.581 0-14.298 0.59l-1.081 1.081c-0.147 0.245-0.443 0.394-0.393 0.786l-2.261 0.295c-0.441 0.147-0.885 0-1.229 0.393-2.014 2.751-3.636 5.699-5.355 8.599-1.081 2.063-2.26 4.077-3.242 6.142-2.407 1.571-3.587 4.176-4.423 6.682-3.291 7.419-6.828 14.838-9.335 22.649-1.719 2.408-3.635 4.57-5.846 6.683l-0.147 0.491 0.344-0.05c-0.196 0.196-0.344 0.394-0.394 0.59-0.196 0.049-0.344 0.245-0.491 0.441-0.146 0.147-0.098 0.444-0.295 0.688-0.098 0-0.294 0.147-0.294-0.049-0.246 0.147-0.295 0.491-0.442 0.589h-0.147c-0.05 0.246-0.295 0.442-0.295 0.688s-0.345 0.345-0.394 0.147l-0.098 0.393c-0.147-0.049-0.246 0.147-0.344 0.147-0.352 0.264-0.474 0.641-0.705 0.929 0.051-0.011 0.114-0.035 0.114 5e-3l-0.344 0.394c-0.245-0.246-0.245 0.344-0.394 0.245 0.148 0.049 0.05 0.196-0.049 0.246 0-0.05-0.196-0.05-0.147-0.147 0.05 0.098-0.196 0.245-0.295 0.393v-0.049l-0.196 0.295 0.246-0.246c0.146 0.197-0.197 0.197-0.197 0.394-0.197-0.196-0.344 0.147-0.541 0.245-0.049 0.147-0.098 0.295 0 0.394-0.098 0.049-0.098 0.196-0.245 0.147-0.05 0 0.05-0.099 0-0.147l-0.147 0.099v-0.051l-0.147 0.246-0.05-0.049c-0.245 0.147-0.196 0.393-0.393 0.54h0.147c-0.098 0.246-0.295 0.394-0.491 0.491l-0.147-0.196c-0.442 0.589 0.245 0.244-0.245 0.688 0.049 0 0.099 0 0.147 0.049l-0.197 0.197h-0.05c0.03-0.028 0.04-0.104 0.045-0.144-0.05 0.047-0.143 0.095-0.143 0.144 0.05 0.049 0.098 0 0.147 0.049-0.147 0.099-0.197 0.295-0.393 0.295l-0.099-0.196c-0.196 0.098-0.098 0.344-0.344 0.344-0.049 0.197 0.295 0.147 0.099 0.295-0.099 0.05-0.147-0.049-0.246-0.049l0.099 0.195c-0.196 0.051-0.295 0.444-0.541 0.198-0.106 0.021-0.171 0.083-0.22 0.157 0.177 0.31 0.353 0.622 0.525 0.937 3.639-3.515 6.12-6.461 9.423-10.381 0.786 0.688 1.573 1.621 2.457 2.211l0.049-0.049 0.394 0.442c2.654 1.965 5.553 3.438 8.745 4.028 2.752 0.886 5.995 0.738 8.845 0.541-0.934 2.948-2.506 5.698-3.637 8.646-0.589 1.475-1.277 2.998-1.719 4.521-0.569 1.062-0.935 2.271-1.365 3.424 0.248 0.27 0.492 0.543 0.732 0.821 2.088-5.67 4.371-11.255 7.02-16.626 0.345-0.736 0.737-1.522 1.18-2.112 0.146-0.393 0.442-0.836 0.736-1.18 1.13-2.015 2.457-3.685 3.882-5.453 5.11-2.113 10.416-4.128 15.084-7.42l0.245-0.049c1.081-0.884 2.113-1.571 3.146-2.506 1.916-0.982 4.028-1.72 6.19-2.31 1.817-0.54 3.882-0.441 5.749-0.934 1.769-0.344 3.93-0.245 5.601-0.688 1.085-0.691 1.281-2.165 1.085-3.442z" stroke="#1A171B" stroke-width=".125"/><path d="m372.04 79.62c1.18 0.934 2.457 1.818 3.489 3.046-0.099 0.442-0.59-0.196-0.491 0.295-0.246 0-0.098 0.246-0.05 0.295 0.934 1.376 2.113 2.948 3.489 3.734-1.032 1.229-2.752 1.523-4.226 1.327-0.491-0.05-0.933-0.197-1.326-0.442 0.246-0.639 0.835-0.982 1.229-1.572 0.098-0.344 0.393-0.59 0.295-1.032 0-0.442-0.345-0.786-0.786-1.032-1.475-0.59-3.047-1.228-4.57-1.572-0.885-0.638-1.866-1.081-2.85-1.522-0.933-0.394-2.211 0-3.242-0.295-2.162-0.197-4.422-0.099-6.485 0.098 0.59-0.54 0.982-1.229 1.866-1.081 4.569-0.394 9.089-0.787 13.658-0.247z" fill="#fff" stroke="#1A171B" stroke-width=".125"/><path d="m379.07 86.204c-0.05 0.295-0.245 0.491-0.491 0.639-0.147-0.196-0.442-0.049-0.541-0.245-0.049-0.05 0.345 0.049 0.246-0.197-0.147-0.049-0.246-0.295-0.393-0.147l0.049-0.049c-1.08-0.688-1.966-1.72-2.457-2.851 1.278 0.835 2.555 1.769 3.587 2.85z" fill="#fff" stroke="#1A171B" stroke-width=".125"/><path d="m365.02 84.238c-0.393 0.491-1.13 0.541-1.621 0.934l-3.047 1.917c-0.786-0.59-1.277 0.59-1.916 0.785-1.67 0.934-3.438 1.621-5.109 2.555-0.197 0.246-0.688 0.197-0.639 0.639-3.095 2.506-5.699 5.798-9.09 7.91-0.147 0.098-0.394 0.098-0.54 0-0.147-0.147-0.198-0.344-0.099-0.54 3.193-2.063 5.602-4.913 8.304-7.469l0.049-0.344c1.867-1.277 3.931-2.014 5.896-3.046-0.294-0.196-0.884 0.196-1.081-0.196l0.147-0.197c3.243 0 5.503-2.31 8.304-3.439 0.195 0.098 0.638 0.148 0.442 0.491z" stroke="#1A171B" stroke-width=".125"/><path d="m370.72 84.779c0.639 0.344 1.523 0.196 1.966 0.786-1.032 0.098-1.917-0.442-2.899-0.59-0.344-0.295-1.179-0.443-0.885-1.032 0.394-0.196 0.639 0.442 1.032 0.541 0.245 0.295 0.442 0.246 0.786 0.295z" stroke="#1A171B" stroke-width=".125"/><path d="m367.62 89.741c-0.393 0.934-1.375 1.229-2.112 1.867-1.229 0.688-2.457 1.277-3.882 1.475l-0.295-0.051c0.147-0.244 0.688-0.098 1.032-0.244l0.049 0.049c1.621-0.688 3.685-1.474 4.766-2.948 0.049-0.148 0.295-0.443 0.442-0.148z" stroke="#1A171B" stroke-width=".125"/><path d="m360.01 96.276c-0.049 0.197-0.246 0.491-0.098 0.639-0.099 0.147-0.099 0.442-0.148 0.688-1.326 2.899-3.291 5.847-6.043 7.567-0.049-0.442 0.541-0.59 0.836-0.835 0.491-0.787 1.522-1.475 1.916-2.31 1.376-1.622 2.309-3.292 2.997-5.208 0-0.197 0-0.491 0.147-0.64 0.098 0.051 0.295-0.048 0.393 0.099z" stroke="#1A171B" stroke-width=".125"/><path d="m361.82 101.04c-1.475 1.327-3.145 2.556-4.864 3.439 1.522-1.179 3.144-2.506 4.765-3.538l0.099 0.099z" stroke="#1A171B" stroke-width=".125"/><rect x="356.96" y="101.88" width=".049" height=".049" fill="#fff" stroke="#1A171B" stroke-width=".125"/><path d="m353.62 105.27c0 0.049-0.099 0.147-0.197 0.147 0.05-0.099 0.147-0.245 0.197-0.147z" stroke="#1A171B" stroke-width=".125"/><path d="m352.78 105.27c-0.196 0.983-0.54 2.015-0.835 2.998l-0.099-0.148c0.099-0.885 0.688-1.572 0.688-2.555 0.149-0.049 0.149-0.247 0.246-0.295z" stroke="#1A171B" stroke-width=".125"/><path d="m351.65 107.09c-0.345 1.72-0.786 3.291-1.179 4.962l-0.099-0.049c0.147 0.344-0.098 0.835-0.245 1.081 0 0.785-0.295 1.523-0.491 2.309-0.982 4.323-1.867 8.894-3.096 13.315 0.246-0.05 0.688 0.049 0.786-0.295 0.345-0.344-0.147-0.982 0.295-1.277 0.05-0.934 0.393-1.77 0.54-2.702 0.345-1.327 0.442-2.556 0.983-3.784 0-1.572 0.491-3.145 0.737-4.667 0.098-0.147 0.098-0.442 0.147-0.688 0.196-0.738 0.344-1.622 0.638-2.31-0.049-0.589 0.148-0.884 0.246-1.474 0.295-0.934 0.54-2.064 0.786-3.047h0.196c-1.769 6.043-2.653 12.727-3.979 19.163l0.197-0.147c-0.147 0.49-0.541 0.737-0.541 1.325-0.098 0.197-0.245-0.049-0.345-0.097-2.554 2.603-6.043 4.126-9.579 3.487-0.296-0.196-0.64-0.344-0.886-0.59-0.982 0.05-2.211 0.197-2.801-0.687 0-0.147-0.05-0.345 0.147-0.394 0.491 1.031 2.113 0.785 3.047 0.737 1.08-0.05 2.407 0 3.488-0.491 0.245 0.049 0.639-0.099 0.933-0.196 1.18-0.345 2.359-0.688 3.439-1.18l0.442-0.049v0.147c-2.112 0.981-4.47 1.425-6.829 1.915-0.146-0.196-0.245 0.099-0.442 0.099-0.098 0-0.245-0.05-0.295 0.049 0.246 0.246 0.786 0.394 1.131 0.296 2.456 0.196 4.52-0.64 6.485-1.966 0.246 0.049 0.148-0.295 0.394-0.196 0-0.147 0.147-0.295 0-0.442-0.099 0.049-0.147 0.098-0.245 0.098 0.982-1.13 1.03-2.801 1.67-4.177 0-0.344-0.049-0.786 0.147-1.081 0.05-0.785 0.196-1.522 0.491-2.211l0.196-0.098-0.147-0.197c0.491-2.015 0.836-3.979 1.425-5.896 0.05-1.229 0.688-2.359 0.786-3.489 0.295-1.277 0.688-2.555 0.934-3.832 0.344-0.049 0-0.344 0.147-0.491 0.15-0.292 0.051-0.684 0.346-0.783z" stroke="#1A171B" stroke-width=".125"/><rect x="346.54" y="128.9" width=".05" height=".049" fill="#fff" stroke="#1A171B" stroke-width=".125"/><path d="m316.08 141.77 0.885-0.639-0.885 0.639z" fill="#fff" stroke="#1A171B" stroke-width=".125"/><path d="m313.97 144.03c0 0.049 0 0.098-0.05 0.146h-0.098c0.098-0.048 0-0.196 0.148-0.146z" fill="#fff"/><polygon points="246.35 63.014 324.31 63.014 310 176.4 246.35 176.4" fill="#fff"/><linearGradient id="f" x1="267.57" x2="272.4" y1="530.11" y2="543.78" gradientTransform="matrix(1 0 0 -1 .1401 689.83)" gradientUnits="userSpaceOnUse"><stop stop-color="#fff" offset="0"/><stop stop-color="#EDEDED" offset="1"/></linearGradient><path d="m283.19 168.01s3.5-25 4.666-26.167-0.334-0.833-0.334-0.833-3.166-0.167-4.666-0.167-5.5-0.5-9-2.5-6-4-6-4l-17.834 23.333c1e-3 1e-3 21.334 16.167 33.168 10.334z" fill="url(#f)"/><path d="m283.85 158.85c-0.103-0.357 0.205-0.715 0-1.022 0.307-0.408 0.154-1.021 0.358-1.431 0.817-4.753-0.144 1.392 0.571-3.412 0.152-1.176 0.307-2.402 0.562-3.476 0.562-2.709 1.072-5.366 1.789-7.973-0.052-0.153-0.052-0.255-0.205-0.306-0.153-0.102-0.51-0.154-0.767-0.154-3.628 0.409-7.052-0.153-10.425-1.431-0.104-0.153-0.205-0.204-0.358-0.153-0.613-0.205-1.124-0.613-1.789-0.716-0.051-0.255-0.356-0.204-0.562-0.357-1.687-0.92-3.271-1.993-4.754-3.219-0.255 0.357-0.715 0.92-1.073 0.869-0.102 0.153-0.102-0.052-0.204-0.052-0.562 0.716-0.92 1.585-1.533 2.249-1.431 2.095-2.811 4.191-4.292 6.133v0.154c-2.556 3.168-1.652 2.143-4.207 5.464l1.227-3.424c0.255-0.41 0.716-0.818 0.869-1.278h0.05c3.833-4.907 3.9-5.67 7.171-10.831-0.052-0.257 0.307-0.307 0.307-0.562 0.46-0.358 0.612-1.381 1.38-1.074 0.817-1.073 1.328-2.352 1.328-3.731 0.358-3.015 0.92-6.031 1.482-9.097l-0.205-0.102 0.256-0.205 0.357-2.096c-0.255-0.205 0.154-0.102 0.052-0.358 0.052-0.358 0.204-0.715 0.103-1.073 0.204-0.408 0.154-0.817 0.256-1.278-0.206-0.205 0.255-0.357 0.051-0.613 0.408-2.299 0.869-4.549 1.176-6.849 0.357-1.227 0.46-2.401 0.816-3.628 0-0.154 0.103-0.357 0.154-0.562l0.562-2.811c-0.357-0.46-0.153-0.971-0.409-1.431-0.052-1.431 0.153-2.76 0.817-3.986 0.768-1.942 2.965-2.249 4.346-3.628l0.204-0.205-0.052-0.052c1.123-0.357 1.839-1.635 2.861-2.402 4.293-3.628 9.25-6.337 14.208-8.893 0.818 0.052 1.228 0.767 1.942 0.971 0.357 0 0.461 0.562 0.818 0.46 0.102 0.409 0.562-0.052 0.817 0.153 0.972-0.357 2.044-0.153 3.22-0.255 0.562 0.051 0.971 0.358 1.277 0.767 0.512-0.154 0.869 0.409 1.33 0.665 0.816 0.766 1.686 1.482 2.504 2.351 0.102 0.051 0.152 0.204 0.255 0.306 1.431 1.431 2.708 3.066 3.476 4.907 0.562 1.073 1.125 2.197 1.635 3.271h0.104c0 0.562 0.561 1.073 0.459 1.635 0.613 0.256 0.869 0.92 1.227 1.38 0.102 1.329-0.205 2.555-0.307 3.884-0.152 0.511-0.256 1.022-0.562 1.431-0.613-0.767-0.051-1.687-0.152-2.606l0.306-2.403c-0.051-0.51-0.665-0.613-1.021-0.817-0.205 0-0.358 0-0.46 0.153 0.357 0.357 0.715 0.868 0.561 1.533-0.152 0.358-0.203 0.869-0.663 1.073-0.308 0.051-0.716 0.307-0.971 0.154-0.154-0.716 0.562-0.307 0.612-0.92 0.103-0.205 0.256-0.409 0.205-0.562-0.408 0.459-0.868 0.715-1.227 1.175 0 0.307 0.46 0.307 0.358 0.614 0.204 0.153 0.357 0.408 0.357 0.664-0.153 0.767-0.664 1.227-1.073 1.84-0.052 0.307-0.307 0.307-0.408 0.613-0.716 0.767-1.84 0.818-2.76 0.767-0.103 0.613-0.512 1.379-0.103 1.941-0.409 0.665 0 1.278 0.103 1.994 0.203 0.307 0.306 0.665 0.664 0.818-0.102 0.153-0.051 0.459-0.307 0.409-0.409-0.358-1.073-0.614-0.92-1.278-0.205-0.255-0.154-0.664-0.409-0.869-0.614 0.358-1.125 0.869-1.583 1.431-0.818 0.562-1.738 1.482-2.557 2.095-0.256 0-0.613 0.153-0.613-0.153 0.053-0.307 0.256-0.511 0.408-0.716-0.92 0-1.686-0.357-2.452-0.51l-0.103 0.051c0-0.051-0.051-0.102-0.102-0.153h-0.104c0.052 0.869 0.052 1.584 0.308 2.454 0.511 0.357 0.051 0.97 0.511 1.328 0.307 0.665 0.256 1.584 0.613 2.198 0 0.358 0.307 0.767 0 1.073 0.256 0.307 0.461 0.716 0.461 1.124-0.562-0.459-0.359-1.379-0.666-1.839 0-0.92-0.613-1.584-0.664-2.453-0.255-0.614-0.562-1.33-0.613-1.994-0.203-0.409-0.256-0.767-0.256-1.176-0.459-0.408-0.051-1.175-0.767-1.227-0.05-0.306-0.459-0.459-0.255-0.868 0.307-0.103 0-0.358 0-0.512-0.051-0.051-0.051-0.102-0.102-0.102 0.102-0.205-0.256-0.46-0.358-0.767-0.255-1.329-0.971-2.504-1.227-3.885-1.841-0.102-3.833-0.102-5.469-0.766-0.818 1.125-1.841 1.84-2.965 2.76l-1.124 0.203c-0.051-0.46 0.562-0.664 0.818-0.971 0.868-0.869 1.941-1.38 2.555-2.402-0.256-0.153-0.408-0.205-0.408-0.614-0.053 0-0.053-0.051-0.053-0.154 0.205-0.102 0.461-0.205 0.664-0.205 0.615 0.665 1.534 0.665 2.352 0.818 1.789 0.153 3.781 0.307 5.725 0.255l0.205 0.205c-0.359 0.614-0.818 0.46-1.381 0.767 0.053 0.562 0.307 1.073 0.562 1.533-0.052 0.562 0.305 1.022 0.459 1.533 0.154 0.154 0.053 0.562 0.359 0.665 0.203 0.051 0.152 0.409 0.255 0.512 0 0.51 0.255 1.124 0.665 1.43 1.072 0.46 2.146 0.716 3.321 0.92 0.919-0.92 2.146-1.941 3.065-2.862-0.152-0.255 0.206-0.511 0.053-0.818 0.102-0.205 0.154-0.511 0.102-0.665-0.154 0.102-0.408 0.153-0.459 0.358-0.358 0.255-0.92 0.102-1.176 0.459-0.971 0.459-2.555 0.204-3.527-0.357-0.971-0.255-1.687-1.38-2.504-1.942 0.052-0.256-0.409-0.562-0.102-0.665 0.868 0.307 1.532 1.125 2.401 1.585 0.307-0.052 0.664 0.153 0.972 0.357 0.766 0.307 1.686 0.562 2.554 0.255l0.257-0.307c-0.92-0.409-1.584-1.329-2.045-2.249 0.205-0.256-0.307-0.665 0.152-0.665 0.512-0.307 0.563-1.329 1.278-1.227v0.255c-0.356 0.511-0.868 0.919-0.919 1.431 0.306 0.715 0.562 1.585 1.328 1.892 0.256 0.255 0.613 0.255 0.92 0.255 0.562-0.358 0.869-0.767 1.074-1.38-0.307-0.767-1.074-1.533-1.739-2.146-0.051-0.153-0.153-0.306-0.051-0.511 0.153-0.102 0.153-0.153 0.051-0.307-0.919-0.715-1.788-1.84-2.606-2.862-2.555-1.022-5.11-2.044-7.717-2.862-1.021-0.511-2.25-1.176-3.577-0.665-2.351 0.817-4.396 2.197-6.593 3.271-0.869 0.715-1.891 1.073-2.811 1.789-0.461 0.153-0.768 0.409-1.227 0.665-0.461 0.306-0.973 0.562-1.534 0.715 0-0.255-0.255-0.613 0.204-0.767 2.557-1.687 5.213-3.22 7.871-4.65 1.584-0.716 3.066-1.534 4.803-1.892 0.308-0.306 0.818-0.153 1.227-0.05 1.279 0.357 2.506 0.869 3.732 1.175 0.152-0.051 0.102 0.051 0.152 0.153 0.717 0.204 1.432 0.614 2.147 0.716 1.38 0.716 2.81 1.022 4.19 1.738l0.818 1.073c-0.154 0.204 0.102 0.409 0.203 0.613 0.408 0.562 1.125 1.125 1.176 1.891 0.869 0.767 1.533 1.84 2.352 2.606 0 0.307-0.205 0.614 0.103 0.817-0.205-0.051-0.513 0-0.513 0.308l0.308 0.255c0-0.665 0.817-0.409 1.177-0.665 0.51-0.255 0.97-0.613 1.226-1.073 0.409-0.255 0.767-0.665 0.868-1.073-0.613 0.205-0.817 0.715-1.379 0.971-0.154 0.051-0.052 0.153-0.102 0.255-0.309-0.205-0.818 0-1.074-0.358 0-0.357-0.357-0.664-0.461-1.073-0.102-0.716-0.612-1.38-0.459-2.095 0.511-0.562 0.92-0.92 1.533-1.38-0.562-1.124-1.277-2.198-1.891-3.271-0.46 0-0.307-0.46-0.716-0.562v0.051c-2.044-1.38-3.885-2.658-5.929-4.038-1.022-0.614-2.045-1.431-3.117-1.942-0.664-0.562-1.431-0.767-2.198-1.022-1.431 0.46-2.811 0.869-4.14 1.431-3.424 1.687-6.848 3.578-10.17 5.571-0.051 0.102-0.103 0.205-0.205 0.255-0.254-0.103-0.51 0.204-0.664 0.357-0.255 0-0.511 0.358-0.817 0.154-0.153-0.307-0.052-0.614 0.154-0.818-0.512 0.153-0.972 0.562-1.432 0.869-0.716 0.46-1.585 0.919-2.044 1.789-0.256 0.613-0.613 1.074-0.664 1.687 0.307 0.307 0.869-0.152 0.971 0.41-0.613 2.504-1.227 5.162-1.688 7.717-0.306 0.869-0.459 1.789-0.612 2.658 0.153 0.204-0.052 0.153-0.103 0.357-0.408 1.635-0.613 3.271-0.869 4.958 0.152 0.153-0.052 0.205-0.052 0.307-0.716 4.702-1.583 9.148-2.351 13.799 0 0.306-0.152 0.716-0.152 1.073l-0.256 1.788c0.152-0.05 0.357 0.205 0.408 0.308 0.307 0.97-1.022 1.481-0.869 2.555-0.153 0.103-0.205 0.46-0.46 0.358-0.357 0.511-0.46 0.92-0.817 1.431 3.117 2.759 6.746 4.446 10.732 5.365 0.357 0.103 0.768 0.154 1.124 0.204 1.482 0.256 3.067 0.357 4.498 0.511 0.716 0 1.584 0.052 2.402 0.052 0.562-0.613 0.255-1.533 0.614-2.249 0.408-1.379 0.766-2.811 1.227-4.14 0.051-0.101 0.102-0.255 0.152-0.408-0.307 0.104-0.613 0.104-0.971 0.205-0.051-0.205-0.717 0-0.562-0.46 0.461-0.154 0.869-0.511 1.227-0.869 0.256-0.052 0.614-0.307 0.766-0.562h0.154c0.359-0.613 0.664-1.636 1.533-1.533 0.154 0 0.154 0.204 0.103 0.306 1.431-0.766 2.761-1.941 4.038-3.015 0.102-0.051 0.255-0.153 0.408-0.204 2.912-2.555 5.775-4.855 8.178-7.972 0.817-0.665 1.276-1.636 1.941-2.454 0.768-1.125 1.329-2.351 2.248-3.373 0.205 0 0.512-0.153 0.664 0.051v0.103h0.155c1.175-1.073 2.452-2.454 3.679-3.475 1.277-1.176 2.146-2.453 1.891-4.293-0.152-1.021 0.103-1.839-0.152-2.76 0.306-0.614-0.053-1.125 0.204-1.737h0.204c0.203 2.708 1.992 5.825 0.102 8.279-1.021 1.532-2.555 2.453-3.73 3.782-0.869 0.818-1.942 1.431-2.811 2.146l-0.46 0.153c-0.767 1.176-1.482 2.3-2.249 3.424 0 0.154-0.052 0.205-0.154 0.205-3.935 5.008-9.147 9.2-14.309 12.727-0.358 0.152-0.613 0.357-0.717 0.715-0.408 1.482-1.021 3.067-1.482 4.651-0.102 0.204-0.102 0.46-0.102 0.664-0.358 0.46-0.358 1.074-0.715 1.585 0.766 0.767-0.256 1.737-0.205 2.657-0.256 0.358-0.357 0.715-0.408 1.175-0.409 2.096-1.074 4.293-1.329 6.44-0.307 0.511-0.255 1.38-0.511 2.045-0.613 5.672-0.214 0.141-1.031 5.66l-1.169 0.772z"/><path d="m298.52 82.199c1.789 1.022 3.373 2.3 5.06 3.526 0.052 0.255 0.358 0.205 0.511 0.409 1.328 1.074 2.658 2.096 3.986 3.22 0 0.051 0 0.153 0.051 0.153 0.205 0.051 0.562 0.306 0.768 0.51-0.205 0.614 0.51 0.818 0.562 1.38 0.46 0.562 0.767 1.278 1.278 1.891v0.869c-0.408 0.307-0.613 0.715-0.868 1.175-0.154-0.256-0.462-0.511-0.409-0.818-0.562-0.562-0.971-1.277-1.482-1.891 0.153-0.102 0-0.256-0.051-0.358-2.453-2.146-5.366-3.782-7.973-5.673-1.38-0.665-2.606-1.584-4.088-2.096-0.205-0.051-0.563-0.102-0.818-0.051 0 0.46-0.613 0.307-0.92 0.358-0.92 0.459-1.738 0.716-2.709 0.971-0.562 0.307-1.125 0.665-1.789 0.817-0.152 0.205-0.408 0.307-0.613 0.358-2.863 1.687-5.775 3.066-8.535 4.906l-0.103-0.051c0.409-0.408 0.614-0.868 1.176-1.073l2.505-2.095c0.152 0.102 0.254-0.103 0.357-0.103v-0.153c1.789-1.38 3.68-2.658 5.621-3.782 1.022-0.715 2.095-1.227 3.221-1.84 0.256 0.103 0.102-0.205 0.307-0.255 0.92-0.459 1.84-1.073 2.811-1.533 0.815 0.156 1.43 0.769 2.144 1.229z" fill="#fff"/><rect x="299.8" y="81.228" width=".053" height=".052"/><path d="m303.28 82.404c0.41 0.102 0.87 0.205 1.176 0.562 0.768 0.409 1.227 1.021 1.842 1.635 1.736 1.687 3.475 3.782 4.905 5.622 0.46 1.635 1.329 3.118 1.943 4.702-0.358 0.255-0.614 0.255-0.819-0.153-0.254-0.154-0.103-0.562-0.407-0.664 0.05-0.256-0.768-0.46-0.257-0.767-0.203-1.176-1.328-2.044-1.687-3.169-0.204-0.103-0.408-0.409-0.613-0.613-0.153-0.307-0.409-0.614-0.664-0.818-0.256-0.102-0.46-0.409-0.613-0.613-0.972-0.664-1.687-1.636-2.606-2.3 0.051-0.306-0.256 0-0.307-0.205-0.409-0.306-0.717-0.613-1.074-0.817-0.408-0.358-0.919-0.614-1.277-1.022-0.357-0.051-0.46-0.51-0.816-0.562-0.053-0.409-0.41-0.102-0.615-0.409h0.205c-0.051-0.051-0.256-0.102-0.357-0.204v0.102c-0.205-0.307-0.614-0.307-0.869-0.562 0-0.255-0.256 0-0.308-0.255 0.409-0.307 0.972 0.051 1.432-0.204 0.613 0.152 1.634-0.104 1.786 0.714z" fill="#fff"/><path d="m294.28 83.63h0.051-0.051z"/><rect x="280.18" y="91.961" width="0" height=".051" fill="#fff"/><path d="m312.02 96.152c0.256 0.051 0.052 0.409 0.357 0.409 0.768 0.716-0.51 0.971-0.766 1.38-0.205-0.103-0.41-0.256-0.512-0.46 0.051-0.358-0.46-0.459-0.357-0.868l-0.357-0.307c0.102-0.103 0.152-0.204 0.102-0.307-0.102-0.102-0.256-0.204-0.408-0.153l-0.154-0.46c0 0.153 0.154 0.153 0.256 0.153 0.205-0.357 0.511-0.766 0.869-1.022 0.254 0.459 0.714 1.072 0.97 1.635z" fill="#fff"/><path d="m311.15 99.423c-0.46 0.511-1.124 0.869-1.738 1.175-0.663-0.255-0.562-1.022-1.021-1.431 0-0.665-0.256-1.482 0.409-1.993 0.306-0.103 0.511-0.511 0.817-0.46l1.533 2.709z" fill="#fff"/><path d="m290.45 103.66c0.053 1.789-0.664 3.322-1.379 4.855l-0.409 0.972c0 0.613-0.051 1.277 0.103 1.891l0.154-0.205c-0.104-0.103 0.102-0.153 0.102-0.205-0.102-0.357 0.256-0.511 0.307-0.818 0.102-0.511 0.154-0.971 0.408-1.431 0.46-1.175 0.665-2.555 1.432-3.628-0.104-0.715 0.664-1.329 0.051-1.994 0.102-0.306 0.46-0.051 0.613 0.051 0.306 0.562-0.153 1.176-0.256 1.738-0.664 1.687-1.328 3.476-1.992 5.162-0.307 0.767-0.461 1.533-0.818 2.299 0 0.818 0 1.636 0.154 2.454-0.104 0.971 0.153 2.146-0.104 3.066-0.051 0.102 0.051 0.256 0.153 0.204 0.154 0.46-0.204 0.92 0 1.379v1.022c-0.05 0.461-0.05 1.073 0 1.38-0.103 0.715-0.05 1.789 0 2.503-0.255 0.41-0.05 1.073-0.306 1.432-0.051 1.38-0.256 2.812-1.278 3.781-0.255 0.614-0.817 1.176-1.175 1.738-1.074 1.073-2.045 2.862-3.833 2.555-0.358 0-0.614-0.358-0.87-0.614 0-0.306-0.255-0.459-0.307-0.765-0.204-0.052-0.562-0.104-0.664-0.41 0.052-0.102-0.153-0.255 0.052-0.357 0.511 0.306 1.124 0.409 1.636 0.103 2.043-0.409 3.73-1.994 5.109-3.476l0.205-0.103c0.153 0.409-0.408 0.511-0.408 0.768-0.664 0.716-1.329 1.481-2.146 1.941-0.205 0.409-0.562 0.562-0.92 0.716-0.665 0.511-1.533 0.766-2.301 0.819-0.051 0.459 0.461 0.612 0.768 0.868 0.459 0 0.817-0.052 1.176-0.306l0.051 0.051c1.379-0.971 2.3-2.3 3.322-3.526 0.408-0.767 1.277-1.584 1.123-2.606 0.104-1.073 0.308-2.044 0.308-3.066 0.052-0.971 0.103-1.993 0.103-2.964l0.102-0.103c-0.204-0.051-0.052-0.307-0.052-0.408 0.052-0.205-0.051-0.409-0.051-0.665-0.153-0.307 0.153-0.613 0-0.97 0.307-0.205-0.307-0.562 0.051-0.767-0.255-0.869-0.051-2.044-0.204-3.016 0-1.431-0.307-2.914-0.357-4.395-0.409 0.409-0.409 0.869-0.818 1.277h-0.204c-0.204-0.408 0.358-0.562 0.306-0.919 0.357-0.511 0.717-1.175 0.666-1.839 0.051-0.103 0.051-0.255 0.152-0.308 0.409 0.205 0.359-0.307 0.562-0.408 0-0.613 0.562-1.073 0.613-1.686 0.205-0.103 0.153-0.307 0.205-0.46 0.153-0.715 0.408-1.278 0.408-2.044 0.102-0.511-0.51-0.818-0.357-1.226 0.406-0.205 0.662 0.357 0.814 0.663z"/><rect x="299.75" y="105.4" width=".051" height=".051"/><rect x="286.87" y="141.59" width=".051" height=".051"/><polygon points="286.82 141.69 286.87 141.69 286.87 141.69"/><polygon points="181.85 62.573 259.8 62.573 252 175.96 181.85 175.96" fill="#fff"/><path d="m212.17 87.434c0.115-0.049 0.254-0.062 0.421-0.025 3.034 0.286 5.995 0.861 8.364 2.728 5.627 0.719 10.66 2.729 15.471 5.242 0.74-0.431 1.186 0.646 1.852 0.646 1.109 0.719 1.925 1.651 3.183 1.651 0.37 0.288 0.073 1.222 0.296 1.58 1.555 4.093 4.146 7.755 6.736 11.346 0.297 2.368 2.443 4.45 3.629 6.677 0.443 1.149 1.924 1.579 2.219 2.657 0.371 0.071 0.594 0.216 0.666 0.573-0.592 1.005-1.553 1.867-2.59 2.369-0.74 0.646-1.701 0.574-2.592 0.791 0.074 0.86 0.369 1.723-0.592 2.226-1.406 0.574-2.666 1.508-3.998 2.082l-4.959 2.584c1.035 1.365 1.035 3.232 1.11 5.099 2.221 2.299 2.221 4.883 3.405 7.754 0.221 0.504-0.148 1.725 0.592 1.868 2.146 2.083 2.666 5.386 1.631 8.185-0.668 1.581-0.965 3.304-2.297 4.38-0.887 0.216-1.702-0.214-2.221-0.573l-1.185-1.796c-1.109 0.287-1.479 1.796-2.812 1.078l-2.591-3.52c-0.963 0.073-1.777 1.437-2.664 0.216-5.479-8.399-11.104-16.658-14.51-25.992-3.48-5.458-6.07-11.489-9.771-17.019-2.295 0.287-6.033-3.646-8.4-2.711-0.186-0.126-0.261-0.274-0.256-0.426"/><path d="m201.94 87.431-1.632 19.673c0.015-0.454 0.735-0.938 1.292-0.938 1.331-0.072 4.551 1.851 5.661 2.425 0-0.503 0.445-0.718 0.815-0.934 1.627 0.502 2.516 2.298 3.404 3.591 1.037 1.652 1.777 3.59 3.109 5.098l0.074 0.575c2.442 3.806 3.775 8.112 6.588 11.63-0.296 1.51 0.74 2.228 1.111 3.376 2.146-0.503 2.961 2.297 4.219 3.374 2.072 4.239 3.701 8.905 7.477 12.207 1.627 2.8 3.404 5.313 5.107 7.97 0.518-0.357 0.963-0.646 1.406-1.076-2.22-4.165-4.886-8.114-8.29-11.848-1.407 0.072-1.407-1.652-2.073-2.512-1.775-3.806-3.701-7.396-6.811-10.485 0.594-0.502 1.186 0.144 1.629 0.432 4.293 3.877 5.182 9.62 9.55 13.211 2.073 2.657 4.071 5.17 5.774 8.043 0.74-0.072 1.852-0.503 2.592 0.287s1.701 1.795 2.221 2.801c0.59-1.15 0.961-2.729 1.035-4.237-0.221-1.796-0.889-3.877-2.812-4.523 0.592-1.293-0.297-2.441-0.666-3.877-0.371-1.365-0.963-2.872-1.777-4.236-0.148 0.287-0.593 0.215-0.814 0.071-0.37-1.724 0.148-4.164-0.74-5.673-2.664-0.503-4.441 3.446-7.255 2.442l-2.664-0.36c-0.962-1.005-1.999-2.368-2.22-3.375-1.852-3.59-1.556-8.113-5.775-10.626-0.073-0.503-0.813-1.437-0.666-2.298 0.74-0.144 0.37 1.077 0.814 1.579-0.37 1.509 1.629 1.006 2.221 2.227 0.518-0.287 1.333 0.071 1.406 0.646 1.48 3.733 2.592 7.539 4.886 10.914l3.331 0.215c4.59-3.375 9.92-5.673 14.879-8.257 0.52-1.221-1.111-1.867-0.889-3.016 1.037-0.288 2.074 0.933 3.037 0.287-1.408-0.79-2.666-2.227-3.777-3.447 0.518-1.22 1.703-2.153 2.961-2.44-0.666-1.939-2.738-3.662-2.738-5.96-3.035-3.447-5.33-7.253-6.662-11.561-1.481-0.647-2.887-1.364-3.998-2.369-5.033-1.795-9.697-4.236-15.027-5.098-0.592 0.502-1.184-0.145-1.776-0.145-0.593-1.363-2.294-1.363-3.479-2.01l-4.367-0.79c0.056-0.378 0.195-0.835 0.543-0.979l-10.234-4e-3z" fill="#fff" stroke="#fff" stroke-width=".25"/><path d="m223.03 133.22c3.108 3.16 4.368 7.324 6.144 10.987-0.369-0.432-0.739-0.934-0.813-1.294-2.592-2.869-3.555-6.318-5.331-9.693z" fill="#fff"/><path d="m229.25 144.35 0.666 0.862-0.666-0.862z" fill="#fff"/><path d="m230.14 145.57c2.146 1.435 3.553 4.165 4.959 6.462l-0.518 0.218c-1.849-2.013-2.739-4.598-4.441-6.68z" fill="#fff"/><path d="m234.06 105.93c0.814 2.297 2.518 4.38 3.627 6.462 1.406 1.723 2.072 4.237 4.146 5.313 0.962 1.076 1.702 2.584 3.183 2.8l1.48 0.646-0.146 0.216c-1.26-0.216-2.518 0.143-3.776 0.143-1.48 0.504-1.851 3.806-3.554 2.227-0.593-0.43-1.48-0.359-2.295-0.217-0.518 0.647-0.146 1.509-1.184 1.796-0.74-0.934-0.074-2.729-0.518-3.877 0-0.718-0.666-1.724-0.666-2.011 0-0.431-0.89-0.574-0.52-1.076 0.52-0.503 1.186 0.216 1.406-0.432 0.148-1.938 0.297-3.805-0.74-5.385-0.295 0.216-0.443-0.072-0.592-0.359-0.148-0.718 1.555-0.933 1.036-1.795-0.888-1.364-1.999-2.943-1.776-4.451h0.889z"/><path d="m235.61 111.96c2.22 2.227 3.035 5.602 5.774 7.324l0.814 1.005c-1.036 0.503-1.63 1.58-2.518 2.37-1.11-0.287-1.998-0.646-3.257-0.359 0.296-1.437-1.333-2.873 0-3.949 0.594-2.154 0.151-4.667-0.813-6.391z" fill="#fff"/><path d="m242.5 152.03c1.036 0.79 1.999 1.938 2.442 3.159-0.443 0.504-0.221 2.083-1.332 1.365-0.814-1.508-2.368-2.874-2.812-4.596 0.517-0.358 1.183-0.288 1.702 0.072z" fill="#fff"/><path d="m250.12 116.78c0.814 1.22 1.629 2.729 3.109 3.446-0.295 0.646-1.035 1.149-1.701 1.436-1.703-0.646-2.889-1.938-3.701-3.518 0.369-0.933 1.48-0.933 2.293-1.364z" fill="#fff"/><path d="m213.76 87.519s-6.68 5.835-11.677 20.271" fill="none" stroke="#000" stroke-width="1.1104"/><path d="m200.23 83.083c0.925 0 13.223 4.636 13.223 4.636" fill="none" stroke="#000" stroke-width="1.1104"/><line x1="201.98" x2="189.45" y1="107.34" y2="103.88" fill="none" stroke="#000" stroke-width="1.1104"/><linearGradient id="e" x1="187.61" x2="203.61" y1="598.99" y2="593.49" gradientTransform="matrix(1 0 0 -1 .1401 689.83)" gradientUnits="userSpaceOnUse"><stop stop-color="#fff" offset="0"/><stop stop-color="#EDEDED" offset="1"/></linearGradient><path d="m212.6 88.01-25-9.562-5.75 22.688 18.875 5.25 1.125 0.438s0.938-2.75 2.562-6.312 6.626-11.564 8.188-12.502z" fill="url(#e)" stroke="#fff" stroke-width=".25"/><path d="m157.51 59.853h-45.338v117.92h84.327v-60.265c-9.499-21.292-23.581-40.036-38.989-57.657z" fill="#fff"/><path d="m134.22 104.44c-0.203-1.305 1.588-2.062 2.451-3.126 3.301-2.439 6.529-5.955 11.122-5.955 2.656-0.071 5.382 0.072 7.821 0.144 7.318 2.439 14.351 5.884 21.597 8.037 1.793 1.22 2.654 3.371 3.374 5.236l0.501 0.288c2.513 4.233 5.166 7.678 7.177 12.125l0.788 0.933c0 0.359 0.431 0.791 0.504 1.222 1.434 3.371 3.299 6.529 4.732 9.973 0.146 1.795 0.433 4.09-1.434 5.238-0.573 0.287-1.004 0.86-1.649 0.86 0.142 1.006 0.861 2.87-0.071 3.803v0.358c-1.436 0.79-2.082 2.87-4.235 2.081-1.507-0.358-3.014-1.147-4.091-2.368-0.069 0.431-0.717 0.79-0.572 1.221-1.148 1.004-3.159 1.794-4.809 0.933-0.644-0.432-1.864-0.791-1.936-1.65-2.227-2.082-3.805-4.592-6.173-6.888-2.223 0.43-3.443 5.381-6.098 2.942-1.077-1.795-2.225-3.446-1.723-5.67-2.511-0.215-4.378-2.08-5.237-4.305l-0.288-0.934-4.018-3.874c-3.301 0.287-5.74-1.292-8.108-3.229-3.803 4.378-6.458 9.328-8.538 14.422-0.216 0.072-0.501 0.502-0.79 0.358l-0.431-0.358"/><path d="m133.97 136.26c1.722-5.383 4.93-10.404 8.805-14.709-1.076-1.078-2.943-1.867-3.085-3.732-0.073-0.646 0.431-1.075 0.861-1.363 0.788 0.358-0.073 1.292 0.717 1.794 0.359 0 0.359-0.718 0.859-0.573 2.082 3.228 5.168 5.954 8.97 6.313-0.071-0.503-1.075-1.65 0.145-2.009 1.938 2.512 4.593 5.095 6.816 7.176-1.147 0.718 0.287 1.506 0.502 2.08 1.076 1.507 3.086 1.937 4.879 1.794 1.004 0.143 0.933-1.005 1.723-1.436-0.359-0.86-0.79-1.649-1.363-2.438-0.286 0.071-0.431 0.574-0.79 0.358l0.287-1.292c-1.29-2.584-2.798-5.237-3.517-8.179 0.145-0.216 0-0.719 0.431-0.79 0.933-0.144 0.575 1.507 1.221 1.938 1.723 4.664 4.162 9.184 7.175 13.346l0.359 0.071 8.18 9.329c0.429 0.285 0.859 0.357 1.292 0.574-0.433-0.79-0.359-2.297-1.437-2.655-0.286-0.503 0.145-1.077 0.502-1.507 0.719-0.646 1.578-1.077 2.513-1.292-0.145-0.645-0.719-1.507-1.292-2.008-1.578-2.942-3.731-5.812-4.808-8.898-3.086-3.947-4.735-7.964-6.027-12.628-0.215-0.789 0.645-0.43 0.861-0.861 0.646 0.503 0.429 1.65 0.861 2.368 1.219 3.874 3.154 7.678 5.597 10.835 1.436 4.233 4.59 7.893 6.457 11.983 1.006 0.859 0.861 2.797 2.225 2.87 0.717 0.717 1.578 1.362 2.51 1.649-0.572-1.506-1.578-3.085-1.649-4.735 0.718-1.075 1.938-1.793 2.727-2.438h0.502c-0.143 1.146 1.005 0.573 1.291 1.435 0.216-0.215 0.431-0.288 0.36-0.646-1.148-0.504-1.221-1.938-1.938-2.87-3.156-4.879-4.881-9.544-7.749-14.566-1.58-2.225-2.87-4.521-4.448-6.745 0.431-1.075-1.147-3.013 0.357-3.156 1.149 0.646 0.359 2.511 1.292 3.587 5.381 6.242 7.392 14.494 11.982 21.239 1.076 0.646 0.646 3.086 2.297 2.726 0.718-0.646 2.584-1.506 1.578-2.726-0.431-0.934-1.147-1.722-1.793-2.583-1.006 0-1.651 0.717-2.441 1.147-0.287-0.503 0.503-0.646 0.717-1.005l1.796-0.646c0.861 0.934 1.938 1.938 2.224 3.229l0.357-0.288c-1.505-3.802-3.585-7.316-5.31-11.122-0.788 0 0.073-0.717-0.429-0.932-2.37-4.232-4.52-8.61-7.533-12.771-0.216 0-0.504 0.287-0.646 0.144-0.575-2.439-1.866-4.951-4.162-6.457-7.318-1.866-13.849-5.597-21.167-7.534-3.659 0-7.605-0.574-11.051 0.861-2.87 1.937-6.026 4.377-8.537 7.031l-0.719 0.216c-0.041-0.11-0.272-0.216-0.29-0.319l-0.047 31.816z" fill="#fff"/><path d="m155.62 111.94c1.147 0.287 2.153 0.933 2.87 1.865l-0.071 0.072c-0.934-0.718-2.011-1.292-2.799-1.937z"/><path d="m163.58 134.11c0.215-1.005 1.434-1.075 2.224-1.65l2.511 3.301c-1.507 0.646-2.726 2.153-3.875 3.516-0.931-1.147-2.223-3.013-1.723-5.021l0.863-0.146z" fill="#fff"/><path d="m179.8 139.49c0.79 0.789 1.578 1.29 1.938 2.367-0.502 0.933-0.717 2.224-1.938 2.655-0.791 0.214-1.148-0.861-1.363-1.437-0.216-0.86-1.006-1.865-0.357-2.584l1.72-1.001z" fill="#fff" stroke="#000" stroke-width=".2513"/><path d="m187.91 137.77c0.071 0.646 1.076 1.22 1.505 1.723 0.145 0.933 1.147 1.793 0.717 2.582-0.384 0.568-0.213 1.076-0.858 1.507-0.431 0.574-1.292 0.717-2.01 0.502-1.076-1.005-1.507-2.512-2.152-3.873 0.43-1.078 1.651-2.083 2.798-2.441z" fill="#fff" stroke="#000" stroke-width=".1256"/><path d="m134.31 104.76s-10.386 16.341 5.787 20.727" fill="none" stroke="#000" stroke-width=".7175"/><line x1="119.31" x2="134.44" y1="115.47" y2="103.27" fill="none" stroke="#000" stroke-linecap="round" stroke-width=".9328"/><linearGradient id="d" x1="120.47" x2="122.74" y1="555.32" y2="556.39" gradientTransform="matrix(1 0 0 -1 .1401 689.83)" gradientUnits="userSpaceOnUse"><stop stop-color="#fff" offset="0"/><stop stop-color="#EDEDED" offset="1"/></linearGradient><path d="m130.98 146.69-18.027-25.653 18.027 25.653z" fill="url(#d)"/><linearGradient id="c" x1="124.72" x2="135.35" y1="559.43" y2="564.45" gradientTransform="matrix(1 0 0 -1 .1401 689.83)" gradientUnits="userSpaceOnUse"><stop stop-color="#fff" offset="0"/><stop stop-color="#EDEDED" offset="1"/></linearGradient><path d="m114.06 120.04 20.085-15.86s-3.055 5.59-3.25 8.646c-0.194 3.055-0.324 5.915 1.235 8.06 1.56 2.146 5.265 4.42 7.215 4.811 0 0-7.843 11.722-8.276 22.122s-17.009-27.779-17.009-27.779z" fill="url(#c)"/><rect x="49.016" y="55.393" width="72.484" height="113.38" fill="#fff"/><linearGradient id="b" x1="70.233" x2="75.067" y1="537.73" y2="551.4" gradientTransform="matrix(1 0 0 -1 .1401 689.83)" gradientUnits="userSpaceOnUse"><stop stop-color="#fff" offset="0"/><stop stop-color="#EDEDED" offset="1"/></linearGradient><path d="m85.85 160.39s3.5-25 4.666-26.167c1.167-1.166-0.333-0.833-0.333-0.833s-3.167-0.167-4.667-0.167-5.5-0.5-9-2.5-6-4-6-4l-17.833 23.335s21.333 16.165 33.167 10.332z" fill="url(#b)"/><path d="m86.509 151.23c-0.103-0.357 0.204-0.716 0-1.022 0.307-0.408 0.153-1.021 0.358-1.431 0.816-4.753-0.145 1.392 0.571-3.412 0.152-1.176 0.306-2.402 0.562-3.476 0.562-2.709 1.073-5.366 1.789-7.973-0.051-0.153-0.051-0.255-0.205-0.307-0.152-0.102-0.51-0.153-0.766-0.153-3.629 0.408-7.053-0.153-10.426-1.432-0.103-0.152-0.205-0.203-0.357-0.152-0.613-0.205-1.125-0.613-1.789-0.717-0.051-0.255-0.357-0.203-0.562-0.357-1.687-0.92-3.272-1.992-4.754-3.219-0.255 0.357-0.716 0.92-1.073 0.868-0.102 0.153-0.102-0.052-0.205-0.052-0.562 0.716-0.92 1.585-1.532 2.249-1.431 2.096-2.812 4.191-4.292 6.133v0.154c-2.557 3.168-1.652 2.143-4.207 5.464l1.227-3.424c0.255-0.41 0.715-0.817 0.869-1.277h0.049c3.834-4.907 3.9-5.67 7.172-10.831-0.053-0.257 0.307-0.307 0.307-0.562 0.459-0.358 0.611-1.381 1.379-1.073 0.818-1.073 1.329-2.352 1.329-3.731 0.358-3.015 0.919-6.031 1.481-9.097l-0.204-0.102 0.255-0.205 0.357-2.096c-0.254-0.205 0.154-0.102 0.053-0.357 0.051-0.358 0.204-0.716 0.102-1.073 0.205-0.408 0.154-0.817 0.256-1.278-0.205-0.204 0.256-0.357 0.051-0.613 0.409-2.299 0.869-4.549 1.176-6.849 0.357-1.227 0.461-2.401 0.817-3.628 0-0.154 0.103-0.357 0.154-0.562l0.562-2.811c-0.358-0.46-0.153-0.972-0.409-1.432-0.053-1.431 0.153-2.76 0.817-3.985 0.767-1.942 2.964-2.249 4.345-3.629l0.205-0.204-0.053-0.052c1.124-0.357 1.84-1.635 2.862-2.402 4.292-3.628 9.25-6.337 14.208-8.893 0.818 0.052 1.227 0.767 1.941 0.971 0.358 0 0.461 0.562 0.818 0.46 0.103 0.409 0.562-0.052 0.818 0.153 0.971-0.357 2.044-0.153 3.219-0.256 0.562 0.051 0.971 0.358 1.278 0.767 0.511-0.153 0.868 0.409 1.329 0.665 0.817 0.767 1.686 1.482 2.504 2.351 0.102 0.051 0.153 0.204 0.256 0.307 1.431 1.431 2.708 3.066 3.475 4.906 0.562 1.073 1.125 2.197 1.636 3.271h0.103c0 0.562 0.561 1.072 0.459 1.635 0.614 0.256 0.869 0.92 1.227 1.381 0.102 1.328-0.204 2.555-0.307 3.884-0.152 0.511-0.256 1.022-0.562 1.432-0.613-0.768-0.051-1.688-0.152-2.606l0.307-2.403c-0.051-0.51-0.666-0.612-1.021-0.816-0.205 0-0.359 0-0.461 0.153 0.357 0.356 0.715 0.868 0.562 1.532-0.153 0.358-0.204 0.869-0.663 1.073-0.308 0.052-0.717 0.307-0.971 0.154-0.154-0.717 0.562-0.308 0.612-0.92 0.103-0.205 0.255-0.409 0.204-0.562-0.408 0.459-0.867 0.715-1.227 1.175 0 0.308 0.461 0.308 0.359 0.614 0.203 0.152 0.357 0.408 0.357 0.663-0.154 0.768-0.664 1.228-1.073 1.841-0.052 0.307-0.308 0.307-0.409 0.613-0.715 0.767-1.84 0.817-2.76 0.767-0.102 0.613-0.511 1.38-0.102 1.941-0.409 0.665 0 1.278 0.102 1.994 0.204 0.307 0.307 0.664 0.664 0.817-0.102 0.153-0.051 0.46-0.306 0.409-0.409-0.358-1.073-0.614-0.921-1.278-0.204-0.256-0.153-0.664-0.408-0.869-0.614 0.358-1.125 0.869-1.584 1.432-0.818 0.562-1.738 1.482-2.556 2.095-0.256 0-0.613 0.153-0.613-0.152 0.052-0.307 0.255-0.512 0.408-0.717-0.92 0-1.687-0.356-2.452-0.51l-0.103 0.051c0-0.051-0.052-0.103-0.103-0.153h-0.103c0.052 0.869 0.052 1.584 0.308 2.454 0.51 0.356 0.051 0.97 0.51 1.327 0.307 0.665 0.256 1.585 0.614 2.198 0 0.358 0.306 0.767 0 1.073 0.255 0.307 0.46 0.716 0.46 1.124-0.562-0.459-0.358-1.38-0.665-1.84 0-0.92-0.613-1.584-0.664-2.452-0.255-0.614-0.562-1.33-0.614-1.994-0.203-0.408-0.256-0.767-0.256-1.176-0.459-0.408-0.051-1.175-0.766-1.227-0.051-0.306-0.459-0.459-0.256-0.867 0.307-0.103 0-0.358 0-0.512-0.051-0.052-0.051-0.103-0.102-0.103 0.102-0.205-0.256-0.46-0.357-0.767-0.256-1.328-0.971-2.504-1.227-3.885-1.841-0.102-3.834-0.102-5.469-0.766-0.818 1.124-1.841 1.84-2.965 2.76l-1.125 0.203c-0.051-0.46 0.562-0.664 0.818-0.971 0.869-0.869 1.941-1.38 2.556-2.401-0.257-0.153-0.409-0.205-0.409-0.614-0.053 0-0.053-0.051-0.053-0.153 0.205-0.102 0.462-0.205 0.665-0.205 0.614 0.665 1.534 0.665 2.352 0.818 1.788 0.153 3.781 0.307 5.724 0.255l0.205 0.205c-0.359 0.613-0.818 0.46-1.381 0.767 0.053 0.562 0.307 1.072 0.562 1.533-0.051 0.562 0.306 1.022 0.459 1.533 0.154 0.153 0.053 0.562 0.359 0.664 0.204 0.052 0.153 0.409 0.256 0.512 0 0.511 0.255 1.124 0.664 1.43 1.072 0.461 2.146 0.716 3.322 0.92 0.919-0.92 2.146-1.941 3.065-2.861-0.153-0.256 0.206-0.511 0.052-0.818 0.102-0.204 0.154-0.511 0.102-0.664-0.153 0.102-0.408 0.153-0.459 0.357-0.357 0.256-0.92 0.103-1.176 0.46-0.971 0.459-2.555 0.204-3.527-0.357-0.971-0.256-1.686-1.38-2.504-1.942 0.053-0.256-0.408-0.562-0.102-0.665 0.869 0.308 1.533 1.125 2.402 1.585 0.307-0.052 0.664 0.153 0.971 0.357 0.767 0.307 1.687 0.562 2.555 0.256l0.256-0.307c-0.92-0.409-1.584-1.329-2.044-2.249 0.204-0.256-0.308-0.664 0.152-0.664 0.511-0.307 0.563-1.329 1.278-1.227v0.255c-0.357 0.512-0.868 0.92-0.92 1.432 0.307 0.715 0.562 1.585 1.328 1.892 0.256 0.255 0.613 0.255 0.921 0.255 0.562-0.357 0.868-0.767 1.073-1.38-0.307-0.767-1.073-1.533-1.738-2.146-0.051-0.153-0.154-0.307-0.051-0.511 0.152-0.103 0.152-0.153 0.051-0.307-0.92-0.716-1.789-1.84-2.607-2.862-2.555-1.021-5.109-2.044-7.717-2.861-1.021-0.511-2.249-1.176-3.576-0.665-2.352 0.817-4.396 2.197-6.594 3.271-0.869 0.715-1.891 1.073-2.811 1.789-0.461 0.153-0.768 0.408-1.227 0.664-0.46 0.307-0.972 0.562-1.533 0.716 0-0.255-0.256-0.613 0.204-0.767 2.556-1.687 5.213-3.22 7.87-4.65 1.585-0.716 3.067-1.534 4.803-1.892 0.309-0.307 0.819-0.153 1.228-0.051 1.278 0.357 2.505 0.869 3.731 1.176 0.152-0.052 0.102 0.051 0.152 0.152 0.717 0.204 1.432 0.614 2.148 0.716 1.379 0.716 2.81 1.022 4.189 1.738l0.818 1.073c-0.153 0.204 0.102 0.408 0.204 0.613 0.408 0.562 1.125 1.124 1.176 1.891 0.868 0.767 1.532 1.84 2.351 2.606 0 0.307-0.204 0.613 0.104 0.817-0.205-0.051-0.513 0-0.513 0.308l0.308 0.255c0-0.665 0.817-0.409 1.176-0.665 0.51-0.255 0.971-0.613 1.227-1.073 0.408-0.255 0.766-0.664 0.867-1.073-0.613 0.205-0.816 0.716-1.379 0.971-0.154 0.051-0.051 0.153-0.102 0.256-0.308-0.205-0.818 0-1.074-0.358 0-0.357-0.357-0.664-0.46-1.073-0.103-0.716-0.612-1.38-0.46-2.095 0.512-0.562 0.921-0.92 1.533-1.38-0.562-1.124-1.277-2.198-1.891-3.271-0.459 0-0.307-0.46-0.715-0.562v0.052c-2.045-1.381-3.885-2.658-5.93-4.038-1.021-0.613-2.044-1.431-3.117-1.942-0.663-0.562-1.43-0.767-2.197-1.022-1.431 0.461-2.811 0.869-4.14 1.432-3.425 1.687-6.849 3.577-10.171 5.571-0.051 0.102-0.102 0.204-0.204 0.255-0.255-0.103-0.511 0.204-0.664 0.357-0.255 0-0.511 0.357-0.817 0.153-0.153-0.307-0.052-0.613 0.154-0.817-0.512 0.153-0.973 0.562-1.432 0.868-0.717 0.46-1.585 0.92-2.045 1.789-0.256 0.613-0.613 1.073-0.664 1.687 0.307 0.307 0.869-0.152 0.971 0.409-0.613 2.504-1.227 5.162-1.687 7.717-0.306 0.869-0.459 1.789-0.612 2.658 0.153 0.204-0.053 0.153-0.104 0.357-0.408 1.635-0.613 3.271-0.868 4.957 0.152 0.153-0.052 0.205-0.052 0.307-0.716 4.702-1.584 9.148-2.352 13.799 0 0.307-0.152 0.716-0.152 1.073l-0.256 1.788c0.153-0.051 0.357 0.205 0.408 0.308 0.307 0.97-1.021 1.481-0.868 2.555-0.153 0.103-0.205 0.46-0.46 0.358-0.357 0.511-0.461 0.92-0.818 1.431 3.117 2.76 6.746 4.446 10.732 5.365 0.358 0.103 0.768 0.154 1.125 0.204 1.482 0.257 3.066 0.357 4.498 0.511 0.715 0 1.584 0.052 2.402 0.052 0.562-0.613 0.255-1.532 0.613-2.249 0.408-1.379 0.766-2.811 1.227-4.14 0.051-0.101 0.102-0.255 0.152-0.408-0.306 0.104-0.613 0.104-0.971 0.205-0.051-0.205-0.716 0-0.562-0.46 0.46-0.154 0.868-0.511 1.227-0.869 0.255-0.052 0.614-0.307 0.766-0.562h0.154c0.358-0.613 0.664-1.636 1.533-1.532 0.153 0 0.153 0.204 0.103 0.306 1.431-0.766 2.76-1.941 4.037-3.015 0.102-0.052 0.256-0.153 0.409-0.204 2.911-2.555 5.774-4.855 8.177-7.973 0.818-0.665 1.277-1.636 1.941-2.453 0.768-1.125 1.33-2.352 2.249-3.373 0.204 0 0.511-0.153 0.664 0.051v0.103h0.155c1.174-1.073 2.452-2.454 3.678-3.476 1.277-1.176 2.146-2.453 1.892-4.293-0.153-1.021 0.103-1.84-0.153-2.76 0.307-0.614-0.052-1.125 0.205-1.737h0.203c0.204 2.708 1.993 5.825 0.102 8.279-1.021 1.532-2.555 2.453-3.729 3.781-0.87 0.818-1.942 1.432-2.812 2.146l-0.459 0.153c-0.768 1.176-1.482 2.3-2.25 3.425 0 0.153-0.051 0.204-0.153 0.204-3.935 5.009-9.147 9.2-14.31 12.727-0.357 0.152-0.613 0.357-0.717 0.715-0.407 1.482-1.021 3.067-1.481 4.651-0.103 0.204-0.103 0.46-0.103 0.664-0.357 0.46-0.357 1.073-0.715 1.585 0.767 0.767-0.256 1.737-0.205 2.656-0.255 0.358-0.357 0.716-0.408 1.176-0.408 2.096-1.073 4.293-1.328 6.439-0.307 0.512-0.256 1.381-0.512 2.046-0.613 5.672-0.213 0.141-1.031 5.66l-1.168 0.766z"/><path d="m101.19 74.577c1.789 1.022 3.373 2.3 5.061 3.526 0.051 0.256 0.357 0.205 0.51 0.409 1.329 1.073 2.658 2.096 3.987 3.22 0 0.051 0 0.153 0.051 0.153 0.204 0.051 0.562 0.307 0.767 0.511-0.204 0.613 0.511 0.817 0.562 1.38 0.46 0.562 0.767 1.278 1.277 1.891v0.869c-0.408 0.307-0.613 0.716-0.867 1.176-0.154-0.256-0.462-0.511-0.41-0.818-0.562-0.562-0.971-1.277-1.481-1.891 0.153-0.102 0-0.256-0.052-0.357-2.453-2.146-5.365-3.782-7.973-5.673-1.379-0.665-2.605-1.585-4.088-2.096-0.205-0.051-0.562-0.102-0.818-0.051 0 0.46-0.613 0.307-0.92 0.357-0.92 0.46-1.738 0.717-2.709 0.972-0.562 0.307-1.125 0.664-1.789 0.817-0.152 0.204-0.408 0.307-0.613 0.357-2.862 1.687-5.775 3.066-8.534 4.906l-0.103-0.052c0.409-0.408 0.613-0.868 1.176-1.073l2.504-2.095c0.152 0.102 0.255-0.103 0.357-0.103v-0.153c1.789-1.38 3.68-2.657 5.622-3.781 1.022-0.716 2.095-1.228 3.22-1.841 0.256 0.103 0.102-0.204 0.307-0.255 0.92-0.46 1.84-1.073 2.811-1.533 0.816 0.155 1.43 0.768 2.145 1.228z" fill="#fff"/><rect x="102.46" y="73.606" width=".053" height=".052"/><path d="m105.94 74.782c0.409 0.102 0.87 0.205 1.176 0.562 0.767 0.408 1.227 1.021 1.841 1.635 1.737 1.687 3.475 3.782 4.906 5.622 0.459 1.636 1.328 3.118 1.943 4.702-0.359 0.255-0.615 0.255-0.82-0.153-0.254-0.154-0.102-0.562-0.406-0.664 0.05-0.257-0.768-0.461-0.258-0.768-0.203-1.176-1.327-2.044-1.686-3.169-0.205-0.103-0.408-0.409-0.613-0.613-0.153-0.307-0.41-0.613-0.664-0.817-0.256-0.103-0.46-0.409-0.613-0.613-0.972-0.664-1.688-1.636-2.607-2.301 0.051-0.306-0.256 0-0.307-0.204-0.408-0.307-0.716-0.613-1.073-0.817-0.408-0.357-0.919-0.613-1.278-1.022-0.357-0.051-0.459-0.51-0.816-0.562-0.053-0.409-0.41-0.102-0.615-0.409h0.205c-0.051-0.051-0.256-0.102-0.357-0.203v0.102c-0.205-0.307-0.613-0.307-0.869-0.562 0-0.255-0.256 0-0.307-0.255 0.408-0.307 0.971 0.051 1.432-0.204 0.612 0.151 1.633-0.104 1.786 0.713z" fill="#fff"/><path d="m96.943 76.009h0.052-0.052z"/><rect x="82.839" y="84.339" width="0" height=".051" fill="#fff"/><path d="m114.68 88.53c0.255 0.051 0.052 0.408 0.357 0.408 0.767 0.716-0.511 0.972-0.767 1.381-0.205-0.103-0.409-0.256-0.511-0.461 0.051-0.357-0.46-0.459-0.358-0.868l-0.357-0.307c0.102-0.103 0.153-0.204 0.102-0.308-0.102-0.102-0.255-0.203-0.408-0.152l-0.153-0.46c0 0.152 0.153 0.152 0.255 0.152 0.205-0.357 0.512-0.766 0.869-1.021 0.255 0.46 0.715 1.074 0.971 1.636z" fill="#fff"/><path d="m113.81 91.801c-0.459 0.511-1.123 0.869-1.738 1.175-0.662-0.255-0.561-1.022-1.021-1.431 0-0.664-0.256-1.482 0.41-1.993 0.306-0.103 0.511-0.511 0.816-0.46l1.533 2.709z" fill="#fff"/><path d="m93.109 96.042c0.053 1.789-0.663 3.322-1.378 4.855l-0.409 0.972c0 0.613-0.051 1.277 0.102 1.891l0.154-0.205c-0.103-0.103 0.102-0.153 0.102-0.204-0.102-0.357 0.256-0.512 0.307-0.818 0.102-0.511 0.154-0.971 0.409-1.431 0.46-1.176 0.665-2.556 1.431-3.628-0.103-0.716 0.664-1.329 0.051-1.994 0.103-0.306 0.461-0.051 0.613 0.052 0.307 0.562-0.152 1.176-0.255 1.737-0.664 1.688-1.328 3.477-1.993 5.162-0.307 0.767-0.46 1.533-0.818 2.3 0 0.818 0 1.636 0.154 2.453-0.103 0.972 0.154 2.146-0.103 3.066-0.052 0.102 0.051 0.256 0.153 0.204 0.154 0.46-0.205 0.92 0 1.38v1.022c-0.051 0.461-0.051 1.073 0 1.38-0.103 0.716-0.051 1.789 0 2.504-0.256 0.409-0.051 1.073-0.307 1.432-0.051 1.38-0.256 2.812-1.277 3.781-0.256 0.614-0.818 1.176-1.176 1.738-1.073 1.072-2.044 2.861-3.832 2.555-0.358 0-0.615-0.358-0.87-0.614 0-0.306-0.255-0.459-0.308-0.765-0.203-0.053-0.562-0.104-0.664-0.41 0.053-0.103-0.152-0.255 0.053-0.357 0.51 0.306 1.123 0.408 1.635 0.103 2.044-0.409 3.73-1.994 5.11-3.476l0.204-0.103c0.154 0.408-0.408 0.511-0.408 0.768-0.664 0.716-1.328 1.481-2.146 1.941-0.204 0.409-0.562 0.562-0.92 0.716-0.664 0.511-1.533 0.766-2.301 0.818-0.051 0.459 0.461 0.612 0.768 0.868 0.459 0 0.818-0.052 1.176-0.307l0.051 0.051c1.38-0.971 2.301-2.3 3.322-3.526 0.408-0.767 1.278-1.584 1.124-2.606 0.103-1.072 0.308-2.044 0.308-3.065 0.051-0.971 0.102-1.993 0.102-2.964l0.102-0.104c-0.203-0.051-0.051-0.307-0.051-0.408 0.051-0.204-0.051-0.409-0.051-0.665-0.154-0.307 0.152-0.612 0-0.97 0.307-0.205-0.307-0.562 0.051-0.767-0.256-0.869-0.051-2.045-0.205-3.016 0-1.432-0.306-2.914-0.357-4.396-0.408 0.409-0.408 0.869-0.817 1.277h-0.204c-0.204-0.408 0.357-0.562 0.306-0.919 0.357-0.512 0.716-1.176 0.665-1.84 0.051-0.103 0.051-0.255 0.152-0.308 0.41 0.205 0.359-0.307 0.562-0.408 0-0.613 0.562-1.073 0.613-1.686 0.205-0.103 0.154-0.308 0.205-0.461 0.154-0.715 0.408-1.278 0.408-2.044 0.103-0.512-0.51-0.818-0.357-1.227 0.407-0.202 0.662 0.36 0.814 0.666z"/><rect x="102.41" y="97.78" width=".051" height=".051"/><rect x="89.534" y="133.96" width=".05" height=".052"/><polygon points="89.482 134.06 89.535 134.06 89.535 134.06"/><rect x="4.31" y="55.318" width="59.5" height="113.39" fill="#fff"/><path d="m9.725 144.67c-0.623 0-1.091-0.213-1.247-0.758 0.546-0.623 1.481-0.935 2.182-1.637 0.936-1.324 8.621-9.294 8.153-11.398-0.077-8.959-1.714-17.763-4.207-26.333l0.623-0.856 0.545-4.129c-0.155-0.078-0.155-0.312-0.155-0.545 1.792-1.48 3.662-2.884 5.609-3.974 3.506-8.415 3.351-18.075 4.129-27.425v-3.583c1.637-0.935 3.896-0.546 5.532 0.389 2.493 2.649 1.479 5.999 1.558 9.193 3.116 3.271 0.624 7.869 1.948 11.764 0.545-1.869 1.401-4.206 3.583-5.142 1.947 0.078 5.298-0.468 6.155 1.948l0.39 1.402c4.207-1.325 8.803-2.337 12.777-4.597 1.323 0.233 2.804 0.312 3.583 1.402 0.625 1.636 0.472 2.487-0.151 3.968-0.278 2.062-1.94 2.998-2.562 4.011-1.671 1.281-3.675 2.618-6.246 2.618-1.792 1.791-3.973 2.96-6.076 4.362 0.468 4.051-1.091 7.558 1.247 10.984 0 1.87 0.311 4.285 1.558 5.766 1.013 2.414 0.779 5.53 0.311 8.024 0.234 0.467 0.156 0.701 0.156 1.168-0.935 0.156-0.545 1.168-1.09 1.637-2.338 4.985-4.762 9.892-8.734 13.788-0.136-0.027-0.289-0.036-0.44-0.059"/><path d="m30.19 152.74c-0.281-0.042 8.114-16.208 8.014-16.564 2.883-3.428 5.307-7.399 7.254-11.373-1.247-1.246-2.961 1.013-4.207-0.779-1.948-1.012-0.623-5.609-3.818-3.895 0.156 0.856 0.391 1.869 1.091 2.259 1.637 2.57 3.351 5.298 2.884 8.414-0.078 0.156-0.312 0.156-0.468 0-0.857-2.96-1.792-5.688-3.817-8.181-2.182 0.156 0.233-3.35-2.182-3.428-0.156-0.155-0.156-0.545-0.078-0.779 1.637 0.312 3.428 0.624 4.908-0.312 0.623-0.232 1.091 0.391 1.402 0.779-0.856 1.092 0 2.415 0.312 3.428 0.39 0.857 1.325 1.402 2.26 1.013 0.467-0.778 0.234-1.714 0.546-2.727 0.468-1.714 0.935-3.506 1.791-5.142-1.636-2.104-2.727-4.751-5.375-6.077 0.156-1.636-2.26-0.623-3.039-0.936-3.35 0.156-6.934 1.87-9.895 0.233-0.232-0.311-0.232-0.699-0.389-1.011 1.246-0.234 2.26 0.778 3.507 0.545 3.739-0.156 8.024-2.26 11.452 0-0.469 1.012 1.245 1.402 1.636 2.025 1.324 1.793 2.571 3.506 3.739 5.221 0.233-0.78 0-1.948-0.312-2.805-1.247-0.39-0.546-2.026-1.403-2.961-0.856-2.883-1.947-5.688-4.829-7.323-2.805-2.26-7.558-1.17-10.985-0.546-1.48 0.312-3.507 1.402-4.907-0.078-0.859 0.078-1.792 0.234-2.339-0.077-0.467-0.857 0.623-1.092 1.247-1.169 1.092 0.234 1.87 0 2.649 0.779 3.037-0.701 5.921-1.169 8.959-1.402 1.558-1.092 3.272-2.104 4.753-3.271 0.233-0.391-0.857-1.169 0-1.403 1.091 0.233 1.869 0.077 2.649-0.546 0.233 0.391 0.545 0 0.856 0 0.546-0.39 0.856-1.636 1.636-1.013 2.726-1.558 4.986-3.739 7.479-5.453 0.39-0.234 0.936 0.078 0.936 0.39v0.078c2.337-0.779 5.142-2.571 5.298-5.454-1.092 0.468-2.415 1.013-3.428 1.869-0.936-0.155-1.559-1.402-1.87-2.415v-0.233c-0.779-0.233-1.48 1.169-2.415 0.233-2.493 0.78-4.985 1.792-7.4 2.571-0.079 0.155 0.078 0.39-0.156 0.546-2.026-0.234-3.974 1.09-6.076 1.401-1.17 0.702-2.884 1.091-3.429 2.415-0.779 0.234-1.635 0-2.492 0.624-1.87 1.402-4.753 2.882-6.623 4.362-0.311-0.077-0.779-0.077-0.856-0.623v-0.312c2.727-2.181 5.376-3.817 8.337-5.298 0.233-0.935 0.078-2.259-0.156-3.35-1.559-0.39 0.078-1.714-0.546-2.727 0.702-2.727 0.857-6.544-1.559-8.492 0-0.234-0.233-0.39-0.155-0.701l0.546-0.312c-0.078-2.728 1.013-6.545-2.026-7.946-0.7-0.312-1.87-0.469-2.571 0 0.234 2.57 0.234 5.219-0.311 7.791-0.39 4.051 0.467 8.647-0.78 12.621-0.233 2.805-1.324 5.609-1.947 8.414 0 0.312-0.468 0.468-0.312 0.935 0.234 0.156 0.624 0 0.78 0.233-0.079 1.169-1.792 1.013-2.26 2.104-0.39-0.155-0.624-0.155-1.013 0.078-1.247 1.403-3.194 1.559-3.662 3.74l-0.391 5.141c1.948 8.959 4.129 18.075 3.506 27.034-1.714 1.715-8.542 10.365-10.412 11.767l20.462 8.071z" fill="#fff"/><path d="m20.838 115.22c1.48 0.545 0.701 2.493 1.48 3.506 1.091 1.714 2.337 4.051 4.441 4.596 0.233 0.155 2.67 1.589 3.137 1.433-0.155 0.546-3.604-0.575-3.994-0.652-2.883-1.559-5.843-5.064-5.531-8.648l0.467-0.235z" stroke="#fff" stroke-width=".5518"/><path d="m29.097 124.64c0.078-0.156 0.233-0.077 0.39-0.077 0.155 0.545-0.468 0.622-0.779 0.935-0.936 0-0.078-1.013-0.936-1.247 0.39 0.545 1.091-0.311 1.325 0.389z"/><path d="m38.057 82.028c1.245 0.545 2.726-1.169 4.05-0.078 0.78 0.39 0.78 1.324 0.702 2.182-2.337 1.246-4.285 1.013-6.545 2.493-0.468-0.856 0.234-2.104 0.468-3.039 0.701-0.389 0.546-1.247 1.325-1.558z" fill="#fff"/><path d="m44.21 96.286 0.079 6.934c-1.637-1.324-3.117-2.961-5.609-3.272 1.947-0.78 3.272-3.117 5.53-3.662z" fill="#fff"/><path d="m46.548 121.92c-0.078 0.701-0.546 1.247-0.857 1.87-0.233-0.546 0-1.169 0-1.87h0.857z" fill="#fff"/><path d="m46.783 117.71 1.012-1.871c-0.546 1.637 1.168 4.52-1.168 4.675h-0.546c0.156-1.09 0.389-1.714 0.702-2.804z" fill="#fff"/><path d="m57.767 80.392c0.701 0.155 1.714 0.077 1.869 1.09-0.467 1.637-2.492 2.026-3.895 2.806-0.546-0.546-1.246-1.637-0.935-2.493l2.961-1.403z" fill="#fff"/><line x1="38.32" x2="27.492" y1="136.79" y2="158.17" fill="none" stroke="#000" stroke-width="1.1686"/><path d="m16.845 135.97s4.676 6.427 17.141 7.985" fill="none" stroke="#000" stroke-width="1.1686"/><path d="m26.526 64.81s0.917 0.039 1.403 0.978c0.486 0.938-0.52 4.415-0.52 4.415h-1.604" fill="none" stroke="#000" stroke-width=".5843"/><linearGradient id="a" x1="14.453" x2="21.578" y1="533.2" y2="544.2" gradientTransform="matrix(1 0 0 -1 .1401 689.83)" gradientUnits="userSpaceOnUse"><stop stop-color="#fff" offset="0"/><stop stop-color="#EDEDED" offset="1"/></linearGradient><path d="m23.491 164.82 6.375-12.875 3.75-7.375s-8.5-1.875-9.75-2.625-7.125-5-7.125-5l-2.75 2.875-10 11.25 19.5 13.75z" fill="url(#a)"/></svg>
