<?xml version="1.0" encoding="UTF-8"?>
<svg width="383.7px" height="226.8px" enable-background="new 0 0 383.7 226.8" version="1.1" viewBox="0 0 383.7 226.8" xmlns="http://www.w3.org/2000/svg"><rect width="383.7px" height="226.8px" fill="#fff"/><g stroke="#000" stroke-linecap="square" stroke-miterlimit="2"><path d="m45.3 86.4c1.1 2.1 1.9 4 2.3 6.2 0.4 0.9 0.3 2 0.6 2.9-0.1 1.6 0.1 3.4-0.8 4.7-1.2 2.9-2.5 5.8-3.4 9-0.3 0.1-0.8 0.1-0.8-0.4 0.1-1.2 0.7-2.4 1.1-3.6 0.8-2 1.6-4.1 2.6-6 0.5-4.3-0.5-8.3-2.5-12.1-0.9-1.1-2.4-2-3.9-1.6-1.4 0.6-1.1 2.4-1.2 3.5l0.2 0.9s-0.1 0.4 0.1 0.6c-0.1 1.1-0.7 2.2-0.9 3.2-0.2 0.3 0 0.6-0.3 0.8 0.1 0.2-0.1 0.4-0.1 0.6h-0.1c-0.3 0.5-0.4 1-0.6 1.4 0.2 0.1 0 0.4 0 0.6-0.2 0.2-0.3 0.4-0.4 0.6l0.1 0.1c0 0.3-0.5 0.4-0.2 0.6 0 0.2-0.3 0.1-0.1 0.3-0.1 0.1-0.3-0.1-0.1 0.2-0.2 0.3-0.4 0.3-0.3 0.6l-0.1 0.2 0.1 0.1c-0.1 0-0.1 0-0.1 0.1 0.1 0 0 0.1 0.1 0.1l-0.4 0.4 0.1 0.1c-0.3 0.3-0.3 0.6-0.6 0.9v0.1l-0.1 0.1c0.2 0.3-0.3 0.5-0.2 0.8 0 0 0.1-0.1 0.1-0.3-0.4 0.4-0.5 0.9-0.8 1.5 0.2 0.1 0.2-0.3 0.3-0.4 0.1 0.2-0.2 0.4 0 0.4-0.2 0.2-0.1 0.8-0.5 0.8l-0.2 0.2c0 0.1 0-0.4-0.2 0-0.1 0 0.1 0.2 0.1 0.2h0.1c0.1 0 0-0.1-0.1 0 0 0.1 0.1 0.2 0 0.3l-0.1-0.1c-0.1 0 0 0.2-0.2 0.2 0.1 0 0-0.1 0-0.2-0.1 0.2-0.5 0.5-0.3 0.8-0.2 0.6-0.4 1-0.7 1.5-0.6 1-1.8 4.2-2.9 4.8-0.1 0-0.4-0.1-0.3-0.3 2.1-3.6 4.7-9.4 6.2-13.1 1-2 2.1-5.1 2.8-7.1-0.2-2.3-0.3-3.3 0-5 0.1-1.5 1.3-1.9 2.4-2.2 1.4 0.1 3.1 0.7 4.2 2z" stroke-width=".2984"/><path d="m93.2 103c1.1 2 0.8 4.9-0.6 6.6-0.3 0.4-0.8 0.6-1 0.8-0.6-0.1-1.1 0.4-1.7 0.2-0.5 0.5-1.1 0-1.6 0.3-6.4 0.5-13.4 1.3-19.7 3l-1.9 0.4c0.1 0.4-0.3 0.5-0.5 0.6-4.4 0.6-8.3 2.5-12.5 3.6-0.7 0.4-1.4 0.5-2.2 0.8-1.5 0.4-2.9 1.1-4.5 1.4-0.2 0-0.4-0.2-0.4-0.4 0.3-0.4 0.9-0.6 1.3-0.8 3.4-1.3 7-2.3 10.4-3.5-0.3-0.1-0.5 0.1-0.7 0.1l4.8-1.5c0.3-0.5 1-0.3 1.3-0.7 0-2.4-0.5-4.3-1.1-6.7-0.3-0.3-0.2-0.7-0.5-1 0-0.1 0-0.3-0.2-0.3-0.6 0.9-0.4 2.1-0.2 3 0.1 0.7 0.1 1.5 0.5 2.1-0.1 0.5 0.2 0.7 0.3 1.1 0.2 0.4 0.4 0.9 0.8 1.1v0.2c-0.3 0-0.5-0.4-0.6-0.5 0.2-0.3-0.2-0.1-0.2-0.3-0.7-1.7-1.1-3.5-1.2-5.4v-0.9c-0.1 0.2-0.1 0.5-0.3 0.5-0.1-0.5 0.2-0.8 0.3-1.3 0.2-0.1 0.1 0.2 0.2 0.3 0.2-0.2 0.4-0.3 0.7-0.3 0.6 1.1 0.8 2.4 1.1 3.7 0.4 1.5 0.4 3.1 0.7 4.7 7.3-1.8 14.8-3.3 22.4-4 0.1-0.1 0-0.3 0.1-0.4-0.2-0.2-0.7-0.3-0.6-0.7 0.1-0.2 0.3-0.2 0.4-0.3-0.3-1.6-0.6-3.1-1.1-4.6 0.2-0.6 0.8-0.8 1.3-1.1l-0.4 0.2c1.4-0.3 2.7-1.1 4.2-0.9v0.1c-1.7 0.1-3.1 0.5-4.5 1.4 0.2 1.1 0.6 2.2 0.7 3.3 0.1 0.6 0.3 1.2 0.3 1.9 0.9 0.7 2.1 0.5 3.1 0.5 0.2 0 0.4-0.2 0.6 0 0.5-0.2 1-0.5 1.3-0.9 0.2-2-0.5-4.1-1.4-5.8 0.1-0.2 0.1-0.3 0.2-0.3 0.7 0.4 0.3 1.2 0.8 1.8 0.3 1.2 0.6 2.5 0.6 3.8 0.7-0.7 0.7-1.8 0.8-2.7-0.2-1.1-0.5-2.2-1.5-2.9-0.3-0.3-0.8-0.4-1.1-0.3-0.8-0.6-1.7-0.3-2.6-0.6-0.3 0.3-0.5-0.2-0.7 0-0.9 0-1.8 0.2-2.6 0.4l-0.1-0.1c-8.5 0.9-17.6 1.7-25.9 3.7-0.3 0.3-0.6 0-0.9 0.2-1.2 0.3-2.5 0.6-3.8 0.8-0.2 0.4-0.4 0.1-0.7 0.3-5.2 1.3-10.5 2.7-15.8 4.1-0.8 0-1.8 0.5-2.6 0.1 0.1-0.4 0.7-0.4 1-0.5 12.9-3.4 25.7-7.1 39.3-8.5 3.8-0.6 7.5-0.8 11.4-1.3 0.9 0.4 1.8-0.4 2.7 0.1 1.7 0.1 3.4 0.6 4.3 2.3z" stroke-width=".2984"/><path d="m79.1 105.8c0.3 1.1 0.3 2.3 0.8 3.5 0 0 0 0.1-0.1 0.1-0.2-0.2-0.2-0.5-0.4-0.8-0.1-0.7-0.2-1.5-0.4-2.2 0.1-0.9-0.5-1.8-0.1-2.7-0.1 0.7 0.2 1.4 0.2 2.1z" stroke-width=".4475"/><path d="m32.9 105.2c-0.1-0.2 0-0.4 0.1-0.5 0 0.1 0.1 0.4-0.1 0.5z" fill="#fff" stroke-width=".4475"/><path d="m32.8 105.1c-0.2 0.2 0 0.3-0.2 0.5-0.1-0.2 0.1-0.4 0.2-0.5z" fill="#fff" stroke-width=".4475"/><path d="m29.8 112.9c-0.5 0.5-0.9 1-1.3 1.6-3.4 5.1-5.9 10.6-9.6 15.5-2.4 3-14.3 11.5-17.5 13.7-0.2-0.1-0.3 0.1-0.5 0.2l0.1-0.2-0.1-0.1c0.4-0.4 0.9-0.8 1.2-1.2 0.2 0.1 0.3-0.4 0.5-0.5l-0.4 0.4 0.5-0.6c0.1-0.4 0.2 0 0.4-0.4 0-0.1 0.9-0.4 0.9-0.5 0.6-0.8 9.8-6.3 10.5-6.9 0 0.1-0.1 0.1-0.1 0.1 0 0.1 0.1 0.1 0.1 0.1 0.3-0.2-0.2-0.3 0.1-0.4l0.1 0.1c0.1-0.1 0.3-0.1 0.2-0.2l-4.2 2.8 5.4-4.6-0.1 0.6c0.1-0.1 0.1-0.1 0.1-0.2-0.3-0.2 0.1-0.5 0.3-0.7 0.2 0.1 0.2-0.1 0.3-0.2l0.4-0.5-0.3 0.6c0.3 0 0.2-0.4 0.4-0.5-0.2-0.5 0.5-0.8 0.6-1.2 0.1 0.1 0.2 0.1 0.2 0.1v-0.1c0.1 0 0.1 0.1 0.2 0.1 0.1-0.1 0.1-0.2 0.1-0.3h-0.1c0-0.2 0.1-0.2 0.1-0.3h0.2l-0.2 0.2 0.1 0.1 0.2-0.3c-0.4-0.4 0.4-0.6 0.5-1 0.1-0.1 0.2-0.3 0.3-0.3v0.2c0.1-0.1 0.1-0.2 0.2-0.2-0.2-0.2 0-0.4 0.1-0.6 0.1-0.1 0.2-0.1 0.2-0.1l-0.1 0.2 0.3-0.3c-0.3 0 0-0.4 0.1-0.6l0.1-0.2c0.1 0.1 0.1 0.2 0.2 0.2 0.1-0.4 0.2-0.9 0.7-1.2-0.2-0.2 0.1-0.3 0.1-0.4 0.4 0.2 0.4-0.4 0.6-0.5l-0.1-0.1c-0.1 0.1-0.2 0.3-0.3 0.3 0.1-0.3 0.2-0.4 0.4-0.6l0.3-0.1c-0.2-0.3 0.2-0.5 0.3-0.8h0.1c0.1 0.2-0.2 0.3-0.2 0.4l0.1 0.1c0.2-0.1 0.2-0.3 0.3-0.5l-0.2-0.1 0.2-0.1c-0.2-0.3 0.2-0.4 0.2-0.5 0.7-1.1 1.2-2.2 1.9-3.3l0.1 0.1c1.2-2.4 2.4-5 4.6-7 0.2-0.1 0.4-0.2 0.6-0.1v0.8z" stroke-width=".4475"/><path d="m68.6 117.9c0.6 2.1 0.7 4.3 0.1 6.5-0.3 0.6-0.7 1.6-1.5 1.5-1 0.5-2 1-2.9 1.5-0.9 0.2-1.4 0.7-2.4 1-1.1 0.6-2.5 1-3.5 1.9v0.1c-0.6 0.6-1 1.3-1.7 1.9-0.3 0.1-0.4-0.2-0.5-0.4 0.1-0.9 1-1.4 1.3-2.3 3.1-2 6.6-3.1 9.8-4.8 0.9-0.8 0.5-2.3 0.7-3.4-0.1-1.3-0.2-2.6-0.7-3.7-0.7-1-2-1.2-2.8-1.9-0.1-0.3 0.1-0.4 0.2-0.6 1.5 0.5 3.2 1.1 3.9 2.7z" stroke-width=".4475"/><rect x="24.2" y="120.3" width=".1" height=".1" fill="#fff" stroke-width=".4475"/><rect x="20.3" y="126.8" width=".1" height=".1" fill="#fff" stroke-width=".4475"/><path d="m69.9 129.5c-0.6-1.2-1.9-2.6-3.2-2.8-0.4 0.2-0.1 0.6-0.2 0.8 0.9 0.4 1.9 1.1 2.3 2l0.2 3.4c0 1.3-0.2 2.6-0.7 3.6-0.1-0.2-0.2-0.1-0.3-0.1-2.6 1.4-5.5 2.4-7.8 4.3v-0.1l-2.7 2.1c-0.5 0.6-1.3 1-1.3 1.8 0.4 0.2 0.6-0.3 1-0.3 2.4-2 5.1-4.5 8.2-5.6-0.6 1 0.9 1.4 0.6 2.5 0.8 2.4-0.5 4.4-1.7 6.2-0.9 1.4-2.7 2.3-4.1 3.3-1.7 1.1-3.7 2.5-5.6 3.6l-0.1-0.1c0.1-0.1 0.1-0.1 0.1-0.2l-2.1 1c-0.4 0.2-0.7 0.8-1.2 0.8-0.2 0.3-0.9 0.3-0.8 0.6-1 0.8-2.2 1.1-3.3 1.8-3.4 1.5-7 2.7-10.8 3.4-0.2 0.2-0.5-0.2-0.6 0.1-2.9 0.5-6 1.1-9 0.8-0.4-0.9-1.5-0.7-2.3-0.7-1 0.4-11.6 6.7-12.5 7.2-1.9 1.6-1.3 1.7 0.7 1 0.3-0.1 10.2-6.3 10.5-6.5 0.6-0.2 1.3-0.8 2.1-0.4 0.3 0.5 0.9 0.1 1.3 0.4 3.5 0.4 7.1-0.2 10.5-0.9 1.7-0.4 3.4-0.7 5-1.1 0.2-0.4 0.4 0.2 0.6-0.3 2.9-0.8 5.8-2.3 8.5-3.9 1.3-1.6 3-1.4 4.5-2.6 0.7-0.4 1.4-1 2.2-1.3 0.9-0.7 1.9-1.3 2.8-2l0.4-0.1c0.3-0.5 0.8-0.6 1.1-0.8 0.7-0.2 1.1-0.9 1.8-1.1v-0.2c1.7-2 3.2-4.1 3-6.8-0.4-1.4-0.3-3.3-1.8-3.8 0.9-0.6 1.9-1.1 2.6-1.8 0.1 0.1 0 0.2 0.1 0.3 0.3 0.1 0.4-0.3 0.7-0.3 0.2-0.2 0.5-0.4 0.4-0.6 1.5-1.8 0.9-4.4 0.9-6.6z" stroke-width=".2984"/><rect x="19.7" y="127.8" width=".1" height=".1" fill="#fff" stroke-width=".4475"/><rect x="17.8" y="130.3" width=".1" height=".1" fill="#fff" stroke-width=".4475"/><path d="m17.8 130.5c0 0.1-0.1 0.1-0.1 0.1v-0.1h0.1z" fill="#fff" stroke-width=".4475"/><rect x="16.1" y="132.5" width=".1" height=".1" fill="#fff" stroke-width=".4475"/><polygon points="15.3 133.6 15.4 133.4" fill="#fff" stroke-width=".4475"/><path d="m14.6 134.2v0.1-0.1z" fill="#fff" stroke-width=".4475"/></g><g stroke="#1D1719"><g stroke-width=".65"><path d="m146.7 74.9z"/><path d="m153.3 59.3c0-0.5-0.5-1-0.2-1.6-1.3-1.5-2.7-3-4.9-3.7-1.5-0.2-3.3-0.3-4.5 0.9-0.6 1-1.2 2-1.8 2.9 0.1 0.4-0.2 0.5-0.4 0.8-0.7 1.4-1.2 3.2-2.1 4.4v0.3c-1.8 3.6-3.1 7.7-4.6 11.6-1.1 2.2-1.6 4.8-2.7 7.1-0.6 2.2-1.5 4.1-2.2 6.4-0.3 0.9-0.9 2.5-1.1 3.4-0.3 0.6-0.6 1.3-0.8 2-0.4 2.5-1.3 4.5-1.8 6.9-1.3 1.7-1.3 3.6-2.4 5.3 0.2 0.8-1.5 1.7-0.3 2.3 1.2-0.9 1.4-2.6 2.1-3.9 0.4-1.2 1-2.4 1.1-3.5 3.8-11.5 7.9-23.9 12.4-34.9 1.6-3.1 2.8-6.7 5-9.5 0.2 0.9 0 2-0.3 3-0.1 0.8-0.3 1.6 0 2.4l-0.2 0.3c0.3 0.2 0.8 0.1 0.9 0.4 0.9-0.4 2.1 0.3 3 0.6 0.6 0.4 1.6 0.6 2.1 1.1l-0.3 0.4c0.2 0.3 0.3-0.2 0.6-0.1 0.1 0.1 0 0.3 0.2 0.1l0.1-0.1c-0.2-0.1-0.2-0.3-0.1-0.4 0.1-0.4 0.6-0.8 0.9-1 0.6-1 1.1-1.9 1.4-3 0.1-0.2 0.3-0.4 0.3-0.6-0.1 0.2 0.1 0.4 0.2 0.5-1 1.1-1.3 2.9-2.3 4-0.9 2.8-2.1 5.2-2.9 8.3-0.2-0.1-0.2 0.3-0.3 0.4l-0.1 0.2v-0.1c0 0.3 0 0.5-0.2 0.6 0.2 0.1-0.1 0.4-0.1 0.5-0.2 0.2 0 0.6-0.3 0.8 0 0 0.1 0 0.1 0.1-0.9 2.7-1.4 5.7-1.8 8.5l-0.3 0.2h0.1c0 0.7-0.3 1.4-0.6 2.1-1.2-0.2-2.5-0.7-3.6-0.9v0.1c1 0.4 2.3 0.9 3.5 1.3 0 0.1-0.1 0.2-0.1 0.2l-0.2-0.1 0.1 0.4c-1.3 2.7-2 5.6-2.8 8.5-0.4 0.2-0.2 0.6-0.3 0.9-1.1 4.9-2.9 9.3-3.9 14.4h0.1c0-0.1 0.1 0 0.2-0.1 0.1 0.3 0 0.7 0.2 0.9 0.1-0.4 0.4-0.8 0.6-1.1 0.3 0.7 1 1.2 1.4 1.9 1.9 2.6 3 5.4 4.6 8 0.3 0 0.1-0.4 0.2-0.5 1.4 0.7 2.8 1.8 3.4 3.3-2.9 10.6-7.7 21-13.5 30.3 0.4 0 0.8-0.1 1.2-0.1 5.3-8.9 10.1-18.7 12.8-28.8 0.2 0.1 0.6-0.1 0.7-0.4 0.3-1.7-1.3-2.6-2.2-3.8-0.8-0.6-1.6-1.1-2.6-1.5-1.4-3.3-3.2-6.8-5.9-9.1 0.1-0.3 0.2-0.5 0.2-0.7 0.6-2.2 1.6-4.8 2-6.9 0.1-0.4 0.2-0.9 0.3-1.3 0.8-2.9 1.5-6.2 2.5-9.4 1.7-3.4 2.9-7 3.1-10.8l-0.2-0.3 7.3-20.8z"/><path d="m150.3 64.6c-0.1 0.1-0.1 0.1 0 0.1-0.1 0 0 0 0-0.1z"/><path d="m146.4 55.1c1.3 0.2 2.3 0.6 3.5 1.3-0.6-0.9-1.8-1.4-3-1.4l-0.5 0.1z" fill="#fff" stroke-linecap="square" stroke-miterlimit="2"/><path d="m150.3 56.4c-0.2 0.1 0.1 0.2 0.2 0.3l0.2 0.1-0.4-0.4z" fill="#fff" stroke-linecap="square" stroke-miterlimit="2"/><path d="m145.3 55.9-0.5 0.4c-0.1-0.2-0.1-0.4 0-0.5l0.2-0.1v0c-0.5 0.3-0.5 0.8-0.6 1.4 0.4 0.6-0.1 1.3 0 1.9-0.1 1.1-0.4 2.2 0.4 3.1 1.7 0.4 3.4 0.9 5 1.7 1.4-1 1.8-2.9 2.5-4.4-0.1-1-0.8-1.5-1.5-1.9-1.8-1.1-3.6-2.1-5.5-1.6z" fill="#fff" stroke-linecap="square" stroke-miterlimit="2"/><path d="m120.8 60.7-0.1 0.2c0-0.1 0-0.2 0.1-0.2z"/><path d="m122.5 52.5c-0.4-0.3-1-0.5-1.2-0.9-0.2 0.2-0.3-0.1-0.5-0.2-1.1-0.2-2.2-0.8-3.3-0.6-0.1-0.4-0.3 0-0.5-0.2-0.2 0.3-0.5 0.1-0.9 0.2-2.1 0.4-3.1 2.2-4 3.9-1.1 2.3-1.2 4.6-1.5 6.9-0.4 0.3 0.1 0.4 0 0.7-0.2 1.5-0.3 3-0.4 4.6-0.4 4-0.8 7.9-1.3 11.8 0.2 0.5 0.1 1.3-0.1 1.9 0.2 0.8-0.2 1.6-0.1 2.4-0.7 6.6-0.7 13.4-2.7 20-0.4 1.4-0.6 2.7-1.1 4.1-0.6-0.3-1.2 0-1.8 0.2-0.6 0.7-1.3 1.3-1.4 2.3-1.2 3.2-2.3 7-3 10.4-0.7 1.6-0.8 3.4-1.2 5-0.6 2.4-0.8 4.9-1.3 7.3h-0.1c0.2 0.1 0.2 0.3 0.1 0.4 0 0.2-0.2 0.3-0.3 0.3-0.1 1.1 0 2.2-0.1 3.2 0.3 0.6 0.1 1.4 0.2 2.1 0.2 4.1 0.6 8.4 0.3 12.6 0 1.6 0 3.2-0.1 4.7l0.9-0.6c0.1-1.3 0.1-2.7 0.2-4 0-2.7 0-5.2-0.1-7.9 0-2.8-0.3-5.6-0.4-8.4 0.2-0.1 0-0.5 0-0.6 1.1-8 3-16.3 6-24.2 0.4-0.9 0.7-2.1 2-2.2-0.2 1.5-0.9 3.4-1.3 5.2-0.3 0.9-0.5 1.7-0.7 2.6-0.7 2.1-0.6 4.8-1.4 6.8l-0.1 0.9c0.3-0.2 0.1-0.9 0.4-1.4 0.1-0.6 0.4-1.4 0.4-1.9 0.8-0.9 0.9-2.4 1.2-3.5 1.2-4 2.2-8.1 3.2-12h0.1c0.6-2.4 1.3-4.9 1.6-7.3l0.3-0.2c-0.4-0.3 0-0.8 0-1.2 0.1-1.2 0.6-2.6 0.5-3.8-0.2-0.1-0.4 0-0.3-0.3 0.6-4.9 0.8-10 1.4-14.9 0.3-0.1 0-0.3 0.1-0.4 0.8-6.5 1.3-13.1 2.5-19.5 0.3-0.6 0.4-1.4 0.9-1.9-0.1-0.3 0.3-0.4 0.3-0.7 0.4 1.5-0.2 3.1 0.1 4.7 0.4 0.3 0.7 0.7 1.2 0.6 1.3-0.2 2.6-0.3 3.9 0.2 0.4 0.5 1.8 0.1 1.6 0.9l0.1-0.3c0.2 0.9-0.3 2 0.1 3-0.2 4.8 0.4 9.6 0.5 14.5-0.2 0.3-0.5-0.3-0.7 0.2-1-0.4-2.4-0.6-3.5-0.7-0.1 0.2-0.3 0-0.5 0 0 0.1-0.1 0-0.1 0.1 0.8 0 1.8 0.4 2.6 0.3l2.1 0.7c0 0.5 0.2 0.9 0.1 1.3-1.5-0.5-3.4-1.2-5-1.3-0.5-0.2-1-0.4-1.4-0.5v0.1c2.2 0.7 4.7 1.3 6.6 2.5-0.2 0.8 0.6 2.3-1 2.2-2 0.2-4.2-0.8-6-1.2 0.2 0.1 0.6 0.4 0.9 0.4 1.9 0.7 4 1.7 6 1.1 0 1.1-0.1 2.4-0.3 3.4l0.1 0.4c-0.4 6-0.5 12-0.6 17.9 0.3 0.9-0.1 1.8 0.5 2.6 0.1 0.2 0 0.5 0.3 0.5h0.1c0.3-1.1-0.2-2.2-0.1-3.3 0.3-0.2 0.4 0.3 0.7 0.3 0.5 0.3 1 0.1 1.5 0.2 0.2-0.1 0.4-0.5 0.3-0.7-0.5-0.6-1.4-0.1-1.9-0.7-0.2-0.1-0.5 0-0.7 0.1 0.2-5.8 0.3-11.7 0.8-17.6l0.4 0.3c0.2-0.5 0.1-0.9 0.2-1.4-0.1-2-0.6-4.1-0.2-6.1l0.2-0.1c-0.5-0.6 0.2-1.6-0.4-2.1-0.6 0.1-0.1-0.5-0.3-0.7-0.2-5.3-0.8-10.7-0.3-16.1 0.9-2.5 1.7-5 0.7-7.4z"/><path d="m116.4 52.1c-0.8 0.3-1.5 0.8-1.8 1.4 0.5-0.6 1.7-1 2.6-0.9 0.2 0.3 0.5 0 0.7 0 1 0 1.8 0.3 2.7 0.7 0.4 0.3 0.7 0.6 1.3 0.7 0.2-0.9-0.9-1-1.4-1.5-1.4-0.3-2.8-0.9-4.1-0.4z" fill="#fff" stroke-linecap="square" stroke-miterlimit="2"/><path d="m118.2 53.1c-1.2-0.3-2.6 0-3.7 0.8l0.1 4.2c0.4 1.1 1.5 0.6 2.4 0.7 0.7 0 1.4 0 2 0.1 0.3-0.2 0.7-0.1 1 0l0.1-0.2c0.1-0.1 0.2 0.1 0.2 0.3 0.3-0.2 0-0.6 0.4-0.5 0.3-1.3 0.7-2.6 0.9-4-0.6-0.7-1.7-0.9-2.4-1.4-0.3 0.3-0.6-0.1-1 0z" fill="#fff" stroke-linecap="square" stroke-miterlimit="2"/><path d="m121.5 57.9v0c0.3-0.4 0.2-1.1 0.4-1.6-0.4 0.5-0.2 1.1-0.4 1.6z" fill="#fff" stroke-linecap="square" stroke-miterlimit="2"/><path d="m140.8 81.9 2 0.7c-0.7-0.4-1.2-0.5-2-0.7z" stroke-linecap="square" stroke-miterlimit="2"/><polygon points="143.9 83.1 143.1 82.6 143 82.6" stroke-linecap="square" stroke-miterlimit="2"/><rect transform="matrix(.9508 .3099 -.3099 .9508 32.266 -39.55)" x="140.6" y="81.8" width=".1" height=".1" stroke-linecap="square" stroke-miterlimit="2"/><rect transform="matrix(.9443 .3291 -.3291 .9443 34.726 -41.672)" x="140.4" y="81.7" width=".1" height=".1" stroke-linecap="square" stroke-miterlimit="2"/><rect transform="matrix(.9444 .3288 -.3288 .9444 34.625 -41.478)" x="139.9" y="81.6" width=".1" height=".1" stroke-linecap="square" stroke-miterlimit="2"/><path d="m135.4 82.4c0.4 0.2 0.5-0.3 0.8-0.4 0.5-0.5 1.2-0.1 1.8-0.5l1.8 0.1c-1.5-0.3-3.3-0.3-4.4 0.8z" stroke-linecap="square" stroke-miterlimit="2"/><polygon points="144.3 83.4 144.3 83.2 144.1 83.2" stroke-linecap="square" stroke-miterlimit="2"/><polygon points="136.9 83.4 136.8 83.4 136.6 83.3" stroke-linecap="square" stroke-miterlimit="2"/><path d="m137.8 83.7-0.2-0.1 0.2 0.1z" stroke-linecap="square" stroke-miterlimit="2"/><path d="m139.3 84.5 0.9 0.3c-0.1-0.4-0.7-0.1-0.9-0.5v0.2z" stroke-linecap="square" stroke-miterlimit="2"/><polygon points="139.2 84.4 138.7 84.1 138.1 83.9" stroke-linecap="square" stroke-miterlimit="2"/><path d="m112.6 77.5c0.4 0.2 0.7 0 1.2 0.1-0.1 0-0.1 0-0.1-0.1 0.8-0.3 1.8-0.1 2.6-0.3 0.1 0 0.2 0.3 0.3 0.2 0.1-0.2-0.5-0.4-0.7-0.2-1.1 0.2-2.1 0.1-3.2 0.3h-0.1z" stroke-linecap="square" stroke-miterlimit="2"/><polygon points="114.5 77.8 115 77.9 115 77.8 114.6 77.8" stroke-linecap="square" stroke-miterlimit="2"/><path d="m113.9 77.6c0 0.1 0.1 0.1 0.2 0.1v-0.1c-0.1 0.1 0-0.1-0.2 0z" stroke-linecap="square" stroke-miterlimit="2"/><rect transform="matrix(.9507 .3102 -.3102 .9507 35.739 -39.24)" x="141.2" y="92.6" width=".1" height=".4" stroke-linecap="square" stroke-miterlimit="2"/><path d="m100.9 124.3c-0.1 0.7-0.5 1.4-0.6 2.1l-0.1 0.1c0.3 0.1-0.1 0.3-0.1 0.4-0.3 1-0.3 2-0.8 3 0.1 0.2 0.2 0.1 0.4 0.1 0-0.7 0.5-1.2 0.3-2 0.8-1.1 0.9-2.9 1.2-4.4l-0.3 0.7v0z" stroke-linecap="square" stroke-miterlimit="2"/><rect transform="matrix(.9585 .285 -.285 .9585 48.016 -32.705)" x="136.3" y="148.5" width=".1" height=".2" stroke-linecap="square" stroke-miterlimit="2"/><rect transform="matrix(.9527 .3041 -.3041 .9527 52.529 -33.785)" x="134.7" y="151.7" width=".1" height=".2" stroke-linecap="square" stroke-miterlimit="2"/></g><path d="m135.3 152.3s-5.1 9.1-6.7 13" fill="none" stroke-width="1.625"/><line x1="97.2" x2="91.1" y1="152.5" y2="169.2" fill="none" stroke-width="1.625"/><line x1="130.2" x2="123.9" y1="159.4" y2="177.8" fill="none" stroke-width="1.625"/></g><path d="m224.1 107.5c-3.1-1.8-5.9-4.1-8.8-6-2.5-5.1-6.2-9.6-9.6-14.4-1.6-0.4-2.7-3.3-4.9-1.9-5.5-0.3-9.9 3.6-14.3 6.6l-0.7-0.9c0.2-4.7 0.1-14.6-2.1-18.5 0.3-4.3 0-10.4-3-13.7-2-2.1-4.7-1.3-7.1-0.8-0.7 0.8-0.2 2.4 0 2.7h-0.1c0.5 2.2 0.4 6.7 0.1 9.2l0.3 0.5c-1 4-0.9 12-1.5 16.1 0 1 0.3 2.1-0.2 3 1.3 1.4 0.8 4.4 1.4 5.4 2.2 3.2-2.9 4.7-3.2 7.6-3.5 3-1.4 7.9-1.3 11.7 1.6 11.5 5.2 23.5 2.4 35.2-0.2 0.2-0.3 0.5-0.5 0.7 2.4 1.9 5 3.7 7.5 5.4 8.2 0.2 16 2.6 23.6 5.6 0.4-0.7 0.7-1.3 1-2 2.7-2.5 5.3-4.8 6.9-8.1 1.1-2.1 3-4 3.8-5.9 4.4-7.6 8-16.1 8.4-25 0.9-4 3.4-8.2 1.9-12.5z"/><path d="m204.8 153.8 0.2 0.1c3.3-3 5.1-7.4 7.6-11 4.1-7.9 7.5-15.1 7.1-24.4 2.1-2.6 2.5-6.4 2.6-9.8-0.7-0.8-1.8-1.2-2.6-1.8 0 1.9 0.2 4.3-0.7 6-0.7 0.3-0.2-0.4-0.6-0.7-2-1.6-3.8-4-4-6.6-0.4-0.8 1.3-2.3-0.2-2.3l-0.3 0.7c-1.1-0.3-1.5 1.8-2.9 1.4-1.3-3.1-2.9-5.9-5.3-8.6-1.1-2.4-3-4.5-5.3-6.6-4.6 1.3-9.6 2.9-13.2 5.9 0.4 2.3 0.9 3.8 0.7 6.2-0.3 0.1-0.7 0.4-1.2 0.3-1.1-2.2-1-5.5-1.5-7.9-0.3-1.3-0.3-2.9-1.4-3.7 0.1-4.1-0.2-8-1.2-12.2-0.2-0.9-1.8-5.8-0.6-6.5-0.5-4.4 0-12.2-5.2-13.8-0.8 10.5-4.8 28-0.4 38.3 0 4.4 0.9 10-0.2 14.2-0.8 0.7-0.8-0.3-1.3-0.8-0.5-3.1 0.2-6.7-0.7-9.8-1.4 1.8-2.2 4-3.5 5.6 0.5 9.7 3 20 4.1 29.4-0.1 5.5 0 11.8-1.8 16.8-0.1 0-0.1 0-0.2 0.1 8.1 4.5 16.7 8 25.5 10.8 2-3.2 3.4-7.1 6.5-9.3z" fill="#fff" stroke="#fff" stroke-width=".6896"/><path d="m175.6 58.9c0.5 0.8-0.3 5.5-0.5 6.3 0.3-0.9-1.8-6.5 0.5-6.3z" fill="#fff"/><path d="m187.8 153.9c3.4 0.2 6.8-1 9.9-2.4 0.5 0.2 0 0.7 0 1-2.4 2.3-5.5 2.5-8.8 3-0.4-0.5-1.5-0.6-1.1-1.6z" stroke="#fff" stroke-width=".6896"/><path d="m193.4 89.7v-0.2c0.7 0.2 1.9-1.5 3.1-1.5 2.1-0.9 4.2-1.5 6.2-0.4 4.2 4.2 7.7 9.3 10.3 14.1 0 0.4-0.4 0.8-0.8 0.9-3.2-4.6-5.6-9.7-10.4-13.3-5.1-0.7-9.6 1.4-13.6 4 1.7-1.6 3.7-2.7 5.2-3.6z" fill="#fff"/><path d="m190.1 100.5c1.9 0.4 2.9 4.6 5.2 1.9 1.4-0.4 3.2-2.7 4.4-1.4-2.3 2.5-1.6 6-0.7 8.8 0.7 1 1.4 2.6 2.6 2.6v-0.2l2 0.4c-1.5 2.6-0.8 6.5 0.9 9 0.7 1 1.5 1.2 2.4 1.5 0.2-3.1-0.3-6.7 2.6-8.8l1.5-0.2c0-2.4-1-4.5 0.1-6.7 2.3-0.3 1.1 2.4 2.1 3.4 0.8 1.8 2.2 4.6 4.4 4.6 0.6 1-0.2 1.5-1.1 1.9-1-0.2-1.8-0.3-2.7 0.2 0-0.1 0.1-0.3-0.1-0.3l-0.2 0.1c-0.8 2.4 1.2 5.7-1.9 6.5-1.1 1.5-3.1 1.3-4.7 1.3-2.2-0.3-4-2.1-5.1-4-1.8-2.4 0.5-6.9-3.1-8.1-2.1-2.1-2.1-4.8-2.6-7.9l-3.5-0.2c0.8 2.3 0.7 5.5 1.5 7.8l-0.9 1.4c2.5 5.4 5.7 10.4 7.4 16.1l-0.9-0.9c-1.9-4.9-5.1-9.6-7-14.4l-1.2-0.8 0.3-0.2c0.1-3.1-0.6-6.4-1.4-9.2h0.3c0.5-1.3-1.9-2.8-0.6-4.2z"/><path d="m196.2 104.1c0.1 0.7-0.7 1.2-1.3 0.8l1.3-0.8z" fill="#fff"/><path d="m201.7 130.8c1.6-0.3 2.2 1.5 2.6 2.5 1.1 3 3.1 6.9 0.3 9.7 0.3 0.8 0.2 1.7-0.3 2.2-0.9 0.2-0.9-0.8-0.9-1.2 0-0.9 0.8-1.1 0.9-2 0.2-3.7-0.7-7.7-2.9-10.3l0.3-0.9z" stroke="#fff" stroke-width=".6896"/><path d="m210 115 1.1 0.3c0.4 2.4 0.4 4.9 0 7.4l-3.1 0.6c-0.3-2.6-0.3-6.6 2-8.3z" fill="#fff"/><path d="m215.8 104.3c1.3 0.4 1.8 1.8 2.9 2.1 0.7 1.4 0.1 3.1 0 4.5-2-0.7-2.7-2.7-3.3-4.6 0.1-0.7-0.3-1.7 0.4-2z" fill="#fff"/><path d="m211.8 108.7c-0.8-2.4 0.3-4.3 1.1-5.2" fill="none" stroke="#000" stroke-width="1.0998"/><line x1="174.2" x2="164.9" y1="147" y2="163.6" fill="none" stroke="#1D1719" stroke-width="1.724"/><line x1="202.3" x2="196.3" y1="156.3" y2="173.4" fill="none" stroke="#1D1719" stroke-width="1.724"/><path d="m301.5 131.3s0.1 0 0.1-0.1l-0.1 0.1z"/><path d="m301.4 131.2c-0.4 0 0 0.2-0.1 0.4l-0.2-0.2c-0.1 0.1-0.4 0.3-0.7 0.3-0.2-0.1-0.2 0.4-0.5 0.2-0.6 0.8-1.5 0.6-2.2 1.2l0.1 0.1-0.2 0.3c0.4 0 0.6-0.4 1-0.5 0.8-0.6 2-0.6 3-1.2 0.2 0.2 0.5-0.2 0.7-0.2-0.2-0.2-0.5 0.2-0.6 0 0-0.1 0-0.1 0.1-0.2h-0.1l-0.3-0.2z"/><path d="m244.8 117.8s0.1 0 0 0z"/><path d="m321.9 139.8c0.3-1.3-0.5-2-0.9-3-0.3-0.9-0.6-2-1.1-2.8-0.9-2.5-2.4-4.8-3.7-7.2-0.5-0.9-1-1.9-1.5-2.8-2.7-3.2-5.4-6.9-8.6-9.9-0.9-3-2.9-6.1-6-7.6-1.1-0.1-2.2-0.6-3.4-0.7-3.8-1.4-7.9-2.7-11.9-3.8-2.5-1-5.1-1.7-7.6-2.6-1.8-0.5-3.6-1.3-5.5-1.6-1.2-1-2.7-1.1-4.1-1.3-1.8-0.2-3.5-0.4-5.2-0.4-3.2 0.3-6.1 1.4-9 2.7-0.1 0.6-0.3 1.2-0.4 1.8 3.5-1.7 7.1-3.1 11-2.9 0.1-0.1 0.3-0.1 0.4 0.1 0.4-0.4 0.8 0.2 1.2 0 0.9 0.3 1.7 0.1 2.6 0.4 3.1 0.8 6.2 1.8 9.3 2.8 0.2 0.1 0.3 0.4 0.5 0.1 1.1 0.4 2.1 0.7 3.3 1.1 0.5 0.4 1.2 0.3 1.6 0.7 0.8 0.2 1.5 0.4 2.1 0.8 0.7 0.1 1.5 0.4 2.2 0.6 1.5 0.7 3.1 0.9 4.5 1.7 0.9-0.3 0.7 0.8 1.3 1 1.2 0 2.5 0 3.4 0.6 0.5-0.2 1.2-0.2 1.7 0 1.5 0.2 2.8 1 3.8 2.2 0.5 0.7 1.1 1.4 1.4 2.2-0.4 0.2-0.9 0.3-0.7 0.9 0.2 0.4 0.4 0.6 0.7 0.8 2.8 3 5.6 5.5 7.9 8.7l-0.7 0.2c-0.4-0.1-0.8 0-1.2-0.2l0.1-0.2-0.5 0.1 0.4 0.1c-0.2 0.3-0.6 0.3-0.9 0.4l0.1 0.1c0.7-0.2 1.9-0.2 2.6 0.1-0.9 0.1-1.5 0.7-2.4 0.8-0.1 0.1-0.1 0.4-0.3 0.2-0.7 0.2-1.3 0.7-1.8 1.1 1.2-0.5 2.5-1.1 3.8-1.3 1.1-0.4 0.4 0.8 0.9 0.9 0.5-0.2 0.6-0.8 0.7-1.2 0.4 0.3 0.8 0.6 0.8 1.1 1.6 2.4 2.9 4.7 4.1 7.2 0.7 1 1.2 1.9 1.7 3l-0.3 0.2c-0.8 0-1.8 0.6-2.7 0.5-0.5 0.3-1.1 0.3-1.5 0.6l0.1 0.1c0.7-0.2 1.5-0.7 2.2-0.5 0.2-0.2 0.8-0.2 1.2-0.3 0.2 0.1 0.3 0.5 0.5 0.2 0.4 0.6 0.9 1.1 1.2 1.8 0.5 0.4 0.8 1.2 1.1 1.9-1.2 0.3-2.2 0.2-3.4 0.5-0.9 0.4-2 0.6-2.9 1.1-0.5 0.2-0.9 0.5-1.5 0.6-0.9-0.4-0.8-1.5-0.9-2.2 0.1-0.4 0.4-0.8 0.3-1.2l-0.2 0.1c0.2 0.3-0.2 0.9-0.1 1.3-0.1 0.6-0.1 1.2 0 1.7 0.4 0.5 0.5 1.3 1.4 1.2 2.1-1.6 4.7-2.3 7.4-2.5 0.6 0.2 0.2 1.1 0.3 1.6-0.7 2.1-2.4 4.2-4.5 4.8-0.4 0.2-0.9-0.1-1.2 0.2 0.2 0.7 0.7 0.4 1.2 0.6 2.2 0.1 4-1.8 5-3.5 0.5-1.6 1.6-2.7 0.6-3.8z"/><path d="m257.3 132.8c0.4 0.2 0.7 0.4 1.1 0.6 0.1 0.4 0.2 0.6 0.2 0.9 1.7 4.7 4 8.9 7.4 12.9 0.4 0.5 0.5 1.2 1.1 1.7 3.2 2.1 7.3 1 10.3-0.6l3.4-0.1c0.6-0.4 1.5-0.5 2.1-0.8 1.2-0.8 2.7-1.5 3.7-2.7 0.3-1.1 0.2-2.4-0.3-3.5-0.7-2.6-1.2-5.4-1.8-7.9 3.7 2.7 7 6.4 10.2 9.9-0.2 0.7 0.1 1.3-0.1 1.9 0.2 0.9 0.1 1.9-0.1 2.8-0.5 1.8-2.6 2.2-4.1 2.8l-0.2-0.3c-0.3-0.2-0.6-0.2-0.9 0.1-1.1 1.9-2.4 3.9-3.6 5.9v0.5c-1.3 0.2-2.8 0.2-3.8-0.8-0.9-1.3-0.7-3.4-0.4-4.7-0.2-0.7 0.5-0.9 0.2-1.7-0.2-0.4 0.2-1.5-0.7-1.4-0.8 0.8-0.7 2.1-0.9 3.2l-0.1 0.1c-0.2 1.6-0.1 3.1 0.5 4.7l-0.1 0.1c0.5 0.3 0.8 1 1.3 1.2 1.4 0.6 3.3 0.7 4.6-0.3 1.7-2.1 2.8-5.3 5.6-5.9 0.8-0.5 2-0.7 2.8-1.5 1.4-1.3 1.2-3.4 1.1-5.2l0.1-0.1 2.6 2.7c0.8 0.9 1.5 1.9 2.4 2.5 0.6 0.7 1.4 1.2 1.7 2.1 1.1 1.7 2.5 3 4.2 3.8 1.4 0.6 3.1 0.2 4.6 0 1.1-0.4 2.4-1.1 3.1-2.3 0.1 0.1 0.4-0.1 0.3-0.3 1.2-1.2 1.2-3.1 0.8-4.7-1.8-2.2-2.8-4.8-4.7-6.9-2.5-3.5-4-7.6-6.6-11.1-0.1-0.2 0.4-0.1 0.2-0.3h-0.2c-0.9-0.5-1.5-1.9-2.6-2.1-2.4-2.8-5-5.7-7.2-8.6-0.2-0.5-1.1-1.1-0.8-1.7-0.1-1.4-0.5-2.7-0.7-4.1-1.4 0.1-0.4 1.6-0.6 2.4-0.3-0.2-0.3-0.5-0.5-0.8-0.3 0-0.5 0.1-0.8 0.3-0.1 0.4 0 0.7 0.1 1.1 1.1 2.4 2.7 4.4 4.4 6.5 2 2.5 4.4 4.7 6.5 7.4-0.3 0-0.6 0.2-0.8 0.4 0.2-0.1 0.5 0.2 0.6-0.2 0.6-0.2 1.1 0.7 1.5 1.1 2.5 3.8 4.3 8.1 7 11.6-0.9 0.2-2 0.2-2.9 0.7-0.3 0.1-0.4 0.5-0.7 0.5-0.3 0.2-0.5 0.5-0.4 0.8 1-0.8 2.2-1.4 3.7-1.3 0.6-0.1 0.7 0.8 1.1 1 1.1 1.9 3.4 3.3 2.5 5.8-0.6 2-2.7 3.5-4.7 3.7-0.9 0.1-1.8 0.1-2.5-0.3-2.2-0.5-3-2.9-4.5-4.3l-0.2-0.4c-2.4-3.1-5.3-6.1-8-9.2l-0.1-0.3c-2.7-2.7-5.6-5.9-8.6-7.9-0.4-0.1-0.7-0.1-0.9 0.3-0.7-3.1-1.5-6.2-1.8-9.5-0.5-0.7 0.6-1.9-0.7-1.8-0.4 0.1-0.5 0.5-0.5 0.8 0.1 4.8 1.4 9.3 2.4 13.8 0.2 2.7 2.2 5.1 1.4 7.9-2.2 1.9-5 3.5-7.9 2.8-2-6.1-4.4-12.1-7.2-17.9-0.4-0.4-0.4-1.5-1.2-1.1-0.2 0.3 0.1 0.5 0 0.8 2.7 5.8 5 11.8 7.3 17.7l-0.1 0.1c0.2 0.4 0 0.8-0.2 1.2-2.3 1.2-5 1.7-7.5 0.8-0.4-0.2-1.1-0.5-0.9-1.1-1-1.8-2.7-3.3-3.7-5.1-1.7-3-3.4-5.9-4.2-9.2-0.6-0.5-0.4-2-1.4-2-0.2 0.2-0.6 0.4-0.6 0.7-0.1 0-0.1-0.1-0.2-0.1 0.3 0.7 0.2 1.1 0.1 1.5z"/><path d="m310.2 121.9c0 0.1-0.1 0.1 0 0l-0.2 0.1v-0.1h0.2z"/><path d="m307.8 122.4z"/><rect x="308.3" y="122.5" width=".1" height=".1"/><path d="m307.3 122.6c0.1 0.2-0.2 0.1-0.3 0.3v-0.1c0.3 0.1 0.1-0.3 0.3-0.2z"/><path d="m308.2 122.6c-0.1 0.1-0.2 0.1-0.2 0.1-0.1-0.1 0.1-0.1 0.2-0.1z"/><path d="m307.7 122.8-0.4 0.1c-0.1 0.2 0.1-0.2 0.2-0.1h0.2z"/><rect x="306.3" y="122.9" width=".1" height=".1"/><path d="m306.9 123.1c0.1 0.1-0.1 0.2-0.2 0.2 0-0.1 0.2-0.1 0.2-0.2z"/><path d="m305.8 123.3z"/><path d="m306.5 123.3c-0.2 0.2-0.4 0.2-0.7 0.3 0.2-0.2 0.5-0.2 0.7-0.3z"/><path d="m305.6 123.6c0.2 0.5-0.6 0.2-0.6 0.7-0.5 0.2-1 0.7-1.3 1.2-0.1 0.1-0.2 0-0.2-0.1 0.2-0.2 0.2-0.6 0.6-0.8 0.2 0.1 0.2-0.3 0.4-0.4l0.4-0.2c0 0.1 0.1 0.1 0.1 0.1 0.2-0.1-0.1-0.4 0.2-0.4h0.2l-0.1 0.1c0.1 0.1 0.1 0.1 0.2 0.1 0.1-0.1 0.1-0.2 0.1-0.3z"/><path d="m306.4 124.8c-0.1 0.5-0.5 0.4-0.8 0.6-0.2 0.4-1.1 0.8-0.5 1.2v0.2c-0.2 0.1-0.4-0.1-0.5-0.3 0.1-0.7 0.7-0.7 1-1.3 0.3 0 0.7-0.1 0.8-0.4z"/><rect x="296" y="130.3" width=".1" height=".1"/><path d="m296.2 130.5c0 0.1 0 0.1-0.1 0.1l0.1-0.1z"/><path d="m295.7 130.7c-0.1 0-0.5 0.1-0.4 0.2l-0.1-0.1 0.3-0.3 0.2 0.2z"/><path d="m295.1 130.9-0.3 0.2 0.3-0.2z"/><polygon points="294.6 131.3 294.6 131.2 294.7 131.2"/><rect x="294.4" y="131.5" width=".1" height=".1"/><rect x="294.3" y="131.6" width=".1" height=".1"/><rect x="293.8" y="131.9" width=".1" height=".1"/><path d="m293.6 132.2-0.2 0.2 0.2-0.2z"/><path d="m293.1 132.6-0.2 0.1 0.1-0.1c-0.1 0 0-0.1 0.1 0z"/><rect x="297.7" y="132.5" width=".1" height=".1"/><rect x="297.1" y="132.8" width=".1" height=".1"/><path d="m296.9 133.1h0.1-0.1z"/><path d="m295.6 133.9c0.1-0.2 0.2 0.1 0.3 0.1l0.1 0.1c-0.5 0.2-1-0.2-1.5-0.3l-0.5-0.2 0.2-0.2c0.4 0.1 0.9 0.2 1.4 0.5z"/><path d="m297.3 133.4c0.1 0.1 0 0.2-0.1 0.2-0.1-0.1-0.2 0.1-0.2-0.1 0 0 0.2-0.2 0.3-0.1z"/><path d="m297 133.7c-0.4 0.4-0.9 0.8-1.6 1.1v-0.1c0.5-0.3 1-0.9 1.6-1z"/><rect x="292.1" y="133.8" width=".1" height=".1"/><path d="m318.6 134.4v0.1c-0.2 0.2-0.5-0.2-0.7-0.1 0.2-0.3 0.5 0.1 0.7 0z"/><rect x="315.8" y="134.8" width=".1" height=".1"/><rect x="295" y="134.9" width=".1" height=".1"/><path d="m314.6 135.3c-0.1 0.1-0.1 0.1-0.2 0.1 0.1 0 0.1-0.1 0.2-0.1z"/><rect x="315.8" y="135.6" width=".1" height=".1"/><path d="m313.3 136.2c-0.1-0.1 0-0.3 0.1-0.4 0.2 0.1-0.1 0.2-0.1 0.4z"/><polygon points="314.7 135.9 314.8 135.9 315 135.9"/><path d="m313.1 136.1c0.1 0.2-0.3 0.4 0.1 0.5-0.3 0.5-1.2 0.5-1.2 1.2-0.5-0.1 0-0.5 0-0.8 0.2-0.4 0.7-0.6 1.1-0.9z"/><path d="m313.4 136.5c-0.1 0.1-0.1 0.1-0.1 0.2-0.1-0.2 0-0.2 0.1-0.2z"/><path d="m255.7 144.9c0.4-0.6 0.6-1.5 1.1-2.1-0.1-0.1-0.4-0.2-0.7-0.1 1.3 0.1 1.4-1.8 2.2-2.5 0.2-0.4 0.4-0.7 0.9-0.8 0.5 0.1-0.2 0.6 0.3 0.8-2.5 5.3-5.4 10.6-8.2 15.8-0.1 0.5-0.7 0.8-0.7 1.4-0.2 0.2-0.4 0.5-0.4 0.9-1.1 1.6 0.5-0.8-0.7 0.8 0.1 0.3-0.3 0.2-0.4 0.5 0 0.5-1-0.3-1.1 0.1l7.7-14.8z"/><path d="m305.3 146.1c-0.4 0.7-0.2 1.7-0.3 2.4 0.1 0.6 0.2 1.2 0.6 1.6 0.5 0 0.7 0.8 1.2 0.7 0.7-0.4 1.2-0.8 1.9-0.9 0.2-0.3 0.6-0.2 0.9-0.4 1.1-0.6 2.1-0.8 3.3-1.1 0.1 0.1 0.2 0.2 0.2 0.4-0.7 0.2-1.4 0.3-2 0.5-0.8 0.3-1.5 0.8-2.2 1.2l0.1 0.2c-0.4-0.3-0.8 0.5-1.3 0.7-0.4 0.2-0.8 0.5-1.2 0.2-0.3-0.1-0.5-0.4-0.8-0.5 0-0.4-0.7-0.5-0.4-0.9-0.8-1.2-1-3.3-0.2-4.5 0.2 0.1 0.2 0.2 0.2 0.4z"/><path d="m304.5 147.1v0.2-0.2z"/><rect x="294.8" y="150.6" width=".1" height=".1"/><path d="m253.9 99.3c-7.7 4.9-9.8 9.3-15.5 16-1.6 1.9-1.3 1.6-4.2 4.9" fill="none" stroke="#1D1719" stroke-width="1.339"/><path d="m247 114.2s-4 10.6 11.6 20.2" fill="none" stroke="#1D1719" stroke-linecap="round" stroke-width="1.339"/><path d="m312.7 136.7s2.4-2.3 6-1.6" fill="none" stroke="#1D1719" stroke-linecap="round" stroke-width=".3347"/><path d="m383.4 98.6c-0.4-1.5-0.5-2.5-1-4.1-0.9-1.3-1.6-2.3-3.2-2.7-0.9-0.4-0.9 0.4-1.7 0.1-0.1-0.2-0.8-0.7-0.7-0.9-1 0.1 0.9-0.7-0.3-0.2 0-0.9-0.9-0.2-1.3-0.8 0.1-1.5-1.4-0.9-2.2-1.4-0.2-0.8-0.7-1.4-0.8-2.1l-0.9-1.8c-0.2-1-1.1-2.5-2.5-2.7-0.1-0.5-0.8 0.1-0.7-0.5-2.6-0.6-5.4 0.7-7.8 1.4-3.3 0.9-6.2 2.7-9.3 3.7-0.9 0.9-2.3 0.9-3.1 1.7l-0.2-0.1c-1.7 1-3.4 1.7-5 2.7-3.2 0.8-7.2 0.7-9.9 2.8-0.3 1.6-1.3 3.4-1.2 5.1-1.3 1.7-2.3 3.3-3 5.1 0.2 0.2-0.1 1-0.1 1.2-0.2 0.4 0.1 0.9 0.1 1.4-0.2 0.7 1 1.7-0.1 2.1-0.3 1.3-1.4 1.9-1.7 3.2-0.3 1.7-0.6 3.7 0.1 5.2 0.1 1.4 0.9 2.3 1.2 3.5 0.2 0.5 0.6 1.3 0.8 1.8-0.1 0.5 0.2 1.2 0.5 1.5 0.1 1.2 0.2 2.1 0.9 3.1 0 0.5-0.2 1.1 0.3 1.4 0.8 3.3 2.2 6.7 3.1 9.9 0.3 1.1 0.8 2 0.9 3 0.2 0.4 0.7 1.2 0.8 1.8v1.2c3.5 1.2 6.7 2.7 9.9 4.6 5.7 0.9 11.2 1 16.1 0 1.5-0.2 2.1 2 3.5 1.1 0.1-1.3 1.2-5.4 1.5-6.7 0.2-1.5 1.3-2.9 2.3-4 0.4-0.7 1-1 1.4-1.7 0.4-0.9 0.9-1.9 1.8-2.4 0 0-0.1-0.2-0.2-0.1l1.1-2c1.9-1.7 2.1-4.9 4-6.7 0.4-1.2 1.2-2.6 1.6-4.1-0.1-0.8 0.9-1.2 0.3-2-0.3-0.7 0.1-1.4-0.1-2 0.1-1 0-2 0.4-3-0.3-1.5 0.3-3.2 0.7-4.8 0.1-0.3-0.2-0.8 0.2-1 0-0.2-0.1-0.4 0-0.6 0.8-0.6 0.4-2.2 1.7-2.4 1.4-2 1.3-3.8 1.8-6-0.3-0.6-0.4-1.5 0-1.8z"/><path d="m335.1 146.5c3.3 1 6.7 1.8 10 2.3-3.1-1.8-6.4-3.4-9.9-4.6 0 0.8 0 1.5-0.1 2.3z"/><path d="m369.2 84.7-0.3 0.1c0.1 0 0.2 0 0.3-0.1z" fill="#fff"/><path d="m336.6 146.9c0.1 0 0.2 0.1 0.3 0.1 0-0.1-0.1-0.3-0.2-0.4 0 0.1 0 0.2-0.1 0.3z" fill="#fff"/><path d="m337.4 144c-0.5 0.8-0.4 2.1-0.5 3 0 0.1-0.7 1.1-0.7 1.1 2.4 0.6 6.5 0.3 8.9 0.7-2.4-1.4-4.8-2.6-7.3-3.6 0 0.1-0.4-1.3-0.4-1.2z" fill="#fff"/><path d="m380.9 97.8c0.4-0.6-0.5-0.8 0-1.2-0.3-0.8-0.3-1.6-1-2.2-0.7 0.3-0.4-0.8-1.1-0.5-0.8-0.1-1.6-1.8-1.7-1-0.2 1.5-0.3 2.3-0.4 3.5 0.1 0.6 0.3 1.7 0.2 3-0.9 0.8-1.8-0.4-2.6-0.5 0.2-0.4-0.9-1.6 0.4-1.5 0-2-0.4-4-0.9-5.9-0.4-1.1-1.1-0.9-2-0.9-0.8 1-2.1 1.9-1.7 3.2-1.2 1.9 0 4.3 0.2 6.5 0 1 0.9 1.5 0.9 2.1-0.3 2 2.1 0.3 2 2-0.3 0-0.4 0.3-0.5 0.6 0.3 1.4-1.1 2.3-1.3 3.7-0.1 0.5-0.8 0.5-0.6 1.1-0.8 0.3-0.3 1.5-1.1 1.5-0.1 0.8-0.8 1.1-1.3 1.5-0.5 0-1.3-0.3-1-0.9 0.8-1.1 1.5-2.6 2.2-3.6 0.8-0.8 0.4-2.2 1.4-3-0.3-0.9-0.6-1.9-1.5-2.1 0.2-0.3 0-0.8-0.2-1.2-0.5-0.1 0.1-0.5-0.5-0.7 0.1-0.7-0.4-1.4-0.6-1.8 0-1-0.4-2-0.3-3-0.1-0.6 0.3-1.3-0.4-1.9-0.1-1.4-1.3-2.9-1.8-4-1.4 0-2.3-0.2-3.7-0.2-1.2 0.1-2.2 0-3.3-0.2-0.8 0.5-2-0.1-2.4 0.6-0.7-0.4-1.7-0.1-2.3 0.1-1.4 0.1-2.9 0.3-3.9 0.7-1.6 0.4-3 1.5-4.4 1-0.4-0.4-0.4-0.8-0.1-1.2 0.8-0.8 1.7-0.8 2.7-1.2 0.7 0.2 1.7-0.2 2.2-0.6 1 0.1 1.6-0.7 2.6-0.4 2.7-0.5 5.4-0.9 8.1-0.3 1.3-0.4 2.4 0.3 3.7 0 0.1-0.5 0.3-1 1-1.1 1.8 0.7 1.7 2.9 2.9 3.9l0.6-0.9c0.1-1.2 2.7-0.4 1.8-2.1-0.5-0.5-0.6-1.7-1.1-2 0.3-0.4-0.5-0.6-0.2-1.2-0.4-0.2-0.4-1-1.1-0.9h0.1c-0.5 0.1-0.2-1.1-0.9-0.8-1.1-2.5-3.8-0.4-5.7-0.1-0.2 0.1-0.3 0.3-0.6 0.1-4.8 1.6-9.4 3.5-13.9 5.7l-0.1 0.2h-0.3c-1.7 0.7-3.6 1.6-4.9 2.7-1.2 0.4-2 1.6-3.4 1.3-0.6-0.3 0.1-0.7-0.1-1-1.1 0.5-2.4 0.3-3.6 0.9-1.1 0.6-1.3 1.8-1.9 2.8 0 0.6-0.3 1.4-0.4 2 0.5 0.8-0.5 1.2-0.7 1.8-1.3 1.1-1.7 2.5-2.3 3.9-0.3 1-0.2 1.7 0 2.7 0 0.3 0.3 0.3 0.5 0.2 0.4 0.5 0.8 0.8 0.4 1.4-1.6 1.3-2.6 3.4-2.7 5.6 1-0.1 0.8 1.3 1.4 1.6-0.6 0-0.1 0.9-0.2 1.1 0.9 1.3 0.3 3.1 0.9 4.1 0.5 1.3 0.6 2.5 1 3.9 0.6 2.4 1.4 4.6 2 7 0.5 0.9 0.3 1.7 0.8 2.5 0.5 2.5 1.7 5 2.3 7.6 0.7 0.3 0.2 1.2 0.7 1.5 0 0.5 0.4 1 0.6 1.4 2.5 1 5 2.2 7.3 3.6 5.7 0.9 11.2 1 16.1 0 0.8-0.1 1.6-0.3 2.3-0.6 0.3-1.5 0.5-3 0.8-4.4l-0.3 0.1c-0.5 0-0.8-0.3-1.1-0.7 0-1 1.1-1.1 1.6-1.8 0.5-1.2 1.9-1.8 2.5-3 0.4-0.5 1-0.9 1-1.5 1.4-1.2 2.4-3.4 3.6-5.1 0.1-0.8 0.8-1.3 1.3-1.9 0.2-0.4-0.1-0.9 0.5-1 0.7-0.8 0.9-2.1 1.6-2.7 0-0.9 0.6-1.6 1-2.4-0.1-1.5 1.2-3 0.9-4.5-0.2-0.6 0.2-1.7-0.2-2.4 0.3-0.7 0.1-1.6 0.1-2.4 0.3-1.3 0.2-2.8 0.6-4.2-0.5-1 0.7-1.4 0.4-2.5 0.7-0.9 1-1.8 1.7-2.6 1.5-0.1 1-1.6 1.4-2.5-0.2-1.4 0.9-2.6 0-4.4z" fill="#fff"/><path d="m346.4 95c0.9 0.1 1.9-0.5 2.9-0.4 1-0.5 2.4-0.3 3.5-0.5 0.7-0.3 1.6-0.3 2.4-0.6 0.4 0.4 0.9-0.2 1.3 0 1.1 0.2 2.2-0.5 3.2 0.1 1.3 0.2 2.6-0.7 3.3 1 1.1 0.6 0.3 1.6 1.4 2.3-0.3 0.7 0.8 0.8 0.4 1.4 0.6 0.6 0.3 0.8 0.5 1.5 0.4 0.5 0.4 1.6 0.7 2.3-0.5 0.4 0.2 0.5 0.4 0.7-0.5 0.7 0.5 1.6 0.2 2.4-0.1 1.1 0.5 2.4 0.6 3.6l0.1 0.1c-0.3 0.2 0.2 0.7 0.1 1.1 0.2-0.1 0.3 0.1 0.4 0.2-0.7 0.4-0.2 1.6-1.2 1.3-0.7 0.2-0.5-0.5-1-0.8 0.3-0.7-0.6-1.6-0.2-2.4-0.2-0.9-0.4-1.6-0.5-2.5l-0.2-0.1c0.7-0.8-0.6-1.2-0.2-1.9 0.2-0.6-0.4-0.9-0.5-1.3s-0.1-1-0.2-1.5c-0.5-1.7-1.2-3.5-2.2-5.3-0.1-0.2 0-0.7-0.3-0.9-1.6 0.5-3.5 0-5.2 0.3-3.7 0.4-7.8 1.3-11.5 2-0.4 0.3-1.3 0.4-1.8 0.6-0.7 0.3-1.4 0.1-2.1 0.1-0.4-0.5-0.3-0.8 0-1.2 1.9-1.1 3.9-1.2 5.7-1.6z"/><path d="m346 100.4 0.4 0.2c2.7-0.5 5.1-1 7.8-1.1 0.5-0.7 1.2 0 2-0.2 0.8 0.4 1.3 1.3 1.9 1.7 0.2 0.3 0.2 0.7 0.6 1l0.5 0.1c-0.1 1.2 0.7 1.4 1.1 2.5 0.5 0.5 0.8 1.3 1.2 2.1 0.7 0.4 0.9 1.1 1.1 1.9 0.7 0.3 0.6 1.2 1.3 1.5-0.2 0.4 0.3 0.6 0.4 1.1 0.6 0.2 1.2-0.5 1.6 0.2 0.2 0.7-1 1.7 0.2 2.1l0.2 1c-0.3 0.2-0.9 0.4-1.3 0.2-0.3-0.2-0.7-0.7-1-0.3-1 0.7-1.2 2.8-2.7 2.3-3 1.2-5.8 2.3-8.3 4.2-0.3 0-0.8 0.1-0.8-0.4-0.3-1 1.1-1.3 1.6-2 2.6-1.3 5.1-2.2 8-3.4 0.1-0.1-0.1-0.3-0.1-0.3 0.9-0.3 1.2-1.3 1.7-2 0-0.2-0.3-0.5-0.5-0.6l-0.2 0.1c0.2-0.7-0.6-1.2-0.9-1.7-0.4-1.2-1.3-1.7-1.8-2.8 0-0.4-0.6-0.4-0.5-0.8-0.5-0.2-0.3-1-0.8-1.3-0.6-0.7-0.7-1.4-1.4-2-0.3-0.7-0.6-1.4-1.2-1.9-0.2-0.3-0.2-0.9-0.7-1.2-0.8-0.1-0.8 0.5-1.5 0.1-4.1 0.5-8.6 1.4-12.8 1.8-0.3-0.1-0.6-0.2-0.6-0.5l0.3-0.4c1.8-0.5 3.7-0.4 5.2-1.2z"/><path d="m376.1 94.3c-0.1 1.4 0.4 2.8 0.2 3.9l-0.2 0.5c-0.2-0.1-0.3-0.5-0.8-0.4 0.3-1.7-0.3-5-0.5-6.6 0.4 0.5 1.9 0.6 1.3 2.6z" fill="#fff"/><path d="m346.1 113c1.5-0.4 2.4-1 3.7-1.4 0.1-0.5 0.4-1.3 1.1-1.2 0.9 0 0.2 0.8 0.5 1.3l1 0.1c-0.1 0.1 0 0.2 0.1 0.3 0.4 0.3 1.4 0.3 2.1 0.5l0.2 0.8c-0.6 0.7-1.7 0-2.3 0.7 0.2-0.1 0.4 0.2 0.4 0.4-0.4 0.4-0.9 0.8-1.4 0.6-0.2-0.1-0.8-0.8-1-0.3-0.3 1.2-1.6 2.2-0.4 3.4 1.7 3.7 4 6.9 5.8 10.5 0 0.3-0.4 0.4-0.5 0.3l-1.2-2.4c-0.1-0.8-1.1-1.4-1.4-2.3-1.1-1.7-2-3.7-3.4-5.2-0.5 0.3-1.3 0.5-1.6-0.2-0.2-0.8 0.2-1.6 0-2.4-0.6 0-1.1 0.6-1.6 0.8-1.2 0.4-2.5 1.2-3.7 1.3 1.6-1 3.5-1.2 4.9-2.6 0.3-0.6-0.8-0.4-0.4-1.1 0.5-0.2 1 0.1 1.4 0.3 0.3-0.7 0.7-1.5 1.3-2.2-1.1-0.5-2 0.8-3.1 0.9-1.3 0.5-3.1 0.4-4.2-0.7-0.2-0.2 0.2-0.3 0.2-0.6 1.3-0.2 2.4 0.7 3.5 0.4z"/><path d="m357.2 131.5c-0.9 0-0.4-1.3-1.2-1.6 0-0.3-0.4-0.4-0.1-0.7 0.8 0.5 1.1 1.4 1.3 2.3z"/><path d="m357.5 131.9c0.2 0.8 1.3 1.6 1.3 2.6-0.3 0.1-0.5-0.1-0.6-0.4-0.4-0.8-0.3-1.5-0.9-2.1l0.2-0.1z"/><polygon points="360.4 133 360.3 132.8 360.5 132.7"/><path d="m359.5 133.2c0.4 1.2-0.5 2.2-0.3 3.1-0.7-0.2 0-1-0.3-1.5 0.6-0.3-0.3-1.3 0.6-1.6z"/><path d="m360.5 134.6-0.1 0.2c0-0.5 0.1-1 0.1-1.6 0.3 0.3 0.3 1 0 1.4z"/><path d="m360.5 135.3c0.2 0.1-0.1 0.3 0 0.4l-0.2-0.4h0.2z"/><path d="m358.8 137c0.1-0.1 0.1-0.2 0.2-0.3-0.1 0.1-0.2 0.2-0.2 0.3z"/><path d="m360.7 135.9c-0.6 1.2-0.1 2.8-0.3 4.3-0.4 1.1-0.1 2.4-0.5 3.4-0.1 0.5 0.5 1.1-0.2 1.3 0.1 0.9-0.7 1.3-1 2.1-0.4 0.2-1 1-1.6 0.4 0.5-1.3 0.9-2.6 1.1-4-0.5-0.8 0.6-1.5 0.1-2.1l0.6-3.7c0.1-0.3-0.3-0.5-0.3-0.8-0.2 0.5-0.3 1-0.3 1.5-0.7 1.8-0.3 3.4-1.1 5.3 0.2 1.2-0.7 2.3-1.3 3.5-0.4 0.9-1.4 1-1.6 1.9l0.7-0.2c1-0.9 2.6 0 3.8-1.1 3-3.4 1.8-7.8 1.9-11.8z"/><path d="m349 117.5c-0.1 1 0.6 2.2 1.5 2.7 1.3 0.7 1.7-0.3 2.9-0.6" fill="none" stroke="#000" stroke-width=".5938"/><path d="m342.3 149.5c0.6 0.1 7.6 3.2 10.3 4.3-2.5-1.8-5-3.5-7.5-5-1.3 0.2-3.2 0.6-2.8 0.7z" fill="#fff"/><path d="m359.9 148.5-13.7 0.1s-0.5 0.1-1.1 0.2c2.6 1.5 5.1 3.2 7.5 5 0.5 0.2 0.8 0.3 0.9 0.3 0.7 0.1 7.1 1 7.1 1l1.5-0.7 1.5-6.9 0.4-1.9-4.1 2.9z" fill="#fff"/><line x1="336.5" x2="332.9" y1="144.7" y2="160.9" fill="#fff" stroke="#000" stroke-width="1.3"/><line x1="364.5" x2="362.8" y1="141.4" y2="166" fill="#fff" stroke="#000" stroke-width="1.3"/></svg>
