<?xml version="1.0" encoding="UTF-8"?>
<!DOCTYPE svg  PUBLIC '-//W3C//DTD SVG 1.1//EN'  'http://www.w3.org/Graphics/SVG/1.1/DTD/svg11.dtd'>
<svg width="184.25px" height="226.77px" enable-background="new 0 0 184.252 226.771" version="1.1" viewBox="0 0 184.25 226.77" xmlns="http://www.w3.org/2000/svg"><rect width="184.25px" height="226.77px" fill="#fff"/><linearGradient id="a" x1="53.684" x2="61.016" y1="217.8" y2="196.46" gradientUnits="userSpaceOnUse"><stop stop-color="#fff" offset="0"/><stop stop-color="#EDEDED" offset="1"/></linearGradient><path d="m87.667 218.33 5.333-24 3-14s-7.667 5.666-19.667 5-14-3.666-20-6.666-14.333-13.333-15.333-14-2 7.333-2 7.333-11.667 29.333-14.667 32 32.333 21.333 63.334 14.333z" fill="url(#a)"/><path d="m121.32 5.89c0.112 0.56 0.225 1.119 0.56 1.566-0.335 1.454 1.119 2.908 0 4.25 0 1.79-0.224 3.131-0.894 4.809-1.119 3.243-1.679 7.046-2.909 10.177-0.782 3.579-2.683 7.045-3.354 10.625-1.454 3.579-2.46 7.046-3.019 10.625-0.672 0.559-0.56 1.23-0.783 2.013-1.678 7.828-4.362 15.545-6.152 23.262 0.225 0.223 0.561 0.447 0.783 0.223 6.711-12.749 10.96-26.617 16.888-39.366 0.111-0.895 0.447-0.895 0.783-1.677 0.446-1.006 0.782-2.125 1.118-3.132 1.342-1.566 1.789-3.69 3.132-5.368l-0.112-0.335c0.896-0.336 1.342-1.79 2.459-1.902 2.461-1.23 5.257-1.342 7.941-0.112l0.783-0.335c-0.112 0.783 0.895 1.342 1.565 1.678 0 0.671 0.447 1.565 0.783 2.237-0.111 1.454 0.224 2.908 0.224 4.138-0.112 0.895-0.782 1.79-0.672 2.684-0.671 0.895-0.446 1.901-0.894 2.685-1.565 5.144-3.579 10.4-4.586 15.657-0.335 0.559-0.559 1.342-0.783 2.013l0.336 0.447c-1.23 0.448-0.111 1.902-1.119 2.461-0.223 1.79-1.453 3.131-1.342 4.92-1.565 3.132-2.348 6.599-3.801 9.73-0.896 2.237-1.791 4.026-2.686 6.375-0.671 1.007-1.118 2.237-1.229 3.355-1.566 1.678-1.901 4.026-3.243 6.04-0.225 0.783-1.23 1.006-0.447 1.901-0.783 1.23-0.672 2.908-0.447 4.25-0.336 0.559 0.111 1.229 0.559 1.677 3.804-2.349 7.94-4.921 11.854-7.27 0-0.559 1.008-0.336 1.344-0.895 1.677-1.678 4.473-2.46 6.15-4.026 4.362-3.131 8.5-6.039 12.302-9.059l0.448-0.112c3.354-3.467 6.71-6.71 11.407-7.157 0.895 0.447 2.124 0.894 3.354 0.783 2.014 1.565 5.703 2.907 4.585 6.598 0.112 1.79-1.229 3.02-1.565 4.585-0.671 1.343-2.237 2.46-2.237 4.026h-0.559c-8.499 7.605-17.111 14.763-25.386 22.144v0.224c-0.783-0.335-0.783 0.783-1.343 1.006-2.236 2.236-4.361 4.25-6.486 6.599-0.783 0.335-1.678 1.454-2.461 1.901-0.671 0.447-1.23 1.006-1.9 1.565-2.462 6.821-5.703 13.757-9.171 20.354-3.69 5.814-8.276 11.631-12.078 17.11l0.11 0.112c-3.689 4.697-6.821 10.289-10.176 14.873 0.447 0.783-0.336 1.119-0.671 1.79-0.783 1.565-1.007 3.355-1.79 4.81-0.671 2.236-1.565 4.697-1.901 6.822-0.447 1.006-1.453 0.447-2.124 0.336 0.111-0.672-1.454-0.896-0.336-1.455-0.336-0.67 0.56-0.559 0.56-1.229 0.447-2.014 1.23-3.691 1.9-5.592 0.224-0.671 0.672-1.677 0.783-2.349 1.118-1.79 0.894-4.026 2.685-5.48 0.67-0.111 1.005-0.67 1.118-1.23 4.809-7.716 10.177-15.434 15.769-22.703-0.112-0.559 0.671-0.67 0.783-1.117 4.249-5.703 7.27-11.967 10.065-18.453 1.788-3.467 2.684-7.381 4.474-10.961 0.334-0.334 0.894-0.782 1.342-0.334 0.111 0.334 0 0.895 0.446 1.006 1.902-1.901 3.579-3.803 5.704-5.815-0.223-0.448 0.336-0.335 0.56-0.671 8.499-8.499 18.677-16.552 27.624-25.163 0.335-0.223 0.894-0.671 1.005-1.229l-0.111-0.112c-1.453 0.335-2.571 1.677-4.361 1.23-2.014-0.895-3.243-3.02-3.579-5.033 0.112-2.237 0.336-4.585 2.461-5.592v-0.111c-1.789 0.335-3.131 1.9-4.585 2.908-0.56 0.782-2.014 1.229-1.79 2.572-0.446 1.007-1.9 0.447-2.237 1.678-0.335 0.112-0.67 0.447-1.005 0.335-5.369 3.914-10.514 7.717-15.993 11.072-5.257 2.907-10.401 6.374-15.321 9.506-0.56-1.007-2.126-0.783-2.014-2.013-1.118-0.56-0.447-1.901-1.23-2.46 0.447-2.014 0-3.914 1.454-5.592h0.337c0.78-3.132 2.683-5.815 3.577-8.835 1.231-1.789 1.79-4.137 2.796-6.039 0.448-1.565 1.343-3.131 1.79-4.585 1.006-2.349 1.678-4.809 2.349-7.381-3.132-3.131-7.494-5.368-12.078-4.362l-0.112 0.224c1.9 1.342 4.361 2.46 6.599 3.467v0.218c-2.349-0.67-4.361-1.901-6.711-2.684l-0.115 0.784c-0.56-0.112-0.224-1.006-0.895-1.119-0.336 0.335-1.007 0.671-0.56 1.119h-0.336c-2.013 4.249-3.243 8.947-6.151 12.749l0.113 0.224c-1.454 0.783-1.678 2.907-2.909 4.25l0.225 0.224c-1.118 1.006-1.007 3.579-3.243 3.355-0.896-0.56-2.014-1.007-2.126-2.125 0.225-1.119 2.014-0.895 1.566-2.349 0.336-0.671 0.56-1.454 0.447-2.013 1.007-2.796 1.678-5.927 2.461-8.834 0.895-2.572 1.118-4.585 1.901-7.27 0-0.783 0.56-1.79 0.111-2.572 0.895-1.119 0.671-2.572 1.007-3.914-2.908-1.342-5.928-2.349-8.724-4.138 1.565 0.783 3.803 1.565 5.592 2.572 1.119-0.112 2.237 0.559 3.356 0.447 0.222-0.224 0.335-0.895-0.113-1.23-2.796-2.349-6.486-2.796-9.952-3.355h-2.126v-0.224c3.579 0.447 7.381 0.112 10.514 2.013 0.895-0.336 1.341 0.56 2.124 0.783 0.559-2.125 1.9-3.914 2.013-6.039 1.118-3.69 2.125-7.157 3.579-10.736 0.671-2.684 1.79-5.815 2.349-8.723 1.342-3.243 2.237-6.711 2.237-10.625l-0.225-0.336c-1.789 1.902-2.125 4.139-3.354 6.263l0.224 0.783c-2.573-0.336-5.592-0.783-8.276-1.566-0.67-0.559-0.67-1.454-1.229-2.125-1.342 0.559-0.783 1.901-1.566 2.796-0.336 1.23-0.783 2.348-1.453 3.355 0.335 0.671-0.783 1.23-0.336 1.79-1.343 1.565-1.343 3.355-2.014 5.145-1.006 1.677-1.454 3.69-2.237 5.48-1.229 3.914-3.018 7.716-4.137 11.52l0.111 0.335c-0.559 0.335-0.67 1.342-0.783 1.901-2.907 8.611-5.256 17.111-7.939 25.723l-0.335 0.224-4.251-1.566c0.113-1.23 0.56-3.02 0.896-4.138-1.231-7.045 0.111-14.539-0.112-21.472-3.243-1.343-7.156-1.454-10.624-1.901-0.336 0.335 0.223 1.006-0.225 1.23-0.335-1.007-1.229-1.566-2.124-1.79 0.446 0 1.006 0.336 1.565 0.111 0.672-2.46 3.243-2.572 5.256-3.02 0.895-0.111 1.342 0.671 2.237 0.112 1.453 0.224 2.684 0.447 4.138 1.007 0.56-3.131 0.224-6.486 0.56-9.618-0.448-1.118 0.335-1.789 0-3.02-0.336-1.342 0-2.684-0.224-4.361 1.789-1.119 0.783-3.915 1.566-5.592 0.111-1.119 0.446-2.46 0.446-3.691l-0.335-0.111c-0.783 0.671-1.007 2.46-2.573 2.125-2.571 0.111-4.921-0.896-7.492-1.119-0.336-1.342-0.336-2.908-0.447-4.361-2.46 6.374-3.243 12.973-4.473 19.906l0.222 0.224c-0.559 1.229-0.335 2.796-0.559 4.025-0.671 2.461 0.112 4.585-0.671 7.046l0.56 0.447c-0.225 0-0.335-0.224-0.448 0-0.67 7.717-1.564 16.104-2.46 23.71 0.224 0.67-0.335 1.342-0.335 2.125-0.336 1.565 0.112 3.691-0.782 4.921 0.446 0.671-0.672 1.118-0.337 1.901-0.671 0.67-0.335 1.677-1.229 2.348 0.224 0.335-0.225 0.783-0.56 1.007-0.783 0.335-1.118 1.342-1.566 2.125-0.895 1.79-2.124 4.026-3.131 6.039-1.677 3.691-3.242 7.941-6.486 10.736-0.335 0.335-0.782 0.224-1.343 0.224 0-0.335-0.67-0.895-0.111-1.23 0-0.224 0.447-0.671 0.783-0.895 1.006-2.013 2.685-4.026 3.243-6.263 0.335-0.447 0.783-0.894 0.783-1.565h-0.225c0.783 0.112 0.56-1.007 1.008-1.23 0.335-1.119 1.118-2.013 1.453-3.131 1.901-3.131 3.355-6.375 5.144-9.73 2.015-3.578 1.344-8.499 2.237-12.19 0.337-4.026 1.007-7.269 1.231-11.295-0.336-0.223-0.112-0.447 0.11-0.67 0.225-2.461 0.225-5.033 0.56-7.27-0.224-0.336-0.56-0.448-0.782-0.448 1.23 0.225 0.782-1.565 1.006-2.236 0-3.578 0.895-6.821 0.895-10.624 0.672-2.125 0.895-5.145 1.454-7.381 0.783-3.69 1.566-6.487 2.35-9.954l0.223-0.112c0.782-2.125 1.454-4.361 2.46-6.375 1.23-0.895 2.796-0.447 4.026-1.23 1.454-0.112 2.907-0.112 4.361 0.111 0.448 0.447 1.119 0.672 1.791 0.672 0.111 0.671 0.894 1.006 1.342 1.454 0.782 1.342 1.118 2.907 1.341 4.361h0.225c-0.447 0.448-0.112 0.896-0.112 1.455 0.671 0.895-0.335 1.901 0.112 2.908-0.447 0.783 0.111 1.454-0.447 2.125-0.336 3.131-0.896 6.151-1.678 9.395 0 2.125 0.335 4.026 0 6.151 0.335 0.783-0.224 1.901 0.111 2.684-0.56 1.677-0.111 3.691-0.447 5.256 0.112 1.006-0.335 1.901 0 2.908-0.335 0.223-0.335 1.006-0.224 1.566-0.111 0.783-0.111 2.013 0 2.796-0.447 0.447-0.111 1.006-0.223 1.565-0.113 0.895-0.113 2.013 0 3.02-0.561 4.809-0.449 9.282-0.225 14.091 0.447 0.895 0.336 1.789 0.447 2.685 1.341-2.349 1.678-5.256 2.349-7.717 1.007-2.46 1.678-5.144 2.125-7.717 0.895-0.783 0.671-2.236 1.229-3.354-0.223-0.56 0.671-1.119 0.671-1.79 4.027-12.75 8.836-25.387 13.757-37.465h-0.225c1.119-1.006 1.119-2.572 1.902-3.803l-0.224-0.335c0.559-0.336 1.118-0.783 1.118-1.565 1.006-0.783 2.125-0.896 3.02-1.902 0.67-0.224 1.341-0.224 1.9-0.559 3.356 0.106 6.935 1.225 8.835 4.356z"/><path d="m116.29 4.883c0.671 0 1.23 0.448 1.789 0.783 0.447 0.112 0.56 0.447 0.783 0.895v0.559c-1.901-1.789-4.36-1.789-6.71-2.125l-0.896 0.112c0-0.336 0.336-0.672 0.671-0.783 0.56 0.335 1.119-0.112 1.455-0.335 0.895 0.111 2.125 0.336 2.908 0.894z" fill="#fff"/><path d="m83.97 6.114c-2.014-0.224-4.474-0.783-6.486-0.335-0.336 0.447-0.895 0.224-1.454 0.111 0.895-0.335 1.566-0.111 2.46-0.782 1.678-0.112 3.914-0.56 5.48 1.006z" fill="#fff"/><path d="m117.74 7.232c0.896 0.671 0.336 1.565 0.113 2.349l-2.796 5.703c-2.125-0.447-4.362-1.006-6.375-1.789-1.566-2.237-0.112-4.473 0.111-6.822 1.901-1.901 5.146-0.783 7.382-0.112l1.565 0.671z" fill="#fff"/><path d="m84.864 9.133c-0.336 1.678-1.342 3.132-2.236 4.474-2.573 0.447-4.81-0.671-7.269-1.006-0.225-1.901-0.337-4.25 0.111-6.151 2.013-0.224 3.579-0.224 5.703 0 1.455 0.335 3.58 0.894 3.691 2.683z" fill="#fff"/><path d="m133.4 23.225c1.566-0.447 3.132 0.336 4.474 1.119 0.113 0.447 0.225 0.783 0.225 1.23-1.902-1.006-4.25-1.342-6.263-1.901 0.223-0.335 1.006-0.335 1.564-0.56v0.112z" fill="#fff"/><path d="m138.32 27.139c0.67 1.006-0.782 1.565-0.335 2.572-0.672 1.342-1.119 3.019-2.796 3.355-1.902 0-4.251 0.111-5.257-1.901-0.224-1.901-0.335-3.69 0-5.48 0.224-1.79 2.124-1.23 3.354-0.895 1.679 0.56 3.58 1.007 5.034 2.349z" fill="#fff"/><path d="m130.72 33.849c2.013 0.447 4.36 1.006 6.262-0.112-1.229 4.25-2.685 8.724-3.802 13.085-0.896 4.026-2.349 7.94-3.356 11.854-1.341-1.006-2.907-2.796-4.808-3.243-2.461-1.007-5.479-2.461-8.275-1.007 0-1.006 0.559-2.013 1.118-2.908 0.446-1.789 1.229-3.243 1.789-5.032 0.335-0.783 1.229-1.454 1.007-2.461 2.236-5.256 4.585-10.624 7.27-15.769l0.336-0.671c-1e-3 2.238-0.114 5.034 2.459 6.264z" fill="#fff"/><path d="m82.739 40.447-0.111 1.902c-3.578-0.335-7.269-0.335-10.736-1.119 1.453-3.02 4.809-2.348 7.717-2.236 1.118 0.335 2.237 0.671 3.13 1.453z" fill="#fff"/><path d="m97.726 43.355 0.447 0.224-0.447-0.224z"/><path d="m98.62 44.026h0.225-0.225z"/><rect x="99.403" y="44.25" width=".111" height=".112"/><polygon points="124.9 59.348 124.45 59.124 124.79 59.236"/><path d="m125.91 59.684c-0.224 0.224-0.56-0.112-0.671-0.224 0.112 0.224 0.56-0.112 0.671 0.224z"/><path d="m23.914 59.907c0 0.559 0.671 0.447 1.006 0.559 2.236-0.112 4.027 1.454 6.04 1.901 0.111 0.896 1.342 0.559 1.9 1.119 3.02 1.79 5.48 4.473 8.052 6.822 3.468 4.698 5.48 10.96 8.053 15.993 0.783 1.566 1.342 3.355 2.685 4.473 0.111 0.559-0.56 0.783-0.672 1.118-1.006 0.336-1.565-0.894-2.236-1.565-1.342-2.796-2.572-5.704-3.691-8.276-1.005-0.112 0-0.783-0.559-1.23-1.789-3.244-2.907-7.045-5.815-9.506-3.131-2.572-6.374-5.591-9.729-6.822-0.783-0.223-1.232-0.895-2.126-0.783l-0.111-0.224c-3.244-0.671-6.599-2.013-9.729-0.56-1.791 1.007-2.572 2.796-3.579 4.361-0.111 0.56 0.11 1.007 0.447 1.342 0.56-0.112 0.335 0.56 0.56 0.895 1.453 1.231 3.019 0.448 4.585 1.231 2.348 1.342 4.473 2.348 6.71 3.802 0.111-0.559 0.67-1.118 1.342-1.118 0.224 0.336 1.119 0.224 1.006 0.895 0.337 1.901 0.225 4.026 1.118 5.48-0.446 0.335 0.225 0.671 0.112 1.118 3.356 18.006 6.822 36.124 12.749 53.793 0.896 0.782 0.783 2.013 1.455 2.795-0.336 0.896 0.223 1.679 0.447 2.461 0.112 2.014 0.334 4.025 0.894 5.928h0.224c-0.111 3.243 1.231 6.486 1.119 9.842 0.112 1.678 0 3.578 0.335 5.367-0.335 0.561-0.782 1.119-1.005 1.678-1.008 0-1.791-0.559-1.902-1.565 1.229-1.118 0-2.572 0.336-3.802-0.112-2.797-0.336-5.816-1.119-8.611-0.671-5.369-1.564-10.849-3.467-15.881-4.138-14.092-7.828-27.624-10.399-42.163-1.008-4.361-1.791-8.835-2.685-13.308-3.132-1.79-5.815-4.138-9.507-4.809-0.783-0.671-1.678-0.447-2.572-0.895-0.894-0.783-2.236-1.566-2.685-2.685h-0.223c0.559-1.454-0.561-3.354 1.23-4.25 1.118-0.895 0.67-3.243 2.571-3.02 1.008-0.671 2.126-1.342 3.355-1.454l0.335-0.336c1.454 0.112 3.243-0.447 4.587 0.112l0.558-0.222z"/><rect x="164.04" y="67.177" width=".111" height=".111" fill="#fff"/><path d="m168.52 69.301c1.229 0.223 0.896 1.678 1.565 2.349l-0.111 0.223c-1.678-1.565-3.021-3.467-5.145-4.361 1.119 0.559 3.132 0.447 3.691 1.789z" fill="#fff"/><path d="m169.19 73.663c-0.225 3.131-3.579 3.131-5.816 4.139-1.788-0.448-2.795-2.461-3.241-4.026l0.446-3.132c1.118-0.67 1.678-2.46 3.132-2.684 2.572 0.558 4.809 3.242 5.479 5.703z" fill="#fff"/><path d="m151.74 89.991 0.11 1.118c-0.559-0.559-0.782-1.342-0.894-2.125-1.23-2.125-3.132-4.697-5.592-5.928-0.225-0.223 0-0.559 0.223-0.559 3.244 1.231 4.922 4.586 6.153 7.494z"/><rect x="118.42" y="96.03" width=".111" height=".224"/><path d="m42.367 163.13c8.835 14.763 25.386 23.373 42.608 20.242 3.244-0.559 6.486-1.565 9.618-2.461 0.56-0.782 0.783-2.571 2.349-2.571 1.119 1.118-0.111 2.349 0.225 3.467-0.448 1.118-1.007 2.46-1.343 3.579 0.112 1.006-0.671 1.564-0.447 2.572-0.56 1.565-1.006 3.355-1.23 4.92-1.565 4.586-2.571 9.618-3.579 14.203 0.225 0.336 0 0.447-0.223 0.671-0.112 1.565-0.783 2.796-1.007 4.362-0.336 0.111-0.672 0.336-1.118 0.111l-0.56-0.671c0.782-1.007 0.336-2.796 0.672-4.026 1.006-6.934 3.578-13.309 4.809-20.13 0.447-1.565 0.783-3.579 1.453-5.257-12.748 6.375-30.308 3.914-41.267-4.585-4.474-3.132-7.718-7.382-10.96-11.407-0.447 2.46-1.455 4.475-2.35 6.71 0 0.782 0 1.565-0.783 2.125-0.446 1.23-0.782 2.572-1.341 3.69-1.677 4.25-3.021 8.164-5.033 12.19-0.447 1.79-1.342 3.354-2.236 4.921-0.224 2.348-2.014 4.138-3.243 5.927-0.56-0.111-1.566 0.225-1.901-0.559-0.111-0.671 0.111-1.454 0.894-1.454 2.574-4.809 4.811-10.289 6.823-15.434 0.446-1.006 1.118-2.236 1.229-3.243l1.119-2.46c-0.56-0.447 0.447-0.447 0.335-1.007 2.236-4.585 3.02-9.841 5.032-14.315 0.447 1e-3 1.008-0.335 1.455-0.11z"/></svg>
