<?xml version="1.0" encoding="UTF-8"?>
<svg width="226.8px" height="226.8px" enable-background="new 0 0 226.8 226.8" version="1.1" viewBox="0 0 226.8 226.8" xmlns="http://www.w3.org/2000/svg"><rect width="226.8px" height="226.8px" fill="#fff"/><style type="text/css">.st0{fill:#FFFFFF;} .st1{fill:url(#a);} .st2{fill:none;stroke:#000000;stroke-width:2;stroke-linecap:round;} .st3{fill:none;stroke:#000000;stroke-linecap:round;} .st4{fill:none;stroke:#000000;stroke-width:0.5;stroke-linecap:round;}</style><rect class="st0" width="226.8" height="226.8"/><linearGradient id="a" x1="23.754" x2="31.327" y1="-620.5" y2="-609.25" gradientTransform="matrix(.9829 -.1842 -.1842 -.9829 -52.038 -398.65)" gradientUnits="userSpaceOnUse"><stop stop-color="#fff" offset="0"/><stop stop-color="#EDEDED" offset="1"/></linearGradient><polygon class="st1" points="112.5 223.2 118.5 195.2 119 187.4 108.5 186.4 93.5 180.6 82.8 171.7 78.4 164.3 55.4 198.2"/><path class="st2" d="m62.4 189.6s18.3-28.6 20.5-32.9 9.2-58.2 9.2-58.2c0.6-6.5 4.2-15.1 5.2-17.9s6.8-22.7 6.8-22.7l10.5-26.4"/><path class="st2" d="m114.6 32.8c1.8-5.8 3.5-11.8 9.4-10.7 4.3 0.8 4.8 3.4 4.8 3.4"/><path class="st2" d="m112.7 88.7s5.3-26.6 7.1-31.2 8.2-25 8.2-25"/><path class="st2" d="m128.6 34.3s0-11.5 3.9-11.9 14-1 9.8 18-5.2 18.8-9.7 48.7"/><path class="st2" d="m131 94.7s9.3-11.4 12.6-11.4 8.3 3.7 7.5 7.7-9.7 18.4-9.7 18.4"/><path class="st2" d="m151.4 95.3c0.5-0.2 5.8 3.6 6.3 9.2 0.5 5.7-4.6 17.2-7.5 21.1"/><path class="st2" d="m151.1 120.8s-2.2 4.3-2.8 10.3c-1.1 12.1-13.6 42-26.4 48.9 0 0-6.7 29.6-7.8 36.6"/><path class="st3" d="m80.1 166.8s10.9 20.6 37 20.3"/><path d="m130.9 26.6v1s0 1.5 0 2.6c0 0.5 0 1.1 0.1 1.7 0 0.3 0.1 0.6 0.1 0.9 0.1 0.3 0.1 0.6 0.3 0.7 0.1 0.1 0.5 0.3 0.7 0.4 0.3 0.1 0.6 0.2 0.9 0.3 0.7 0.2 1.3 0.4 2 0.5s1.4 0.3 2.1 0.3h0.9c0.1 0 0.2 0 0.2-0.1l0.4-0.4c0.4-0.4 0.8-0.9 1.1-1.4s0.5-1.1 0.7-1.6c0.3-1 0.5-1.9 0.6-2.5s0.1-1 0.1-1 0 0.1 0 0.3v0.7c0 0.6-0.1 1.5-0.3 2.6-0.1 0.5-0.3 1.1-0.5 1.7-0.3 0.6-0.6 1.2-1.1 1.8-0.1 0.1-0.3 0.3-0.5 0.4-0.1 0.1-0.2 0.1-0.3 0.2l-0.2 0.1c-0.5 0.1-0.8 0.1-1.2 0.1-0.7 0-1.5-0.2-2.2-0.3s-1.4-0.3-2.1-0.5c-0.3-0.1-0.7-0.2-1-0.4s-0.6-0.3-1-0.6c-0.4-0.4-0.4-0.8-0.5-1.1 0-0.3-0.1-0.7-0.1-1 0-0.6 0-1.2 0.1-1.8 0.4-2.2 0.7-3.6 0.7-3.6z"/><path d="m117.6 25.7s0 0.3-0.1 0.9-0.1 1.5-0.2 2.5c0 0.5-0.1 1.1-0.1 1.6 0 0.6 0 1.2 0.1 1.7 0 0.2 0.8 0.5 1.3 0.7 0.6 0.2 1.3 0.3 1.9 0.4 0.7 0.1 1.3 0.2 2 0.3h0.9 0.4c0.2 0 0.3-0.1 0.4-0.1 0.5-0.2 0.9-0.6 1.3-1 0.3-0.4 0.6-0.9 0.8-1.3 0.4-0.9 0.6-1.7 0.7-2.3s0.2-0.9 0.2-0.9 0 0.1 0 0.2v0.7c0 0.6 0 1.5-0.4 2.5-0.2 0.5-0.4 1.1-0.7 1.6s-0.8 1-1.5 1.4c-0.2 0.1-0.4 0.2-0.5 0.2-0.2 0.1-0.4 0.1-0.6 0.1h-1.1c-0.7 0-1.4-0.1-2.1-0.2s-1.4-0.3-2-0.5c-0.3-0.1-0.7-0.2-1-0.4s-0.8-0.4-0.9-0.9c-0.2-0.8-0.1-1.4 0-2s0.2-1.2 0.3-1.7c0.5-2.2 0.9-3.5 0.9-3.5z"/><path class="st4" d="m121.7 58s6.6-0.8 10.8 2.8"/><path class="st4" d="m121.3 60.6s4.7 2.1 11 1.9"/><path class="st4" d="m106.5 56.1s6.6-0.8 10.8 2.8"/><path class="st4" d="m106.1 58.7s4.7 2.1 11 1.9"/><line class="st2" x1="109.6" x2="113.8" y1="89.1" y2="83.3"/><line class="st2" x1="142.3" x2="142.1" y1="107.7" y2="110.6"/><path d="m118.2 24.2h0.4c0.2 0 0.6-0.1 1-0.2 0.8-0.2 2-0.4 3.1-0.3 0.6 0.1 1.2 0.1 1.7 0.3 0.5 0.1 1 0.3 1.4 0.5s0.7 0.4 0.9 0.6c0.2 0.1 0.3 0.2 0.3 0.2s-0.1 0-0.4-0.1c-0.2-0.1-0.6-0.2-1-0.3s-0.9-0.2-1.4-0.3c-0.2-0.1-0.5-0.1-0.8-0.1s-0.5-0.1-0.8-0.1c-1.1-0.1-2.2 0-3-0.1-0.4 0-0.8 0-1-0.1-0.3 0.1-0.4 0-0.4 0z"/><path d="m131.6 24.7h0.4c0.2 0 0.6-0.1 1-0.2 0.8-0.2 2-0.4 3.1-0.3 0.6 0.1 1.2 0.1 1.7 0.3 0.5 0.1 1 0.3 1.4 0.5s0.7 0.4 0.9 0.6c0.2 0.1 0.3 0.2 0.3 0.2s-0.1 0-0.4-0.1c-0.2-0.1-0.6-0.2-1-0.3s-0.9-0.2-1.4-0.3c-0.2-0.1-0.5-0.1-0.8-0.1s-0.5-0.1-0.8-0.1c-1.1-0.1-2.2 0-3-0.1-0.4 0-0.8 0-1-0.1-0.3 0.1-0.4 0-0.4 0z"/></svg>
