<?xml version="1.0" encoding="UTF-8"?>
<svg width="274.67px" height="226.77px" enable-background="new 0 0 274.667 226.771" version="1.1" viewBox="0 0 274.67 226.77" xmlns="http://www.w3.org/2000/svg"><rect width="274.67px" height="226.77px" fill="#fff"/><style type="text/css">.st0{fill:#FFFFFF;} .st1{fill:url(#b);} .st2{fill:url(#a);} .st3{fill-rule:evenodd;clip-rule:evenodd;fill:#FFFFFF;} .st4{fill-rule:evenodd;clip-rule:evenodd;} .st5{fill:none;stroke:#000000;stroke-width:1.14;} .st6{fill:none;stroke:#000000;stroke-width:1.235;} .st7{fill:none;stroke:#000000;stroke-width:0.969;} .st8{fill:none;stroke:#000000;stroke-width:0.7125;} .st9{fill:none;stroke:#000000;stroke-width:2;}</style><rect class="st0" width="274.67" height="226.77"/><linearGradient id="b" x1="127.08" x2="169.36" y1="179.89" y2="162.72" gradientUnits="userSpaceOnUse"><stop stop-color="#fff" offset="0"/><stop stop-color="#DADADA" offset="1"/></linearGradient><polygon class="st1" points="136.88 210.17 154.16 176.22 161.37 163.02 160.64 160.61 152.74 156.28 146.67 150.72 145.31 138.23 120.79 162.41"/><linearGradient id="a" x1="13.102" x2="48.111" y1="184.43" y2="164.94" gradientUnits="userSpaceOnUse"><stop stop-color="#fff" offset="0"/><stop stop-color="#DADADA" offset="1"/></linearGradient><polygon class="st2" points="25.719 215.74 39.604 185.82 48.741 168.05 42.449 164.48 34.656 156.28 27.225 138.23 2.697 162.41"/><path class="st3" d="m27 139.05s4.667-5.667 5.667-6.667 7.667-15 7.667-16 9-20.667 9.333-22.667 1-4 3.667-5 25-7.667 27.667-8.333 12-1 15.667-1 21 1.333 21 1.333 3 5.667 2.667 6.667 0 1.667-2.333 2.667-10.666 3.333-12.333 3.333-12.669 1.666-12.669 1.666 3 1 3 5.667-0.667 7-0.667 7 2.333 3 2.333 5.667-0.334 5.667-1.667 7.667 0-0.666 0.333 3 1 5.666-1 8.666-6 6.334-7.667 7.334-10.667 3-10.667 3l-0.667 2.666s-0.667 6.666-8 11-15 6-15 6l-3 5-5.333-1-8.333-7.333-7-9.333-2.665-11z"/><path class="st3" d="m145.33 139.39s6-7 8.333-11 10-22.667 10-22.667 2.333-10 5-14.667 3-7.333 5.667-8.667 5.333-1 5.333-1 2.667-5 5-5.667 28.334-0.332 29.334-0.332 24.333 7.667 24.333 7.667 5.333 1.667 6.667 2.667 2.667 2.333 2 3.667-4 3-4.333 4 3 1.667 3 4.333-1 6.333-3 6.333-7 1-7 1 0 6-2.667 6.333-5.333 1-6.667 1-6-1-6.667 0-2 4.667-6 5.667-10.666 0.333-10.666 0.333-3 9-7.333 14-12.667 10.001-15 10.667-1.667-0.334-4 2.666-4.667 5.334-7.333 6.334-5.667 6-5.667 6l-1 2.666s-5.667-0.666-9-2.333-6.667-6.334-7-7.667-1.667-6.666-1.667-6.666l0.333-4.667z"/><path class="st3" d="m69.375 61.896c0.056 0.258 0.383 0.34 0.623 0.291 0.133 0.145 0.357 0.197 0.457 0.375 0.689 0.084 0.847 0.703 1.453 0.871 0.16 0.324 0.502 0.467 0.664 0.789 0.062 4e-3 0.188 0.055 0.292 0.125 0.313 0.395 0.645 0.939 1.079 1.328 8e-3 0.118 0.076 0.173 0.082 0.291 0.258 0.096 0.252 0.387 0.376 0.623 0.015 0.031 0.146 0.075 0.165 0.125 0.018 0.043-0.025 0.127 0 0.166 0.156 0.242 0.45 0.484 0.54 0.748 0.02 0.059-0.026 0.148 0 0.208 0.111 0.251 0.339 0.474 0.415 0.747 0.103 0.37 0.139 0.803 0.332 1.204 0.137 0.282 0.283 0.485 0.29 0.747 4e-3 0.124-0.056 0.251-0.04 0.373 0.049 0.412 0.238 0.847 0.248 1.246 6e-3 0.268-0.136 0.465 0.125 0.623-0.135 0.165 0.031 0.379-0.125 0.498 0.012 0.086 0.154 0.04 0.166 0.125 0.023 0.398 0.097 0.838-0.082 1.121 0.295 1.109-0.057 2.354 0.082 3.197-0.287 1.207-0.521 2.48-0.414 3.779 0.07 0.164 0.287 0.183 0.332 0.375-2.109 0.428-4.135 0.9-6.188 1.286-0.061 9e-3 -0.015 0.124-0.083 0.126-1.751 0.385-3.348 0.742-5.024 1.162-0.326 0.082-0.7 0.139-0.997 0.25-0.573 0.213-1.889 0.504-2.74 0.787-0.316 0.106-0.865 0.239-1.162 0.458-0.395-0.099-0.512 0.134-0.916 0.165 0.896-0.299 1.24-1.307 1.744-2.076 0.387-0.586 0.6-1.246 0.873-1.91 0.082-1e-3 0.053-0.113 0.166-0.084-0.027-0.248 0.17-0.271 0.124-0.539 0.063-0.021 0.105-0.062 0.167-0.082-0.064-0.395 0.255-0.625 0.414-0.955 0.09-0.186 0.048-0.406 0.126-0.623 0.093-0.26 0.3-0.508 0.415-0.79 0.115-0.28 0.168-0.616 0.291-0.913 0.106-0.263 0.303-0.512 0.373-0.746 0.123-0.414 0.108-0.716 0.209-1.123 0.057-0.232 0.207-0.429 0.248-0.664 0.078-0.447 0.047-0.926 0.291-1.246 0.182 0.108 0.205 0.377 0.54 0.333 0.189-0.227 0.416-0.414 0.663-0.581 0.081-1.049-0.321-2.297-0.373-3.281 0.037-0.134-0.137-0.058-0.125-0.166-0.331-1.786-0.492-4.279-0.582-5.98 0.269-0.936 0.334-2.18 1.039-2.783 0.236 0.016 0.375-0.068 0.499-0.165 0.293 0.03 0.446-0.081 0.623-0.166 0.843 0.01 1.589 0.275 2.325 0.331z"/><path class="st3" d="m121.12 83.034c-0.042 0.386-0.017 0.604 0.167 0.83 8e-3 0.104-0.093 0.102-0.124 0.166 0.163 1.568-0.24 3.495-1.08 4.195-0.194-4e-3 0.03-0.076 0.042-0.125-0.096-0.093-0.256 0.104-0.374 0.125-0.519-1e-3 -0.991-0.039-1.537 0-0.214 0.016-0.491-0.104-0.665-0.082-0.217 0.026-0.526 0.173-0.871 0.124-0.092-0.015-0.162-0.103-0.25-0.124-0.17-0.049-0.357 0.018-0.539 0-0.756-0.083-1.536-0.291-2.16-0.5 0.016-0.449-0.358-1.074-0.29-1.578 0.036-0.133-0.138-0.057-0.124-0.166-0.131-1.508 0.086-3.234-0.498-4.734 0.121-0.086 0.139-0.273 0.248-0.373 0.961-0.059 2.043-0.076 3.115-0.125 0.896-0.041 1.867-0.256 2.615-0.125 0.426 0.075 1.323 0.602 1.578 0.955 0.281 0.391 0.367 0.955 0.539 1.453 0.033 0.042 0.147-0.014 0.208 0.084z"/><path class="st4" d="m86.941 84.28c-0.23 0.048-0.24-0.146-0.416-0.041-0.037-0.479 0.494-0.349 0.416 0.041z"/><path class="st4" d="m86.734 84.321c0.116 0.131 0.131 0.424 0.123 0.664 8e-3 0.076 0.142 0.027 0.166 0.084 0.111 0.715 0.386 2.162 0.25 3.031 0.14 0.124 0.188 0.338 0.166 0.623-0.205 0.081-0.246-0.031-0.416-0.083 0.029-0.597-0.24-1.312 0.043-1.577-0.504-0.409-0.182-1.26-0.375-1.786-7e-3 -0.091 0.035-0.134 0.126-0.125-0.073-0.081-0.186-0.119-0.249-0.208 0.037-0.298-0.036-0.47 0.166-0.623z"/><path class="st4" d="m87.98 92.005c0.04 0.127 0.021 0.507-0.209 0.496-0.032-0.076-0.068-0.15-0.082-0.248 0.188 8e-3 0.116-0.242 0.291-0.248z"/><path class="st4" d="m49.732 99.188c0.076 0.465 0.601 0.654 0.58 1.08 0.848 1.021 1.057 3.125 0.582 4.484-0.129 0.931-0.162 2.013-0.206 2.781 0.035 0.135-0.108 0.088-0.125 0.166 0.095 0.284 0.033 1.02-0.083 1.371 0.033 0.755 0.016 1.434 0.166 2.201 0.221 1.131 0.611 2.118 0.954 3.116 0.372 0.485 0.706 1.104 1.038 1.702 0.342 0.609 0.886 1.316 0.832 2.242 0.205 0.223 0.203 0.654 0.372 0.914 0.034 1.566 0.092 3.048-0.124 4.567 8e-3 0.09-0.033 0.132-0.125 0.126-0.01 0.148 0.125 0.15 0.125 0.289-0.014 0.652 0.015 1.131 0 1.91 0.611 2.254 1.084 4.592 2.699 5.98 0.404 0.784 1.097 1.299 1.328 2.242 0.057 0.229-0.035 0.432 0.168 0.582 0.016 1.023 0.023 1.771 0.248 2.616-0.196 0.564 0.397 1.232 0.208 1.578 0.304 0.277 0.244 0.919 0.624 1.121 0.012 0.353 0.387 0.548 0.33 0.831 0.231 0.28 0.537 0.486 0.665 0.871 0.223 0.211 0.607 0.468 0.623 0.748-0.335 0.12-0.625-0.145-0.623-0.498-0.165-0.078-0.181-0.06-0.331-0.166-0.033-0.094 0.02-0.23-0.084-0.334-0.681-0.41-0.986-1.199-1.287-1.992-0.018-0.093-0.219-1e-3 -0.249-0.082-0.067-0.567-0.724-0.73-0.581-1.371-0.01-0.061-0.125-0.015-0.125-0.084-0.156-0.814-0.32-1.787-0.291-2.574 0.037-0.133-0.137-0.057-0.125-0.166-0.137-0.791-0.307-1.547-0.83-1.951-0.076-0.514-0.533-0.731-0.83-1.039-0.254-0.26-0.32-0.705-0.705-0.83-0.044-0.346-0.24-0.535-0.416-0.748-0.189-0.807-0.686-1.529-0.748-2.325-0.802-1.659-0.847-3.693-0.664-5.398 0.083-0.776 0.129-1.519 0.042-2.076 0.109-1.718-0.341-3.005-0.997-4.319-0.014-0.057-0.104-0.033-0.167-0.042 0.107-0.403-0.565-1.017-0.748-1.37-0.099-0.193-0.155-0.463-0.206-0.664-0.316-0.264-0.361-0.803-0.582-1.163-0.018-0.552-0.357-0.88-0.415-1.412-0.096-0.887-0.124-1.911-0.292-2.616-0.012-0.096 0.121-0.045 0.127-0.125 0.029-0.892-0.059-1.704 0.165-2.491-0.095-1.815 0.661-3.332 0.292-5.108-0.32-0.781-0.864-1.822-0.5-2.615 0.139 0.025 0.143 0.123 0.291 0.041z"/><path class="st4" d="m96.077 121.86c-0.22 4e-3 -0.305 0.139-0.54 0.125 8e-3 0.365 0.221 0.526 0.5 0.623 0.455 0.691 1.034 1.264 1.328 2.117 0.012 0.152-7e-3 0.271-0.043 0.375 9e-3 0.117 0.137 0.113 0.168 0.207-0.016 0.125-0.025 0.253-0.125 0.29 0.419 0.673 0.306 1.544 0.249 2.408 0.056 0.388 0.12 0.762 0 1.205-0.149 0.56-0.55 0.798-0.54 1.453-0.375 0.647-0.895 1.188-1.08 1.911-0.176 4e-3 -0.137 0.225-0.29 0.25-2e-3 0.136-0.071 0.206-0.042 0.373-0.233 0.236-0.504 0.438-0.539 0.872-0.447 0.146-0.905 0.61-1.123 1.121-0.319 0.107-0.468 0.39-0.621 0.665-0.076 4e-3 -0.088-0.051-0.166-0.042-0.551 0.639-1.298 1.084-1.869 1.702-0.055-0.053-0.153-0.053-0.209 0-0.428 0.428-1.008 0.709-1.453 1.121-0.68 0.178-1.155 0.562-1.785 0.789-1.956 0.979-3.974 1.896-6.229 2.575-0.076 0.048-0.142 0.108-0.209 0.165-0.775 0.098-1.408 0.479-1.991 0.707-0.173 0.066-0.376 0.043-0.541 0.125-0.415 0.206-0.604 0.691-1.039 0.871 0.059 0.217-0.249 0.336-0.373 0.457-0.123 0.12-0.442 0.43-0.705 0.581-0.103 0.059-0.28 0.055-0.417 0.124-0.219 0.115-0.629 0.41-0.912 0.416-0.11 5e-3 -0.344-0.162-0.54-0.164-0.237-6e-3 -0.334 0.104-0.539-0.084-0.058-0.533 0.544-0.529 0.954-0.748 0.305-0.164 0.467-0.389 0.665-0.498-0.861-0.084-1.801 0.668-2.741 0.209-0.092-0.076-0.033-0.301-0.207-0.293 0.032-0.188 0.101-0.34 0.207-0.457 1.417-0.232 2.984-0.951 4.527-1.328 0.494-0.386 0.424-1.172 0.829-1.578 0.786-0.137 0.837 0.544 0.913 0.996 0.548-0.117 0.982-0.346 1.496-0.498 1.199-0.617 2.791-0.904 3.861-1.619 2.073-0.809 3.816-1.746 5.482-2.908 0.179-0.292 0.56-0.38 0.705-0.705 0.747-0.404 1.186-1.111 1.869-1.578 0.109-0.402 0.574-0.45 0.666-0.871 0.805-0.62 1.027-1.824 1.785-2.493-7e-3 -0.103-9e-3 -0.2 0.081-0.206-0.022-0.061 0.05-0.215-0.04-0.209 0.373-0.704 0.793-1.271 0.789-2.283-0.023-0.147 0.146-0.103 0.124-0.25-0.04-0.657-0.157-1.119-0.167-1.784-0.164-0.674-0.447-1.378-0.706-1.829-0.443-0.422-0.873-0.607-1.203-1.12 0.089-0.163 0.052-0.362-0.041-0.581-0.256 8e-3 -0.52 6e-3 -0.583 0.207-1.457 0.453-2.863 0.784-4.276 1.328-0.316-0.049-0.686 0.161-0.913 0.332-0.186-0.031-0.25 0.055-0.416 0.043-1.312 0.457-2.512 0.801-3.943 1.162-0.061 0.066-0.218 0.032-0.209 0.166-0.479 0.119-1.061 0.255-1.453 0.416-0.086 0.035-0.211 0.1-0.208 0.207-0.129-0.066-0.161-0.036-0.249-0.084-0.611 0.303-1.523 0.443-2.242 0.832-0.129 0.069-0.18 0.211-0.249 0.082-0.059 0.068-0.118 0.133-0.167 0.208-1.028 0.144-1.563 0.534-2.492 0.79-0.104 0.018-0.069 0.179-0.165 0.207-0.388 0.086-0.689 0.173-1.08 0.166-0.503 0.233-0.665 1.449-1.579 1.246-0.453-0.102-0.537-0.665-0.248-1.08 0.039-0.055 0.158-0.062 0.207-0.125 0.072-0.093 0.102-0.288 0.209-0.414 0.156-0.186 0.395-0.356 0.58-0.581 0.32-0.393 0.514-0.722 0.789-0.997 0.385-0.385 0.865-0.654 1.081-0.996 0.639-0.469 1.241 0.221 1.121 0.871 0.849-0.202 1.67-0.434 2.284-0.871 1.289-0.386 2.6-0.752 3.777-1.248 0.34 9e-3 0.575-0.09 0.748-0.248 1.403-0.365 2.811-0.73 4.111-1.162 0.256-0.086 0.535-0.201 0.748-0.375 0.477-0.115 0.939-0.143 1.287-0.457 1.192-0.209 1.788-0.608 2.947-0.914 0.755-0.563 1.691-0.766 2.119-1.701 0.373-0.098 0.389-0.553 0.666-0.748-0.129-0.3 0.107-0.445 0.205-0.664 0.029-0.061-0.031-0.16 0-0.25 0.023-0.061 0.138-0.104 0.166-0.165 0.03-0.063 0.021-0.243 0.043-0.292 0.176-0.399 0.367-0.574 0.373-0.954 2e-3 -0.062-0.055-0.182-0.041-0.249 0.051-0.271 0.245-0.535 0.291-0.831 0.064-0.427 0.037-0.965 0-1.411-0.039-0.439-0.068-0.922-0.25-1.329 2e-3 -0.138 0.118-0.159 0.082-0.333-9e-3 -0.129-0.148-0.127-0.206-0.208-0.043-0.657-0.476-1.251-0.54-1.909-0.285-0.105-0.287-0.317-0.499-0.54-0.336 0.019-0.469-0.169-0.748-0.208 0.011-0.285-0.214-0.34-0.331-0.498 0.166-0.226-0.07-0.426-0.125-0.665 0.18-0.608 1.209-0.698 1.455-0.083 0.195-2e-3 0.252 0.134 0.455 0.125 0.525 0.388 0.764 1.064 1.206 1.536 0.114 0.651 0.278 1.413 0.622 1.952 0.136 0.436 0.02 0.942 0.084 1.287 0.039 0.223 0.203 0.387 0.205 0.623 6e-3 0.381-0.072 0.846-0.123 1.204-0.113 0.79-0.094 1.701-0.416 2.534-6e-3 0.102 0.021 0.172 0.083 0.207-0.158 0.279-0.29 0.34-0.249 0.789-0.226 0.443-0.396 0.758-0.581 1.287-0.406 0.354-0.462 1.061-0.956 1.328 0.014 0.098-6e-3 0.16-0.041 0.209-0.198 0.149-0.56 0.302-0.539 0.539z"/><path class="st4" d="m60.779 142.79c0.049 0.104 0.117 0.188 0.166 0.291-0.115 0.115-0.135-0.076-0.25-0.082-0.035-0.134 0.065-0.13 0.084-0.209z"/><path class="st4" d="m77.141 145.82c-0.078 0.241 0.158 0.35 0.208 0.582-0.081 0.264-0.251 0.439-0.415 0.621-0.081 0.582-0.395 1.076-0.582 1.621-0.205 0.6-0.473 1.152-0.664 1.619-0.145 0.279-0.271 0.339-0.291 0.705-0.312 0.352-0.534 0.795-0.705 1.287-0.242 0.077-0.312 0.326-0.416 0.541-0.178 0.045-0.285 0.158-0.291 0.373-1.757 2.056-4.166 3.361-6.479 4.775-0.097 0.029-0.266 0.048-0.415 0.125-0.114-0.018-0.039 0.154-0.124 0.166-0.632 0.199-1.045 0.617-1.744 0.748-0.088 0.065-0.208 0.096-0.208 0.249-0.691 0.31-1.393 0.571-1.951 0.913-0.88 0.148-1.616 0.627-2.368 0.914-0.387 0.148-0.779 0.233-1.203 0.373-0.352 0.117-0.622 0.305-0.955 0.374-0.883 0.185-1.65 0.078-2.326 0.499-1.191 0.092-2.396 0.224-3.531 0.083 0.117-0.583 0.818-0.22 1.205-0.541 1.483-0.167 2.789-0.661 4.236-1.038 0.867-0.473 2.054-0.632 2.866-1.162 0.44-0.099 0.845-0.235 1.12-0.5 2.084-0.655 3.703-1.776 5.564-2.656 1.168-0.771 2.479-1.513 3.571-2.41 0.345-0.281 0.724-0.535 0.997-0.829 0.25-0.27 0.428-0.594 0.664-0.872 0.039-0.045 0.123-2e-3 0.168-0.041 0.02-0.02 0.342-0.447 0.371-0.5 0.062-0.1 0.082-0.246 0.126-0.371 0.327-0.229 0.411-0.697 0.706-0.957-0.049-0.254 0.139-0.356 0.041-0.539 0.456-0.112 0.251-0.885 0.666-1.039 0.061-1.093 0.816-1.599 0.705-2.74 0.207-0.082 0.345-0.375 0.539-0.582 0.28-0.089 0.569 0.134 0.915 0.209z"/><path class="st4" d="m76.892 81.83c0.192-0.126 0.204-0.091 0.539-0.166 0.083-0.156 0.18-0.292 0.251-0.458 0.543 4e-3 1.158-0.256 1.701-0.248 1.362-0.488 2.873-0.287 4.319-0.789 0.415-0.145 1.011-0.163 1.413-0.209 0.788-0.088 1.604-0.135 2.408-0.205 1.086-0.097 2.127-0.123 3.239-0.168 1.536-0.062 3.047-0.273 4.566-0.291 4.08-0.044 7.915-0.266 12.085-0.164 3.033 0.07 6.059 0.123 9.221 0.164 0.338 5e-3 0.663 0.12 0.996 0 0.649 0.245 1.504-0.143 2.158 0.291 0.182 0.029 0.234-0.07 0.416-0.041 0.365 0.354 1.023 0.418 1.329 0.83 0.136 0.197 0.126 0.539 0.457 0.54 0.372 0.669 0.366 1.376 0.705 1.993-0.03 0.41-0.228 0.543-0.042 0.789-0.371 0.727-0.133 1.814-0.497 2.492 0.101 0.396-0.239 0.755-0.166 1.121-0.218 0.188-0.151 0.438-0.208 0.664-0.148 0.598-0.605 0.99-0.789 1.619-0.616 0.394-0.69 1.33-1.494 1.537-0.057 0.014-0.035 0.104-0.041 0.166-0.299 4e-3 -0.491 0.266-0.749 0.375-0.106 0.044-0.228 6e-3 -0.331 0.041-0.205 0.068-0.311 0.207-0.498 0.248-0.42 0.094-0.918-0.107-1.33 0.168-0.563-0.084-1.32 0.232-1.993 0.207-0.28-0.012-0.576-0.194-0.788 0.082-1.045 0-2.012 0.28-2.949 0.25-2.891 0.625-5.878 0.775-9.054 1.162-1.698 0.238-3.175 0.391-4.942 0.748-0.752-0.046-1.588 0.17-2.115 0.25 0.047 0.283 0.307 0.354 0.539 0.455 0.033 0.342 0.281 0.467 0.581 0.539 0.523 0.751 1.241 1.308 1.37 2.451 0.023 0.094 0.065-0.049 0.123 0.043-1e-3 0.28 0.039 0.312 0.126 0.539-0.081 0.816 0.063 1.523 0.332 2.242-0.198 0.656 0.175 1.521-0.124 2.242 0.039 0.113 0.067 0.238 0.124 0.332-0.501 0.849-0.022 1.619-0.29 2.492-0.27 0.312-0.594 0.568-0.748 0.996-0.132-0.057-0.139-8e-3 -0.289 0-0.229 0.246-0.594 0.352-1.039 0.373-0.525 0.334-1.34 0.379-1.91 0.664-0.436-0.012-0.882 0.248-1.331 0.334-0.149 0.029-0.302-0.021-0.455 0-0.866 0.113-1.753 0.513-2.492 0.498-0.042 0.084-0.155 0.096-0.207 0.166-1.87 0.28-3.522 0.746-5.274 0.914-0.847 0.359-1.995 0.163-2.783 0.582-1.609 0.109-3.615 0.316-5.191 0.83-0.6-0.068-0.973 0.279-1.494 0.249-1.076 0.448-1.963 0.497-3.321 0.831-0.146 0.203-0.371 0.324-0.665 0.457-0.35 0.156-0.496 0.484-0.83 0.746-0.164 0.129-0.508 0.244-0.748 0.417-0.312 0.223-0.486 0.541-1.079 0.372-0.112-0.031-0.023-0.086-0.083-0.125-0.048-0.026-0.166 0.036-0.209 0-0.09-0.072-0.127-0.27-0.207-0.372 0.266-0.376 0.553-0.517 0.914-0.831-0.578 0.037-1.65 0.395-2.159-0.166 0.048-0.541 0.572-0.432 1.079-0.581 0.576-0.173 1.455-0.469 2.16-0.665 0.521-0.145 0.968-0.175 1.328-0.456 0.045-0.036 0.039-0.122 0.083-0.167 0.15-0.146 0.525-0.266 0.746-0.456 0.399-0.343 0.472-0.637 1.165-0.54 0.141 0.23 0.365 0.51 0.249 0.872 0.12 0.052 0.472 0.05 0.622-0.085 5.529-0.956 10.288-1.893 15.406-2.988 0.514-0.109 0.984-0.352 1.536-0.334 0.12-0.045 0.218-0.113 0.292-0.207 0.5-0.082 1.037-0.168 1.535-0.289 1.326-0.328 2.715-0.625 3.324-1.619 0.303 0 0.03-0.105 0.29-0.168-6e-3 -0.246 0.097-0.436 0.333-0.541-0.123-0.45 0.019-0.66 0.207-1.078 0.043-0.49-0.107-0.943 0.084-1.246-8e-3 -0.146-0.119-0.186-0.127-0.332 0.09-0.047-4e-3 -0.282 0.127-0.291-0.185-0.742-0.045-1.682-0.291-2.408-0.102-0.297-0.084-0.779-0.375-1.12 0.012-0.521-0.299-0.853-0.623-1.204-0.256-0.283-0.408-0.359-0.788-0.623-0.333-0.232-0.511-0.359-0.664-0.582-0.088-0.127-0.168-0.284-0.167-0.539 0.18-0.058 0.158-0.297 0.167-0.416-0.972 0.042-2.185 0.07-3.281 0.289-0.198 0.041-0.405-0.01-0.582 0.042-0.145 0.045-0.143 0.163-0.29 0.167-0.704 0.023-1.66 0.209-2.076 0.373-0.134-6e-3 -0.184-0.093-0.334-0.084-1.074 0.076-2.125 0.474-3.238 0.541-0.152 0.011-0.299-0.061-0.456-0.041-0.155 0.018-0.257 0.122-0.415 0.166-0.934 0.252-2.096 0.234-3.074 0.414-2.492 0.459-5.199 0.866-7.6 1.33-0.362 0.071-0.727 0.139-0.997 0.333-1.817 0.274-3.659 0.753-5.315 1.161-0.205 0.053-0.43-8e-3 -0.622 0.042-0.487 0.125-0.948 0.563-1.537 0.292-0.161-0.297-0.513-0.4-0.581-0.79-0.762-0.104-1.082-0.652-0.914-1.495 0.071 2e-3 0.108-0.03 0.125-0.083 0.384-0.024 0.566 0.155 0.912 0.167 0.53 0.592 1.624 0.796 2.535 0.664 0.221-0.335 0.745-0.071 1.038-0.333 0.559-0.02 1.027-0.153 1.453-0.249 0.138-0.029 0.304-0.037 0.374-0.166 1.52-0.146 3.165-0.619 4.485-0.789 3.015-0.639 6.573-1.109 9.718-1.535 2.995-0.548 5.783-0.899 8.43-1.205 0.094 0.086 0.174 0.184 0.207 0.332 1.061-0.254 2.775-0.441 3.904-0.748 0.068-0.015 0.078 0.033 0.082 0.084 0.684-0.24 1.418-0.309 2.16-0.457 0.528-0.104 1.115-0.152 1.661-0.248 0.476-0.085 1.048-0.192 1.537-0.252 2.353-0.278 4.591-0.63 6.853-0.996 1.068-0.172 2.205-0.109 3.197-0.498 1.368-0.121 3.299-0.449 4.734-0.539 0.139-0.152 0.461-0.12 0.623-0.251 0.486 0.119 0.855-0.141 1.244-0.33 0.139-0.036 0.235 0.014 0.416-0.042 0.234-0.238 0.547-0.424 0.873-0.457 0.109-0.082 0.244-0.143 0.207-0.373 0.317 0.019 0.444-0.088 0.457-0.291 0.037-0.664-1.379-0.357-1.787-0.332-0.258 0.015-0.543-0.067-0.871-0.084-0.666-0.032-1.363 0.047-2.076 0.043-0.732-7e-3 -1.567-0.143-2.035-0.54 0.057-0.575-0.305-0.965-0.124-1.456-0.028-0.08-0.128-0.094-0.167-0.164 0.139-0.281 0-0.595 0.125-0.914-0.264-0.488-0.043-1.803-0.125-2.741-0.043-0.514-0.188-1.13-0.125-1.744-0.268-0.47-0.309-0.862-0.955-0.954-0.297-0.043-0.666 0.029-1.08 0-0.17 0.028 0.045-0.146-0.082-0.209-3.709 0.068-7.189-0.129-11.131 0-0.678 0.023-1.342 0.059-1.992 0.167-0.084 0.014-0.131-9e-3 -0.123-0.083-1.906 0.322-4.535 0.295-6.854 0.581-6e-3 1.415-0.18 2.962-0.291 4.319-0.016 0.197 0.034 0.377 0 0.538-9e-3 0.048-0.118 0.153-0.125 0.209-5e-3 0.05 0.094 0.115 0.084 0.167-0.012 0.058-0.097 0.084-0.123 0.166-0.072 0.211 0.069 0.386-0.127 0.414-0.03 0.128 0.115 0.08 0.085 0.207-0.175 0.774-0.206 1.906-0.624 2.368 0.08 1.212-0.844 1.819-0.581 2.739-0.13 0.053-0.31 0.053-0.415 0.127-0.07-0.179 5e-3 -0.275-0.167-0.209 0.103-0.406-0.386-0.545-0.249-1.122 0.039-0.149-0.186-0.033-0.164-0.164 0.039-0.489-0.234-0.912-0.252-1.413h0.291c-9e-3 0.344 0.199 0.604 0.125 0.996 0.316 0.309 0.232 1.013 0.622 1.246 0.075-0.463 0.377-1.025 0.54-1.536-0.18-0.386 0.112-0.856 0.208-1.288 0.171-0.018-2e-3 0.104 0 0.168 0.169-0.096 0.114-0.236 0.042-0.291 0.013-0.17 0.161 0.031 0.166-0.166 0.067-0.165-0.18-0.015-0.166-0.125 0.013-0.348 0.096-0.625 0.249-0.83-0.109-0.321 0.103-0.596 0.124-0.83 0.033-0.35-0.131-0.757 0.166-1.122-0.127-0.347 0.155-0.898-0.082-1.121 0.158-0.485-0.02-1.09 0.124-1.495-0.012-0.056-0.104-0.035-0.166-0.042 0.277-0.142-3e-3 -0.725 0.251-0.956-0.143-0.287-0.07-0.574-0.042-0.871-0.759-0.103-2.002 0.104-2.866 0.207 0.104 0.865-8e-3 1.55 0.123 2.285-0.172-8e-3 -0.205 0.127-0.373 0.123-0.117-0.238-0.061-0.559 0.084-0.746-0.236-0.489-0.221-1.029-0.25-1.578-1.391-0.029-2.301 0.293-3.613 0.498-0.116 0.021-0.186 0.091-0.209 0.208-2.48 0.267-4.882 0.913-7.475 1.288-0.105 0.072-0.23 0.127-0.33 0.207-0.906 9e-3 -2.189 0.518-3.24 0.705-0.982 0.176-2.121 0.383-3.114 0.623-0.096 0.045-0.191 0.085-0.249 0.168-2.367 0.562-5.066 1.166-7.393 2.117-0.611-0.01-0.975 0.328-1.453 0.332-0.444 0.33-1.25 0.301-1.662 0.664-0.338-0.06-0.561 0.198-0.871 0.291-0.264 0.077-0.559 0.058-0.83 0.166-0.525 0.204-1.149 0.529-1.744 0.789-0.401 0.174-0.768 0.405-1.164 0.582-0.486 0.214-1.057 0.226-1.453 0.496-0.211 0.145-0.562 0.646-0.789 0.956-0.076 0.104-0.21 0.226-0.248 0.292-0.027 0.045 0.031 0.16 0 0.207-0.052 0.073-0.198 0.097-0.25 0.164-0.025 0.038 0.025 0.129 0 0.168-0.018 0.031-0.213 0.178-0.249 0.249-0.103 0.203-0.118 0.452-0.208 0.622-0.146 0.281-0.309 0.71-0.416 1.162-0.125 0.541-0.516 1.11-0.705 1.703-0.188 0.59-0.19 1.191-0.54 1.662-0.079 0.848-0.451 1.402-0.581 2.201-0.562 1.334-0.824 2.541-1.453 3.82-0.273 1.266-0.807 2.625-1.33 3.778-0.227 0.866-0.555 1.624-0.912 2.492-0.269 0.651-0.561 1.376-0.873 2.077-0.037 0.086 0.016 0.232-0.041 0.331-0.096 0.171-0.291 0.476-0.416 0.749-0.169 0.375-0.281 0.818-0.414 1.287-0.484 0.826-0.777 1.74-1.121 2.615-0.385 0.98-0.889 1.896-1.289 2.865-0.396 0.968-0.832 1.941-1.328 2.865-0.038 0.321-0.171 0.551-0.332 0.749-1.264 2.958-2.804 5.64-4.401 8.264-0.128-0.032-0.08 0.114-0.209 0.083 0.04 0.261-0.205 0.238-0.166 0.498-0.127-0.032-0.079 0.115-0.206 0.083-0.421 0.622-0.844 1.229-1.329 1.786-0.177 0.201-0.474 0.271-0.582 0.541-0.247-0.076-0.302 0.196-0.457 0.081-0.101-0.562 0.468-0.804 0.54-1.328 0.434-0.453 0.793-0.979 1.038-1.619 1.632-2.135 2.652-4.879 4.111-7.185v-0.333c1.505-2.827 2.669-5.997 4.069-8.929 0.064-0.709 0.51-1.041 0.582-1.744 0.539-0.762 0.703-1.898 1.246-2.656v-0.293c0.493-0.889 0.748-2.019 1.246-2.905 0.256-0.921 0.603-1.751 0.954-2.575 7e-3 -0.201-0.025-0.441 0.167-0.457 0.076-0.697 0.484-1.064 0.539-1.785 0.486-0.823 0.523-1.808 0.997-2.533 0.64-2.376 1.435-4.42 2.076-6.729 0.214-0.36 0.438-0.908 0.456-1.328 0.312-0.52 0.638-1.023 0.832-1.662 0.252-0.093 0.271-0.422 0.498-0.539-0.137-0.351 0.1-0.559 0.207-0.789 0.135-0.023 0.193 0.028 0.291 0.042 0.717-0.542 1.256-1.265 2.035-1.744 0.16-0.175 0.361-0.302 0.457-0.54 0.79-0.344 1.523-6e-3 1.785 0.623 1.328-0.472 2.7-0.898 4.069-1.33 0.052-0.189-0.146-0.131-0.166-0.248 1.745-3.926 3.735-7.441 4.485-11.878-0.469-0.835 0.459-1.417 1.412-1.12-0.492-2.439-0.988-4.621-1.163-7.143-0.026-0.401 0.101-0.684-0.083-1.08 0.113-0.677 0.133-1.368 0.291-2.242 0.057-0.316 0.482-0.493 0.416-0.873 0.35-0.258 0.48-0.656 0.871-0.914 0.123-0.081 0.316-0.115 0.457-0.207 0.248-0.162 0.633-0.271 0.955-0.498 0.194 0.164 0.438-0.17 0.54 0.041 0.114-0.023 0.134-0.143 0.249-0.164 0.126-0.1 0.179 0.157 0.332 0.164 1.724 0.072 3.215 0.786 4.609 1.454 0.042 0.096 0.143 0.133 0.125 0.29 0.18 0.012 0.34 0.049 0.499 0.083 0.173 0.448 0.524 0.721 0.954 0.913 0.059 0.305 0.267 0.455 0.498 0.582 0.043 0.229 0.052 0.245 0.251 0.332 0.062 0.365 0.269 0.588 0.581 0.707 0.368 0.918 1.086 1.486 1.369 2.491 0.275 0.235 0.301 0.587 0.458 0.914 0.2 0.421 0.548 0.734 0.539 1.288 0.101 0.16 0.142 0.383 0.29 0.496-0.047 1.029 0.314 1.344 0.209 2.161 7e-3 0.117 0.135 0.112 0.164 0.208 0.161 2.309 0.062 4.666-0.247 6.893 0.019 0.131-0.113 0.109-0.126 0.209 0.129 0.488-0.199 0.858-0.29 1.244-0.055 0.234 0.03 0.479-0.042 0.707-0.074 0.232-0.286 0.428-0.373 0.664-9e-3 0.036-0.042 0.044-0.042 0.086zm-9.842-20.266c-0.177 0.085-0.33 0.196-0.623 0.166-0.124 0.097-0.263 0.181-0.499 0.165-0.705 0.604-0.771 1.848-1.039 2.783 0.09 1.701 0.251 4.194 0.582 5.98-0.012 0.108 0.162 0.032 0.125 0.166 0.052 0.984 0.454 2.232 0.373 3.281-0.247 0.167-0.474 0.354-0.663 0.581-0.335 0.044-0.358-0.225-0.54-0.333-0.244 0.32-0.213 0.799-0.291 1.246-0.041 0.235-0.191 0.432-0.248 0.664-0.101 0.407-0.086 0.709-0.209 1.123-0.07 0.234-0.267 0.483-0.373 0.746-0.123 0.297-0.176 0.633-0.291 0.913-0.115 0.282-0.322 0.53-0.415 0.79-0.078 0.217-0.036 0.438-0.126 0.623-0.159 0.33-0.479 0.561-0.414 0.955-0.062 0.021-0.104 0.061-0.167 0.082 0.046 0.268-0.151 0.291-0.124 0.539-0.113-0.029-0.084 0.083-0.166 0.084-0.273 0.664-0.486 1.324-0.873 1.91-0.504 0.77-0.848 1.777-1.744 2.076 0.404-0.031 0.521-0.264 0.916-0.165 0.297-0.219 0.846-0.352 1.162-0.458 0.852-0.283 2.167-0.574 2.74-0.787 0.297-0.111 0.671-0.168 0.997-0.25 1.677-0.42 3.273-0.777 5.024-1.162 0.068-2e-3 0.022-0.117 0.083-0.126 2.054-0.386 4.079-0.858 6.188-1.286-0.045-0.192-0.262-0.211-0.332-0.375-0.107-1.299 0.127-2.572 0.414-3.779-0.139-0.843 0.213-2.088-0.082-3.197 0.179-0.283 0.105-0.723 0.082-1.121-0.012-0.085-0.154-0.039-0.166-0.125 0.156-0.119-0.01-0.333 0.125-0.498-0.261-0.158-0.119-0.355-0.125-0.623-0.01-0.399-0.199-0.834-0.248-1.246-0.016-0.122 0.044-0.249 0.04-0.373-7e-3 -0.262-0.153-0.465-0.29-0.747-0.193-0.401-0.229-0.834-0.332-1.204-0.076-0.273-0.304-0.496-0.415-0.747-0.026-0.06 0.02-0.149 0-0.208-0.09-0.264-0.384-0.506-0.54-0.748-0.025-0.039 0.018-0.123 0-0.166-0.02-0.05-0.15-0.094-0.165-0.125-0.124-0.236-0.118-0.527-0.376-0.623-6e-3 -0.118-0.074-0.173-0.082-0.291-0.435-0.389-0.766-0.934-1.079-1.328-0.104-0.07-0.229-0.121-0.292-0.125-0.162-0.322-0.504-0.465-0.664-0.789-0.606-0.168-0.764-0.787-1.453-0.871-0.1-0.178-0.324-0.23-0.457-0.375-0.24 0.049-0.567-0.033-0.623-0.291-0.736-0.055-1.482-0.32-2.325-0.331zm53.86 21.386c-0.172-0.498-0.258-1.062-0.539-1.453-0.255-0.354-1.152-0.88-1.578-0.955-0.748-0.131-1.719 0.084-2.615 0.125-1.072 0.049-2.154 0.066-3.115 0.125-0.109 0.1-0.127 0.287-0.248 0.373 0.584 1.5 0.367 3.227 0.498 4.734-0.014 0.109 0.16 0.033 0.124 0.166-0.068 0.504 0.306 1.129 0.29 1.578 0.624 0.209 1.404 0.417 2.16 0.5 0.182 0.018 0.369-0.049 0.539 0 0.088 0.021 0.158 0.109 0.25 0.124 0.345 0.049 0.654-0.098 0.871-0.124 0.174-0.021 0.451 0.098 0.665 0.082 0.546-0.039 1.019-1e-3 1.537 0 0.118-0.021 0.278-0.218 0.374-0.125-0.012 0.049-0.236 0.121-0.042 0.125 0.84-0.7 1.243-2.627 1.08-4.195 0.031-0.064 0.132-0.062 0.124-0.166-0.184-0.227-0.209-0.444-0.167-0.83-0.061-0.098-0.175-0.042-0.208-0.084z"/><path class="st4" d="m141.91 142.17v-0.758c1.227-0.969 2.264-2.129 3.406-3.181 0.215-0.468 0.638-0.708 0.947-1.06 0.148-0.168 0.23-0.403 0.379-0.567 0.351-0.391 0.705-0.765 1.098-1.099 0.642-1.014 1.367-1.941 2.158-2.802-0.018-0.118 0.068-0.136 0.037-0.265 0.182-0.085 0.316-0.217 0.342-0.455 0.608-0.525 0.941-1.33 1.477-1.933v-0.188c0.736-0.741 1.143-1.81 1.816-2.612 0.021-0.105 0.057-0.197 0.078-0.305 0.461-0.567 0.76-1.24 1.098-1.891 0.117-0.23 0.339-0.421 0.453-0.646 0.098-0.19 0.131-0.384 0.227-0.567 0.09-0.175 0.242-0.312 0.342-0.492 0.199-0.363 0.305-0.793 0.492-1.174 0.099-0.203 0.283-0.367 0.378-0.566 0.136-0.283 0.177-0.497 0.304-0.72 0.146-0.26 0.217-0.474 0.342-0.757 0.215-0.502 0.539-0.969 0.756-1.479 0.373-0.875 0.72-1.812 1.174-2.537 0.555-1.742 1.437-3.159 1.932-4.959 0.291-0.416 0.445-0.967 0.605-1.515 0.177-0.039 0.082-0.347 0.266-0.38 0.081-0.561 0.337-1.01 0.492-1.553 0.045-0.158 0.2-0.295 0.264-0.453 0.367-0.912 0.639-1.814 0.986-2.688 0.172-0.436 0.367-1.031 0.567-1.402 1.177-3.572 2.559-6.688 3.635-10.223 0.587-1.213 0.901-2.484 1.438-3.712 0.016-0.128-0.016-0.212-0.037-0.303 0.043-0.032 0.101-0.049 0.188-0.037 0.416-1.277 0.992-2.589 1.515-3.636 0.163-0.089 0.256-0.248 0.492-0.266 0.24-0.352 0.57-0.613 0.721-1.059 0.646-0.357 1.005-1.023 1.625-1.438 0.851-0.569 1.836-0.866 2.84-1.327 0.686-2e-3 1.416-0.05 1.857 0.191 0.166 0.334-0.078 0.62-0.039 0.908-0.195 0.169-0.59 0.141-0.756 0.341-0.603-0.117-1.207-0.036-1.667 0.228-0.382 0.22-0.892 0.352-1.212 0.529-0.043 0.024-9e-3 0.094-0.037 0.114-0.092 0.06-0.221 0.062-0.304 0.112-0.349 0.218-0.507 0.471-0.831 0.796-0.148 0.146-0.352 0.225-0.493 0.378-0.397 0.434-0.715 0.99-1.022 1.516-0.223 0.383-0.398 0.745-0.53 1.137-0.071 0.207-0.276 0.379-0.378 0.604-0.069 0.154-0.055 0.343-0.113 0.493-0.023 0.059-0.124 0.092-0.152 0.152-0.24 0.503-0.301 1.079-0.492 1.59-0.029 0.076-0.13 0.119-0.15 0.189-0.028 0.088 0.021 0.205 0 0.303-0.082 0.332-0.289 0.655-0.381 0.983-0.033 0.122-3e-3 0.258-0.037 0.38-0.449 1.589-0.933 3.218-1.173 4.844-0.329-0.012-0.462 0.172-0.758 0.191-0.142-0.085-0.015-0.441-0.151-0.53-0.058 0.194-0.154 0.352-0.151 0.604-0.444 0.541-0.472 1.498-0.909 2.046-0.547 1.673-1.073 3.368-1.779 4.885-0.276 1.187-0.844 2.085-1.136 3.257-9e-3 0.104-0.12 0.105-0.151 0.188-0.083 0.504-0.288 0.83-0.454 1.211-0.134 0.307-0.19 0.612-0.304 0.909-0.123 0.325-0.408 0.836-0.529 1.099-0.118 0.258-0.121 0.574-0.228 0.833-1.067 2.598-2.165 5.157-3.333 7.573-0.269 0.791-0.609 1.51-1.021 2.158v0.229c-0.459 0.475-0.59 1.277-1.022 1.776-0.175 0.622-0.573 1.019-0.757 1.63-0.771 1.175-1.487 2.4-2.158 3.672-0.501 0.547-0.883 1.212-1.25 1.895-0.567 0.518-0.828 1.342-1.438 1.816 0.054 0.205-0.175 0.127-0.113 0.341-1.88 2.323-3.604 4.802-5.87 6.74-0.564 0.733-1.458 1.297-2.271 1.931-0.353 0.278-0.72 0.659-1.14 0.763z"/><path class="st4" d="m178.98 82.796c0.103 0.051 0.202 0.102 0.303 0.152 0.3 0.01 0.563-0.018 0.758-0.113 2.805 0.203 6.243 0.157 8.784 0.227 0.812 0.022 1.645-0.148 2.462-0.074 1.323 0.118 2.843 5e-3 4.239 0.035 0.574 0.015 1.127 0.059 1.705 0.076 4.328 0.131 8.628 0.42 12.684 1.061 0.164 0.131 0.445 0.092 0.605 0.076 0.31 0.232 0.755 0.086 1.061 0.265 0.03 0.109 0.076 0.2 0.113 0.304 1.166 0.207 2.331 0.539 3.521 0.681 0.09 0.048 0.154 0.124 0.229 0.188 1.109 0.162 2.067 0.31 3.065 0.568 2.451 0.637 4.796 1.268 7.231 2.008 0.52-0.014 0.712 0.299 1.213 0.303 0.047 0.055 0.15 0.051 0.15 0.15 2.363 0.421 4.389 1.312 6.628 1.934 0.933 0.465 2.081 0.719 2.687 1.512 2.037 0.666 3.865 1.363 5.947 1.934 0.402 0.379 1.107 0.32 1.59 0.644 0.439-0.025 0.545 0.286 0.944 0.302-0.037 0.166 0.128 0.125 0.114 0.266 0.557 0.025 0.561 0.601 1.023 0.719 0.094 0.334 0.396 0.459 0.528 0.758 0.039 0.347 0.134 0.812 0.266 1.174 0.015 0.926-0.303 1.711-0.416 2.386-0.107 0.031-0.104 0.173-0.228 0.188-0.311 1.016-1.069 1.582-1.401 2.575-0.406 0.186-0.604 0.581-0.87 0.908-0.533 0.227-1.026 0.513-1.477 0.72-1.172-0.027-2.414 0.494-3.559 0.378-0.457-0.046-0.772-0.362-1.213-0.454-0.086-0.248-0.219-0.455-0.037-0.681 1.11-2e-3 2.311-0.168 3.444-0.306 0.808-0.262 1.544-0.369 2.157-0.792 0.223-0.26 0.364-0.599 0.684-0.757 0.066-0.618 0.605-1.031 0.681-1.592 0.521-0.271 0.412-0.994 0.72-1.514 0.024-0.484-0.055-0.879 0-1.439-0.588-0.542-1.107-0.924-1.553-1.592-0.532 0.165-0.891 0.498-1.135 0.949-0.329 0.074-0.428 0.382-0.57 0.643-0.293 0.068-0.431 0.418-0.451 0.644-0.539 0.546-0.564 1.207-0.796 2.082-0.019 0.12 0.173 0.03 0.189 0.115-0.074 0.44-0.421 0.612-0.493 1.058-0.092 0.071-0.182 0.147-0.303 0.189-0.264-0.087-0.614-0.208-0.907-0.15-0.144-0.213-0.412-0.188-0.759-0.266-0.189-0.043-0.808-0.332-1.022-0.227-1.206-0.439-2.46-0.75-3.407-1.514h-0.304c-0.171-0.271-0.327-0.557-0.491-0.834-0.055-0.703 0.018-1.111-0.039-1.666 0.289-0.391 0.283-0.908 0.493-1.323 0.054-0.11 0.223-0.183 0.304-0.306 0.028-0.043-0.023-0.141 0-0.188 0.082-0.18 0.373-0.529 0.568-0.76 0.096-0.113 0.198-0.227 0.303-0.338 0.18-0.199 0.273-0.311 0.491-0.38-0.024-0.092 0.067-0.216 0.189-0.267-0.2-0.113-0.598-0.231-0.833-0.188-0.119-0.172-0.264-0.318-0.455-0.416 0.016-0.359-0.033-0.547 0.115-0.758-3.505-1.365-6.742-2.207-10.376-3.218-0.095-7e-3 -0.157 0.018-0.188 0.074-0.467-0.351-1.416-0.306-1.779-0.642-4.277-0.977-8.301-1.992-12.422-2.652-0.422 0.322-0.594 0.893-0.945 1.289-0.039 0.402-0.381 0.502-0.377 0.946-0.123-0.033-0.117 0.059-0.191 0.074 0.02 0.13-0.015 0.214-0.039 0.304-0.277 0.429-0.598 0.814-0.718 1.402-0.39 0.365-0.495 1.016-0.946 1.323 0.053 0.048 0.037 0.164 0.037 0.267-0.412 0.62-0.803 1.266-1.135 1.967-0.311-0.197 0.053-0.496 0.149-0.68 0.097-0.179 0.103-0.34 0.229-0.492 0.076-0.092 0.167-0.136 0.228-0.229-0.304-0.121-0.341-0.254-0.456-0.605-0.028-0.092-0.143-0.186-0.149-0.228-0.067-0.384 0.261-0.794 0-1.098 0.195-0.095 0.269-0.54 0.038-0.645 0.032-0.281 0.216-0.413 0.34-0.604-0.039-0.354 0.122-0.451 0-0.721 0.136-0.369 0.271-0.738 0.378-1.137 0.432-0.352 0.535-1.028 0.986-1.36 0.226 0.163 0.285-0.061 0.378-0.229-0.126-0.15-0.356-0.197-0.378-0.453-1.947-0.099-3.963-0.314-6.059-0.379-0.785-0.023-2.021-0.076-2.99-0.113-0.312-0.011-0.611 0.07-0.834-0.076-0.145-0.055-0.074 0.105-0.189 0.076-1.318-0.227-2.457 0.016-3.9-0.189-0.514 0.092-0.933 0.064-1.514 0.037-1.734-0.076-3.482 0.168-5.226 0.076-1.764-0.092-3.673 0.021-5.49-0.266-0.173 0.041-0.404 0.113-0.606-0.035-0.605 0.212-1.631-0.124-1.249-0.797 0.038-0.149-0.114-0.114-0.076-0.264zm27.147 8.294c0.148-0.067 0.242-0.19 0.266-0.38 0.016-0.09-0.172 0.021-0.113-0.113 0.028-0.15 0.178-2e-3 0.227-0.074 0.247-0.453 0.605-0.986 0.646-1.517 0.12 0.032 0.075-0.099 0.149-0.113-0.015-0.52 0.392-0.811 0.493-1.325 0.469-0.502 0.541-1.33 1.061-1.779 0.094-0.084 0.246-0.113 0.227-0.304-0.395-0.057-0.695-0.271-1.023-0.228-0.248 0.035-0.349 0.311-0.493 0.492-0.233 0.299-0.677 0.718-0.792 0.947-0.154 0.301-0.097 0.604-0.305 0.721-0.047 0.121 0.123 0.027 0.074 0.15-0.388 0.104-0.161 0.646-0.416 0.834 8e-3 0.656-0.357 0.907-0.15 1.438-0.035 0.041-0.139 0.014-0.114 0.114 0.072 0.352-0.039 1.035 0.151 1.515 0.179-0.064 0.116-0.183 0.112-0.378zm35.744 4.089c-1.93-0.53-3.568-1.053-5.338-1.667-0.289 0.159-0.492 0.583-0.797 0.606-0.164 0.188-0.205 0.5-0.529 0.53-0.055 0.159-0.094 0.336-0.303 0.339-0.08 0.34-0.171 0.732-0.453 0.759-0.017 0.4-0.256 0.577-0.379 0.871-0.033 0.408-0.133 0.749-0.267 1.062 0.192 0.334 0.363 0.696 0.493 1.098 0.433 0.513 0.932 0.96 1.703 1.135-2e-3 0.065 0.01 0.118 0.039 0.15 1.207 0.232 2.214 0.664 3.406 0.91 0.203-0.202 0.513-0.296 0.721-0.493-0.107-0.481 0.371-1.633 0.531-2.194 0.021-0.086-0.034-0.172 0-0.268 0.066-0.193 0.326-0.271 0.151-0.378 0.167 0.048 0.081-0.085 0.113-0.151 0.044-0.098 0.219-0.16 0.264-0.226 0.038-0.057 5e-3 -0.134 0.038-0.19 0.067-0.12 0.244-0.211 0.342-0.341 0.321-0.435 0.664-0.829 1.021-1.174-0.184-0.195-0.639-0.119-0.756-0.378z"/><path class="st3" d="m243.91 85.069c-0.064 0.341-0.544 0.503-0.684 0.795-0.016 0.035 0.027 0.121 0 0.15-0.079 0.101-0.244 0.119-0.302 0.227-0.011 0.024 0.067 0.051 0.076 0.039-0.332 0.361-0.884 0.504-0.909 1.098-0.33 0.25-0.443 0.716-0.605 1.137 0.145 0.504-0.198 0.674-0.265 1.172-0.019 0.083 0.056 0.074 0.114 0.076-0.135 0.244-0.328 0.431-0.267 0.873-1.921-0.511-4.338-1.156-5.717-2.462 0.126-0.62-0.116-1.274 0.229-1.741 0.046-0.788 0.429-1.238 0.642-1.856 0.379-0.305 0.687-0.677 1.024-1.023 0.265 0.042 0.376-0.075 0.567-0.112 0.195 0.183 0.486 0.271 0.719 0.418 0.805-0.141 1.508 0.244 2.312 0.301v0.114c1.285 0.107 2.064 0.531 3.066 0.794z"/><path class="st4" d="m206.2 91.013c-0.09-0.059 0.082-0.168 0.076-0.264 0.088 0.054-0.045 0.204-0.076 0.264z"/><path class="st3" d="m242.62 95.557c-0.357 0.345-0.7 0.739-1.021 1.174-0.098 0.13-0.274 0.221-0.342 0.341-0.033 0.057 0 0.134-0.038 0.19-0.045 0.065-0.22 0.128-0.264 0.226-0.032 0.066 0.054 0.199-0.113 0.151 0.175 0.106-0.085 0.185-0.151 0.378-0.034 0.096 0.021 0.182 0 0.268-0.16 0.562-0.639 1.713-0.531 2.194-0.208 0.197-0.518 0.291-0.721 0.493-1.192-0.246-2.199-0.678-3.406-0.91-0.029-0.032-0.041-0.085-0.039-0.15-0.771-0.175-1.271-0.622-1.703-1.135-0.13-0.401-0.301-0.764-0.493-1.098 0.134-0.312 0.233-0.653 0.267-1.062 0.123-0.294 0.362-0.471 0.379-0.871 0.282-0.026 0.373-0.419 0.453-0.759 0.209-3e-3 0.248-0.18 0.303-0.339 0.324-0.03 0.365-0.343 0.529-0.53 0.305-0.023 0.508-0.447 0.797-0.606 1.77 0.614 3.408 1.137 5.338 1.667 0.115 0.259 0.57 0.183 0.756 0.378z"/><path class="st3" d="m201.73 95.103c0.03 0.107-0.055 0.098-0.039 0.189-0.623 0.17-0.725 0.865-1.172 1.211-0.029 0.117 0.102 0.074 0.075 0.19-0.226 0.038-0.175 0.356-0.417 0.378-0.033 0.121 0.098 0.079 0.113 0.15-0.014 0.166-0.223 0.131-0.15 0.379-0.162 0.014-0.194 0.193-0.342 0.113-0.088 0.202-0.193 0.388-0.151 0.72-0.218-0.2-0.136 0.271-0.341 0.267-0.183-1.535 0.254-2.681 0.834-3.713 0.598 0.063 0.973 0.172 1.59 0.116z"/><path class="st3" d="m231.57 103.32c-0.284 0.244-0.339 0.603-0.683 0.718-0.033 0.319-0.284 0.423-0.492 0.567-0.05 0.238-0.219 0.622-0.53 0.723-0.028 0.424-0.472 0.437-0.491 0.869-0.281 0.148-0.271 0.588-0.531 0.757 0.01 0.461-0.202 0.867-0.379 1.249 0.125 0.316 0.069 0.703 0.039 1.135-0.547 6e-3 -1.115-0.275-1.742-0.111 0.029-0.034 0.039-0.086 0.039-0.152-0.445-0.041-0.789-0.363-1.215-0.302-1.244-0.515-2.387-0.931-3.368-1.667 0.078-0.354-0.254-0.594-0.302-0.945 0.033-0.057 0.055-0.12 0.15-0.114-0.101-0.558 0.053-1.142 0-1.818h0.113c0.027-0.115-0.064-0.11-0.037-0.227 0.221-0.258 0.199-0.688 0.341-1.021 0.114-0.275 0.38-0.422 0.378-0.682 0.117 0.014 0.182-0.089 0.266 0 0.182-0.361 0.535-0.552 0.871-0.757 0.908 0.139 2.1 0.152 3.104 0.604 0.872 0.129 1.8 0.339 2.614 0.683 0.577 0.055 1.268 0.314 1.855 0.491z"/><path class="st4" d="m190.98 111.84c-0.4-0.16-0.218-0.699-0.492-0.947 0.059-0.225 0.167-0.594-0.076-0.719 0.178-1.045-0.213-1.63 0.115-2.725-0.12-0.654 0.061-1.363 0.227-1.893-2.023-0.244-4.022-0.279-6.021-0.227-2.257-0.201-4.808 0.066-7.194 0.113-0.238 3e-3 -0.493-0.098-0.719 0.076-0.986-0.168-1.783 0.286-2.575 0.188-0.185-0.295 0.08-0.602 0.189-0.833 0.979-0.417 2.096-0.394 3.218-0.415 4.591-0.092 9.516-0.277 13.859 0.074 0.422-0.458 1.426-0.562 1.74 0.074 1.365 0.088 2.856 0.188 4.393 0.229 1.02 0.027 1.804 0.097 2.802 0.188 1.774 0.167 3.647 0.396 5.34 0.567 0.267 0.029 0.565-0.023 0.831 0 0.219 0.023 0.394 0.051 0.722 0.077 0.776 0.065 1.802 0.113 2.233 0.606-0.044 0.195 0.078 0.223 0.15 0.302-0.072 0.3-0.068 0.478-0.188 0.759-0.065 0.033-0.204-2e-3 -0.189 0.113-0.924-0.032-1.452-0.43-2.347-0.569-0.682 1e-3 -1.492-0.106-2.197-0.189-0.978-0.112-1.951-0.19-2.916-0.378-0.987-0.192-2.025-0.141-2.991-0.302-0.15-0.026-0.297-0.128-0.454-0.152-0.492-0.083-1.023 0.017-1.476-0.038-0.078-0.01-0.157-0.11-0.229-0.113-0.3-0.015-0.63 0.104-0.946 0.075-0.365-0.031-0.7-0.113-1.06-0.113-0.946 0-2.078-0.146-3.144-0.077-0.516 0.377-0.348 1.221-0.719 1.705 0.196 0.189 0.021 0.477 0 0.758-0.053 0.681-0.08 1.519 0.037 2.271-0.057 0.094-9e-3 0.293-0.074 0.378 0.129 0.364 0.123 0.801 0.151 1.137z"/><path class="st4" d="m244.74 85.446c-0.443 0.187-0.528 0.732-1.097 0.795-0.84 1.195-2.01 2.812-2.082 4.355 0.043 0.082 0.043 0.209 0.15 0.226-0.033 0.157-0.209 0.168-0.264 0.305-1.201-0.011-1.918-0.565-3.066-0.72-0.105-9e-3 -0.107-0.12-0.189-0.15-0.217 0.013-0.334-0.07-0.455-0.152h-0.228c-0.956-0.471-1.976-0.876-2.688-1.59-0.277-0.355-0.045-1.219-0.264-1.629 0.154 9e-3 0.17 0.158 0.34 0.151 0.113-0.577-0.129-1.673 0.646-2.007 0.011-0.776 0.736-1.113 1.021-1.741 0.458-0.169 0.914-0.646 1.439-0.871-0.803-0.339-1.809-0.55-2.839-0.794-0.187-0.045-0.399-0.018-0.569-0.078-0.08-0.029-0.115-0.123-0.189-0.149-0.262-0.099-0.562-0.088-0.833-0.151-0.295-0.071-0.579-0.229-0.87-0.305-0.351-0.09-0.711-0.107-1.062-0.188-0.39-0.092-0.753-0.288-1.136-0.378-0.32-0.078-0.613-0.045-0.908-0.113-0.197-0.049-0.357-0.192-0.568-0.266-0.182-0.065-0.394-0.037-0.568-0.076-0.709-0.166-1.355-0.406-2.006-0.568-0.122-0.045-0.029 0.123-0.15 0.076 0.02-0.029 0.037-0.061 0.036-0.115-0.987-0.122-1.866-0.551-2.841-0.567-0.943-0.356-2.057-0.554-2.952-0.794-0.167-0.055-0.099 0.127-0.227 0.114-0.223-0.229-0.738-0.331-1.173-0.454-1.41 0.164-2.662-0.523-4.167-0.758-0.116 0.059-0.186 0.167-0.301 0.228-0.208 0.731-0.769 0.943-0.948 1.74-0.117-0.028-0.072 0.106-0.189 0.076 0.033 0.425-0.421 0.362-0.378 0.795h-0.15c-0.083 0.629-0.596 1.108-0.872 1.667-0.035 0.029-0.086 0.039-0.15 0.038-0.023 0.153-0.132 0.222-0.115 0.417-0.419 0.359-0.551 1.011-1.059 1.285-0.063 0.076 3e-3 0.049 0 0.152-0.065 0.014-0.071-0.029-0.076-0.076-0.111 0.011-0.053 0.14 0 0.189-0.236 0.143-0.258 0.5-0.492 0.645-0.089-0.314 0.414-0.594 0.264-0.947 0.285-0.482 0.796-0.677 0.72-1.059 0.063-0.115 0.152-0.201 0.265-0.266-0.023-0.04-0.084-0.041-0.075-0.113 0.177-0.062 0.184-0.19 0.19-0.342 0.033-0.029 0.086-0.039 0.148-0.037-2e-3 -0.301 0.437-0.697 0.457-1.061 0.438-0.523 0.715-1.205 1.135-1.742-0.083-0.08 0.02-0.108 0-0.229 0.279-0.411 0.469-0.678 0.645-1.172 0.102-0.076 0.188-0.167 0.227-0.305-0.424-0.244-0.996-0.34-1.551-0.453-1.025 0.861-1.494 2.494-1.818 3.824-0.023 0.52 0.048 1.211-0.037 1.667 0.09 0.182 0.271 0.542 0.037 0.719-0.362 3e-3 -0.449-0.437-0.49-0.757-0.143-1.041 0.033-2.572 0.453-3.221-0.08-0.2 0.076-0.404 0.226-0.49 0.078-0.695 0.536-1.33 0.948-1.818-1.125-0.342-2.317-0.109-3.297-0.453-0.138-0.025-0.145 0.08-0.264 0.075-1.016-0.081-2.367-0.335-3.596-0.229-0.598 0.055-1.264-0.133-1.781-0.111-0.564 0.021-1.322 0.107-1.93 0.111-0.445 6e-3 -0.918-0.094-1.363-0.074-2.288 0.103-5.062 0.096-7.459 0.229-0.252 0.014-0.52 0.043-0.758 0.075-1.373 0.188-2.576 0.224-3.824 0.302-0.524 0.033-1.07-0.024-1.553 0.039-0.569 0.073-1.181 0.501-1.742 0.832-0.213 0.127-0.314 0.312-0.491 0.455-0.396 0.318-0.909 0.596-1.25 0.908-0.085 0.078-0.177 0.211-0.265 0.303-0.412 0.432-0.84 0.913-1.211 1.439-0.376 0.532-0.822 1.025-1.213 1.629-0.147 0.064-0.295 0.133-0.455 0.188-5e-3 -0.082-0.094-0.08-0.189-0.075-1e-3 -0.174-0.125-0.224-0.149-0.379 0.528-1.592 1.583-2.657 2.573-3.786 0.268-0.148 0.518-0.315 0.645-0.604 0.404-0.29 0.825-0.562 1.136-0.948 0.379-0.088 0.485-0.448 0.87-0.531 0.049-0.227 0.134-0.308 0.076-0.566 0.293-0.316 0.729-0.124 1.174-0.114 0.449 0.013 1.051-0.263 1.477 0.04 2.973-0.154 5.401-0.311 8.102-0.416 0.517-0.021 1.165 0.098 1.63-0.078 0.171 0.043 0.52-0.088 0.567 0.078 0.559-0.127 1.639-0.131 2.196 0 1.182-0.136 2.251-0.161 3.522 0 0.094-0.138 0.541-0.098 0.643 0 0.121 0.02 0.189-0.014 0.227-0.078 1.988 0.162 3.773 0.229 5.756 0.454 0.062-0.217 0.242-0.314 0.34-0.491 1.404 0.039 2.55 0.436 3.939 0.758 0.119 0.043 0.091-0.06 0.15-0.077 0.838 0.46 2.353 0.513 3.295 0.985h0.416c0.82 0.421 1.709 0.373 2.612 0.682 0.415 0.143 1.03 0.312 1.554 0.377 0.094 0.013 0.166 0.142 0.263 0.189 0.41 0.202 1.067 0.197 1.593 0.342 0.409 0.114 0.73 0.224 1.135 0.38 0.682 0.021 1.311 0.378 2.045 0.378 0.096 0.168 0.46 0.07 0.529 0.264 1.699 0.318 3.528 0.935 5.188 1.289 1.395 0.556 2.979 0.705 4.317 1.287 0.198-0.084 0.21 0.076 0.454 0.037 0.039 0.125 0.191 0.136 0.264 0.227 0.659 0.025 0.998 0.268 1.515 0.492-0.12 0.148 0.077 0.299-0.111 0.456 0.728 0.167 1.373 0.412 1.854 0.378 1.375 0.467 2.925 0.951 4.28 1.174 0.188 0.406 0.686 0.498 1.134 0.643 0.341 0.325 0.38 0.801 0.757 1.137-0.083 0.148 0.266 0.451 0.379 0.644 0.241 1.759-0.457 3.065-1.249 4.28-0.319 0.436-0.74 0.773-1.06 1.211-0.879 0.421-1.316 1.283-2.575 1.324-0.233-0.21-0.171-0.279 0.076-0.567 0.194-0.228 0.482-0.468 0.644-0.681 0.68-0.281 1.062-0.857 1.59-1.287 0.053-0.014 0.032-0.096 0.037-0.152 0.686-0.442 1.408-1.691 1.288-2.726-0.011-0.101-0.087-0.182-0.112-0.304-0.028-0.135 0.064-0.465-0.076-0.417-0.014-0.267-0.334-0.468-0.303-0.795-0.532-0.334-0.786-0.521-1.221-0.914zm-3.896-1.173v-0.114c-0.804-0.057-1.507-0.441-2.312-0.301-0.232-0.146-0.523-0.235-0.719-0.418-0.191 0.037-0.303 0.154-0.567 0.112-0.338 0.347-0.646 0.719-1.024 1.023-0.213 0.618-0.596 1.068-0.642 1.856-0.345 0.467-0.103 1.121-0.229 1.741 1.379 1.306 3.796 1.951 5.717 2.462-0.062-0.442 0.132-0.629 0.267-0.873-0.059-2e-3 -0.133 7e-3 -0.114-0.076 0.066-0.498 0.409-0.668 0.265-1.172 0.162-0.421 0.275-0.887 0.605-1.137 0.025-0.594 0.577-0.736 0.909-1.098-9e-3 0.012-0.087-0.015-0.076-0.039 0.058-0.107 0.223-0.126 0.302-0.227 0.027-0.029-0.016-0.115 0-0.15 0.14-0.292 0.619-0.454 0.684-0.795-1.003-0.261-1.782-0.685-3.066-0.794z"/><path class="st3" d="m206.01 91.468c-0.19-0.479-0.079-1.163-0.151-1.515-0.024-0.101 0.079-0.073 0.114-0.114-0.207-0.53 0.158-0.781 0.15-1.438 0.255-0.188 0.028-0.73 0.416-0.834 0.049-0.123-0.121-0.029-0.074-0.15 0.208-0.117 0.15-0.42 0.305-0.721 0.115-0.229 0.559-0.648 0.792-0.947 0.145-0.182 0.245-0.457 0.493-0.492 0.328-0.043 0.629 0.171 1.023 0.228 0.02 0.19-0.133 0.22-0.227 0.304-0.52 0.449-0.592 1.277-1.061 1.779-0.102 0.515-0.508 0.806-0.493 1.325-0.074 0.015-0.029 0.146-0.149 0.113-0.041 0.53-0.399 1.063-0.646 1.517-0.049 0.072-0.198-0.076-0.227 0.074-0.059 0.135 0.129 0.023 0.113 0.113-0.023 0.189-0.117 0.312-0.266 0.38 5e-3 0.195 0.068 0.314-0.112 0.378zm0.265-0.719c6e-3 0.096-0.166 0.205-0.076 0.264 0.031-0.06 0.164-0.21 0.076-0.264z"/><path class="st3" d="m198.7 100.1c0.124 0.09-0.049 0.201-0.076 0.266-0.063-0.032 0.066-0.185 0.076-0.266z"/><path class="st4" d="m169.17 152.73c0.209 7e-3 0.42-0.256 0.34-0.53-0.693 0.073-1.428 0.528-2.121 0.491-1.198 0.481-2.772 0.556-4.391 0.491-0.588-0.021-1.271 0.171-1.629-0.263 0.07-0.283 0.268-0.124 0.455-0.154 1.297-0.195 2.788-0.418 3.938-0.756 0.693-0.14 1.364-0.303 1.931-0.568 0.825-0.221 1.681-0.414 2.31-0.831 0.775-0.337 1.436-0.785 2.16-1.175 0.249-0.443 0.576-0.81 0.982-1.098 4e-3 -0.103-0.062-0.076 0-0.15 0.086-0.055 0.125-0.154 0.228-0.191 0.43-0.78 1.15-1.273 1.552-2.083 0.5-0.369 0.67-1.072 1.137-1.476 0.357-0.689 0.764-1.33 1.212-1.932 0.257-0.512 0.541-1 0.871-1.439-0.03-0.033-0.042-0.084-0.039-0.15 0.517-0.721 0.889-1.585 1.288-2.424 0.059-0.041 0.078-0.123 0.188-0.112 0.01-0.122-0.064-0.161-0.037-0.304 1.023-2 1.471-4.23 2.159-6.475 9e-3 -0.122-0.066-0.159-0.038-0.303 0.583-1.279 0.547-3.045 0.871-4.543 0.021-0.102 0.137-0.205 0.151-0.304 0.055-0.364-0.12-0.805 0.114-1.136 0.01-0.722 0.276-1.595 0.112-2.045 0.021-0.092 0.147-0.08 0.114-0.227-0.102-0.366 0.048-0.801 0.039-1.211-4e-3 -0.155-0.113-0.311-0.115-0.455 0-0.034 0.107-0.119 0.115-0.15 0.094-0.504-0.418-1.423 0.15-1.555 0.399-0.091 0.656 0.379 0.681 0.721 5e-3 0.061-0.072 0.127-0.074 0.188-0.011 0.202 0.05 0.426 0.037 0.683-0.04 0.775-0.144 1.733-0.076 2.346-0.148 0.312-0.226 0.951-0.151 1.25-0.22 0.471-0.227 1.232-0.303 1.855-0.023 0.195-0.152 0.463-0.037 0.606-0.33 0.524-0.162 1.52-0.53 2.159 9e-3 0.972-0.315 1.436-0.454 2.386-0.035 0.028-0.087 0.039-0.152 0.036 0.021 0.035 0.105 0.058 0.037 0.076-0.123 0.037 0.043 0.075 0.039 0.113-0.179 0.619-0.277 1.273-0.455 1.893-0.061 0.217-0.207 0.428-0.264 0.644-0.211 0.803-0.365 1.62-0.796 2.233-3e-3 0.41-0.229 0.902-0.455 1.213v0.189c-0.081 0.096-0.176 0.178-0.15 0.379-0.286 0.408-0.465 0.923-0.681 1.4-0.121-6e-3 -0.018 0.212-0.19 0.152 0.036 0.287-0.267 0.43-0.266 0.795-0.149-0.05-0.077 0.123-0.226 0.074 0.026 0.141-0.065 0.162-0.039 0.305-0.57 0.791-1.073 1.652-1.553 2.536 0.23-0.048 0.517-0.039 0.605-0.228 1.049-0.251 1.168-1.432 1.816-2.082 0.602-1.218 1.271-2.366 1.896-3.559 0.011-0.089 0.058-0.144 0.037-0.266 0.363-0.355 0.488-0.95 0.795-1.362-9e-3 -0.159 0.061-0.179 0-0.304 0.189-0.023 0.215-0.212 0.227-0.416 0.247-0.182 0.275-0.584 0.531-0.758-0.072-0.26 0.17-0.206 0.111-0.454 0.395-0.325 0.455-0.985 0.646-1.514 0.362-0.668 0.976-0.541 1.286 0.149-0.047 0.596-0.4 0.984-0.341 1.477-1.017 1.441-1.72 3.484-2.612 4.81v0.228c-0.669 0.971-1.133 2.148-1.779 3.143 2.213-0.828 4.132-1.951 6.096-3.029 0.637-0.574 1.422-1.002 2.12-1.515 1.562-1.304 3.023-2.709 4.507-4.089 0.375-0.697 1.104-1.042 1.477-1.742 0.411-0.231 0.605-0.681 0.984-0.945 0.321-0.59 0.887-0.934 1.136-1.591 0.708-0.794 1.28-1.722 1.741-2.765 0.873-1.244 1.437-2.872 2.084-4.316 0.014-0.463 0.276-0.771 0.416-1.172 0.14-0.409 0.127-0.885 0.416-1.213-0.191-0.369 0.164-0.676 0.266-0.984 0.582-0.214 1.013 0.168 1.324 0.454 0.162 0.263-0.086 0.433-0.227 0.719-0.028 0.056 0.026 0.149 0 0.229-0.028 0.081-0.182 0.131-0.228 0.226-0.104 0.218-0.078 0.52-0.151 0.682-0.041 0.094-0.243 0.141-0.151 0.418-0.279 0.269-0.339 0.676-0.493 1.135-0.361 0.645-0.48 1.355-0.908 1.97-0.238 1.036-0.819 1.558-1.136 2.46-0.519 0.604-0.794 1.453-1.364 2.008-0.233 0.686-0.805 1.037-1.096 1.666-1.417 1.486-2.72 3.086-4.242 4.468-0.672 0.741-1.492 1.335-2.158 2.083-1.4 1.012-2.663 2.156-4.278 2.953-0.731 0.657-1.794 0.984-2.613 1.551-0.542 0.062-0.751 0.461-1.324 0.492-0.055 9e-3 -0.014 0.114-0.075 0.115-1.037 0.342-2.032 0.768-2.955 1.022-0.592 0.907-1.424 1.578-2.006 2.499-0.121-0.032-0.117 0.059-0.189 0.076-0.754 0.784-1.502 1.575-2.424 2.195-0.32 0.31-0.576 0.686-1.023 0.871-0.348 0.406-0.977 0.537-1.286 0.983-0.196 0.106-0.465 0.142-0.53 0.378-0.377 0.063-0.744 0.249-1.061 0.418-0.426 0.229-0.697 0.664-0.984 1.022-0.116-4e-3 -0.18 0.046-0.264 0.074-0.107 0.039 0.054 0.101-0.038 0.153-0.2-0.138-0.33 0.223-0.341 0.264-0.332-0.021-0.531 0.566-0.871 0.53 0.165-0.308 0.694-0.259 0.642-0.791zm5.527-5.416c1.021-0.846 1.967-1.768 2.764-2.84-0.204 0.074-0.531 0.025-0.795 0.039-0.267 0.428-0.454 0.934-0.947 1.136-0.158 0.525-0.48 1.206-1.06 1.438 0.087 0.12 0.017 0.28 0.038 0.227z"/><path class="st3" d="m174.66 147.09c0.579-0.231 0.901-0.912 1.06-1.438 0.493-0.202 0.681-0.708 0.947-1.136 0.264-0.014 0.591 0.035 0.795-0.039-0.797 1.072-1.742 1.994-2.764 2.84-0.021 0.053 0.049-0.107-0.038-0.227z"/><path class="st4" d="m199.2 93.854c0.343-0.537 0.951-0.306 1.553-0.342 0.329-0.019 0.645-0.118 0.945 0.038-0.051 0.166 0.091 0.138 0.115 0.228 0.58-0.026 0.986 0.31 1.552 0.378 1.077 0.133 2.069 0.456 3.067 0.721 0.462 0.12 0.961 0.186 1.4 0.342 1.137 0.397 2.476 0.682 3.597 0.945 0.699 0.162 1.445 0.188 2.083 0.416 0.559 0.199 1.42 0.395 2.119 0.643 1.74 0.32 3.301 1.018 4.962 1.289 0.624 0.368 1.369 0.446 2.081 0.681 0.205 0.065 0.368 0.223 0.568 0.304 0.793 0.322 1.657 0.539 2.463 0.833 0.057 0.092 0.201 0.099 0.226 0.228 2.774 0.6 5.546 1.518 8.292 2.195 0.058 0.169 0.14 0.316 0.229 0.454 0.534 0.271 0.666 0.948 1.248 1.173 0.119 0.603 0.523 0.924 0.605 1.554-0.019 0.243-0.28 0.574-0.076 0.795-0.159-0.015-0.084 0.207-0.074 0.265-0.159 0.326-0.353 0.639-0.227 1.061-0.229 0.32-0.274 0.812-0.569 1.098 0.034 0.111 0.034 0.117 0 0.227-0.058 0.132-0.21 0.17-0.188 0.38-0.122 0.019-0.161 0.12-0.306 0.112-0.529 0.778-1.24 1.551-2.043 1.932-0.107 0.07-0.145 0.209-0.227 0.304-0.132-0.03-0.146 0.056-0.266 0.037-1.604 0.944-3.666 0.785-5.756 0.983-0.145 0.016-0.314-2e-3 -0.454 0-1.303 0.019-2.468-0.179-3.9-0.15-0.899-0.172-1.814-0.26-2.497-0.721 0.037 0.203-0.109 0.406-0.115 0.646-2e-3 0.127 0.091 0.277 0.076 0.415-0.039 0.343-0.322 0.648-0.416 0.984-0.072 0.255-0.031 0.503-0.113 0.682-0.164 0.349-0.471 0.689-0.646 0.909 0.06 0.413-0.271 0.435-0.263 0.795-0.572 0.148-0.702 0.738-1.062 1.099-0.712 0.295-1.186 0.834-1.855 1.173-0.58 0.139-1.122 0.344-1.705 0.568-0.209-0.106-0.721-0.037-0.943 0.076-3.059-0.045-6.825-0.066-9.693-0.72-0.045-7e-3 -0.033-0.069-0.039-0.113-0.755-0.092-1.262-0.431-1.855-0.683-2.547 0.064-4.637 0.211-7.231 0.038-0.833-0.054-1.38-0.218-2.31-0.074-0.295 0.044-0.664 0.077-0.91 0.149-1.309 0.387-3.141 0.386-4.619 0.416-0.399 0.011-0.752 0.063-1.098 0.039-0.445-0.03-1.002-0.185-1.287 0.075-0.078 0.073-0.105 0.181-0.188 0.267-0.41 0.416-1.07 0.797-1.517 1.172-0.063 0.055-0.079 0.168-0.151 0.229-0.225 0.188-0.707 0.383-1.098 0.643-0.18 0.119-0.363 0.23-0.53 0.342-0.179 0.117-0.272 0.25-0.491 0.378-0.05 0.028-0.138 0-0.189 0.038-0.648 0.479-1.677 0.848-2.462 1.25-0.297 0.15-0.891 0.365-1.288 0.492-0.176 0.057-0.475 0.113-0.567 0.113-0.187 4e-3 -0.378-0.147-0.568-0.15-0.211-6e-3 -0.433 0.209-0.604-0.038 0.166-0.275 0.553-0.33 0.908-0.417 0.084-0.031 0.094-0.133 0.152-0.189 0.951-0.375 1.939-0.71 2.65-1.326 0.825-0.232 1.549-0.865 2.309-1.285 0.799-0.578 1.593-1.161 2.311-1.82-0.061-0.178-0.246-0.232-0.265-0.453 0.548-0.278 0.917-0.039 1.325-0.455 0.131-0.135 0.285-0.398 0.491-0.529 0.056-0.035 0.159-0.014 0.19-0.039 0.189-0.156 0.264-0.529 0.681-0.264 9e-3 0.379-0.153 0.631-0.152 0.985 1.635-0.07 2.879-0.132 4.507-0.493-0.186-0.182-0.463-0.27-0.605-0.492-0.055-0.281 0.11-0.344 0.189-0.492 1.352 0.224 3.049 0.668 4.506 0.303 0.404-0.238 1.041-0.244 1.248-0.681 0.785-0.229 0.945 0.729 0.53 1.134 0.753 0.033 1.644 0.07 2.613 0.039 1.193-0.039 2.612-0.04 3.407-0.529 0.271 0.1 0.652 0.308 0.834 0 0.878-0.059 2.277-0.912 2.043 0.643-0.194 0.223-0.365 0.467-0.643 0.605 0.096 0.146 0.27 0.164 0.416 0.189 0.643 0.123 1.411 0.109 2.081 0.153 1.447 0.091 2.915 0.231 4.167 0.263 1.144 0.03 2.395 0.057 3.445-0.15 0.672-0.134 1.242-0.484 1.854-0.682 0.351-0.408 0.887-0.627 1.288-0.984v-0.227c0.322-0.081 0.346-0.463 0.643-0.568v-0.227c0.437-0.498 0.807-1.062 0.91-1.893 0.02-0.119 0.115-0.164 0.152-0.267 0.027-0.115-0.067-0.111-0.037-0.227 0.24-0.271 0.176-0.749 0.037-1.099 0.087-0.303 0.018-0.521-0.152-0.721-0.029-0.156 0.052-0.315 0-0.379-0.288-0.436-0.707-0.916-0.266-1.323-0.562 0.214-1.201 0.245-1.627 0.644-0.07 0.064-0.107 0.197-0.191 0.264-0.088 0.073-0.213 0.068-0.303 0.153-0.188 0.185-0.276 0.496-0.454 0.757-0.11 0.162-0.31 0.248-0.417 0.416-0.214 0.346-0.23 0.803-0.34 1.211-0.104 0.396-0.327 0.727-0.303 1.099 0.013 0.114 0.021 0.231 0.113 0.266-0.027 0.109-0.139 0.14-0.188 0.228 0.023 0.155 0.107 0.311 0.111 0.378-0.275 0.186-0.566 0.728-0.909 0.796-0.303 0.061-0.733-0.166-1.134-0.229-0.193-0.028-0.443 0.061-0.607 0.037-0.182-0.023-0.387-0.157-0.566-0.188-0.964-0.168-1.962-0.345-2.689-0.718-0.34-0.281-0.82-0.417-1.174-0.683-0.121 0.296 0.207 0.667 0.341 0.946-0.028 0.061-0.118 0.057-0.113 0.151-0.302 0.036-0.306-0.226-0.491-0.302-0.123-0.445-0.169-0.969-0.268-1.478-0.037-0.196-0.167-0.357-0.15-0.569 0.012-0.119 0.095-0.123 0.15-0.264 0.119-0.285 0.041-0.629 0.268-0.795-0.037-0.172 0.098-0.283-0.037-0.34 0.025-0.102 0.122-0.13 0.15-0.227-0.09-0.891 0.574-1.569 0.871-2.312 0.383-0.247 0.672-0.746 1.287-0.643 0.459 0.357-0.287 0.496-0.568 0.795-0.264 0.279-0.359 0.499-0.455 0.719-0.129-0.029-0.159 0.045-0.227 0.077-0.209 0.422-0.238 1.022-0.643 1.251 0.129 0.143 0.01 0.419-0.152 0.49 0.124 0.351-0.173 0.773-0.113 1.135 0.023 0.152 0.148 0.347 0.229 0.456 0.522 0.709 1.686 1.152 2.422 1.591 0.292-0.052 0.564 0.133 0.832 0.188 0.349 0.072 0.755 0.09 1.098 0.189 0.041 0.014 0.296 0.029 0.227 0 0.078 0.033 0.062 0.143 0.115 0.152 0.074 0.013 0.229-0.049 0.34-0.037 0.516 0.047 0.879 0.215 1.438 0.15-0.166-0.206 0.057-0.684-0.225-0.834-7e-3 -0.289 0.014-0.354 0.15-0.529 0.018-0.422 0.145-0.827 0.227-1.174 0.088-0.367 0.134-0.848 0.268-1.173 0.082-0.204 0.31-0.415 0.453-0.644 0.352-0.565 0.537-0.971 1.061-1.325-0.785-0.124-1.984-0.374-2.803-0.456-0.963-0.586-3.02-0.277-3.407-1.552 0.037-2e-3 0.03-0.046 0.039-0.075 2.751 0.217 5.622 1.018 8.366 0.985 0.145 0.175 0.39 0.461 0.189 0.757 1.241-0.088 1.479 1.256 1.781 2.119 1.814 0.223 3.816 0.426 6.018 0.531 0.07-0.17 0.312 0.028 0.606-0.039 0.085 0.021 0.054-0.072 0.114-0.076 1.065-0.101 1.992-0.039 2.916-0.226 0.105-0.022 0.133 3e-3 0.189-0.114 1.064 0.041 1.77-0.602 2.611-0.907 0.408-0.489 1.166-0.628 1.401-1.288 0.081-0.035 0.167-0.061 0.227-0.115-0.037-0.367 0.254-0.461 0.417-0.719 0.212-0.791 0.282-1.486 0.455-2.234-0.08-0.5-0.584-0.58-0.605-1.096-0.117-0.076-0.271-0.109-0.229-0.343-0.086-0.134-0.406-0.197-0.529-0.339-0.211-0.246-0.303-0.982-0.756-0.799-0.406 0.168-0.846 0.611-1.291 0.834-0.428 0.67-1.028 1.164-1.476 1.818-0.124 0.449-0.175 0.746-0.452 1.023-0.043 0.357-0.069 1.037-0.342 1.286 0.037 0.114 0.133 0.169 0.113 0.341-0.031 0.108-0.062 0.217-0.227 0.189 0.027 0.035 0.066 0.059 0.113 0.076-0.084 0.217-0.285 0.32-0.379 0.53-0.161-9e-3 -0.301 3e-3 -0.34 0.112-1.085-0.254-1.943-0.429-3.143-0.719v-0.113c-0.791-0.242-1.561-0.4-2.047-0.871-0.689-0.023-1.174-0.562-1.664-0.908 6e-3 -0.451-0.264-0.504-0.152-0.984 0.099 4e-3 0.055 0.148 0.152 0.152 0.091-0.338-0.146-0.492 0.037-0.797 0.015-0.115-0.137-0.064-0.152-0.15 0.074-0.303-0.054-0.693 0.152-0.986-0.047-0.066-8e-3 -0.219-0.078-0.265 0.18-0.499 0.115-1.31 0.57-1.628-0.084-0.082 0.033-0.129 0-0.264 0.382-0.352 0.645-0.819 1.135-1.062 0.041-0.179-0.189-0.087-0.189-0.228 0.065-0.098 6e-3 -0.324 0.076-0.416-0.242-0.153-0.537-0.271-0.832-0.379-0.255-0.092-0.572-0.137-0.871-0.189-0.305-0.185-0.541-0.209-0.984-0.264-0.062-0.09-0.195-0.109-0.264-0.189-0.348 0.018-0.496-0.143-0.758-0.113-0.161-0.243-0.506-0.182-0.796-0.266-0.622-0.18-1.337-0.432-1.931-0.645-0.799-0.064-1.459-0.453-2.16-0.49-0.103-0.01-0.105-0.121-0.188-0.152-2.364-0.473-5.242-1.211-7.574-1.855-0.18-0.052-0.398-0.069-0.605-0.037-1.244-0.433-2.363-0.598-3.786-0.871-0.454 0.68-1.081 1.189-1.401 2.007-0.12 0.032-0.116-0.062-0.188-0.075 0.086 0.188-0.011 0.416-0.228 0.416v0.301c-0.432 0.453-0.632 1.135-1.022 1.629 0.062 0.506 0.349 1.115 0.454 1.553-0.203 0.027-0.323-0.027-0.454-0.076-0.058-0.347-0.146-0.434-0.302-0.757-0.184 0.233-0.328 0.507-0.53 0.72-0.173-0.166-9e-3 -0.279-0.076-0.529 0.26-0.229 0.214-0.609 0.416-0.834-0.196-1.596-0.334-3.366 0.53-4.582-0.456-0.143-0.973-0.203-1.477-0.151-0.282 0.03-0.426-0.055-0.643-0.074-0.061-7e-3 -0.127 0.074-0.189 0.074-0.17 2e-3 -0.376-0.109-0.531-0.111-0.329-7e-3 -0.75 0.03-1.211 0-0.408-0.03-0.857 0.035-1.249 0-1.158-0.106-2.276-0.184-3.294-0.191-0.141 0.026 0.016 0.113-0.076 0.191-0.14-0.03 0.016-0.116-0.076-0.191-1.703-0.063-3.379-0.122-4.998-0.114-2.54 0.014-4.941-0.199-7.232-0.113-0.201 8e-3 -0.406-0.086-0.605-0.074-0.49 0.023-0.854 0.083-1.288-0.266-0.132-0.302-0.064-0.678 0.153-0.832 0.387-0.186 1.137-0.012 1.514-0.114 4.496 0.177 8.859 0.437 13.594 0.378 1.266 0.17 3.055 0.216 4.202 0.228 0.033 0.03 0.022 0.104 0.075 0.113 0.897-0.108 2.19 0.097 3.106 0.149zm0.948 1.133c-0.58 1.032-1.017 2.178-0.834 3.713 0.205 4e-3 0.123-0.467 0.341-0.267-0.042-0.332 0.063-0.518 0.151-0.72 0.147 0.08 0.18-0.1 0.342-0.113-0.072-0.248 0.137-0.213 0.15-0.379-0.016-0.071-0.146-0.029-0.113-0.15 0.242-0.021 0.191-0.34 0.417-0.378 0.026-0.116-0.104-0.073-0.075-0.19 0.447-0.346 0.549-1.041 1.172-1.211-0.016-0.092 0.069-0.082 0.039-0.189-0.618 0.056-0.993-0.053-1.59-0.116zm-1.516 5.379c0.027-0.064 0.2-0.176 0.076-0.266-0.01 0.082-0.139 0.235-0.076 0.266zm31.087 2.46c-0.814-0.344-1.742-0.554-2.614-0.683-1.004-0.451-2.195-0.465-3.104-0.604-0.336 0.205-0.689 0.396-0.871 0.757-0.084-0.089-0.148 0.014-0.266 0 2e-3 0.26-0.264 0.406-0.378 0.682-0.142 0.333-0.12 0.764-0.341 1.021-0.027 0.116 0.064 0.111 0.037 0.227h-0.113c0.053 0.677-0.101 1.261 0 1.818-0.096-6e-3 -0.117 0.058-0.15 0.114 0.048 0.352 0.38 0.592 0.302 0.945 0.981 0.736 2.124 1.152 3.368 1.667 0.426-0.062 0.77 0.261 1.215 0.302 0 0.066-0.01 0.118-0.039 0.152 0.627-0.164 1.195 0.117 1.742 0.111 0.03-0.432 0.086-0.818-0.039-1.135 0.177-0.382 0.389-0.788 0.379-1.249 0.26-0.169 0.25-0.608 0.531-0.757 0.02-0.433 0.463-0.445 0.491-0.869 0.312-0.101 0.48-0.484 0.53-0.723 0.208-0.145 0.459-0.248 0.492-0.567 0.344-0.115 0.398-0.474 0.683-0.718-0.587-0.175-1.278-0.434-1.855-0.491z"/><path class="st5" d="m53.885 161.85s-15.91 25.193-20.344 35.961"/><path class="st5" d="m33.62 131.54s-18.445 19.093-23.195 22.417"/><path class="st6" d="m167.65 151.71s-22.462 40.021-26.983 51.004"/><path class="st7" d="m150.59 132.5c-10.15 10.662-15.836 16.45-19.352 19.817"/><path class="st8" d="m27.842 137.65s-1.268 20.109 20.899 30.4"/><path class="st8" d="m145.31 138.23s-2.408 18.578 15.326 22.378"/><path class="st9" d="m267.81 136.12c-1.74 9.187-9.811 16.132-19.504 16.132-10.965 0-19.853-8.888-19.853-19.852s8.888-19.853 19.853-19.853c8.033 0 14.954 4.77 18.078 11.636"/><polygon points="260.04 122.75 265.67 122.61 269.48 118.46 269.84 131.79"/></svg>
