<?xml version="1.0" encoding="UTF-8"?>
<!DOCTYPE svg  PUBLIC '-//W3C//DTD SVG 1.1//EN'  'http://www.w3.org/Graphics/SVG/1.1/DTD/svg11.dtd'>
<svg width="150.24px" height="226.77px" enable-background="new 0 0 150.236 226.771" version="1.1" viewBox="0 0 150.24 226.77" xmlns="http://www.w3.org/2000/svg"><rect width="150.24px" height="226.77px" fill="#fff"/><linearGradient id="a" x1="56.946" x2="60.946" y1="200.41" y2="186.41" gradientUnits="userSpaceOnUse"><stop stop-color="#fff" offset="0"/><stop stop-color="#EDEDED" offset="1"/></linearGradient><path d="M88,210l2.667-27.666L93,171c0,0-16.667,1.001-19-0.666S58.667,164.666,55,161 s-10.667-12.666-11.667-12.666s-3,4.666-3,4.666L35,171.667c0,0-7.333,16.667-8.667,17.667S73,206,88,210z" fill="url(#a)"/><path d="m138.02 29.921c0.111 0.671 1.118 0.783 1.678 1.007 2.237 1.9 3.579 4.809 3.131 7.716 0.448 0.336-0.224 0.896-0.335 1.343 0 1.453-0.783 2.572-1.008 4.026-0.446 0.223-0.223 0.783-0.559 1.006l0.225 0.225c-0.783 1.117-0.896 2.013-1.565 3.242-2.685 6.71-6.04 12.861-8.947 19.46-0.336 0.225-0.56 0.671-0.447 1.119h-0.225c-1.677 2.907-2.796 5.814-4.473 8.611 0.223 0.782-0.447 0.559-0.561 1.118-2.907 4.696-4.808 9.841-5.256 15.545l0.113 0.224c-0.561 0.559-0.561 1.677-0.672 2.572-1.119 4.809-1.901 10.625-3.355 15.769v0.112c-2.572 7.94-6.374 15.545-10.736 22.59 0 0.336-0.447 0.67-0.67 1.008-3.468 6.037-6.71 12.523-10.179 18.453 0.113 0.895-0.782 1.453-0.446 2.57-0.447 0.672-0.672 1.678-0.783 2.461-0.112 1.455-0.672 2.35-0.783 3.803-0.67 1.342-1.006 2.908-1.118 4.361-0.224 0.447-1.342 0.561-2.012 0.225-0.336-2.35 0.894-4.475 1.229-6.822 0.447-2.461 1.007-4.139 1.565-6.598 0.224-1.008-0.112-2.686 1.343-2.91l0.559-0.334c4.92-11.295 12.637-21.359 17.335-32.879l1.565-3.915c-0.447-0.336 0.335-0.447 0.335-0.896 0-0.893 0.896-2.124 0.896-3.129 2.124-7.494 3.131-15.769 4.92-23.821 0.895-2.013 1.118-4.585 2.908-6.039 1.006-2.46 2.349-4.81 3.578-7.27 1.678-3.691 3.692-7.494 5.369-11.408h0.111c0.895-1.9 2.125-3.802 2.685-5.927 2.124-3.914 3.69-8.388 5.368-12.413 0.559-0.673-0.225-1.566 0.67-2.014 0.225-0.559 0.225-1.23 0.336-1.79-1.678 1.566-3.69 4.25-6.374 3.355-1.343-0.335-2.461-1.343-3.803-1.454-1.119-1.118-0.559-2.571-0.559-3.913-1.23-0.225-1.902 1.453-2.349 2.46-1.678 1.678-2.685 4.249-4.138 6.038-4.81 7.941-8.053 16.664-12.415 24.828-0.895 0.559-0.56 1.118-1.454 1.678-0.111 0-0.224-0.111-0.335-0.224 0-0.224 0.335-0.336 0.111-0.56-1.229 0.896-0.895 2.685-1.789 3.914 0 0.896-0.67 1.455-0.783 2.35-1.229 1.453-0.335 4.362-2.683 4.585-1.008-1.006-0.225-2.46 0-3.467 1.565-4.25 3.019-8.501 3.913-12.974-0.783-2.572-3.243-4.585-5.704-5.032-1.117-0.895-3.801 0.223-3.354-2.237-1.118 1.343-1.006 3.803-2.237 5.033-1.9 3.914-3.242 8.275-6.598 11.296-0.223-0.112-0.559 0.111-0.783-0.112 1.23-2.46 2.349-5.704 3.802-8.275 0.56-1.453 1.679-2.908 1.679-4.474 0.783-1.79 1.789-3.468 1.117-5.48-1.453-2.348-3.466-4.697-6.598-5.032-2.46 1.007-5.814 1.118-7.045 3.802-2.014 2.573-5.48 2.013-7.382 4.361-1.006-0.559-2.684 1.455-2.907-0.446 0.335-0.559-0.224-1.119 0.224-1.566 1.006 0.225 2.236 0.225 3.243 0 2.571-2.461 5.592-4.249 7.045-7.492 1.791-2.685-0.336-5.48-2.013-7.717-1.119-1.118-2.461-2.685-4.026-2.796-0.671-1.118-1.9-0.672-3.019-0.56-1.008 0.446-2.013 0.783-2.907 1.565-3.915 1.566-7.047 5.256-9.619 8.388-0.224 1.342-1.901 1.678-2.572 2.908-5.368 6.598-9.617 13.756-13.085 21.36-0.559 0.559-0.895 1.118-1.788 1.007-0.225-0.224-0.672-0.224-0.56-0.56 0.894-0.672-0.56-1.006-0.336-1.677-2.014-2.237-2.349-5.257-3.467-7.828 0.335-1.008-0.671-2.237 0.112-3.021-3.02-7.828-8.389-15.993-16.664-19.236-2.126-1.117-4.809-0.111-6.821 0.783-0.896 1.343-2.796 2.572-1.791 4.362 2.126 4.025 6.151 6.71 9.171 10.176v0.783c-1.788 1.007-2.348-1.565-3.69-1.789 0-0.895-1.23-0.336-1.007-1.229-2.683-2.686-6.151-5.145-7.045-8.836 0.111-2.349 2.125-4.696 4.25-5.703 4.361-2.572 9.953-0.56 13.644 2.125 2.908 2.46 6.039 5.367 8.052 8.835 0.447 1.23 1.007 2.46 1.565 3.579 2.126 4.025 1.791 8.835 4.362 12.861 0 0.782 0.336 1.677 1.008 2.46 2.795-6.264 6.933-12.19 10.624-18.117 4.584-4.81 9.058-11.296 15.433-14.092 1.79-1.677 3.915-1.566 6.375-1.342 3.243 1.118 5.145 3.69 7.492 6.039 0.113 1.006 1.118 1.117 1.007 2.236 1.007 1.565 0.783 3.914 0.111 5.704 1.008-0.56 2.796-0.224 3.133-1.678 1.005-0.112 2.124 0.446 3.242-0.112 0.336 0.224 1.007-0.224 1.007 0.337 0.112 0.446-0.112 0.559 0.224 0.782 0.223-0.112 0.336 0 0.56 0.111 2.125 1.902 4.474 4.249 5.368 7.157-0.113 0.448-0.225 0.783 0.111 1.118 0.672-0.895 1.566-0.781 2.685-0.781 1.229 0.559 2.461 0.334 3.579 1.229 2.012 1.007 4.025 3.02 4.92 5.368 0.895 1.565-0.112 3.467-0.446 5.145h0.334c0.672-1.901 1.565-4.026 2.573-5.928l-0.111-0.336c1.006-1.788 2.236-4.138 2.683-6.262 0.895-1.454 1.791-3.132 2.237-4.697 2.125-4.362 4.921-8.5 7.157-12.638 0.446-0.335 0.671-1.118 1.119-1.566 0.446-0.671 1.006-1.564 1.229-2.348 0.113 0 0.224-0.225 0.335-0.336-0.222-0.447 0.783-0.783 1.231-1.006 0.782-1.454 1.677-2.796 2.236-4.14 1.565-0.11 2.684-2.124 4.36-1.453 1.234-0.108 2.463-0.108 3.805 3e-3z"/><polygon points="138.92 33.5 137.01 32.606 137.91 32.829" fill="#fff"/><path d="m139.48 35.737c-1.789-1.006-3.802-1.453-5.815-2.236 1.008-0.672 2.35 0 3.354 0.111 1.007 0.672 1.902 1.231 2.461 2.125z" fill="#fff"/><path d="m139.92 36.967c0.224-0.111 0.111-0.336 0.224-0.56l-0.447-0.335c1.007 0.111 0.671 1.342 0.559 2.125-1.118 2.013-3.02 3.914-5.257 4.585-1.564-0.895-3.354 0-4.249-1.789-1.229-0.783-0.447-2.684-0.335-3.803l1.006-3.021c2.907 0.674 5.927 1.345 8.499 2.798z" fill="#fff"/><path d="m90.043 199.02c1.007-9.061 2.014-18.117 3.915-26.953 1.006-0.447 0.336-1.455 0.896-2.125 0.335-0.447 0.222-1.23 0.894-1.678 0.111-0.672 0.447-1.117 0-1.789-0.223-0.225-0.783-0.783-1.342-0.672-2.237 0.783-1.454 3.691-3.131 4.809-4.81 0.449-9.172 0-13.868-0.67-11.631-2.461-22.255-8.053-29.973-17.783 1.229-1.342 1.789-3.131 2.013-4.695 0.56-0.336-0.111-0.895 0.449-1.119 0.334-2.797 1.342-5.814 0.446-8.834l-0.56-0.672c-1.341-3.691-3.243-7.047-4.81-10.512-0.446-1.119-1.229-1.789-1.342-3.131h-0.222c-0.783-1.566-1.679-3.021-2.574-4.475-0.446-1.454-1.565-2.571-2.013-4.026-2.571-4.697-5.703-9.506-7.381-14.762-0.672-5.704-2.349-10.96-3.243-16.44-1.79-7.157-3.354-14.426-6.486-21.248-0.56-0.896-0.895-2.125-2.126-2.125-0.559 0.224-0.781 0.782-0.781 1.342 3.354 5.815 4.92 12.638 6.71 19.123 0.223 0.448 0 1.231 0.335 1.344 1.006 4.36 2.013 9.059 3.021 13.42-0.448 1.453-0.225 2.908 0.111 4.249 4.584 12.639 13.195 23.599 18.229 36.123 2.013 3.914 0.672 8.611-0.335 12.303-0.448 0.783-0.111 1.9-1.007 2.459-1.006-1.004-1.565-2.682-3.131-2.906-0.225 0.225-0.561 0.336-0.447 0.783 7.045 11.52 19.683 20.018 32.544 23.037 2.126 0.336 4.473 1.008 6.599 0.783 2.684 0.783 5.479 0.336 8.499 0.336 0.448-0.111 1.007-0.447 1.453-0.225-0.335 1.68-0.67 3.58-1.005 5.146-1.163 9.545-2.39 19.051-3.304 28.559 0.837-0.611 1.669-1.221 2.488-1.838 0.167-1.717 0.331-3.429 0.479-5.138z"/><path d="m108.94 71.078-0.224 0.222 0.113-0.447c0.223-0.111 0.111 0.112 0.111 0.225z" fill="#fff"/><rect x="108.5" y="71.972" width=".112" height=".223" fill="#fff"/><path d="m42.066 150.15c-0.224-0.336-0.448-1.008-1.007-1.008-1.007 0.561-1.007 1.791-1.007 2.686 0.112 0.783-1.23 0.67-0.447 1.23-0.224 0.67 0 2.014-0.895 1.9 0.671 0.336 0.111 1.23 0.111 1.902-3.057 9.826-6.838 19.172-11.087 28.301 0.276 1.045 0.552 2.086 0.828 3.123 0.476-1.006 0.955-2.01 1.424-3.018 0.782-1.232 0.782-2.35 1.79-3.355 0-0.895 0.783-1.678 0.783-2.572 2.571-5.033 4.584-10.512 6.709-15.658h0.112c-0.446-0.781 0.559-0.895 0.224-1.564 0.783-1.453 1.008-3.355 1.566-4.809 0-0.672 0.223-1.455 0.335-2.014l0.336-0.336c-0.223-1.453 0.672-3.242 0.225-4.808z"/><line x1="52.569" x2="115.51" y1="22.014" y2="22.014" fill="none" stroke="#000" stroke-width="3.3"/><polygon points="109.02 30.568 112.66 22.014 109.02 13.458 129.3 22.014"/><polygon points="59.057 13.459 55.424 22.014 59.057 30.571 38.78 22.014"/></svg>
