<?xml version="1.0" encoding="UTF-8"?>
<!DOCTYPE svg  PUBLIC '-//W3C//DTD SVG 1.1//EN'  'http://www.w3.org/Graphics/SVG/1.1/DTD/svg11.dtd'>
<svg width="170.08px" height="226.77px" enable-background="new 0 0 170.079 226.771" version="1.1" viewBox="0 0 170.08 226.77" xmlns="http://www.w3.org/2000/svg"><rect width="170.08px" height="226.77px" fill="#fff"/><linearGradient id="a" x1="35.938" x2="53.271" y1="210.58" y2="155.92" gradientUnits="userSpaceOnUse"><stop stop-color="#fff" offset="0"/><stop stop-color="#EDEDED" offset="1"/></linearGradient><path d="m67 210 7.667-35.667 3.333-13.333-12.667-1-17.667-8.333-9-6.334-3.333-3-16.333 30.667-9 22s20.666 25 57 15z" fill="url(#a)"/><path d="m151.79 82.25c-1.383-1.612-2.88-2.649-4.838-2.879-0.922-0.116-1.844 0.229-2.649 0l-0.691 0.575-0.23-0.23c0.23-1.268-0.461-2.649-0.115-3.802-0.807-0.922-0.461-2.304-0.691-3.455 0.23-0.692-0.575-1.152 0-1.728-0.691-0.461-0.461-1.498-0.461-2.074-0.576-1.152-0.576-2.188-0.807-3.34 0.115-0.116 0.115-0.23 0.23-0.23v-0.346c-0.461-0.461-0.461-1.267-0.69-1.958 0-0.576-0.46-1.382 0-1.843 0.022 0.023 0.05 0.064 0.077 0.105l-0.652-4.136c-0.807-1.498-2.19-2.535-2.996-4.032l-0.115 0.115-0.576-0.577c-4.606-4.953-10.367-9.791-16.933-11.173-0.461 0.461-1.497 0.461-1.383 1.383 0.462 1.037 1.269 0.921 2.073 0.921 0.576 0.46 1.498 0.692 1.958 0.921 0.922 0.23 2.074 1.037 2.766 1.268 0.114 0.46 0.808 0.115 1.036 0.69 1.383 0.576 2.881 1.844 3.916 2.995 2.535 1.498 4.839 3.917 6.451 6.105l0.115-0.115c0.576 1.151 2.649 2.304 1.729 3.57-2.765-3.34-6.221-5.759-9.445-8.64-0.231-0.115-0.463-0.23-0.463-0.46-1.381-0.691-2.418-1.959-3.915-2.649-2.765-2.074-5.759-3.341-8.64-4.838-0.691-0.807-1.151-0.46-1.844-1.152l-0.114 0.23c-2.188-0.461-4.262 0.576-6.335 1.152-0.462-0.461-0.576 0.921-1.037 0.115 0 2.649-2.42-0.23-3.572 1.613-7.025 2.073-13.592 4.608-20.502 7.718-1.498 0.576-3.11 1.612-4.607 2.074-2.996 1.842-6.335 3.34-9.331 5.644-3.456-0.691-5.875 2.419-7.718 4.608-1.843 4.376-2.765 9.331-2.304 14.399-0.23 1.268-0.806 2.533-0.92 3.686-0.577 1.151-0.923 2.649-1.038 3.917-1.728 6.104-3.34 12.556-5.068 18.776l-0.229 0.115 0.229 0.23c-1.498 5.069-2.88 9.331-4.377 14.054-0.345 1.151-0.46 2.534-1.151 3.341-0.577 2.188-1.844 4.607-2.419 6.911-1.152 0.691-0.461 1.612-1.268 2.419-0.115 0.576-0.806 0.346-0.345 1.037-1.498 2.879-3.111 6.45-4.953 8.984 0.23 0.576 0.922 0.115 1.498 0.115 2.764-2.764 4.724-6.336 6.22-10.021 1.152-1.612 1.613-3.34 2.189-5.068 0.346-0.576 0.461-1.383 1.037-1.612l-0.346-0.576c1.152-0.69 0.231-1.958 1.268-2.649 0.46-2.188 1.267-4.032 1.728-6.221 1.843-5.414 3.111-10.598 4.838-16.011h0.224c-0.229-0.346-0.114-0.807 0.231-1.152 0.116-1.498 0.46-2.879 1.152-4.032 0.115 0-0.115-0.461 0.23-0.461l-0.23-0.23c1.036-2.995 1.497-6.451 2.419-9.561 0.46-0.345-0.115-1.267 0.577-1.497 0.69-2.65 1.381-5.529 2.188-8.18-0.115-0.46 0.922-0.229 0.346-0.806 0.576-0.691 0.345-2.189 1.382-2.419l-0.115-0.691c0.115-0.116 0.231-0.23 0.345-0.23-0.23-0.576-0.114-1.267-0.69-1.613-0.346-0.115-0.576-0.691-1.037-0.345-0.115 0-0.576-0.115-0.461-0.346 0-0.115 0.116-0.23 0.116-0.115 0.23-1.498 0.921-2.88 2.073-3.687 0.23-0.807 1.038-1.382 1.613-2.073 0.922-1.152 2.649-0.576 3.341-1.843 2.764-1.037 5.183-2.995 7.947-3.917 1.037-0.806 2.305-1.267 3.571-1.843 2.303-1.267 4.954-2.534 7.372-3.571 3.8-1.612 8.179-2.995 12.21-4.608 1.382 0 2.764-1.267 4.262-1.382 1.152 0.116 2.535 0.922 3.572 1.613 1.612 0.346 2.764 1.497 4.261 1.958 5.876 3.456 11.866 7.372 16.474 12.556 2.304 1.843 3.57 5.299 5.413 7.718 0.116 1.728 1.958 2.765 1.498 4.608 0.345 0.691 0.46 0.576 1.267 0.807 1.037 0 0.115-0.807 0.807-1.152-0.921-0.576-0.23-1.267-0.691-1.959 0.115-0.345-0.115-1.151-0.461-1.497 0.115-0.115 0-0.23 0.115-0.346l-0.461-0.346c0-0.346-0.346-0.69 0-0.921l-0.69-0.576c-0.462-1.037-1.267-2.418-1.612-3.686-1.037-0.807-1.383-2.074-2.075-2.995-0.46-0.576-1.151-1.498-1.843-1.152-3.225-2.88-6.105-6.104-10.136-8.409-0.808-1.267-2.188-1.037-3.11-2.304-0.69-0.346-1.037-0.807-1.958-1.037-1.958-1.728-4.378-1.958-6.45-3.57 0.806 0 1.15-0.807 1.842-0.922 0.23 0.346 0.691 0.116 0.691 0 1.729-1.152 3.226 0 4.838 0.577 1.037 0.46 2.189 1.267 3.226 1.498 7.142 4.146 14.399 9.676 19.468 16.126 0.92 5.76 2.533 10.713 2.648 16.126 0.807 1.498-0.115 3.11 1.037 4.262 0.807 1.037-0.114 1.843-0.691 2.649-1.267-0.576 0.577-1.958-0.806-2.649 0.114-0.576-0.807-1.152-0.461-1.497 0.461-1.036-0.808-0.691-1.036-1.728-0.461-0.807-1.152-1.729-0.691-2.65-0.461-0.691-1.498-0.691-2.305-0.806-0.807 1.268-2.418 1.037-3.11 2.304-0.345-0.115-0.69-0.576-0.69-0.922-1.842-0.576-1.959-2.764-3.57-3.801-0.691-0.345-1.383-0.345-1.729 0.231 0 1.381 1.381 2.188 1.844 3.225 0.115 0.807 1.381 1.036 1.15 1.843 0.808 0.229 1.613 1.151 1.613 1.958-0.922 1.152-2.879 0.576-4.031 0.576-1.383-1.266-2.189-2.995-2.189-4.953 0.115-0.921 0.807-0.921 1.383-1.152 0-0.345-0.115-0.46-0.346-0.807-0.805-0.345-1.037 0.347-1.613 0.462-1.612 2.88 0.922 5.184 2.305 7.487l-0.346 0.23c-1.268-0.23-2.648-0.115-4.031-0.806-0.462-0.231-0.807-0.922-1.383-0.807-0.345-0.461-1.037-0.691-0.922-1.383-1.15 0.576-0.92-1.267-1.727-1.267-0.117-0.575-1.037-1.613-1.037-2.419-0.461-0.922-1.612-0.345-1.844-1.382-1.728-0.576-3.571 0.691-5.299 0.575-0.115-0.229-0.346-0.229-0.346-0.345-0.807 0.921-2.072 0.229-3.455 0.576-2.189 0-3.803-1.382-5.416-2.188-0.459 0-1.15-0.691-1.611 0.114 0.232 0.461-0.575 1.268 0.347 1.498-0.922 1.382-2.074 2.879-3.688 3.34-0.345 0.461-1.151 0.921-1.612 0.921-0.115-0.229-0.346-0.576-0.575-0.229-0.115 1.268-2.766 1.382-1.499 2.764-0.113 0.231-0.459 0.461-0.113 0.576 0.92-1.843 3.109 0 4.262-1.613 0.115-0.115 0.46-0.806 0.807-0.576 1.611-1.267 2.649-2.995 4.377-3.917 4.031 2.535 8.639 1.152 12.901 0.116 2.073-0.576-0.347 2.188 1.497 2.419 0.691 1.958 2.534 3.686 4.146 4.953l0.231-0.23 2.418 1.151c0.575-0.115 1.152 0.23 1.612 0.461 0.576-0.23 1.613-0.116 2.305 0.115 1.497 2.995 4.839 5.529 8.295 5.529 0.229-0.116 0.574-0.461 0.805 0 0.346-0.807 1.383 0 1.729-0.807 1.843-0.115 2.305-3.11 4.492-3.34 0.922 0.115 1.497-1.382 2.072-2.189 0.577-0.691-0.345-1.267-0.575-1.728 1.499 0.576 2.766-0.922 4.147-0.115 1.036 0.23 1.959 1.382 1.729 2.418-1.498 3.917-5.07 5.76-7.719 8.87-0.345-0.345-1.152-0.807-1.613-0.576-0.69 0.807-0.459 1.958-0.922 2.764-1.15 1.152-0.575 2.65-1.611 3.802 0.229 0.921-1.037 0.921-0.691 1.729-4.607 5.068-11.52 7.487-17.163 11.749-3.802 2.649-6.911 5.875-10.022 9.561-3.686 4.607-8.062 8.754-13.016 12.44-1.152 0.807-2.42 1.728-3.688 2.304-2.072 1.728-4.838 2.995-7.486 4.377l-0.23-0.23-0.232 0.461c-1.728 0.346-2.763 1.844-4.492 2.074-0.691 0-0.461 0.922-0.576 1.266 0.691 0.116 1.728 0 1.958 0.116-0.46 1.728-1.727 2.88-2.303 4.608-1.499 1.958-1.613 4.952-3.341 7.025 0.345 1.152-0.807 1.844-0.807 2.996-1.842 0.115-3.916 0-5.989-0.346-0.922 0-1.728-0.691-2.766-0.461-2.188-0.346-4.031-1.268-6.219-1.613-0.23-0.346-0.692-0.346-1.152-0.346-7.833-2.994-15.205-7.602-21.426-13.822-0.46-0.461-1.382-0.576-1.728 0 5.069 7.257 13.708 11.98 21.771 15.205 5.53 1.844 11.174 2.535 17.05 2.879-0.231 0.691-0.116 1.152-0.461 1.729 0.115 1.152-1.267 2.765 0.115 3.686-0.69 2.996-1.382 5.414-2.189 8.064-0.944 4.209-1.881 8.462-2.807 12.717 0.882-0.42 1.764-0.836 2.645-1.252 0.567-2.391 1.207-4.755 1.889-7.088 0.231-2.304 1.267-4.263 1.499-6.566 0.921-0.461 0-1.728 0.921-2.303 0.116-1.037 0.691-2.305 0.921-3.572 0.576-0.229 0.345-1.382 0.922-1.727-0.23-1.613 1.382-2.766 1.037-4.263-0.116-0.69-0.807-0.576-1.267-1.036-0.347-0.922 0.691-1.498 0.459-2.189 1.383-2.533 2.419-5.184 3.802-7.717 1.268-1.268 1.499-3.227 2.996-4.147 0.459-1.152 1.382-1.843 2.187-2.88 1.498-0.691 2.996-1.498 4.379-2.42 0.69-0.113 1.035-0.229 1.497-0.805 3.687-2.189 7.37-5.068 10.481-7.834 0.692-0.69 0.922-0.461 1.383-1.267 1.613-1.036 2.766-2.766 4.032-3.917 0.461-0.576 1.036-1.151 1.613-1.498 0-0.345 0.575-0.345 0.345-0.806 2.535-2.419 4.031-5.989 7.025-7.372 1.96-1.844 4.725-3.686 7.029-4.953 0.92 0.46 1.15-0.922 1.956-0.922 2.188-1.382 4.263-2.189 6.222-3.917 0.345-0.576 1.266 0 1.266-0.806 1.499-0.807 2.88-1.959 3.803-3.226l-0.116-0.115c0.575-0.806 0.921-2.188 1.613-3.109 0.114-3.226 2.765-4.263 4.608-6.336 0.689 0.46 0.23-0.576 0.689-0.691 1.038-0.115 0.576-1.152 1.729-1.267l-0.115-0.345c1.036-1.037 2.535-1.959 3.455-3.34h0.232v-0.346c0.689-0.806 0.575-1.958 1.035-2.764-3e-3 -0.919-0.118-1.842-0.463-2.763z"/><path d="m140.92 61.045 0.037 0.24c0.186 0.186 0.074-0.071-0.037-0.24z"/><path d="m110.2 58.521c0.691 0 1.037 0.691 1.729 0.46 0 0.23 0.345 0.346 0.461 0.346h0.23l2.879 1.612 0.346-0.346c0 1.268 1.383 1.152 2.074 1.843 1.383 1.268 3.686 2.188 5.184 3.341 1.267-0.576 1.613 1.498 2.535 1.728 0.92 1.152 0.92 2.995 2.418 3.571-0.231 0.691 0.575 1.498-0.461 1.959-0.576 0.23-1.037-0.115-1.498-0.346-1.498-1.381-2.305-3.686-3.455-5.298-3.456-2.304-6.912-4.838-10.828-5.99-1.152-1.152-3.455-0.691-4.838-2.073-1.037 0.46-1.959-0.116-3.111 0.345-5.76 0.921-12.44 2.304-18.084 3.917-0.691 0.576-1.152 0.461-1.843 1.037-1.843-0.576-1.266 1.959-3.225 1.614-1.267-0.807-2.534 0.23-3.686-0.576-0.691 0.69-0.806-0.691-1.612-0.461 0-0.576-0.346-1.267 0-1.842 0.459-0.691 1.267 0.115 1.612-0.346 0.807 0.807 1.843 0.691 2.764 1.037 1.382-0.461 3.11-0.921 4.263-1.843 0.922 0 1.381-0.461 2.303-0.691 5.068-1.267 10.021-2.764 15.091-3.455v-0.234c1.959-0.23 2.648 0 4.492-0.576 1.266 0.345 3.338-0.231 4.26 1.267z"/><path d="m136 78.449c0.461 0.922 1.152 1.958 1.037 2.879 1.036 1.038 1.613 2.304 2.303 3.687-0.229 0.575-0.574 1.613-1.496 1.497-1.729 0.461-3.111-0.23-4.378-1.267 0.116-0.345-0.23-0.691-0.461-0.806-0.114 0-0.345 0-0.46 0.23 0.346 0.461 0.115 1.152 0.69 1.612 0.462-0.115 0.23 0.346 0.692 0.576l1.728 0.806c-2.304 0.461-4.607-0.921-6.221-2.764 1.843-1.382 5.644-1.612 5.414-4.954-0.575 0-0.921-0.575-1.383-1.037 0.463-0.804 2.535-2.302 2.535-0.459z" fill="#fff"/><path d="m104.1 78.219c-0.23 1.152 0.691 2.304 0.461 3.571 0.23 1.381 0.922 2.649 1.612 3.8 1.153 2.304 1.613 5.875 4.839 6.105 2.418 0.346 5.069 1.151 7.487 0.346 2.649 0.691 4.263-2.073 6.104-3.11 0.117-0.922 1.152-1.037 1.729-1.613 0.461 0 1.268 0.345 1.268 1.037-0.23 0.346-0.576 0.806-0.692 1.382-0.921 0.576-1.728 1.613-2.073 2.649-1.612 0.23-2.534 1.958-4.262 2.074-3.916 0.921-8.754 0.115-12.325-1.729-2.88-3.226-4.607-6.911-5.989-11.173 0.115-0.691-0.461-1.613-0.23-2.649-2e-3 -0.805 1.726-1.497 2.071-0.69z"/><path d="m92.002 82.596c-0.462 1.613-1.844 2.995-2.535 4.607-1.958 2.995-3.225 6.451-5.298 9.561 0.576 6.336 1.843 13.824 1.728 20.389h-0.345c-0.348-8.409-1.268-16.242-3.342-24.651 0.347-0.23 0-0.806 0.691-0.691 0.691 0.921 0.461 2.188 0.922 3.11 2.189-1.843 2.88-4.953 4.955-7.027 0.229-0.46 0.459-0.921 0.805-1.497 0.461-1.267 1.268-2.419 2.074-3.802h0.345z"/><path d="m86.012 119.23h-0.345l0.114-1.612c0.231 0.46 0.346 1.151 0.231 1.612z"/><path d="m86.012 120.72-0.115 0.115c-0.462-0.23 0.115-0.69-0.116-1.151 0.231 0.344 0.346 0.576 0.231 1.036z"/><path d="m86.012 121.65c0.23 0.807-0.345 1.268 0 2.073l-0.115 1.037c-0.345-0.921-0.116-2.073-0.116-3.11h0.231z"/><path d="m86.012 125.1c0 0.114-0.231 0.229-0.231 0.229v-0.229h0.231z"/><path d="m85.781 128.1c-0.114-0.461-0.114-1.152 0-1.959 0.575 0.576-0.229 1.383 0 1.959z"/><path d="m85.204 131.67h0.462c-0.808 1.498-1.038 3.225-1.729 4.608l0.116 0.921c-1.267 1.037-1.497 3.11-3.11 3.802 0-0.231 0.23-0.347 0.23-0.46l-0.114-0.116c-1.844 1.728-4.147 3.456-6.797 3.571-1.382-0.115-2.419-1.498-3.686-1.152-0.116-0.115-0.346-0.23-0.346-0.576 1.152 0.23 2.304 0.115 3.457-0.461 1.612-0.576 2.764-1.728 4.147-2.418 1.381-1.037 2.534-2.42 3.916-3.342-2.188 2.535-4.953 5.07-7.948 6.682 0.46 0.576 1.267 0 1.958 0 2.764-1.036 5.645-2.649 7.372-5.184 0.116-0.691 0.461-1.498 0.806-2.304 0.116-0.575 0.577-1.036 0.346-1.497l-2.304 2.188 0.115-0.575c1.498-1.383 3.109-2.189 2.764-4.379l0.693-2.188c0.575 0.923-0.923 1.729-0.348 2.88z"/><path d="m36.594 141.92c-0.575-0.576-1.382-1.727-2.188-0.805-0.807 1.035-1.382 2.418-1.844 3.455-0.922 0.921-1.152 2.188-1.958 3.34-0.461 1.037-0.346 1.613-1.152 2.419-0.576 1.843-1.382 3.687-2.534 5.185l0.115 0.114c-1.843 3.802-3.802 7.948-5.759 11.749-0.231 0.346-0.577 0.576-0.577 0.922-0.658 1.205-1.39 2.498-2.157 3.822 0.237 1.115 0.471 2.232 0.688 3.358 2.603-4.406 5.14-8.857 7.575-13.401 0.575-1.036 0.922-1.842 1.613-2.764 0.23-1.844 1.497-2.535 1.842-4.263 1.038-1.036 0.923-2.304 1.959-3.341-0.346-0.344 0.576-0.576 0.229-1.035 0.231-0.231 0.231-1.038 0.691-0.692l0.577-1.843c0.345-0.576 0.576-1.382 1.151-1.844 0-1.15 0.922-1.957 1.499-2.764-0.345-0.46 0.23-1.036 0.23-1.612z"/></svg>
