<?xml version="1.0" encoding="UTF-8"?>
<svg width="514px" height="226.8px" enable-background="new 0 0 514 226.8" version="1.1" viewBox="0 0 514 226.8" xmlns="http://www.w3.org/2000/svg"><rect width="514px" height="226.8px" fill="#fff"/><style type="text/css">.st0{fill:#FFFFFF;} .st1{fill:url(#d);} .st2{fill:none;stroke:#000000;stroke-width:2;stroke-linecap:round;} .st3{fill:none;} .st4{fill:none;stroke:#000000;} .st5{fill:none;stroke:#000000;stroke-width:0.5;stroke-linecap:round;} .st6{fill:url(#c);} .st7{fill:none;stroke:#000000;stroke-width:2;} .st8{fill:none;stroke:#000000;stroke-width:1.5;stroke-linecap:round;stroke-linejoin:bevel;} .st9{fill:none;stroke:#000000;stroke-width:1.5;stroke-linecap:round;} .st10{fill:none;stroke:#000000;stroke-linecap:round;} .st11{fill:none;stroke:#000000;stroke-width:1.4;stroke-linecap:round;} .st12{fill:url(#b);} .st13{fill:none;stroke:#000000;stroke-width:0.75;stroke-linecap:round;} .st14{fill:url(#a);} .st15{fill:none;stroke:#000000;stroke-width:1.6;stroke-linecap:round;}</style><rect class="st0" x="1.4" width="510.6" height="226.8"/><linearGradient id="d" x1="185.45" x2="196.59" y1="-483.7" y2="-467.16" gradientTransform="matrix(.9757 .2192 .2192 -.9757 -58.148 -346.71)" gradientUnits="userSpaceOnUse"><stop stop-color="#fff" offset="0"/><stop stop-color="#EDEDED" offset="1"/></linearGradient><polygon class="st1" points="33.9 193.3 51.1 154 52.9 149 43 140.3 37.5 130.2 32.4 122.1 33.7 106.3 2.1 142"/><path d="m120.7 167.8-0.6-0.9c-0.3-0.6-0.9-1.4-1.5-2.4-0.3-0.5-0.7-1-1.1-1.5-0.2-0.3-0.4-0.5-0.6-0.8-0.2-0.2-0.5-0.5-0.6-0.5-0.2 0-0.5 0-0.8 0.1s-0.6 0.2-0.9 0.4c-0.6 0.3-1.3 0.7-1.9 1.1s-1.2 0.8-1.8 1.3c-0.3 0.2-0.5 0.5-0.7 0.7-0.2 0.3-0.2 0.5-0.3 0.9-0.1 0.7 0 1.4 0.1 2.1s0.3 1.3 0.5 1.8 0.4 1.1 0.6 1.5 0.4 0.8 0.6 1.1c0.3 0.6 0.5 0.9 0.5 0.9s-0.1-0.1-0.2-0.2-0.3-0.3-0.5-0.6c-0.4-0.6-1-1.4-1.5-2.5-0.2-0.6-0.5-1.2-0.7-1.9s-0.3-1.5-0.2-2.3c0-0.4 0.2-0.9 0.4-1.3 0.3-0.4 0.5-0.6 0.8-0.9 0.6-0.5 1.2-0.9 1.8-1.4 0.6-0.4 1.3-0.8 2-1.1 0.3-0.2 0.7-0.3 1-0.4 0.2-0.1 0.4-0.1 0.6-0.1h0.3 0.2 0.2c0.5 0.2 0.7 0.5 0.9 0.8l0.6 0.9c0.4 0.6 0.7 1.2 1 1.7 0.6 1.1 1 2 1.2 2.6 0.5 0.5 0.6 0.9 0.6 0.9z"/><path d="m129.8 155-0.5-1s-0.8-1.5-1.4-2.5c-0.3-0.5-0.6-1.1-1-1.6-0.2-0.3-0.4-0.5-0.6-0.8l-0.4-0.4h-0.2c-0.5-0.1-1.2 0.1-1.8 0.3s-1.3 0.6-1.8 1c-0.6 0.4-1.1 0.9-1.6 1.4-0.2 0.3-0.5 0.5-0.7 0.8-0.1 0.1-0.2 0.3-0.3 0.4l-0.1 0.2c0 0.1-0.1 0.2-0.1 0.2-0.1 0.4 0.1 1.2 0.3 1.8s0.5 1.2 0.7 1.8c0.5 1.1 0.8 2 1.1 2.7 0.2 0.7 0.4 1 0.4 1s-0.2-0.3-0.5-0.9-0.8-1.5-1.4-2.5c-0.3-0.5-0.6-1.1-0.9-1.7-0.1-0.3-0.3-0.7-0.4-1.1s-0.2-0.8 0-1.4c0-0.1 0.1-0.2 0.1-0.3 0.1-0.2 0.1-0.2 0.2-0.3 0.1-0.2 0.2-0.3 0.3-0.5 0.2-0.3 0.5-0.7 0.7-1 0.5-0.6 1.1-1.1 1.8-1.5 0.6-0.4 1.3-0.8 2-1s1.4-0.5 2.2-0.3l0.2 0.1 0.1 0.1c0.1 0.1 0.2 0.1 0.3 0.2 0.2 0.1 0.3 0.3 0.4 0.5l0.6 0.9c0.3 0.6 0.6 1.2 0.8 1.8 0.5 1.1 0.8 2.1 1.1 2.7 0.3 0.5 0.4 0.9 0.4 0.9z"/><path class="st2" d="m4.3 138c2.3-2.9 36.4-43.8 50.2-45.7 10.5-1.5 45 13.7 45 13.7s7.7-0.8 11.8 10.2l10.8 14.7 9.4 25.8s-0.5 7-8.6 7.3"/><path class="st3" d="m7.9 137.4"/><path class="st2" d="m35 121.6s2.1 16.7 17.3 25.2"/><path class="st4" d="m33.2 111s-4.2 10.4 4.4 19.2"/><path class="st2" d="m50.3 142.4 12.5 24.9s2.9 3.8 8 1.8c3.8-1.5 4.2-3.4 4.2-3.4"/><path class="st2" d="m66.9 137.2 9.2 26.1s2.3 4.2 7 1.8c4.6-2.4 4.4-4.7 4.2-6.8-0.1-2.1-5.7-28.7-5.7-28.7l0.3-3.9"/><line class="st2" x1="52" x2="37.5" y1="152" y2="183.1"/><path class="st2" d="m80.1 167.9s-2.3 8.9 5.3 11.6"/><line class="st2" x1="93.6" x2="86.5" y1="168.8" y2="179.4"/><path class="st2" d="m98.9 165"/><path class="st2" d="m100.3 163.3s-2.9 6.9-8.9 7.4"/><path class="st5" d="m97 145.3s3.4-7.4 9.8-7.1"/><path class="st5" d="m99.1 144.7s6.9-5 7.1-4.8"/><path class="st5" d="m109.4 134.7s3.7-4.9 9-5.9"/><path d="m113 172.9s0.2-0.7 0.8-1.5c0.3-0.4 0.6-0.9 1.1-1.3 0.4-0.4 0.9-0.8 1.4-1.2 0.3-0.2 0.5-0.3 0.8-0.5s0.6-0.2 0.8-0.4c0.3-0.1 0.5-0.2 0.8-0.3s0.5-0.1 0.7-0.1c0.4-0.1 0.8-0.1 1.1-0.1h0.4s-0.1 0.1-0.4 0.2c-0.2 0.1-0.6 0.2-1 0.4l-0.6 0.3s-0.5 0.2-0.7 0.4l-1.5 0.9c-0.5 0.3-1 0.7-1.4 1-0.4 0.4-0.8 0.7-1.2 1-0.6 0.8-1.1 1.2-1.1 1.2z"/><path d="m122.2 159.8s0.2-0.7 0.8-1.5c0.3-0.4 0.6-0.9 1.1-1.3 0.4-0.4 0.9-0.8 1.4-1.2 0.3-0.2 0.5-0.3 0.8-0.5s0.6-0.2 0.8-0.4c0.3-0.1 0.5-0.2 0.8-0.3s0.5-0.1 0.7-0.1c0.4-0.1 0.8-0.1 1.1-0.1s0.4 0 0.4 0-0.1 0.1-0.4 0.2c-0.2 0.1-0.6 0.2-1 0.4l-0.6 0.3c-0.2 0.1-0.5 0.2-0.7 0.4l-1.5 0.9c-0.5 0.3-1 0.7-1.4 1-0.4 0.4-0.8 0.7-1.2 1-0.6 0.7-1.1 1.2-1.1 1.2z"/><line class="st2" x1="95.6" x2="98.6" y1="115.9" y2="124.7"/><path class="st2" d="m85.7 138 12.5 17.3s8.5 17.7 13.1 22c4.7 4.3 14.5-2.7 11-8.7l-4-6.8-8.4-20.3-13.4-19.8"/><path class="st5" d="m111.4 135.6s4.8-0.9 8-4.8"/><linearGradient id="c" x1="163.29" x2="172.34" y1="794.39" y2="772.56" gradientTransform="translate(0 -616)" gradientUnits="userSpaceOnUse"><stop stop-color="#fff" offset="0"/><stop stop-color="#EDEDED" offset="1"/></linearGradient><polygon class="st6" points="184.7 185.4 196.4 148.1 178.1 145.4 158.4 135 158.8 136.8 151.8 150.8 141.3 172.8"/><line class="st2" x1="184" x2="200.6" y1="187.4" y2="134"/><path class="st2" d="m195.9 138.1s20.1-5.6 39.2-33.9"/><path class="st7" d="m234 105.8s9.1-16.3 24.9-22.5c8.1-3.1 5.4-8.1 5.4-8.1"/><path class="st2" d="m143.8 166.9s18.6-41.2 22.3-48 11.1-40.3 13.1-47.4 2.4-7.5 6.7-10"/><path class="st7" d="m217.3 78s-1.8 7.1 1.4 8.9 5.1 1.7 9.9-2.7c4.7-4.4 7-6.5 7-6.5"/><path d="m199.8 74.5c0.8 0.4 1.6 0.6 2.4 0.9 0.8 0.2 1.6 0.4 2.4 0.5 0.4 0.1 0.8 0.1 1.2 0.2 0.4 0 0.8 0.1 1.2 0.1s0.8 0 1.2 0h1.2c0.4 0 0.8-0.1 1.2-0.1s0.8-0.1 1.2-0.1l1.2-0.2 1.2-0.3c0.8-0.1 1.6-0.4 2.4-0.7 0.4-0.1 0.8-0.3 1.2-0.4l1.5-0.5 0.3 0.1c0.7 0.2 1.4 0.4 2.1 0.5s1.4 0.3 2.2 0.4c1.4 0.2 2.9 0.4 4.3 0.4 2.9 0.1 5.8-0.1 8.4-1.2l0.3-0.1 0.3 0.1c1 0.4 2.1 0.7 3.1 1 1.1 0.3 2.1 0.6 3.2 0.8 2.1 0.4 4.3 0.8 6.4 0.6 1-0.1 2.1-0.3 3-0.8 0.4-0.3 1-0.6 1.4-0.9s0.9-0.7 1.3-1.1 0.8-0.8 1.1-1.3c0.4-0.5 0.7-1 1-1.5 0.6-1.1 1-2.2 1.3-3.4-0.2 2.5-1.2 5-2.8 6.9-0.4 0.5-0.8 0.9-1.3 1.3-0.5 0.5-0.9 0.8-1.4 1.1-1.1 0.7-2.2 1-3.4 1.2-1.1 0.2-2.3 0.2-3.4 0.2-1.1-0.1-2.3-0.2-3.4-0.4s-2.2-0.4-3.3-0.7-2.2-0.6-3.3-0.9h0.6c-1.5 0.6-3 1-4.6 1.2-1.5 0.2-3.1 0.2-4.6 0.2-1.5-0.1-3-0.3-4.5-0.5-0.7-0.1-1.5-0.3-2.2-0.5s-1.5-0.4-2.2-0.6h0.5l-1.2 0.4c-0.4 0.1-0.8 0.3-1.2 0.4-0.8 0.2-1.7 0.4-2.5 0.5l-1.3 0.2-1.3 0.1h-1.3-1.3l-1.3-0.1c-0.4 0-0.8-0.1-1.3-0.2l-2.4-0.6c-0.8-0.2-1.6-0.6-2.4-0.9-1-0.4-1.7-0.8-2.4-1.3z"/><path d="m205 75s0.1 0.5 0 1.3c-0.1 0.4-0.2 0.8-0.3 1.3-0.2 0.4-0.4 0.9-0.6 1.3-0.3 0.4-0.6 0.8-0.9 1.1s-0.6 0.6-0.9 0.8-0.5 0.3-0.7 0.4-0.3 0.1-0.3 0.1 0.1-0.1 0.2-0.3 0.3-0.4 0.5-0.7 0.4-0.6 0.7-0.9c0.2-0.3 0.5-0.7 0.7-1.1s0.5-0.8 0.7-1.1c0.2-0.4 0.4-0.7 0.5-1 0.2-0.8 0.4-1.2 0.4-1.2z"/><path d="m201.8 82.8c0 3.6-0.1 7.1-0.2 10.6s-0.2 7.1-0.3 10.6l-0.4 10.6-0.5 10.6c-0.1 0.5-0.2 0.9-0.3 1.3s-0.3 0.8-0.5 1.2c-0.3 0.8-0.8 1.5-1.2 2.2-0.9 1.4-2.1 2.5-3.4 3.4s-2.7 1.6-4.1 2.1c-0.7 0.2-1.4 0.4-2.2 0.6-0.7 0.2-1.5 0.2-2.2 0.3 0.7-0.1 1.4-0.3 2.2-0.5 0.7-0.2 1.4-0.4 2.1-0.7 1.4-0.6 2.7-1.3 3.9-2.2s2.3-2.1 3.1-3.4c0.4-0.7 0.8-1.4 1.1-2.1 0.2-0.4 0.3-0.7 0.4-1.1s0.2-0.8 0.3-1.1l0.4-10.6 0.5-10.6c0.2-3.5 0.4-7.1 0.6-10.6 0.2-3.6 0.5-7.1 0.7-10.6z"/><path class="st4" d="m162.4 137.1s9.5 9.9 30.7 10.7"/><path class="st2" d="m195.3 58.1s21.6-2.1 25.7-2.4 6.1 0.8 9.8 1.7 17.9 4.8 17.9 4.8"/><line class="st2" x1="249" x2="258.5" y1="63.2" y2="67.6"/><path class="st2" d="m180.7 62.1s1.2-9.1 6.5-9.4"/><path class="st8" d="m185.3 50.8s2.2-5.6 6.4-5 35.8 2.8 35.8 2.8l33.7 12.2"/><path class="st2" d="m262 61.9 8.7 3.2s0.2 12.1-13 8.9"/><path class="st2" d="m231.7 46.4c2.8-0.7 37 14 37 14"/><path class="st9" d="m268.4 60.6 10 3.4s-0.6 11.3-10.5 11.1"/><path d="m222.4 92.7s0.2 0.1 0.4 0.3c0.3 0.2 0.6 0.6 1 1 0.4 0.5 0.8 1 1.2 1.6s0.8 1.3 1.2 2.1c0.4 0.7 0.7 1.5 1 2.2s0.6 1.4 0.8 2c0.4 1.2 0.6 2 0.6 2s-0.4-0.7-1-1.8c-0.3-0.5-0.6-1.2-1-1.8-0.4-0.7-0.7-1.4-1.1-2.1s-0.7-1.4-1.1-2.1-0.7-1.3-1-1.8c-0.5-0.9-1-1.6-1-1.6z"/><path d="m237.8 79.9s0.4 0.4 0.9 1.1 1.1 1.7 1.7 2.7c0.5 1 1 2.1 1.3 2.9s0.5 1.4 0.5 1.4-0.4-0.4-0.9-1.1-1.1-1.7-1.7-2.7c-0.5-1-1-2.1-1.3-2.9-0.4-0.8-0.5-1.4-0.5-1.4z"/><path d="m223 55.7s0.1 0.5 0.3 1.3c0.1 0.8 0.3 1.8 0.4 2.9 0.1 1 0.3 2.1 0.4 2.8 0.1 0.4 0.1 0.7 0.1 0.9s0 0.4 0 0.4-0.1-0.1-0.2-0.3-0.3-0.5-0.5-0.8c-0.2-0.4-0.3-0.8-0.5-1.3-0.1-0.5-0.2-1-0.3-1.6-0.1-1.1-0.1-2.2 0-3s0.3-1.3 0.3-1.3z"/><path class="st10" d="m225.7 57.1s-0.3 5.1-0.6 8.1"/><path d="m248.8 64.6s0.3 0.8 0.8 2 1.3 2.7 2.5 3.7c0.3 0.3 0.6 0.5 0.9 0.7s0.6 0.3 0.9 0.3c0.5 0 1.1-0.4 1.5-0.8 0.5-0.4 0.8-0.8 1.1-1s0.5-0.3 0.5-0.3-0.1 0.2-0.3 0.5-0.5 0.8-0.9 1.3c-0.2 0.3-0.4 0.5-0.7 0.8s-0.7 0.5-1.2 0.5-0.9-0.2-1.3-0.4-0.7-0.5-1-0.8c-1.3-1.2-2-3-2.3-4.3-0.4-1.3-0.5-2.2-0.5-2.2z"/><path d="m259.6 63.3s0.6 0.6 1.4 1.5c0.4 0.4 0.9 1 1.5 1.5s1.2 1 1.8 1.4c0.3 0.2 0.6 0.3 1 0.3 0.3 0 0.6 0 0.8-0.2 0.6-0.4 1.2-0.8 1.8-1.1 1.1-0.6 1.8-0.9 1.8-0.9s-0.6 0.6-1.5 1.4c-0.5 0.4-1 0.9-1.6 1.3-0.3 0.3-0.9 0.5-1.3 0.4-0.5 0-0.9-0.2-1.3-0.4-0.8-0.4-1.4-1-1.9-1.6s-1-1.2-1.3-1.8c-0.8-1-1.2-1.8-1.2-1.8z"/><path class="st10" d="m272.7 66.6c1.4 0.2 2.6-2.4 3.8-3.3"/><path d="m195.9 78.2s0.5 0.2 1.1 0.4c0.6 0.3 1.5 0.6 2.4 1s1.7 0.8 2.4 1c0.3 0.2 0.6 0.3 0.8 0.4s0.3 0.2 0.3 0.2-0.5 0.1-1.2 0-1.7-0.3-2.6-0.7-1.7-0.9-2.3-1.4-0.9-0.9-0.9-0.9z"/><path class="st11" d="m205.9 45.2c11.6-0.5 29.1 1.7 29.1 1.7"/><linearGradient id="b" x1="513.91" x2="523.98" y1="346.85" y2="322.52" gradientTransform="matrix(.8262 .5634 -.5634 .8262 38.403 -398.5)" gradientUnits="userSpaceOnUse"><stop stop-color="#fff" offset="0"/><stop stop-color="#EDEDED" offset="1"/></linearGradient><polygon class="st12" points="280.2 203.5 309.1 166.2 299.6 151.5 289.8 128.9 289.3 130.6 276.7 137.7 256.3 154.8"/><path class="st2" d="m264.6 146.8 33.1-24.6s10.7-26.4 23.5-41.7c0 0 11.4-24 13.2-33.2"/><path class="st7" d="m333.1 51 0.6-12.9s4.4-3.3 8.3 2.5 2.8 16.9 1.1 22-5.1 11.9-4.6 15.7"/><path class="st2" d="m330 79.3s31.7-9.1 34.8-9.7c3-0.6 30.5-5.4 33.9-5s7.9 0.3 7.7 7.7c-0.1 5.1-3.6 6.3-10.6 7.2s-27.8 5.7-27.8 5.7"/><polyline class="st2" points="373.1 84.4 345.4 95.3 343.2 97.3"/><path class="st2" d="m368.4 89.2s5.8 0.2 5.6 5.8c-0.3 5.5-1.6 6.4-4.5 8.2-3 1.8-15.2 9.5-15.2 9.5l-1.9 2.3"/><path class="st2" d="m370.2 105.4s4.8 0.7 4.5 7-3.2 7.9-7.7 10.8-12 9.3-12 9.3"/><path class="st2" d="m369.9 124.9s3.8 3.9 1.7 7.9-17.1 14.7-17.1 14.7"/><path class="st2" d="m359.6 143.9s-23.6 16.8-48.3 18.8"/><line class="st2" x1="315.4" x2="284.7" y1="160.4" y2="198.8"/><path class="st4" d="m292.4 129.7s1.4 17.3 16 35.1"/><path d="m334.4 49s0.1-0.6 0.4-1.5c0.2-0.9 0.6-2.1 0.8-3.2 0.3-1.2 0.5-2.3 0.4-3.2 0-0.4-0.1-0.8-0.3-1-0.1-0.2-0.2-0.3-0.2-0.3s0.1 0 0.3 0.2 0.5 0.5 0.6 1c0.3 1 0.2 2.3-0.1 3.6-0.3 1.2-0.8 2.4-1.2 3.2-0.3 0.7-0.7 1.2-0.7 1.2z"/><path d="m364.1 73.1v1.9c0 0.6 0 1.2 0.1 1.9s0.1 1.4 0.2 2.2c0.1 0.4 0.1 0.7 0.2 1.1s0.1 0.7 0.2 1 0.2 0.7 0.3 1l0.3 0.9c0.1 0.3 0.2 0.5 0.3 0.7s0.2 0.4 0.2 0.5c0.1 0.3 0.2 0.5 0.2 0.5s-0.1-0.1-0.3-0.4c-0.2-0.2-0.5-0.6-0.8-1.1-0.2-0.2-0.3-0.5-0.4-0.8s-0.3-0.6-0.4-1c-0.3-0.7-0.4-1.5-0.5-2.2-0.1-0.8-0.2-1.6-0.1-2.3 0-0.7 0.1-1.4 0.2-2 0-1.2 0.3-1.9 0.3-1.9z"/><path class="st13" d="m365 74.2s1 5.2 1.4 8.3"/><path d="m402.3 67.3s0.1-0.1 0-0.2c0-0.2-0.3-0.2-0.5-0.2-0.5 0-1.3 0.3-2.2 0.6-0.9 0.4-1.9 0.8-2.9 1.5-0.2 0.2-0.4 0.3-0.5 0.5s-0.1 0.5-0.1 0.8c0 0.6 0.1 1.3 0.3 2s0.3 1.4 0.5 2.1l0.1 0.5c0 0.1 0.1 0.3 0.1 0.5 0.1 0.2 0.2 0.4 0.4 0.6 0.3 0.3 0.9 0.5 1.4 0.6s1 0.2 1.5 0.2c1.9 0.1 3.1 0.2 3.1 0.2s-0.3 0.1-0.9 0.1c-0.6 0.1-1.3 0.2-2.3 0.2h-1.6c-0.6-0.1-1.2-0.2-1.8-0.7-0.3-0.3-0.5-0.6-0.7-1-0.1-0.2-0.1-0.3-0.1-0.5l-0.1-0.5c-0.1-0.7-0.3-1.4-0.5-2.1-0.1-0.7-0.3-1.4-0.3-2.2 0-0.4 0-0.8 0.2-1.2s0.5-0.7 0.8-0.9c0.6-0.4 1.1-0.6 1.6-0.8s1-0.3 1.5-0.5c0.9-0.2 1.7-0.3 2.3-0.3 0.3 0 0.5 0.1 0.6 0.3 0.2 0.4 0.1 0.4 0.1 0.4z"/><path d="m403.1 67.3s0.4 0.4 0.8 1.1 0.8 1.8 1 2.9c0.1 0.3 0.1 0.6 0.1 0.8v0.8 0.8c0 0.2 0 0.5-0.1 0.7 0 0.4-0.1 0.8-0.2 1s-0.1 0.4-0.1 0.4 0-0.1-0.1-0.4c0-0.2-0.1-0.6-0.1-1-0.1-0.8-0.2-1.9-0.4-2.9-0.1-0.5-0.2-1.1-0.3-1.5-0.1-0.5-0.2-1-0.3-1.4-0.1-0.8-0.3-1.3-0.3-1.3z"/><path class="st5" d="m386.8 70.2s-0.1 2.8 0.8 7"/><path class="st13" d="m351.2 105s-1.5 5.9-9.9 5.5"/><path class="st13" d="m356.3 123.5s-0.5 6.2-8.2 6.8"/><linearGradient id="a" x1="424.38" x2="434.59" y1="801.56" y2="776.91" gradientTransform="translate(0 -616)" gradientUnits="userSpaceOnUse"><stop stop-color="#fff" offset="0"/><stop stop-color="#EDEDED" offset="1"/></linearGradient><polygon class="st14" points="451.8 191.4 461.3 151.2 441.5 149.2 419.9 140.2 420.3 142 412.6 154.8 397.5 178.4"/><path class="st4" d="m424.5 141.6s13.1 10.1 34.3 9.2"/><path class="st2" d="m400.8 175.4c0-1 22.3-37 23-41.9 0.8-4.9 12.1-70.1 12.1-70.1"/><path class="st2" d="m434.7 63.3s-1.9-9.6 4.4-12.3"/><path class="st2" d="m443 60.7 22.6-13c1.2-0.7 3.3-0.8 4.5-0.3l15.4 6.3c1.3 0.5 2.8 2.1 3.4 3.5l2.1 4.9"/><path class="st2" d="M443.4,48.9l27.9-15.6c1.2-0.7,3.2-0.5,4.3,0.3L494,47.7c1.1,0.9,2.6,2.7,3.2,4.1l2,4.2"/><path class="st15" d="m481.7 25.3 4.1-0.4c1.4-0.1 3.2 0.7 4.2 1.8l9.4 11.3c0.9 1.1 2.1 3.2 2.6 4.7l1.4 3.8"/><path class="st2" d="m439.8 50.3 32.5-26.5c1.1-0.9 2.9-0.9 4 0.1l20.2 17.2c1.1 0.9 2.5 2.8 3.2 4.2l2.8 6.1"/><path class="st2" d="m458 72.7s4.5-0.9 7.6-6.3"/><path class="st2" d="m464.3 65.6s6.9 3.1 14.7 1.7"/><path class="st2" d="m476.3 65.8s10.4 15.4 19.3 4l-4.7-6.9"/><path class="st2" d="m496.4 71.4s4.8 1.3 7.6-5.8l-5-7.6"/><path class="st2" d="m502.8 52.4 3.8 8s-1.4 3.1-2.5 3.3"/><path class="st2" d="m477.3 70.9 3.5 9.7s2.6 2.2 6.6 2.2"/><line class="st2" x1="484.9" x2="494.1" y1="84.7" y2="76.7"/><path class="st2" d="m493.9 73.2s0.8 4.2 1.1 5.9"/><path d="m462.1 72.3s0.2 0.1 0.4 0.6c0.1 0.2 0.2 0.5 0.2 0.8 0.1 0.3 0.1 0.7 0.1 1v1.2c0 0.4-0.1 0.9-0.1 1.4-0.1 0.5-0.1 1-0.3 1.4-0.1 0.5-0.2 1-0.4 1.5-0.3 1-0.6 1.9-0.9 2.8-0.2 0.4-0.3 0.8-0.5 1.2s-0.3 0.8-0.5 1.1c-0.3 0.7-0.6 1.2-0.8 1.6l-0.3 0.6s0.1-0.2 0.2-0.7c0.1-0.4 0.3-1 0.5-1.7s0.4-1.5 0.7-2.4c0.2-0.9 0.5-1.8 0.8-2.8 0.1-0.5 0.3-0.9 0.4-1.4s0.2-0.9 0.3-1.4c0.1-0.4 0.2-0.9 0.3-1.3 0-0.4 0.1-0.8 0.1-1.2 0.1-0.7 0.1-1.3 0-1.8-0.1-0.3-0.2-0.5-0.2-0.5z"/><path d="m459.2 83.7s0.1 0.9 0.2 2.4c0.1 1.6 0.2 3.8 0.3 6.4 0.1 2.7 0.2 5.8 0.3 9.1s0.1 6.9 0.1 10.5c0 1.8-0.1 3.6-0.1 5.3 0 0.9-0.1 1.8-0.1 2.6-0.1 0.9-0.1 1.7-0.4 2.6-0.5 1.7-1.3 3.1-2.1 4.3s-1.7 2.3-2.5 3.3c-1.7 1.9-3.2 3.3-4.3 4.2-0.6 0.5-1 0.8-1.3 1s-0.5 0.3-0.5 0.3 0.2-0.1 0.5-0.4c0.3-0.2 0.7-0.6 1.2-1.1 1.1-1 2.5-2.5 4.1-4.4 0.8-1 1.6-2.1 2.4-3.3s1.5-2.6 1.9-4.1c0.2-0.7 0.3-1.6 0.3-2.4 0.1-0.8 0.1-1.7 0.1-2.6 0-1.7 0.1-3.5 0.1-5.3v-10.4s0-6.5 0-9.1v-6.5c-0.2-1.5-0.2-2.4-0.2-2.4z"/><path d="m445 133s0.2-0.1 0.5-0.3 0.8-0.5 1.3-0.9 1.2-0.8 1.9-1.2 1.4-0.9 2.2-1.3c0.7-0.4 1.5-0.9 2.2-1.3s1.3-0.8 1.8-1.2 1-0.7 1.3-0.9 0.5-0.4 0.5-0.4-0.1 0.2-0.4 0.5c-0.1 0.2-0.3 0.4-0.5 0.6s-0.4 0.5-0.6 0.7c-0.5 0.5-1.1 1-1.7 1.5-0.7 0.5-1.4 1-2.1 1.4-1.5 0.9-3.1 1.7-4.2 2.1-0.6 0.2-1.1 0.4-1.5 0.5-0.5 0.2-0.7 0.2-0.7 0.2z"/><path d="m478.9 75.3s0.1 0.3 0.3 1c0.2 0.6 0.5 1.5 0.8 2.5 0.6 2.1 1.4 5 2.1 7.8 0.7 2.9 1.3 5.8 1.6 8 0.2 1.1 0.3 2 0.4 2.7 0.1 0.6 0.1 1 0.1 1s-0.4-1.4-1-3.5-1.3-5-2-7.8c-0.7-2.9-1.3-5.8-1.7-7.9-0.2-1.1-0.3-2-0.5-2.6 0-0.8-0.1-1.2-0.1-1.2z"/><path class="st2" d="m502.9 45.1 4.1 8.9s-0.9 1.4-1.9 1.4"/><path class="st2" d="m507.7 55.6s3.7 0.7 0.7 12.6"/><path d="m508.9 68.7s0.2 0.5 0.5 1.3c0.2 0.4 0.3 0.9 0.5 1.5s0.4 1.3 0.5 2.1c0.2 0.8 0.3 1.6 0.4 2.5s0.2 1.9 0.2 2.9c0 0.5 0 1-0.1 1.6 0 0.5-0.1 1.1-0.2 1.6-0.2 1.1-0.5 2.1-1 3.2-0.3 0.5-0.6 0.9-0.9 1.4-0.3 0.4-0.6 0.8-0.9 1.1-0.7 0.8-1.3 1.4-2 2.1-1.3 1.3-2.6 2.3-3.8 3.2-2.3 1.7-4 2.5-4 2.5s1.4-1.4 3.4-3.4c1-1 2.2-2.2 3.4-3.6 0.6-0.7 1.2-1.4 1.8-2.1 0.3-0.4 0.6-0.7 0.9-1.1 0.2-0.4 0.5-0.7 0.7-1.1 0.4-0.8 0.7-1.7 0.9-2.6 0.1-0.5 0.2-0.9 0.2-1.4 0.1-0.5 0.1-0.9 0.1-1.4s0-0.9 0.1-1.4v-1.3c0-0.9-0.1-1.7-0.1-2.4-0.1-1.5-0.3-2.8-0.4-3.7-0.1-1-0.2-1.5-0.2-1.5z"/><path d="m498.9 92.4s-0.2 1-0.7 2.6c-0.3 0.8-0.6 1.8-1.1 2.9-0.4 1.1-1 2.3-1.6 3.6s-1.3 2.7-2.1 4.1-1.7 2.9-2.7 4.4c-0.9 1.5-2 3-3.1 4.5s-2.3 2.9-3.5 4.4c-1.2 1.4-2.5 2.7-3.8 4.1-1.3 1.3-2.6 2.5-3.9 3.6s-2.6 2.1-3.8 3.1-2.4 1.8-3.5 2.5c-1.1 0.8-2.1 1.5-3.1 2-0.9 0.5-1.8 1-2.4 1.4l-2.1 1.2s0.7-0.6 2-1.5c0.6-0.5 1.4-1 2.3-1.7 0.9-0.6 1.8-1.5 2.9-2.3 0.5-0.4 1.1-0.9 1.6-1.3 0.6-0.5 1.2-0.9 1.7-1.5 1.1-1 2.4-2.1 3.6-3.3s2.4-2.5 3.7-3.7c1.2-1.3 2.4-2.7 3.7-4 1.2-1.4 2.4-2.8 3.5-4.2s2.2-2.8 3.2-4.3c1-1.4 1.9-2.8 2.8-4.2 0.5-0.7 0.8-1.4 1.2-2 0.4-0.7 0.8-1.3 1.1-1.9 0.7-1.2 1.3-2.4 1.8-3.4s1-1.9 1.3-2.7 0.6-1.4 0.8-1.8 0.2-0.6 0.2-0.6z"/><line class="st2" x1="465.7" x2="453.3" y1="130.5" y2="188.2"/><path d="m489.6 64.1s-0.3 0.5-0.7 1.2c-0.2 0.4-0.3 0.8-0.3 1.3 0 0.2 0 0.4 0.1 0.7 0 0.2 0.1 0.4 0.3 0.6 0.1 0.2 0.3 0.5 0.4 0.7s0.3 0.4 0.4 0.6c0.3 0.4 0.6 0.8 0.8 1.1 0.5 0.6 0.9 1 0.9 1s-0.5-0.1-1.2-0.6c-0.3-0.2-0.7-0.6-1.1-0.9-0.2-0.2-0.4-0.4-0.5-0.6-0.2-0.3-0.3-0.4-0.5-0.7s-0.3-0.6-0.3-1c-0.1-0.3 0-0.7 0-1s0.2-0.6 0.3-0.8 0.3-0.4 0.4-0.6c0.5-0.8 1-1 1-1z"/><path d="m497.5 59s-0.2 0.1-0.5 0.3-0.7 0.6-0.8 1.1c-0.1 0.3-0.1 0.6-0.1 0.9s0.1 0.7 0.3 1c0.1 0.4 0.3 0.8 0.4 1.2s0.3 0.8 0.4 1.2c0.3 0.8 0.6 1.6 1.1 1.9 0.2 0.2 0.5 0.3 0.8 0.3s0.6 0 0.9 0c0.6-0.1 1-0.2 1.4-0.3 0.3-0.1 0.5-0.1 0.5-0.1s-0.2 0.1-0.5 0.3c-0.2 0.1-0.3 0.2-0.6 0.3-0.2 0.1-0.5 0.2-0.8 0.3s-0.6 0.2-1 0.2-0.8-0.1-1.2-0.3c-0.4-0.3-0.7-0.6-0.9-1.1-0.2-0.4-0.4-0.8-0.6-1.3-0.3-0.9-0.5-1.7-0.7-2.5-0.1-0.4-0.2-0.9-0.2-1.3s0.1-0.9 0.3-1.2c0.3-0.7 0.9-1 1.2-1.1 0.4 0.1 0.6 0.2 0.6 0.2z"/><path class="st13" d="m501.7 53.3s-0.9 0.8-1.6 2.2"/><path d="m502.9 61.9s0.1-0.2 0.3-0.5 0.5-0.6 0.8-0.8c0.3-0.3 0.6-0.5 0.8-0.8l0.4-0.4s0.1 0.3 0 0.6c-0.1 0.4-0.4 0.8-0.7 1.1s-0.7 0.5-1 0.6c-0.4 0.2-0.6 0.2-0.6 0.2z"/><path d="m464.9 71.5 0.1 0.1s0.2 0.3 0.2 0.5c0.1 0.2 0.1 0.5 0.1 0.8s0 0.7 0 1.1c-0.1 0.8-0.2 1.7-0.5 2.7-0.2 1-0.6 2-1 2.9-0.7 1.9-1.7 3.8-2.4 5.1-0.4 0.7-0.7 1.2-1 1.6-0.2 0.4-0.4 0.6-0.4 0.6s0.1-0.3 0.2-0.7c0.2-0.4 0.4-1 0.7-1.7s0.6-1.6 1-2.4c0.3-0.9 0.7-1.8 1.1-2.8 0.2-0.5 0.4-0.9 0.5-1.4 0.2-0.5 0.3-0.9 0.5-1.4 0.3-0.9 0.5-1.8 0.7-2.5 0.1-0.4 0.1-0.7 0.2-1v-0.8c0-0.2 0-0.4-0.1-0.5 0.1-0.1 0.1-0.2 0.1-0.2z"/></svg>
