<?xml version="1.0" encoding="UTF-8"?>
<!DOCTYPE svg  PUBLIC '-//W3C//DTD SVG 1.1//EN'  'http://www.w3.org/Graphics/SVG/1.1/DTD/svg11.dtd'>
<svg width="255.12px" height="226.77px" enable-background="new 0 0 255.118 226.771" version="1.1" viewBox="0 0 255.12 226.77" xmlns="http://www.w3.org/2000/svg"><rect width="255.12px" height="226.77px" fill="#fff"/><linearGradient id="a" x1="32.564" x2="64.565" y1="179.79" y2="157.54" gradientUnits="userSpaceOnUse"><stop stop-color="#fff" offset="0"/><stop stop-color="#EDEDED" offset="1"/></linearGradient><path d="m47.5 213.17 64.5-57.25s-16-23.75-19.5-38.25-1.5-9.75-1.5-9.75l-76.25 40.5s3 53.75 32.75 64.75z" fill="url(#a)"/><path d="m148.99 2.593c3 3.4 5.2 6.8 6.9 10.7 1.1 1.6 1.399 3.6 2.3 5.3 0.5 3.1 1.6 6.3 0.5 9.3-1.1 6.101-2.2 12-2.6 18.4-0.601 0.399-1.5 0.5-1.7-0.4-0.3-2.399 0.2-4.899 0.5-7.3 0.6-4.2 1.3-8.5 2.399-12.5-0.8-8.3-4.399-15.5-9.899-21.7-2.101-1.8-5.4-2.7-8-1.3-2.4 1.7-1.101 5-1.101 7.4l0.101 2.5c0.399-0.2 1-0.301 1.5 0 0.2 2.199-0.4 4.399-0.3 6.399-0.301 0.601 0.199 1.2-0.301 1.7 0.301 0.4 0 0.7 0 1.2h-0.1c-0.3 1-0.3 2-0.6 3 0.399 0.2 0.199 0.7 0.199 1.1-0.399 0.4-0.399 0.8-0.5 1.3l0.2 0.101c0.2 0.5-0.7 0.899-0.1 1.3 0.1 0.3-0.601 0.3-0.101 0.6-0.1 0.301-0.6 0-0.199 0.4-0.2 0.6-0.7 0.7-0.301 1.3l-0.199 0.4 0.199 0.1c-0.1 0-0.199 0.101-0.199 0.2 0.1 0 0.1 0.1 0.199 0.1l-0.6 1 0.3 0.101c-0.399 0.6-0.3 1.3-0.7 2l0.101 0.2-0.2 0.199c0.6 0.5-0.4 1-0.1 1.601 0 0 0.1-0.3 0-0.5-0.601 0.899-0.601 2-0.801 3.1 0.4 0.101 0.301-0.6 0.4-0.8 0.2 0.3-0.2 0.8 0.2 0.7-0.3 0.5 0.1 1.6-0.601 1.7l-0.199 0.5c0.1 0.199-0.2-0.7-0.4 0-0.1 0.1 0.2 0.3 0.3 0.3h0.2c0.2 0-0.1-0.101-0.1 0 0.1 0.2 0.3 0.3 0.1 0.6l-0.2-0.1c-0.2 0.1 0 0.399-0.2 0.5 0.101-0.101-0.1-0.2-0.1-0.3-0.1 0.5-0.8 1.199-0.2 1.699-0.1 1.2-0.3 2.101-0.7 3.2-0.6 2.2-0.699 4.9-2.6 6.5-0.2 0-0.7 0-0.7-0.399 2.4-7.7 4-15.9 5.3-23.601 1-4.1 1.301-8.3 1.7-12.5-1.2-3.6-1.399-7.6-1.7-11.6 0.601-2 1.601-4.101 3.601-5.101 3.102-0.999 6.602-0.599 9.102 1.401z"/><rect x="138.49" y="27.193" width=".101" height=".101"/><rect x="138.19" y="28.793" width=".1" height=".1" fill="#fff"/><path d="m252.79 36.593c2.2 3.9 1.601 9.4-1.199 12.8-0.5 0.8-1.5 1.2-2 1.601-1.101-0.101-2.101 0.8-3.2 0.3-0.9 0.899-2.101 0-3.101 0.6-12.399 0.9-26 2.601-38.199 5.8l-3.601 0.7c0.2 0.7-0.5 1-1 1.101-8.5 1.1-16.1 4.899-24.3 7-1.3 0.699-2.8 0.899-4.2 1.5-3 0.699-5.6 2.199-8.7 2.8-0.399 0-0.699-0.4-0.8-0.7 0.601-0.8 1.8-1.1 2.601-1.5 6.6-2.5 13.5-4.4 20.199-6.8-0.5-0.2-0.899 0.1-1.3 0.1l9.3-2.899c0.5-1 2-0.5 2.601-1.301 0-4.6-1-8.399-2.101-12.899-0.5-0.5-0.3-1.4-0.899-1.9 0-0.2 0-0.5-0.3-0.5-1.101 1.7-0.7 4-0.301 5.9 0.2 1.3 0.2 2.899 0.9 4-0.2 0.899 0.4 1.399 0.6 2.2 0.4 0.8 0.7 1.699 1.601 2.199v0.301c-0.601 0-0.9-0.7-1.2-1 0.3-0.5-0.4-0.2-0.4-0.601-1.399-3.3-2.199-6.7-2.399-10.5v-1.7c-0.101 0.301-0.2 1-0.5 1-0.101-1 0.399-1.5 0.5-2.5 0.399-0.1 0.2 0.4 0.3 0.5 0.4-0.3 0.8-0.5 1.3-0.6 1.101 2.2 1.601 4.7 2.101 7.2 0.699 2.899 0.699 6 1.3 9.1 14.1-3.5 28.7-6.399 43.399-7.8 0.101-0.2 0-0.5 0.101-0.7-0.4-0.399-1.3-0.5-1.2-1.3 0.2-0.4 0.5-0.4 0.8-0.6-0.5-3.101-1.2-6-2.2-8.9 0.4-1.1 1.5-1.6 2.5-2.1l-0.8 0.399c2.7-0.6 5.2-2.2 8.101-1.7v0.2c-3.301 0.101-6 1-8.801 2.7 0.301 2.1 1.101 4.3 1.301 6.4 0.1 1.199 0.6 2.399 0.6 3.699 1.7 1.4 4.1 0.9 6.1 1 0.301 0 0.801-0.3 1.101 0 0.899-0.3 2-0.899 2.6-1.699 0.4-3.9-0.899-7.9-2.7-11.2 0.101-0.3 0.2-0.5 0.4-0.601 1.3 0.801 0.5 2.4 1.6 3.4 0.601 2.3 1.101 4.9 1.2 7.4 1.3-1.301 1.3-3.4 1.5-5.301-0.3-2.1-0.899-4.3-2.899-5.6-0.601-0.5-1.5-0.8-2.2-0.6-1.5-1.2-3.3-0.601-5-1.2-0.5 0.6-1-0.4-1.4 0-1.8 0-3.5 0.3-5 0.7l-0.2-0.101c-16.399 1.8-34.1 3.3-50.199 7.2-0.5 0.6-1.2 0-1.7 0.3-2.4 0.601-4.9 1.101-7.4 1.601-0.3 0.699-0.8 0.1-1.3 0.5-10.1 2.6-20.4 5.199-30.6 7.899-1.601 0-3.4 1-5 0.101 0.199-0.7 1.3-0.7 1.899-1 25-6.601 49.7-13.7 76.101-16.5 7.399-1.101 14.6-1.5 22-2.601 1.8 0.8 3.399-0.8 5.3 0.2 3.293 0.302 6.593 1.302 8.393 4.502z"/><rect x="137.29" y="34.293" width=".101" height=".1"/><rect x="137.29" y="34.593" width=".101" height=".2"/><path d="m225.39 42.093c0.5 2.2 0.6 4.5 1.5 6.7 0 0 0 0.2-0.101 0.2-0.3-0.4-0.399-1-0.699-1.5-0.101-1.4-0.301-2.9-0.7-4.2 0.2-1.8-0.9-3.5-0.2-5.3-0.3 1.3 0.2 2.6 0.2 4.1z"/><path d="m135.99 40.793c-0.1-0.3 0-0.7 0.2-1 0 0.201 0.1 0.8-0.2 1z" fill="#fff"/><path d="m135.79 40.693c-0.3 0.301 0 0.601-0.3 0.9-0.3-0.3 0.101-0.7 0.3-0.9z" fill="#fff"/><path d="m129.99 55.693c-1 1-1.7 2-2.5 3.101-6.5 9.8-11.399 20.6-18.5 30.1-4.6 5.9-9.5 12.2-15.7 16.5-0.399-0.2-0.6 0.2-0.899 0.4l0.2-0.3-0.101-0.101c0.7-0.8 1.8-1.5 2.4-2.399 0.399 0.1 0.6-0.801 1-0.9l0.399-0.4-0.399 0.101c0.2-0.7 0.899-0.101 1.2-0.9 0-0.1-0.2 0-0.301-0.1 1.101-1.5 2.801-2.9 4-4.101 0 0.101-0.1 0.2-0.1 0.2 0 0.101 0.2 0.101 0.2 0.101 0.5-0.301-0.3-0.5 0.2-0.7l0.1 0.2c0.1-0.101 0.5-0.2 0.3-0.4h-0.3l2.3-2.6 0.2 0.3c0.1-0.101 0.1-0.2 0.2-0.3-0.5-0.301 0.2-1 0.5-1.4 0.399 0.2 0.399-0.2 0.5-0.4l0.7-0.899-0.5 1.2c0.6 0 0.399-0.801 0.8-1-0.4-0.9 0.899-1.5 1.2-2.301 0.1 0.101 0.3 0.2 0.3 0.101v-0.2c0.2 0 0.2 0.1 0.3 0.2 0.1-0.2 0.1-0.4 0.1-0.5h-0.199c0-0.3 0.1-0.4 0.199-0.601h0.301l-0.301 0.301 0.2 0.199 0.4-0.5c-0.7-0.699 0.7-1.199 0.899-2 0.2-0.1 0.301-0.5 0.5-0.6v0.4c0.2-0.101 0.2-0.301 0.4-0.301-0.4-0.399 0-0.8 0.2-1.199 0.1-0.101 0.3-0.101 0.399-0.2l-0.199 0.399 0.6-0.5c-0.6 0 0-0.8 0.1-1.1l0.2-0.3c0.101 0.1 0.2 0.3 0.3 0.3 0.101-0.8 0.4-1.8 1.301-2.3-0.301-0.3 0.1-0.5 0.199-0.7 0.801 0.4 0.7-0.7 1.101-1l-0.101-0.2c-0.1 0.2-0.3 0.601-0.6 0.601 0.1-0.5 0.4-0.801 0.7-1.2l0.5-0.2c-0.4-0.5 0.3-1 0.5-1.5h0.2c0.1 0.3-0.301 0.5-0.4 0.8l0.1 0.101c0.4-0.101 0.4-0.601 0.601-0.9l-0.3-0.2 0.3-0.1c-0.3-0.5 0.3-0.7 0.3-1 1.3-2.101 2.3-4.3 3.6-6.4l0.2 0.2c2.3-4.7 4.7-9.7 8.9-13.6 0.399-0.101 0.7-0.4 1.1-0.2v0.897z"/><path d="m205.09 65.494c1.199 4.1 1.3 8.3 0.1 12.5-0.6 1.1-1.3 3.1-2.9 2.899-1.899 1-3.8 1.9-5.699 3-1.7 0.3-2.801 1.4-4.601 1.9-2.2 1.2-4.8 2-6.8 3.7v0.199c-1.1 1.101-2 2.601-3.3 3.601-0.5 0.1-0.8-0.4-0.9-0.8 0.2-1.801 1.9-2.801 2.601-4.5 6-3.9 12.699-6 19-9.2 1.8-1.601 1-4.4 1.3-6.5-0.101-2.601-0.3-5-1.3-7.2-1.301-2-3.801-2.3-5.5-3.6-0.2-0.601 0.1-0.7 0.399-1.101 2.999 0.701 6.299 2.001 7.6 5.102z"/><rect x="119.09" y="70.093" width=".1" height=".1" fill="#fff"/><rect x="111.59" y="82.593" width=".1" height=".2" fill="#fff"/><path d="m207.59 87.994c0 4.199 1.1 9.199-1.101 13 0.2 0.5-0.399 0.899-0.8 1.199-0.5 0-0.7 0.601-1.3 0.5-0.2-0.199 0-0.5-0.2-0.6-1.4 1.3-3.3 2.2-5 3.4 2.9 1.1 2.7 4.699 3.4 7.399 0.3 5.3-2.601 9.4-5.9 13.201v0.299c-1.4 0.4-2.1 1.9-3.5 2.201-0.5 0.5-1.6 0.699-2.1 1.6l-0.7 0.1c-1.8 1.301-3.8 2.5-5.5 3.9-1.5 0.6-2.9 1.801-4.3 2.601-3 2.299-6.301 2.1-8.801 5.1-5.199 3.1-10.8 5.9-16.5 7.5-0.399 0.799-0.8-0.201-1.199 0.5-3.2 0.799-6.4 1.5-9.7 2.199-6.7 1.4-13.601 2.5-20.4 1.801-0.8-0.6-1.899 0.199-2.5-0.701-1.5-0.699-2.8 0.5-4 0.801-1.399 0.801-3.1 1.301-4.1 2.6 0.5 0.1 0.399 0.5 0.399 0.801-0.8 0.4-1.899-0.5-2.6 0.4-0.7 0-1.4 0.199-1.8-0.4 0.2-0.5 0.7-0.9 1.1-1.4v-0.4c-3.7-4.6-6.2-9.9-9-14.799-4.1-8.401-8.2-16.901-10.3-26.101-0.7-2.1-1.3-4.5-1.1-6.8 0.5-0.2 0.399-0.8 0.899-0.899 1.3 1.199 0.5 3.3 1.3 5 3.2 14.5 10.101 27.5 17.5 40.099 0.801 0.801 1.2 2.301 2.2 2.5 2.3-2.199 5-2.799 7.8-3.9 1.5 0 3.7-0.299 4.4 1.4 5.8 0.5 11.7-0.6 17.4-1.6 0.199-0.6 0.699 0.1 1.1-0.199 7.4-1.301 14.3-3.602 20.9-6.602 2.1-1.299 4.399-1.898 6.399-3.5-0.2-0.699 1.101-0.699 1.5-1.199 0.9-0.1 1.5-1.199 2.3-1.6l4.101-1.899c0 0.1 0 0.199-0.101 0.299l0.101 0.1c3.8-2.1 7.6-4.898 10.899-7 2.601-1.898 6.101-3.5 7.9-6.299 2.3-3.5 4.9-7.4 3.3-12 0.601-2.1-2.3-3-1.2-4.9-5.899 2.101-11.199 7-15.8 10.801-0.8 0-1.2 0.898-2 0.6-0.1-1.6 1.5-2.301 2.5-3.5l5.2-4.1v0.1c4.5-3.6 10.1-5.6 15.1-8.3 0.2 0 0.5-0.101 0.601 0.2 1-1.9 1.3-4.301 1.3-6.9l-0.3-6.5c-0.8-1.7-2.7-3.2-4.4-3.9 0.3-0.5-0.399-1.3 0.4-1.6 2.602 0.397 5.003 3.096 6.203 5.397z"/><rect x="110.39" y="84.593" width=".1" height=".1" fill="#fff"/><rect x="106.79" y="89.393" width=".101" height=".101" fill="#fff"/><path d="m106.69 89.793c0 0.1-0.1 0.1-0.2 0.2v-0.2h0.2z" fill="#fff"/><rect x="103.39" y="93.793" width=".1" height=".1" fill="#fff"/><polygon points="101.79 95.893 101.99 95.494 101.89 95.793" fill="#fff"/><path d="m100.59 97.093v0.2l-0.101-0.2h0.101z" fill="#fff"/><path d="m99.59 98.293-0.801 0.8 0.801-0.8z" fill="#fff"/><rect x="98.09" y="99.593" width=".1" height=".1" fill="#fff"/><polygon points="114.69 150.29 114.79 150.09 114.99 150.09"/><line x1="90.09" x2="40.868" y1="107.89" y2="135.06" fill="none" stroke="#000"/><line x1="111.19" x2="70.341" y1="157.79" y2="194.01" fill="none" stroke="#000" stroke-width="1.5"/><path d="m233.63 59.682c2.827 7.362 4.563 15.255 5.013 23.51 2.348 43.135-31.307 80.248-75.789 84.459" fill="none" stroke="#000" stroke-width="3.5"/><polygon points="168.84 157.97 165.86 167.36 170.56 176.04 148.29 169.03"/></svg>
