<?xml version="1.0" encoding="UTF-8"?>
<svg width="226.8px" height="226.8px" enable-background="new 0 0 226.8 226.8" version="1.1" viewBox="0 0 226.8 226.8" xmlns="http://www.w3.org/2000/svg"><rect width="226.8px" height="226.8px" fill="#fff"/><style type="text/css">.st0{fill:#FFFFFF;} .st1{fill:url(#b);} .st2{fill:none;stroke:#000004;stroke-width:2;stroke-linecap:round;} .st3{fill:#000004;} .st4{fill:none;stroke:#000004;stroke-linecap:round;} .st5{fill:url(#a);} .st6{fill:none;stroke:#000004;}</style><rect class="st0" x="1.6" y="1.8" width="223.9" height="223.9"/><linearGradient id="b" x1="25.954" x2="33.928" y1="-593.54" y2="-581.7" gradientTransform="matrix(1 0 0 -1 0 -388.09)" gradientUnits="userSpaceOnUse"><stop stop-color="#fff" offset="0"/><stop stop-color="#EDEDED" offset="1"/></linearGradient><polygon class="st1" points="41.2 216.3 60.4 197 68.4 188.1 59.4 188.1 42.8 183.2 33.5 175.7 28.7 169.1 2.2 195"/><path class="st2" d="m10.5 187.3s25.3-24.8 26.2-26.9 11.8-63.8 12.2-67"/><path class="st2" d="m53.2 205.1c1.1-1.2 28.4-30.8 28.4-30.8s6-0.6 14.2-16.4 9.6-15.9 8.8-19.9c-0.7-3.7-5.9-27.7-6.6-29.6s-1.9-3.6-4.7-3.6h-11.5"/><path class="st3" d="m74 98.9s-0.2 0.5-0.5 1.4-0.7 2.2-1 3.8-0.6 3.5-0.4 5.4c0.1 1.9 0.7 3.9 1.8 5.6 0.6 0.8 1.2 1.6 2 2.2l1.2 0.9c0.4 0.3 0.9 0.6 1.3 0.9 0.8 0.5 1.7 1 2.5 1.5s1.6 0.9 2.3 1.2c0.7 0.4 1.4 0.6 2 0.9 0.6 0.2 1.2 0.4 1.6 0.5 0.9 0.3 1.5 0.3 1.5 0.3s-0.5 0.2-1.5 0.2-2.4-0.2-4-0.7c-0.8-0.2-1.7-0.6-2.6-0.9-0.9-0.4-1.8-0.9-2.7-1.4-0.5-0.3-0.9-0.5-1.3-0.8-0.5-0.3-1-0.6-1.4-1-0.9-0.7-1.7-1.6-2.4-2.6s-1.2-2.1-1.4-3.3c-0.3-1.1-0.4-2.3-0.4-3.4 0-2.2 0.5-4.1 1.1-5.7s1.2-2.8 1.7-3.7c0.2-0.9 0.6-1.3 0.6-1.3z"/><line class="st2" x1="72.7" x2="82.8" y1="102.2" y2="105.5"/><path class="st2" d="m85.3 123.3s-1.1 4.3 3.2 9.6"/><path class="st2" d="m76.8 128.2s3.1-3.2 7.6-3.1"/><path class="st3" d="m73.4 103.8s0.1 0 0.2 0.1 0.3 0.2 0.5 0.3c0.4 0.3 1 0.8 1.6 1.4s1.3 1.4 1.8 2.5c0.1 0.3 0.2 0.5 0.3 0.9 0.1 0.3 0.2 0.6 0.2 0.8 0.2 0.5 0.4 0.9 0.8 1.2s0.9 0.4 1.4 0.5 1.1 0.1 1.6 0.1c0.3 0 0.4 0 0.6-0.1s0.3-0.2 0.5-0.3c0.2-0.3 0.3-0.7 0.3-1.1 0-0.8-0.2-1.5-0.4-2s-0.3-0.8-0.3-0.8 0.2 0.2 0.4 0.7c0.1 0.2 0.3 0.5 0.4 0.8s0.3 0.7 0.4 1.2 0.1 1-0.3 1.6c-0.3 0.6-1.1 0.8-1.6 0.9-0.6 0-1.2 0.1-1.8 0s-1.3-0.2-1.9-0.7c-0.6-0.4-0.9-1-1.1-1.7-0.1-0.3-0.2-0.6-0.2-0.9 0-0.2-0.1-0.5-0.2-0.7-0.4-0.9-0.9-1.8-1.5-2.5-0.5-0.7-1-1.3-1.3-1.6-0.2-0.4-0.4-0.6-0.4-0.6z"/><path class="st3" d="m70 114.9s0 0.8 0.1 2.3c0.1 1.4 0.2 3.5 0.4 5.9 0.2 2.5 0.5 5.3 1 8.3 0.2 1.5 0.6 3.1 1 4.6s1 3.1 1.5 4.7 0.8 3.2 1 4.9c0.2 1.6 0.2 3.3 0 4.8-0.1 0.8-0.2 1.6-0.4 2.3-0.1 0.4-0.2 0.7-0.3 1.1-0.1 0.3-0.2 0.7-0.4 1-0.5 1.4-1.1 2.6-1.7 3.6-0.3 0.6-0.6 1-1 1.5-0.3 0.5-0.6 0.9-0.9 1.3-0.7 0.8-1.2 1.5-1.7 2l-1.6 1.6s0.5-0.6 1.4-1.7c0.5-0.5 0.9-1.3 1.5-2.1 0.3-0.4 0.5-0.9 0.8-1.3 0.3-0.5 0.6-1 0.9-1.5 0.6-1.1 1.1-2.3 1.5-3.6 0.1-0.3 0.2-0.7 0.3-1s0.2-0.7 0.2-1.1c0.2-0.7 0.3-1.4 0.4-2.2 0.1-1.5 0.1-3.1-0.1-4.6-0.2-1.6-0.6-3.2-1-4.7-0.4-1.6-1-3.1-1.5-4.7-0.4-1.6-0.7-3.2-0.9-4.7s-0.4-3-0.5-4.4-0.2-2.8-0.2-4c-0.1-2.5-0.1-4.5 0-6s0.2-2.3 0.2-2.3z"/><path class="st4" d="m74 136.9s6.3 10.5 2.8 18.2"/><path class="st4" d="m31.3 172.9s9.8 15.5 31 15.2"/><line class="st2" x1="56.3" x2="54.2" y1="51.6" y2="61.4"/><polyline class="st2" points="53.8 59.4 49.6 74.8 49 98.6"/><path class="st3" d="m53.2 51.3c2.4 0 4.9 0.5 7.2 1.5 1.2 0.5 2.3 1.2 3.2 2 0.5 0.4 0.9 0.9 1.3 1.5 0.4 0.5 0.7 1.2 0.9 1.8s0.4 1.3 0.5 2 0.1 1.3 0.1 2l-0.1 1-0.1 0.9-0.3 1.8c-0.2 1.2-0.5 2.5-0.9 3.7-0.2 0.6-0.4 1.2-0.7 1.8-0.1 0.3-0.3 0.6-0.5 0.9-0.1 0.2-0.2 0.3-0.3 0.5l-0.2 0.2c-0.1 0.1-0.1 0.1-0.4 0.3l0.4-1.4c0.2 0.4 0.3 0.8 0.4 1.1 0.1 0.4 0.2 0.7 0.3 1.1 0.2 0.7 0.4 1.5 0.5 2.2 0.3 1.5 0.5 3 0.5 4.6 0 0.8 0.1 1.5 0 2.3 0 0.8 0 1.5-0.1 2.3 0 0.8-0.1 1.5-0.2 2.3s-0.3 1.5-0.4 2.2v-0.5c0.2 0.3 0.3 0.6 0.4 1 0.1 0.3 0.2 0.6 0.3 1 0.2 0.6 0.4 1.3 0.6 2 0.3 1.3 0.6 2.6 0.7 4 0.1 1.3 0.1 2.7-0.1 4s-0.7 2.6-1.3 3.8c0.4-1.3 0.6-2.6 0.7-3.8 0-1.3-0.1-2.6-0.3-3.8-0.3-1.3-0.6-2.5-1-3.7-0.2-0.6-0.4-1.2-0.7-1.8l-0.4-0.9c-0.1-0.3-0.3-0.6-0.4-0.8l-0.1-0.2v-0.3c0.1-0.7 0.1-1.4 0.2-2.2 0-0.7 0.1-1.4 0.1-2.2v-2.2c0-0.4 0-0.7-0.1-1.1 0-0.4 0-0.7-0.1-1.1-0.1-1.4-0.3-2.9-0.6-4.3-0.1-0.7-0.3-1.4-0.5-2.1-0.1-0.3-0.2-0.7-0.3-1s-0.2-0.7-0.3-1l0.4-1.4c-0.1 0.1 0 0 0 0l0.1-0.1c0.1-0.1 0.1-0.2 0.2-0.3 0.1-0.2 0.3-0.4 0.4-0.7 0.2-0.5 0.5-1 0.7-1.5 0.4-1.1 0.7-2.2 1-3.4 0.1-0.6 0.3-1.1 0.4-1.7l0.2-0.9 0.1-0.8c0.1-0.6 0.1-1.1 0.1-1.7 0-0.3-0.1-0.5-0.1-0.8-0.1-0.3-0.1-0.5-0.2-0.8-0.6-2.1-2.3-3.8-4.3-5-1-0.6-2.1-1.1-3.3-1.4-1.2-0.4-2.4-0.7-3.6-0.9z"/><line class="st2" x1="58.9" x2="63.2" y1="47.8" y2="35.6"/><path class="st2" d="m83.3 33.2s5.9 7.4 2.3 20.9c0 0 3.2 10.5-2 20.5 0 0 1.8 7.1-0.5 13.8"/><path class="st2" d="m82.3 85.5s3 8.3 1.2 15.5"/><path class="st3" d="m68.9 18c1.3 0.1 2.5 0.3 3.7 0.8 1.2 0.4 2.4 1 3.5 1.7 0.5 0.4 1.1 0.8 1.5 1.2 0.5 0.4 0.9 0.9 1.3 1.5 0.4 0.5 0.8 1.1 1.1 1.7 0.2 0.3 0.3 0.6 0.4 0.9s0.3 0.6 0.4 0.9c0.2 0.6 0.4 1.3 0.5 2s0.2 1.3 0.2 2 0 1.3 0 2-0.1 1.3-0.2 2c-0.1 0.6-0.2 1.3-0.4 1.9s-0.3 1.3-0.5 1.9-0.4 1.2-0.6 1.9l-0.7 1.8v-0.8c0.2 0.5 0.3 0.9 0.4 1.4s0.2 0.9 0.3 1.4c0.2 0.9 0.3 1.8 0.4 2.8 0 0.5 0.1 0.9 0.1 1.4s0.1 0.9 0 1.4v1.4l0.1 1.2c0 0.5-0.1 0.9-0.2 1.4s-0.1 0.9-0.2 1.4c-0.2 0.9-0.3 1.8-0.6 2.7-0.2 0.9-0.5 1.8-0.8 2.6-0.1 0.4-0.3 0.9-0.5 1.3l-0.5 1.3 0.1-0.7 0.3 1.5c0.1 0.5 0.1 1 0.2 1.5l0.3 3c0.1 2 0.1 4 0 6s-0.4 4-0.9 5.9-1.1 3.8-2 5.6c0.6-1.9 0.9-3.8 1.1-5.8 0.2-1.9 0.3-3.9 0.3-5.8s-0.2-3.9-0.4-5.8c-0.1-1-0.3-1.9-0.4-2.9-0.1-0.5-0.2-0.9-0.3-1.4s-0.2-0.9-0.3-1.4l-0.1-0.3 0.1-0.4 0.4-1.2c0.1-0.4 0.3-0.8 0.4-1.2 0.2-0.8 0.5-1.6 0.7-2.5 0.2-0.8 0.4-1.7 0.5-2.5 0.1-0.4 0.1-0.8 0.2-1.3 0-0.4 0.1-0.8 0.1-1.3 0.1-0.7 0.1-1.6 0.1-2.4v-1.3c0-0.4 0-0.9-0.1-1.3-0.1-0.9-0.2-1.7-0.3-2.5-0.1-0.4-0.1-0.8-0.2-1.2s-0.2-0.8-0.3-1.2l-0.1-0.5 0.2-0.4 0.7-1.7c0.2-0.6 0.4-1.2 0.6-1.7 0.2-0.6 0.3-1.2 0.5-1.8s0.3-1.2 0.4-1.8 0.2-1.2 0.3-1.8 0.1-1.2 0.1-1.8 0-1.2-0.1-1.8l-0.3-1.8c-0.1-0.3-0.1-0.6-0.2-0.9s-0.2-0.6-0.3-0.8c-0.2-0.5-0.5-1.1-0.8-1.6s-0.7-1-1.1-1.4c-0.4-0.5-0.8-0.9-1.3-1.3-0.9-0.8-2-1.5-3.1-2-1.2-0.4-2.4-0.8-3.7-1.1z"/><line class="st2" x1="68.8" x2="71" y1="24.4" y2="18.8"/><path class="st3" d="m58.8 25.5c1.6-0.1 3.1-0.1 4.7 0.1s3.1 0.7 4.6 1.3c1.5 0.7 2.9 1.6 4 2.8 1.2 1.2 2 2.7 2.5 4.3s0.7 3.3 0.7 4.9c0 1.7-0.2 3.3-0.6 4.9-0.3 1.6-0.8 3.1-1.3 4.6s-1.2 3-1.8 4.4v-1c0.2 0.4 0.3 0.8 0.4 1.2s0.2 0.8 0.3 1.1c0.2 0.8 0.3 1.5 0.4 2.3s0.1 1.5 0.2 2.3c0 0.8 0 1.5-0.1 2.3 0 0.4-0.1 0.8-0.1 1.1 0 0.4-0.1 0.8-0.2 1.1-0.1 0.4-0.1 0.8-0.2 1.1l-0.3 1.1c-0.2 0.7-0.5 1.5-0.7 2.2-0.1 0.4-0.3 0.7-0.4 1.1l-0.4 1.1 0.1-0.6c0.2 1 0.3 1.9 0.4 2.8s0.2 1.9 0.2 2.8c0.1 1.9 0.2 3.7 0.1 5.6l-0.1 1.4c0 0.5-0.1 0.9-0.1 1.4-0.1 0.9-0.2 1.8-0.4 2.8-0.2 0.9-0.3 1.8-0.6 2.7-0.2 0.9-0.6 1.8-0.8 2.6l0.2-1.4c0.1-0.4 0.1-0.9 0.2-1.4 0.1-0.9 0.2-1.8 0.2-2.7s0.1-1.8 0-2.7c0-0.9-0.1-1.8-0.1-2.7-0.1-0.9-0.1-1.8-0.2-2.7l-0.3-2.7c-0.1-0.9-0.3-1.8-0.4-2.7-0.2-0.9-0.3-1.8-0.5-2.6l-0.1-0.3 0.1-0.3 0.4-1c0.1-0.3 0.3-0.7 0.3-1 0.2-0.7 0.4-1.3 0.5-2 0.2-0.7 0.3-1.4 0.4-2.1 0.1-0.3 0.1-0.7 0.1-1s0.1-0.7 0.1-1c0-0.7 0.1-1.4 0-2.1 0-0.7-0.1-1.4-0.2-2.1s-0.2-1.4-0.4-2c-0.1-0.3-0.2-0.7-0.3-1s-0.2-0.7-0.3-0.9l0.4-1c0.7-1.4 1.3-2.8 1.8-4.2s1-2.9 1.4-4.3c0.4-1.5 0.6-2.9 0.7-4.4s0-2.9-0.4-4.3-1-2.7-1.9-3.8-2.1-2.1-3.4-2.8c-1.3-0.8-2.7-1.3-4.2-1.7-1.5-0.6-3-0.8-4.6-0.9z"/><line class="st2" x1="62.1" x2="63.9" y1="36.9" y2="25.6"/><polyline class="st0" points="62 31.2 63.5 22.3 55.5 20.7"/><polyline class="st0" points="54.7 55 56.2 46 48.2 44.5"/><polyline class="st0" points="68 24.1 71.2 15.6 63.7 12.5"/><polyline class="st0" points="71.8 100.9 74.9 101.7 76.2 96.7"/><path class="st0" d="m75.2 21"/><linearGradient id="a" x1="22.882" x2="31.523" y1="-665.86" y2="-653.03" gradientTransform="matrix(.9084 -.4181 -.4181 -.9084 -125.56 -384.74)" gradientUnits="userSpaceOnUse"><stop stop-color="#fff" offset="0"/><stop stop-color="#EDEDED" offset="1"/></linearGradient><polygon class="st5" points="200.1 211.5 198.3 189 199.2 172.9 195.3 174.8 180.8 176.2 168.6 174.8 156.6 171.6 146.8 211.3"/><path class="st3" d="m154.8 18.7c1.2-0.6 2.6-1.1 4-1.3s2.9-0.1 4.3 0.3 2.7 1.3 3.7 2.4 1.8 2.4 2.3 3.7c1.1 2.7 1.5 5.6 1.6 8.4s0 5.6-0.3 8.4l-0.2-0.8c0.3 0.5 0.5 0.9 0.7 1.3s0.4 0.9 0.6 1.3c0.4 0.9 0.7 1.8 1 2.7 0.5 1.9 0.9 3.8 1.1 5.7s0.2 3.9 0.1 5.8c-0.2 1.9-0.5 3.8-1 5.7v-0.6c0.6 2.1 1 4.2 1.3 6.3 0.2 1.1 0.4 2.1 0.5 3.2s0.2 2.1 0.4 3.2c0.1 1.1 0.2 2.1 0.2 3.2v1.6 1.6c0 0.5-0.1 1.1-0.1 1.6s-0.1 1.1-0.1 1.6c-0.1 0.5-0.1 1.1-0.2 1.6l-0.3 1.6 0.1-1.6v-1.6c0-1.1-0.1-2.1-0.2-3.2l-0.3-1.4c0-0.5-0.1-1-0.2-1.6-0.1-1-0.3-2.1-0.5-3.1-0.4-2.1-0.8-4.1-1.3-6.2-0.2-1-0.5-2.1-0.8-3.1s-0.6-2-0.8-3l-0.1-0.3 0.1-0.3c0.4-1.7 0.7-3.5 0.8-5.3s0.1-3.6-0.1-5.3c-0.2-1.8-0.6-3.5-1.1-5.2-0.3-0.9-0.6-1.7-0.9-2.5-0.2-0.4-0.3-0.8-0.5-1.2s-0.4-0.8-0.6-1.1l-0.2-0.4v-0.4c0.2-1.3 0.3-2.7 0.4-4s0.1-2.7 0.1-4c0-2.7-0.3-5.3-1.1-7.8-0.4-1.2-1-2.4-1.7-3.4-0.8-1-1.8-1.8-3-2.3s-2.5-0.7-3.8-0.7c-1.2-0.1-2.6 0.1-3.9 0.5z"/><path class="st6" d="m159.7 172.2s11 7.5 36.3 2.4"/><path class="st3" d="m157.1 19.3s0.3 0 0.7 0.1 1.1 0.2 1.8 0.5c0.4 0.2 0.7 0.4 1.1 0.7s0.7 0.7 0.9 1.3c0.1 0.3 0.1 0.6 0.1 0.9 0 0.2 0 0.5-0.1 0.7-0.1 0.5-0.1 1-0.3 1.5-0.4 2-1.3 3.9-2.4 5-0.6 0.6-1.2 0.8-1.6 0.9-0.2 0.1-0.4 0.1-0.5 0.1s-0.2 0-0.2 0 0.3 0 0.6-0.2c0.4-0.2 0.9-0.5 1.3-1.1 0.8-1.1 1.5-3 1.9-4.9 0.1-0.5 0.2-0.9 0.3-1.4 0-0.2 0.1-0.5 0.1-0.7s0-0.4 0-0.5c-0.1-0.7-0.8-1.3-1.4-1.7s-1.1-0.7-1.5-0.9c-0.6-0.2-0.8-0.3-0.8-0.3z"/><path class="st2" d="m156 80.2c0.2-1.7 1.2-29.3 1.2-29.3l-1.5-20"/><path class="st2" d="m164.6 94.5s20.2-10.2 25.4-12.8c5.3-2.6 15 7.8 18.9 12.1s4.8 9.1 3.6 11.7"/><path class="st2" d="m168.3 103.8s26.9-6.7 30.3-6.5c3.5 0.2 14.6 10.5 17 14.4 2.4 3.8-1.8 10.3-1.8 10.3"/><line class="st2" x1="214" x2="210.6" y1="121.5" y2="131.1"/><path class="st2" d="m209.5 77.3s3.7-9.3 14.8-5.3"/><line class="st2" x1="224.6" x2="221.8" y1="72.4" y2="84"/><path class="st2" d="m221.6 80.1s2.8 10.3 1.5 13.7-6.1 14.5-6.1 14.5"/><path class="st2" d="m209.8 133.7s-1.7 13.1-11.1 25.2l1.7 48.8"/><line class="st2" x1="156.7" x2="155.6" y1="30.2" y2="19.3"/><path class="st3" d="m189.5 115.9c0.5 0.2 1.1 0.3 1.6 0.4s1.1 0.2 1.6 0.2h0.8s0.5 0 0.8 0c0.5 0 1.1-0.1 1.6-0.1 0.3 0 0.5-0.1 0.8-0.1s0.5-0.1 0.8-0.2l0.8-0.2 0.7-0.3c0.5-0.1 1-0.4 1.4-0.6 0.2-0.1 0.5-0.2 0.7-0.4l2.1-1.2v1.6 0.4 0.5c0 0.3 0.1 0.6 0.2 0.9 0.1 0.6 0.3 1.1 0.6 1.6s0.6 0.8 1.1 1c0.4 0.2 1 0.3 1.5 0.3l2.2-0.1-1.5 1.5c-0.1 0.2-0.3 0.4-0.5 0.6s-0.3 0.5-0.5 0.7c-0.3 0.5-0.5 1-0.6 1.5-0.3 1-0.2 2.2 0.3 3.2s1.3 1.9 2.3 2.7c0.5 0.4 1 0.7 1.5 1.1 0.5 0.3 1 0.7 1.6 1l-1.8-0.6s-1.1-0.5-1.7-0.9c-1.1-0.7-2.1-1.5-2.9-2.6-0.4-0.6-0.6-1.2-0.8-1.9-0.1-0.7-0.1-1.4 0-2.1s0.3-1.4 0.6-2c0.1-0.3 0.3-0.6 0.5-0.9s0.4-0.6 0.6-0.9l0.7 1.5c-0.8 0.1-1.7 0.1-2.5-0.3-0.8-0.3-1.5-1-1.9-1.7s-0.7-1.5-0.9-2.2c-0.1-0.4-0.1-0.8-0.2-1.1v-0.6s0-0.4 0-0.6l1.4 0.9-0.8 0.4c-0.3 0.1-0.5 0.3-0.8 0.4-0.6 0.2-1.1 0.4-1.7 0.6-0.3 0.1-0.6 0.2-0.8 0.2l-0.9 0.1c-0.3 0.1-0.6 0.1-0.9 0.1s-0.6 0.1-0.9 0c-0.6 0-1.2 0-1.7-0.1-0.6-0.1-1.1-0.2-1.7-0.3-0.8-0.3-1.9-0.7-2.8-1.4z"/><path class="st3" d="m194 115.9s0.2 0 0.5 0.2c0.3 0.1 0.7 0.4 1.1 0.7l0.7 0.7c0.2 0.2 0.4 0.6 0.6 0.9s0.3 0.7 0.4 1.1 0.2 0.8 0.2 1.2 0 0.8-0.1 1.2-0.2 0.7-0.3 1.1c-0.2 0.3-0.3 0.6-0.5 0.9s-0.4 0.5-0.6 0.7c-0.3 0.4-0.8 0.7-1 0.9-0.3 0.2-0.4 0.3-0.4 0.3s0-0.2 0.1-0.5 0.2-0.7 0.4-1.2c0.1-0.2 0.1-0.5 0.2-0.8 0-0.3 0.1-0.5 0.2-0.8 0-0.3 0.1-0.6 0.1-0.8v-0.8c0-0.6-0.1-1.1-0.2-1.7-0.1-0.3-0.1-0.5-0.2-0.8s-0.2-0.5-0.3-0.7c-0.2-0.4-0.4-0.8-0.5-1.1-0.3-0.6-0.4-0.7-0.4-0.7z"/><path class="st3" d="m195.5 122.6 0.3 0.3c0.2 0.2 0.4 0.5 0.7 0.9 0.5 0.8 1.3 2.1 2 3.6 0.7 1.6 1.5 3.4 2 5.5 0.6 2.1 1 4.4 1.1 6.7 0.1 1.2 0.1 2.3 0 3.4 0 1.1-0.2 2.2-0.4 3.3-0.1 0.5-0.2 1.1-0.3 1.6s-0.3 1-0.4 1.5c-0.3 0.9-0.6 1.8-1 2.6-0.3 0.8-0.7 1.5-1.1 2.1s-0.7 1.1-1 1.5c-0.6 0.8-0.9 1.3-0.9 1.3s0.3-0.5 0.7-1.4c0.2-0.4 0.5-1 0.7-1.6s0.6-1.3 0.8-2.1c0.3-0.8 0.5-1.7 0.8-2.6 0.2-0.9 0.4-1.9 0.6-2.9 0.1-1 0.2-2.1 0.3-3.2v-3.3c-0.2-4.4-1.4-8.8-2.5-12-0.6-1.6-1.1-2.9-1.5-3.8l-0.5-1-0.4-0.4z"/><polyline class="st0" points="170.2 73.9 176.7 69.8 178.3 85 175.1 87 169.1 87.4"/><path class="st2" d="m148 206.3s9.3-36.8 9.2-43.1-11.2-62.2-10.6-67.1 17.9-16.1 24.2-20.1 16.2-9.9 20.2-7.6 18.7 11.4 20 15.2 1.5 12 1.5 12"/></svg>
