<?xml version="1.0" encoding="UTF-8"?>
<svg width="426px" height="226.8px" enable-background="new 0 0 426 226.8" version="1.1" viewBox="0 0 426 226.8" xmlns="http://www.w3.org/2000/svg"><rect width="426px" height="226.8px" fill="#fff"/><style type="text/css">.st0{fill:#FFFFFF;} .st1{fill:url(#c);} .st2{fill:none;stroke:#000000;stroke-width:2;stroke-linecap:round;} .st3{fill:none;stroke:#000000;stroke-width:2;} .st4{fill:none;stroke:#000000;} .st5{fill:none;stroke:#000000;stroke-width:1.5;stroke-linecap:round;stroke-linejoin:bevel;} .st6{fill:none;stroke:#000000;stroke-width:1.5;stroke-linecap:round;} .st7{fill:none;stroke:#000000;stroke-linecap:round;} .st8{fill:none;stroke:#000000;stroke-width:1.4;stroke-linecap:round;} .st9{fill:url(#b);} .st10{fill:url(#a);}</style><rect class="st0" width="426" height="225.1"/><linearGradient id="c" x1="155.92" x2="165.59" y1="798.54" y2="775.21" gradientTransform="translate(0 -616)" gradientUnits="userSpaceOnUse"><stop stop-color="#fff" offset="0"/><stop stop-color="#EDEDED" offset="1"/></linearGradient><polygon class="st1" points="180.8 188.7 194.2 151.4 173.2 148.7 150.7 138.3 151.2 140 143.2 154 131.2 176"/><line class="st2" x1="180" x2="199" y1="190.7" y2="137.3"/><path class="st2" d="m193.6 141.3s23-5.6 44.8-33.9"/><path class="st3" d="m237.1 109s10.4-16.3 28.5-22.5c9.2-3.1 6.2-8.1 6.2-8.1"/><path class="st2" d="m134 170.2s21.3-41.2 25.5-48 12.7-40.3 15-47.4 2.8-7.5 7.6-10"/><path class="st3" d="m218 81.2s-2 7.1 1.6 8.9 5.9 1.7 11.3-2.7 8-6.5 8-6.5"/><path d="m198 77.7c0.9 0.4 1.8 0.6 2.7 0.9 0.9 0.2 1.8 0.4 2.8 0.5 0.5 0.1 0.9 0.1 1.4 0.2 0.5 0 0.9 0.1 1.4 0.1s0.9 0 1.4 0h1.4c0.5 0 0.9-0.1 1.4-0.1s0.9-0.1 1.4-0.1l1.4-0.2 1.4-0.3c0.9-0.1 1.8-0.4 2.7-0.7 0.4-0.1 0.9-0.3 1.3-0.4l1.3-0.4 0.3-0.1 0.3 0.1c0.8 0.2 1.6 0.4 2.4 0.5s1.6 0.3 2.5 0.4c1.6 0.2 3.3 0.4 4.9 0.4 3.3 0.1 6.6-0.1 9.6-1.2l0.4-0.1 0.4 0.1c1.1 0.4 2.4 0.7 3.6 1s2.4 0.6 3.6 0.8c2.4 0.4 4.9 0.8 7.3 0.6 1.2-0.1 2.4-0.3 3.4-0.8 0.5-0.3 1.1-0.6 1.6-0.9s1-0.7 1.4-1.1c0.5-0.4 0.9-0.8 1.3-1.3s0.8-1 1.1-1.5c0.6-1.1 1.2-2.2 1.4-3.4-0.2 2.5-1.4 5-3.2 6.9-0.4 0.5-0.9 0.9-1.4 1.3-0.5 0.5-1 0.8-1.6 1.1-1.2 0.7-2.5 1-3.8 1.2s-2.6 0.2-3.9 0.2c-1.3-0.1-2.6-0.2-3.9-0.4s-2.5-0.4-3.8-0.7-2.5-0.6-3.7-0.9h0.7c-1.7 0.6-3.5 1-5.2 1.2-1.8 0.2-3.5 0.2-5.3 0.2-1.7-0.1-3.5-0.3-5.2-0.5-0.9-0.1-1.7-0.3-2.6-0.5s-1.7-0.4-2.5-0.6h0.6l-1.4 0.4c-0.5 0.1-0.9 0.3-1.4 0.4-1 0.2-1.9 0.4-2.9 0.5l-1.4 0.2-1.5 0.1h-1.5s-1 0-1.5 0l-1.5-0.1c-0.5 0-1-0.1-1.4-0.2-0.5-0.1-1-0.2-1.4-0.3-0.5-0.1-0.9-0.2-1.4-0.3-0.9-0.2-1.8-0.6-2.7-0.9-1-0.3-1.9-0.8-2.7-1.3z"/><path d="m204 78.2s0.1 0.5 0 1.3c-0.1 0.4-0.2 0.8-0.4 1.3-0.2 0.4-0.4 0.9-0.7 1.3s-0.6 0.8-1 1.1-0.7 0.6-1.1 0.8c-0.3 0.2-0.6 0.3-0.8 0.4s-0.3 0.1-0.3 0.1 0.1-0.1 0.2-0.3 0.4-0.4 0.6-0.7 0.5-0.6 0.8-0.9 0.6-0.7 0.8-1.1c0.3-0.4 0.5-0.8 0.8-1.1 0.2-0.4 0.4-0.7 0.6-1 0.3-0.7 0.5-1.2 0.5-1.2z"/><path d="m200.4 86c-0.1 3.6-0.1 7.1-0.2 10.6s-0.2 7.1-0.4 10.6l-0.5 10.6-0.6 10.6c-0.1 0.5-0.2 0.9-0.4 1.3-0.1 0.4-0.3 0.8-0.5 1.2-0.4 0.8-0.9 1.5-1.4 2.2-1.1 1.4-2.4 2.5-3.8 3.4s-3 1.6-4.7 2.1c-0.8 0.2-1.6 0.4-2.5 0.6-0.8 0.2-1.7 0.2-2.5 0.3 0.8-0.1 1.7-0.3 2.5-0.5s1.6-0.4 2.4-0.7c1.6-0.6 3.1-1.3 4.4-2.2 1.4-0.9 2.6-2.1 3.6-3.4 0.5-0.7 0.9-1.4 1.3-2.1 0.2-0.4 0.3-0.7 0.5-1.1 0.1-0.4 0.3-0.8 0.3-1.1l0.5-10.6 0.6-10.6c0.2-3.5 0.5-7.1 0.7-10.6 0.1-3.5 0.4-7 0.7-10.6z"/><path class="st4" d="m155.3 140.3s10.8 9.9 35 10.7"/><path class="st2" d="m192.9 61.4s24.7-2.1 29.3-2.4 7 0.8 11.2 1.7 20.5 4.8 20.5 4.8"/><line class="st2" x1="254.3" x2="265.1" y1="66.5" y2="70.9"/><path class="st2" d="m176.2 65.4s1.4-9.1 7.5-9.4"/><path class="st5" d="m181.5 54.1s2.5-5.6 7.3-5 40.9 2.8 40.9 2.8l38.5 12.2"/><path class="st2" d="m269.2 65.1 9.9 3.2s0.2 12.1-14.8 8.9"/><path class="st2" d="m234.5 49.7c3.2-0.7 42.2 14 42.2 14"/><path class="st6" d="m276.5 63.9 11.5 3.4s-0.7 11.3-12 11.1"/><path d="m223.9 96s0.2 0.1 0.5 0.3 0.7 0.6 1.2 1c0.5 0.5 0.9 1 1.4 1.6s0.9 1.3 1.4 2.1c0.4 0.7 0.8 1.5 1.2 2.2s0.6 1.4 0.9 2c0.5 1.2 0.7 2 0.7 2s-0.5-0.7-1.2-1.8c-0.3-0.5-0.7-1.2-1.1-1.8-0.4-0.7-0.8-1.4-1.3-2.1-0.4-0.7-0.9-1.4-1.3-2.1s-0.8-1.3-1.1-1.8c-0.8-1-1.3-1.6-1.3-1.6z"/><path d="m241.4 83.2s0.5 0.4 1 1.1c0.6 0.7 1.3 1.7 1.9 2.7s1.2 2.1 1.5 2.9c0.4 0.8 0.5 1.4 0.5 1.4s-0.5-0.4-1-1.1c-0.6-0.7-1.3-1.7-1.9-2.7s-1.2-2.1-1.5-2.9-0.5-1.4-0.5-1.4z"/><path d="m224.5 58.9s0.2 0.5 0.3 1.3c0.2 0.8 0.3 1.8 0.5 2.9 0.2 1 0.3 2.1 0.4 2.8 0.1 0.4 0.1 0.7 0.2 0.9 0 0.2 0.1 0.4 0.1 0.4s-0.1-0.1-0.2-0.3c-0.2-0.2-0.3-0.5-0.5-0.8-0.2-0.4-0.4-0.8-0.5-1.3-0.2-0.5-0.3-1-0.4-1.6-0.2-1.1-0.1-2.2 0-3-0.1-0.8 0.1-1.3 0.1-1.3z"/><path class="st7" d="m227.6 60.4s-0.4 5.1-0.6 8.1"/><path d="m254.1 67.8s0.3 0.8 0.9 2 1.5 2.7 2.8 3.7c0.3 0.3 0.7 0.5 1 0.7 0.4 0.2 0.7 0.3 1 0.3 0.6 0 1.2-0.4 1.8-0.8 0.5-0.4 1-0.8 1.3-1s0.5-0.3 0.5-0.3-0.1 0.2-0.4 0.5c-0.2 0.3-0.6 0.8-1 1.3-0.2 0.3-0.5 0.5-0.8 0.8s-0.8 0.5-1.3 0.5c-0.6 0-1-0.2-1.4-0.4s-0.8-0.5-1.2-0.8c-1.5-1.2-2.3-3-2.7-4.3-0.5-1.2-0.5-2.2-0.5-2.2z"/><path d="m266.4 66.5s0.7 0.6 1.6 1.5c0.5 0.4 1.1 1 1.7 1.5s1.3 1 2.1 1.4c0.4 0.2 0.7 0.3 1.1 0.3s0.6 0 1-0.2c0.7-0.4 1.4-0.8 2-1.1 1.2-0.6 2.1-0.9 2.1-0.9s-0.7 0.6-1.7 1.4c-0.5 0.4-1.2 0.9-1.9 1.3-0.4 0.3-1 0.5-1.5 0.4-0.5 0-1-0.2-1.5-0.4-0.9-0.4-1.6-1-2.2-1.6s-1.1-1.2-1.5-1.8c-0.9-0.9-1.3-1.8-1.3-1.8z"/><path class="st7" d="m281.4 69.9c1.6 0.2 3-2.4 4.3-3.3"/><path d="m193.6 81.4s0.5 0.2 1.3 0.4c0.7 0.3 1.7 0.6 2.7 1s2 0.8 2.7 1c0.4 0.2 0.7 0.3 0.9 0.4s0.3 0.2 0.3 0.2-0.6 0.1-1.4 0-1.9-0.3-2.9-0.7-2-0.9-2.6-1.4c-0.7-0.4-1-0.9-1-0.9z"/><path class="st8" d="m205 48.5c13.2-0.5 33.3 1.7 33.3 1.7"/><linearGradient id="b" x1="31.272" x2="41.029" y1="813.53" y2="789.98" gradientTransform="translate(0 -616)" gradientUnits="userSpaceOnUse"><stop stop-color="#fff" offset="0"/><stop stop-color="#EDEDED" offset="1"/></linearGradient><polygon class="st9" points="58.9 202.8 69.5 167.1 51 162.2 28.5 151.8 30.3 149.7 19.4 166.6 4.5 190.2"/><path class="st7" d="m31.2 153s16.2 12.2 37.7 12.9"/><path class="st2" d="m7.3 184.8s22.6-33.6 24.5-37.9-8.5-47.6-9.4-52.4 2.3-6 3.6-8.8"/><path class="st2" d="m26.1 85.7s-2.7-10.3 6.2-14.8"/><path class="st2" d="m32.3 72.1s-1.3-10.8 8.7-12.6"/><path class="st2" d="m43.7 59.2s34.1-11.6 40.7-12.7 9.8 4.3 12.7 10.7"/><path class="st2" d="m47.4 62.4s14.2-5.5 27.1-5.3 12.7 1.1 14.1 6.5 0.9 4.7 0.9 4.7"/><path class="st2" d="m42.4 68.9s12.9-4.6 25.8-4.4 12.7 1.1 14.1 6.5 3.6 18.7 3.6 18.7c0.1 0.8-1.3 4-4 5.1"/><path class="st2" d="m41.5 77.2s19.2-1.9 24.7-1.8 6.9 3 10.6 9.5 4.1 13.6-0.2 15c-4.2 1.5-9.8 3.3-9.8 3.3"/><path class="st2" d="m60.6 107.6c1.2-0.8 7.2-4.3 7.2-4.3"/><path class="st2" d="m46.4 94.1s10.7 2.7 14.3-1.4"/><path class="st2" d="m58.2 92.2s3.1 2.6 7.7 3.5"/><path class="st2" d="m61.6 94.3s-5 4.4-5.4 7.1c-0.4 3 1.3 5.4 2.9 6.5"/><path d="m54.3 99.9 1.1 2.2c0.7 1.4 1.7 3.4 2.8 5.8s2.5 5.2 3.8 8.3c1.4 3 2.9 6.3 4.3 9.5 0.7 1.6 1.5 3.2 2.2 4.8 0.4 0.8 0.8 1.6 1.1 2.3 0.2 0.4 0.4 0.7 0.6 1.1s0.4 0.9 0.5 1.3c0.4 1.7 0.2 3.4 0 4.9-0.3 1.5-0.7 2.9-1.2 4.2-1.1 2.5-2.5 4.3-3.6 5.4-0.6 0.5-1.1 0.9-1.4 1.1-0.4 0.2-0.5 0.3-0.5 0.3s0.2-0.1 0.5-0.4 0.8-0.7 1.3-1.2c1.1-1.1 2.4-3 3.3-5.5 0.5-1.2 0.8-2.6 1-4.1s0.3-3.1-0.1-4.6c-0.1-0.4-0.2-0.7-0.4-1.1s-0.4-0.7-0.6-1.1c-0.4-0.8-0.8-1.6-1.2-2.3-0.8-1.6-1.5-3.2-2.3-4.8-1.5-3.2-2.9-6.5-4.3-9.6s-2.5-5.9-3.6-8.4l-2.4-6c-0.6-1.3-0.9-2.1-0.9-2.1z"/><path class="st7" d="m68.8 129.2s0.3 13.2-5.4 19"/><path class="st7" d="m58.2 105.4"/><line class="st2" x1="103.5" x2="96.9" y1="65.7" y2="59.7"/><path class="st2" d="m97.4 60s-9.5 0.1-7.6 13.2c1.7 11.4 5.5 10.9 5.5 10.9"/><path class="st2" d="m93.9 81.8s-0.6 5.9-6.3 12.8"/><path class="st2" d="m104.1 64.8s5.3 4.1 6.9 5.6c1.2 1.2-0.2 11.5-2.1 14.7s-7.9 11.8-7.4 23.5-21.3 30.1-25.4 35.4l-15 53.9"/><path class="st7" d="m98.9 61.6s1.2 5.4 0.4 10.3c-0.5 3.2 0.6 4.3 2.1 4.5s3-4.8 1.3-11.3"/><path d="m52.7 95.3s0.4 0.6 0.8 1.7c0.2 0.5 0.4 1.2 0.5 1.9s0.2 1.5 0.2 2.2c0 0.4 0 0.8-0.1 1.2 0 0.2-0.1 0.4-0.1 0.6-0.1 0.2-0.1 0.4-0.2 0.5-0.1 0.4-0.4 0.7-0.5 0.9-0.2 0.3-0.5 0.5-0.7 0.7-0.3 0.2-0.5 0.3-0.7 0.4s-0.4 0.1-0.6 0.1c-0.3 0-0.5 0.1-0.5 0.1s0.2-0.1 0.5-0.2c0.1-0.1 0.3-0.1 0.5-0.3 0.2-0.1 0.4-0.3 0.5-0.5s0.3-0.4 0.5-0.7c0.1-0.3 0.3-0.5 0.3-0.8 0-0.2 0.1-0.3 0.1-0.5s0-0.3 0.1-0.5c0.1-0.3 0.1-0.7 0.1-1s0-0.7 0-1.1c0-0.3 0-0.7-0.1-1-0.1-0.7-0.1-1.3-0.2-1.9-0.3-1.1-0.4-1.8-0.4-1.8z"/><linearGradient id="a" x1="289.83" x2="296.71" y1="-568.2" y2="-557.98" gradientTransform="matrix(1 0 0 -1 0 -387.89)" gradientUnits="userSpaceOnUse"><stop stop-color="#fff" offset="0"/><stop stop-color="#EDEDED" offset="1"/></linearGradient><polygon class="st10" points="309.4 196.1 325.2 174.1 330.1 168.5 321.1 165.4 305.9 156.8 297.1 147.6 292.4 142.4 265.4 168.6"/><path class="st2" d="m274.2 162.9 32.8-36.8s21.3-37.4 25.8-43.5 21.6-29.5 23.1-30.7 26.4-0.6 28-0.6c1.5 0 12.2 6.1 13.7 6.1"/><path class="st2" d="m338.6 82 17-12.2c1.2-0.8 3.3-1.5 4.7-1.5l15.8 0.2c1.4 0 3.5 0.7 4.7 1.6l2.5 1.8"/><line class="st2" x1="382.6" x2="392" y1="71.5" y2="74.4"/><path d="m347.4 90c1.3-0.5 2.4-1.2 3.6-2 0.3-0.2 0.6-0.4 0.8-0.6s0.5-0.4 0.8-0.6c0.5-0.4 1-0.9 1.5-1.3 0.3-0.2 0.5-0.5 0.7-0.7s0.5-0.5 0.7-0.7c0.5-0.5 0.9-1 1.3-1.5s0.8-1.1 1.2-1.6c0.2-0.3 0.4-0.6 0.5-0.8l0.5-0.8 0.5-0.7 0.8 0.4c0.2 0.1 0.5 0.2 0.7 0.3 0.3 0.1 0.5 0.2 0.8 0.3 0.5 0.2 1.1 0.3 1.6 0.4 1.1 0.2 2.2 0.2 3.3 0 2.2-0.3 4.3-1.3 6.2-2.6l0.6-0.4 0.6 0.4c0.3 0.2 0.7 0.5 1.1 0.7s0.8 0.4 1.2 0.6c0.8 0.4 1.7 0.7 2.5 1 0.9 0.3 1.7 0.5 2.6 0.6 0.4 0.1 0.9 0.1 1.3 0.1s0.9 0 1.3-0.1 0.9-0.1 1.3-0.2 0.9-0.3 1.3-0.4l1.2-0.6c0.4-0.2 0.8-0.5 1.2-0.7 0.7-0.5 1.4-1.2 2.1-1.9 0.3-0.3 0.6-0.7 0.9-1.1l0.9-1.1-0.6 1.3c-0.2 0.4-0.5 0.8-0.8 1.2-0.5 0.8-1.2 1.5-1.9 2.2-0.4 0.3-0.7 0.7-1.1 0.9-0.4 0.3-0.8 0.5-1.3 0.8-0.4 0.2-0.9 0.4-1.4 0.6s-1 0.3-1.5 0.4c-2 0.4-4.1 0.3-6-0.3-1-0.3-1.9-0.6-2.8-1-0.5-0.2-0.9-0.4-1.3-0.7-0.4-0.2-0.9-0.5-1.3-0.8h1.1c-1 0.8-2.1 1.4-3.3 1.9s-2.5 0.9-3.8 1c-1.3 0.2-2.6 0.1-3.9-0.1-0.6-0.1-1.3-0.3-1.9-0.5-0.3-0.1-0.6-0.2-0.9-0.4-0.3-0.1-0.6-0.3-0.9-0.5l1.2-0.3c-0.4 0.6-0.8 1.2-1.2 1.7-0.5 0.5-0.9 1.1-1.4 1.6s-1 1-1.5 1.5c-0.3 0.2-0.5 0.5-0.8 0.7s-0.5 0.5-0.8 0.7c-0.6 0.4-1.1 0.8-1.7 1.2-0.3 0.2-0.6 0.4-0.9 0.5-0.3 0.2-0.6 0.3-0.9 0.5-0.6 0.3-1.3 0.6-1.9 0.8-0.7 0.3-1.4 0.5-2.1 0.7z"/><path class="st2" d="m366.6 48.3 4.4-3.2c1.3-0.9 3.5-1.4 5.1-1.1l23.3 4.4c1.5 0.3 3.4 1.6 4.2 3l4.9 8.2"/><line class="st2" x1="396.8" x2="407.3" y1="58.4" y2="61.9"/><line class="st2" x1="406.9" x2="416.7" y1="56.9" y2="65"/><path d="m370.6 64.5c0.6 0.5 1.4 0.7 2.1 0.9s1.4 0.4 2.2 0.5c0.4 0.1 0.7 0.1 1.1 0.1s0.7 0.1 1.1 0.1 0.7 0 1.1 0h1.1c0.4 0 0.7 0 1.1-0.1l1.1-0.1c0.7-0.1 1.5-0.1 2.2-0.2s1.5-0.2 2.2-0.3l2.2-0.4 0.3-0.1 0.3 0.2c0.4 0.2 0.8 0.4 1.2 0.5 0.4 0.2 0.8 0.3 1.2 0.5 0.8 0.3 1.7 0.5 2.6 0.7s1.7 0.3 2.6 0.4 1.8 0.1 2.6 0c1.7-0.2 3.5-0.7 4.9-1.7 0.4-0.2 0.7-0.5 1.1-0.8 0.3-0.3 0.7-0.6 1-0.9s0.6-0.7 0.9-1 0.6-0.7 0.8-1.1c-0.2 0.4-0.4 0.9-0.6 1.3s-0.5 0.8-0.7 1.2c-0.3 0.4-0.6 0.8-0.9 1.1l-1 1-1.2 0.9c-0.4 0.2-0.8 0.5-1.3 0.7-0.4 0.2-0.9 0.4-1.4 0.5s-1 0.3-1.4 0.3c-0.5 0.1-1 0.2-1.5 0.2s-1 0-1.5 0c-1 0-1.9-0.1-2.9-0.3s-1.9-0.4-2.8-0.7c-0.5-0.2-0.9-0.3-1.4-0.5s-0.9-0.4-1.4-0.6l0.6 0.1-2.3 0.3c-0.4 0.1-0.8 0.1-1.2 0.1l-1.2 0.1c-0.8 0.1-1.6 0.1-2.3 0.1-0.8 0-1.6 0-2.4-0.1s-1.6-0.1-2.3-0.3c-0.4-0.1-0.8-0.1-1.2-0.2s-0.8-0.2-1.1-0.3c-0.8-0.2-1.5-0.5-2.2-0.9-0.3-0.1-0.9-0.6-1.4-1.2z"/><path d="m374.1 65.1s0 0.3-0.2 0.7-0.5 0.9-1 1.2c-0.4 0.4-0.9 0.6-1.4 0.7-0.4 0.1-0.7 0.1-0.7 0.1s0.2-0.3 0.4-0.6c0.3-0.3 0.6-0.7 1-1s0.8-0.6 1.2-0.8 0.7-0.3 0.7-0.3z"/><path d="m402.6 68.8s1 0.1 2.5 0.1h1.2 1.3c0.4 0 0.9-0.1 1.3-0.1 0.4-0.1 0.9-0.1 1.3-0.2s0.9-0.2 1.3-0.3c0.2-0.1 0.4-0.1 0.6-0.2s0.4-0.1 0.6-0.2c0.4-0.1 0.8-0.3 1.1-0.5 0.2-0.1 0.4-0.2 0.5-0.2 0.2-0.1 0.3-0.2 0.5-0.3 0.3-0.2 0.6-0.3 0.9-0.5 0.2-0.2 0.5-0.3 0.6-0.4 0.4-0.2 0.6-0.4 0.6-0.4s-0.1 0.2-0.3 0.6c-0.1 0.2-0.2 0.4-0.4 0.7s-0.4 0.5-0.7 0.8c-0.1 0.1-0.3 0.3-0.4 0.5-0.2 0.1-0.3 0.3-0.5 0.4-0.4 0.3-0.7 0.6-1.2 0.8-0.4 0.2-0.9 0.5-1.4 0.6-0.5 0.2-1 0.3-1.5 0.4s-1.1 0.1-1.6 0.2c-0.5 0-1 0-1.5-0.1-1-0.1-1.8-0.4-2.6-0.6-1.4-0.4-2.2-1.1-2.2-1.1z"/><path d="m375.8 82.1s0.1 0.1 0.2 0.3 0.2 0.5 0.2 0.9 0 0.8-0.1 1.2-0.3 0.9-0.5 1.3-0.4 0.8-0.7 1.2c-0.2 0.4-0.5 0.7-0.8 0.9-0.5 0.5-0.9 0.8-0.9 0.8s0.1-0.5 0.4-1.1 0.7-1.4 1-2.2c0.2-0.4 0.4-0.8 0.5-1.2 0.2-0.4 0.3-0.7 0.4-1 0.3-0.7 0.3-1.1 0.3-1.1z"/><path class="st2" d="m373 83.5s3 26.2 3.6 31 7.6 7.6 9.4 7.9 9.9 0.4 9.9 0.4 20.1-12.6 26 0.5"/><path class="st2" d="m310.9 194.2 27.1-36.2s26.1-2.7 36.6-10.4c12.8-9.3 12.8-6.6 22.6-7.1 4.7-0.2 10.9-0.1 14.9-5.9s3.3-5.2 3.3-5.2"/><line class="st2" x1="421.9" x2="413.1" y1="123.3" y2="130"/><path d="m359 85.9c0 0.9 0 1.9-0.2 2.8-0.1 0.9-0.3 1.9-0.6 2.8-0.1 0.5-0.3 0.9-0.4 1.4l-0.5 1.3-0.6 1.3c-0.2 0.4-0.5 0.8-0.7 1.3-0.2 0.4-0.5 0.8-0.8 1.2s-0.5 0.8-0.8 1.2l-0.9 1.1c-0.3 0.4-0.7 0.7-1 1-0.4 0.3-0.7 0.7-1.1 1l-1.1 0.9c-0.4 0.3-0.8 0.6-1.2 0.8l-1.2 0.8 0.4-0.7c0 2.2-0.1 4.4-0.3 6.5-0.2 2.2-0.4 4.3-0.7 6.5-0.1 1.1-0.3 2.2-0.5 3.2-0.2 1.1-0.4 2.1-0.6 3.2-0.4 2.1-1 4.3-1.6 6.3-0.3 1-0.7 2.1-1 3.1-0.4 1-0.8 2.1-1.2 3.1s-0.9 2-1.4 3l-0.8 1.4-0.9 1.4c-0.6 0.9-1.2 1.8-1.9 2.7-0.3 0.4-0.7 0.8-1.1 1.2s-0.8 0.8-1.2 1.1c-0.8 0.7-1.7 1.4-2.6 2-0.5 0.3-0.9 0.5-1.4 0.8l-1.5 0.6 1.4-0.8c0.4-0.3 0.9-0.6 1.3-0.9 0.8-0.7 1.6-1.4 2.4-2.2 0.4-0.4 0.7-0.8 1-1.2s0.7-0.8 0.9-1.3c0.6-0.9 1.2-1.8 1.7-2.7l1.4-2.8c0.4-1 0.9-1.9 1.2-2.9 0.7-2 1.4-4 1.9-6.1 0.3-1 0.5-2.1 0.8-3.1 0.2-1 0.5-2.1 0.7-3.1 0.4-2.1 0.8-4.2 1.1-6.3s0.6-4.2 0.8-6.4c0.2-2.1 0.4-4.3 0.5-6.4v-0.5l0.4-0.3 1.2-0.7c0.4-0.2 0.8-0.4 1.2-0.7l1.1-0.8c0.4-0.2 0.7-0.6 1-0.9s0.7-0.6 1-0.9l0.9-1c0.3-0.3 0.6-0.7 0.9-1.1s0.6-0.7 0.8-1.1 0.5-0.8 0.7-1.2l0.7-1.2 0.6-1.2c0.2-0.4 0.4-0.9 0.5-1.3 0.3-0.9 0.6-1.8 0.8-2.7 0.2-0.6 0.4-1.5 0.5-2.5z"/><path d="m396 122.1s0 0.7 0.1 1.6c0 0.5 0.1 1 0.2 1.6s0.2 1.2 0.3 1.8c0.1 0.3 0.1 0.6 0.2 0.9s0.2 0.6 0.3 0.9c0.2 0.6 0.4 1.1 0.6 1.5l0.3 0.6c0.1 0.2 0.2 0.3 0.2 0.4 0.1 0.3 0.2 0.4 0.2 0.4s-0.1-0.1-0.4-0.3l-0.9-0.9c-0.2-0.2-0.3-0.4-0.5-0.7-0.2-0.2-0.3-0.5-0.5-0.8-0.3-0.6-0.5-1.2-0.7-1.9-0.1-0.7-0.2-1.3-0.2-2 0-0.6 0-1.2 0.1-1.7 0.4-0.7 0.7-1.4 0.7-1.4z"/><path class="st4" d="m294.3 143.5s5.6 12.2 31.6 24.3"/><path d="m389 77.1s-0.5 0.1-1.3 0.1c-0.4 0-0.9-0.1-1.3-0.2-0.5-0.1-1-0.3-1.5-0.6-0.2-0.1-0.5-0.3-0.7-0.4-0.2-0.2-0.4-0.3-0.6-0.5-0.3-0.4-0.6-0.8-0.7-1.2-0.1-0.2-0.1-0.4-0.1-0.6s0-0.3 0-0.4c0-0.2 0.1-0.4 0.1-0.4s0 0.1 0.1 0.3 0.2 0.5 0.4 0.8 0.5 0.6 0.8 0.8c0.2 0.1 0.4 0.3 0.5 0.4 0.2 0.1 0.4 0.2 0.6 0.4 0.4 0.2 0.9 0.4 1.3 0.6s0.8 0.3 1.2 0.5c0.7 0.2 1.2 0.4 1.2 0.4z"/><path d="m396.1 59.3s0.1 0.2 0.2 0.5 0.3 0.7 0.7 1.1c0.3 0.4 0.8 0.8 1.3 1.3 0.5 0.4 1.1 0.8 1.8 1.2 0.3 0.2 0.6 0.4 1 0.5 0.3 0.2 0.6 0.3 0.9 0.5 0.3 0.1 0.6 0.3 0.9 0.4 0.1 0 0.4 0 0.6-0.1 0.5-0.2 0.8-0.6 1.1-0.8l0.4-0.4s-0.1 0.2-0.2 0.5c-0.2 0.3-0.4 0.7-0.9 1.1-0.3 0.2-0.5 0.4-1.1 0.4-0.4-0.1-0.7-0.2-1.1-0.3-0.7-0.2-1.4-0.6-2.1-1-1.3-0.8-2.6-1.9-3.1-3-0.2-0.3-0.2-0.5-0.3-0.8-0.1-0.2-0.1-0.5-0.1-0.6v-0.5z"/><path d="m410.9 67.6s-0.4 0-0.9-0.2-1.1-0.6-1.7-1.1c-0.5-0.5-0.9-1.1-1.1-1.6s-0.3-0.9-0.3-0.9 0.3 0.2 0.7 0.5 0.9 0.8 1.4 1.2l1.3 1.3c0.4 0.6 0.6 0.8 0.6 0.8z"/></svg>
