<?xml version="1.0" encoding="UTF-8"?>
<svg width="226.77px" height="226.77px" enable-background="new 0 0 226.77 226.77" version="1.1" viewBox="0 0 226.77 226.77" xmlns="http://www.w3.org/2000/svg"><rect width="226.77px" height="226.77px" fill="#fff"/><path d="m171.64 122.19s-0.791-1.316-1.978-3.291c-0.302-0.487-0.629-1.014-0.986-1.556-0.356-0.518-0.771-1.141-1.199-1.503-0.298-0.234-1.103-0.143-1.74 0.037-0.673 0.189-1.334 0.503-1.942 0.885-0.611 0.381-1.165 0.85-1.616 1.385-0.226 0.267-0.435 0.544-0.607 0.84l-0.124 0.223c-8e-3 -0.017-0.059 0.143-0.086 0.206-0.026 0.08-0.01 0.102-0.028 0.155-6e-3 0.056 0 0.135-3e-3 0.202 0.048 0.59 0.3 1.248 0.552 1.837 0.268 0.598 0.521 1.163 0.755 1.685 0.482 1.046 0.857 1.935 1.124 2.553 0.258 0.623 0.394 0.984 0.394 0.984s-0.204-0.327-0.56-0.899c-0.35-0.575-0.849-1.396-1.448-2.381-0.289-0.5-0.616-1.034-0.92-1.633-0.295-0.603-0.645-1.232-0.756-2.079-4e-3 -0.113-0.015-0.215-8e-3 -0.339 0.015-0.125 0.035-0.288 0.065-0.382 0.041-0.107 0.03-0.129 0.115-0.306l0.133-0.268c0.186-0.353 0.409-0.693 0.664-1.008 0.513-0.629 1.138-1.171 1.822-1.613 0.687-0.44 1.439-0.769 2.223-0.981 0.393-0.102 0.798-0.176 1.22-0.18 0.212-1e-3 0.429 0.015 0.654 0.064 0.243 0.054 0.484 0.153 0.677 0.321 0.645 0.606 0.937 1.213 1.287 1.801 0.331 0.584 0.609 1.148 0.855 1.674 0.972 2.103 1.461 3.567 1.461 3.567z"/><linearGradient id="a" x1="44.753" x2="72.419" y1="66.626" y2="71.792" gradientUnits="userSpaceOnUse"><stop stop-color="#fff" offset="0"/><stop stop-color="#EDEDED" offset="1"/></linearGradient><polygon points="38.84 87.419 73.326 95.649 77.525 79.601 82.34 69.167 91.822 58.718 85.047 55.987 73.707 51.416 51.333 44.167" fill="url(#a)"/><path d="m154.2 195.58s0.13-0.199 0.356-0.546c0.227-0.342 0.509-0.861 0.788-1.482 0.265-0.619 0.511-1.39 0.404-2.117-0.062-0.383-0.199-0.636-0.473-1.027-0.256-0.377-0.527-0.754-0.801-1.123-1.081-1.477-2.349-2.83-3.598-3.274-0.613-0.229-1.191-0.25-1.589-0.183-0.4 0.062-0.631 0.137-0.631 0.137s0.05-0.032 0.145-0.092c0.094-0.062 0.237-0.148 0.435-0.23 0.389-0.154 1.027-0.327 1.787-0.179 0.758 0.132 1.569 0.555 2.29 1.137 0.731 0.579 1.377 1.32 1.961 2.089 0.29 0.388 0.552 0.788 0.81 1.184 0.112 0.181 0.282 0.417 0.373 0.681 0.095 0.257 0.16 0.523 0.175 0.784 0.062 1.056-0.379 1.886-0.775 2.494-0.403 0.621-0.851 1.036-1.148 1.329-0.308 0.285-0.509 0.418-0.509 0.418z"/><path d="m147.55 193.13s-0.516-0.498-1.184-1.305c-0.339-0.399-0.721-0.869-1.128-1.368-0.414-0.493-0.835-1.03-1.293-1.525-0.216-0.26-0.452-0.496-0.677-0.736-0.245-0.212-0.452-0.469-0.697-0.65-0.232-0.206-0.465-0.377-0.695-0.533-0.229-0.155-0.462-0.261-0.678-0.369-0.223-0.049-0.433-0.177-0.628-0.168-0.192-5e-3 -0.379-0.068-0.519-0.025-0.304 0.036-0.478 0.057-0.478 0.057s0.142-0.093 0.429-0.25c0.139-0.098 0.336-0.111 0.563-0.165 0.232-0.074 0.487-0.014 0.78-4e-3 0.274 0.057 0.589 0.125 0.879 0.264 0.295 0.133 0.604 0.284 0.879 0.492 0.584 0.382 1.103 0.895 1.588 1.423 1.922 2.165 2.859 4.862 2.859 4.862z"/><path d="m39.667 88.5s42.876 8.597 45.199 11.713 33.49 67.83 33.49 67.83l9.411 14.776" fill="none" stroke="#000" stroke-linecap="round" stroke-width="2"/><polyline points="113.76 147.44 124.41 169.92 137.53 187.4" fill="none" stroke="#000" stroke-linecap="round" stroke-width="2"/><path d="m138.38 187.04 4.892 9.115s2.396 0.672 5.311-1.731" fill="none" stroke="#000" stroke-linecap="round" stroke-width="2"/><path d="m126.96 180.24 4.98 8.969s1.579 0.748 4.008-0.71" fill="none" stroke="#000" stroke-linecap="round" stroke-width="2"/><path d="m62.561 48.006 39.673 15.994s7.348 0.156 14.807 0.912c7.459 0.755 25.606 8.978 27.626 13.088 3.368 6.856 8.272 13.317 16.079 23.899 0 0 5.076 9.102 7.023 12.247" fill="none" stroke="#000" stroke-linecap="round" stroke-width="2"/><line x1="167.62" x2="173.78" y1="115.39" y2="124.73" fill="none" stroke="#000" stroke-linecap="round" stroke-width="2"/><path d="m134.62 97.038s1.473 1.855 3.57 4.677c1.047 1.408 2.269 3.051 3.579 4.811 1.322 1.745 2.685 3.639 4.124 5.468 0.692 0.937 1.403 1.857 2.122 2.747 0.708 0.9 1.406 1.781 2.1 2.62 0.68 0.853 1.378 1.633 2.019 2.4 0.636 0.774 1.301 1.433 1.876 2.091 0.575 0.662 1.164 1.191 1.659 1.703 0.251 0.253 0.486 0.489 0.703 0.708 0.232 0.201 0.444 0.386 0.637 0.553 0.772 0.671 1.213 1.078 1.213 1.078s-0.525-0.259-1.444-0.753c-0.229-0.126-0.483-0.266-0.759-0.418-0.258-0.178-0.537-0.37-0.835-0.575-0.589-0.42-1.294-0.861-1.957-1.455-0.675-0.579-1.458-1.168-2.17-1.897-0.728-0.713-1.537-1.437-2.267-2.274-0.747-0.823-1.553-1.648-2.274-2.563-0.75-0.893-1.495-1.813-2.213-2.753-0.719-0.94-1.402-1.903-2.078-2.85-0.692-0.935-1.283-1.916-1.903-2.833-1.198-1.86-2.25-3.637-3.096-5.192-1.709-3.096-2.606-5.293-2.606-5.293z"/><path d="m159.64 126.73s0.962 0.122 2.406 0.305c0.349 0.033 0.726 0.069 1.126 0.108 0.394 0.046 0.812 0.045 1.235 0.082 0.424 0.04 0.862-2e-3 1.301 0.024 0.436-0.041 0.885-4e-3 1.32-0.071 0.439-0.039 0.878-0.073 1.299-0.162 0.211-0.041 0.425-0.068 0.636-0.099 0.205-0.053 0.408-0.105 0.607-0.156 0.406-0.091 0.788-0.213 1.151-0.344 0.371-0.116 0.72-0.24 1.029-0.392 0.309-0.15 0.626-0.25 0.883-0.379 0.247-0.143 0.48-0.255 0.671-0.352 0.386-0.19 0.627-0.292 0.627-0.292s-0.118 0.218-0.36 0.587c-0.123 0.183-0.272 0.411-0.463 0.657-0.193 0.244-0.45 0.479-0.732 0.742-0.143 0.132-0.292 0.269-0.446 0.411-0.174 0.114-0.355 0.232-0.54 0.354-0.372 0.248-0.773 0.509-1.236 0.671-0.449 0.199-0.921 0.394-1.428 0.492-0.497 0.151-1.017 0.2-1.536 0.256-0.519 0.063-1.038 0.02-1.546 0.015-0.504-0.052-1-0.116-1.467-0.218-0.939-0.191-1.775-0.505-2.454-0.834-1.37-0.655-2.083-1.405-2.083-1.405z"/><path d="m137.1 102.66s0.25 0.267 0.34 0.783c0.046 0.253 0.061 0.565-4e-3 0.884-0.047 0.326-0.188 0.65-0.349 0.956-0.187 0.292-0.399 0.564-0.641 0.77-0.238 0.21-0.486 0.369-0.716 0.471-0.451 0.217-0.801 0.241-0.801 0.241s0.171-0.311 0.434-0.682c0.132-0.188 0.277-0.399 0.428-0.618 0.143-0.225 0.301-0.448 0.433-0.686 0.278-0.462 0.495-0.954 0.645-1.37 0.146-0.412 0.231-0.749 0.231-0.749z"/><path d="m134.39 104.61c0.834 1.019 1.536 2.15 2.138 3.336 0.591 1.191 1.089 2.445 1.411 3.761 0.327 1.312 0.508 2.686 0.433 4.075-0.024 0.694-0.129 1.388-0.273 2.075-0.141 0.69-0.383 1.356-0.653 2.01l-0.06-0.839c0.196 0.308 0.34 0.562 0.484 0.845 0.148 0.276 0.272 0.558 0.402 0.839 0.243 0.567 0.461 1.145 0.64 1.735 0.187 0.588 0.31 1.193 0.428 1.798 0.097 0.609 0.18 1.221 0.212 1.839 0.032 0.308 0.029 0.617 0.029 0.926-7e-3 0.309 0.017 0.619-0.017 0.927l-0.071 0.925c-0.022 0.309-0.097 0.61-0.143 0.915-0.085 0.614-0.265 1.205-0.419 1.801-0.068 0.302-0.19 0.585-0.289 0.875l-0.312 0.867-1.618-1.011c0.195-0.206 0.345-0.342 0.522-0.5 0.171-0.151 0.345-0.295 0.524-0.433 0.355-0.279 0.732-0.526 1.119-0.755 0.777-0.455 1.61-0.824 2.487-1.07 0.876-0.244 1.794-0.374 2.708-0.33 0.913 0.037 1.81 0.227 2.654 0.524l-0.917 0.487c0.109-0.313 0.215-0.532 0.34-0.78 0.123-0.24 0.258-0.47 0.403-0.693 0.293-0.443 0.62-0.86 0.978-1.244 0.717-0.768 1.553-1.416 2.471-1.891 1.834-0.967 3.898-1.278 5.863-1.159-1.955 0.258-3.856 0.843-5.408 1.916-0.768 0.541-1.458 1.175-2.016 1.907-0.279 0.365-0.526 0.752-0.738 1.153-0.103 0.202-0.203 0.404-0.291 0.609-0.085 0.196-0.171 0.431-0.212 0.588-0.099 0.377-0.485 0.601-0.861 0.502l-6e-3 -1e-3 -0.05-0.014c-1.468-0.408-2.994-0.352-4.406 0.115-0.706 0.233-1.384 0.569-2.016 0.979-0.317 0.204-0.618 0.432-0.913 0.665-0.147 0.117-0.29 0.239-0.427 0.364-0.131 0.119-0.283 0.266-0.37 0.362-0.361 0.395-0.974 0.424-1.369 0.063-0.294-0.268-0.385-0.675-0.265-1.028l0.016-0.045 0.266-0.778c0.084-0.26 0.192-0.514 0.246-0.782 0.127-0.531 0.282-1.056 0.346-1.597 0.101-0.536 0.147-1.077 0.194-1.619 0.037-0.27 0.016-0.543 0.027-0.815 5e-3 -0.272 0.013-0.544-0.013-0.816-0.019-0.545-0.085-1.085-0.162-1.625-0.092-0.538-0.208-1.07-0.344-1.599s-0.306-1.048-0.497-1.559c-0.104-0.251-0.202-0.506-0.318-0.748-0.107-0.241-0.243-0.497-0.349-0.685l-0.033-0.058c-0.139-0.248-0.139-0.541-0.028-0.781 0.513-1.086 0.884-2.253 1.023-3.477 0.143-1.221 0.111-2.48-0.064-3.733-0.189-1.25-0.486-2.504-0.909-3.724-0.415-1.225-0.912-2.433-1.527-3.594z"/><path d="m115.88 126.56s8.762 23.991 11.574 24.461 18.283-6.35 28.54-12.352" fill="none" stroke="#000" stroke-linecap="round" stroke-width="2"/><line x1="155.25" x2="164.89" y1="137.67" y2="133.74" fill="none" stroke="#000" stroke-linecap="round" stroke-width="2"/><path d="m160.57 127.1s0.675-0.169 1.63 0.061c0.479 0.104 1.023 0.307 1.557 0.636 0.53 0.33 1.058 0.779 1.464 1.341 0.208 0.277 0.392 0.572 0.524 0.892 0.164 0.301 0.239 0.636 0.318 0.949 0.095 0.31 0.084 0.629 0.102 0.918 0.025 0.29-0.032 0.564-0.079 0.81-0.047 0.245-0.079 0.467-0.168 0.654-0.071 0.188-0.155 0.347-0.218 0.475-0.134 0.256-0.228 0.39-0.228 0.39s-0.073-0.161-0.169-0.423c-0.045-0.13-0.105-0.286-0.15-0.458-0.041-0.173-0.152-0.358-0.212-0.556-0.076-0.197-0.145-0.407-0.255-0.61-0.105-0.204-0.168-0.427-0.302-0.628-0.118-0.206-0.214-0.422-0.357-0.621-0.123-0.207-0.255-0.412-0.413-0.604-0.125-0.212-0.313-0.384-0.456-0.588-0.17-0.189-0.337-0.376-0.498-0.556-0.337-0.362-0.684-0.698-0.989-1.01-0.623-0.594-1.101-1.072-1.101-1.072z"/><polyline points="114 138.33 130.04 167.84 145.5 186.42" fill="none" stroke="#000" stroke-linecap="round" stroke-width="2"/><line x1="147.06" x2="152.69" y1="186.66" y2="195.85" fill="none" stroke="#000" stroke-linecap="round" stroke-width="2"/><path d="m143.83 147.53s2.035 3.845 2.035 9.845c0 0 7.583 5.958 6.933 15.925 0 0 14.264 14.015 0.701 23.491" fill="none" stroke="#000" stroke-linecap="round" stroke-width="2"/><path d="m89.259 61.759s-11.905 9.183-14.754 32.149" fill="none" stroke="#000"/><line x1="113.44" x2="117.3" y1="125.59" y2="130.34" fill="none" stroke="#000" stroke-linecap="round" stroke-width="2"/></svg>
